<svg width="634" height="212" viewBox="0 0 634 212" fill="none" xmlns="http://www.w3.org/2000/svg">
<g filter="url(#filter0_d_2001_7523)">
<path fill-rule="evenodd" clip-rule="evenodd" d="M606 212L606 171.5C595.006 168.587 583.158 167 570.808 167C561.2 167 551.897 167.961 543.063 169.758C526.448 150.088 496.889 137 463.192 137C445.794 137 429.499 140.489 415.519 146.572C408.648 110.086 366.249 82 314.97 82C265.073 82 223.583 108.593 215.053 143.641C202.868 139.382 189.245 137 174.87 137C141.173 137 111.614 150.088 94.9989 169.758C86.1654 167.96 76.8621 167 67.2552 167C53.3683 167 40.1157 169.007 27.9996 172.648L27.9995 212L606 212Z" fill="white"/>
</g>
<defs>
<filter id="filter0_d_2001_7523" x="0" y="0" width="634" height="212" filterUnits="userSpaceOnUse" color-interpolation-filters="sRGB">
<feFlood flood-opacity="0" result="BackgroundImageFix"/>
<feColorMatrix in="SourceAlpha" type="matrix" values="0 0 0 0 0 0 0 0 0 0 0 0 0 0 0 0 0 0 127 0" result="hardAlpha"/>
<feOffset dy="-54"/>
<feGaussianBlur stdDeviation="14"/>
<feComposite in2="hardAlpha" operator="out"/>
<feColorMatrix type="matrix" values="0 0 0 0 0.465876 0 0 0 0 0.698082 0 0 0 0 0.848333 0 0 0 0.2 0"/>
<feBlend mode="normal" in2="BackgroundImageFix" result="effect1_dropShadow_2001_7523"/>
<feBlend mode="normal" in="SourceGraphic" in2="effect1_dropShadow_2001_7523" result="shape"/>
</filter>
</defs>
</svg>
