<svg width="578" height="130" viewBox="0 0 578 130" fill="none" xmlns="http://www.w3.org/2000/svg">
<path fill-rule="evenodd" clip-rule="evenodd" d="M578 130L578 89.4999C567.006 86.5871 555.158 85.0003 542.808 85.0003C533.2 85.0003 523.897 85.9605 515.063 87.7582C498.448 68.088 468.889 55 435.192 55C417.794 55 401.499 58.4891 387.519 64.5717C380.648 28.0864 338.249 3.09681e-05 286.97 3.75918e-05C237.073 4.40369e-05 195.583 26.5931 187.053 61.6409C174.868 57.382 161.245 55 146.87 55C113.173 55 83.614 68.0879 66.9989 87.758C58.1654 85.9605 48.8621 85.0003 39.2552 85.0003C25.3683 85.0003 12.1157 87.0066 -0.000405819 90.6482L-0.000457541 130L578 130Z" fill="white"/>
</svg>
