<svg width="1665" height="616" viewBox="0 0 1665 616" fill="none" xmlns="http://www.w3.org/2000/svg">
<g filter="url(#filter0_d_4052_758)">
<path fill-rule="evenodd" clip-rule="evenodd" d="M1488 90C1488 96.0005 1488.84 101.805 1490.41 107.303C1454.79 120.035 1428.14 150.821 1422.23 188.244C1416.28 187.424 1410.19 187 1404 187C1356.41 187 1314.84 212.069 1292.48 249.373C1290.52 249.127 1288.53 249 1286.5 249C1265.25 249 1247.25 262.958 1241.19 282.207C1238.64 282.07 1236.08 282 1233.5 282C1187.71 282 1147.03 303.907 1121.38 337.813C1096.04 341.105 1073.77 354.177 1058.48 373.118C1047.11 364.866 1033.12 360 1018 360L1018 360C1017.52 360 1017.04 360.005 1016.55 360.015C1009.35 360.163 1002.41 361.417 995.907 363.613C980.746 347.246 959.07 337 935 337C906.913 337 882.083 350.952 867.065 372.303C854.928 364.516 840.492 360 825 360C817.402 360 810.057 361.087 803.112 363.113C791.637 358.524 779.114 356 766 356C727.672 356 694.38 377.564 677.594 409.221C671.466 407.769 665.073 407 658.5 407C640.32 407 623.514 412.881 609.879 422.843C592.143 399.828 564.303 385 533 385C504.751 385 479.323 397.076 461.595 416.346C449.568 406.15 434.002 400 417 400C409.273 400 401.843 401.27 394.906 403.613C379.746 387.246 358.07 377 334 377C305.912 377 281.083 390.952 266.065 412.303C253.928 404.516 239.491 400 224 400C216.803 400 209.834 400.975 203.217 402.799C185.082 384.404 159.873 373.001 132 373.001C76.7715 373.001 32.0001 417.772 32.0001 473.001C32.0001 528.229 76.7716 573.001 132 573.001C155.969 573.001 177.968 564.568 195.192 550.508C204.105 554.052 213.825 556 224 556C248.583 556 270.509 544.628 284.806 526.857C298.573 537.004 315.586 543 334 543C351.63 543 367.976 537.503 381.418 528.13C391.808 534.396 403.983 538 417 538C428.479 538 439.303 535.197 448.826 530.238C465.56 559.376 496.988 579 533 579C560.142 579 584.681 567.852 602.287 549.885C617.019 563.606 636.78 572 658.5 572C682.832 572 704.703 561.467 719.803 544.713C733.621 551.923 749.335 556 766 556C800.323 556 830.607 538.708 848.616 512.361C863.413 507.666 876.297 498.677 885.807 486.857C899.573 497.004 916.587 503 935 503C952.63 503 968.977 497.503 982.419 488.13C992.808 494.396 1004.98 498 1018 498C1030.99 498 1043.15 494.41 1053.52 488.167C1070.95 514.006 1100.49 531 1134 531C1137.26 531 1140.48 530.839 1143.66 530.525C1168.01 550.803 1199.33 563 1233.5 563C1291.63 563 1341.51 527.7 1362.88 477.367C1382.29 514.084 1420.07 539 1463.5 539C1526.74 539 1578 486.17 1578 421C1578 400.218 1572.79 380.692 1563.64 363.733C1592.37 357.882 1614 332.466 1614 302C1614 291.196 1611.28 281.028 1606.49 272.142C1622.99 253.983 1633 230.128 1633 204C1633 174.667 1620.38 148.198 1600.13 129.439C1608.81 118.644 1614 104.928 1614 90C1614 55.2061 1585.79 27 1551 27C1516.21 27 1488 55.2061 1488 90Z" fill="white"/>
</g>
<defs>
<filter id="filter0_d_4052_758" x="0" y="0" width="1665" height="616" filterUnits="userSpaceOnUse" color-interpolation-filters="sRGB">
<feFlood flood-opacity="0" result="BackgroundImageFix"/>
<feColorMatrix in="SourceAlpha" type="matrix" values="0 0 0 0 0 0 0 0 0 0 0 0 0 0 0 0 0 0 127 0" result="hardAlpha"/>
<feOffset dy="5"/>
<feGaussianBlur stdDeviation="16"/>
<feComposite in2="hardAlpha" operator="out"/>
<feColorMatrix type="matrix" values="0 0 0 0 0.821667 0 0 0 0 0.78803 0 0 0 0 0.731968 0 0 0 0.32 0"/>
<feBlend mode="normal" in2="BackgroundImageFix" result="effect1_dropShadow_4052_758"/>
<feBlend mode="normal" in="SourceGraphic" in2="effect1_dropShadow_4052_758" result="shape"/>
</filter>
</defs>
</svg>
