<svg width="1639" height="179" viewBox="0 0 1639 179" fill="none" xmlns="http://www.w3.org/2000/svg">
<g filter="url(#filter0_d_4508_823)">
<path fill-rule="evenodd" clip-rule="evenodd" d="M1559.99 53.5741C1588.73 59.4251 1610.35 84.8404 1610.35 115.307C1610.35 150.101 1582.15 178.307 1547.35 178.307C1515.39 178.307 1488.99 154.508 1484.9 123.665C1467.33 132.387 1447.43 137.306 1426.35 137.306C1392.9 137.306 1362.42 124.919 1339.5 104.603C1335.47 105.713 1331.23 106.306 1326.85 106.306C1317.39 106.306 1308.58 103.542 1301.18 98.7771C1287.82 103.649 1273.4 106.306 1258.35 106.306C1224.6 106.306 1193.97 92.9273 1171.48 71.183C1158.99 77.0362 1145.05 80.3067 1130.35 80.3067C1099.84 80.3067 1072.62 66.2173 1054.83 44.1893C1053.41 45.2208 1051.95 46.1993 1050.45 47.122C1039.95 53.5813 1027.59 57.3066 1014.35 57.3066L1014.35 57.3067C1013.87 57.3067 1013.39 57.3017 1012.91 57.2918C1005.7 57.1437 998.761 55.8901 992.259 53.6936C977.098 70.0612 955.422 80.3066 931.352 80.3066C898.253 80.3066 869.678 60.9314 856.352 32.9036C846.85 37.0231 836.368 39.3066 825.352 39.3066C816.164 39.3066 807.347 37.718 799.161 34.8003C788.883 38.3681 777.844 40.3066 766.352 40.3066C734.923 40.3066 706.881 25.8078 688.549 3.13383C678.26 7.74316 666.856 10.3066 654.852 10.3066C636.672 10.3066 619.865 4.42613 606.231 -5.53658C588.495 17.4787 560.655 32.3067 529.351 32.3067C501.103 32.3067 475.674 20.2313 457.947 0.960739C445.92 11.157 430.354 17.3066 413.351 17.3066C405.624 17.3066 398.194 16.0364 391.258 13.6935C376.097 30.0612 354.421 40.3066 330.351 40.3066C302.264 40.3066 277.434 26.3548 262.416 5.00323C250.279 12.7906 235.843 17.3066 220.351 17.3066C213.154 17.3066 206.185 16.3319 199.568 14.5073C181.433 32.9032 156.224 44.3066 128.351 44.3066C73.1228 44.3066 28.3513 -0.464951 28.3513 -55.6934C28.3513 -57.37 28.3926 -59.037 28.4741 -60.6934H1560.13C1569.19 -43.7965 1574.35 -24.3657 1574.35 -3.69333C1574.35 17.0882 1569.14 36.615 1559.99 53.5741Z" fill="white"/>
</g>
<defs>
<filter id="filter0_d_4508_823" x="0.351562" y="-142.693" width="1638" height="321" filterUnits="userSpaceOnUse" color-interpolation-filters="sRGB">
<feFlood flood-opacity="0" result="BackgroundImageFix"/>
<feColorMatrix in="SourceAlpha" type="matrix" values="0 0 0 0 0 0 0 0 0 0 0 0 0 0 0 0 0 0 127 0" result="hardAlpha"/>
<feOffset dy="-54"/>
<feGaussianBlur stdDeviation="14"/>
<feComposite in2="hardAlpha" operator="out"/>
<feColorMatrix type="matrix" values="0 0 0 0 0.465876 0 0 0 0 0.698082 0 0 0 0 0.848333 0 0 0 0.2 0"/>
<feBlend mode="normal" in2="BackgroundImageFix" result="effect1_dropShadow_4508_823"/>
<feBlend mode="normal" in="SourceGraphic" in2="effect1_dropShadow_4508_823" result="shape"/>
</filter>
</defs>
</svg>
