<svg width="393" height="80" viewBox="0 0 393 80" fill="none" xmlns="http://www.w3.org/2000/svg">
<path fill-rule="evenodd" clip-rule="evenodd" d="M317.002 36.1184C335.024 14.8151 362.3 0.936659 393 0.0465097V80L0 79.9999L1.10869e-05 19.4948C3.44712 19.1682 6.94337 19.001 10.4805 19.001C24.2233 19.001 37.3482 21.525 49.3739 26.1138C56.6515 24.0876 64.349 23.001 72.3125 23.001C88.5474 23.001 103.677 27.517 116.396 35.3043C132.136 13.9528 158.157 0.000976563 187.592 0.000976562C212.817 0.000976562 235.534 10.2464 251.422 26.614C258.237 24.4175 265.507 23.1639 273.062 23.0158C273.565 23.0059 274.07 23.001 274.576 23.001C290.426 23.001 305.085 27.8668 317.002 36.1184Z" fill="#E2F2FF"/>
</svg>
