<svg width="1638" height="321" viewBox="0 0 1638 321" fill="none" xmlns="http://www.w3.org/2000/svg">
<g filter="url(#filter0_d_4241_758)">
<path fill-rule="evenodd" clip-rule="evenodd" d="M1559.64 196.267C1588.37 202.118 1610 227.534 1610 258C1610 292.794 1581.79 321 1547 321C1515.04 321 1488.64 297.201 1484.55 266.358C1466.98 275.081 1447.08 280 1426 280C1392.55 280 1362.07 267.613 1339.15 247.297C1335.12 248.407 1330.88 249 1326.5 249C1317.04 249 1308.23 246.235 1300.83 241.47C1287.47 246.342 1273.04 249 1258 249C1224.25 249 1193.62 235.621 1171.13 213.876C1158.64 219.73 1144.7 223 1130 223C1099.49 223 1072.26 208.911 1054.48 186.883C1043.11 195.134 1029.12 200 1014 200L1014 200C1013.52 200 1013.04 199.995 1012.56 199.985C1005.35 199.837 998.41 198.583 991.907 196.387C976.747 212.755 955.07 223 931.001 223C897.901 223 869.326 203.625 856 175.597C846.499 179.716 836.016 182 825.001 182C815.813 182 806.996 180.411 798.809 177.494C788.532 181.062 777.493 183 766.001 183C734.572 183 706.529 168.501 688.197 145.827C677.909 150.437 666.504 153 654.501 153C636.321 153 619.514 147.12 605.879 137.157C588.143 160.172 560.303 175 529 175C500.751 175 475.323 162.925 457.595 143.654C445.568 153.85 430.002 160 413 160C405.273 160 397.843 158.73 390.906 156.387C375.746 172.755 354.069 183 330 183C301.912 183 277.083 169.048 262.065 147.697C249.928 155.484 235.491 160 220 160C212.803 160 205.834 159.025 199.217 157.201C181.082 175.597 155.873 187 128 187C72.7715 187 28 142.228 28 86.9999C28 85.3233 28.0413 83.6564 28.1228 82H1559.78C1568.84 98.8968 1574 118.328 1574 139C1574 159.782 1568.79 179.308 1559.64 196.267Z" fill="white"/>
</g>
<defs>
<filter id="filter0_d_4241_758" x="0" y="0" width="1638" height="321" filterUnits="userSpaceOnUse" color-interpolation-filters="sRGB">
<feFlood flood-opacity="0" result="BackgroundImageFix"/>
<feColorMatrix in="SourceAlpha" type="matrix" values="0 0 0 0 0 0 0 0 0 0 0 0 0 0 0 0 0 0 127 0" result="hardAlpha"/>
<feOffset dy="-54"/>
<feGaussianBlur stdDeviation="14"/>
<feComposite in2="hardAlpha" operator="out"/>
<feColorMatrix type="matrix" values="0 0 0 0 0.465876 0 0 0 0 0.698082 0 0 0 0 0.848333 0 0 0 0.2 0"/>
<feBlend mode="normal" in2="BackgroundImageFix" result="effect1_dropShadow_4241_758"/>
<feBlend mode="normal" in="SourceGraphic" in2="effect1_dropShadow_4241_758" result="shape"/>
</filter>
</defs>
</svg>
