<svg width="393" height="204" viewBox="0 0 393 204" fill="none" xmlns="http://www.w3.org/2000/svg">
<g filter="url(#filter0_d_23_4246)">
<path fill-rule="evenodd" clip-rule="evenodd" d="M406.871 192C398.775 163.036 372.137 141.786 340.525 141.786C326.846 141.786 314.099 145.764 303.383 152.624C290.122 133.815 268.199 121.524 243.399 121.524C222.27 121.524 203.229 130.445 189.854 144.718C183.66 142.577 177.016 141.412 170.103 141.412C152.954 141.412 137.463 148.578 126.394 160.05C113.032 142.975 92.2332 132 68.8707 132C62.7518 132 56.8086 132.753 51.1289 134.171C33.7213 114.443 8.24912 102 -20.1293 102C-22.9205 102 -25.6835 102.12 -28.4136 102.356C-26.2312 97.2906 -25.0225 91.7088 -25.0225 85.8454C-25.0225 62.7348 -43.8 44 -66.9632 44C-90.1264 44 -108.904 62.7348 -108.904 85.8454C-108.904 103.665 -97.7406 118.882 -82.0109 124.917C-101.107 141.326 -113.61 165.193 -115 192H406.871Z" fill="white"/>
</g>
<defs>
<filter id="filter0_d_23_4246" x="-143" y="0" width="577.871" height="204" filterUnits="userSpaceOnUse" color-interpolation-filters="sRGB">
<feFlood flood-opacity="0" result="BackgroundImageFix"/>
<feColorMatrix in="SourceAlpha" type="matrix" values="0 0 0 0 0 0 0 0 0 0 0 0 0 0 0 0 0 0 127 0" result="hardAlpha"/>
<feOffset dy="-16"/>
<feGaussianBlur stdDeviation="14"/>
<feComposite in2="hardAlpha" operator="out"/>
<feColorMatrix type="matrix" values="0 0 0 0 0.465876 0 0 0 0 0.698082 0 0 0 0 0.848333 0 0 0 0.2 0"/>
<feBlend mode="normal" in2="BackgroundImageFix" result="effect1_dropShadow_23_4246"/>
<feBlend mode="normal" in="SourceGraphic" in2="effect1_dropShadow_23_4246" result="shape"/>
</filter>
</defs>
</svg>
