<svg width="393" height="187" viewBox="0 0 393 187" fill="none" xmlns="http://www.w3.org/2000/svg">
<g filter="url(#filter0_d_23_3361)">
<path fill-rule="evenodd" clip-rule="evenodd" d="M0 124.198C5.46982 126.055 10.6498 128.565 15.4521 131.638C29.5388 114.735 50.477 104.021 73.8547 104.021C94.9084 104.021 113.983 112.711 127.857 126.785C136.325 122.484 145.845 120.063 155.909 120.063C168.518 120.063 180.272 123.864 190.171 130.402C206.628 110.941 230.912 98.6337 257.999 98.6337C269.519 98.6337 280.532 100.86 290.652 104.916C301.805 92.9971 317.478 85.5807 334.836 85.5807C344.02 85.5807 352.733 87.6572 360.555 91.3785C360.452 90.1226 360.4 88.8522 360.4 87.5692C360.4 66.6952 374.228 49.1344 393 44V168.594C392.337 170.634 391.576 172.629 390.721 174.57H0V124.198Z" fill="white"/>
</g>
<defs>
<filter id="filter0_d_23_3361" x="-28" y="0" width="449" height="186.57" filterUnits="userSpaceOnUse" color-interpolation-filters="sRGB">
<feFlood flood-opacity="0" result="BackgroundImageFix"/>
<feColorMatrix in="SourceAlpha" type="matrix" values="0 0 0 0 0 0 0 0 0 0 0 0 0 0 0 0 0 0 127 0" result="hardAlpha"/>
<feOffset dy="-16"/>
<feGaussianBlur stdDeviation="14"/>
<feComposite in2="hardAlpha" operator="out"/>
<feColorMatrix type="matrix" values="0 0 0 0 0.465876 0 0 0 0 0.698082 0 0 0 0 0.848333 0 0 0 0.2 0"/>
<feBlend mode="normal" in2="BackgroundImageFix" result="effect1_dropShadow_23_3361"/>
<feBlend mode="normal" in="SourceGraphic" in2="effect1_dropShadow_23_3361" result="shape"/>
</filter>
</defs>
</svg>
