<svg width="1440" height="534" viewBox="0 0 1440 534" fill="none" xmlns="http://www.w3.org/2000/svg">
<g filter="url(#filter0_d_1_220)">
<path fill-rule="evenodd" clip-rule="evenodd" d="M1377.41 163.146C1375.84 157.648 1375 151.843 1375 145.843C1375 111.049 1403.21 82.8428 1438 82.8428C1472.79 82.8428 1501 111.049 1501 145.843C1501 160.771 1495.81 174.486 1487.13 185.282C1507.38 204.041 1520 230.51 1520 259.843C1520 285.971 1509.99 309.826 1493.49 327.985C1498.28 336.871 1501 347.039 1501 357.843C1501 388.309 1479.37 413.724 1450.64 419.575C1459.79 436.534 1465 456.061 1465 476.843C1465 497.515 1459.84 516.946 1450.78 533.843L1250.22 533.843C1250.11 533.632 1250 533.421 1249.88 533.21C1249.79 533.421 1249.7 533.632 1249.61 533.843L-80.8769 533.843C-80.9584 532.187 -80.9997 530.52 -80.9997 528.843C-80.9997 473.615 -36.2282 428.843 19.0003 428.843C46.8729 428.843 72.082 440.246 90.217 458.642C96.8339 456.817 103.803 455.843 111 455.843C126.492 455.843 140.928 460.359 153.065 468.146C168.084 446.795 192.913 432.843 221 432.843C245.07 432.843 266.746 443.088 281.907 459.456C288.843 457.113 296.273 455.843 304 455.843C321.003 455.843 336.569 461.993 348.596 472.189C366.323 452.918 391.752 440.843 420 440.843C451.303 440.843 479.143 455.671 496.879 478.686C510.514 468.723 527.321 462.843 545.501 462.843C552.073 462.843 558.466 463.611 564.594 465.064C581.38 433.406 614.672 411.843 653.001 411.843C666.114 411.843 678.638 414.367 690.113 418.956C697.057 416.929 704.402 415.843 712.001 415.843C727.492 415.843 741.928 420.359 754.065 428.146C769.084 406.795 793.913 392.843 822.001 392.843C846.07 392.843 867.746 403.088 882.907 419.456C889.41 417.259 896.347 416.006 903.555 415.858C904.036 415.848 904.517 415.843 905 415.843L905.001 415.843C920.124 415.843 934.112 420.709 945.483 428.96C960.772 410.02 983.042 396.948 1008.38 393.656C1034.03 359.75 1074.71 337.843 1120.5 337.843C1123.08 337.843 1125.64 337.912 1128.19 338.05C1134.25 318.801 1152.25 304.843 1173.5 304.843C1175.53 304.843 1177.52 304.97 1179.48 305.216C1201.84 267.912 1243.41 242.843 1291 242.843C1297.19 242.843 1303.28 243.267 1309.23 244.087C1315.14 206.663 1341.79 175.878 1377.41 163.146Z" fill="white"/>
</g>
<defs>
<filter id="filter0_d_1_220" x="-109" y="0.842773" width="1657" height="533" filterUnits="userSpaceOnUse" color-interpolation-filters="sRGB">
<feFlood flood-opacity="0" result="BackgroundImageFix"/>
<feColorMatrix in="SourceAlpha" type="matrix" values="0 0 0 0 0 0 0 0 0 0 0 0 0 0 0 0 0 0 127 0" result="hardAlpha"/>
<feOffset dy="-54"/>
<feGaussianBlur stdDeviation="14"/>
<feComposite in2="hardAlpha" operator="out"/>
<feColorMatrix type="matrix" values="0 0 0 0 0.465876 0 0 0 0 0.698082 0 0 0 0 0.848333 0 0 0 0.2 0"/>
<feBlend mode="normal" in2="BackgroundImageFix" result="effect1_dropShadow_1_220"/>
<feBlend mode="normal" in="SourceGraphic" in2="effect1_dropShadow_1_220" result="shape"/>
</filter>
</defs>
</svg>
