<svg width="1440" height="269" viewBox="0 0 1440 269" fill="none" xmlns="http://www.w3.org/2000/svg">
<g filter="url(#filter0_d_1_1811)">
<path fill-rule="evenodd" clip-rule="evenodd" d="M-0.967797 223.967C5.18345 222.731 11.5354 222.084 18.0318 222.084C45.9045 222.084 71.1137 233.992 89.2488 253.201C95.8656 251.296 102.835 250.278 110.032 250.278C124.017 250.278 137.143 254.122 148.493 260.852C162.929 236.408 189.563 220.008 220.032 220.008C244.101 220.008 265.778 230.242 280.938 246.592C287.874 244.252 295.305 242.983 303.032 242.983C322.009 242.983 339.197 250.636 351.672 263.021C369.119 245.433 392.866 234.615 419.032 234.615C447.599 234.615 473.281 247.51 491.033 268.03L-0.967805 268.03L-0.967797 223.967ZM505.13 268.03C516.838 261.371 530.262 257.588 544.533 257.588C551.105 257.588 557.498 258.39 563.626 259.906C580.412 226.849 613.704 204.332 652.033 204.332C665.146 204.332 677.67 206.968 689.145 211.76C696.089 209.644 703.434 208.509 711.033 208.509C726.524 208.509 740.96 213.225 753.097 221.357C768.116 199.061 792.945 184.492 821.033 184.492C845.102 184.492 866.778 195.191 881.939 212.282C888.442 209.988 895.379 208.679 902.587 208.525C903.068 208.514 903.549 208.509 904.032 208.509L904.033 208.509C919.157 208.509 933.144 213.59 944.515 222.207C962.296 199.205 989.519 184.492 1020.03 184.492C1034.73 184.492 1048.67 187.907 1061.16 194.019C1083.65 171.313 1114.28 157.343 1148.03 157.343C1163.08 157.343 1177.5 160.118 1190.86 165.205C1198.26 160.229 1207.07 157.343 1216.53 157.343C1220.91 157.343 1225.15 157.962 1229.18 159.121C1252.1 137.907 1282.58 124.972 1316.03 124.972C1337.11 124.972 1357.01 130.108 1374.58 139.217C1378.67 107.01 1405.07 82.1586 1437.03 82.1586C1438.04 82.1586 1439.04 82.1832 1440.03 82.2319L1440.03 268.03L505.13 268.03Z" fill="white"/>
</g>
<defs>
<filter id="filter0_d_1_1811" x="-28.9678" y="0.1586" width="1497" height="267.871" filterUnits="userSpaceOnUse" color-interpolation-filters="sRGB">
<feFlood flood-opacity="0" result="BackgroundImageFix"/>
<feColorMatrix in="SourceAlpha" type="matrix" values="0 0 0 0 0 0 0 0 0 0 0 0 0 0 0 0 0 0 127 0" result="hardAlpha"/>
<feOffset dy="-54"/>
<feGaussianBlur stdDeviation="14"/>
<feComposite in2="hardAlpha" operator="out"/>
<feColorMatrix type="matrix" values="0 0 0 0 0.465876 0 0 0 0 0.698082 0 0 0 0 0.848333 0 0 0 0.2 0"/>
<feBlend mode="normal" in2="BackgroundImageFix" result="effect1_dropShadow_1_1811"/>
<feBlend mode="normal" in="SourceGraphic" in2="effect1_dropShadow_1_1811" result="shape"/>
</filter>
</defs>
</svg>
