<svg width="1440" height="261" viewBox="0 0 1440 261" fill="none" xmlns="http://www.w3.org/2000/svg">
<g filter="url(#filter0_d_1_763)">
<path fill-rule="evenodd" clip-rule="evenodd" d="M-1.64797 42.504C4.50327 43.6871 10.8552 44.3066 17.3517 44.3066C45.2243 44.3066 70.4337 32.9032 88.5687 14.5073C95.1855 16.3319 102.155 17.3066 109.352 17.3066C124.843 17.3066 139.279 12.7906 151.416 5.00325C166.435 26.3548 191.264 40.3066 219.352 40.3066C243.421 40.3066 265.098 30.0612 280.258 13.6935C287.194 16.0364 294.625 17.3066 302.352 17.3066C319.354 17.3066 334.92 11.157 346.947 0.960747C364.675 20.2313 390.103 32.3067 418.352 32.3067C446.919 32.3067 472.601 19.9579 490.353 0.307112L-1.64798 0.307198L-1.64797 42.504ZM504.45 0.307109C516.158 6.68357 529.582 10.3066 543.852 10.3066C555.856 10.3066 567.26 7.74318 577.549 3.13385C595.881 25.8078 623.923 40.3066 655.352 40.3067C666.844 40.3067 677.884 38.3682 688.161 34.8003C696.347 37.718 705.164 39.3066 714.352 39.3066C725.368 39.3066 735.85 37.0231 745.352 32.9036C758.678 60.9314 787.253 80.3066 820.352 80.3066C844.422 80.3066 866.098 70.0612 881.259 53.6936C887.761 55.8901 894.698 57.1437 901.907 57.2918C902.387 57.3017 902.869 57.3067 903.352 57.3067L903.352 57.3066C918.476 57.3066 932.464 52.4408 943.835 44.1892C961.616 66.2173 988.839 80.3067 1019.35 80.3067C1034.05 80.3067 1047.99 77.0362 1060.48 71.183C1082.97 92.9273 1113.6 106.306 1147.35 106.306C1162.4 106.306 1176.82 103.649 1190.18 98.7771C1197.58 103.542 1206.39 106.306 1215.85 106.306C1220.23 106.306 1224.47 105.713 1228.5 104.603C1251.42 124.919 1281.9 137.306 1315.35 137.306C1336.43 137.306 1356.33 132.387 1373.9 123.665C1377.99 154.508 1404.39 178.307 1436.35 178.307C1437.36 178.307 1438.36 178.283 1439.35 178.236L1439.35 0.306946L504.45 0.307109Z" fill="white"/>
</g>
<defs>
<filter id="filter0_d_1_763" x="-29.648" y="0.307129" width="1497" height="260" filterUnits="userSpaceOnUse" color-interpolation-filters="sRGB">
<feFlood flood-opacity="0" result="BackgroundImageFix"/>
<feColorMatrix in="SourceAlpha" type="matrix" values="0 0 0 0 0 0 0 0 0 0 0 0 0 0 0 0 0 0 127 0" result="hardAlpha"/>
<feOffset dy="54"/>
<feGaussianBlur stdDeviation="14"/>
<feComposite in2="hardAlpha" operator="out"/>
<feColorMatrix type="matrix" values="0 0 0 0 0.465876 0 0 0 0 0.698082 0 0 0 0 0.848333 0 0 0 0.2 0"/>
<feBlend mode="normal" in2="BackgroundImageFix" result="effect1_dropShadow_1_763"/>
<feBlend mode="normal" in="SourceGraphic" in2="effect1_dropShadow_1_763" result="shape"/>
</filter>
</defs>
</svg>
