<svg width="2105" height="428" viewBox="0 0 2105 428" fill="none" xmlns="http://www.w3.org/2000/svg">
<g filter="url(#filter0_d_4508_796)">
<path fill-rule="evenodd" clip-rule="evenodd" d="M1418.23 170.087C1426.04 120.68 1469.97 82.8428 1523 82.8428C1544.4 82.8428 1564.32 89.004 1580.98 99.6005C1589.9 94.7533 1600.13 92 1611 92C1645.79 92 1674 120.206 1674 155C1674 155.758 1673.99 156.513 1673.96 157.265C1697.08 168.961 1713 193.554 1713 222C1713 232.927 1710.65 243.285 1706.45 252.563C1717.7 263.346 1726.85 276.436 1733.17 291.102C1749.34 282.106 1767.84 277 1787.5 277C1850.74 277 1902 329.83 1902 395C1902 395.369 1902 395.737 1902 396.105C1901.99 396.678 1901.98 397.249 1901.97 397.819C1919.53 386.526 1940.28 380 1962.5 380C2025.74 380 2077 432.83 2077 498C2077 563.17 2025.74 616 1962.5 616C1899.26 616 1848 563.17 1848 498C1848 497.058 1848.01 496.118 1848.03 495.181C1830.47 506.474 1809.73 513 1787.5 513C1740.81 513 1700.65 484.2 1682.83 442.898C1666.66 451.894 1648.16 457 1628.5 457C1606.45 457 1585.86 450.577 1568.38 439.447C1553.44 486.698 1510.34 520.843 1459.5 520.843C1416.07 520.843 1378.29 495.927 1358.88 459.21C1337.51 509.543 1287.63 544.843 1229.5 544.843C1195.33 544.843 1164.01 532.646 1139.66 512.369C1136.48 512.683 1133.26 512.843 1130 512.843C1096.49 512.843 1066.95 495.85 1049.52 470.01C1039.15 476.253 1026.99 479.843 1014 479.843C1013.57 479.843 1013.14 479.839 1012.71 479.831C1000.18 479.601 988.464 476.031 978.419 469.973C964.976 479.347 948.63 484.843 931 484.843C912.586 484.843 895.573 478.847 881.807 468.7C872.297 480.52 859.413 489.509 844.616 494.204C826.607 520.551 796.323 537.843 762 537.843C745.335 537.843 729.621 533.766 715.802 526.556C700.702 543.31 678.831 553.843 654.5 553.843C632.78 553.843 613.019 545.449 598.287 531.728C580.681 549.695 556.142 560.843 529 560.843C492.988 560.843 461.56 541.219 444.826 512.081C435.303 517.04 424.479 519.843 413 519.843C399.983 519.843 387.808 516.239 377.419 509.973C363.977 519.347 347.63 524.843 330 524.843C311.586 524.843 294.573 518.847 280.806 508.7C266.51 526.471 244.583 537.843 220 537.843C209.825 537.843 200.105 535.894 191.193 532.351C173.968 546.411 151.969 554.844 128 554.844C72.7715 554.844 28 510.072 28 454.844C28 399.615 72.7715 354.844 128 354.844C155.872 354.844 181.081 366.247 199.216 384.642C205.833 382.818 212.803 381.843 220 381.843C235.492 381.843 249.928 386.359 262.065 394.146C277.084 372.795 301.913 358.843 330 358.843C354.07 358.843 375.746 369.089 390.907 385.456C397.843 383.113 405.273 381.843 413 381.843C430.003 381.843 445.569 387.993 457.595 398.189C475.323 378.919 500.751 366.843 529 366.843C560.303 366.843 588.143 381.671 605.879 404.686C619.514 394.724 636.32 388.843 654.5 388.843C661.073 388.843 667.465 389.612 673.594 391.064C690.38 359.407 723.672 337.843 762 337.843C775.114 337.843 787.637 340.367 799.112 344.956C806.057 342.93 813.401 341.843 821 341.843C836.491 341.843 850.928 346.359 863.065 354.147C878.083 332.795 902.912 318.843 931 318.843C955.069 318.843 976.746 329.088 991.906 345.456C998.842 343.113 1006.27 341.843 1014 341.843C1015.98 341.843 1017.94 341.927 1019.88 342.091C1032.74 343.176 1044.6 347.79 1054.48 354.961C1069.77 336.02 1092.04 322.949 1117.38 319.657C1143.03 285.75 1183.71 263.843 1229.5 263.843C1232.08 263.843 1234.64 263.912 1237.19 264.05C1243.25 244.801 1261.25 230.843 1282.5 230.843C1284.53 230.843 1286.52 230.97 1288.48 231.216C1310.84 193.912 1352.41 168.843 1400 168.843C1406.19 168.843 1412.28 169.267 1418.23 170.087Z" fill="white"/>
</g>
<defs>
<filter id="filter0_d_4508_796" x="0" y="0.842773" width="2105" height="615.157" filterUnits="userSpaceOnUse" color-interpolation-filters="sRGB">
<feFlood flood-opacity="0" result="BackgroundImageFix"/>
<feColorMatrix in="SourceAlpha" type="matrix" values="0 0 0 0 0 0 0 0 0 0 0 0 0 0 0 0 0 0 127 0" result="hardAlpha"/>
<feOffset dy="-54"/>
<feGaussianBlur stdDeviation="14"/>
<feComposite in2="hardAlpha" operator="out"/>
<feColorMatrix type="matrix" values="0 0 0 0 0.465876 0 0 0 0 0.698082 0 0 0 0 0.848333 0 0 0 0.2 0"/>
<feBlend mode="normal" in2="BackgroundImageFix" result="effect1_dropShadow_4508_796"/>
<feBlend mode="normal" in="SourceGraphic" in2="effect1_dropShadow_4508_796" result="shape"/>
</filter>
</defs>
</svg>
