<svg width="20" height="19" viewBox="0 0 20 19" fill="none" xmlns="http://www.w3.org/2000/svg">
<path d="M9.23591 16.9056L9.23449 16.9042C6.64038 14.4686 4.56609 12.5159 3.12866 10.695C1.70317 8.8892 1 7.32904 1 5.69482C1 3.01577 3.00364 1 5.5 1C6.92453 1 8.31844 1.69201 9.23011 2.79185L10 3.72066L10.7699 2.79185C11.6816 1.69201 13.0755 1 14.5 1C16.9964 1 19 3.01577 19 5.69482C19 7.32904 18.2968 8.8892 16.8713 10.695C15.4339 12.5159 13.3596 14.4686 10.7655 16.9042L10.7641 16.9056L10 17.6258L9.23591 16.9056Z" fill="#B23358" stroke="#B23358" stroke-width="2"/>
</svg>
