<svg width="14" height="24" viewBox="0 0 14 24" fill="none" xmlns="http://www.w3.org/2000/svg">
<path d="M12.7226 22.88C13.0409 22.5557 13.2197 22.116 13.2197 21.6575C13.2197 21.199 13.0409 20.7592 12.7226 20.435L4.31806 11.8758L12.7226 3.3166C13.0319 2.99049 13.203 2.5537 13.1992 2.10033C13.1953 1.64696 13.0167 1.21327 12.7019 0.892679C12.3871 0.572084 11.9613 0.390235 11.5161 0.386297C11.0709 0.382356 10.642 0.556642 10.3218 0.871618L0.716844 10.6533C0.39854 10.9776 0.219726 11.4173 0.219726 11.8758C0.219726 12.3343 0.39854 12.774 0.716844 13.0983L10.3218 22.88C10.6402 23.2041 11.072 23.3862 11.5222 23.3862C11.9724 23.3862 12.4042 23.2041 12.7226 22.88Z" fill="#FFC000"/>
</svg>
