<svg width="80" height="79" viewBox="0 0 80 79" fill="none" xmlns="http://www.w3.org/2000/svg">
<g clip-path="url(#clip0_2001_5960)">
<path d="M19.8347 0.154785C19.8347 0.154785 21.797 5.21555 22.2618 5.88687C23.5012 7.74593 23.8626 11.9288 20.5577 12.755C19.783 12.9616 19.0084 12.755 18.1822 11.9804C16.633 10.5345 17.0977 8.26233 17.3043 7.59101C17.5109 6.91968 18.1306 5.52539 18.6986 4.54422C19.215 3.56305 19.8863 2.37532 19.8347 0.154785Z" fill="#D5731A"/>
<path d="M20.7643 2.47854C20.9192 3.14987 21.0742 3.71791 21.1774 3.92447C21.4873 4.54416 22.7267 8.05571 21.7971 9.24344C20.8676 10.3795 19.7831 10.6894 18.6987 9.29508C17.6142 7.95243 18.4405 6.14501 18.5954 5.52533C18.6987 5.16384 18.802 4.69908 18.9053 4.13103C19.4217 3.25315 19.8864 2.11706 19.8348 0.206362C19.8348 0.154722 20.2479 1.23917 20.7643 2.47854Z" fill="#EEC545"/>
<path d="M40.1291 0.258301C40.1291 0.258301 39.3028 2.11736 40.5938 4.07969C41.8849 6.04203 42.7111 8.62405 42.1947 10.7929C41.6783 12.9618 40.1807 13.2717 38.9414 12.7553C37.702 12.2389 37.2372 10.5864 37.4438 8.31421C37.6503 5.99039 39.0963 1.70423 40.1291 0.258301Z" fill="#D5731A"/>
<path d="M40.1291 0.258301C40.1291 0.258301 39.3545 2.22064 40.5938 4.07969C41.6783 5.73219 42.9693 11.6192 39.9225 10.3798C38.6315 9.86342 38.1667 8.21093 38.3733 5.93875C38.4766 4.64774 39.0446 2.6854 39.6643 0.981267C39.8192 0.671424 39.9741 0.413222 40.1291 0.258301Z" fill="#EEC545"/>
<path d="M58.8752 0C58.8752 0 59.753 2.84022 60.3727 3.87303C60.9408 4.90584 62.2318 9.24364 60.9408 11.0511C59.7014 12.8585 57.7907 12.0839 57.171 11.206C56.4997 10.3281 55.4669 8.52067 56.8095 5.16404C58.1522 1.80741 58.617 1.70413 58.8752 0Z" fill="#D5731A"/>
<path d="M58.8749 0C58.8749 0 59.2364 2.89186 59.9077 3.87303C61.0438 7.07474 60.2175 8.88215 58.7716 8.83051C57.6355 8.83051 56.6027 7.48786 57.5322 4.28616C58.72 1.54921 58.6683 1.54921 58.8749 0Z" fill="#EEC545"/>
<path d="M19.7832 11.5158C19.7832 11.3092 19.9898 11.1543 20.1963 11.1543C20.4545 11.1543 20.6095 11.3092 20.6095 11.5158V14.6142C20.6095 14.8208 20.4029 14.9757 20.1963 14.9757C19.9381 14.9757 19.7832 14.8208 19.7832 14.6142V11.5158ZM39.4066 11.5158C39.4066 11.3092 39.6131 11.1543 39.8197 11.1543C40.0779 11.1543 40.2328 11.3092 40.2328 11.5158V14.6142C40.2328 14.8208 40.0263 14.9757 39.8197 14.9757C39.5615 14.9757 39.4066 14.8208 39.4066 14.6142V11.5158ZM58.5135 11.5158C58.5135 11.3092 58.7201 11.1543 58.9266 11.1543C59.1848 11.1543 59.3398 11.3092 59.3398 11.5158V14.6142C59.3398 14.8208 59.1332 14.9757 58.9266 14.9757C58.6684 14.9757 58.5135 14.8208 58.5135 14.6142V11.5158Z" fill="#573C23"/>
<path d="M17.0457 19.7783L23.5008 15.6987C24.0172 15.3889 24.4303 15.6987 24.4303 16.4217V18.4873C24.4303 19.2103 24.0172 20.0365 23.5008 20.3464L17.0457 24.426C16.5293 24.7358 16.1162 24.426 16.1162 23.703V21.6374C16.1162 20.9661 16.581 20.1398 17.0457 19.7783Z" fill="#9DBD3F"/>
<path d="M24.4821 18.126V18.5391C24.4821 19.2621 24.069 20.0883 23.5525 20.3982L17.0975 24.4777C16.5811 24.7876 16.168 24.4777 16.168 23.7548V21.3793C16.6844 21.5342 17.8205 21.5859 20.041 20.6564C22.5197 19.6235 23.6558 18.7457 24.4821 18.126Z" fill="#779141"/>
<path d="M23.9139 15.1821C24.0172 15.337 23.9656 15.5435 23.5008 15.8017L17.0457 19.8813C16.5293 20.1912 16.1162 19.8813 16.1162 19.1584V17.0928C16.1162 13.5296 22.468 12.8066 23.9139 15.1821Z" fill="#E5E7A3"/>
<path d="M23.759 15.6986C21.5901 17.0412 19.2146 18.5388 17.0457 19.8814C16.5293 20.1913 16.1162 19.8814 16.1162 19.1585V16.783C18.3367 17.506 22.2614 15.5436 23.8106 14.9756C23.9656 15.1821 24.1721 15.492 23.759 15.6986Z" fill="#DCDE86"/>
<path d="M17.0457 24.374L23.5008 20.2944C24.0172 19.9846 24.4303 20.2944 24.4303 21.0174V23.083C24.4303 23.806 24.0172 24.6322 23.5008 24.9421L17.0457 29.0217C16.5293 29.3315 16.1162 29.0217 16.1162 28.2987V26.2331C16.1162 25.5618 16.581 24.7355 17.0457 24.374Z" fill="#E5E7A3"/>
<path d="M24.4821 22.7217V23.1348C24.4821 23.8578 24.069 24.684 23.5525 24.9939L17.0975 29.0735C16.5811 29.3833 16.168 29.0735 16.168 28.3505V25.975C16.6844 26.1299 17.8205 26.1816 20.041 25.2521C22.5197 24.2193 23.6558 23.3414 24.4821 22.7217Z" fill="#DCDE86"/>
<path d="M17.0457 28.9702L23.5008 24.8906C24.0172 24.5808 24.4303 24.8906 24.4303 25.6136V27.6792C24.4303 28.4022 24.0172 29.2284 23.5008 29.5383L17.0457 33.6179C16.5293 33.9277 16.1162 33.6179 16.1162 32.8949V30.8293C16.1162 30.158 16.581 29.3317 17.0457 28.9702Z" fill="#9DBD3F"/>
<path d="M24.4821 27.3179V27.731C24.4821 28.454 24.069 29.2802 23.5525 29.59L17.0975 33.6696C16.5811 33.9795 16.168 33.6696 16.168 32.9467V30.5712C16.6844 30.7261 17.8205 30.7778 20.041 29.8483C22.5197 28.8154 23.6558 27.9376 24.4821 27.3179Z" fill="#779141"/>
<path d="M17.0457 33.5664L23.5008 29.4868C24.0172 29.177 24.4303 29.4868 24.4303 30.2098V32.2754C24.4303 32.9984 24.0172 33.8246 23.5008 34.1345L17.0457 38.2141C16.5293 38.5239 16.1162 38.2141 16.1162 37.4911V35.4255C16.1162 34.7541 16.581 33.9279 17.0457 33.5664Z" fill="#E5E7A3"/>
<path d="M24.4821 31.8623V32.2754C24.4821 32.9984 24.069 33.8246 23.5525 34.1345L17.0975 38.2141C16.5811 38.5239 16.168 38.2141 16.168 37.4911V35.1157C16.6844 35.2706 17.8205 35.3222 20.041 34.3927C22.5197 33.4115 23.6558 32.5336 24.4821 31.8623Z" fill="#DCDE86"/>
<path d="M36.618 19.7783L43.0731 15.6987C43.5895 15.3889 44.0026 15.6987 44.0026 16.4217V18.4873C44.0026 19.2103 43.5895 20.0365 43.0731 20.3464L36.618 24.4776C36.1016 24.7875 35.6885 24.4776 35.6885 23.7546V21.689C35.6885 20.9661 36.1016 20.1398 36.618 19.7783Z" fill="#008CCF"/>
<path d="M44.0026 18.126V18.5391C44.0026 19.2621 43.5895 20.0883 43.0731 20.3982L36.618 24.4777C36.1016 24.7876 35.6885 24.4777 35.6885 23.7548V21.3793C36.2049 21.5342 37.341 21.5859 39.5615 20.6564C42.0402 19.6235 43.1763 18.7457 44.0026 18.126Z" fill="#406897"/>
<path d="M43.4862 15.1821C43.5895 15.337 43.5378 15.5435 43.0731 15.8017L36.618 19.8813C36.1016 20.1912 35.6885 19.8813 35.6885 19.1584V17.0928C35.6885 13.5296 41.9886 12.8066 43.4862 15.1821Z" fill="#C5E3E8"/>
<path d="M43.3313 15.6986C41.1624 17.0412 38.7869 18.5388 36.618 19.8814C36.1016 20.1913 35.6885 19.8814 35.6885 19.1585V16.783C37.909 17.506 41.8337 15.5436 43.3829 14.9756C43.5378 15.1821 43.7444 15.492 43.3313 15.6986Z" fill="#AED6DD"/>
<path d="M36.618 24.374L43.0731 20.2944C43.5895 19.9846 44.0026 20.2944 44.0026 21.0174V23.083C44.0026 23.806 43.5895 24.6322 43.0731 24.9421L36.618 29.0217C36.1016 29.3315 35.6885 29.0217 35.6885 28.2987V26.2331C35.6885 25.5618 36.1016 24.7355 36.618 24.374Z" fill="#C5E3E8"/>
<path d="M44.0026 22.7217V23.1348C44.0026 23.8578 43.5895 24.684 43.0731 24.9939L36.618 29.0735C36.1016 29.3833 35.6885 29.0735 35.6885 28.3505V25.975C36.2049 26.1299 37.341 26.1816 39.5615 25.2521C42.0402 24.2193 43.1763 23.3414 44.0026 22.7217Z" fill="#AED6DD"/>
<path d="M36.618 28.9702L43.0731 24.8906C43.5895 24.5808 44.0026 24.8906 44.0026 25.6136V27.6792C44.0026 28.4022 43.5895 29.2284 43.0731 29.5383L36.618 33.6179C36.1016 33.9277 35.6885 33.6179 35.6885 32.8949V30.8293C35.6885 30.158 36.1016 29.3317 36.618 28.9702Z" fill="#008CCF"/>
<path d="M44.0026 27.3179V27.731C44.0026 28.454 43.5895 29.2802 43.0731 29.59L36.618 33.6696C36.1016 33.9795 35.6885 33.6696 35.6885 32.9467V30.5712C36.2049 30.7261 37.341 30.7778 39.5615 29.8483C42.0402 28.8154 43.1763 27.9376 44.0026 27.3179Z" fill="#406897"/>
<path d="M36.618 33.5664L43.0731 29.4868C43.5895 29.177 44.0026 29.4868 44.0026 30.2098V32.2754C44.0026 32.9984 43.5895 33.8246 43.0731 34.1345L36.618 38.2141C36.1016 38.5239 35.6885 38.2141 35.6885 37.4911V35.4255C35.6885 34.7541 36.1016 33.9279 36.618 33.5664Z" fill="#C5E3E8"/>
<path d="M44.0026 31.8623V32.2754C44.0026 32.9984 43.5895 33.8246 43.0731 34.1345L36.618 38.2141C36.1016 38.5239 35.6885 38.2141 35.6885 37.4911V35.1157C36.2049 35.2706 37.341 35.3222 39.5615 34.3927C42.0402 33.4115 43.1763 32.5336 44.0026 31.8623Z" fill="#AED6DD"/>
<path d="M55.6737 19.7783L62.1287 15.6987C62.6451 15.3889 63.0582 15.6987 63.0582 16.4217V18.4873C63.0582 19.2103 62.6451 20.0365 62.1287 20.3464L55.6737 24.426C55.1573 24.7358 54.7441 24.426 54.7441 23.703V21.6374C54.7441 20.9661 55.1573 20.1398 55.6737 19.7783Z" fill="#C51E5F"/>
<path d="M63.0582 18.126V18.5391C63.0582 19.2621 62.6451 20.0883 62.1287 20.3982L55.6737 24.4777C55.1573 24.7876 54.7441 24.4777 54.7441 23.7548V21.3793C55.2605 21.5342 56.3966 21.5859 58.6172 20.6564C61.1476 19.6235 62.232 18.7457 63.0582 18.126Z" fill="#A52954"/>
<path d="M62.5418 15.1821C62.6451 15.337 62.5935 15.5435 62.1287 15.8017L55.6737 19.8813C55.1573 20.1912 54.7441 19.8813 54.7441 19.1584V17.0928C54.7441 13.5296 61.0443 12.8066 62.5418 15.1821Z" fill="#E4B4D0"/>
<path d="M62.3869 15.6986C60.218 17.0412 57.8426 18.5388 55.6737 19.8814C55.1573 20.1913 54.7441 19.8814 54.7441 19.1585V16.783C56.9647 17.506 60.8894 15.5436 62.4386 14.9756C62.5935 15.1821 62.8 15.492 62.3869 15.6986Z" fill="#D4A1C8"/>
<path d="M55.6737 24.374L62.1287 20.2944C62.6451 19.9846 63.0582 20.2944 63.0582 21.0174V23.083C63.0582 23.806 62.6451 24.6322 62.1287 24.9421L55.6737 29.0217C55.1573 29.3315 54.7441 29.0217 54.7441 28.2987V26.2331C54.7441 25.5618 55.1573 24.7355 55.6737 24.374Z" fill="#E4B4D0"/>
<path d="M63.0582 22.7217V23.1348C63.0582 23.8578 62.6451 24.684 62.1287 24.9939L55.6737 29.0735C55.1573 29.3833 54.7441 29.0735 54.7441 28.3505V25.975C55.2605 26.1299 56.3966 26.1816 58.6172 25.2521C61.1476 24.2193 62.232 23.3414 63.0582 22.7217Z" fill="#D4A1C8"/>
<path d="M55.6737 28.9702L62.1287 24.8906C62.6451 24.5808 63.0582 24.8906 63.0582 25.6136V27.6792C63.0582 28.4022 62.6451 29.2284 62.1287 29.5383L55.6737 33.6179C55.1573 33.9277 54.7441 33.6179 54.7441 32.8949V30.8293C54.7441 30.158 55.1573 29.3317 55.6737 28.9702Z" fill="#C51E5F"/>
<path d="M63.0582 27.3179V27.731C63.0582 28.454 62.6451 29.2802 62.1287 29.59L55.6737 33.6696C55.1573 33.9795 54.7441 33.6696 54.7441 32.9467V30.5712C55.2605 30.7261 56.3966 30.7778 58.6172 29.8483C61.1476 28.8154 62.232 27.9376 63.0582 27.3179Z" fill="#A52954"/>
<path d="M55.6737 33.5664L62.1287 29.4868C62.6451 29.177 63.0582 29.4868 63.0582 30.2098V32.2754C63.0582 32.9984 62.6451 33.8246 62.1287 34.1345L55.6737 38.2141C55.1573 38.5239 54.7441 38.2141 54.7441 37.4911V35.4255C54.7441 34.7541 55.1573 33.9279 55.6737 33.5664Z" fill="#E4B4D0"/>
<path d="M63.0582 31.8623V32.2754C63.0582 32.9984 62.6451 33.8246 62.1287 34.1345L55.6737 38.2141C55.1573 38.5239 54.7441 38.2141 54.7441 37.4911V35.1157C55.2605 35.2706 56.3966 35.3222 58.6172 34.3927C61.1476 33.4115 62.232 32.5336 63.0582 31.8623Z" fill="#D4A1C8"/>
<path d="M55.6737 38.0591L62.1287 33.9795C62.6451 33.6697 63.0582 33.9795 63.0582 34.7025V36.7681C63.0582 37.491 62.6451 38.3173 62.1287 38.6271L55.6737 42.7067C55.1573 43.0166 54.7441 42.7067 54.7441 41.9838V39.9182C54.7441 39.2468 55.1573 38.3689 55.6737 38.0591Z" fill="#C51E5F"/>
<path d="M63.0582 36.355V36.7681C63.0582 37.4911 62.6451 38.3173 62.1287 38.6272L55.6737 42.7067C55.1573 43.0166 54.7441 42.7068 54.7441 41.9838V39.6083C55.2605 39.7632 56.3966 39.8149 58.6172 38.8854C61.1476 37.9042 62.232 36.9747 63.0582 36.355Z" fill="#A52954"/>
<path d="M55.6737 42.6548L62.1287 38.5752C62.6451 38.2654 63.0582 38.5752 63.0582 39.2982V41.3638C63.0582 42.0868 62.6451 42.913 62.1287 43.2228L55.6737 47.3024C55.1573 47.6123 54.7441 47.3024 54.7441 46.5795V44.5139C54.7441 43.8425 55.1573 42.9646 55.6737 42.6548Z" fill="#E0BDD9"/>
<path d="M63.0582 40.9507V41.3638C63.0582 42.0868 62.6451 42.913 62.1287 43.2229L55.6737 47.3025C55.1573 47.6123 54.7441 47.3025 54.7441 46.5795V44.204C55.2605 44.3589 56.3966 44.4106 58.6172 43.4811C61.1476 42.4999 62.232 41.5704 63.0582 40.9507Z" fill="#D4A1C8"/>
<path d="M77.8784 48.0257L73.2824 75.6534C73.0242 77.2026 72.043 78.5452 70.5454 78.5452H9.09332C7.59575 78.5452 6.61458 77.2026 6.35638 75.6534L1.81202 48.0257C-0.873282 31.4492 80.6153 30.8811 77.8784 48.0257Z" fill="#BF9752"/>
<path d="M78.0338 46.7861L76.9494 53.0863C61.0441 47.1993 19.4219 47.096 3.00028 53.0863L1.86419 46.7861C-0.872748 31.8104 80.7708 31.294 78.0338 46.7861Z" fill="#9E7036"/>
<path d="M77.7239 50.1428L77.4657 51.5371C61.3539 45.6501 19.112 45.5468 2.48379 51.5371L2.22559 50.1428C20.8161 43.7394 59.5465 43.8427 77.7239 50.1428Z" fill="#9DBD3F"/>
<path d="M77.2593 51.6921L77.0011 53.0864C61.0959 47.1993 19.422 47.0961 3.00039 53.0864L2.74219 51.6921C21.0745 45.237 59.2885 45.3919 77.2593 51.6921Z" fill="#D4A1C8"/>
<path d="M73.9028 71.2639L72.9733 76.7378C72.7667 77.8222 71.7855 78.7001 70.288 78.7001L9.35225 78.4419C7.90632 78.4419 6.87351 77.564 6.66695 76.4796L5.78906 71.3672C18.0795 69.6114 61.4574 69.5081 73.9028 71.2639Z" fill="#9E7036"/>
<path d="M73.9028 71.2637L72.9733 76.7376C72.7667 77.822 71.7855 78.6999 70.288 78.6999L9.35225 78.4417C7.90632 78.4417 6.87351 77.5638 6.66695 76.4794L5.78906 71.367H5.89234L6.71859 74.5687C6.97679 75.6531 7.80304 76.1179 9.35225 76.0662C31.7642 75.0851 48.7539 75.0334 69.8748 76.0662C71.4757 76.1695 72.7667 75.6531 73.0249 74.5687L73.9028 71.2637Z" fill="#80531F"/>
<path d="M3.05192 46.4248C2.6388 46.8895 2.58716 46.9928 2.17403 47.4059C-2.11212 51.6404 -0.511269 35.5803 10.8496 38.6271C10.1267 39.6599 9.45533 40.4861 8.73237 41.364C8.0094 42.2419 7.18315 43.1714 6.09871 44.3075C5.16918 45.3403 4.13637 45.9084 3.05192 46.4248Z" fill="#573C23"/>
<path d="M74.1604 70.2311L73.9022 71.8836C60.2691 69.0434 19.3699 69.095 5.78848 71.9353L5.53027 70.2828C17.924 67.7524 61.6634 67.6491 74.1604 70.2311Z" fill="#DB93BB"/>
<path d="M9.97129 38.3687C9.29997 39.2982 8.62864 40.331 7.90567 41.3638C7.18271 42.3966 6.4081 43.8425 5.58186 44.7721C4.23921 46.218 2.79327 49.0582 0.779297 48.1803C1.39898 47.1992 3.82608 44.5655 4.44577 43.5327C5.8917 41.1056 6.87287 38.6785 9.97129 38.3687Z" fill="#3A2412"/>
<path d="M17.5628 35.8899C16.8398 36.9228 15.9619 38.1105 14.9808 39.3499C13.9996 40.5376 12.9668 41.7253 11.8824 42.7581C9.71346 44.8754 7.338 46.2697 4.80762 45.2885C6.25355 42.4483 7.80276 40.2277 10.2299 37.9556C12.502 35.8899 15.0324 34.5989 17.5628 35.8899Z" fill="#573C23"/>
<path d="M17.5113 35.7869C16.7884 36.8197 15.9105 38.0591 14.9293 39.2984C13.9481 40.5378 12.8637 41.7255 11.8825 42.7583C10.5915 43.9977 9.24885 44.9789 7.80292 45.392C7.648 45.3404 5.89223 45.5986 5.7373 45.5469C7.3898 45.0305 8.88737 43.0682 9.76526 41.8288C10.6948 40.6411 11.676 39.4017 12.7604 38.3689C14.1547 37.0779 15.9621 35.9934 17.5113 35.7869ZM36.515 34.0311C35.792 35.0639 34.9658 35.5803 34.0363 36.923C33.6748 37.4394 31.919 39.8148 30.8345 41.0542C30.2665 41.6739 29.0271 42.81 28.1492 43.8428C26.4451 45.7535 26.9099 46.3732 27.1164 48.8519C27.323 50.9692 27.6328 52.7766 27.7361 53.8094C28.046 56.9078 26.2386 59.7997 24.9992 57.4759C23.7598 55.1004 25.2574 50.0396 25.1541 46.2699C25.1541 39.4017 26.7033 38.4722 26.755 38.4722C26.5484 39.0402 23.3983 47.1478 31.919 35.632C32.9002 34.1344 35.0174 33.9795 36.515 34.0311Z" fill="#3A2412"/>
<path d="M73.7474 45.2371C71.5785 45.3404 69.926 46.6314 67.4473 44.2043C68.8932 42.9649 70.649 41.0026 72.8179 40.5378C76.2778 39.7632 78.0335 40.6411 78.7565 42.1387C78.9631 42.3452 79.118 42.5518 79.3246 42.8616C80.4607 44.7207 80.0475 51.4856 78.3434 52.1053C75.5548 53.1381 75.9679 50.6593 76.8458 48.3872C77.7237 44.7207 76.4843 45.1338 73.7474 45.2371Z" fill="#573C23"/>
<path d="M75.1418 45.2369C72.8696 45.7017 70.236 46.5279 67.499 44.1008C67.5507 44.0492 67.6539 43.9975 67.7572 43.8942C68.1187 44.1524 68.945 44.7721 70.9589 44.4106C72.818 44.1008 78.2402 41.7253 78.0853 45.3918L77.9304 46.3213C77.5173 46.3213 77.7755 45.3402 76.6394 45.1336C76.2779 45.082 75.8131 45.082 75.1418 45.2369Z" fill="#3A2412"/>
<path d="M76.2258 42.0872C72.9724 42.8618 73.1273 43.4298 71.5781 43.3265C72.7142 42.6036 74.6766 41.6224 76.2258 42.0872Z" fill="#FEFEFE"/>
<path d="M18.5442 65.4284C13.7933 69.508 14.8261 69.8178 13.3285 63.7243C7.95789 60.4193 7.85461 61.6586 13.3285 58.2504C14.7744 52.1568 13.7416 52.5183 18.5442 56.5462C24.7927 56.0298 24.1213 55.2036 21.7459 60.9873C24.1213 66.771 24.7927 65.8932 18.5442 65.4284Z" fill="#DEB981"/>
<path d="M61.2504 65.3766C66.0013 69.4562 64.9685 69.7661 66.4661 63.6725C71.8367 60.3675 71.94 61.6069 66.4661 58.1986C65.0201 52.105 66.053 52.4665 61.2504 56.4945C55.0019 55.9781 55.6732 55.1518 58.0487 60.9356C55.6732 66.7193 55.0535 65.8414 61.2504 65.3766Z" fill="#C6C44F"/>
<path d="M17.718 64.8088C12.9671 68.8884 13.9999 69.1982 12.5023 63.1046C7.13172 59.7996 7.02844 61.039 12.5023 57.6307C13.9483 51.5372 12.9154 51.8987 17.718 55.9266C23.9665 55.4102 23.2952 54.584 20.9197 60.3677C23.2952 66.1514 23.9149 65.2735 17.718 64.8088Z" fill="#F2D4A7"/>
<path d="M61.9734 64.8088C66.7243 68.8884 65.6915 69.1982 67.1891 63.1046C72.5597 59.7996 72.663 61.039 67.1891 57.6307C65.7432 51.5372 66.776 51.8987 61.9734 55.9266C55.7249 55.4102 56.3962 54.584 58.7717 60.3677C56.3446 66.1514 55.7249 65.2735 61.9734 64.8088Z" fill="#E5E7A3"/>
<path d="M39.8716 64.6024C34.0878 66.9779 34.9657 67.5976 35.4305 61.4007C31.3509 56.5981 30.8861 57.7342 37.1346 56.185C40.388 50.8661 39.3552 50.8661 42.6085 56.185C48.7021 57.631 48.3406 56.6498 44.3127 61.4007C44.7774 67.5976 45.6553 66.9779 39.8716 64.6024Z" fill="#C51E5F"/>
<path d="M39.8716 63.6727C34.0878 66.0482 34.9657 66.6679 35.4305 60.471C31.3509 55.6685 30.8861 56.8045 37.1346 55.2553C40.388 49.9364 39.3552 49.9364 42.6085 55.2553C48.7021 56.7013 48.3406 55.7201 44.3127 60.471C44.7774 66.7195 45.6553 66.0482 39.8716 63.6727Z" fill="#E4B4D0"/>
<path d="M25.0509 45.3403C25.0509 45.3403 25.0509 41.8287 24.1214 41.1574C23.1919 40.4861 26.3936 38.0073 26.3936 38.0073L27.7363 39.2467C27.7363 39.2983 25.5157 43.8943 25.0509 45.3403Z" fill="#3A2412"/>
<path d="M24.5342 52.7766C24.7407 50.6594 25.1539 48.2839 25.0506 46.2699C25.0506 44.4625 25.5153 40.3829 26.3932 39.1436C27.9424 36.4066 27.9941 37.8525 29.8015 38.2657C28.7687 40.2796 26.6514 43.2231 26.29 44.3592C25.9801 45.2888 25.8252 47.8191 25.8252 49.7298C25.8252 51.0725 26.6514 55.1521 25.4637 55.6685C25.0506 55.8234 24.7407 54.5324 24.5342 52.7766Z" fill="#573C23"/>
<path d="M13.7926 40.3828C13.8442 40.6926 19.1632 39.918 18.905 40.1762C17.0459 41.932 14.8254 45.3919 14.9803 46.373C15.6516 50.2977 10.9007 52.2084 10.6941 46.6829C10.5909 43.9459 9.91953 45.0304 8.88672 44.7206C9.5064 44.4107 9.60968 42.3967 13.7926 40.3828Z" fill="#3A2412"/>
<path d="M17.4591 39.4015C17.4591 39.4015 16.2197 40.6409 15.4451 41.5188C14.6705 42.345 13.7926 45.1336 13.6377 46.4763C13.4828 47.8189 12.6049 48.5935 11.8819 47.9222C11.159 47.3025 10.9008 45.2885 11.9336 43.0164C12.9664 40.7958 14.309 39.0917 15.1353 38.472C16.0132 37.8523 17.4591 39.4015 17.4591 39.4015Z" fill="#573C23"/>
<path d="M25.2568 52.7248C25.2568 52.7248 24.8437 55.3069 25.2568 55.7716C25.6699 56.2364 25.5666 53.4994 25.2568 52.7248ZM11.8303 44.8755C11.8303 44.8755 10.3843 47.6124 12.0885 48.0772C11.5204 47.2509 11.6753 45.082 11.8303 44.8755Z" fill="#FEFEFE"/>
<path d="M23.8626 34.7539C23.1396 35.7867 22.2618 37.0777 21.2806 38.3171C20.2994 39.5565 19.2666 40.7442 18.1822 41.777C16.0649 43.791 13.6378 44.9787 11.1074 43.6877C11.8304 42.7065 12.6566 41.4672 13.5345 40.2278C14.464 38.9884 15.4452 37.6974 16.5297 36.613C18.6986 34.4441 21.3322 33.308 23.8626 34.7539Z" fill="#573C23"/>
<path d="M23.9143 34.7539C23.1914 35.7867 22.3135 37.0777 21.3323 38.3171C20.3511 39.5565 19.2667 40.7442 18.2339 41.777C17.0462 42.9131 15.8068 43.7393 14.5158 44.1008C14.4125 44.0492 14.2576 43.9975 14.1543 43.8943C14.8773 42.9647 15.7035 41.777 16.633 40.5893C17.5626 39.4015 18.5437 38.1622 19.6282 37.1294C20.8159 35.89 22.52 35.0121 23.9143 34.7539Z" fill="#3A2412"/>
<path d="M30.2146 33.876C29.4916 34.9605 28.6137 36.1998 27.6325 37.4909C26.6514 38.7302 25.6186 40.0212 24.5341 41.054C22.4169 43.1197 19.7316 44.1525 17.2012 42.6033C17.9241 41.6221 19.0086 40.486 19.8865 39.2466C20.816 37.9556 21.8488 36.7163 22.8816 35.5802C25.0505 33.3596 27.6842 32.2235 30.2146 33.876Z" fill="#573C23"/>
<path d="M29.8528 33.9277C29.1298 34.9605 28.3036 36.2516 27.4257 37.5426C26.5478 38.7819 25.5666 40.0213 24.5338 41.0541C23.3461 42.1902 22.1067 43.0165 20.7641 43.3263C20.6608 43.2747 20.6091 43.223 20.5059 43.1714C21.2288 42.1902 22.0551 41.0025 22.9846 39.8147C23.9141 38.5754 24.8953 37.336 25.9797 36.2516C27.2191 35.0638 28.5101 34.1343 29.8528 33.9277Z" fill="#3A2412"/>
<path d="M36.5665 33.773C35.8435 34.8058 35.1206 35.0124 34.1394 36.2518C33.1582 37.4911 31.7639 38.3174 30.5762 39.1953C29.027 40.3314 27.736 42.8101 26.1868 43.0167C25.3089 43.4298 25.154 40.5379 26.5483 38.6789C27.4778 37.4395 28.1491 36.2518 29.1819 35.1673C31.4024 32.9984 34.0361 31.9656 36.5665 33.773Z" fill="#573C23"/>
<path d="M42.9183 33.9792C42.1953 34.9603 41.3174 36.0964 40.3362 37.2841C39.3551 38.4719 38.3223 39.6596 37.2378 40.6408C35.1206 42.6031 32.6935 43.6359 30.1631 41.8285C30.8861 40.8473 31.7123 39.608 32.6418 38.3686C33.5714 37.1292 34.5525 35.8382 35.637 34.857C37.7542 32.7914 40.3879 31.9652 42.9183 33.9792Z" fill="#573C23"/>
<path d="M42.8147 33.6177C42.0918 34.5988 41.3172 35.4251 40.336 36.6645C39.3548 37.9038 38.2704 39.4014 37.2892 40.3826C36.0498 41.5703 34.7072 42.19 33.3129 42.3449C33.2612 42.2933 33.158 42.2416 33.0547 42.1383C33.7777 41.1572 34.6039 39.8662 35.5334 38.6268C36.463 37.3874 37.4441 36.0964 38.5286 35.1669C39.7163 34.0308 41.3688 33.6177 42.8147 33.6177Z" fill="#3A2412"/>
<path d="M49.2182 34.1342C48.4952 35.0121 47.6173 36.0966 46.6362 37.2327C45.7066 38.3171 44.6222 39.4532 43.5894 40.3827C41.4205 42.2934 39.045 43.2746 36.5146 41.3123C37.2376 40.3311 38.0639 39.0401 38.9934 37.8007C39.9229 36.5613 40.9041 35.322 41.9885 34.3408C44.0542 32.5334 46.6362 31.9653 49.2182 34.1342Z" fill="#573C23"/>
<path d="M49.2182 33.7212C48.4952 34.6507 47.6173 35.7868 46.6361 36.8712C45.655 38.0073 44.6222 39.1434 43.5894 40.0729C42.4016 41.1574 41.1106 41.9836 39.768 42.1385C39.6647 42.0869 39.613 41.9836 39.5098 41.932C40.2327 40.9508 41.059 39.7114 41.9885 38.5237C42.918 37.336 43.8992 36.1483 44.9836 35.2187C46.1714 34.2376 47.8755 33.6179 49.2182 33.7212Z" fill="#3A2412"/>
<path d="M55.4148 34.6505C54.6919 35.4768 53.8656 36.458 52.9361 37.4391C52.0066 38.4719 50.9738 39.5047 49.9409 40.3826C47.772 42.19 45.3966 43.0679 42.8662 40.9507C43.5892 39.9695 44.4154 38.7301 45.345 37.4908C46.2745 36.303 47.2556 35.1153 48.3401 34.2374C50.4057 32.5333 52.8845 32.2751 55.4148 34.6505Z" fill="#573C23"/>
<path d="M55.6221 34.6505C54.8991 35.4768 53.9696 36.4579 52.9884 37.4907C52.0072 38.5235 50.9228 39.5564 49.89 40.4342C48.8055 41.3121 47.6694 42.0351 46.4301 42.19C46.3268 42.1384 46.2235 42.0351 46.1719 41.9318C46.8948 41.0023 47.7211 39.8146 48.6506 38.7301C49.5801 37.594 50.5613 36.5096 51.6458 35.735C52.7818 34.9087 54.3827 34.5472 55.6221 34.6505Z" fill="#3A2412"/>
<path d="M61.8705 35.9416C61.1476 36.6646 60.2697 37.5425 59.2885 38.4204C58.3074 39.3499 57.2745 40.2794 56.2417 41.0541C54.0728 42.6549 51.6974 43.3779 49.167 41.209C49.89 40.2794 50.7162 39.1434 51.6457 38.0073C52.5753 36.9228 53.5564 35.8384 54.6409 35.0638C56.7581 33.6178 59.3402 33.5146 61.8705 35.9416Z" fill="#573C23"/>
<path d="M61.8698 35.9936C61.1469 36.7166 60.269 37.5944 59.2878 38.524C58.3067 39.4535 57.2738 40.3314 56.2927 41.106C55.2082 41.8806 54.0721 42.5003 52.8844 42.6036L52.7295 42.4486C53.4525 41.5708 54.2787 40.4863 55.2082 39.5051C56.1378 38.524 57.1189 37.5428 58.2034 36.8715C59.1845 36.2002 60.6821 35.8387 61.8698 35.9936Z" fill="#3A2412"/>
<path d="M68.2737 37.8007C66.8278 39.0401 64.7105 40.7442 62.5933 42.0352C60.4244 43.3779 58.0489 43.9976 55.5186 41.777C56.2415 40.9508 57.0678 39.8663 57.9973 38.8852C58.9268 37.904 59.908 36.9745 60.9924 36.3548C63.1097 35.1154 65.7434 35.2703 68.2737 37.8007Z" fill="#573C23"/>
<path d="M68.17 37.8006C66.7757 39.04 64.6068 40.8474 62.5928 42.0868C61.56 42.7065 60.4756 43.1712 59.3911 43.2745L59.1846 43.0679C60.6305 41.5704 62.4896 39.2982 64.6068 38.2654C65.588 37.749 67.0339 37.5424 68.17 37.8006Z" fill="#3A2412"/>
<path d="M74.5224 40.3312C73.0764 41.2607 71.1141 42.7583 68.9452 43.5846C66.105 44.669 63.4713 44.8239 62.0254 42.4485C63.4713 41.0025 65.1238 39.0918 67.2927 38.1107C69.41 37.1295 71.992 37.5943 74.5224 40.3312Z" fill="#573C23"/>
<path d="M74.4702 40.3313C73.0242 41.2608 71.0619 42.6035 68.9446 43.5847C67.4987 44.256 65.9495 44.6175 64.3486 44.1527C64.3486 44.1527 70.2356 38.8854 74.4702 40.3313Z" fill="#3A2412"/>
<path d="M13.2253 37.3876C10.9531 38.7303 10.2302 41.0541 9.14571 40.7959C9.97196 39.6082 12.2441 36.8196 13.2253 37.3876ZM20.3 35.6835C17.9246 37.1294 17.8729 38.7819 16.7369 38.5237C17.5631 37.2327 19.2156 35.0638 20.3 35.6835ZM26.342 34.754C23.9149 36.3032 23.76 38.1106 22.6239 37.8524C23.5534 36.4581 25.3608 34.1343 26.342 34.754ZM32.4355 33.9277C29.8535 35.4253 29.8019 37.1294 28.5625 36.8712C29.492 35.5802 31.2995 33.3597 32.4355 33.9277ZM39.7685 33.1531C36.825 34.754 36.7217 36.5614 35.3274 36.3032C36.3602 34.8573 38.4775 32.5334 39.7685 33.1531ZM45.9653 33.2564C42.7636 34.8573 42.6603 36.5614 41.1628 36.3548C42.2989 34.9605 44.571 32.6884 45.9653 33.2564ZM52.6786 34.1859C49.4769 35.5802 49.3736 37.0262 47.876 36.9229C49.0121 35.6835 51.2843 33.7212 52.6786 34.1859ZM58.8238 35.1671C55.8803 36.4065 55.777 37.6458 54.3827 37.5942C55.4155 36.5614 57.5328 34.8056 58.8238 35.1671ZM71.6306 39.2467C68.3773 40.2795 68.5322 40.8475 66.983 40.8992C68.1191 40.0213 70.0814 38.8852 71.6306 39.2467ZM65.3821 36.8712C62.4386 38.1106 62.3353 39.2467 60.9411 39.2467C62.0255 38.2139 64.0911 36.5614 65.3821 36.8712ZM4.70464 39.8147C2.43246 41.8804 2.94886 43.5329 1.50293 43.6361C2.01933 42.0869 3.56855 39.8147 4.70464 39.8147Z" fill="#FEFEFE"/>
<path d="M74.1604 71.6252L73.9022 73.2777C60.2691 70.4374 19.3699 70.4891 5.78848 73.3293L5.53027 71.6768C17.924 69.1464 61.6634 69.0431 74.1604 71.6252Z" fill="#9DBD3F"/>
<path d="M50.8711 42.1901C50.8711 42.1901 52.8334 42.2418 52.8334 44.6172C52.8334 46.9411 51.749 50.5043 53.4531 50.8141C55.1572 51.1239 56.2417 50.0395 56.0868 48.0255C55.9319 46.0115 55.9319 42.2934 58.4106 41.3639C60.8893 40.3827 54.1244 38.8852 50.8711 42.1901Z" fill="#3A2412"/>
<path d="M50.8193 42.1903C50.8193 42.1903 52.2136 41.9321 52.885 42.3969C53.5563 42.8617 53.5563 43.9978 53.3497 44.9273C53.1432 45.8568 52.7817 48.3356 53.453 48.8003C55.2604 50.0913 54.3309 45.1855 54.3309 44.824C54.2792 43.3264 54.6924 41.5707 55.6219 40.0731C57.1195 37.6976 57.326 37.4394 58.7203 36.3033C60.1146 35.1673 53.8145 38.8337 53.8145 38.8337L50.8193 42.1903Z" fill="#573C23"/>
<path d="M53.1943 46.373C53.1943 46.373 52.6262 48.4387 53.091 48.8001C53.5558 49.2133 53.5041 46.8895 53.1943 46.373Z" fill="#FEFEFE"/>
<path d="M56.7061 42.6548C56.7061 42.6548 57.9971 42.8614 57.9971 45.8565C57.9971 48.9033 56.9643 53.4993 58.5135 53.9124C60.0627 54.3255 60.8889 52.8796 60.734 50.2976C60.5274 47.6639 60.5791 42.8613 62.6963 41.622C64.7103 40.4859 59.3914 38.4719 56.7061 42.6548Z" fill="#3A2412"/>
<path d="M57.0674 39.9698C57.0674 39.9698 57.0674 41.4674 58.1002 42.1387C59.133 42.81 58.8748 44.4109 58.7715 45.4437C58.6682 46.4765 57.9969 50.3495 58.41 51.279C58.7715 52.2086 59.6494 52.1053 59.9076 50.711C60.1658 49.3167 59.9076 45.4437 60.0109 43.9977C60.1142 42.6034 62.0765 39.5567 63.6257 38.4206C65.1233 37.3361 58.41 39.1435 57.0674 39.9698Z" fill="#573C23"/>
<path d="M58.5133 48.6455C58.5133 48.6455 57.8936 51.5374 58.3584 51.6923C58.8232 51.9505 58.6682 49.3168 58.5133 48.6455Z" fill="#FEFEFE"/>
</g>
<defs>
<clipPath id="clip0_2001_5960">
<rect width="79.991" height="78.7" fill="white" transform="translate(0.00488281)"/>
</clipPath>
</defs>
</svg>
