<svg width="43" height="65" viewBox="0 0 43 65" fill="none" xmlns="http://www.w3.org/2000/svg">
<path fill-rule="evenodd" clip-rule="evenodd" d="M15.4819 8.87451L21.2471 12.1782L15.0933 18.5911L15.4819 8.87451Z" fill="#D3F2F7"/>
<path fill-rule="evenodd" clip-rule="evenodd" d="M15.4819 55.3201L21.2471 52.0165L15.0933 45.6035L15.4819 55.3201Z" fill="#A4CAD8"/>
<path fill-rule="evenodd" clip-rule="evenodd" d="M27.0768 8.87451L21.3116 12.1782L27.4655 18.5911L27.0768 8.87451Z" fill="#FEFEFE"/>
<path fill-rule="evenodd" clip-rule="evenodd" d="M27.0768 55.3201L21.3116 52.0165L27.4655 45.6035L27.0768 55.3201Z" fill="#D3F2F7"/>
<path fill-rule="evenodd" clip-rule="evenodd" d="M15.4816 8.87402L7.77307 11.206L7.90263 22.6068L15.0929 18.5906L15.4816 8.87402Z" fill="#C6E4E9"/>
<path fill-rule="evenodd" clip-rule="evenodd" d="M15.4816 55.3197L7.77307 52.9877L7.90263 41.5869L15.0929 45.6031L15.4816 55.3197Z" fill="#C6E4E9"/>
<path fill-rule="evenodd" clip-rule="evenodd" d="M27.0771 8.87451L34.7209 11.2065L34.6561 22.6073L27.4658 18.5911L27.0771 8.87451Z" fill="#D3F2F7"/>
<path fill-rule="evenodd" clip-rule="evenodd" d="M27.0771 55.3197L34.7209 52.9877L34.6561 41.5869L27.4658 45.6031L27.0771 55.3197Z" fill="#FEFEFE"/>
<path fill-rule="evenodd" clip-rule="evenodd" d="M7.77322 11.2065L7.838 22.6074L2.91492 19.9515C3.62747 16.7126 5.2469 13.7976 7.77322 11.2065Z" fill="#A4CAD8"/>
<path fill-rule="evenodd" clip-rule="evenodd" d="M7.77322 52.9877L7.838 41.5869L2.91492 44.2428C3.62747 47.4817 5.2469 50.3966 7.77322 52.9877Z" fill="#61A6B5"/>
<path fill-rule="evenodd" clip-rule="evenodd" d="M34.7207 11.2065L34.6559 22.6074L39.579 19.9515C38.9312 16.7126 37.3118 13.7976 34.7207 11.2065Z" fill="#A4CAD8"/>
<path fill-rule="evenodd" clip-rule="evenodd" d="M34.7207 52.9877L34.6559 41.5869L39.579 44.2428C38.9312 47.4817 37.3118 50.3966 34.7207 52.9877Z" fill="#61A6B5"/>
<path fill-rule="evenodd" clip-rule="evenodd" d="M1.74939 32.0002L7.90324 22.6075L2.98016 19.9517L1.74939 32.0002Z" fill="#61A6B5"/>
<path fill-rule="evenodd" clip-rule="evenodd" d="M1.74939 32.1943L7.90324 41.587L2.98016 44.2429L1.74939 32.1943Z" fill="#A4CAD8"/>
<path fill-rule="evenodd" clip-rule="evenodd" d="M40.8097 32.0002L34.6559 22.6075L39.579 19.9517L40.8097 32.0002Z" fill="#61A6B5"/>
<path fill-rule="evenodd" clip-rule="evenodd" d="M40.8097 32.1943L34.6559 41.587L39.579 44.2429L40.8097 32.1943Z" fill="#D3F2F7"/>
<path fill-rule="evenodd" clip-rule="evenodd" d="M1.61951 32.1945L7.90292 41.5872L11.7896 32.1945H11.7248L11.7896 32.0649L7.90292 22.6074L1.61951 32.0649L1.81385 32.1945H1.61951Z" fill="#72C0CF"/>
<path fill-rule="evenodd" clip-rule="evenodd" d="M40.8744 32.1945L34.6558 41.5872L30.7043 32.1945H30.8987L30.7043 32.0649L34.6558 22.6074L40.8744 32.0649L40.6801 32.1945H40.8744Z" fill="#A4CAD8"/>
<path fill-rule="evenodd" clip-rule="evenodd" d="M11.8544 31.9997L7.90295 22.607L15.0932 18.5908L11.8544 31.9997Z" fill="#FEFEFE"/>
<path fill-rule="evenodd" clip-rule="evenodd" d="M11.8544 32.1943L7.90295 41.587L15.0932 45.6033L11.8544 32.1943Z" fill="#FEFEFE"/>
<path fill-rule="evenodd" clip-rule="evenodd" d="M30.7044 31.9997L34.6559 22.607L27.4656 18.5908L30.7044 31.9997Z" fill="#FEFEFE"/>
<path fill-rule="evenodd" clip-rule="evenodd" d="M30.7044 32.1943L34.6559 41.587L27.4656 45.6033L30.7044 32.1943Z" fill="#72C0CF"/>
<path fill-rule="evenodd" clip-rule="evenodd" d="M15.4819 8.87454L21.2471 12.1782V12.1134L21.3119 12.1782L27.0771 8.87454L21.3767 2.52637H21.1824H21.1176L15.4819 8.87454Z" fill="#A4CAD8"/>
<path fill-rule="evenodd" clip-rule="evenodd" d="M21.182 2.52632L15.4816 8.93928L7.77307 11.2713C7.77307 11.2065 9.58684 1.61944 21.182 2.52632Z" fill="#61A6B5"/>
<path fill-rule="evenodd" clip-rule="evenodd" d="M21.182 61.6683L15.4816 55.2553L7.77307 52.9233C7.77307 52.9881 9.58684 62.5752 21.182 61.6683Z" fill="#FEFEFE"/>
<path fill-rule="evenodd" clip-rule="evenodd" d="M21.1823 61.6685L15.5467 55.3203L13.7329 60.4377C15.5467 61.4094 18.0082 61.9276 21.1823 61.6685Z" fill="#72C0CF"/>
<path fill-rule="evenodd" clip-rule="evenodd" d="M21.3765 2.52632L27.0769 8.93928L34.7854 11.2713C34.7206 11.2065 32.9716 1.61944 21.3765 2.52632Z" fill="#61A6B5"/>
<path fill-rule="evenodd" clip-rule="evenodd" d="M21.3765 61.6678L27.0769 55.2548L34.7854 52.9229C34.7206 52.9876 32.9716 62.5747 21.3765 61.6678Z" fill="#A4CAD8"/>
<path fill-rule="evenodd" clip-rule="evenodd" d="M21.2473 32.1296V12.3078L15.0934 18.656L11.7898 32.1296H21.2473ZM21.2473 12.1782V18.5912V32.0649" fill="#A4CAD8"/>
<path fill-rule="evenodd" clip-rule="evenodd" d="M21.2473 32.1294V51.9513L15.0934 45.6031L11.7898 32.1294H21.2473ZM21.2473 52.016V32.1294Z" fill="#C6E4E9"/>
<path fill-rule="evenodd" clip-rule="evenodd" d="M21.3116 32.1296V12.3078L27.4655 18.656L30.7691 32.1296H21.3116ZM21.3116 12.1782V18.5912V32.0649" fill="#C6E4E9"/>
<path fill-rule="evenodd" clip-rule="evenodd" d="M21.1824 61.6685L26.818 55.3203L28.6318 60.4377C26.7532 61.4094 24.2917 61.9276 21.1824 61.6685Z" fill="#72C0CF"/>
<path fill-rule="evenodd" clip-rule="evenodd" d="M15.4819 55.3198L21.2471 52.0161V52.0809L21.3119 52.0161L27.0771 55.3198L21.3767 61.6679H21.1824H21.1176L15.4819 55.3198Z" fill="#A4CAD8"/>
<path d="M35.0445 11.595C31.5465 6.28327 26.753 3.04439 21.506 3.04439C16.259 3.04439 11.4655 6.34805 7.96755 11.595C4.4048 17.0363 2.20235 24.5505 2.20235 32.842C2.20235 41.1335 4.4048 48.6476 7.96755 54.0889C11.4655 59.4007 16.259 62.6395 21.506 62.6395C26.753 62.6395 31.5465 59.3359 35.0445 54.0889C38.6072 48.6476 40.8096 41.1335 40.8096 32.842C40.8744 24.5505 38.6072 17.0363 35.0445 11.595ZM21.506 1.10107C27.4655 1.10107 32.842 4.72861 36.6639 10.5586C40.421 16.259 42.753 24.1618 42.753 32.842C42.753 41.5221 40.421 49.425 36.6639 55.1254C32.842 60.9553 27.4655 64.5829 21.506 64.5829C15.5465 64.5829 10.17 60.9553 6.34812 55.1254C2.59103 49.425 0.259033 41.5221 0.259033 32.842C0.259033 24.1618 2.59103 16.259 6.34812 10.5586C10.17 4.72861 15.5465 1.10107 21.506 1.10107Z" fill="#8C6521"/>
<path d="M34.7854 10.4939C31.2875 5.18219 26.4939 1.94332 21.247 1.94332C16 1.94332 11.2065 5.24697 7.7085 10.4939C4.14575 15.9352 1.94332 23.4494 1.94332 31.7409C1.94332 40.0324 4.14575 47.5466 7.7085 52.9879C11.2065 58.2996 16 61.5385 21.247 61.5385C26.4939 61.5385 31.2875 58.2348 34.7854 52.9879C38.3482 47.5466 40.5506 40.0324 40.5506 31.7409C40.6154 23.3846 38.413 15.8705 34.7854 10.4939ZM21.247 0C27.2065 0 32.583 3.62753 36.4049 9.45749C40.162 15.1579 42.4939 23.0607 42.4939 31.7409C42.4939 40.4211 40.162 48.3239 36.4049 54.0243C32.583 59.8543 27.2065 63.4818 21.247 63.4818C15.2875 63.4818 9.91093 59.8543 6.08907 54.0243C2.33198 48.3239 0 40.4211 0 31.7409C0 23.0607 2.33198 15.1579 6.08907 9.45749C9.97571 3.56276 15.2875 0 21.247 0Z" fill="#BE983D"/>
<path d="M19.2389 1.81396C19.7571 1.81396 20.2753 1.87873 20.7935 1.94351C15.7409 2.13784 11.0769 5.37671 7.70851 10.4941C6.67208 12.1136 5.70042 13.8626 4.9231 15.8059C7.51419 7.51437 12.9555 1.81396 19.2389 1.81396Z" fill="#FEFEFE"/>
<path d="M23.4495 62.8986C22.9313 62.8986 22.4131 62.8339 21.8949 62.7691C26.9475 62.5748 31.6115 59.3359 34.9799 54.2185C36.0163 52.5991 36.988 50.8501 37.7653 48.9067C35.1743 57.1982 29.733 62.8986 23.4495 62.8986Z" fill="#FEFEFE"/>
<path fill-rule="evenodd" clip-rule="evenodd" d="M9.58728 21.1172L10.2998 28.5666L15.4172 29.6678L10.2998 30.769L9.58728 38.2184L8.80995 30.769L3.75732 29.6678L8.80995 28.5666L9.58728 21.1172Z" fill="#FEFEFE"/>
</svg>
