<svg width="43" height="65" viewBox="0 0 43 65" fill="none" xmlns="http://www.w3.org/2000/svg">
<path fill-rule="evenodd" clip-rule="evenodd" d="M15.4008 8.92969L21.16 12.2299L15.0126 18.6361L15.4008 8.92969Z" fill="#D3F2F7"/>
<path fill-rule="evenodd" clip-rule="evenodd" d="M15.4008 55.3265L21.16 52.0264L15.0126 45.6201L15.4008 55.3265Z" fill="#A4CAD8"/>
<path fill-rule="evenodd" clip-rule="evenodd" d="M26.9839 8.92969L21.2247 12.2299L27.3721 18.6361L26.9839 8.92969Z" fill="#FEFEFE"/>
<path fill-rule="evenodd" clip-rule="evenodd" d="M26.9839 55.3265L21.2247 52.0264L27.3721 45.6201L26.9839 55.3265Z" fill="#D3F2F7"/>
<path fill-rule="evenodd" clip-rule="evenodd" d="M15.4009 8.92969L7.76514 11.2592L7.82985 22.6481L15.0126 18.6361L15.4009 8.92969Z" fill="#C6E4E9"/>
<path fill-rule="evenodd" clip-rule="evenodd" d="M15.4009 55.3265L7.76514 52.997L7.82985 41.6082L15.0126 45.6201L15.4009 55.3265Z" fill="#C6E4E9"/>
<path fill-rule="evenodd" clip-rule="evenodd" d="M26.9838 8.92969L34.6842 11.2592L34.6195 22.6481L27.372 18.6361L26.9838 8.92969Z" fill="#D3F2F7"/>
<path fill-rule="evenodd" clip-rule="evenodd" d="M26.9838 55.3265L34.6842 52.997L34.6195 41.6082L27.372 45.6201L26.9838 55.3265Z" fill="#FEFEFE"/>
<path fill-rule="evenodd" clip-rule="evenodd" d="M7.76507 11.2593L7.82978 22.6481L2.91187 19.995C3.55896 16.7596 5.17669 13.8477 7.76507 11.2593Z" fill="#A4CAD8"/>
<path fill-rule="evenodd" clip-rule="evenodd" d="M7.76507 52.997L7.82978 41.6082L2.91187 44.2612C3.55896 47.4967 5.17669 50.4086 7.76507 52.997Z" fill="#61A6B5"/>
<path fill-rule="evenodd" clip-rule="evenodd" d="M34.6842 11.2593L34.6195 22.6481L39.5374 19.995C38.8256 16.7596 37.2079 13.8477 34.6842 11.2593Z" fill="#A4CAD8"/>
<path fill-rule="evenodd" clip-rule="evenodd" d="M34.6842 52.997L34.6195 41.6082L39.5374 44.2612C38.8256 47.4967 37.2079 50.4086 34.6842 52.997Z" fill="#61A6B5"/>
<path fill-rule="evenodd" clip-rule="evenodd" d="M1.68237 32.0311L7.82977 22.6482L2.91185 19.9951L1.68237 32.0311Z" fill="#61A6B5"/>
<path fill-rule="evenodd" clip-rule="evenodd" d="M1.68237 32.2253L7.82977 41.6082L2.91185 44.2613L1.68237 32.2253Z" fill="#A4CAD8"/>
<path fill-rule="evenodd" clip-rule="evenodd" d="M40.7022 32.0311L34.6195 22.6482L39.4727 19.9951L40.7022 32.0311Z" fill="#61A6B5"/>
<path fill-rule="evenodd" clip-rule="evenodd" d="M40.7022 32.2253L34.6195 41.6082L39.4727 44.2613L40.7022 32.2253Z" fill="#D3F2F7"/>
<path fill-rule="evenodd" clip-rule="evenodd" d="M1.61768 32.1607L7.82978 41.6083L11.7771 32.1607H11.6476L11.7771 32.0313L7.82978 22.6484L1.61768 32.0313L1.7471 32.1607H1.61768Z" fill="#72C0CF"/>
<path fill-rule="evenodd" clip-rule="evenodd" d="M40.8316 32.1607L34.6195 41.6083L30.6722 32.1607H30.8017L30.6722 32.0313L34.6195 22.6484L40.8316 32.0313L40.6375 32.1607H40.8316Z" fill="#A4CAD8"/>
<path fill-rule="evenodd" clip-rule="evenodd" d="M11.7771 32.0311L7.82983 22.6482L15.0126 18.6362L11.7771 32.0311Z" fill="#FEFEFE"/>
<path fill-rule="evenodd" clip-rule="evenodd" d="M11.7771 32.2253L7.82983 41.6082L15.0126 45.6202L11.7771 32.2253Z" fill="#FEFEFE"/>
<path fill-rule="evenodd" clip-rule="evenodd" d="M30.6075 32.0311L34.6195 22.6482L27.3721 18.6362L30.6075 32.0311Z" fill="#FEFEFE"/>
<path fill-rule="evenodd" clip-rule="evenodd" d="M30.6075 32.2253L34.6195 41.6082L27.3721 45.6202L30.6075 32.2253Z" fill="#72C0CF"/>
<path fill-rule="evenodd" clip-rule="evenodd" d="M15.4009 8.9299L21.16 12.2301V12.1654L21.2247 12.2301L26.9839 8.9299L21.3541 2.58838H21.0953L15.4009 8.9299Z" fill="#A4CAD8"/>
<path fill-rule="evenodd" clip-rule="evenodd" d="M21.0953 2.58827L15.4009 8.9945L7.70044 11.324C7.76515 11.2593 9.5123 1.68234 21.0953 2.58827Z" fill="#61A6B5"/>
<path fill-rule="evenodd" clip-rule="evenodd" d="M21.0953 61.6681L15.4009 55.2619L7.70044 52.9324C7.76515 52.9971 9.5123 62.5741 21.0953 61.6681Z" fill="#FEFEFE"/>
<path fill-rule="evenodd" clip-rule="evenodd" d="M21.0953 61.6682L15.4656 55.3267L13.6537 60.4387C15.5303 61.4094 17.9245 61.927 21.0953 61.6682Z" fill="#72C0CF"/>
<path fill-rule="evenodd" clip-rule="evenodd" d="M21.3541 2.58827L27.0486 8.9945L34.749 11.324C34.6843 11.2593 32.8724 1.68234 21.3541 2.58827Z" fill="#61A6B5"/>
<path fill-rule="evenodd" clip-rule="evenodd" d="M21.3541 61.6681L27.0486 55.2619L34.749 52.9324C34.6843 52.9971 32.8724 62.5741 21.3541 61.6681Z" fill="#A4CAD8"/>
<path fill-rule="evenodd" clip-rule="evenodd" d="M21.2247 32.0958V12.2947L15.0773 18.6362L11.7771 32.0958H21.2247ZM21.16 12.23V18.6362V32.0958" fill="#A4CAD8"/>
<path fill-rule="evenodd" clip-rule="evenodd" d="M21.16 32.0959V51.897L15.0126 45.5555L11.7771 32.0959H21.16ZM21.16 52.0265V32.0959Z" fill="#C6E4E9"/>
<path fill-rule="evenodd" clip-rule="evenodd" d="M21.2247 32.0958V12.2947L27.3721 18.6362L30.6723 32.0958H21.2247ZM21.2247 12.23V18.6362V32.0958" fill="#C6E4E9"/>
<path fill-rule="evenodd" clip-rule="evenodd" d="M21.0952 61.6682L26.7249 55.3267L28.5368 60.4387C26.6602 61.4094 24.266 61.927 21.0952 61.6682Z" fill="#72C0CF"/>
<path fill-rule="evenodd" clip-rule="evenodd" d="M15.4009 55.3265L21.16 52.0264V52.0911L21.2247 52.0264L26.9839 55.3265L21.3541 61.6681H21.0953L15.4009 55.3265Z" fill="#A4CAD8"/>
<path d="M35.0079 11.6475C31.5136 6.3413 26.7251 3.10583 21.4836 3.10583C16.2421 3.10583 11.4537 6.40601 7.95934 11.6475C4.40033 17.0831 2.2002 24.5894 2.2002 32.8722C2.2002 41.155 4.40033 48.6613 7.95934 54.0969C11.4537 59.403 16.2421 62.6385 21.4836 62.6385C26.7251 62.6385 31.5136 59.3383 35.0079 54.0969C38.5669 48.6613 40.767 41.155 40.767 32.8722C40.767 24.5894 38.5669 17.0831 35.0079 11.6475ZM21.4189 1.16455C27.3722 1.16455 32.7431 4.78828 36.5609 10.6121C40.3141 16.3066 42.6436 24.2011 42.6436 32.8722C42.6436 41.5432 40.3141 49.4378 36.5609 55.1322C32.7431 60.9561 27.3722 64.5798 21.4189 64.5798C15.4656 64.5798 10.0948 60.9561 6.2769 55.1322C2.52375 49.4378 0.194214 41.5432 0.194214 32.8722C0.194214 24.2011 2.52375 16.3066 6.2769 10.6121C10.1595 4.78828 15.5303 1.16455 21.4189 1.16455Z" fill="#8C6521"/>
<path d="M34.749 10.5476C31.2546 5.24146 26.4662 2.00599 21.2247 2.00599C15.9832 2.00599 11.1947 5.30617 7.70042 10.5476C4.1414 15.9832 1.94128 23.4895 1.94128 31.7723C1.94128 40.0551 4.1414 47.5614 7.70042 52.997C11.1947 58.3032 15.9832 61.5387 21.2247 61.5387C26.4662 61.5387 31.2546 58.2385 34.749 52.997C38.308 47.5614 40.5081 40.0551 40.5081 31.7723C40.5081 23.4248 38.308 15.9185 34.749 10.5476ZM21.2247 0C27.178 0 32.5488 3.62373 36.3667 9.44757C40.1198 15.142 42.4494 23.0366 42.4494 31.7076C42.4494 40.3787 40.1198 48.2732 36.3667 53.9677C32.5488 59.7915 27.178 63.4152 21.2247 63.4152C15.2714 63.4152 9.90054 59.7915 6.08269 53.9677C2.32954 48.2732 0 40.3787 0 31.7076C0 23.0366 2.26483 15.2067 6.08269 9.44757C9.90054 3.62373 15.2714 0 21.2247 0Z" fill="#BE983D"/>
<path d="M19.2186 1.81152C19.7363 1.81152 20.254 1.87623 20.7717 1.94094C15.7243 2.13507 11.0652 5.37054 7.70035 10.4826C6.665 12.1003 5.69436 13.8475 4.91785 15.7888C7.44151 7.57066 12.8771 1.81152 19.2186 1.81152Z" fill="#FEFEFE"/>
<path d="M23.36 62.8976C22.8424 62.8976 22.3247 62.8329 21.807 62.7682C26.8543 62.5741 31.5134 59.3386 34.8783 54.2266C35.9137 52.6088 36.8843 50.8617 37.6608 48.9204C35.1371 57.2032 29.7016 62.8976 23.36 62.8976Z" fill="#FEFEFE"/>
<path fill-rule="evenodd" clip-rule="evenodd" d="M6.85913 14.1714L7.63564 21.613L12.683 22.713L7.63564 23.8131L6.85913 31.2547L6.08261 23.8131L1.03528 22.713L6.08261 21.613L6.85913 14.1714Z" fill="#FEFEFE"/>
<path fill-rule="evenodd" clip-rule="evenodd" d="M34.6842 33.2605L35.396 40.7021L40.508 41.8021L35.396 42.9022L34.6842 50.3438L33.9077 42.9022L28.8604 41.8021L33.9077 40.7021L34.6842 33.2605Z" fill="#FEFEFE"/>
<path fill-rule="evenodd" clip-rule="evenodd" d="M27.0485 5.62988L27.3721 8.73594L29.5075 9.1889L27.3721 9.64187L27.0485 12.7479L26.725 9.64187L24.6543 9.1889L26.725 8.73594L27.0485 5.62988Z" fill="#FEFEFE"/>
<path fill-rule="evenodd" clip-rule="evenodd" d="M38.8904 16.6948L39.2139 19.8009L41.3493 20.2538L39.2139 20.7068L38.8904 23.8776L38.5668 20.7068L36.4314 20.2538L38.5668 19.8009L38.8904 16.6948Z" fill="#FEFEFE"/>
<path fill-rule="evenodd" clip-rule="evenodd" d="M20.3834 28.2134L20.7069 31.3194L22.8424 31.7724L20.7069 32.2254L20.3834 35.3314L20.0598 32.2254L17.9244 31.7724L20.0598 31.3194L20.3834 28.2134Z" fill="#FEFEFE"/>
<path fill-rule="evenodd" clip-rule="evenodd" d="M15.2067 5.75928L15.5303 8.86533L17.6657 9.3183L15.5303 9.77126L15.2067 12.8773L14.9479 9.77126L12.8125 9.3183L14.9479 8.86533L15.2067 5.75928Z" fill="#FEFEFE"/>
<path fill-rule="evenodd" clip-rule="evenodd" d="M7.31211 48.6614L7.63566 51.7674L9.70636 52.2851L7.63566 52.7381L7.31211 55.8441L6.98856 52.7381L4.85315 52.2851L6.98856 51.7674L7.31211 48.6614Z" fill="#FEFEFE"/>
</svg>
