<svg width="76" height="80" viewBox="0 0 76 80" fill="none" xmlns="http://www.w3.org/2000/svg">
<path d="M9.27539 10.5375L12.5372 9.51066L13.3829 6.73206L13.9869 9.57106L16.9467 10.2355L13.9265 10.9604L13.2017 13.8598L12.4164 10.9L9.27539 10.5375Z" fill="#CB1D28"/>
<path d="M59.1694 17.4236L62.4313 16.3968L63.2769 13.6182L63.881 16.4572L66.8408 17.1216L63.8206 17.8465L63.0353 20.7459L62.3105 17.7861L59.1694 17.4236Z" fill="#CB1D28"/>
<path d="M38.1484 2.50372L40.1418 1.89968L40.6854 0.147949L41.0478 1.89968L42.9204 2.32251L41.0478 2.80574L40.5646 4.61787L40.0814 2.74534L38.1484 2.50372Z" fill="#CB1D28"/>
<path d="M64.2396 22.0407L2.63623 38.1036L13.4871 79.7181L75.0905 63.6551L64.2396 22.0407Z" fill="#C7C7C6"/>
<path d="M2.87207 37.2362L24.1344 6.55083C24.1344 6.55083 25.3425 4.79911 26.913 4.61789C28.5439 4.43668 63.0952 23.0412 63.0952 23.0412L42.3765 48.7735L37.1213 53.8474L2.87207 37.2362Z" fill="#CB1D28" stroke="#1E1E1C" stroke-miterlimit="10"/>
<path d="M7.8861 39.5315L1 20.4438L55.3035 6.12793L60.7399 33.0079L39.4776 54.2702L29.2088 53.8474L7.8861 39.5315Z" fill="white" stroke="#020203" stroke-width="0.8003" stroke-miterlimit="10"/>
<path d="M7.46338 37.7799L30.4774 46.1761C30.4774 46.1761 32.1688 43.4579 35.0078 42.7934C37.8468 42.0686 41.1086 44.2431 41.1086 44.2431L58.7467 25.0345L59.1695 27.1487L42.0751 48.1694L31.1419 50.8876L8.36944 40.196L7.46338 37.7799Z" fill="#C7C7C6"/>
<path d="M42.0752 48.1694L63.1563 23.0411L71.1297 60.9751L42.0752 48.1694Z" fill="#F4A6B2" stroke="#020203" stroke-width="0.8003" stroke-miterlimit="10"/>
<path d="M43.4643 46.8405L64.9682 56.5052C64.9682 56.5052 69.4382 57.6528 69.559 54.8742C70.7671 60.5522 70.7671 60.6126 70.7671 60.6126L42.1958 48.3506L43.4643 46.8405Z" fill="#E9494A"/>
<path d="M2.81201 37.5986L31.2021 50.948L13.6244 77.0427L2.81201 37.5986Z" fill="#F4A6B2" stroke="#020203" stroke-width="0.8003" stroke-miterlimit="10"/>
<path d="M29.6314 50.3441L15.8592 70.2172C15.8592 70.2172 12.5369 71.4856 11.6309 68.7674C14.047 77.2241 13.8054 76.9824 13.8054 76.9824L31.2019 50.9482L29.6314 50.3441Z" fill="#E9494A"/>
<path d="M13.9868 77.2239L33.6786 46.6593C33.6786 46.6593 34.7659 44.5451 38.209 46.2968C41.5916 48.0486 70.8273 61.3375 70.8273 61.3375L13.9868 77.2239Z" fill="#F6B7BC" stroke="#020203" stroke-width="0.8003" stroke-miterlimit="10"/>
<path d="M30.236 16.9405C30.1151 16.5176 29.7527 16.276 29.3299 16.3968L5.22855 22.1352C4.80572 22.256 4.5641 22.6185 4.68491 23.0413C4.80572 23.4641 5.16814 23.7057 5.59097 23.5849L29.6923 17.8465C30.0547 17.7257 30.2964 17.3633 30.236 16.9405ZM31.444 20.8667C31.3232 20.4439 30.9608 20.2023 30.538 20.3231L6.43663 26.0615C6.0138 26.1823 5.77219 26.5447 5.893 26.9676C6.0138 27.3904 6.37623 27.632 6.79906 27.5112L30.9004 21.7728C31.3232 21.652 31.5648 21.2896 31.444 20.8667ZM32.5917 24.3702C32.4709 23.9474 32.1085 23.7057 31.6857 23.8265L7.58432 29.565C7.16149 29.6858 6.91987 30.0482 7.04068 30.471C7.16149 30.8939 7.52391 31.1355 7.94674 31.0147L32.0481 25.2762C32.4709 25.1554 32.7125 24.7326 32.5917 24.3702ZM33.679 28.7797C33.5582 28.3569 33.1958 28.1153 32.7729 28.2361L8.6716 33.9745C8.24876 34.0953 8.00715 34.4577 8.12795 34.8805C8.24876 35.3034 8.61119 35.545 9.03402 35.4242L33.1354 29.6858C33.5582 29.565 33.7998 29.2025 33.679 28.7797ZM33.9206 31.7395L9.81928 37.4779C9.39645 37.5987 9.15483 37.9612 9.27564 38.384C9.39645 38.8068 9.75887 39.0484 10.1817 38.9276L34.283 33.1892C34.7059 33.0684 34.9475 32.706 34.8267 32.2832C34.7059 31.8603 34.3435 31.6187 33.9206 31.7395ZM50.4714 12.4101C50.8942 12.2893 51.1359 11.9269 51.015 11.5041C50.8942 11.0812 50.5318 10.8396 50.109 10.9604L35.3703 14.4639C34.9475 14.5847 34.7059 14.9471 34.8267 15.3699C34.9475 15.7928 35.3099 16.0344 35.7328 15.9136L50.4714 12.4101ZM51.2567 16.578C51.6795 16.4572 51.9211 16.0948 51.8003 15.672C51.6795 15.2491 51.3171 15.0075 50.8942 15.1283L36.1556 18.6318C35.7327 18.7526 35.4911 19.115 35.6119 19.5378C35.7327 19.9607 36.0952 20.2023 36.518 20.0815L51.2567 16.578ZM52.5856 19.5982C52.4648 19.1754 52.1023 18.9338 51.6795 19.0546L36.9408 22.5581C36.518 22.6789 36.2764 23.0413 36.3972 23.4641C36.518 23.8869 36.8804 24.1286 37.3033 24.0078L52.0419 20.5043C52.4044 20.4439 52.646 20.0211 52.5856 19.5982ZM53.1292 24.5514C53.552 24.4306 53.7937 24.0682 53.6728 23.6453C53.552 23.2225 53.1896 22.9809 52.7668 23.1017L38.0281 26.6051C37.6053 26.726 37.3637 27.0884 37.4845 27.5112C37.6053 27.934 37.9677 28.1757 38.3905 28.0549L53.1292 24.5514ZM54.4581 27.632C54.3373 27.2092 53.9749 26.9676 53.552 27.0884L38.8738 30.5314C38.4509 30.6522 38.2093 31.0147 38.3301 31.4375C38.4509 31.8603 38.8134 32.1019 39.2362 31.9811L53.9749 28.4777C54.2769 28.4173 54.5789 27.9944 54.4581 27.632Z" fill="url(#paint0_linear_1_2709)"/>
<path d="M33.0743 38.1424C30.5373 36.3907 29.0272 41.525 32.5911 40.3169C31.4434 40.921 31.0809 42.7331 32.1682 43.458C33.1951 44.1224 35.3697 43.0955 34.7052 41.8875C34.7656 43.3976 37.061 43.3976 37.9066 42.5519C38.8127 41.6458 38.1483 39.9545 36.8798 39.8337C39.9 40.2565 38.5711 34.2765 34.7656 37.0551C34.6448 35.3034 31.8058 35.9074 32.4702 37.9612C32.7119 38.0216 32.8327 38.0216 33.0743 38.1424Z" fill="#E9494A"/>
<path d="M35.2494 40.2566L34.1621 40.4378C33.7393 40.4982 33.3165 40.2566 33.1956 39.7734C33.1352 39.3505 33.3769 38.9277 33.8601 38.8069L34.9474 38.6257C35.3702 38.5653 35.793 38.8069 35.9138 39.2901C35.9742 39.713 35.6722 40.1358 35.2494 40.2566Z" fill="#FCEDE6"/>
<mask id="mask0_1_2709" style="mask-type:luminance" maskUnits="userSpaceOnUse" x="14" y="45" width="57" height="32">
<path d="M14.6514 76.7406L32.7727 48.5318C33.86 46.1156 35.1284 44.6659 39.4776 47.2029L70.1026 61.2771L14.6514 76.7406Z" fill="white"/>
</mask>
<g mask="url(#mask0_1_2709)">
<path d="M17.9728 76.4386L11.4491 52.3977" stroke="#CB1D28" stroke-width="1.0444" stroke-miterlimit="10"/>
<path d="M21.2349 75.5325L14.7112 51.4312" stroke="#CB1D28" stroke-width="1.0444" stroke-miterlimit="10"/>
<path d="M24.5571 74.6265L18.0334 50.5251" stroke="#CB1D28" stroke-width="1.0444" stroke-miterlimit="10"/>
<path d="M27.8186 73.66L21.2949 49.6191" stroke="#CB1D28" stroke-width="1.0444" stroke-miterlimit="10"/>
<path d="M31.0807 72.7539L24.557 48.713" stroke="#CB1D28" stroke-width="1.0444" stroke-miterlimit="10"/>
<path d="M34.4029 71.8479L27.8792 47.8069" stroke="#CB1D28" stroke-width="1.0444" stroke-miterlimit="10"/>
<path d="M37.6644 70.942L31.1407 46.8407" stroke="#CB1D28" stroke-width="1.0444" stroke-miterlimit="10"/>
<path d="M40.9264 70.036L34.4028 45.9346" stroke="#CB1D28" stroke-width="1.0444" stroke-miterlimit="10"/>
<path d="M44.2487 69.0695L37.725 45.0286" stroke="#CB1D28" stroke-width="1.0444" stroke-miterlimit="10"/>
<path d="M47.5108 68.1634L40.9871 44.1225" stroke="#CB1D28" stroke-width="1.0444" stroke-miterlimit="10"/>
<path d="M50.8326 67.2573L44.2486 43.156" stroke="#CB1D28" stroke-width="1.0444" stroke-miterlimit="10"/>
<path d="M54.0947 66.3513L47.5106 42.2499" stroke="#CB1D28" stroke-width="1.0444" stroke-miterlimit="10"/>
<path d="M57.3565 65.4452L50.8329 41.3439" stroke="#CB1D28" stroke-width="1.0444" stroke-miterlimit="10"/>
<path d="M60.6784 64.4787L54.0944 40.4378" stroke="#CB1D28" stroke-width="1.0444" stroke-miterlimit="10"/>
<path d="M63.9405 63.5727L57.3564 39.5317" stroke="#CB1D28" stroke-width="1.0444" stroke-miterlimit="10"/>
<path d="M67.2627 62.6665L60.6787 38.5652" stroke="#CB1D28" stroke-width="1.0444" stroke-miterlimit="10"/>
</g>
<mask id="mask1_1_2709" style="mask-type:luminance" maskUnits="userSpaceOnUse" x="3" y="24" width="68" height="53">
<path d="M3.23426 38.1426L27.5772 49.559C28.4229 49.9214 30.537 51.0087 29.9934 51.794L13.6238 76.9826L3.23426 38.1426ZM62.4305 24.0684L44.1884 45.9347C43.6448 46.6596 43.4636 48.5321 44.3092 48.8946L70.1623 60.3714L62.4305 24.0684Z" fill="white"/>
</mask>
<g mask="url(#mask1_1_2709)">
<path d="M14.3488 76.9219L4.32167 37.9007" stroke="#CB1D28" stroke-width="1.0632" stroke-miterlimit="10"/>
<path d="M17.6109 76.0764L7.58374 37.1156" stroke="#CB1D28" stroke-width="1.0632" stroke-miterlimit="10"/>
<path d="M20.8723 75.2912L10.8452 36.27" stroke="#CB1D28" stroke-width="1.0632" stroke-miterlimit="10"/>
<path d="M24.1344 74.4454L14.1073 35.4846" stroke="#CB1D28" stroke-width="1.0632" stroke-miterlimit="10"/>
<path d="M27.3959 73.5997L17.3688 34.6389" stroke="#CB1D28" stroke-width="1.0632" stroke-miterlimit="10"/>
<path d="M30.658 72.8145L20.6308 33.7933" stroke="#CB1D28" stroke-width="1.0632" stroke-miterlimit="10"/>
<path d="M33.92 71.9689L23.8929 33.0081" stroke="#CB1D28" stroke-width="1.0632" stroke-miterlimit="10"/>
<path d="M37.1815 71.1837L27.1544 32.1625" stroke="#CB1D28" stroke-width="1.0632" stroke-miterlimit="10"/>
<path d="M40.4436 70.3379L30.4165 31.3771" stroke="#CB1D28" stroke-width="1.0632" stroke-miterlimit="10"/>
<path d="M43.7051 69.4922L33.678 30.5314" stroke="#CB1D28" stroke-width="1.0632" stroke-miterlimit="10"/>
<path d="M46.9671 68.707L36.94 29.6858" stroke="#CB1D28" stroke-width="1.0632" stroke-miterlimit="10"/>
<path d="M50.2292 67.8613L40.2021 28.9005" stroke="#CB1D28" stroke-width="1.0632" stroke-miterlimit="10"/>
<path d="M53.4911 67.0761L43.5243 28.0549" stroke="#CB1D28" stroke-width="1.0632" stroke-miterlimit="10"/>
<path d="M56.7525 66.2305L46.7858 27.2697" stroke="#CB1D28" stroke-width="1.0632" stroke-miterlimit="10"/>
<path d="M60.0146 65.3848L50.0479 26.424" stroke="#CB1D28" stroke-width="1.0632" stroke-miterlimit="10"/>
<path d="M63.2761 64.5995L53.3094 25.5783" stroke="#CB1D28" stroke-width="1.0632" stroke-miterlimit="10"/>
<path d="M66.5382 63.7538L56.5714 24.793" stroke="#CB1D28" stroke-width="1.0632" stroke-miterlimit="10"/>
<path d="M69.8002 62.9686L59.8335 23.9474" stroke="#CB1D28" stroke-width="1.0632" stroke-miterlimit="10"/>
</g>
<mask id="mask2_1_2709" style="mask-type:luminance" maskUnits="userSpaceOnUse" x="2" y="22" width="69" height="56">
<path d="M63.1562 22.558L43.1624 46.7198C42.7999 47.2634 45.2765 49.5588 45.6993 50.042L38.8736 47.0218C37.0615 46.0553 37.3031 46.1157 36.095 47.8071L31.9876 53.6059C32.1084 53.0018 31.8667 52.3374 31.2627 52.0354L2.63104 37.3571L13.5038 77.6468L70.9484 61.5189L63.1562 22.558Z" fill="white"/>
</mask>
<g mask="url(#mask2_1_2709)">
<path opacity="0.35" d="M57.8405 26.3637C58.9882 33.2498 60.3775 40.0755 61.7064 46.9616C62.3105 50.1026 62.9145 53.304 63.4581 56.4451C63.8206 58.378 63.3977 57.1095 64.3038 56.8679C63.6394 57.0491 62.9145 57.4115 62.1897 57.6531C60.0755 58.2572 57.9009 58.8612 55.7264 59.4049C47.6322 61.5794 39.7192 64.358 31.7459 67.0762C26.6115 68.8279 19.9066 70.2172 15.7991 73.9019C11.45 77.8282 17.8529 84.1707 22.202 80.3048C21.3563 81.0296 22.9872 79.9423 23.2288 79.8215C23.7121 79.5799 24.1953 79.3987 24.6181 79.2175C26.0678 78.6134 27.5176 78.1302 28.9673 77.5866C32.4103 76.3785 35.8534 75.1704 39.2964 74.0227C43.6455 72.5126 47.9342 71.0025 52.2833 69.734C56.7533 68.4051 61.4044 67.4991 65.8139 65.9889C70.4046 64.4184 73.1228 61.217 72.398 56.2034C71.9148 52.8812 71.2503 49.6194 70.6463 46.2971C69.257 38.8674 67.7469 31.4376 66.4784 23.9475C65.5723 18.2091 56.8741 20.6253 57.8405 26.3637Z" fill="#CB1D28"/>
</g>
<path d="M58.3238 31.5582L46.9678 45.4513C46.6658 45.8741 46.7262 46.4177 47.0886 46.7801C47.5114 47.0822 48.0551 47.0218 48.4175 46.6593L59.7735 32.7663C60.0755 32.3435 60.0151 31.7999 59.6527 31.4374C59.2299 31.075 58.6258 31.1354 58.3238 31.5582Z" fill="#FCEDE6"/>
<path d="M24.7385 49.8608L8.61057 42.0686C8.12734 41.827 7.5837 42.0686 7.34208 42.4915C7.10046 42.9747 7.34208 43.5183 7.76491 43.76L23.8929 51.5521C24.3761 51.7937 24.9198 51.5521 25.1614 51.1293C25.403 50.6461 25.2218 50.1024 24.7385 49.8608Z" fill="#FCEDE6"/>
<path d="M36.6386 49.6193L35.5513 49.8005C35.1284 49.8609 34.7056 49.6193 34.5848 49.136C34.5244 48.7132 34.766 48.2904 35.2493 48.1696L36.3365 47.9884C36.7594 47.928 37.1822 48.1696 37.303 48.6528C37.3634 49.136 37.0614 49.5589 36.6386 49.6193Z" fill="#FCEDE6"/>
<defs>
<linearGradient id="paint0_linear_1_2709" x1="4.66485" y1="24.9274" x2="54.478" y2="24.9274" gradientUnits="userSpaceOnUse">
<stop offset="0.2961" stop-color="#D0D0CF"/>
<stop offset="0.8464" stop-color="#636361"/>
</linearGradient>
</defs>
</svg>
