<svg width="131" height="71" viewBox="0 0 131 71" fill="none" xmlns="http://www.w3.org/2000/svg">
<path d="M65.4504 23.4643C64.8464 24.1287 64.8464 25.0348 64.9068 25.8804C64.9672 26.7261 64.9672 27.6322 64.8464 28.4778C64.6652 30.0483 64.6652 31.6793 64.9672 33.2498C65.2088 34.4579 65.5712 35.7868 66.5377 36.6324C67.8062 37.7197 69.6787 37.2969 71.1888 37.2365C73.6654 37.1157 76.142 36.8136 78.6186 36.572C79.8267 36.4512 81.0952 36.27 82.3032 36.1492C82.9677 36.0888 83.5717 36.0284 84.2362 35.968C84.5382 35.968 85.6255 35.6659 85.8671 35.8472C84.9006 35.1827 83.1489 35.4847 81.9408 35.0619C84.7798 35.0619 89.1289 34.337 90.8807 31.8605C90.2162 31.8605 89.7934 31.5584 89.1289 31.3772C95.4714 27.6322 104.049 31.8605 110.27 28.2362C109.485 28.1154 108.76 27.8134 108.156 27.3905C114.197 27.451 119.935 30.6524 125.674 26.9677C118.304 25.8804 111.599 22.2562 104.351 20.5649C94.3237 18.2091 83.9342 20.2628 73.907 21.5313C72.1553 21.7125 66.9001 21.9542 65.4504 23.4643Z" fill="#C8C8C8"/>
<path d="M33.7983 70.9419C15.1937 70.9419 0.0322266 55.0555 0.0322266 35.5449C0.0322266 16.0343 15.1937 0.147949 33.7983 0.147949C52.4028 0.147949 67.5643 16.0343 67.5643 35.5449C67.5643 55.0555 52.4028 70.9419 33.7983 70.9419ZM33.7983 7.15485C18.8784 7.15485 6.73711 19.9002 6.73711 35.5449C6.73711 51.1896 18.8784 63.8745 33.7983 63.8745C48.7181 63.8745 60.8594 51.1292 60.8594 35.5449C60.8594 19.9606 48.7181 7.15485 33.7983 7.15485Z" fill="#1E1E1C"/>
<path d="M33.6775 61.0355C48.7564 61.0355 60.9802 48.8116 60.9802 33.7327C60.9802 18.6538 48.7564 6.42993 33.6775 6.42993C18.5986 6.42993 6.37469 18.6538 6.37469 33.7327C6.37469 48.8116 18.5986 61.0355 33.6775 61.0355Z" fill="#E1EFEE"/>
<path d="M67.3227 37.2967L60.7386 36.5115C59.4701 50.2837 47.8725 61.096 33.7983 61.096C18.8784 61.096 6.73711 48.9548 6.73711 34.0349C6.73711 19.115 18.8784 6.97374 33.7983 6.97374C47.4496 6.97374 58.7453 17.1217 60.5574 30.2898L67.2623 29.6254C65.0877 13.0746 50.9531 0.26886 33.7983 0.26886C15.1937 0.26886 0.0322266 15.4304 0.0322266 34.0349C0.0322266 52.6394 15.1937 67.8009 33.7983 67.8009C52.4028 67.8009 67.5643 52.6394 67.5643 34.0349C67.5643 33.8537 67.5643 33.6121 67.5643 33.4309L67.3227 37.2967Z" fill="#D82416"/>
<path d="M67.7454 29.565L67.2621 29.6254C67.4434 30.8335 67.5038 32.102 67.5642 33.3705L67.7454 29.565Z" fill="#B2B2B2"/>
<path d="M33.617 48.3508C25.4624 48.3508 18.818 41.7063 18.818 33.5517C18.818 25.3972 25.4624 18.8131 33.617 18.8131C41.0468 18.8131 47.2684 24.3703 48.2349 31.5584L53.7317 31.0148C52.4632 21.048 43.9462 13.3163 33.617 13.3163C22.4422 13.3163 13.3212 22.4373 13.3212 33.6122C13.3212 44.787 22.4422 53.908 33.617 53.908C44.1274 53.908 52.7652 45.8742 53.8525 35.6659L48.3557 35.0014C47.6308 42.4916 41.2884 48.3508 33.617 48.3508Z" fill="#1FA038"/>
<path d="M34.1609 36.5115C32.4092 36.5115 30.9595 35.0618 30.9595 33.3101C30.9595 31.5584 32.4092 30.1087 34.1609 30.1087C35.7315 30.1087 36.9999 31.1959 37.302 32.6456L42.678 32.102C42.1343 27.9341 38.5101 24.7327 34.2213 24.7327C29.5098 24.7327 25.6439 28.5985 25.6439 33.3101C25.6439 38.0216 29.5098 41.8875 34.2213 41.8875C38.6309 41.8875 42.1947 38.5653 42.7384 34.337L37.4228 33.6725C37.1207 35.243 35.7919 36.5115 34.1609 36.5115Z" fill="#D82416"/>
<path d="M37.3017 33.6723C37.3017 33.5515 37.3621 33.4307 37.3621 33.3099C37.3621 33.0682 37.3621 32.887 37.3017 32.7058L32.9526 33.1286L37.3017 33.6723Z" fill="#B2B2B2"/>
<path d="M42.6777 33.3099C42.6777 33.6723 42.6777 33.9743 42.6173 34.2763L48.2953 34.9408C48.3557 34.4576 48.3557 34.0347 48.3557 33.5515C48.3557 32.887 48.2953 32.1622 48.2349 31.4977L42.6173 32.1018C42.6777 32.5246 42.6777 32.887 42.6777 33.3099Z" fill="#B2B2B2"/>
<path d="M60.7992 34.0348C60.7992 32.7663 60.6784 31.5582 60.5576 30.3501L53.7319 31.0749C53.8527 31.9206 53.9131 32.7663 53.9131 33.6723C53.9131 34.3368 53.8527 35.0616 53.7923 35.7261L60.6784 36.5717C60.7992 35.6657 60.7992 34.8804 60.7992 34.0348Z" fill="#868686"/>
<path d="M53.7316 31.0146L48.2348 31.5583C48.3556 32.2227 48.3556 32.8872 48.3556 33.612C48.3556 34.0953 48.3556 34.5181 48.2952 35.0013L53.792 35.6658C53.8524 35.0013 53.9128 34.3369 53.9128 33.612C53.9128 32.706 53.8524 31.8603 53.7316 31.0146Z" fill="#1FA038"/>
<path d="M53.7316 31.0146L48.2348 31.5583C48.3556 32.2227 48.3556 32.8872 48.3556 33.612C48.3556 34.0953 48.3556 34.5181 48.2952 35.0013L53.792 35.6658C53.8524 35.0013 53.9128 34.3369 53.9128 33.612C53.9128 32.706 53.8524 31.8603 53.7316 31.0146Z" fill="#277B38"/>
<path d="M42.6176 32.1622L37.2416 32.7059C37.302 32.8871 37.302 33.1287 37.302 33.3099C37.302 33.4307 37.302 33.5515 37.2416 33.6723L42.5572 34.3368C42.6176 34.0348 42.6176 33.6723 42.6176 33.3703C42.678 32.8871 42.678 32.5247 42.6176 32.1622Z" fill="#D82416"/>
<path d="M42.6176 32.1622L37.2416 32.7059C37.302 32.8871 37.302 33.1287 37.302 33.3099C37.302 33.4307 37.302 33.5515 37.2416 33.6723L42.5572 34.3368C42.6176 34.0348 42.6176 33.6723 42.6176 33.3703C42.678 32.8871 42.678 32.5247 42.6176 32.1622Z" fill="#782524"/>
<path d="M60.7991 34.0347C60.7991 34.8804 60.7387 35.6656 60.6783 36.5113L67.2624 37.2966L67.504 33.4307C67.504 32.1622 67.3832 30.8937 67.202 29.6856L60.5575 30.2897C60.7387 31.4977 60.7991 32.7662 60.7991 34.0347Z" fill="#D82416"/>
<path d="M60.7991 34.0347C60.7991 34.8804 60.7387 35.6656 60.6783 36.5113L67.2624 37.2966L67.504 33.4307C67.504 32.1622 67.3832 30.8937 67.202 29.6856L60.5575 30.2897C60.7387 31.4977 60.7991 32.7662 60.7991 34.0347Z" fill="#802828"/>
<path d="M47.1477 29.5044C46 29.8064 40.624 31.0145 39.4764 31.3165C37.3622 31.8602 33.9796 32.9474 32.9527 33.1287C32.9527 33.1287 33.7984 33.7931 41.2281 32.1018C41.8321 31.981 46.6041 30.8937 47.5101 30.6521C47.3893 30.5313 47.1477 29.746 47.1477 29.5044Z" fill="#029F97"/>
<path d="M40.2616 31.1354C39.9596 31.1958 39.5972 31.3166 39.2952 31.377C37.2414 31.9206 33.9192 32.8871 32.9527 33.1287C32.9527 33.1287 33.7984 33.7932 40.6845 32.2227C40.624 31.7998 40.5032 31.4374 40.2616 31.1354Z" fill="#1E1F1D"/>
<path d="M125.734 25.6386C126.942 25.2158 127.969 24.4909 128.815 23.4641C129.902 22.1956 130.143 20.4438 130.445 18.9337C130.264 19.6586 129.539 20.323 128.875 20.6855C126.278 22.0144 123.197 21.3499 120.539 20.6855C119.512 20.4438 118.606 20.1418 117.64 19.719C116.975 19.417 116.311 19.1149 115.646 18.8733C115.042 18.6317 114.378 18.5109 113.713 18.3297C111.78 17.7256 109.727 17.3632 107.673 17.3028C107.733 17.3028 107.733 17.3028 107.794 17.3028C108.458 17.2424 109.123 17.2424 109.787 17.3028C110.693 17.3632 111.539 17.6048 112.445 17.8465C113.411 18.1485 114.378 18.3901 115.344 18.6317C115.465 18.6317 115.526 18.5109 115.405 18.5109C113.593 18.0881 111.841 17.2424 109.968 17.0612C109.364 17.0008 108.76 17.0008 108.156 17.0008C108.337 16.9404 108.519 16.88 108.7 16.88C109.304 16.88 109.908 16.88 110.512 16.9404C111.176 17.0008 111.841 17.1216 112.505 17.3028C112.566 17.3028 112.687 17.2424 112.566 17.182C111.72 16.9404 110.874 16.7592 110.029 16.6384C111.176 16.578 112.385 16.7592 113.532 17.0612C113.895 17.182 114.317 17.3028 114.68 17.4236C113.774 16.6384 112.928 15.8531 111.962 15.1887C111.176 14.947 110.391 14.7054 109.606 14.5846C108.217 14.2826 106.767 14.1618 105.317 14.1618C104.351 14.1618 103.445 14.4034 102.478 14.4638C101.935 14.5242 101.331 14.645 100.847 14.8262C100.304 14.947 99.76 15.3699 99.2768 15.4303C99.6392 14.947 100.364 14.4638 100.908 14.1618C103.203 12.9537 106.707 12.3497 108.881 14.1618C108.398 13.6181 107.733 13.2557 107.069 12.9537C105.317 12.1684 103.445 11.6248 101.451 11.7456C100.424 11.806 99.3372 11.9872 98.3707 12.2288C97.2834 12.4705 96.1962 12.7725 95.1693 13.1349C94.6257 13.3161 94.082 13.5577 93.5988 13.7994C93.1155 14.041 92.6323 14.4638 92.1491 14.5846C91.8471 13.4973 92.7531 12.2288 93.5988 11.6852C94.7465 10.9604 96.1962 10.9604 97.4647 11.0208C98.1291 11.0812 98.7936 11.1416 99.3976 11.4436C98.9144 10.7187 97.5251 10.4771 96.8002 10.3563C95.3505 10.0543 93.9008 10.1147 92.5115 10.2959C91.847 10.3563 91.243 10.5375 90.5786 10.7791C89.4309 11.1416 88.3436 11.7456 87.2563 12.2893C86.7127 12.5309 86.2294 12.8933 85.7462 13.1953C85.2026 13.4973 84.5985 13.7994 83.9945 14.1618C83.2092 14.645 82.4844 15.1283 81.6991 15.6115C80.4306 16.3967 79.1017 17.182 77.652 17.5444C78.0145 17.3632 78.4373 17.182 78.7997 16.9404C80.3098 16.0947 81.8199 15.2491 83.2696 14.343C84.1153 13.7994 84.961 13.3161 85.8066 12.8329C85.9274 12.7725 85.7462 12.7121 85.6858 12.7121C84.1757 13.4973 82.6656 14.343 81.1555 15.1887C80.189 15.7323 79.2829 16.2759 78.3165 16.7592C79.0413 16.3363 79.7662 15.8531 80.491 15.3699C82.424 14.041 84.4173 12.7121 86.5315 11.7456C87.0751 11.504 87.5583 11.3228 88.102 11.1416C87.0147 11.2624 85.9274 11.4436 84.9006 11.5644C84.7797 11.5644 84.6589 11.6248 84.5381 11.6248C82.5448 12.0476 80.6118 12.6517 78.7393 13.5577C78.1353 13.8598 77.5312 14.1014 76.9876 14.4638C76.4439 14.7658 75.9003 15.1283 75.4171 15.4907C74.5714 16.0343 73.7862 16.6384 73.0009 17.2424C73.5445 16.6988 74.0882 16.2155 74.6922 15.7323C76.0815 14.645 77.5916 13.8598 79.2225 13.1349C80.1286 12.7725 80.9743 12.3497 81.8803 12.0476C81.9407 12.0476 81.8803 11.9268 81.8199 11.9268C80.9743 12.2288 80.1286 12.4705 79.2829 12.7725C78.4977 13.0745 77.652 13.4369 76.9272 13.7994C75.4171 14.5846 74.0882 15.6115 72.8801 16.7592C73.3029 16.3363 73.7257 15.9135 74.1486 15.5511C75.4171 14.4638 76.8668 13.5577 78.3769 12.8329C77.7728 12.9537 77.1084 13.0745 76.5043 13.2557C76.1419 13.3161 75.7191 13.4369 75.3567 13.4973C74.7526 13.739 74.209 14.041 73.6653 14.343C72.8801 14.645 72.0948 15.0074 71.4304 15.4907C70.5847 16.0947 69.8599 16.8196 69.135 17.5444C68.7726 17.9069 68.3498 18.3297 67.9873 18.6921C68.1081 18.5109 68.2894 18.3297 68.4102 18.1485C69.3766 17.0612 70.3431 15.9739 71.5512 15.1283C72.1552 14.7054 72.8197 14.2222 73.5445 13.9202C73.6049 13.8598 73.4841 13.7994 73.4237 13.8598C72.7593 14.1618 72.1552 14.4638 71.4908 14.8866C70.8867 15.2491 70.4035 15.6719 69.8599 16.1551C69.3162 16.6988 68.7726 17.2424 68.2894 17.8465C67.8061 18.4505 67.3229 19.0545 66.9001 19.719C66.7188 20.021 66.5376 20.323 66.3564 20.6251L66.296 20.6855C66.598 20.0814 66.9605 19.417 67.3833 18.8733C68.2894 17.5444 69.437 16.2759 70.7055 15.2491C71.0076 15.0074 71.37 14.7054 71.7324 14.4638C70.7659 14.7054 69.7995 15.0074 68.833 15.3699C67.9873 15.8531 67.1417 16.3967 66.3564 17.0612C65.9336 17.3632 65.5712 17.7256 65.2087 18.0881C64.8463 18.4505 64.4839 18.8733 64.1214 19.2962C63.457 20.1418 62.853 20.9875 62.1281 21.8331C62.1281 21.8331 62.1281 21.8331 62.0677 21.8331C62.1281 21.7123 62.1885 21.5915 62.2489 21.5311C62.6113 20.9875 62.9738 20.4438 63.3362 19.9002C64.1215 18.8129 65.0275 17.8465 66.0544 16.9404C66.6584 16.3967 67.3229 15.9135 67.9873 15.4303C68.0477 15.3699 67.9873 15.3699 67.9269 15.3699C67.6249 15.5511 67.2625 15.7323 66.9605 15.9135C66.6584 16.0947 66.3564 16.3363 66.0544 16.578C65.5108 17.0008 64.9671 17.484 64.4839 18.0277C63.759 18.8129 63.0946 19.6586 62.4905 20.5042C62.6113 20.323 62.6717 20.1418 62.7926 19.9606C63.5174 18.7525 64.4839 17.7256 65.5107 16.8196C63.8798 17.786 62.3697 18.9941 61.1616 20.5042C59.4099 22.6788 57.9602 25.2762 55.6648 26.9675C55.1212 27.3903 54.5172 27.6924 53.9131 27.934C53.7923 27.9944 53.7923 28.0548 53.8527 28.1152C53.7923 28.1152 53.7319 28.1756 53.7319 28.1756C53.6111 28.236 53.6111 28.4172 53.7923 28.538C54.3359 28.7796 54.8796 28.7796 55.4836 28.7796C56.1481 28.7192 56.7521 28.7192 57.3562 28.84C58.7455 29.0213 60.014 29.5649 61.3429 29.9877C63.759 30.773 66.1752 31.3166 68.7122 31.6186C71.1888 31.9207 73.7257 32.0415 76.2023 31.9811C74.9338 31.4978 73.7257 30.9542 72.5177 30.3502C70.8867 29.5045 69.3162 28.538 67.8061 27.5111C67.7457 27.4507 67.7457 27.4507 67.8061 27.3903C68.0477 27.5716 68.3498 27.7528 68.6518 27.934C69.1954 28.2964 69.7995 28.538 70.4035 28.84C70.7055 28.9609 71.0076 29.0817 71.3096 29.2629C71.974 29.5649 72.6989 29.6857 73.3633 29.9877C74.209 30.3502 75.115 30.7126 76.0211 31.0146C77.1084 31.3166 78.1353 31.6791 79.2225 31.9811C81.6387 32.5851 84.1153 32.4643 86.4711 31.7999C87.4375 31.5582 88.6456 31.1354 89.1289 30.1689C88.1624 31.1958 86.5315 31.4374 85.2026 31.377C83.4508 31.3166 81.6991 31.0146 80.0682 30.3502C79.2829 30.0481 78.5581 29.7461 77.8332 29.3233C76.8668 28.7796 75.9003 28.1152 74.9338 27.6924C77.1084 28.5984 79.3434 29.5649 81.5783 30.0481C82.9676 30.3502 84.5381 30.5314 85.9878 30.3502C87.2563 30.1689 88.404 29.9273 89.6121 29.5649C90.4578 29.3233 91.3034 29.1421 92.0283 28.6588C91.6658 28.7796 91.243 28.7192 90.8806 28.6588C88.5852 28.1756 87.0751 26.3635 85.0214 25.4574C85.0818 25.4574 85.1422 25.5178 85.2026 25.5178C86.8335 26.3031 88.5248 26.9675 90.2161 27.6924C91.1826 28.1152 92.0887 28.538 92.9947 28.9609C93.0551 29.0213 93.2363 28.9005 93.1155 28.84C91.545 27.934 89.9141 27.0883 88.2832 26.3635C87.4375 26.001 86.6523 25.6386 85.8066 25.2762C85.0214 24.9138 84.1757 24.4909 83.3904 24.0681C83.2696 24.0077 83.1488 23.8869 83.028 23.8265C83.9945 24.3701 84.961 24.8534 85.9274 25.2762C86.9543 25.7594 88.0416 26.1823 89.1289 26.6655C90.3974 27.2091 91.545 27.9944 92.9343 28.236C94.5653 28.538 96.0754 28.4776 97.7063 28.236C98.7936 28.0548 100.726 27.4507 101.27 26.3635C100.908 26.6655 100.545 26.8467 100.062 26.7863C98.854 26.6655 97.4647 25.699 96.4982 24.9742C94.9881 23.8265 93.5384 22.6788 91.7866 22.0144C91.3638 21.8331 90.941 21.7123 90.5786 21.5915C91.3034 21.7727 91.9679 22.0144 92.6323 22.3164C93.478 22.6788 94.3236 23.1016 95.1693 23.5245C96.0754 24.0077 96.9814 24.4305 97.8875 24.8534C98.9144 25.3366 99.9412 25.8802 100.968 26.4239C101.029 26.4843 101.149 26.3635 101.089 26.3031C100.183 25.7594 99.3372 25.2158 98.4311 24.7325C97.5251 24.2493 96.619 23.7661 95.7129 23.2828C94.6256 22.7392 93.5988 22.1956 92.4511 21.7123C92.5115 21.7123 92.5719 21.7727 92.6323 21.7727C94.5653 22.4976 96.317 23.5245 98.1895 24.4305C100.122 25.397 102.176 26.2427 104.351 26.2427C105.559 26.2427 106.525 25.8198 107.613 25.3366C108.035 25.1554 108.579 25.0346 109.002 25.0346C107.25 24.8534 106.163 23.5849 104.653 22.86C104.894 22.9808 105.136 23.1016 105.378 23.2224C105.921 23.4641 106.465 23.7661 107.009 24.0077C107.311 24.1285 107.673 24.3097 107.975 24.4305C108.096 24.4909 108.821 24.8534 108.821 24.7325C107.311 23.8869 105.74 23.1016 104.23 22.3164C105.498 22.9204 106.827 23.5245 108.156 24.0077C109.485 24.4909 110.814 24.8534 112.203 25.3366C112.324 25.397 112.445 25.397 112.505 25.4574C113.291 25.7594 114.015 26.1823 114.861 26.4239C115.163 26.4843 115.405 26.5447 115.707 26.5447C115.828 26.5447 115.948 26.5447 116.069 26.5447C115.828 26.4843 115.586 26.4239 115.344 26.3635C114.861 26.1823 114.317 26.001 113.834 25.7594C113.291 25.5178 112.807 25.2158 112.264 24.9742C111.539 24.6721 110.814 24.5513 110.089 24.3701C109.364 24.1889 108.7 23.8869 107.975 23.5849C107.431 23.3433 106.888 23.1016 106.344 22.86C106.284 22.7996 106.163 22.7996 106.102 22.7392C105.076 22.256 104.049 21.7727 102.961 21.2895C103.928 21.7123 104.955 22.0748 105.921 22.558C106.888 23.0412 107.854 23.5245 108.821 23.8265C110.029 24.2493 111.297 24.4909 112.505 24.9138C113.593 25.2762 114.619 25.699 115.646 26.1823C116.613 26.6655 117.64 27.0279 118.787 27.1487C119.452 27.2091 120.056 26.9675 120.6 26.6655C119.814 26.9675 118.787 26.3635 118.123 26.0614C116.854 25.397 115.646 24.6117 114.438 23.8869C113.895 23.5245 113.291 23.2224 112.747 22.9204C113.713 23.3432 114.68 23.8265 115.586 24.3097C117.036 25.0346 118.485 25.6386 119.995 26.1823C120.781 26.4843 121.566 26.7863 122.412 26.8467C123.016 26.9071 123.861 26.7259 124.345 26.3031C124.103 26.4239 123.861 26.4239 123.62 26.4843C122.049 26.7259 120.66 26.1219 119.271 25.5178C118.123 25.0346 117.036 24.4909 115.948 23.9473C114.197 23.0412 112.385 22.1352 110.452 21.6519C111.116 21.7123 111.72 21.8935 112.385 22.0748C113.23 22.3768 114.076 22.7996 114.922 23.2224C115.767 23.6453 116.552 24.1285 117.398 24.5513C118.425 25.0346 119.452 25.397 120.539 25.7594C120.6 25.7594 120.72 25.8198 120.781 25.8198C121.868 26.001 123.016 26.1219 124.103 26.1219C124.526 25.9406 125.19 25.8198 125.734 25.6386Z" fill="#2071B7"/>
<path d="M74.5714 27.0883C74.9942 27.2696 75.4171 27.4508 75.8399 27.632C75.5379 27.5112 75.1755 27.3904 74.8734 27.2696C74.209 27.0279 73.6049 26.7863 72.9405 26.6051C73.4841 26.7259 74.0278 26.9071 74.5714 27.0883Z" fill="#6C6D6F"/>
<path d="M70.7655 31.075C69.8595 30.8334 68.893 30.5313 68.0473 30.1689C67.2017 29.8065 66.2956 29.3233 65.8728 28.4776C65.2083 27.1487 66.8393 26.6051 67.8661 26.6655C69.0138 26.7259 70.0407 27.2091 71.128 27.5111C71.732 27.6923 72.3965 27.7527 73.0005 27.8736C72.5173 27.934 71.7924 27.3299 71.43 27.0279C70.9468 26.5447 70.8259 26.1822 70.9468 25.5782C72.2757 26.2426 73.3629 27.3903 74.9938 27.4507C74.8126 27.0883 74.5106 26.7863 74.5106 26.3634C74.5106 26.7259 77.6516 27.4507 77.9537 27.5715C79.4034 28.0548 80.8531 28.4776 82.3632 28.6588C83.8733 28.84 85.323 29.3837 86.8331 29.142C87.4371 29.0212 88.0412 28.84 88.5848 28.7796C87.4371 28.538 86.3499 28.2964 85.2626 27.8736C84.1753 27.4507 82.7256 26.7863 82.1216 25.7594C81.4571 24.6117 81.2759 23.0412 82.8464 22.558C83.4505 22.3768 84.3565 22.3163 84.9606 22.4372C85.5646 22.558 86.1083 22.9808 86.6519 23.2224C87.7392 23.6452 88.8869 24.1889 90.0345 24.3097C91.303 24.4305 92.5715 24.4909 93.9004 24.4909C93.4172 24.3701 92.9339 24.3701 92.4507 24.2493C91.3634 24.0077 90.1553 23.1016 89.5513 22.1351C88.5848 20.625 90.2157 20.1418 91.4842 19.9002C91.9071 19.8398 92.3903 19.9002 92.8131 19.9002C93.7796 20.021 94.7461 20.2022 95.7125 20.5042C97.8871 21.1687 99.6388 22.4976 101.632 23.464C102.659 23.9473 103.807 24.1889 104.894 24.1889C103.203 23.7661 101.149 22.86 100.424 21.2291C100.122 20.5646 100.001 19.9606 100.545 19.4773C101.391 18.6921 103.203 19.1753 104.169 19.2357C106.887 19.5377 109.606 20.021 112.203 20.7458C113.23 21.0479 114.317 21.3499 115.344 21.6519C113.411 20.8062 111.538 19.9002 109.545 19.1753C108.76 18.8733 104.471 18.2088 105.74 16.5779C106.646 15.4302 108.941 15.3094 110.27 15.3094C109.726 15.1886 109.122 15.1282 108.518 15.0678C105.8 14.8262 103.505 15.1886 100.968 15.9135C99.9408 16.2155 96.7998 17.182 97.5851 15.0074C98.0683 13.6181 99.518 12.8933 100.787 12.3496C99.8805 12.3496 98.9744 12.6517 98.0683 13.0141C97.0414 13.3765 95.9542 13.9201 95.0481 14.5846C94.3232 15.1282 93.4776 15.8531 92.6319 16.2155C91.1822 16.8196 88.9473 16.9404 89.0077 14.8866C89.0681 14.1014 89.4305 13.4369 89.9741 12.7725C90.397 12.2288 91.001 11.9872 91.4842 11.504C90.4574 11.6248 89.2493 12.2288 88.3432 12.7725C86.2895 13.9805 84.5981 15.5511 82.8464 17.1216C82.3028 17.6048 81.6987 18.1484 81.0343 18.5713C79.8262 19.3565 77.7725 20.323 76.3228 20.3834C74.2086 20.4438 76.5644 17.786 77.0476 17.3028C75.2355 17.7256 73.8462 19.2357 72.6985 20.5646C72.2757 19.1753 74.6918 17.7256 75.5979 17.0612C75.1147 17.0612 74.571 17.484 74.1482 17.7256C73.0609 18.3297 72.0944 19.2961 71.3092 20.2022C70.8864 20.7458 70.0407 21.4707 69.3762 21.5915C68.4098 21.7123 68.893 20.5042 69.1346 20.021C69.5575 19.1149 70.3427 17.6652 71.2488 17.182C70.6447 17.484 69.9803 17.8464 69.4366 18.2693C68.5306 19.1149 67.9265 20.2022 67.1413 21.2291C66.356 22.2559 65.3896 22.86 64.1211 23.2828C63.3358 23.5244 62.1881 23.8869 61.4029 23.4036C60.3156 22.6788 60.8592 21.2291 61.4029 20.3834C61.5841 20.0814 61.7653 19.7794 62.0069 19.5377C61.7049 19.8398 61.4029 20.2022 61.1008 20.5646C59.3491 22.7392 57.8994 25.3366 55.6041 27.0279C55.0604 27.4507 54.4564 27.7527 53.8523 27.9944C53.7315 28.0548 53.7315 28.1152 53.7919 28.1756C53.7315 28.1756 53.6711 28.236 53.6711 28.236C53.5503 28.2964 53.5503 28.4776 53.7315 28.5984C54.2752 28.84 54.8188 28.84 55.4228 28.84C56.0873 28.7796 56.6913 28.7796 57.2954 28.9004C58.6847 29.0816 59.9532 29.6253 61.2821 30.0481C63.6982 30.8334 66.1144 31.377 68.6514 31.679C70.6447 31.9206 72.6985 32.0414 74.6918 32.0414C73.3025 31.7394 72.034 31.4374 70.7655 31.075Z" fill="#104972"/>
<path d="M67.3228 31.1958C66.8999 31.075 66.4167 30.9541 65.9939 30.8333C65.269 30.5917 63.5777 30.4709 63.5173 29.444C63.4569 28.7796 63.9401 27.9943 64.3026 27.4507C65.2086 26.303 66.4771 25.3969 67.7456 24.7325C69.2557 23.9472 70.947 23.6452 72.578 23.2828C73.6048 23.0412 74.6921 22.86 75.7794 22.6183C75.9002 22.6183 75.9606 22.5579 76.0814 22.5579C75.1149 22.5579 74.2089 22.6183 73.3028 22.7392C70.8262 22.9808 68.3497 23.3432 65.8731 23.8264C64.6046 24.0681 63.4569 24.4305 62.128 24.2493C61.2823 24.1285 59.9534 23.8264 59.893 22.7392C59.8326 22.3767 59.9534 22.0143 60.1951 21.7123C58.685 23.5848 57.5373 25.6386 55.5439 27.0883C55.0003 27.5111 54.3962 27.8131 53.7922 28.0547C53.6714 28.1151 53.6714 28.1755 53.7318 28.236C53.6714 28.236 53.611 28.2964 53.611 28.2964C53.4902 28.3568 53.4902 28.538 53.6714 28.6588C54.215 28.9004 54.7587 28.9004 55.3627 28.9004C56.0272 28.84 56.6312 28.84 57.2353 28.9608C58.6246 29.142 59.893 29.6857 61.2219 30.1085C63.6381 30.8937 66.0543 31.4374 68.5913 31.7394C69.0141 31.7998 69.4973 31.8602 69.9806 31.9206C69.0141 31.6186 68.1684 31.377 67.3228 31.1958Z" fill="#0D2A3E"/>
<path d="M115.465 21.2894C112.989 20.2022 110.391 19.4169 107.733 18.8733C100.666 17.3632 93.2968 17.484 86.2899 19.2961C80.3098 20.8666 74.3902 22.4371 68.4102 23.9472C68.3498 23.9472 68.229 24.0076 68.1685 24.0076C67.5041 24.1889 66.8396 24.3701 66.2356 24.4909C65.5712 24.6721 64.9067 24.8533 64.3027 24.9741C63.6382 25.1553 62.9738 25.3365 62.3697 25.4574C61.7053 25.6386 61.0408 25.8198 60.4368 25.9406C59.8327 26.0614 59.1079 26.303 58.5038 26.4238C57.8998 26.5446 57.175 26.7862 56.5105 26.9071C55.8461 27.0883 55.1816 27.2695 54.5172 27.3903C53.8527 27.5111 53.1883 27.7527 52.5238 27.8735C51.8594 27.9943 51.1949 28.2359 50.5305 28.3568C49.866 28.538 49.2016 28.7192 48.5371 28.84C48.2351 28.9004 47.8727 29.0212 47.5707 29.0816C47.3894 29.142 47.2686 29.142 47.0874 29.2024H47.027C47.027 29.2024 47.027 29.2024 46.9666 29.2024C46.9666 29.2024 46.9666 29.2024 46.9666 29.2628V29.3232C47.027 29.444 47.0874 29.5648 47.1478 29.7461C47.2082 29.8065 47.2082 29.9273 47.2686 29.9877C47.2686 29.9877 47.2686 29.9877 47.2686 30.0481L47.329 30.1085C47.329 30.1689 47.3894 30.2293 47.4499 30.2897C47.4499 30.2897 47.4498 30.3501 47.5103 30.3501C47.5103 30.3501 47.5103 30.3501 47.5707 30.3501H47.6311H47.6915C47.7519 30.3501 47.8123 30.3501 47.8123 30.2897C48.2351 30.1689 48.5975 30.1085 49.0204 29.9877C49.4432 29.8669 49.866 29.7461 50.2285 29.6857C50.6513 29.5648 51.0741 29.444 51.4969 29.3836C51.9198 29.2628 52.3426 29.142 52.8258 29.0212C53.2487 28.9004 53.7319 28.7796 54.1547 28.6588C54.638 28.538 55.0608 28.4172 55.544 28.2964C56.0273 28.1755 56.4501 28.0547 56.9333 27.9339C57.4166 27.8131 57.8394 27.6923 58.3226 27.5715C58.8059 27.4507 59.2287 27.3299 59.7119 27.2091C60.1952 27.0883 60.618 26.9675 61.1012 26.8466C61.5845 26.7258 62.0073 26.605 62.4905 26.4842C62.9738 26.3634 63.3966 26.2426 63.8798 26.1218C64.3631 26.001 64.7859 25.8802 65.2691 25.7594C65.692 25.6386 66.1752 25.5178 66.598 25.3969C67.0209 25.2761 67.5041 25.1553 67.9269 25.0345C68.3498 24.9137 68.7726 24.7929 69.1954 24.6721C69.6182 24.5513 70.0411 24.4305 70.4639 24.3701C70.8867 24.2493 71.2492 24.1285 71.672 24.068C72.0344 23.9472 72.4573 23.8868 72.8197 23.766C73.1821 23.6452 73.5445 23.5848 73.907 23.464C74.2694 23.3432 74.6318 23.2828 74.9338 23.162C75.2359 23.1016 75.5983 22.9808 75.9003 22.9204C76.2023 22.86 76.5043 22.7392 76.8064 22.6787C77.1084 22.6183 77.35 22.5579 77.652 22.4371C77.8936 22.3767 78.1353 22.3163 78.4373 22.2559C78.6789 22.1955 78.9205 22.1351 79.1017 22.0747C79.2829 22.0143 79.5246 21.9539 79.7058 21.8935C79.887 21.8331 80.0078 21.8331 80.189 21.7727C80.3098 21.7123 80.4306 21.7123 80.6118 21.6519C80.7327 21.6519 80.7931 21.5915 80.9139 21.5915C80.9743 21.5915 81.0347 21.5311 81.0951 21.5311H81.1555C90.8806 18.9337 100.908 17.3028 110.814 19.7793C113.895 20.5646 116.915 21.6519 119.754 23.1016C119.875 23.162 120.056 23.2224 120.177 23.2828C118.606 22.7392 117.036 22.0143 115.465 21.2894Z" fill="#029F97"/>
<path d="M88.5854 19.5378C86.4108 19.9606 84.2967 20.6251 82.1221 21.1687C79.8872 21.7727 77.7126 22.256 75.4776 22.7996C71.0077 23.8869 66.5378 24.9742 62.0679 26.1823C57.5979 27.3299 53.128 28.538 48.7185 29.8065C48.6581 29.8065 48.5977 29.8669 48.4769 29.8669C48.4165 29.8669 48.2957 29.9273 48.2353 29.9273C48.0541 29.9877 47.9333 29.9877 47.752 30.0481C47.5708 30.1085 47.45 30.1085 47.2688 30.1689C47.2084 30.1689 47.2084 30.1689 47.148 30.2293C47.148 30.2293 47.148 30.2293 47.0876 30.2293C47.0876 30.2293 47.0876 30.2294 47.0876 30.2898C47.0876 30.2898 47.0876 30.2898 47.0876 30.3502C47.0876 30.4106 47.148 30.4106 47.148 30.471C47.2084 30.5314 47.2084 30.5918 47.2688 30.7126H47.3292H47.3896C50.2286 29.9877 53.0676 29.2629 55.8462 28.538C58.6852 27.8132 61.5846 27.0279 64.4236 26.3031C64.6653 26.3031 64.9673 26.1823 65.2089 26.1219C65.5109 26.0614 65.7525 26.001 66.0546 25.8802C66.5982 25.7594 67.1418 25.5782 67.7459 25.4574C70.5849 24.7326 73.3635 23.9473 76.2025 23.2224C79.0415 22.4976 81.8201 21.7123 84.6591 21.0479C87.4981 20.3834 90.3371 19.8398 93.2365 19.4774C93.9614 19.3566 94.6862 19.2962 95.4111 19.2358C93.2365 18.9941 90.9412 19.1149 88.5854 19.5378Z" fill="#0D2A3E"/>
<path d="M35.6446 2.71051V8.33508H34.9635V3.42457H34.9305L33.5573 4.33636V3.64428L34.9635 2.71051H35.6446Z" fill="white"/>
<path d="M33.0555 14.1944V13.7L34.912 11.6677C35.1299 11.4297 35.3094 11.2228 35.4503 11.0471C35.5913 10.8695 35.6957 10.7028 35.7634 10.5472C35.833 10.3898 35.8678 10.225 35.8678 10.0529C35.8678 9.85513 35.8202 9.68394 35.725 9.53929C35.6316 9.39465 35.5034 9.28297 35.3405 9.20424C35.1775 9.12551 34.9944 9.08614 34.7912 9.08614C34.5752 9.08614 34.3866 9.131 34.2255 9.22071C34.0662 9.3086 33.9426 9.43218 33.8547 9.59147C33.7686 9.75076 33.7256 9.93752 33.7256 10.1517H33.0775C33.0775 9.82217 33.1535 9.53289 33.3054 9.28388C33.4574 9.03488 33.6643 8.8408 33.9261 8.70165C34.1898 8.5625 34.4854 8.49293 34.8132 8.49293C35.1427 8.49293 35.4348 8.5625 35.6893 8.70165C35.9438 8.8408 36.1433 9.02847 36.288 9.26466C36.4326 9.50084 36.5049 9.76358 36.5049 10.0529C36.5049 10.2598 36.4674 10.4621 36.3923 10.6598C36.3191 10.8557 36.1909 11.0745 36.0078 11.3162C35.8266 11.556 35.5748 11.849 35.2526 12.195L33.9893 13.5463V13.5902H36.6038V14.1944H33.0555Z" fill="#D82416"/>
<path d="M35.0781 20.1304C34.7156 20.1304 34.3924 20.0681 34.1086 19.9436C33.8267 19.8191 33.6024 19.6461 33.4358 19.4245C33.271 19.2012 33.1813 18.9421 33.1666 18.6473H33.8587C33.8734 18.8286 33.9356 18.9851 34.0455 19.117C34.1553 19.2469 34.2991 19.3476 34.4767 19.4191C34.6543 19.4905 34.8511 19.5262 35.0671 19.5262C35.3088 19.5262 35.523 19.4841 35.7098 19.3998C35.8965 19.3156 36.043 19.1984 36.1492 19.0483C36.2554 18.8982 36.3085 18.7242 36.3085 18.5265C36.3085 18.3196 36.2572 18.1374 36.1547 17.98C36.0522 17.8207 35.902 17.6962 35.7043 17.6064C35.5066 17.5167 35.2649 17.4719 34.9793 17.4719H34.5288V16.8677H34.9793C35.2026 16.8677 35.3985 16.8274 35.567 16.7468C35.7372 16.6663 35.87 16.5528 35.9652 16.4063C36.0622 16.2598 36.1108 16.0877 36.1108 15.89C36.1108 15.6995 36.0686 15.5339 35.9844 15.3929C35.9002 15.2519 35.7812 15.142 35.6274 15.0633C35.4754 14.9846 35.296 14.9452 35.0891 14.9452C34.895 14.9452 34.7119 14.9809 34.5398 15.0523C34.3696 15.1219 34.2304 15.2235 34.1224 15.3572C34.0144 15.489 33.9558 15.6483 33.9466 15.835H33.2875C33.2985 15.5403 33.3873 15.2821 33.5539 15.0606C33.7205 14.8372 33.9384 14.6633 34.2075 14.5387C34.4785 14.4142 34.776 14.352 35.1001 14.352C35.448 14.352 35.7464 14.4225 35.9954 14.5635C36.2444 14.7026 36.4357 14.8866 36.5694 15.1155C36.7031 15.3444 36.7699 15.5915 36.7699 15.857C36.7699 16.1738 36.6866 16.4438 36.52 16.6672C36.3552 16.8906 36.1309 17.0453 35.8471 17.1313V17.1753C36.2023 17.2339 36.4797 17.3849 36.6793 17.6284C36.8788 17.8701 36.9786 18.1695 36.9786 18.5265C36.9786 18.8322 36.8953 19.1069 36.7287 19.3504C36.5639 19.5921 36.3387 19.7825 36.0531 19.9216C35.7675 20.0608 35.4425 20.1304 35.0781 20.1304Z" fill="white"/>
<path d="M32.985 24.7593V24.199L35.4567 20.2882H35.8632V21.1561H35.5886L33.721 24.1112V24.1551H37.0496V24.7593H32.985ZM35.6325 25.9128V24.589V24.3281V20.2882H36.2807V25.9128H35.6325Z" fill="#D82416"/>
<path d="M34.9353 31.8487C34.6131 31.8487 34.3229 31.7847 34.0647 31.6565C33.8065 31.5283 33.5997 31.3526 33.444 31.1292C33.2884 30.9058 33.2033 30.6513 33.1886 30.3657H33.8477C33.8734 30.6202 33.9887 30.8308 34.1938 30.9974C34.4007 31.1622 34.6479 31.2445 34.9353 31.2445C35.166 31.2445 35.3711 31.1905 35.5505 31.0825C35.7318 30.9745 35.8737 30.8262 35.9762 30.6376C36.0805 30.4472 36.1327 30.2321 36.1327 29.9922C36.1327 29.7469 36.0787 29.5281 35.9707 29.3358C35.8645 29.1417 35.718 28.9889 35.5313 28.8772C35.3445 28.7655 35.1312 28.7087 34.8914 28.7069C34.7193 28.7051 34.5426 28.7316 34.3613 28.7865C34.1801 28.8396 34.0308 28.9083 33.9137 28.9925L33.2765 28.9156L33.617 26.1473H36.5392V26.7515H34.1883L33.9906 28.4103H34.0235C34.1389 28.3187 34.2835 28.2428 34.4574 28.1823C34.6314 28.1219 34.8126 28.0917 35.0012 28.0917C35.3454 28.0917 35.6521 28.1741 35.9213 28.3389C36.1922 28.5018 36.4046 28.7252 36.5584 29.009C36.714 29.2928 36.7919 29.6169 36.7919 29.9812C36.7919 30.3401 36.7113 30.6605 36.5502 30.9424C36.3909 31.2226 36.1712 31.4441 35.891 31.6071C35.6109 31.7682 35.2923 31.8487 34.9353 31.8487Z" fill="white"/>
</svg>
