<svg width="109" height="109" viewBox="0 0 109 109" fill="none" xmlns="http://www.w3.org/2000/svg">
<g clip-path="url(#clip0_1_2425)">
<mask id="mask0_1_2425" style="mask-type:alpha" maskUnits="userSpaceOnUse" x="0" y="0" width="109" height="109">
<path d="M54.1118 108.148C83.9352 108.148 108.112 83.9713 108.112 54.1479C108.112 24.3246 83.9352 0.147949 54.1118 0.147949C24.2884 0.147949 0.111816 24.3246 0.111816 54.1479C0.111816 83.9713 24.2884 108.148 54.1118 108.148Z" fill="#D9D9D9"/>
</mask>
<g mask="url(#mask0_1_2425)">
<mask id="mask1_1_2425" style="mask-type:luminance" maskUnits="userSpaceOnUse" x="-17" y="-22" width="400" height="283">
<path d="M382.323 -21.6415H-16.4671V260.333H382.323V-21.6415Z" fill="white"/>
</mask>
<g mask="url(#mask1_1_2425)">
<path fill-rule="evenodd" clip-rule="evenodd" d="M54.1592 -4.61261C86.4692 -4.61261 112.659 21.5774 112.659 53.8874C112.659 86.1974 86.4692 112.387 54.1592 112.387C21.8492 112.387 -4.34076 86.1974 -4.34076 53.8874C-4.34076 21.5774 21.854 -4.61261 54.1592 -4.61261Z" fill="white"/>
</g>
<mask id="mask2_1_2425" style="mask-type:luminance" maskUnits="userSpaceOnUse" x="-17" y="-22" width="400" height="283">
<path d="M382.323 -21.6415H-16.4671V260.333H382.323V-21.6415Z" fill="white"/>
</mask>
<g mask="url(#mask2_1_2425)">
<path fill-rule="evenodd" clip-rule="evenodd" d="M41.4787 21.5632L87.8571 23.4579L87.6487 69.2916H40.6687L41.4787 21.5632Z" fill="#C1D0DA"/>
</g>
<mask id="mask3_1_2425" style="mask-type:luminance" maskUnits="userSpaceOnUse" x="-17" y="-22" width="400" height="283">
<path d="M382.323 -21.6415H-16.4671V260.333H382.323V-21.6415Z" fill="white"/>
</mask>
<g mask="url(#mask3_1_2425)">
<path d="M88.1223 21.2932H41.1424V67.1316H88.1223V21.2932Z" fill="#EBC8DE"/>
</g>
<mask id="mask4_1_2425" style="mask-type:luminance" maskUnits="userSpaceOnUse" x="-17" y="-22" width="400" height="283">
<path d="M382.323 -21.6415H-16.4671V260.333H382.323V-21.6415Z" fill="white"/>
</mask>
<g mask="url(#mask4_1_2425)">
<path fill-rule="evenodd" clip-rule="evenodd" d="M12.2902 53.2384L54.0929 38.9711L70.3307 81.2569L26.9934 97.8974L12.2902 53.2384Z" fill="#C1D0DA"/>
</g>
<mask id="mask5_1_2425" style="mask-type:luminance" maskUnits="userSpaceOnUse" x="-44" y="-138" width="474" height="407">
<path d="M328.343 -137.975L-43.9274 4.99162L57.1604 268.215L429.431 125.249L328.343 -137.975Z" fill="white"/>
</mask>
<g mask="url(#mask5_1_2425)">
<path d="M55.1771 36.2628L11.8386 52.9064L28.0781 95.1927L71.4164 78.5488L55.1771 36.2628Z" fill="#F6DD87"/>
</g>
<mask id="mask6_1_2425" style="mask-type:luminance" maskUnits="userSpaceOnUse" x="-17" y="-22" width="400" height="283">
<path d="M382.323 -21.6415H-16.4671V260.333H382.323V-21.6415Z" fill="white"/>
</mask>
<g mask="url(#mask6_1_2425)">
<path fill-rule="evenodd" clip-rule="evenodd" d="M19.5471 85.4632C20.2055 85.7948 21.6787 86.5195 22.3276 86.4816C22.8487 86.4532 23.6492 85.809 24.445 85.7758C25.1887 85.7427 26.1976 85.9274 26.9698 85.97C31.9103 86.2448 34.3213 86.3395 37.1492 81.4511C39.2808 77.7658 39.4371 73.9669 37.8882 71.5132C35.4392 67.6337 31.7919 66.8758 32.9903 64.0242C33.7529 62.21 35.4961 62.5321 37.1966 62.4563C38.7692 62.39 40.6166 62.3332 41.815 61.869C45.1782 60.5711 47.0492 57.4021 47.7455 53.7832C48.5413 49.6432 47.7739 47.7911 44.8608 45.309C44.0129 44.589 41.5166 42.8032 41.0003 42.1495C39.7592 40.5911 41.5829 40.6195 37.225 39.2505C34.0987 44.2195 31.5124 51.2063 31.0955 57.2316C30.9676 59.0553 30.8824 61.2532 30.1576 63.0958C29.3997 65.0284 28.1019 66.5063 26.9082 68.0316C23.9003 71.8732 19.1966 82.0053 19.5471 85.4632ZM40.9766 44.21C45.2492 46.55 47.5702 49.0605 46.4998 53.7832C45.2776 59.1927 42.2129 61.149 38.0398 61.2248C35.6666 61.2674 33.3076 60.3911 32.834 58.43C32.0903 55.3653 33.895 48.5727 35.7329 45.5695C36.9882 43.5232 38.5798 42.8979 40.9766 44.21ZM22.915 78.4574C23.9097 75.0516 27.2303 68.6758 29.954 67.8611C33.4261 66.8237 41.5355 73.5784 35.3966 81.9437C34.0419 83.7911 32.6729 84.5063 30.7355 84.7669C29.2198 84.9705 25.904 84.6248 24.2745 83.8432C22.0387 82.7774 22.2282 80.7974 22.915 78.4574Z" fill="#1D2F58"/>
</g>
<mask id="mask7_1_2425" style="mask-type:luminance" maskUnits="userSpaceOnUse" x="-17" y="-22" width="400" height="283">
<path d="M382.323 -21.6415H-16.4671V260.333H382.323V-21.6415Z" fill="white"/>
</mask>
<g mask="url(#mask7_1_2425)">
<path fill-rule="evenodd" clip-rule="evenodd" d="M47.3997 69.9595C46.4666 70.0258 44.9839 70.8027 44.3302 71.9537C42.4024 75.3548 46.0592 79.5848 46.4287 82.7727C46.5802 84.0658 46.2439 85.7711 45.1781 86.6237C41.9713 89.1911 39.3897 84.2979 41.7155 82.9906C42.3076 82.659 43.1981 82.91 43.5676 83.4548C43.9134 83.9664 43.7192 84.6721 43.3971 85.4253C44.9413 84.2979 44.2545 82.1048 42.2413 81.8348C39.4655 81.4606 37.6181 86.6711 42.0092 88.9211C46.926 91.4411 53.6666 84.5016 53.3113 75.8758C53.2545 74.4737 52.776 72.489 51.985 71.7264L54.055 70.7837C61.0181 66.3927 62.5434 54.0058 56.3381 52.149C51.7008 50.7611 49.4318 55.5264 51.3834 57.3406C52.9229 58.7711 54.8697 57.8237 54.9313 55.6258C54.5192 56.2322 54.3818 56.9616 53.695 57.1606C52.4208 57.53 51.0566 55.9858 52.6529 54.29C55.0071 51.7843 59.4313 55.8627 55.3671 59.6143C54.3676 60.5332 53.1976 60.9406 52.2124 61.3953C49.4934 62.6458 44.7376 64.8674 47.0066 69.1495C47.106 69.3343 47.1108 69.3106 47.2197 69.5237L47.3618 69.8364C47.3239 69.8506 47.3855 69.9216 47.3997 69.9595Z" fill="#C35918"/>
</g>
<mask id="mask8_1_2425" style="mask-type:luminance" maskUnits="userSpaceOnUse" x="-17" y="-22" width="400" height="283">
<path d="M382.323 -21.6415H-16.4671V260.333H382.323V-21.6415Z" fill="white"/>
</mask>
<g mask="url(#mask8_1_2425)">
<path fill-rule="evenodd" clip-rule="evenodd" d="M47.3997 69.9595C46.4666 70.0258 44.9839 70.8027 44.3302 71.9537C42.4024 75.3548 46.0592 79.5848 46.4287 82.7727C46.5802 84.0658 46.2439 85.7711 45.1781 86.6237C41.976 89.1911 39.3897 84.2979 41.7155 82.9906C42.3076 82.659 43.1981 82.91 43.5676 83.4548C43.9134 83.9664 43.7192 84.6721 43.3971 85.4253C44.9413 84.2979 44.2545 82.1048 42.2413 81.8348C39.4655 81.4606 37.6181 86.6711 42.0092 88.9211C46.926 91.4411 53.6666 84.5016 53.3113 75.8758C53.2545 74.4737 52.776 72.489 51.985 71.7264L54.055 70.7837C61.0181 66.3927 62.5434 54.0058 56.3381 52.149C51.7008 50.7611 49.4318 55.5264 51.3834 57.3406C52.9229 58.7711 54.8697 57.8237 54.9313 55.6258C54.5192 56.2322 54.3818 56.9616 53.695 57.1606C52.4208 57.53 51.0566 55.9858 52.6529 54.29C55.0071 51.7843 59.4313 55.8627 55.3671 59.6143C54.3676 60.5332 53.1976 60.9406 52.2124 61.3953C49.4934 62.6458 44.7376 64.8674 47.0066 69.1543C47.106 69.339 47.1108 69.3153 47.2197 69.5285L47.3618 69.8411C47.3239 69.8506 47.3855 69.9216 47.3997 69.9595Z" fill="#2E2E2D"/>
</g>
<mask id="mask9_1_2425" style="mask-type:luminance" maskUnits="userSpaceOnUse" x="-17" y="-22" width="400" height="283">
<path d="M382.323 -21.6415H-16.4671V260.333H382.323V-21.6415Z" fill="white"/>
</mask>
<g mask="url(#mask9_1_2425)">
<path fill-rule="evenodd" clip-rule="evenodd" d="M18.5713 85.2643C19.2297 85.5958 20.7029 86.3206 21.3518 86.2827C21.8729 86.2543 22.6734 85.6101 23.4692 85.5769C24.2129 85.5437 25.2218 85.7285 25.9939 85.7711C30.9344 86.0458 33.3455 86.1406 36.1734 81.2522C38.305 77.5669 38.4613 73.768 36.9123 71.3143C34.4634 67.4348 30.816 66.6769 32.0144 63.8253C32.7771 62.0111 34.5202 62.3332 36.2208 62.2574C37.7934 62.1911 39.6408 62.1343 40.8392 61.6701C44.2023 60.3722 46.0734 57.2032 46.7697 53.5843C47.5655 49.4443 46.7981 47.5922 43.885 45.1101C43.0371 44.3901 40.5408 42.6043 40.0244 41.9506C38.7834 40.3922 40.6071 40.4206 36.2492 39.0516C33.1229 44.0206 30.5366 51.0074 30.1197 57.0327C29.9918 58.8564 29.9066 61.0543 29.1818 62.8969C28.4239 64.8295 27.126 66.3074 25.9323 67.8327C22.9244 71.6743 18.2208 81.8064 18.5713 85.2643ZM40.0008 44.0111C44.2734 46.3511 46.5944 48.8616 45.5239 53.5843C44.3018 58.9937 41.2371 60.9501 37.0639 61.0258C34.686 61.0685 32.3318 60.1922 31.8581 58.2311C31.1144 55.1664 32.9192 48.3737 34.7571 45.3706C36.0123 43.3195 37.6039 42.699 40.0008 44.0111ZM21.9392 78.2585C22.9339 74.8527 26.2544 68.4769 28.9781 67.6622C32.4502 66.6248 40.5597 73.3795 34.4208 81.7448C33.066 83.5922 31.6971 84.3074 29.7597 84.5727C28.2439 84.7764 24.9281 84.4306 23.2987 83.649C21.0629 82.5737 21.2523 80.5985 21.9392 78.2585Z" fill="#345CBD"/>
</g>
<mask id="mask10_1_2425" style="mask-type:luminance" maskUnits="userSpaceOnUse" x="-17" y="-22" width="400" height="283">
<path d="M382.323 -21.6415H-16.4671V260.333H382.323V-21.6415Z" fill="white"/>
</mask>
<g mask="url(#mask10_1_2425)">
<path fill-rule="evenodd" clip-rule="evenodd" d="M31.1524 34.58L29.8876 35.66L37.5329 44.3805C38.0634 44.3237 38.054 44.1484 38.1297 43.8926L31.1524 34.58Z" fill="#92A6B2"/>
</g>
<mask id="mask11_1_2425" style="mask-type:luminance" maskUnits="userSpaceOnUse" x="-17" y="-22" width="400" height="283">
<path d="M382.323 -21.6415H-16.4671V260.333H382.323V-21.6415Z" fill="white"/>
</mask>
<g mask="url(#mask11_1_2425)">
<path fill-rule="evenodd" clip-rule="evenodd" d="M37.9118 44.2101C37.9923 44.1058 38.0397 43.9969 38.0681 43.8927L35.6334 40.5153L35.3965 40.6858L37.9118 44.2101Z" fill="#FEFEFE"/>
</g>
<mask id="mask12_1_2425" style="mask-type:luminance" maskUnits="userSpaceOnUse" x="-17" y="-22" width="400" height="283">
<path d="M382.323 -21.6415H-16.4671V260.333H382.323V-21.6415Z" fill="white"/>
</mask>
<g mask="url(#mask12_1_2425)">
<path fill-rule="evenodd" clip-rule="evenodd" d="M31.1524 34.58L29.8876 35.66L35.0461 41.5716C35.3587 41.2448 35.5197 40.7995 35.605 40.4348L31.1524 34.58Z" fill="#66717A"/>
</g>
<mask id="mask13_1_2425" style="mask-type:luminance" maskUnits="userSpaceOnUse" x="-17" y="-22" width="400" height="283">
<path d="M382.323 -21.6415H-16.4671V260.333H382.323V-21.6415Z" fill="white"/>
</mask>
<g mask="url(#mask13_1_2425)">
<path fill-rule="evenodd" clip-rule="evenodd" d="M29.9065 34.7458C27.9502 36.3327 26.7328 38.0095 27.5854 40.1079C27.7702 40.5579 28.0212 40.9843 28.3386 41.3774C28.4997 41.5764 28.6749 41.7564 28.8549 41.9222C30.5602 42.7322 32.9854 42.3248 34.9276 40.7379C36.8697 39.1511 37.7554 36.83 37.3054 34.9969C37.1775 34.7837 37.2012 34.9306 36.8744 34.4095C36.6139 33.9974 36.2207 33.699 35.8323 33.4337C33.9754 32.1643 31.8675 33.1543 29.9065 34.7458Z" fill="#A52954"/>
</g>
<mask id="mask14_1_2425" style="mask-type:luminance" maskUnits="userSpaceOnUse" x="-17" y="-22" width="400" height="283">
<path d="M382.323 -21.6415H-16.4671V260.333H382.323V-21.6415Z" fill="white"/>
</mask>
<g mask="url(#mask14_1_2425)">
<path fill-rule="evenodd" clip-rule="evenodd" d="M27.4718 39.7905C27.6565 40.3542 27.9455 40.8942 28.3386 41.3774C28.4997 41.5763 28.675 41.7563 28.8597 41.9221C29.9823 42.4527 31.4129 42.4574 32.815 41.9505C32.4076 41.169 31.9576 40.1648 31.7729 39.2032C31.3892 37.2374 32.1471 35.6458 32.1471 35.6458C30.9155 36.1669 30.1813 36.0295 28.5613 37.0053C27.8271 37.4458 27.5523 38.6253 27.4718 39.7905Z" fill="#953955"/>
</g>
<mask id="mask15_1_2425" style="mask-type:luminance" maskUnits="userSpaceOnUse" x="-17" y="-22" width="400" height="283">
<path d="M382.323 -21.6415H-16.4671V260.333H382.323V-21.6415Z" fill="white"/>
</mask>
<g mask="url(#mask15_1_2425)">
<path fill-rule="evenodd" clip-rule="evenodd" d="M29.2482 34.1348C27.2066 35.8211 26.7377 37.9953 27.5808 40.0937C31.3987 41.0932 36.074 37.4222 35.7708 33.4101C33.8903 32.1643 31.2898 32.4532 29.2482 34.1348Z" fill="#CA487E"/>
</g>
<mask id="mask16_1_2425" style="mask-type:luminance" maskUnits="userSpaceOnUse" x="-17" y="-22" width="400" height="283">
<path d="M382.323 -21.6415H-16.4671V260.333H382.323V-21.6415Z" fill="white"/>
</mask>
<g mask="url(#mask16_1_2425)">
<path fill-rule="evenodd" clip-rule="evenodd" d="M27.4718 39.7906C27.505 39.8948 27.5429 39.9943 27.5808 40.0937C28.9829 40.4632 30.4939 40.1979 31.8392 39.5253C31.8108 39.4211 31.7871 39.3122 31.7681 39.2079C31.3844 37.2422 32.1423 35.6506 32.1423 35.6506C30.9108 36.1716 30.1765 36.0343 28.5565 37.01C27.8271 37.4458 27.5523 38.6206 27.4718 39.7906Z" fill="#AF3D62"/>
</g>
<mask id="mask17_1_2425" style="mask-type:luminance" maskUnits="userSpaceOnUse" x="-17" y="-22" width="400" height="283">
<path d="M382.323 -21.6415H-16.4671V260.333H382.323V-21.6415Z" fill="white"/>
</mask>
<g mask="url(#mask17_1_2425)">
<path fill-rule="evenodd" clip-rule="evenodd" d="M26.9081 29.7058L25.7239 30.6722C25.2028 31.0985 25.2597 31.9227 25.7191 32.6001L28.6655 36.9343C29.9112 38.7674 33.9091 35.3285 32.4597 33.8364L28.8028 30.0801C28.2297 29.4974 27.4291 29.2795 26.9081 29.7058Z" fill="#C13A6E"/>
</g>
<mask id="mask18_1_2425" style="mask-type:luminance" maskUnits="userSpaceOnUse" x="-17" y="-22" width="400" height="283">
<path d="M382.323 -21.6415H-16.4671V260.333H382.323V-21.6415Z" fill="white"/>
</mask>
<g mask="url(#mask18_1_2425)">
<path fill-rule="evenodd" clip-rule="evenodd" d="M32.2987 35.5037C32.5213 35.1106 32.6302 34.7079 32.5639 34.3479L30.2381 32.0316L30.0818 32.5669L32.2987 35.5037Z" fill="#D88BB1"/>
</g>
<mask id="mask19_1_2425" style="mask-type:luminance" maskUnits="userSpaceOnUse" x="-17" y="-22" width="400" height="283">
<path d="M382.323 -21.6415H-16.4671V260.333H382.323V-21.6415Z" fill="white"/>
</mask>
<g mask="url(#mask19_1_2425)">
<path fill-rule="evenodd" clip-rule="evenodd" d="M30.1244 31.4442C29.9255 32.0411 29.8639 32.5148 28.9686 33.789C28.6465 34.2532 29.9207 35.9774 30.5602 37.2706C30.4323 37.2706 29.2812 37.8437 28.6655 36.9343L25.7191 32.6C25.2597 31.9227 25.2028 31.0937 25.7239 30.6721L26.9081 29.7058C27.4291 29.2795 28.2297 29.5021 28.7981 30.0895L30.1244 31.4442Z" fill="#953955"/>
</g>
<mask id="mask20_1_2425" style="mask-type:luminance" maskUnits="userSpaceOnUse" x="-17" y="-22" width="400" height="283">
<path d="M382.323 -21.6415H-16.4671V260.333H382.323V-21.6415Z" fill="white"/>
</mask>
<g mask="url(#mask20_1_2425)">
<path fill-rule="evenodd" clip-rule="evenodd" d="M25.3592 29.0142C23.7866 30.2979 23.2276 32.2116 24.1039 33.2869C24.985 34.3621 26.9697 34.1963 28.5376 32.9127C30.1102 31.629 30.6692 29.7153 29.7929 28.64C28.9166 27.5648 26.9318 27.7306 25.3592 29.0142Z" fill="#CA487E"/>
</g>
<mask id="mask21_1_2425" style="mask-type:luminance" maskUnits="userSpaceOnUse" x="-17" y="-22" width="400" height="283">
<path d="M382.323 -21.6415H-16.4671V260.333H382.323V-21.6415Z" fill="white"/>
</mask>
<g mask="url(#mask21_1_2425)">
<path fill-rule="evenodd" clip-rule="evenodd" d="M24.9612 28.5264C23.3886 29.8101 22.8297 31.719 23.706 32.799C24.587 33.8743 26.5718 33.7085 28.1397 32.4248C29.7123 31.1411 30.2712 29.2274 29.3949 28.1522C28.5186 27.0769 26.5339 27.2474 24.9612 28.5264Z" fill="#AF3D62"/>
</g>
<mask id="mask22_1_2425" style="mask-type:luminance" maskUnits="userSpaceOnUse" x="-17" y="-22" width="400" height="283">
<path d="M382.323 -21.6415H-16.4671V260.333H382.323V-21.6415Z" fill="white"/>
</mask>
<g mask="url(#mask22_1_2425)">
<path fill-rule="evenodd" clip-rule="evenodd" d="M34.975 34.3242C34.975 34.3242 35.9461 34.5847 36.0313 35.0537C36.1213 35.5226 35.965 36.5505 35.5103 36.8584C35.0603 37.1663 34.1982 35.9111 34.075 36.0437C33.9566 36.1811 34.8803 35.39 34.975 34.3242Z" fill="#D88BB1"/>
</g>
<mask id="mask23_1_2425" style="mask-type:luminance" maskUnits="userSpaceOnUse" x="-17" y="-22" width="400" height="283">
<path d="M382.323 -21.6415H-16.4671V260.333H382.323V-21.6415Z" fill="white"/>
</mask>
<g mask="url(#mask23_1_2425)">
<path fill-rule="evenodd" clip-rule="evenodd" d="M76.8629 52.8263C78.7718 51.9405 82.8692 52.2721 84.7213 53.2337C86.3508 54.0816 87.1371 54.9248 88.1981 56.4074C88.8802 57.3595 89.8418 59.3348 89.9602 60.4858L90.0313 61.1963L89.4155 61.5563C88.1223 62.319 84.8302 62.21 83.3571 61.8974C82.7129 61.76 82.0687 61.5327 81.4718 61.2484C79.9418 60.519 78.8144 59.3395 77.8718 57.9516C77.3034 57.1132 76.1665 54.7542 76.2187 53.7737L76.2518 53.1058L76.8629 52.8263ZM64.3055 30.7242C65.4518 31.0037 67.3087 32.3016 68.1565 33.14C69.4781 34.4379 70.1271 35.2811 70.7334 37.0432C71.3539 38.8432 71.136 43.5848 69.7718 45.0058L69.2318 45.5695L68.5166 45.2521C65.0776 43.7316 62.0839 40.8705 61.9276 36.8916C61.8708 35.4184 62.2308 32.1974 63.1876 31.0795L63.6329 30.5632L64.3055 30.7242ZM61.4397 24.2632L61.2218 24.4526C61.056 24.77 60.8381 25.0684 60.6297 25.3526C60.2887 25.8216 59.9571 26.2858 59.6444 26.7784C58.4555 28.6542 57.5744 30.7763 56.8544 32.8653C55.9166 35.589 54.9218 38.3079 55.8929 41.1784C56.3808 42.6184 57.4039 44.4421 58.5029 45.5079C59.2702 46.2516 61.4397 47.1137 62.4676 47.4595C63.1402 47.6821 63.8508 47.8195 64.5471 47.9663C66.5508 48.3879 70.3781 48.4827 71.8466 49.9511C72.9123 51.0169 72.9408 53.8684 72.9502 55.3321C72.9597 56.9379 72.8887 58.1316 73.1208 59.7469C73.2676 60.7842 73.855 63.0958 74.4187 63.9579C75.9202 66.2695 79.3781 68.2448 82.1681 68.1263C85.6071 67.9795 90.1544 67.0132 93.3139 65.6395C94.0529 65.3174 94.8392 64.7869 95.6255 64.5453L95.9523 64.2658C96.1039 63.9911 96.246 63.8063 96.2365 63.4369C96.2271 62.9821 96.1513 62.5274 96.0471 62.0869C95.2892 58.8184 94.1002 56.0237 91.6702 53.6553C90.4008 52.419 88.9181 51.3911 87.4355 50.42C85.5739 49.1979 83.6981 48.0232 81.8792 46.73C80.9034 46.0384 79.5108 45.1763 78.7292 44.2763C77.9334 43.3621 77.275 41.8084 76.7255 40.719C75.1197 37.5358 73.9781 31.8753 71.4723 29.4879C68.9665 27.1053 66.7971 25.6842 63.576 24.4384C62.2544 23.9269 62.4202 23.9932 61.4397 24.2632Z" fill="#792A40"/>
</g>
<mask id="mask24_1_2425" style="mask-type:luminance" maskUnits="userSpaceOnUse" x="-17" y="-22" width="400" height="283">
<path d="M382.323 -21.6415H-16.4671V260.333H382.323V-21.6415Z" fill="white"/>
</mask>
<g mask="url(#mask24_1_2425)">
<path fill-rule="evenodd" clip-rule="evenodd" d="M77.1092 51.7132C79.0181 50.8274 83.1155 51.159 84.9676 52.1206C86.5971 52.9685 87.3834 53.8116 88.4444 55.2943C89.1265 56.2464 90.0881 58.2216 90.2065 59.3727L90.2776 60.0832L89.6618 60.4432C88.3686 61.2058 85.0765 61.0969 83.6034 60.7843C82.9592 60.6469 82.315 60.4195 81.7181 60.1353C80.1881 59.4058 79.0608 58.2264 78.1181 56.8385C77.5497 56.0001 76.4129 53.6411 76.465 52.6606L76.4981 51.9927L77.1092 51.7132ZM64.5518 29.6158C65.6981 29.8953 67.555 31.1932 68.4029 32.0316C69.7244 33.3295 70.3734 34.1727 70.9797 35.9348C71.6002 37.7348 71.3823 42.4764 70.0181 43.8974L69.4781 44.4611L68.7629 44.1437C65.3239 42.6185 62.3302 39.7622 62.1739 35.7832C62.1171 34.3101 62.4771 31.089 63.4339 29.9711L63.8792 29.4548L64.5518 29.6158ZM61.686 23.1548L61.4681 23.3443C61.3023 23.6616 61.0844 23.9601 60.876 24.2443C60.535 24.7132 60.2034 25.1774 59.8908 25.6701C58.7018 27.5458 57.8208 29.668 57.1008 31.7569C56.1629 34.4806 55.1681 37.1995 56.1392 40.0701C56.6271 41.5101 57.6502 43.3337 58.7492 44.3995C59.5165 45.1432 61.686 46.0053 62.7139 46.3511C63.3865 46.5737 64.0971 46.7111 64.7934 46.8579C66.7971 47.2795 70.6244 47.3743 72.0929 48.8427C73.1587 49.9085 73.1871 52.7601 73.1965 54.2237C73.206 55.8295 73.135 57.0232 73.3671 58.6385C73.5139 59.6758 74.1013 61.9874 74.665 62.8495C76.1665 65.1611 79.6244 67.1364 82.4144 67.0179C85.8534 66.8711 90.4008 65.9048 93.5602 64.5311C94.2992 64.209 95.0855 63.6785 95.8718 63.4369L96.1987 63.1574C96.3502 62.8827 96.4923 62.6979 96.4829 62.3332C96.4734 61.8785 96.3976 61.4237 96.2934 60.9832C95.5355 57.7148 94.3465 54.9201 91.9165 52.5516C90.6471 51.3153 89.1644 50.2874 87.6818 49.3164C85.8202 48.0943 83.9444 46.9195 82.1255 45.6264C81.1497 44.9348 79.7571 44.0727 78.9755 43.1727C78.1797 42.2585 77.5213 40.7048 76.9718 39.6153C75.366 36.4322 74.2244 30.7716 71.7186 28.3843C69.2129 26.0016 67.0434 24.5806 63.8223 23.3348C62.5008 22.8185 62.6665 22.8848 61.686 23.1548Z" fill="#A52954"/>
</g>
<mask id="mask25_1_2425" style="mask-type:luminance" maskUnits="userSpaceOnUse" x="-17" y="-22" width="400" height="283">
<path d="M382.323 -21.6415H-16.4671V260.333H382.323V-21.6415Z" fill="white"/>
</mask>
<g mask="url(#mask25_1_2425)">
<path fill-rule="evenodd" clip-rule="evenodd" d="M76.8155 51.088C78.9234 50.1074 83.2386 50.4485 85.285 51.5095C87.0092 52.4048 87.8902 53.338 89.0081 54.8964C89.766 55.9574 90.7607 58.018 90.8934 59.3064L91.0118 60.4574L90.0171 61.0448C88.5439 61.9116 85.1192 61.8169 83.466 61.4616C82.765 61.3101 82.0734 61.0685 81.4292 60.7606C79.7855 59.9743 78.5681 58.719 77.5544 57.2269C76.8865 56.2464 75.7213 53.7927 75.7829 52.6274L75.8397 51.5427L76.8155 51.088ZM64.7176 28.9432C66.0013 29.2606 67.9434 30.6059 68.8908 31.5343C70.2739 32.8937 70.9939 33.8506 71.6381 35.7027C72.3487 37.7537 72.0834 42.7464 70.525 44.3664L69.6487 45.2806L68.4929 44.769C64.7981 43.1348 61.6623 40.0511 61.4965 35.8069C61.4302 34.1395 61.8234 30.8001 62.9223 29.5164L63.6423 28.678L64.7176 28.9432ZM62.0271 23.7706L62.0129 23.7801C61.8423 24.0832 61.6387 24.3627 61.435 24.6469C61.1034 25.1016 60.7765 25.5611 60.4734 26.0348C59.3081 27.868 58.4602 29.9285 57.7544 31.9795C56.8781 34.5232 55.8834 37.1616 56.7929 39.8474C57.2476 41.1974 58.2044 42.9074 59.2323 43.9022C59.9144 44.5606 62.0081 45.3848 62.9365 45.6927C63.5855 45.9106 64.2676 46.0385 64.9402 46.1806C67.1855 46.6495 70.9087 46.6732 72.5855 48.3548C73.8455 49.6148 73.8786 52.5232 73.8929 54.219C73.9023 55.6922 73.8455 57.0706 74.0539 58.5437C74.1913 59.4958 74.736 61.689 75.2476 62.4801C76.6165 64.588 79.8471 66.4448 82.3908 66.3358C85.825 66.189 90.1402 65.2748 93.295 63.9059C94.0623 63.5695 94.735 63.1053 95.5355 62.8306L95.6729 62.7122C95.7392 62.5985 95.8055 62.4801 95.8055 62.3522C95.796 61.9448 95.725 61.5374 95.635 61.1395C94.9102 58.0132 93.7829 55.318 91.4476 53.0443C90.2065 51.8364 88.7618 50.8416 87.3171 49.8895C85.4508 48.6627 83.5608 47.4785 81.7418 46.1853C80.6618 45.418 79.3402 44.6269 78.4734 43.6227C77.5876 42.5995 76.9813 41.1311 76.375 39.9232C74.8402 36.8774 73.6276 31.1364 71.2639 28.8816C68.8671 26.5985 66.6881 25.1727 63.595 23.979C63.4197 23.9127 62.7613 23.6332 62.5765 23.6427C62.4439 23.6427 62.2071 23.7137 62.0271 23.7706Z" fill="#2E2E2D"/>
</g>
<mask id="mask26_1_2425" style="mask-type:luminance" maskUnits="userSpaceOnUse" x="-17" y="-22" width="400" height="283">
<path d="M382.323 -21.6415H-16.4671V260.333H382.323V-21.6415Z" fill="white"/>
</mask>
<g mask="url(#mask26_1_2425)">
<path d="M76.8155 51.088C78.9234 50.1074 83.2386 50.4485 85.285 51.5095C87.0092 52.4048 87.8902 53.338 89.0081 54.8964C89.766 55.9574 90.7608 58.018 90.8934 59.3064L91.0118 60.4574L90.0171 61.0448C88.5439 61.9116 85.1192 61.8169 83.466 61.4616C82.765 61.3101 82.0734 61.0685 81.4292 60.7606C79.7855 59.9743 78.5681 58.719 77.5544 57.2269C76.8865 56.2464 75.7213 53.7927 75.7829 52.6274L75.8397 51.5427L76.8155 51.088ZM64.7176 28.9432C66.0013 29.2606 67.9434 30.6059 68.8908 31.5343C70.2739 32.8937 70.9939 33.8506 71.6381 35.7027C72.3487 37.7537 72.0834 42.7464 70.525 44.3664L69.6487 45.2806L68.4929 44.769C64.7981 43.1348 61.6623 40.0511 61.4965 35.8069C61.4302 34.1395 61.8234 30.8001 62.9223 29.5164L63.6423 28.678L64.7176 28.9432ZM62.0271 23.7706L62.0129 23.7801C61.8423 24.0832 61.6387 24.3627 61.435 24.6469C61.1034 25.1016 60.7765 25.5611 60.4734 26.0348C59.3081 27.868 58.4602 29.9285 57.7544 31.9795C56.8781 34.5232 55.8834 37.1616 56.7929 39.8474C57.2476 41.1974 58.2044 42.9074 59.2323 43.9022C59.9144 44.5606 62.0081 45.3848 62.9365 45.6927C63.5855 45.9106 64.2676 46.0385 64.9402 46.1806C67.1855 46.6495 70.9087 46.6732 72.5855 48.3548C73.8455 49.6148 73.8786 52.5232 73.8929 54.219C73.9023 55.6922 73.8455 57.0706 74.0539 58.5437C74.1913 59.4958 74.736 61.689 75.2476 62.4801C76.6165 64.588 79.8471 66.4448 82.3908 66.3358C85.825 66.189 90.1402 65.2748 93.295 63.9059C94.0623 63.5695 94.735 63.1053 95.5355 62.8306L95.6729 62.7122C95.7392 62.5985 95.8055 62.4801 95.8055 62.3522C95.796 61.9448 95.725 61.5374 95.635 61.1395C94.9102 58.0132 93.7829 55.318 91.4476 53.0443C90.2065 51.8364 88.7618 50.8416 87.3171 49.8895C85.4508 48.6627 83.5608 47.4785 81.7418 46.1853C80.6618 45.418 79.3402 44.6269 78.4734 43.6227C77.5876 42.5995 76.9813 41.1311 76.375 39.9232C74.8402 36.8774 73.6276 31.1364 71.2639 28.8816C68.8671 26.5985 66.6881 25.1727 63.595 23.979C63.4197 23.9127 62.7613 23.6332 62.5765 23.6427C62.4439 23.6427 62.2071 23.7137 62.0271 23.7706Z" stroke="#A52954" stroke-width="0.216" stroke-miterlimit="22.9256"/>
</g>
<mask id="mask27_1_2425" style="mask-type:luminance" maskUnits="userSpaceOnUse" x="-17" y="-22" width="400" height="283">
<path d="M382.323 -21.6415H-16.4671V260.333H382.323V-21.6415Z" fill="white"/>
</mask>
<g mask="url(#mask27_1_2425)">
<path fill-rule="evenodd" clip-rule="evenodd" d="M68.1281 27.6642C68.6776 28.1095 68.7581 28.91 68.3176 29.4595C67.8723 30.009 67.0718 30.0895 66.5223 29.649C65.9728 29.2037 65.8923 28.4032 66.3328 27.8537C66.7781 27.309 67.5834 27.2237 68.1281 27.6642Z" fill="#FFF389"/>
</g>
<mask id="mask28_1_2425" style="mask-type:luminance" maskUnits="userSpaceOnUse" x="-17" y="-22" width="400" height="283">
<path d="M382.323 -21.6415H-16.4671V260.333H382.323V-21.6415Z" fill="white"/>
</mask>
<g mask="url(#mask28_1_2425)">
<path fill-rule="evenodd" clip-rule="evenodd" d="M58.8581 33.3864C59.275 33.7227 59.3366 34.3337 59.0003 34.7506C58.6639 35.1674 58.0529 35.229 57.636 34.8927C57.2192 34.5564 57.1576 33.9453 57.4939 33.5285C57.8303 33.1164 58.4413 33.05 58.8581 33.3864Z" fill="#E4B4D0"/>
</g>
<mask id="mask29_1_2425" style="mask-type:luminance" maskUnits="userSpaceOnUse" x="-17" y="-22" width="400" height="283">
<path d="M382.323 -21.6415H-16.4671V260.333H382.323V-21.6415Z" fill="white"/>
</mask>
<g mask="url(#mask29_1_2425)">
<path fill-rule="evenodd" clip-rule="evenodd" d="M70.6387 28.6684C70.9371 28.91 70.9845 29.3506 70.7429 29.649C70.5013 29.9474 70.0608 29.9948 69.7624 29.7532C69.4639 29.5116 69.4166 29.0711 69.6582 28.7727C69.9045 28.4695 70.3403 28.4269 70.6387 28.6684Z" fill="#BDFFFF"/>
</g>
<mask id="mask30_1_2425" style="mask-type:luminance" maskUnits="userSpaceOnUse" x="-17" y="-22" width="400" height="283">
<path d="M382.323 -21.6415H-16.4671V260.333H382.323V-21.6415Z" fill="white"/>
</mask>
<g mask="url(#mask30_1_2425)">
<path fill-rule="evenodd" clip-rule="evenodd" d="M74.2529 40.1553C74.8734 40.6574 74.9681 41.5716 74.466 42.1922C73.9639 42.8127 73.0497 42.9074 72.4292 42.4053C71.8087 41.9032 71.7139 40.989 72.216 40.3685C72.7229 39.7479 73.6324 39.6532 74.2529 40.1553Z" fill="#6AB3FD"/>
</g>
<mask id="mask31_1_2425" style="mask-type:luminance" maskUnits="userSpaceOnUse" x="-17" y="-22" width="400" height="283">
<path d="M382.323 -21.6415H-16.4671V260.333H382.323V-21.6415Z" fill="white"/>
</mask>
<g mask="url(#mask31_1_2425)">
<path fill-rule="evenodd" clip-rule="evenodd" d="M73.945 37.4506C74.3097 37.749 74.3666 38.2843 74.0729 38.649C73.7745 39.0137 73.2392 39.0706 72.8745 38.7722C72.5097 38.4737 72.4529 37.9385 72.7513 37.5737C73.0497 37.209 73.5802 37.1522 73.945 37.4506Z" fill="#DBFF71"/>
</g>
<mask id="mask32_1_2425" style="mask-type:luminance" maskUnits="userSpaceOnUse" x="-17" y="-22" width="400" height="283">
<path d="M382.323 -21.6415H-16.4671V260.333H382.323V-21.6415Z" fill="white"/>
</mask>
<g mask="url(#mask32_1_2425)">
<path fill-rule="evenodd" clip-rule="evenodd" d="M81.2445 49.0605C81.4624 49.2358 81.4955 49.5532 81.3202 49.7711C81.145 49.989 80.8276 50.0221 80.6097 49.8469C80.3918 49.6716 80.3587 49.3542 80.5339 49.1363C80.7092 48.9184 81.0266 48.8853 81.2445 49.0605Z" fill="#BDFFFF"/>
</g>
<mask id="mask33_1_2425" style="mask-type:luminance" maskUnits="userSpaceOnUse" x="-17" y="-22" width="400" height="283">
<path d="M382.323 -21.6415H-16.4671V260.333H382.323V-21.6415Z" fill="white"/>
</mask>
<g mask="url(#mask33_1_2425)">
<path fill-rule="evenodd" clip-rule="evenodd" d="M83.4281 62.1863C83.9776 62.6316 84.0581 63.4321 83.6176 63.9816C83.1771 64.5311 82.3718 64.6116 81.8223 64.1711C81.2729 63.7258 81.1923 62.9253 81.6329 62.3758C82.0781 61.8263 82.8786 61.7411 83.4281 62.1863Z" fill="#A8CB44"/>
</g>
<mask id="mask34_1_2425" style="mask-type:luminance" maskUnits="userSpaceOnUse" x="-17" y="-22" width="400" height="283">
<path d="M382.323 -21.6415H-16.4671V260.333H382.323V-21.6415Z" fill="white"/>
</mask>
<g mask="url(#mask34_1_2425)">
<path fill-rule="evenodd" clip-rule="evenodd" d="M79.3165 62.5369C79.7239 62.5369 80.0508 62.8637 80.0508 63.2711C80.0508 63.6784 79.7239 64.0053 79.3165 64.0053C78.9092 64.0053 78.5823 63.6784 78.5823 63.2711C78.5823 62.8637 78.9092 62.5369 79.3165 62.5369Z" fill="#BDFFFF"/>
</g>
<mask id="mask35_1_2425" style="mask-type:luminance" maskUnits="userSpaceOnUse" x="-17" y="-22" width="400" height="283">
<path d="M382.323 -21.6415H-16.4671V260.333H382.323V-21.6415Z" fill="white"/>
</mask>
<g mask="url(#mask35_1_2425)">
<path fill-rule="evenodd" clip-rule="evenodd" d="M65.2055 25.8595C65.5134 26.1106 65.5607 26.5653 65.3097 26.8732C65.0586 27.1811 64.6039 27.2285 64.296 26.9774C63.9881 26.7264 63.9407 26.2716 64.1918 25.9637C64.4381 25.6558 64.8929 25.6085 65.2055 25.8595Z" fill="#FEFEFE"/>
</g>
<mask id="mask36_1_2425" style="mask-type:luminance" maskUnits="userSpaceOnUse" x="-17" y="-22" width="400" height="283">
<path d="M382.323 -21.6415H-16.4671V260.333H382.323V-21.6415Z" fill="white"/>
</mask>
<g mask="url(#mask36_1_2425)">
<path fill-rule="evenodd" clip-rule="evenodd" d="M66.6929 15.7179L68.2039 16.4142L64.0923 25.2721C63.5666 25.3668 63.2776 25.0921 63.1355 24.8647L66.6929 15.7179Z" fill="#92A6B2"/>
</g>
<mask id="mask37_1_2425" style="mask-type:luminance" maskUnits="userSpaceOnUse" x="-17" y="-22" width="400" height="283">
<path d="M382.323 -21.6415H-16.4671V260.333H382.323V-21.6415Z" fill="white"/>
</mask>
<g mask="url(#mask37_1_2425)">
<path fill-rule="evenodd" clip-rule="evenodd" d="M63.3723 25.1206C63.2681 25.0448 63.1923 24.9501 63.1355 24.8601L63.9976 22.6479L64.2723 22.7474L63.3723 25.1206Z" fill="#FEFEFE"/>
</g>
<mask id="mask38_1_2425" style="mask-type:luminance" maskUnits="userSpaceOnUse" x="-17" y="-22" width="400" height="283">
<path d="M382.323 -21.6415H-16.4671V260.333H382.323V-21.6415Z" fill="white"/>
</mask>
<g mask="url(#mask38_1_2425)">
<path fill-rule="evenodd" clip-rule="evenodd" d="M66.6929 15.7179L68.2039 16.4142L64.8502 23.5053C64.4618 23.2779 64.1823 22.8895 64.0023 22.5626L66.6929 15.7179Z" fill="#66717A"/>
</g>
<mask id="mask39_1_2425" style="mask-type:luminance" maskUnits="userSpaceOnUse" x="-17" y="-22" width="400" height="283">
<path d="M382.323 -21.6415H-16.4671V260.333H382.323V-21.6415Z" fill="white"/>
</mask>
<g mask="url(#mask39_1_2425)">
<path fill-rule="evenodd" clip-rule="evenodd" d="M68.2655 14.5242C71.0602 15.7321 72.396 18.8537 71.2544 21.4874C71.155 21.7195 71.0365 21.9421 70.9039 22.1506C69.4828 23.3916 67.0386 23.6616 64.7365 22.6669C62.4344 21.6721 60.9613 19.7064 60.895 17.8164C60.9565 17.5748 61.0371 17.3379 61.1413 17.1058C62.2828 14.4721 65.4707 13.3164 68.2655 14.5242Z" fill="#6AB3FD"/>
</g>
<mask id="mask40_1_2425" style="mask-type:luminance" maskUnits="userSpaceOnUse" x="-17" y="-22" width="400" height="283">
<path d="M382.323 -21.6415H-16.4671V260.333H382.323V-21.6415Z" fill="white"/>
</mask>
<g mask="url(#mask40_1_2425)">
<path fill-rule="evenodd" clip-rule="evenodd" d="M71.6571 19.7253C71.6334 20.3174 71.5008 20.9142 71.2545 21.4874C71.155 21.7195 71.0366 21.9421 70.9039 22.1505C69.9708 22.9653 68.5924 23.3632 67.105 23.2542C67.285 22.3921 67.4413 21.3026 67.3608 20.3268C67.195 18.3326 66.0297 17.0016 66.0297 17.0016C67.3608 17.1674 68.0239 16.8358 69.8524 17.3332C70.6766 17.5653 71.2592 18.6216 71.6571 19.7253Z" fill="#345CBD"/>
</g>
<mask id="mask41_1_2425" style="mask-type:luminance" maskUnits="userSpaceOnUse" x="-17" y="-22" width="400" height="283">
<path d="M382.323 -21.6415H-16.4671V260.333H382.323V-21.6415Z" fill="white"/>
</mask>
<g mask="url(#mask41_1_2425)">
<path fill-rule="evenodd" clip-rule="evenodd" d="M68.2655 14.5243C70.5629 15.519 71.875 17.8022 71.6334 20.0474C68.2324 22.0511 62.7376 19.7916 61.9276 15.8506C63.4008 14.1358 65.9681 13.5295 68.2655 14.5243Z" fill="#80BEFD"/>
</g>
<mask id="mask42_1_2425" style="mask-type:luminance" maskUnits="userSpaceOnUse" x="-17" y="-22" width="400" height="283">
<path d="M382.323 -21.6415H-16.4671V260.333H382.323V-21.6415Z" fill="white"/>
</mask>
<g mask="url(#mask42_1_2425)">
<path fill-rule="evenodd" clip-rule="evenodd" d="M71.6571 19.7205C71.6524 19.8295 71.6429 19.9337 71.6334 20.0426C70.3876 20.7768 68.8576 20.9379 67.3797 20.6537C67.375 20.5447 67.3702 20.4358 67.3608 20.3268C67.195 18.3326 66.0297 17.0016 66.0297 17.0016C67.3608 17.1674 68.0239 16.8358 69.8524 17.3332C70.6718 17.5653 71.2592 18.6216 71.6571 19.7205Z" fill="#3E6CDE"/>
</g>
<mask id="mask43_1_2425" style="mask-type:luminance" maskUnits="userSpaceOnUse" x="-17" y="-22" width="400" height="283">
<path d="M382.323 -21.6415H-16.4671V260.333H382.323V-21.6415Z" fill="white"/>
</mask>
<g mask="url(#mask43_1_2425)">
<path fill-rule="evenodd" clip-rule="evenodd" d="M69.445 9.86796L70.8471 10.4743C71.4629 10.7443 71.6381 11.5543 71.3776 12.3311L69.7245 17.3048C69.0234 19.4127 64.2392 17.1864 65.2292 15.358L67.7255 10.749C68.1187 10.029 68.8292 9.59796 69.445 9.86796Z" fill="#64A7F7"/>
</g>
<mask id="mask44_1_2425" style="mask-type:luminance" maskUnits="userSpaceOnUse" x="-17" y="-22" width="400" height="283">
<path d="M382.323 -21.6415H-16.4671V260.333H382.323V-21.6415Z" fill="white"/>
</mask>
<g mask="url(#mask44_1_2425)">
<path fill-rule="evenodd" clip-rule="evenodd" d="M66.8255 12.4163C67.1808 12.9327 68.0334 14.0316 69.1655 14.5527C69.606 14.9127 69.156 16.67 68.8908 18.0911C69.2792 17.9774 69.5871 17.7311 69.7245 17.3095L71.3776 12.3358C71.6381 11.559 71.4676 10.749 70.8471 10.479L69.445 9.87265C68.8292 9.60739 68.1187 10.0337 67.7302 10.7537L66.8255 12.4163Z" fill="#5290B3"/>
</g>
<mask id="mask45_1_2425" style="mask-type:luminance" maskUnits="userSpaceOnUse" x="-17" y="-22" width="400" height="283">
<path d="M382.323 -21.6415H-16.4671V260.333H382.323V-21.6415Z" fill="white"/>
</mask>
<g mask="url(#mask45_1_2425)">
<path fill-rule="evenodd" clip-rule="evenodd" d="M70.7523 8.78323C72.6139 9.58849 73.675 11.2748 73.1208 12.5538C72.5665 13.828 70.6102 14.2116 68.7534 13.4016C66.8918 12.5964 65.8308 10.9101 66.385 9.63112C66.9344 8.35691 68.8908 7.97796 70.7523 8.78323Z" fill="#80BEFD"/>
</g>
<mask id="mask46_1_2425" style="mask-type:luminance" maskUnits="userSpaceOnUse" x="-17" y="-22" width="400" height="283">
<path d="M382.323 -21.6415H-16.4671V260.333H382.323V-21.6415Z" fill="white"/>
</mask>
<g mask="url(#mask46_1_2425)">
<path fill-rule="evenodd" clip-rule="evenodd" d="M70.9986 8.20528C72.8602 9.01055 73.9213 10.6969 73.3671 11.9758C72.8129 13.25 70.8565 13.629 68.9997 12.8237C67.1381 12.0184 66.0771 10.3321 66.6313 9.05318C67.1807 7.77897 69.1371 7.40002 70.9986 8.20528Z" fill="#6AB3FD"/>
</g>
<mask id="mask47_1_2425" style="mask-type:luminance" maskUnits="userSpaceOnUse" x="-17" y="-22" width="400" height="283">
<path d="M382.323 -21.6415H-16.4671V260.333H382.323V-21.6415Z" fill="white"/>
</mask>
<g mask="url(#mask47_1_2425)">
<path fill-rule="evenodd" clip-rule="evenodd" d="M70.4539 13.2169C69.9802 13.1648 69.4876 13.0321 68.9997 12.8237C67.1381 12.0184 66.0771 10.3321 66.6313 9.05318C66.7071 8.87791 66.8065 8.7216 66.9297 8.58423C66.8918 8.65054 66.8634 8.71686 66.835 8.78318C66.276 10.1521 67.3513 11.9663 69.2413 12.8284C69.6439 13.0179 70.056 13.1458 70.4539 13.2169Z" fill="#FEFEFE"/>
</g>
<mask id="mask48_1_2425" style="mask-type:luminance" maskUnits="userSpaceOnUse" x="-17" y="-22" width="400" height="283">
<path d="M382.323 -21.6415H-16.4671V260.333H382.323V-21.6415Z" fill="white"/>
</mask>
<g mask="url(#mask48_1_2425)">
<path fill-rule="evenodd" clip-rule="evenodd" d="M62.946 16.5137C62.946 16.5137 62.0839 17.03 62.1265 17.5037C62.1692 17.9774 62.6002 18.9248 63.1165 19.0953C63.6328 19.2658 64.1207 17.8258 64.2771 17.9206C64.4334 18.02 63.3297 17.5132 62.946 16.5137Z" fill="#D4E8FA"/>
</g>
<mask id="mask49_1_2425" style="mask-type:luminance" maskUnits="userSpaceOnUse" x="-17" y="-22" width="400" height="283">
<path d="M382.323 -21.6415H-16.4671V260.333H382.323V-21.6415Z" fill="white"/>
</mask>
<g mask="url(#mask49_1_2425)">
<path fill-rule="evenodd" clip-rule="evenodd" d="M27.1213 68.4247C27.1213 68.4247 28.3292 67.0321 29.6318 67.0321C30.9344 67.0321 32.5118 67.7758 32.5118 67.7758C32.5118 67.7758 30.096 65.7295 28.7934 66.4732C27.4907 67.2169 27.1213 68.4247 27.1213 68.4247Z" fill="#FEFEFE"/>
</g>
<mask id="mask50_1_2425" style="mask-type:luminance" maskUnits="userSpaceOnUse" x="-17" y="-22" width="400" height="283">
<path d="M382.323 -21.6415H-16.4671V260.333H382.323V-21.6415Z" fill="white"/>
</mask>
<g mask="url(#mask50_1_2425)">
<path fill-rule="evenodd" clip-rule="evenodd" d="M25.8802 33.3011C26.3539 33.2442 26.8465 33.1021 27.3344 32.87C29.196 31.9842 30.257 30.1369 29.7028 28.7348C29.627 28.5453 29.5276 28.3748 29.4044 28.2184C29.4423 28.2895 29.4707 28.3606 29.4991 28.4411C30.0581 29.9427 28.9828 31.9321 27.0928 32.8795C26.6855 33.0832 26.2781 33.2205 25.8802 33.3011Z" fill="#FEFEFE"/>
</g>
<mask id="mask51_1_2425" style="mask-type:luminance" maskUnits="userSpaceOnUse" x="-17" y="-22" width="400" height="283">
<path d="M382.323 -21.6415H-16.4671V260.333H382.323V-21.6415Z" fill="white"/>
</mask>
<g mask="url(#mask51_1_2425)">
<path fill-rule="evenodd" clip-rule="evenodd" d="M80.4723 79.4568C77.365 79.7553 77.6871 80.1816 78.8287 77.2732C77.5781 74.3884 77.185 74.8432 80.3966 75.0326C82.7366 72.9674 82.225 72.8111 83.0113 75.8284C85.7018 77.4153 85.6923 76.88 83.0587 78.5616C82.3766 81.6121 82.8834 81.4368 80.4723 79.4568Z" fill="#BDFFFF"/>
</g>
<mask id="mask52_1_2425" style="mask-type:luminance" maskUnits="userSpaceOnUse" x="-17" y="-22" width="400" height="283">
<path d="M382.323 -21.6415H-16.4671V260.333H382.323V-21.6415Z" fill="white"/>
</mask>
<g mask="url(#mask52_1_2425)">
<path fill-rule="evenodd" clip-rule="evenodd" d="M82.6181 86.5148C81.7229 88.1916 82.0497 88.1727 80.9555 86.6143C79.0702 86.2779 79.1697 86.6332 80.3444 85.0653C80.0839 83.1801 79.8281 83.3885 81.6281 84.009C83.3381 83.1753 83.0634 83.0001 83.0302 84.9043C84.3566 86.2732 84.4371 85.9606 82.6181 86.5148Z" fill="#F6DD87"/>
</g>
<mask id="mask53_1_2425" style="mask-type:luminance" maskUnits="userSpaceOnUse" x="-17" y="-22" width="400" height="283">
<path d="M382.323 -21.6415H-16.4671V260.333H382.323V-21.6415Z" fill="white"/>
</mask>
<g mask="url(#mask53_1_2425)">
<path fill-rule="evenodd" clip-rule="evenodd" d="M14.5355 41.7042C13.6402 43.3811 13.9671 43.3621 12.8729 41.8037C10.9876 41.4674 11.0871 41.8227 12.2618 40.2548C12.0013 38.3695 11.7455 38.5779 13.5455 39.1985C15.2555 38.3648 14.9807 38.1895 14.9476 40.0937C16.2692 41.4627 16.3544 41.15 14.5355 41.7042Z" fill="#D88BB1"/>
</g>
<mask id="mask54_1_2425" style="mask-type:luminance" maskUnits="userSpaceOnUse" x="-17" y="-22" width="400" height="283">
<path d="M382.323 -21.6415H-16.4671V260.333H382.323V-21.6415Z" fill="white"/>
</mask>
<g mask="url(#mask54_1_2425)">
<path fill-rule="evenodd" clip-rule="evenodd" d="M18.3391 35.949C17.1644 36.2569 17.316 36.4037 17.5718 35.2148C16.9086 34.1869 16.7902 34.3858 18.0313 34.2579C18.7986 33.32 18.5902 33.2916 19.0828 34.4C20.2149 34.8406 20.177 34.6322 19.2723 35.4469C19.206 36.6548 19.3907 36.5553 18.3391 35.949Z" fill="#DBDF86"/>
</g>
<mask id="mask55_1_2425" style="mask-type:luminance" maskUnits="userSpaceOnUse" x="-17" y="-22" width="400" height="283">
<path d="M382.323 -21.6415H-16.4671V260.333H382.323V-21.6415Z" fill="white"/>
</mask>
<g mask="url(#mask55_1_2425)">
<path fill-rule="evenodd" clip-rule="evenodd" d="M57.1718 11.9237C56.035 14.0553 56.4471 14.0316 55.0592 12.0516C52.6623 11.6253 52.7902 12.0753 54.2823 10.0858C53.9507 7.69371 53.6286 7.95424 55.9165 8.74055C58.0907 7.68424 57.7402 7.46161 57.7023 9.8774C59.3792 11.6158 59.4834 11.2179 57.1718 11.9237Z" fill="#E89C32"/>
</g>
</g>
</g>
<defs>
<clipPath id="clip0_1_2425">
<rect width="108" height="108" fill="white" transform="translate(0.111816 0.147949)"/>
</clipPath>
</defs>
</svg>
