<svg width="82" height="76" viewBox="0 0 82 76" fill="none" xmlns="http://www.w3.org/2000/svg">
<path fill-rule="evenodd" clip-rule="evenodd" d="M12.3661 7.77709H47.4893V55.5364H12.3661V7.77709ZM7.70275 2.35303H52.1569C52.5738 2.35303 52.9133 2.69257 52.9133 3.10948V60.204C52.9133 60.6209 52.5738 60.9604 52.1569 60.9604H7.70275C7.28584 60.9604 6.9463 60.6209 6.9463 60.204V3.10948C6.9463 2.69257 7.28584 2.35303 7.70275 2.35303Z" fill="#EE7597"/>
<path fill-rule="evenodd" clip-rule="evenodd" d="M10.8144 6.22556H49.0407L47.4891 7.77712H12.3659L10.8144 6.22556Z" fill="#CC1849"/>
<path d="M47.4889 7.77747H12.3658V55.541H47.4889V7.77747Z" fill="white"/>
<path fill-rule="evenodd" clip-rule="evenodd" d="M12.3658 7.77747H47.4889V9.53105C23.7812 10.0124 15.3529 12.6557 12.3658 14.3663V7.77747Z" fill="#DCEFEF"/>
<path d="M15.7443 38.9463C15.5767 38.9463 15.4391 38.8088 15.4391 38.6412C15.4391 38.4735 15.5767 38.336 15.7443 38.336H44.111C44.2787 38.336 44.4162 38.4735 44.4162 38.6412C44.4162 38.8088 44.2787 38.9463 44.111 38.9463H15.7443Z" fill="#4D6F77"/>
<path d="M15.7443 42.604C15.5767 42.604 15.4391 42.4664 15.4391 42.2988C15.4391 42.1312 15.5767 41.9937 15.7443 41.9937H44.111C44.2787 41.9937 44.4162 42.1312 44.4162 42.2988C44.4162 42.4664 44.2787 42.604 44.111 42.604H15.7443Z" fill="#4D6F77"/>
<path d="M15.7443 46.2571C15.5767 46.2571 15.4391 46.1196 15.4391 45.952C15.4391 45.7844 15.5767 45.6468 15.7443 45.6468H44.111C44.2787 45.6468 44.4162 45.7844 44.4162 45.952C44.4162 46.1196 44.2787 46.2571 44.111 46.2571H15.7443Z" fill="#4D6F77"/>
<path d="M15.7443 17.0182C15.5767 17.0182 15.4391 16.8807 15.4391 16.7131C15.4391 16.5455 15.5767 16.4079 15.7443 16.4079H44.111C44.2787 16.4079 44.4162 16.5455 44.4162 16.7131C44.4162 16.8807 44.2787 17.0182 44.111 17.0182H15.7443Z" fill="#4D6F77"/>
<path d="M15.7443 20.6714C15.5767 20.6714 15.4391 20.5339 15.4391 20.3662C15.4391 20.1986 15.5767 20.0611 15.7443 20.0611H44.111C44.2787 20.0611 44.4162 20.1986 44.4162 20.3662C44.4162 20.5339 44.2787 20.6714 44.111 20.6714H15.7443Z" fill="#4D6F77"/>
<path d="M15.7443 24.3286C15.5767 24.3286 15.4391 24.191 15.4391 24.0234C15.4391 23.8558 15.5767 23.7183 15.7443 23.7183H44.111C44.2787 23.7183 44.4162 23.8558 44.4162 24.0234C44.4162 24.191 44.2787 24.3286 44.111 24.3286H15.7443Z" fill="#4D6F77"/>
<path d="M15.7443 27.9823C15.5767 27.9823 15.4391 27.8447 15.4391 27.6771C15.4391 27.5095 15.5767 27.3719 15.7443 27.3719H44.111C44.2787 27.3719 44.4162 27.5095 44.4162 27.6771C44.4162 27.8447 44.2787 27.9823 44.111 27.9823H15.7443Z" fill="#4D6F77"/>
<path d="M15.7443 31.6355C15.5767 31.6355 15.4391 31.4979 15.4391 31.3303C15.4391 31.1627 15.5767 31.0251 15.7443 31.0251H44.111C44.2787 31.0251 44.4162 31.1627 44.4162 31.3303C44.4162 31.4979 44.2787 31.6355 44.111 31.6355H15.7443Z" fill="#4D6F77"/>
<path d="M15.7443 35.2931C15.5767 35.2931 15.4391 35.1556 15.4391 34.9879C15.4391 34.8203 15.5767 34.6828 15.7443 34.6828H44.111C44.2787 34.6828 44.4162 34.8203 44.4162 34.9879C44.4162 35.1556 44.2787 35.2931 44.111 35.2931H15.7443Z" fill="#4D6F77"/>
<path d="M25.9218 51.5908C25.8746 51.5908 25.8359 51.4533 25.8359 51.2857C25.8359 51.1181 25.8746 50.9805 25.9218 50.9805H33.9376C33.9849 50.9805 34.0235 51.1181 34.0235 51.2857C34.0235 51.4533 33.9849 51.5908 33.9376 51.5908H25.9218Z" fill="#4D6F77"/>
<path fill-rule="evenodd" clip-rule="evenodd" d="M12.3659 55.5364L10.8144 57.0923V6.22556L12.3659 7.77712V55.5364Z" fill="#CC1849"/>
<path fill-rule="evenodd" clip-rule="evenodd" d="M47.4888 55.5364L49.0403 57.0923V6.22556L47.4888 7.77712V55.5364Z" fill="#FAD8E9"/>
<path fill-rule="evenodd" clip-rule="evenodd" d="M10.8144 57.0924H49.0407L47.4891 55.5365H12.3659L10.8144 57.0924Z" fill="#FAD8E9"/>
<path fill-rule="evenodd" clip-rule="evenodd" d="M12.8516 4.00812H46.3845C46.5994 4.00812 46.7756 4.18434 46.7756 4.39924C46.7756 4.61414 46.5994 4.79036 46.3845 4.79036H12.8516C12.6367 4.79036 12.4605 4.61414 12.4605 4.39924C12.4605 4.18434 12.6367 4.00812 12.8516 4.00812Z" fill="#E83C6C"/>
<path fill-rule="evenodd" clip-rule="evenodd" d="M12.8516 58.7301H46.3845C46.5994 58.7301 46.7756 58.9063 46.7756 59.1212C46.7756 59.3361 46.5994 59.5123 46.3845 59.5123H12.8516C12.6367 59.5123 12.4605 59.3361 12.4605 59.1212C12.4605 58.9063 12.6367 58.7301 12.8516 58.7301Z" fill="#E83C6C"/>
<path fill-rule="evenodd" clip-rule="evenodd" d="M8.45483 54.3461V8.55097C8.45483 8.33607 8.63105 8.15985 8.84595 8.15985C9.06085 8.15985 9.23707 8.33607 9.23707 8.55097V54.3461C9.23707 54.561 9.06085 54.7372 8.84595 54.7372C8.63105 54.7372 8.45483 54.561 8.45483 54.3461Z" fill="#E83C6C"/>
<path fill-rule="evenodd" clip-rule="evenodd" d="M50.6225 54.3461V8.55097C50.6225 8.33607 50.7987 8.15985 51.0136 8.15985C51.2285 8.15985 51.4047 8.33607 51.4047 8.55097V54.3461C51.4047 54.561 51.2285 54.7372 51.0136 54.7372C50.7987 54.7372 50.6225 54.561 50.6225 54.3461Z" fill="#E83C6C"/>
<path fill-rule="evenodd" clip-rule="evenodd" d="M10.8699 0.0107999C11.9702 -0.148226 13.1092 1.46782 13.4143 3.61252C13.7195 5.75722 13.0791 7.62254 11.9788 7.78156C10.8785 7.94059 9.73955 6.32454 9.4344 4.17984C9.12924 2.03515 9.77393 0.165528 10.8699 0.0107999Z" fill="#CC1849"/>
<path fill-rule="evenodd" clip-rule="evenodd" d="M10.8699 0.0108951C11.0934 -0.0191909 11.3169 0.0194821 11.5361 0.122634C11.8585 0.724353 12.1034 1.48081 12.2238 2.31891C12.529 4.46361 11.8886 6.32893 10.7883 6.48796C10.5648 6.51804 10.3413 6.47937 10.1221 6.37622C9.79973 5.7745 9.55474 5.01805 9.4344 4.17994C9.12924 2.03524 9.77393 0.165623 10.8699 0.0108951Z" fill="#E83C6C"/>
<path fill-rule="evenodd" clip-rule="evenodd" d="M4.42311 6.4579C4.26408 7.55818 5.88013 8.69714 8.02483 9.0023C10.1695 9.30746 12.0348 8.66706 12.1939 7.56677C12.3486 6.46649 10.7369 5.32753 8.59216 5.02237C6.44747 4.71292 4.58213 5.35761 4.42311 6.4579Z" fill="#CC1849"/>
<path fill-rule="evenodd" clip-rule="evenodd" d="M4.42323 6.4579C4.39315 6.68139 4.43183 6.90488 4.53498 7.12408C5.1367 7.44643 5.89315 7.69142 6.73126 7.81176C8.87595 8.11692 10.7413 7.47652 10.9003 6.37624C10.9304 6.15274 10.8917 5.92924 10.7886 5.71004C10.1868 5.38769 9.4304 5.14271 8.59229 5.02237C6.44759 4.71292 4.58226 5.35761 4.42323 6.4579Z" fill="#EE7597"/>
<path fill-rule="evenodd" clip-rule="evenodd" d="M6.62374 2.03971C7.41027 1.25317 9.28849 1.85919 10.8186 3.39357C12.353 4.92795 12.9547 6.80618 12.1724 7.58841C11.3859 8.37495 9.50769 7.76892 7.9776 6.23454C6.44322 4.70445 5.8372 2.82624 6.62374 2.03971Z" fill="#CC1849"/>
<path fill-rule="evenodd" clip-rule="evenodd" d="M6.62374 2.03931C6.78276 1.88029 6.98477 1.77714 7.22116 1.72986C7.84007 2.01782 8.49336 2.47341 9.09078 3.07513C10.6209 4.60522 11.2269 6.48773 10.4447 7.26996C10.2856 7.42899 10.0836 7.53214 9.84723 7.57942C9.22832 7.29145 8.57502 6.83586 7.9776 6.23414C6.44322 4.70406 5.8372 2.82585 6.62374 2.03931Z" fill="#EE7597"/>
<path fill-rule="evenodd" clip-rule="evenodd" d="M10.8699 63.1311C11.9702 63.2902 13.1092 61.6741 13.4143 59.5294C13.7195 57.3847 13.0791 55.5194 11.9788 55.3604C10.8785 55.2014 9.73955 56.8174 9.4344 58.9621C9.12924 61.1068 9.77393 62.9721 10.8699 63.1311Z" fill="#CC1849"/>
<path fill-rule="evenodd" clip-rule="evenodd" d="M10.8699 63.1313C11.0934 63.1614 11.3169 63.1227 11.5361 63.0195C11.8585 62.4178 12.1034 61.6614 12.2238 60.8233C12.529 58.6786 11.8886 56.8132 10.7883 56.6542C10.5648 56.6241 10.3413 56.6628 10.1221 56.766C9.79973 57.3677 9.55474 58.1241 9.4344 58.9622C9.12924 61.1069 9.77393 62.9723 10.8699 63.1313Z" fill="#E83C6C"/>
<path fill-rule="evenodd" clip-rule="evenodd" d="M4.42311 56.6839C4.26408 55.5836 5.88013 54.4446 8.02483 54.1395C10.1695 53.8343 12.0348 54.4747 12.1939 55.575C12.3486 56.6753 10.7369 57.8142 8.59216 58.1194C6.44747 58.4245 4.58213 57.7841 4.42311 56.6839Z" fill="#EE7597"/>
<path fill-rule="evenodd" clip-rule="evenodd" d="M4.42323 56.6843C4.39315 56.4608 4.43183 56.2373 4.53498 56.0181C5.1367 55.6957 5.89315 55.4507 6.73126 55.3304C8.87595 55.0252 10.7413 55.6656 10.9003 56.7659C10.9304 56.9894 10.8917 57.2129 10.7886 57.4321C10.1868 57.7545 9.4304 57.9995 8.59229 58.1198C6.44759 58.425 4.58226 57.7846 4.42323 56.6843Z" fill="#CC1849"/>
<path fill-rule="evenodd" clip-rule="evenodd" d="M6.62374 61.1027C7.41027 61.8892 9.28849 61.2832 10.8186 59.7488C12.353 58.2144 12.9547 56.3362 12.1724 55.554C11.3859 54.7674 9.50769 55.3735 7.9776 56.9078C6.44322 58.4379 5.8372 60.3161 6.62374 61.1027Z" fill="#CC1849"/>
<path fill-rule="evenodd" clip-rule="evenodd" d="M6.62374 61.1026C6.78276 61.2616 6.98477 61.3648 7.22116 61.412C7.84007 61.1241 8.49336 60.6685 9.09078 60.0668C10.6209 58.5367 11.2269 56.6542 10.4447 55.8719C10.2856 55.7129 10.0836 55.6097 9.84723 55.5625C9.22832 55.8504 8.57502 56.306 7.9776 56.9077C6.44322 58.4378 5.8372 60.316 6.62374 61.1026Z" fill="#EE7597"/>
<path fill-rule="evenodd" clip-rule="evenodd" d="M48.6067 0.0107999C47.5064 -0.148226 46.3674 1.46782 46.0622 3.61252C45.7571 5.75722 46.3975 7.62254 47.4978 7.78156C48.5981 7.94059 49.737 6.32454 50.0422 4.17984C50.3516 2.03515 49.7069 0.165528 48.6067 0.0107999Z" fill="#E83C6C"/>
<path fill-rule="evenodd" clip-rule="evenodd" d="M48.6066 0.0108951C48.3831 -0.0191909 48.1596 0.0194821 47.9404 0.122634C47.618 0.724353 47.3731 1.48081 47.2527 2.31891C46.9475 4.46361 47.588 6.32893 48.6882 6.48796C48.9117 6.51804 49.1352 6.47937 49.3544 6.37622C49.6768 5.7745 49.9218 5.01805 50.0421 4.17994C50.3516 2.03524 49.7069 0.165623 48.6066 0.0108951Z" fill="#CC1849"/>
<path fill-rule="evenodd" clip-rule="evenodd" d="M55.0534 6.4579C55.2125 7.55818 53.5964 8.69714 51.4517 9.0023C49.307 9.30746 47.4417 8.66706 47.2827 7.56677C47.1279 6.46649 48.7397 5.32753 50.8844 5.02237C53.0334 4.71292 54.8987 5.35761 55.0534 6.4579Z" fill="#CC1849"/>
<path fill-rule="evenodd" clip-rule="evenodd" d="M55.0536 6.4579C55.0836 6.68139 55.045 6.90488 54.9418 7.12408C54.3401 7.44643 53.5836 7.69142 52.7455 7.81176C50.6008 8.11692 48.7355 7.47652 48.5765 6.37624C48.5464 6.15274 48.5851 5.92924 48.6882 5.71004C49.2899 5.38769 50.0464 5.14271 50.8845 5.02237C53.0335 4.71292 54.8988 5.35761 55.0536 6.4579Z" fill="#EE7597"/>
<path fill-rule="evenodd" clip-rule="evenodd" d="M52.8571 2.03943C52.0705 1.2529 50.1923 1.85891 48.6622 3.3933C47.1278 4.92768 46.5261 6.80591 47.3084 7.58814C48.0949 8.37467 49.9731 7.76864 51.5032 6.23426C53.0376 4.70418 53.6436 2.82596 52.8571 2.03943Z" fill="#E83C6C"/>
<path fill-rule="evenodd" clip-rule="evenodd" d="M52.8573 2.03931C52.6983 1.88029 52.4963 1.77714 52.2599 1.72986C51.641 2.01782 50.9877 2.47341 50.3903 3.07513C48.8602 4.60522 48.2542 6.48773 49.0364 7.26996C49.1955 7.42899 49.3975 7.53214 49.6339 7.57942C50.2528 7.29145 50.9061 6.83586 51.5035 6.23414C53.0379 4.70406 53.6439 2.82585 52.8573 2.03931Z" fill="#CC1849"/>
<path fill-rule="evenodd" clip-rule="evenodd" d="M48.6067 63.1311C47.5064 63.2902 46.3674 61.6741 46.0622 59.5294C45.7571 57.3847 46.3975 55.5194 47.4978 55.3604C48.5981 55.2014 49.737 56.8174 50.0422 58.9621C50.3516 61.1068 49.7069 62.9721 48.6067 63.1311Z" fill="#EE7597"/>
<path fill-rule="evenodd" clip-rule="evenodd" d="M48.6066 63.1313C48.3831 63.1614 48.1596 63.1227 47.9404 63.0195C47.618 62.4178 47.3731 61.6614 47.2527 60.8233C46.9475 58.6786 47.588 56.8132 48.6882 56.6542C48.9117 56.6241 49.1352 56.6628 49.3544 56.766C49.6768 57.3677 49.9218 58.1241 50.0421 58.9622C50.3516 61.1069 49.7069 62.9723 48.6066 63.1313Z" fill="#CC1849"/>
<path fill-rule="evenodd" clip-rule="evenodd" d="M55.0534 56.6839C55.2125 55.5836 53.5964 54.4446 51.4517 54.1395C49.307 53.8343 47.4417 54.4747 47.2827 55.575C47.1279 56.6753 48.7397 57.8142 50.8844 58.1194C53.0334 58.4245 54.8987 57.7841 55.0534 56.6839Z" fill="#EE7597"/>
<path fill-rule="evenodd" clip-rule="evenodd" d="M55.0536 56.6843C55.0836 56.4608 55.045 56.2373 54.9418 56.0181C54.3401 55.6957 53.5836 55.4507 52.7455 55.3304C50.6008 55.0252 48.7355 55.6656 48.5765 56.7659C48.5464 56.9894 48.5851 57.2129 48.6882 57.4321C49.2899 57.7545 50.0464 57.9995 50.8845 58.1198C53.0335 58.425 54.8988 57.7846 55.0536 56.6843Z" fill="#CC1849"/>
<path fill-rule="evenodd" clip-rule="evenodd" d="M52.8571 61.1027C52.0705 61.8892 50.1923 61.2832 48.6622 59.7488C47.1278 58.2144 46.5261 56.3362 47.3084 55.554C48.0949 54.7674 49.9731 55.3735 51.5032 56.9078C53.0376 58.4379 53.6436 60.3161 52.8571 61.1027Z" fill="#EE7597"/>
<path fill-rule="evenodd" clip-rule="evenodd" d="M52.8573 61.1026C52.6983 61.2616 52.4963 61.3648 52.2599 61.412C51.641 61.1241 50.9877 60.6685 50.3903 60.0668C48.8602 58.5367 48.2542 56.6542 49.0364 55.8719C49.1955 55.7129 49.3975 55.6097 49.6339 55.5625C50.2528 55.8504 50.9061 56.306 51.5035 56.9077C53.0379 58.4378 53.6439 60.316 52.8573 61.1026Z" fill="#E83C6C"/>
<path fill-rule="evenodd" clip-rule="evenodd" d="M67.9989 22.5023C68.0032 22.5066 70.3155 24.1614 70.3972 33.8963C70.4788 43.4465 70.3972 59.7401 70.3972 59.7874L69.6708 59.7831C69.6708 59.7358 69.7525 43.4465 69.6708 33.9006C69.5891 24.5439 67.5691 23.1084 67.5648 23.1041L67.9989 22.5023Z" fill="#86AA4D"/>
<path fill-rule="evenodd" clip-rule="evenodd" d="M68.3858 23.1687C68.3858 23.1687 69.413 22.3391 70.2941 22.8291C71.1709 23.3191 71.029 24.0841 71.7382 24.2517C72.4431 24.4237 71.6523 24.4365 71.2225 23.2933C70.7927 22.15 69.6752 21.4452 68.6265 22.0082C67.5735 22.5712 68.3858 23.1687 68.3858 23.1687Z" fill="#70903F"/>
<path fill-rule="evenodd" clip-rule="evenodd" d="M61.6337 9.13992C61.6337 9.13992 62.1108 9.29465 61.9045 10.2101C61.6939 11.1256 61.6981 11.2588 61.264 12.5568C60.83 13.8591 61.2984 15.9565 63.8471 18.5482C64.8572 19.5755 65.4374 19.6442 65.4374 19.6442C69.3958 17.16 65.6738 10.7689 61.6337 9.13992Z" fill="#86AA4D"/>
<path fill-rule="evenodd" clip-rule="evenodd" d="M61.8617 9.3548C61.8961 9.41927 61.9262 9.50093 61.9434 9.59979C62.3989 10.0812 62.9276 10.7473 63.1941 11.4393C63.7098 12.7846 64.1912 14.2029 64.0236 15.4408C63.8646 16.6184 63.8345 17.8906 63.9677 18.6685C64.2084 18.9006 64.419 19.0812 64.6038 19.2144C64.7886 17.7316 65.2313 12.1141 61.8617 9.3548Z" fill="#577427"/>
<path fill-rule="evenodd" clip-rule="evenodd" d="M67.9346 31.1065C67.9346 31.1065 67.608 28.3386 64.0621 27.0878C60.5206 25.8414 57.5206 27.8959 57.5206 27.8959C57.5206 27.8959 58.8615 28.287 59.8974 29.5979C60.9332 30.9131 64.8529 32.946 67.9346 31.1065Z" fill="#86AA4D"/>
<path fill-rule="evenodd" clip-rule="evenodd" d="M57.2798 27.8487C57.2798 27.8487 63.4946 26.8731 69.5806 32.1553L69.731 32.2843L69.7052 33.0235C68.3944 31.6783 64.1393 27.9949 57.2798 27.8487Z" fill="#577427"/>
<path fill-rule="evenodd" clip-rule="evenodd" d="M66.7481 21.045C66.7481 21.045 69.0862 22.1754 70.9344 21.5908C72.7825 21.0063 73.2811 19.8802 74.1149 18.8186C74.9487 17.757 76.3068 15.7499 76.8828 15.449C77.0375 15.3716 65.8885 13.6525 66.7481 21.045Z" fill="#86AA4D"/>
<path fill-rule="evenodd" clip-rule="evenodd" d="M76.7799 15.4189C74.3 16.588 69.022 19.1969 67.0407 21.174C66.8559 21.0966 66.7484 21.045 66.7484 21.045C66.7355 20.9333 66.7269 20.8258 66.7183 20.7184C68.0077 19.5106 70.81 17.4777 76.5091 15.376C76.6252 15.3889 76.7155 15.4061 76.7799 15.4189Z" fill="#577427"/>
<path fill-rule="evenodd" clip-rule="evenodd" d="M68.085 22.2918C68.085 22.2918 68.3385 23.65 67.307 24.2775C66.2798 24.905 64.4016 25.3176 63.2239 25.0425C62.0635 24.7718 60.7655 23.4265 60.5334 22.9064C60.3013 22.3864 59.2784 22.7173 58.4403 22.1887C57.6021 21.66 57.2454 20.3405 56.7855 19.9666C56.3257 19.5927 56.6007 19.1844 56.9145 18.9566C57.2282 18.7245 58.3543 18.6815 58.3543 18.6815C58.3543 18.6815 57.3744 17.8133 57.3228 16.7001C57.2712 15.587 58.35 15.5225 58.35 15.5225C58.35 15.5225 58.2812 15.3807 58.5305 14.7059C58.7755 14.0311 59.734 13.6185 60.2196 13.3391C60.7053 13.0554 61.3113 12.9523 61.5219 13.0855C61.7282 13.2188 62.605 13.5626 62.8371 13.5411C63.0692 13.5196 62.6351 13.4036 63.297 12.8405C63.9589 12.2732 63.9675 12.2603 64.6766 11.8821C65.3901 11.5039 65.5534 10.9666 66.0821 11.5082C66.6107 12.0497 66.3572 12.6299 66.8127 12.7073C67.2683 12.789 67.2297 13.0082 67.8443 12.7159C68.4546 12.4236 69.8471 12.1829 70.4145 13.0339C70.9818 13.885 70.6423 14.7188 70.3027 15.2603C69.9632 15.8019 69.701 16.0296 70.062 16.4852C70.4231 16.9451 70.4703 17.5125 70.191 18.0669C69.9116 18.617 70.5606 19.1672 70.2984 20.2374C70.0319 21.3033 69.1294 22.4423 68.085 22.2918Z" fill="#EF7B66"/>
<path fill-rule="evenodd" clip-rule="evenodd" d="M70.2469 16.8033C70.4231 17.1944 70.4016 17.6371 70.1867 18.0669C70.1652 18.1055 70.1523 18.1442 70.1395 18.1829C69.9804 18.4709 69.7483 18.819 69.4174 19.2187C68.3859 20.4609 67.0234 20.0568 67.0234 20.0568C68.3085 19.627 69.9589 18.213 70.2469 16.8033Z" fill="#EF7B66"/>
<path fill-rule="evenodd" clip-rule="evenodd" d="M68.0293 14.7139C68.0293 14.7483 67.6811 16.807 67.4147 17.5463C67.1482 18.2856 67.2041 19.4546 66.2198 20.0563C65.2356 20.658 63.6797 20.181 63.4218 19.9962C63.164 19.8113 64.5135 18.8228 65.4333 17.7999C66.3488 16.7813 67.4706 15.5864 68.0293 14.7139Z" fill="#DD441F"/>
<path fill-rule="evenodd" clip-rule="evenodd" d="M57.4261 16.0938C57.6711 15.591 58.2513 15.5308 58.333 15.5222V15.5179V15.5136V15.5093V15.505V15.5007V15.4964V15.4921V15.4878V15.4835V15.4792V15.4749V15.4706V15.4663V15.462V15.4577V15.4534V15.4491V15.4448V15.4405V15.4362V15.4319V15.4276V15.4233V15.419V15.4147V15.4104V15.4061C58.3459 15.2901 58.3889 15.0838 58.5178 14.7314C58.7628 14.0566 59.7212 13.644 60.2069 13.3646C60.6926 13.0809 61.2986 12.9778 61.5092 13.111C61.7155 13.2443 62.5923 13.5881 62.8244 13.5666C62.949 13.558 62.8803 13.5193 62.8931 13.399C63.5593 13.8116 64.7155 14.7529 64.8487 15.7629C64.9992 16.8718 64.3802 18.6082 64.3802 18.6082C64.3802 18.6082 64.3072 18.5738 64.174 18.5136C64.3115 18.952 64.3287 19.4248 64.1568 19.6998C63.8129 20.25 62.9361 19.962 61.8874 19.7471C60.8258 19.5322 59.5622 19.2271 59.1926 19.0809C58.853 18.9477 58.6209 18.8531 58.2943 18.7027C58.3244 18.664 56.7642 17.7314 57.4261 16.0938Z" fill="#FCD09E"/>
<path fill-rule="evenodd" clip-rule="evenodd" d="M58.6208 18.9133C58.6208 18.9133 56.9016 19.1411 56.9489 19.5494C56.9832 19.8373 56.9231 19.9405 56.807 19.9878L56.7855 19.9663C56.3257 19.5924 56.6007 19.184 56.9145 18.9562C57.181 18.7585 58.0406 18.6984 58.2855 18.6812C58.4317 18.7714 58.5477 18.8488 58.6208 18.9133Z" fill="#FCD09E"/>
<path fill-rule="evenodd" clip-rule="evenodd" d="M64.4831 15.1697C64.4831 15.1697 65.1407 14.598 64.1736 14.3445C63.2023 14.0909 62.4243 14.1811 61.6464 14.7399C60.89 15.2857 60.4215 15.8574 60.5418 16.2657C60.6622 16.674 60.0991 16.6654 60.0389 17.0909C59.9831 17.5164 60.0862 17.5336 60.6665 17.6539C61.2424 17.7743 62.9186 17.9892 63.3957 18.2127C63.8685 18.4404 64.4272 17.0522 64.4831 15.1697Z" fill="#EF7B66"/>
<path fill-rule="evenodd" clip-rule="evenodd" d="M64.7928 16.992C64.7154 16.2614 64.6466 15.5307 64.5865 14.8087C64.5865 14.8087 64.5564 15.78 63.7526 16.2055C62.9489 16.631 62.6094 17.0651 62.171 16.7384C61.7326 16.4118 61.724 15.9949 61.883 15.9089C62.042 15.823 62.5191 15.5694 62.8372 15.3975C62.8372 15.3975 63.0435 15.4405 62.8845 15.8273C62.7254 16.2098 63.5034 14.7915 62.4332 15.2814C61.363 15.7757 61.1867 16.4935 61.6122 16.8502C62.0377 17.2069 63.7226 18.939 63.7226 18.939C63.7226 18.939 65.7985 18.5866 64.7928 16.992Z" fill="#FCD09E"/>
<path fill-rule="evenodd" clip-rule="evenodd" d="M61.8701 17.0868C62.0335 17.2415 62.2398 17.4435 62.4547 17.6584C62.6868 17.7229 62.9103 17.71 63.0349 17.7014C63.2928 17.6885 63.8128 17.3619 63.9805 17.0395C64.1481 16.7129 64.1954 16.3862 64.1954 16.3862C64.1954 16.3862 63.757 16.7816 63.6452 16.859C63.5335 16.9364 63.0951 17.1857 62.6653 17.22C62.3558 17.2415 62.0292 17.1427 61.8701 17.0868Z" fill="#FCD09E"/>
<path fill-rule="evenodd" clip-rule="evenodd" d="M59.6483 22.2445C59.6569 22.2574 59.7686 22.3821 59.9577 22.5841C60.2285 22.6313 60.4649 22.756 60.5293 22.9064C61.2385 24.4881 64.0322 22.0554 64.6984 21.9394C66.3144 21.66 68.0551 22.4637 68.0551 22.4637C68.0551 22.4637 68.1024 22.4422 67.6683 21.8319C67.2342 21.2216 65.1755 20.6113 64.5308 20.7961C63.8904 20.9809 63.0179 21.1528 62.025 21.3462C61.0322 21.544 60.0995 21.776 59.9534 21.9394C59.9577 21.9437 59.9878 21.9823 60.0351 22.0468C59.8331 22.1242 59.6912 22.1929 59.6483 22.2445Z" fill="#DD441F"/>
<mask id="mask0_1_1472" style="mask-type:luminance" maskUnits="userSpaceOnUse" x="56" y="19" width="13" height="4">
<path d="M56.7251 19.1239C56.8111 19.2055 56.9658 19.3216 57.2968 19.5322C58.0317 20.0007 59.0761 20.4691 60.5288 20.5336C61.2767 20.568 62.4629 20.6024 63.5718 20.6196C64.7151 20.6368 65.7982 20.5895 66.2538 20.856C67.079 21.3373 68.0331 21.8015 68.0374 22.356C68.0417 22.9147 66.8168 21.303 65.5016 21.3115C64.2595 21.3201 63.4429 21.5393 62.6349 21.8015C61.8655 22.0551 61.0876 22.3731 59.9486 22.5794C59.5231 22.5107 58.9472 22.5064 58.4357 22.184C57.5976 21.6554 57.2409 20.3359 56.781 19.962C56.42 19.674 56.5145 19.356 56.7251 19.1239Z" fill="white"/>
</mask>
<g mask="url(#mask0_1_1472)">
<path d="M68.0414 19.1238H56.4196V22.9146H68.0414V19.1238Z" fill="url(#paint0_linear_1_1472)"/>
</g>
<path fill-rule="evenodd" clip-rule="evenodd" d="M70.1526 17.4435C70.1655 17.4091 70.2256 17.6412 70.2342 17.9678C70.2213 18.0022 70.2041 18.0323 70.187 18.0667C70.0881 18.2644 70.1053 18.4664 70.1612 18.6856C70.1096 18.8833 70.0322 19.0767 69.9119 19.2486C69.4004 19.9664 68.1712 20.22 67.836 20.0266C67.5007 19.8289 69.8345 17.2028 70.1526 17.4435Z" fill="#DD441F"/>
<path fill-rule="evenodd" clip-rule="evenodd" d="M67.075 12.7974C67.1352 12.8188 67.1696 12.8403 67.2255 12.8403C67.3587 12.879 67.5005 12.8747 67.8358 12.7157C68.1624 12.561 68.704 12.4191 69.2283 12.4492C69.671 12.4922 70.0922 12.6512 70.3372 13.0165C70.926 13.8804 70.5779 14.7186 70.2341 15.2644C69.8902 15.8102 69.6237 16.038 69.9977 16.5022C70.3716 16.9664 70.277 17.8346 70.1266 18.1355C69.9762 18.4363 70.1051 18.1913 70.0965 18.2472C70.0922 18.7415 67.9346 20.6197 67.6424 19.9406C67.4447 19.485 68.0507 18.4922 68.1023 17.8045C68.1538 17.1168 68.8673 15.1527 68.2699 14.4349C67.6725 13.7128 66.5808 15.1226 66.3444 14.5939C66.108 14.0696 66.7054 13.3174 67.075 12.7974Z" fill="#EF7B66"/>
<path fill-rule="evenodd" clip-rule="evenodd" d="M70.2041 15.3204C69.9462 15.7201 69.8216 16.021 69.9247 16.3175C69.7227 16.5883 69.5594 16.7 69.0737 16.9321C68.5881 17.1685 68.2184 17.8734 68.2184 17.8734C68.1712 17.8476 68.1368 17.8132 68.1067 17.7788C68.1368 17.4092 68.1883 17.0955 68.1282 16.7731C68.1755 16.6442 68.2184 16.5582 68.2184 16.5582L69.9118 14.7917C69.9075 14.7874 70.1096 15.0926 70.2041 15.3204Z" fill="#DD441F"/>
<path fill-rule="evenodd" clip-rule="evenodd" d="M68.1236 12.6041C68.4374 12.501 68.8371 12.4279 69.2282 12.4494C69.6709 12.4924 70.1222 12.5354 70.5391 13.15C70.956 13.7646 70.6036 14.8348 70.3715 15.2001C70.1394 15.5698 70.0405 15.5955 69.9632 15.7331C69.211 16.2832 68.2225 16.5927 68.2225 16.5927C68.8156 15.7718 69.6193 14.3749 69.2798 13.3864C69.1294 12.9394 68.8629 12.5783 68.1236 12.6041Z" fill="#FCD09E"/>
<path fill-rule="evenodd" clip-rule="evenodd" d="M67.5733 12.8276C67.7323 12.8878 67.7753 12.8534 67.9128 13.2488C68.0503 13.6443 67.8311 13.8162 67.2681 14.4437C66.7051 15.0755 65.5059 16.0984 65.261 16.4122C65.016 16.7216 65.5876 15.6342 65.867 14.8907C66.1463 14.1428 66.5117 13.9795 66.1206 13.4766C65.7294 12.9738 65.5704 12.7159 65.5704 12.7159C65.5704 12.7159 65.6263 12.4451 65.0246 12.7976C64.4701 13.1242 63.4902 13.6787 62.9185 13.2918C62.9572 13.1887 63.0518 13.0425 63.2882 12.8405C63.9501 12.2732 63.9587 12.2603 64.6678 11.8821C65.3813 11.5039 65.5446 10.9666 66.0733 11.5082C66.6019 12.0497 66.3483 12.6299 66.8039 12.7073C67.1865 12.7761 67.2251 12.9394 67.5733 12.8276Z" fill="#FCD09E"/>
<path fill-rule="evenodd" clip-rule="evenodd" d="M71.751 37.7731C73.1865 40.2359 74.953 43.8892 74.953 48.7975C74.953 53.7058 73.6894 58.6399 71.8498 60.8834H66.6879C64.8441 58.6399 63.5848 53.7058 63.5848 48.7975C63.5848 43.8892 65.3513 40.2359 66.7868 37.7731H71.751Z" fill="#0C3D75"/>
<path fill-rule="evenodd" clip-rule="evenodd" d="M64.4316 55.7903C63.8943 53.6757 63.5806 51.2301 63.5806 48.7975C63.5806 43.8892 65.3471 40.2359 66.7826 37.7731H70.9388C72.0691 40.9193 72.9889 54.4321 66.6966 55.9064C65.8241 56.1084 65.072 56.0482 64.4316 55.7903Z" fill="#2558A5"/>
<path fill-rule="evenodd" clip-rule="evenodd" d="M73.0364 40.2184C73.1696 40.5106 73.3028 40.8115 73.4275 41.1253H65.1066C65.2355 40.8115 65.3644 40.5106 65.4977 40.2184H73.0364Z" fill="#A86426"/>
<path fill-rule="evenodd" clip-rule="evenodd" d="M65.1066 41.1253C65.2355 40.8115 65.3644 40.5106 65.4977 40.2184H71.4719C71.5106 40.5063 71.5493 40.8072 71.5836 41.1253H65.1066Z" fill="#E0B169"/>
<path fill-rule="evenodd" clip-rule="evenodd" d="M12.439 74.684V63.5565C12.439 63.0795 12.8302 62.6884 13.3072 62.6884H15.8817C16.3588 62.6884 16.7499 63.0795 16.7499 63.5565V74.684C16.7499 75.1611 16.3588 75.5522 15.8817 75.5522H13.3072C12.8302 75.5522 12.439 75.1611 12.439 74.684Z" fill="#974F1C"/>
<path fill-rule="evenodd" clip-rule="evenodd" d="M65.9705 74.684V63.5565C65.9705 63.0795 66.3616 62.6884 66.8387 62.6884H69.4132C69.8903 62.6884 70.2814 63.0795 70.2814 63.5565V74.684C70.2814 75.1611 69.8903 75.5522 69.4132 75.5522H66.8387C66.3616 75.5522 65.9705 75.1611 65.9705 74.684Z" fill="#974F1C"/>
<path fill-rule="evenodd" clip-rule="evenodd" d="M16.7456 67.6783H12.439V63.5565C12.439 63.0795 12.8302 62.6884 13.3072 62.6884H15.8817C16.3588 62.6884 16.7499 63.0795 16.7499 63.5565V67.6783H16.7456Z" fill="#713711"/>
<path fill-rule="evenodd" clip-rule="evenodd" d="M70.2771 67.6783H65.9705V63.5565C65.9705 63.0795 66.3616 62.6884 66.8387 62.6884H69.4132C69.8903 62.6884 70.2814 63.0795 70.2814 63.5565V67.6783H70.2771Z" fill="#713711"/>
<path fill-rule="evenodd" clip-rule="evenodd" d="M1.08792 60.8792H81.138C81.6151 60.8792 82.0062 61.2704 82.0062 61.7474V64.3219C82.0062 64.799 81.6151 65.1901 81.138 65.1901H1.08792C0.610846 65.1901 0.219727 64.799 0.219727 64.3219V61.7474C0.219727 61.2704 0.610846 60.8792 1.08792 60.8792Z" fill="#713711"/>
<path fill-rule="evenodd" clip-rule="evenodd" d="M1.08792 60.8792H81.138C81.6151 60.8792 82.0062 61.2704 82.0062 61.7474V63.0454C82.0062 63.5225 81.6151 63.9136 81.138 63.9136H1.08792C0.610846 63.9136 0.219727 63.5225 0.219727 63.0454V61.7474C0.219727 61.2704 0.610846 60.8792 1.08792 60.8792Z" fill="#974F1C"/>
<path fill-rule="evenodd" clip-rule="evenodd" d="M1.08794 60.8792H81.138C81.4948 60.8792 81.8042 61.0984 81.9374 61.4079C81.8042 61.7173 81.4948 61.9365 81.138 61.9365H1.08794C0.731206 61.9365 0.421751 61.7173 0.288513 61.4079C0.421751 61.0984 0.731206 60.8792 1.08794 60.8792Z" fill="#D8986F"/>
<path fill-rule="evenodd" clip-rule="evenodd" d="M77.9876 29.0996C77.9876 29.0996 77.6223 28.9362 77.2612 29.5895C76.9002 30.2385 76.8271 30.3159 76.3931 31.313C75.959 32.3102 74.575 33.2987 71.6996 33.4792C70.5607 33.5523 70.1824 33.2815 70.1824 33.2815C69.1681 29.7185 74.7426 27.9219 77.9876 29.0996Z" fill="#86AA4D"/>
<path fill-rule="evenodd" clip-rule="evenodd" d="M68.2654 14.4866C68.3213 14.3619 68.4545 14.2674 67.1393 15.0453C65.8242 15.8232 66.4216 16.223 65.5276 17.1513C64.6336 18.0797 64.2769 17.8476 63.817 18.4235C63.3571 18.9995 62.9918 19.8376 63.5075 19.9665C65.0419 20.3447 67.2253 18.445 67.2898 16.7301C67.3156 16.0553 67.9689 14.9078 68.2654 14.4866Z" fill="#FCD09E"/>
<path fill-rule="evenodd" clip-rule="evenodd" d="M67.8143 19.67C67.8143 19.67 68.7384 19.5668 69.31 18.7459C69.8816 17.925 69.7183 17.1771 69.7183 17.1771C69.7183 17.1771 69.0435 18.4966 68.4891 18.6986C67.9303 18.9092 67.3157 19.4336 67.8143 19.67Z" fill="#FCD09E"/>
<defs>
<linearGradient id="paint0_linear_1_1472" x1="63.9123" y1="25.6283" x2="60.8393" y2="17.2128" gradientUnits="userSpaceOnUse">
<stop stop-color="#F3988F"/>
<stop offset="0.62" stop-color="#FCD09E"/>
<stop offset="1" stop-color="#FCD09E"/>
</linearGradient>
</defs>
</svg>
