<svg width="19" height="16" viewBox="0 0 19 16" fill="none" xmlns="http://www.w3.org/2000/svg">
<path d="M19 3.55859V12.5503C19 13.2773 18.7223 13.9768 18.2236 14.5057C17.7249 15.0346 17.0429 15.3529 16.3172 15.3956L16.15 15.4003H2.85C2.12305 15.4004 1.42356 15.1226 0.894652 14.6239C0.365743 14.1252 0.0473979 13.4432 0.00475011 12.7175L0 12.5503V3.55859L8.97275 9.54074L9.08295 9.60344C9.21282 9.6669 9.35546 9.69988 9.5 9.69988C9.64454 9.69988 9.78718 9.6669 9.91705 9.60344L10.0273 9.54074L19 3.55859Z" fill="#E6E9EA"/>
<path d="M16.1499 0.200195C17.1759 0.200195 18.0755 0.741695 18.5771 1.55585L9.49986 7.60735L0.422607 1.55585C0.660801 1.16897 0.98806 0.844677 1.37708 0.610009C1.7661 0.375341 2.2056 0.237109 2.65891 0.206845L2.84986 0.200195H16.1499Z" fill="#E6E9EA"/>
</svg>
