<svg width="38" height="31" viewBox="0 0 38 31" fill="none" xmlns="http://www.w3.org/2000/svg">
<path d="M38 6.7168V24.7003C38.0001 26.1542 37.4446 27.5532 36.4472 28.611C35.4497 29.6688 34.0858 30.3055 32.6344 30.3908L32.3 30.4003H5.7C4.2461 30.4004 2.84712 29.8449 1.7893 28.8475C0.731487 27.85 0.0947957 26.4861 0.00950022 25.0347L0 24.7003V6.7168L17.9455 18.6811L18.1659 18.8065C18.4256 18.9334 18.7109 18.9994 19 18.9994C19.2891 18.9994 19.5744 18.9334 19.8341 18.8065L20.0545 18.6811L38 6.7168Z" fill="white"/>
<path d="M32.2996 0C34.3516 0 36.1509 1.083 37.1541 2.7113L18.9996 14.8143L0.845093 2.7113C1.32148 1.93756 1.976 1.28896 2.75404 0.819627C3.53208 0.350292 4.41107 0.0738268 5.31769 0.0132999L5.69959 0H32.2996Z" fill="white"/>
</svg>
