<svg width="13" height="15" viewBox="0 0 13 15" fill="none" xmlns="http://www.w3.org/2000/svg">
<path d="M1.34894 6.43424C1.30032 6.48284 1.24231 6.52144 1.1783 6.54779C1.11429 6.57414 1.04557 6.58771 0.976147 6.58771C0.906727 6.58771 0.838004 6.57414 0.773994 6.54779C0.709985 6.52144 0.651974 6.48284 0.603353 6.43424C0.50439 6.3355 0.448936 6.20258 0.448936 6.06413C0.448936 5.92567 0.50439 5.79275 0.603353 5.69401L5.21529 1.12513C6.25529 0.333145 7.30141 -0.047095 8.34294 0.00465366C9.65518 0.070652 10.6768 0.56114 11.544 1.36587C12.428 2.18635 13 3.35707 13 4.77603C13 5.86501 12.6773 6.82348 11.9959 7.67396L5.49365 14.2438C4.836 14.7725 4.10494 15.0283 3.32188 14.9975C2.32776 14.957 1.58829 14.642 1.03847 14.1088C0.394588 13.4856 0 12.7198 0 11.6901C0 10.8711 0.288294 10.1151 0.883235 9.40567L6.60629 3.67506C7.06512 3.19507 7.514 2.91008 7.97282 2.84108C8.27907 2.79378 8.59246 2.82064 8.88569 2.91933C9.17892 3.01803 9.44309 3.18555 9.65518 3.40732C10.062 3.82956 10.2364 4.35604 10.1752 4.95528C10.1331 5.36402 9.96259 5.74051 9.64906 6.10125L4.38788 11.3871C4.33958 11.4359 4.28186 11.4747 4.21808 11.5014C4.15431 11.5281 4.08576 11.542 4.01643 11.5425C3.9471 11.5429 3.87838 11.5298 3.81428 11.5039C3.75018 11.478 3.69197 11.4398 3.64306 11.3916C3.54348 11.2935 3.4872 11.1609 3.48634 11.0224C3.48549 10.884 3.54012 10.7507 3.63847 10.6514L8.87441 5.39252C9.02735 5.21627 9.10765 5.03853 9.12677 4.84953C9.15735 4.54954 9.08394 4.32829 8.89353 4.13105C8.79737 4.03003 8.67723 3.95389 8.54382 3.9094C8.4104 3.86491 8.26784 3.85346 8.12882 3.87606C7.943 3.90381 7.683 4.06955 7.36259 4.40404L1.66324 10.1091C1.25259 10.6004 1.05376 11.1216 1.05376 11.6909C1.05376 12.4063 1.31759 12.9186 1.77412 13.3603C2.13735 13.7128 2.63059 13.9228 3.36471 13.9528C3.88471 13.973 4.36647 13.8043 4.78553 13.4713L11.2068 6.98398C11.7 6.36374 11.9462 5.63401 11.9462 4.77678C11.9462 3.66531 11.505 2.76383 10.8236 2.13085C10.1278 1.48437 9.33247 1.10338 8.29018 1.05088C7.51935 1.01188 6.71106 1.30587 5.90659 1.91036L1.34894 6.43424Z" fill="#0E9EFF"/>
</svg>
