<svg width="17" height="17" viewBox="0 0 17 17" fill="none" xmlns="http://www.w3.org/2000/svg">
<path d="M16 8.49957H5.98243M5.98243 8.49957C5.98243 8.99303 5.7954 9.46628 5.46391 9.81521C5.13243 10.1641 4.68284 10.3602 4.21405 10.3602C3.74527 10.3602 3.29568 10.1641 2.9642 9.81521C2.63271 9.46628 2.44649 8.99303 2.44649 8.49957M5.98243 8.49957C5.98243 8.00611 5.7954 7.53286 5.46391 7.18393C5.13243 6.835 4.68284 6.63898 4.21405 6.63898C3.74527 6.63898 3.29568 6.835 2.9642 7.18393C2.63271 7.53286 2.44649 8.00611 2.44649 8.49957M2.44649 8.49957H1M16 14.1385H11.3395M11.3395 14.1385C11.3395 14.6321 11.1528 15.1059 10.8212 15.4549C10.4897 15.8039 10.04 16 9.57108 16C9.10229 16 8.65271 15.8031 8.32122 15.4542C7.98974 15.1053 7.80351 14.632 7.80351 14.1385M11.3395 14.1385C11.3395 13.645 11.1528 13.172 10.8212 12.823C10.4897 12.474 10.04 12.278 9.57108 12.278C9.10229 12.278 8.65271 12.474 8.32122 12.8229C7.98974 13.1718 7.80351 13.6451 7.80351 14.1385M7.80351 14.1385H1M16 2.8606H13.4824M13.4824 2.8606C13.4824 3.10493 13.4359 3.34688 13.3471 3.57262C13.2582 3.79836 13.128 4.00347 12.9639 4.17624C12.7998 4.34901 12.6049 4.48606 12.3905 4.57957C12.176 4.67307 11.9462 4.72119 11.7141 4.72119C11.2453 4.72119 10.7957 4.52517 10.4642 4.17624C10.1327 3.82731 9.94649 3.35406 9.94649 2.8606M13.4824 2.8606C13.4824 2.61626 13.4359 2.37432 13.3471 2.14858C13.2582 1.92284 13.128 1.71773 12.9639 1.54496C12.7998 1.37218 12.6049 1.23513 12.3905 1.14163C12.176 1.04813 11.9462 1 11.7141 1C11.2453 1 10.7957 1.19603 10.4642 1.54496C10.1327 1.89389 9.94649 2.36714 9.94649 2.8606M9.94649 2.8606H1" stroke="white" stroke-miterlimit="10" stroke-linecap="round"/>
</svg>
