<svg width="57" height="57" viewBox="0 0 57 57" fill="none" xmlns="http://www.w3.org/2000/svg">
<rect x="1" y="1" width="55" height="55" rx="27.5" fill="white" fill-opacity="0.8" stroke="#FFC000" stroke-width="2"/>
<path d="M40.0556 41L31.3056 32.6C30.6111 33.1333 29.8125 33.5556 28.9097 33.8667C28.0069 34.1778 27.0463 34.3333 26.0278 34.3333C23.5046 34.3333 21.3694 33.4942 19.6222 31.816C17.875 30.1378 17.0009 28.088 17 25.6667C17 23.2444 17.8741 21.1947 19.6222 19.5173C21.3704 17.84 23.5056 17.0009 26.0278 17C28.5509 17 30.6866 17.8391 32.4347 19.5173C34.1829 21.1956 35.0565 23.2453 35.0556 25.6667C35.0556 26.6444 34.8935 27.5667 34.5694 28.4333C34.2454 29.3 33.8056 30.0667 33.25 30.7333L42 39.1333L40.0556 41ZM26.0278 31.6667C27.7639 31.6667 29.2398 31.0836 30.4556 29.9173C31.6713 28.7511 32.2787 27.3342 32.2778 25.6667C32.2778 24 31.6704 22.5836 30.4556 21.4173C29.2407 20.2511 27.7648 19.6676 26.0278 19.6667C24.2917 19.6667 22.8162 20.2502 21.6014 21.4173C20.3866 22.5844 19.7787 24.0009 19.7778 25.6667C19.7778 27.3333 20.3856 28.7502 21.6014 29.9173C22.8171 31.0844 24.2926 31.6676 26.0278 31.6667Z" fill="#FFC000"/>
</svg>
