<svg width="74" height="80" viewBox="0 0 74 80" fill="none" xmlns="http://www.w3.org/2000/svg">
<g clip-path="url(#clip0_2001_6150)">
<path fill-rule="evenodd" clip-rule="evenodd" d="M59.6341 56.9162C59.6749 57.2836 59.6749 57.6917 59.6749 58.0999L73.1443 55.855L73.3076 58.3448L59.4708 60.6713L59.2259 61.8958L72.0422 59.7326L72.2055 62.2224L58.2871 64.5489C58.0831 64.9979 57.8382 65.4468 57.5933 65.855L66.1647 64.4264L66.5729 66.8754L55.0627 68.7938C51.3484 71.9366 46.6953 72.0183 46.6953 72.0183L59.2259 54.4672L73.6341 52.0591L73.7974 54.5489L59.6341 56.9162Z" fill="#F2D4A7"/>
<path fill-rule="evenodd" clip-rule="evenodd" d="M61.7559 41.1203C60.2865 33.3244 57.0212 26.304 52.3682 20.4673L60.3682 63.7326C61.2253 60.9571 61.8784 58.0999 62.2049 55.1612L60.6539 56.2224L62.2457 53.8959L59.8784 55.4877L62.4498 52.1408V52.0591L59.4702 53.5693L62.5314 50.4265C62.6131 47.4061 62.3273 44.2632 61.7559 41.1203Z" fill="#D8D6D1"/>
<path fill-rule="evenodd" clip-rule="evenodd" d="M48.5727 43.5695C47.0624 35.3246 48.6135 27.243 52.4094 20.5083L60.4094 63.7736C58.0012 61.7736 55.8788 59.4471 54.0829 56.8756L55.5522 57.243L53.2665 55.6103L56.042 56.2634L52.3278 54.0185L55.7563 54.3858L51.4706 52.3859C50.1105 49.5916 49.1356 46.6258 48.5727 43.5695Z" fill="#E8E2D8"/>
<path fill-rule="evenodd" clip-rule="evenodd" d="M52.3682 20.4673L60.409 68.5489L62.1233 72.9163" fill="#86837E"/>
<path fill-rule="evenodd" clip-rule="evenodd" d="M43.8789 5.65088C46.9401 5.65088 49.4299 8.14067 49.4299 11.2019C49.4299 12.6713 48.8585 14.0182 47.9197 14.9978C49.4707 15.5284 50.5728 16.9978 50.5728 18.7121C50.5728 20.7937 48.9401 22.508 46.8585 22.6305C47.2054 23.24 47.3883 23.9291 47.3891 24.6305C47.3891 25.5284 47.1034 26.3448 46.5728 27.0386C47.9197 27.6509 48.8585 29.0386 48.8585 30.6305C48.8585 31.2019 48.736 31.7325 48.5319 32.2223L37.6748 27.3652C39.8381 24.957 41.185 21.7733 41.185 18.2631C41.185 15.2019 40.1646 12.3856 38.4503 10.0999C38.9401 7.56925 41.185 5.65088 43.8789 5.65088Z" fill="#51392E"/>
<path fill-rule="evenodd" clip-rule="evenodd" d="M39.8381 50.0592L47.5932 47.9775L53.0218 56.6306H36.2871" fill="#D68048"/>
<path fill-rule="evenodd" clip-rule="evenodd" d="M37.6748 27.3652L48.5728 32.2224V43.5693L46.0013 45.4877L44.736 43.4469" fill="#E4AB74"/>
<path fill-rule="evenodd" clip-rule="evenodd" d="M37.9189 27.4468L48.5312 32.2223C47.9598 33.61 46.6128 34.5896 45.021 34.5896C42.9394 34.5896 41.2251 32.0182 41.2251 30.6304L37.9189 27.4468Z" fill="#D68048"/>
<path fill-rule="evenodd" clip-rule="evenodd" d="M53.0214 43.5288V46.5084L47.5928 47.9778L46.001 45.488L48.5724 43.5696" fill="#8C6E4E"/>
<path fill-rule="evenodd" clip-rule="evenodd" d="M53.0213 46.5083V56.6307L47.5928 47.9777" fill="#744D3E"/>
<path fill-rule="evenodd" clip-rule="evenodd" d="M44.6545 51.0796C48.4096 51.0796 51.6749 53.3653 53.0218 56.6714H36.2871C37.634 53.3653 40.8994 51.0796 44.6545 51.0796Z" fill="#F2D4A7"/>
<path fill-rule="evenodd" clip-rule="evenodd" d="M23.3066 56.6304H36.2862L29.1842 69.814L23.3066 64.8753" fill="#E8E2D8"/>
<path fill-rule="evenodd" clip-rule="evenodd" d="M33.9597 19.0386C37.4291 17.0386 39.1842 13.2019 38.6944 9.44678L23.3066 18.3447C26.2862 20.6305 30.4903 21.0386 33.9597 19.0386Z" fill="#96604D"/>
<path fill-rule="evenodd" clip-rule="evenodd" d="M47.5932 47.9775L39.8789 50.0592C42.4912 52.0592 46.2463 51.0796 47.5932 47.9775Z" fill="#E4AE96"/>
<path fill-rule="evenodd" clip-rule="evenodd" d="M44.7358 43.4468L43.8379 46.1815L41.7154 46.5896L39.8379 50.059L46.0012 45.4876" fill="#D78267"/>
<path fill-rule="evenodd" clip-rule="evenodd" d="M39.4707 40.2225L44.736 43.447L40.9401 37.4878" fill="#E4AB74"/>
<path fill-rule="evenodd" clip-rule="evenodd" d="M40.123 40.6305L40.6537 39.6509L42.8169 42.3039" fill="#AF875E"/>
<path fill-rule="evenodd" clip-rule="evenodd" d="M24.2871 35.1206L25.2259 46.0594L35.1034 48.141L37.0626 44.59L32.8994 36.3451" fill="#F2D4A7"/>
<path fill-rule="evenodd" clip-rule="evenodd" d="M25.2256 46.0591L35.1031 48.1407L33.144 51.6917L25.7154 51.2836" fill="#AF875E"/>
<path fill-rule="evenodd" clip-rule="evenodd" d="M53.0218 56.6307L29.1851 69.8144L36.2871 56.6307M30.1647 20.3042L33.634 25.8144L40.981 37.4879L24.2871 35.1613C25.2259 35.1613 26.1647 34.1409 26.1647 33.5287C26.1647 32.9164 26.083 32.9573 25.9606 32.7124H26.1647C26.8177 32.7124 27.3075 32.1818 27.3075 31.5695C27.3075 30.9164 26.7769 30.4266 26.1647 30.4266C26.083 30.4266 26.0014 30.4266 25.9198 30.4675C26.1647 30.2634 26.3279 29.9369 26.3279 29.6103C26.3279 29.3246 26.2463 29.0797 26.0422 28.8756H26.2463C27.1851 28.8756 28.0014 28.1001 28.0014 27.1205C28.0014 26.8756 27.9606 26.6307 27.8789 26.4266C28.532 26.4266 29.0218 25.896 29.0218 25.2838C29.0218 24.6307 28.4912 24.1409 27.8789 24.1409C27.7973 24.1409 27.7157 24.1409 27.634 24.1818C27.8789 23.9777 28.0422 23.6511 28.0422 23.3246C28.0422 22.6715 27.5116 22.1818 26.8994 22.1818H26.8585C27.2667 21.6511 27.5932 21.0389 27.7973 20.345C28.4912 20.345 29.3075 20.3858 30.1647 20.3042Z" fill="#E4AB74"/>
<path fill-rule="evenodd" clip-rule="evenodd" d="M53.0213 56.6304L37.9601 77.2426L29.1846 69.814" fill="#D8D6D1"/>
<path fill-rule="evenodd" clip-rule="evenodd" d="M26.7356 22.059C27.4295 22.059 27.9193 22.5896 27.9193 23.2019C27.9193 23.5692 27.756 23.8549 27.5111 24.059C27.5927 24.059 27.6744 24.0182 27.756 24.0182C28.4091 24.0182 28.8989 24.5488 28.8989 25.1611C28.8989 25.8141 28.3682 26.3039 27.756 26.3039C27.8376 26.508 27.8784 26.7529 27.8784 26.9978C27.8784 27.9774 27.1029 28.7529 26.1233 28.7529H25.9193C26.0825 28.957 26.205 29.2019 26.205 29.4876C26.205 29.8549 26.0417 30.1406 25.7968 30.3447C25.8784 30.3447 25.9601 30.3039 26.0417 30.3039C26.6948 30.3039 27.1846 30.8345 27.1846 31.4468C27.1846 32.0998 26.654 32.5896 26.0417 32.5896H25.8376C25.9601 32.8345 26.0417 32.7937 26.0417 33.406C26.0417 34.0182 25.1438 35.0386 24.1642 35.0386L24.2866 36.7529C24.9397 37.2427 25.3887 38.059 25.3887 38.957C25.3887 40.2631 24.4499 41.3651 23.1846 41.61V18.3447C24.4499 19.3243 25.9601 19.9774 27.5519 20.2223C27.4703 20.8753 27.1438 21.4876 26.7356 22.059Z" fill="#744D3E"/>
<path fill-rule="evenodd" clip-rule="evenodd" d="M23.3072 41.6918C23.1439 41.7326 22.9398 41.7326 22.7766 41.7326C21.8786 41.7326 21.0623 41.2836 20.5725 40.5897C20.2868 41.0795 19.7153 41.406 19.1031 41.406C18.1643 41.406 17.348 40.6305 17.348 39.6509C17.348 39.202 17.5113 38.7938 17.797 38.4673C17.0215 38.0999 16.45 37.3244 16.2868 36.4264C14.9398 36.3448 13.8378 35.3244 13.7153 33.9775C11.5929 33.8142 9.91942 32.0591 9.91942 29.8958C9.91942 29.3652 10.0011 28.8754 10.2051 28.4264C9.63371 27.9367 9.14391 27.2836 8.81738 26.5897L23.2664 18.2632V41.6918H23.3072Z" fill="#2E2E2D"/>
<path fill-rule="evenodd" clip-rule="evenodd" d="M23.3069 41.692C20.5722 41.692 18.3682 39.4879 18.3682 36.7532C18.3682 34.0185 20.5722 31.8145 23.3069 31.8145V41.692ZM39.4702 40.2226L37.062 44.59L41.7151 46.59L43.8376 46.1818L44.7355 43.4471L39.4702 40.2226Z" fill="#F2D4A7"/>
<path fill-rule="evenodd" clip-rule="evenodd" d="M39.8379 50.0592L46.0012 45.4878L47.593 47.9776" fill="#FEFEFE"/>
<path fill-rule="evenodd" clip-rule="evenodd" d="M21.1028 56.6306C20.3273 56.2224 19.7559 55.3653 19.7559 54.4265C19.7559 53.0795 20.8171 51.9775 22.164 51.9367C21.8375 51.651 21.6334 51.202 21.6334 50.7122C21.6334 50.1816 21.8783 49.7326 22.2048 49.4469C21.3477 49.0387 20.7763 48.1816 20.7763 47.202C20.7764 46.6548 20.9562 46.1229 21.288 45.6878C21.6199 45.2527 22.0854 44.9387 22.613 44.7938C22.0416 44.5489 21.5926 43.9367 21.5926 43.2428C21.5926 42.304 22.3273 41.5693 23.2661 41.5693V56.6714H21.1028V56.6306Z" fill="#2E2E2D"/>
<path fill-rule="evenodd" clip-rule="evenodd" d="M43.6743 38.3041C45.0212 38.5082 46.0416 39.6919 46.0416 41.0796C46.0416 42.1 45.511 42.9572 44.7355 43.447L43.2253 41.0796L35.8375 29.3653L30.1641 20.3041C31.4702 20.1817 32.7763 19.7735 34.0008 19.0796C37.4702 17.0796 39.2253 13.2429 38.7355 9.48779C40.5314 11.8551 41.5926 14.7939 41.5926 18.0184C41.5926 21.6511 40.2049 24.998 37.96 27.4878C41.4294 29.6102 43.7151 33.4062 43.7151 37.7735C43.6743 37.896 43.6743 38.1 43.6743 38.3041Z" fill="#F2D4A7"/>
<path fill-rule="evenodd" clip-rule="evenodd" d="M28.0005 12.3449L27.9189 12.4265L27.8373 12.549L27.7964 12.5082C27.3883 12.2225 27.1026 11.8143 27.0209 11.3245C26.9393 10.8347 27.0209 10.3857 27.3066 9.97755V9.93674C27.5924 9.52857 28.0005 9.28368 28.4903 9.20204C28.9801 9.12041 29.4699 9.24286 29.8781 9.52857H29.9189C30.6944 10.0592 31.2658 10.9163 31.4291 11.8551C31.6332 12.7939 31.4291 13.7327 30.8985 14.5082C30.3679 15.2837 29.5107 15.7735 28.6128 15.9367C27.674 16.1 26.6944 15.8551 25.9189 15.3245C24.7352 14.5082 23.9189 13.2837 23.6332 11.8959C23.3475 10.5082 23.6332 9.12041 24.4495 7.97755C25.2658 6.8347 26.4903 6.05919 27.8781 5.8551C29.3066 5.61021 30.7352 5.97755 31.8781 6.79388C33.4291 7.8551 34.4903 9.48776 34.8577 11.3245C35.225 13.1204 34.8577 14.998 33.7964 16.549C32.7352 18.0592 31.1026 19.0796 29.2658 19.3653C27.3883 19.651 25.5107 19.202 23.9597 18.1408L23.9189 18.1L24.0005 18.0184L24.0822 17.8959L24.123 17.9367C25.6332 18.9571 27.4291 19.4061 29.225 19.1204C30.9801 18.8347 32.5311 17.8959 33.5515 16.4265C34.572 14.9571 34.8985 13.1612 34.572 11.4469C34.2046 9.65102 33.1842 8.1 31.674 7.07959C30.572 6.30408 29.225 5.97755 27.8781 6.18163C26.572 6.38572 25.4291 7.07959 24.6536 8.18163C23.8781 9.28368 23.6332 10.5898 23.8781 11.8959C24.123 13.2429 24.9393 14.3857 26.0413 15.1612C26.776 15.651 27.674 15.8959 28.5311 15.7327C29.3883 15.6102 30.1638 15.1204 30.6536 14.4265C31.1434 13.7327 31.3066 12.8347 31.1434 11.9776C30.9801 11.1204 30.4495 10.3449 29.7148 9.8551C29.3475 9.61021 28.9393 9.48776 28.5311 9.56939C28.123 9.65102 27.7556 9.8551 27.5107 10.1816C27.2658 10.5082 27.1842 10.9571 27.2658 11.3653C27.3475 11.7735 27.5924 12.1408 27.9597 12.3857L28.0005 12.3449Z" fill="#744D3E"/>
<path fill-rule="evenodd" clip-rule="evenodd" d="M25.1033 17.202C27.838 18.1408 30.6135 18.0592 33.1849 16.7122C34.94 15.7734 36.4094 14.3449 37.5115 12.7122C38.5319 11.1612 39.2666 9.32447 39.4706 7.48773C39.6747 5.77345 39.389 3.85508 38.1645 2.50814C36.8176 1.03875 34.94 0.18161 32.94 0.304059C32.0829 0.344875 31.2257 0.63059 30.4502 1.07957C29.7564 1.52855 29.1441 2.09998 28.7768 2.83467C28.0829 4.18161 28.2053 5.69181 28.8176 7.07957C29.4706 8.54896 30.6135 9.651 32.3278 9.56936C33.0625 9.52855 33.7564 9.28365 34.4094 8.9163C35.0217 8.54896 35.5931 8.05916 36.0013 7.48773C36.5727 6.67141 36.8992 5.56937 36.2053 4.71222L36.1645 4.63059L36.4502 4.38569L36.4911 4.46732C37.2666 5.44692 36.9808 6.71222 36.287 7.69181C35.838 8.30406 35.2257 8.83467 34.5727 9.24283C33.8788 9.651 33.1033 9.8959 32.3278 9.97753C30.4502 10.0592 29.1849 8.9163 28.4502 7.28365C27.7972 5.81426 27.6339 4.18161 28.4094 2.75304C28.8176 1.93671 29.4706 1.28365 30.2053 0.834671C31.0217 0.344875 31.9196 0.0591611 32.8584 0.0183447C34.9808 -0.144921 36.94 0.793855 38.3686 2.34488C39.6747 3.73263 39.9604 5.77345 39.7564 7.61018C39.5523 9.48773 38.7768 11.4061 37.7564 12.9571C36.6135 14.6714 35.1033 16.1408 33.3074 17.0796C30.6543 18.4673 27.7564 18.549 24.94 17.6102L24.8584 17.5694L24.9808 17.2428L25.1033 17.202Z" fill="#AF875E"/>
<path fill-rule="evenodd" clip-rule="evenodd" d="M40.9803 37.4879L27.3477 35.5696C27.9191 31.5287 30.2048 27.9777 33.6742 25.8145L40.9803 37.4879Z" fill="#F8E9D3"/>
<path fill-rule="evenodd" clip-rule="evenodd" d="M27.3066 35.5696C27.8781 31.5287 30.1638 27.9777 33.6332 25.8145L34.123 26.59C28.5719 28.9981 27.3066 35.5696 27.3066 35.5696Z" fill="#8C6E4E"/>
<path fill-rule="evenodd" clip-rule="evenodd" d="M40.9802 37.4879L32.3271 36.2634C32.6945 33.7327 34.1639 31.447 36.3271 30.1001L40.9802 37.4879Z" fill="#E4AB74"/>
<path fill-rule="evenodd" clip-rule="evenodd" d="M40.981 37.4878L32.8994 36.3449C33.2259 33.9776 34.6137 31.8551 36.6137 30.5898L40.981 37.4878Z" fill="#FEFEFE"/>
<path fill-rule="evenodd" clip-rule="evenodd" d="M34.4502 32.5898C35.0216 31.8143 35.7971 31.1205 36.6135 30.5898L38.8992 34.1817C38.4502 34.4674 37.8788 34.6307 37.3073 34.6307C35.9604 34.6307 34.8584 33.7735 34.4502 32.5898Z" fill="#BBCAD6"/>
<path fill-rule="evenodd" clip-rule="evenodd" d="M36.3683 30.7531C36.45 30.7123 36.5316 30.6307 36.6132 30.5898L37.9602 32.7531C37.7561 32.8756 37.5112 32.9572 37.2663 32.9572C36.5724 32.9572 36.001 32.3858 36.001 31.6919C36.001 31.2837 36.1642 30.9572 36.3683 30.7531Z" fill="#778086"/>
<path fill-rule="evenodd" clip-rule="evenodd" d="M36.0011 31.2427C36.2052 31.2427 36.3685 31.4059 36.3685 31.61C36.3685 31.8141 36.2052 31.9774 36.0011 31.9774C35.7971 31.9774 35.6338 31.8141 35.6338 31.61C35.6338 31.4059 35.7971 31.2427 36.0011 31.2427Z" fill="#FEFEFE"/>
<path fill-rule="evenodd" clip-rule="evenodd" d="M40.9808 37.4876L37.0625 44.5896C34.4502 43.1611 32.8584 40.4264 32.8584 37.4876C32.8584 37.1202 32.8992 36.7529 32.94 36.3447L40.9808 37.4876Z" fill="#F8E9D3"/>
<path fill-rule="evenodd" clip-rule="evenodd" d="M36.2862 56.6306H23.3066V41.6918L24.776 40.8755L25.7148 51.2837L33.1434 51.6918L37.0617 44.5898L41.7148 46.5898" fill="#8C6E4E"/>
<mask id="mask0_2001_6150" style="mask-type:luminance" maskUnits="userSpaceOnUse" x="0" y="54" width="9" height="9">
<path d="M0.000976562 54.915H8.04179V62.5493H0.000976562V54.915Z" fill="#E4AB74"/>
</mask>
<g mask="url(#mask0_2001_6150)">
<path fill-rule="evenodd" clip-rule="evenodd" d="M0.000976562 54.957C0.000976562 54.957 3.42955 54.4672 6.08261 56.8345C7.18465 57.8141 7.71526 58.9978 8.04179 60.059V62.5488L0.000976562 54.957Z" fill="#E4AB74"/>
</g>
<path fill-rule="evenodd" clip-rule="evenodd" d="M10.8175 62.5488C11.2257 62.5896 11.6746 62.6304 12.1644 62.712V47.161L14.9808 47.4467V63.4059L16.3277 63.8957V49.1202L19.144 49.4059V65.4467C19.593 65.7733 20.042 66.0998 20.491 66.508V56.6304H23.3073V69.8957C26.1236 74.6712 25.3481 79.8549 25.3481 79.8549L8.04199 62.508V45.9365L10.8583 46.2222L10.8175 62.5488Z" fill="#F2D4A7"/>
<path fill-rule="evenodd" clip-rule="evenodd" d="M59.2667 61.2431C60.8178 59.1206 60.8178 56.3451 59.5116 54.2227L52.6953 63.692C55.1035 64.2635 57.7565 63.3655 59.2667 61.2431Z" fill="#F8E9D3"/>
<path fill-rule="evenodd" clip-rule="evenodd" d="M54.9394 68.9161C56.8578 66.2631 56.8986 62.7937 55.266 60.1406L46.7354 71.9774C49.7149 72.7121 52.9803 71.61 54.9394 68.9161Z" fill="#F8E9D3"/>
</g>
<defs>
<clipPath id="clip0_2001_6150">
<rect width="73.8775" height="80" fill="white" transform="translate(0.000976562)"/>
</clipPath>
</defs>
</svg>
