<svg width="39" height="43" viewBox="0 0 39 43" fill="none" xmlns="http://www.w3.org/2000/svg">
<g opacity="0.6">
<mask id="path-1-inside-1_2001_17494" fill="white">
<path fill-rule="evenodd" clip-rule="evenodd" d="M16.2865 12.4587C16.2865 12.4587 18.1441 10.9547 18.4806 9.88614C18.8523 8.70609 18.3397 7.38443 18.131 6.14418C17.9247 4.91633 17.2407 2.5003 17.2407 2.5003C17.2407 2.5003 14.647 5.49586 14.3469 6.8307C13.8236 9.15848 14.5474 10.7499 16.2865 12.4587Z"/>
</mask>
<path fill-rule="evenodd" clip-rule="evenodd" d="M16.2865 12.4587C16.2865 12.4587 18.1441 10.9547 18.4806 9.88614C18.8523 8.70609 18.3397 7.38443 18.131 6.14418C17.9247 4.91633 17.2407 2.5003 17.2407 2.5003C17.2407 2.5003 14.647 5.49586 14.3469 6.8307C13.8236 9.15848 14.5474 10.7499 16.2865 12.4587Z" fill="#B1B1B1" stroke="#B1B1B1" stroke-width="2" mask="url(#path-1-inside-1_2001_17494)"/>
<mask id="path-2-inside-2_2001_17494" fill="white">
<path fill-rule="evenodd" clip-rule="evenodd" d="M18.7239 31.9697C18.7239 31.9697 15.7588 31.7739 14.4371 31.1593C13.4079 30.6802 12.4921 29.9044 11.8148 29.0183C11.1102 28.0972 10.639 26.9873 10.4407 25.8793C10.3521 25.3838 10.5376 24.3894 10.5376 24.3894C10.5376 24.3894 11.2996 24.7312 11.6891 24.8812C12.7049 25.2724 13.8713 25.3451 14.776 25.9447C15.3966 26.3561 15.8202 26.9989 16.2468 27.5938C17.2305 28.9648 18.7239 31.9697 18.7239 31.9697Z"/>
</mask>
<path fill-rule="evenodd" clip-rule="evenodd" d="M18.7239 31.9697C18.7239 31.9697 15.7588 31.7739 14.4371 31.1593C13.4079 30.6802 12.4921 29.9044 11.8148 29.0183C11.1102 28.0972 10.639 26.9873 10.4407 25.8793C10.3521 25.3838 10.5376 24.3894 10.5376 24.3894C10.5376 24.3894 11.2996 24.7312 11.6891 24.8812C12.7049 25.2724 13.8713 25.3451 14.776 25.9447C15.3966 26.3561 15.8202 26.9989 16.2468 27.5938C17.2305 28.9648 18.7239 31.9697 18.7239 31.9697Z" fill="#B1B1B1" stroke="#B1B1B1" stroke-width="2" mask="url(#path-2-inside-2_2001_17494)"/>
<mask id="path-3-inside-3_2001_17494" fill="white">
<path fill-rule="evenodd" clip-rule="evenodd" d="M17.9929 27.9681C17.9929 27.9681 20.7363 27.0112 21.7615 26.0836C22.5598 25.3611 23.1387 24.3856 23.4499 23.3676C23.7734 22.3092 23.8053 21.1326 23.5782 20.0284C23.4766 19.5346 22.9276 18.6382 22.9276 18.6382C22.9276 18.6382 22.3319 19.1611 22.0181 19.4049C21.1999 20.0408 20.1189 20.4129 19.4844 21.2178C19.0491 21.7701 18.8879 22.4909 18.7055 23.167C18.285 24.7252 17.9929 27.9681 17.9929 27.9681Z"/>
</mask>
<path fill-rule="evenodd" clip-rule="evenodd" d="M17.9929 27.9681C17.9929 27.9681 20.7363 27.0112 21.7615 26.0836C22.5598 25.3611 23.1387 24.3856 23.4499 23.3676C23.7734 22.3092 23.8053 21.1326 23.5782 20.0284C23.4766 19.5346 22.9276 18.6382 22.9276 18.6382C22.9276 18.6382 22.3319 19.1611 22.0181 19.4049C21.1999 20.0408 20.1189 20.4129 19.4844 21.2178C19.0491 21.7701 18.8879 22.4909 18.7055 23.167C18.285 24.7252 17.9929 27.9681 17.9929 27.9681Z" fill="#B1B1B1" stroke="#B1B1B1" stroke-width="2" mask="url(#path-3-inside-3_2001_17494)"/>
<mask id="path-4-inside-4_2001_17494" fill="white">
<path fill-rule="evenodd" clip-rule="evenodd" d="M16.9835 19.2256C16.9835 19.2256 20.0402 17.4635 21.1325 16.1711C21.9466 15.2079 22.7069 14.0566 22.7942 12.8228C22.8908 11.46 21.4993 8.88896 21.4993 8.88896C21.4993 8.88896 21.1233 9.49178 20.8904 9.76225C20.2968 10.4519 19.4287 10.9196 18.8984 11.6537C18.2658 12.5294 17.8338 13.5405 17.5411 14.5654C17.1107 16.0723 16.9835 19.2256 16.9835 19.2256Z"/>
</mask>
<path fill-rule="evenodd" clip-rule="evenodd" d="M16.9835 19.2256C16.9835 19.2256 20.0402 17.4635 21.1325 16.1711C21.9466 15.2079 22.7069 14.0566 22.7942 12.8228C22.8908 11.46 21.4993 8.88896 21.4993 8.88896C21.4993 8.88896 21.1233 9.49178 20.8904 9.76225C20.2968 10.4519 19.4287 10.9196 18.8984 11.6537C18.2658 12.5294 17.8338 13.5405 17.5411 14.5654C17.1107 16.0723 16.9835 19.2256 16.9835 19.2256Z" fill="#B1B1B1" stroke="#B1B1B1" stroke-width="2" mask="url(#path-4-inside-4_2001_17494)"/>
<mask id="path-5-inside-5_2001_17494" fill="white">
<path fill-rule="evenodd" clip-rule="evenodd" d="M16.8138 23.0417C16.8138 23.0417 13.1132 21.6347 11.5882 20.4248C10.7191 19.7358 9.83848 18.8983 9.4783 17.8798C9.00535 16.5424 9.59682 13.7215 9.59682 13.7215C9.59682 13.7215 10.1292 14.2438 10.4235 14.4729C11.3198 15.1682 12.4346 15.5801 13.2675 16.3471C13.9437 16.9759 14.5056 17.7284 14.9641 18.5163C15.7905 19.9367 16.8138 23.0417 16.8138 23.0417Z"/>
</mask>
<path fill-rule="evenodd" clip-rule="evenodd" d="M16.8138 23.0417C16.8138 23.0417 13.1132 21.6347 11.5882 20.4248C10.7191 19.7358 9.83848 18.8983 9.4783 17.8798C9.00535 16.5424 9.59682 13.7215 9.59682 13.7215C9.59682 13.7215 10.1292 14.2438 10.4235 14.4729C11.3198 15.1682 12.4346 15.5801 13.2675 16.3471C13.9437 16.9759 14.5056 17.7284 14.9641 18.5163C15.7905 19.9367 16.8138 23.0417 16.8138 23.0417Z" fill="#B1B1B1" stroke="#B1B1B1" stroke-width="2" mask="url(#path-5-inside-5_2001_17494)"/>
<mask id="path-6-inside-6_2001_17494" fill="white">
<path fill-rule="evenodd" clip-rule="evenodd" d="M22.5993 35.9557C23.5221 36.5177 24.8921 35.7043 25.6693 35.01C26.48 34.2858 26.8372 33.1163 26.8832 32.0514C26.9535 30.4209 26.4809 29.2841 25.4716 27.9871C25.4716 27.9871 25.0313 28.6627 24.702 28.8943C23.189 29.9582 22.0359 30.9606 21.6239 32.5229C21.3247 33.6577 21.5984 35.3462 22.5993 35.9557Z"/>
</mask>
<path fill-rule="evenodd" clip-rule="evenodd" d="M22.5993 35.9557C23.5221 36.5177 24.8921 35.7043 25.6693 35.01C26.48 34.2858 26.8372 33.1163 26.8832 32.0514C26.9535 30.4209 26.4809 29.2841 25.4716 27.9871C25.4716 27.9871 25.0313 28.6627 24.702 28.8943C23.189 29.9582 22.0359 30.9606 21.6239 32.5229C21.3247 33.6577 21.5984 35.3462 22.5993 35.9557Z" fill="#B1B1B1" stroke="#B1B1B1" stroke-width="2" mask="url(#path-6-inside-6_2001_17494)"/>
<path d="M26.5605 40.7653C25.0201 38.7501 19.0932 33.5505 18.077 29.1363C17.3731 26.0791 15.938 17.984 16.5093 11.5497" stroke="#B1B1B1" stroke-linecap="round"/>
</g>
</svg>
