<svg width="36" height="36" viewBox="0 0 36 36" fill="none" xmlns="http://www.w3.org/2000/svg">
<circle cx="18" cy="18" r="18" fill="#205FE8"/>
<path d="M17.586 11.2659C19.4182 11.2659 21.1447 12.0781 22.41 13.3479V13.3516C22.41 12.7419 22.8202 12.2806 23.3872 12.2806H23.5312C24.426 12.2806 24.6052 13.1244 24.6052 13.3906L24.609 22.8669C24.5467 23.4879 25.2502 23.8089 25.641 23.4099C27.1597 21.8476 28.98 15.3706 24.6952 11.6206C20.6992 8.12038 15.336 8.69863 12.4845 10.6636C9.45372 12.7576 7.51647 17.3829 9.39822 21.7299C11.4532 26.4691 17.328 27.8829 20.8245 26.4729C22.5945 25.7581 23.4105 28.1476 21.5707 28.9299C18.798 30.1126 11.0707 29.9919 7.46172 23.7421C5.02347 19.5204 5.15247 12.0939 11.622 8.24638C16.5667 5.30113 23.091 6.11713 27.024 10.2234C31.134 14.5201 30.8962 22.5594 26.8837 25.6846C25.0665 27.1059 22.368 25.7236 22.3875 23.6529L22.3672 22.9779C21.102 24.2311 19.4182 24.9661 17.586 24.9661C13.9612 24.9661 10.77 21.7741 10.77 18.1531C10.77 14.4931 13.9612 11.2674 17.586 11.2674V11.2659ZM22.1452 17.8914C22.008 15.2386 20.0392 13.6411 17.6602 13.6411H17.5702C14.8282 13.6411 13.305 15.8011 13.305 18.2499C13.305 20.9956 15.1447 22.7296 17.559 22.7296C20.2537 22.7296 22.023 20.7579 22.152 18.4254L22.1452 17.8914Z" fill="#F4AB35"/>
</svg>
