<svg width="34" height="26" viewBox="0 0 34 26" fill="none" xmlns="http://www.w3.org/2000/svg">
<path fill-rule="evenodd" clip-rule="evenodd" d="M33.0042 24.5477C32.8669 24.494 32.7115 24.5553 32.6479 24.6883C32.6355 24.7181 32.6292 24.7499 32.6292 24.7821C32.6292 24.8571 32.6292 24.8759 32.6479 24.9228C32.6929 25.0217 32.7924 25.0844 32.9011 25.0822C33.0513 25.0874 33.1773 24.9698 33.1824 24.8196C33.1824 24.7821 33.1636 24.7446 33.1542 24.7259C33.1268 24.6629 33.0766 24.6126 33.0136 24.5852C33.0089 24.5665 33.0072 24.5594 33.0042 24.5477ZM32.9105 24.9978C32.9292 24.9978 32.9573 24.9978 32.9855 24.979C33.0324 24.9553 33.0691 24.9153 33.0886 24.8665C33.1288 24.7655 33.0837 24.6506 32.9855 24.604C32.9343 24.5836 32.8773 24.5836 32.8261 24.604C32.7467 24.632 32.694 24.7074 32.6948 24.7915C32.6948 24.8196 32.6948 24.8477 32.7136 24.8665C32.7215 24.8907 32.7342 24.913 32.7511 24.9321C32.7839 24.9556 32.7962 24.9644 32.8167 24.979C32.8636 24.9884 32.8812 24.9919 32.9105 24.9978ZM32.9948 24.6883C32.9728 24.6734 32.9463 24.6668 32.9198 24.6696C32.8636 24.6696 32.8425 24.6696 32.8073 24.6696C32.8073 24.7727 32.8073 24.8114 32.8073 24.8759C32.8308 24.8759 32.8396 24.8759 32.8542 24.8759C32.8542 24.829 32.8542 24.8114 32.8542 24.7821C32.8683 24.7821 32.8735 24.7821 32.8823 24.7821C32.9198 24.829 32.9339 24.8466 32.9573 24.8759C32.9902 24.8759 33.0025 24.8759 33.023 24.8759C32.9808 24.829 32.965 24.8114 32.9386 24.7821C32.9589 24.7821 32.9786 24.7755 32.9948 24.7634C33.0097 24.7487 33.0167 24.7278 33.0136 24.7071C33.0136 24.6883 33.0136 24.6696 32.9948 24.6508C32.9948 24.6696 32.9948 24.6766 32.9948 24.6883ZM32.8542 24.7821C32.8542 24.7493 32.8542 24.737 32.8542 24.7165C32.9011 24.7165 32.9187 24.7165 32.948 24.7165C32.9573 24.7305 32.9609 24.7358 32.9667 24.7446C32.9667 24.754 32.9667 24.7634 32.948 24.7727C32.9198 24.7727 32.9093 24.7727 32.8917 24.7727C32.873 24.7774 32.8659 24.7792 32.8542 24.7821ZM7.81931 23.5913C7.81931 23.1225 8.12873 22.7474 8.63505 22.7474C9.11325 22.7474 9.44142 23.1225 9.44142 23.5913C9.44142 24.0601 9.11325 24.4352 8.63505 24.4352C8.12873 24.4352 7.81931 24.0601 7.81931 23.5913ZM9.99463 22.2786C9.99463 23.596 9.99463 24.09 9.99463 24.9134C9.69927 24.9134 9.58851 24.9134 9.40392 24.9134C9.40392 24.754 9.40392 24.6942 9.40392 24.5946C9.21639 24.829 8.9351 24.9696 8.56004 24.9696C7.80993 24.9696 7.20985 24.4071 7.20985 23.5913C7.20985 22.7756 7.80056 22.2036 8.56004 22.2036C8.9351 22.2036 9.21639 22.3536 9.40392 22.588C9.40392 22.4286 9.40392 22.3689 9.40392 22.2692C9.69927 22.2692 9.81003 22.2692 9.99463 22.2692C9.99463 22.2739 9.99463 22.2757 9.99463 22.2786ZM29.7506 23.5913C29.7506 23.1225 30.06 22.7474 30.5664 22.7474C31.0539 22.7474 31.3727 23.1225 31.3727 23.5913C31.3727 24.0695 31.0539 24.4352 30.5664 24.4352C30.06 24.4352 29.7506 24.0601 29.7506 23.5913ZM31.9259 21.2097C31.9259 23.0569 31.9259 23.7495 31.9259 24.904C31.6353 24.904 31.5263 24.904 31.3446 24.904C31.3446 24.7493 31.3446 24.6913 31.3446 24.5946C31.1571 24.829 30.8758 24.9696 30.5007 24.9696C29.7506 24.9696 29.1505 24.4071 29.1505 23.5913C29.1505 22.7756 29.7412 22.2036 30.4914 22.2036C30.8664 22.2036 31.1477 22.3536 31.3352 22.588C31.3352 21.8989 31.3352 21.6404 31.3352 21.2097C31.6306 21.2097 31.7413 21.2097 31.9259 21.2097ZM17.2519 22.7099C17.627 22.7099 17.8708 22.9443 17.927 23.3663C17.2332 23.3663 16.973 23.3663 16.5393 23.3663C16.5956 22.9725 16.83 22.7099 17.2519 22.7099ZM15.9205 23.5913C15.9205 22.7662 16.4831 22.2036 17.2613 22.2036C18.0114 22.2036 18.5365 22.7662 18.5365 23.5913C18.5365 23.6991 18.5365 23.7396 18.5365 23.807C17.5332 23.807 17.157 23.807 16.53 23.807C16.6237 24.2852 16.9613 24.4633 17.3363 24.4633C17.6176 24.4633 17.8989 24.3696 18.1146 24.182C18.2552 24.393 18.3079 24.4721 18.3958 24.604C18.0771 24.8853 17.702 24.979 17.2988 24.979C16.5177 25.0195 15.8747 24.3721 15.9205 23.5913ZM24.3217 23.5913C24.3217 23.1225 24.6311 22.7474 25.1375 22.7474C25.625 22.7474 25.9438 23.1225 25.9438 23.5913C25.9438 24.0601 25.625 24.4352 25.1375 24.4352C24.6311 24.4352 24.3217 24.0601 24.3217 23.5913ZM26.497 22.2786C26.497 23.596 26.497 24.09 26.497 24.9134C26.2064 24.9134 26.0974 24.9134 25.9157 24.9134C25.9157 24.754 25.9157 24.6942 25.9157 24.5946C25.7563 24.829 25.475 24.9696 25.0999 24.9696C24.3498 24.9696 23.7591 24.4071 23.7591 23.5913C23.7591 22.7756 24.3498 22.2036 25.0999 22.2036C25.475 22.2036 25.7563 22.3536 25.9438 22.588C25.9438 22.4286 25.9438 22.3689 25.9438 22.2692C26.2439 22.2692 26.3564 22.2692 26.5439 22.2692C26.5205 22.2739 26.5117 22.2757 26.497 22.2786ZM21.0212 23.5913C21.0212 24.3883 21.5838 24.979 22.4558 24.979C22.859 24.979 23.1309 24.8853 23.4216 24.6602C23.2809 24.4258 23.2282 24.3379 23.1403 24.1914C22.9246 24.3508 22.6902 24.4352 22.4371 24.4352C21.9682 24.4352 21.6307 24.0976 21.6307 23.5913C21.6307 23.085 21.9682 22.7474 22.4371 22.7474C22.6902 22.7474 22.9246 22.8225 23.1403 22.9818C23.2809 22.7474 23.3337 22.6595 23.4216 22.513C23.1493 22.2934 22.805 22.1831 22.4558 22.2036C21.5838 22.2036 21.0212 22.7849 21.0212 23.5913ZM27.8472 22.588C27.9972 22.3536 28.2223 22.213 28.5598 22.213C28.6723 22.213 28.8411 22.2224 28.9724 22.2786C28.8786 22.5458 28.8435 22.6461 28.7849 22.8131C28.6713 22.7689 28.5504 22.7466 28.4286 22.7474C28.0535 22.7474 27.866 22.9912 27.866 23.4319C27.866 24.1726 27.866 24.4504 27.866 24.9134C27.5659 24.9134 27.4534 24.9134 27.2659 24.9134C27.2659 23.5913 27.2659 23.0955 27.2659 22.2692C27.5566 22.2692 27.6656 22.2692 27.8472 22.2692C27.8472 22.4286 27.8472 22.4884 27.8472 22.588ZM12.8825 22.4755C12.5653 22.2783 12.1963 22.1804 11.823 22.1942C11.1479 22.1942 10.6979 22.5224 10.6979 23.0475C10.6979 23.4788 11.0354 23.7413 11.6355 23.8257C11.7761 23.8445 11.8289 23.8515 11.9168 23.8632C12.2262 23.9101 12.3856 23.9945 12.3856 24.1445C12.3856 24.3508 12.1699 24.4633 11.7668 24.4633C11.3636 24.4633 11.0729 24.3414 10.876 24.182C10.7354 24.4071 10.6826 24.4914 10.5947 24.6321C10.9229 24.8665 11.3261 24.979 11.7668 24.979C12.5356 24.979 12.9857 24.6227 12.9857 24.1164C12.9857 23.6476 12.6388 23.4038 12.0481 23.3288C11.9074 23.3053 11.8547 23.2965 11.7668 23.2819C11.523 23.2913 11.3167 23.2444 11.3167 23.0662C11.3167 22.8787 11.5042 22.7568 11.8324 22.7568C12.1699 22.7568 12.5075 22.8787 12.6763 22.9818C12.7982 22.7474 12.8439 22.6595 12.9201 22.513C12.9013 22.4943 12.8943 22.4872 12.8825 22.4755ZM19.7554 22.588C19.9054 22.3536 20.1305 22.213 20.468 22.213C20.5805 22.213 20.7493 22.2224 20.8806 22.2786C20.7868 22.5458 20.7517 22.6461 20.6931 22.8131C20.5795 22.7689 20.4586 22.7466 20.3368 22.7474C19.9617 22.7474 19.7742 22.9912 19.7742 23.4319C19.7742 24.1726 19.7742 24.4504 19.7742 24.9134C19.4741 24.9134 19.3616 24.9134 19.1741 24.9134C19.1741 23.5913 19.1741 23.0955 19.1741 22.2692C19.4694 22.2692 19.5802 22.2692 19.7648 22.2692C19.7648 22.4286 19.7648 22.4884 19.7648 22.588C19.7601 22.588 19.7584 22.588 19.7554 22.588ZM15.4798 22.2692C15.0016 22.2692 14.8223 22.2692 14.5234 22.2692C14.5234 21.8661 14.5234 21.7149 14.5234 21.4629C14.2281 21.4629 14.1173 21.4629 13.9327 21.4629C13.9327 21.8661 13.9327 22.0173 13.9327 22.2692C13.6608 22.2692 13.5588 22.2692 13.3889 22.2692C13.3889 22.5365 13.3889 22.6367 13.3889 22.8037C13.6702 22.8037 13.7756 22.8037 13.9515 22.8037C13.9515 23.4132 13.9515 23.6417 13.9515 24.0226C13.9515 24.6227 14.1765 24.9884 14.8891 24.9884C15.1235 24.9884 15.4142 24.9134 15.6017 24.7821C15.5173 24.5383 15.4857 24.4469 15.4329 24.2945C15.2548 24.3883 15.0579 24.4446 14.9078 24.4446C14.6266 24.4446 14.5328 24.257 14.5328 23.9945C14.5328 23.3991 14.5328 23.1758 14.5328 22.8037C15.0063 22.8037 15.1839 22.8037 15.4798 22.8037C15.4798 22.5365 15.4798 22.4363 15.4798 22.2692ZM6.68477 23.2538C6.68477 24.0836 6.68477 24.3948 6.68477 24.9134C6.40348 24.9134 6.298 24.9134 6.12219 24.9134C6.12219 24.1773 6.12219 23.9013 6.12219 23.4413C6.12219 22.9912 5.93466 22.7474 5.53148 22.7474C5.14705 22.7474 4.87513 22.9912 4.87513 23.4507C4.87513 24.182 4.87513 24.4563 4.87513 24.9134C4.57978 24.9134 4.46902 24.9134 4.28442 24.9134C4.28442 24.1773 4.28442 23.9013 4.28442 23.4413C4.28442 22.9912 4.0969 22.7474 3.70309 22.7474C3.2999 22.7474 3.04674 22.9912 3.04674 23.4507C3.04674 24.182 3.04674 24.4563 3.04674 24.9134C2.7467 24.9134 2.63418 24.9134 2.44666 24.9134C2.44666 23.5913 2.44666 23.0955 2.44666 22.2692C2.74201 22.2692 2.85277 22.2692 3.03737 22.2692C3.03737 22.4333 3.03737 22.4949 3.03737 22.5974C3.21213 22.3365 3.51138 22.1869 3.82498 22.2036C4.23754 22.2036 4.52821 22.3818 4.71574 22.6724C4.95952 22.2974 5.31582 22.2036 5.65337 22.2036C6.30972 22.2036 6.7129 22.6255 6.7129 23.2538C6.69884 23.2538 6.69356 23.2538 6.68477 23.2538Z" fill="#231F20"/>
<path fill-rule="evenodd" clip-rule="evenodd" d="M32.5633 15.7993C32.5633 16.1181 32.5633 16.1181 32.5633 16.1181H32.4977V15.7993H32.3664V15.7336H32.6946V15.7993H32.5633ZM33.2196 15.7336C33.2196 16.1181 33.2196 16.1181 33.2196 16.1181H33.1446V15.8368L33.0321 16.0806H32.9571L32.8446 15.8274V16.1181H32.779V15.743H32.8727L32.9946 15.9962L33.1165 15.7336H33.2103" fill="#F79410"/>
<path d="M21.5745 17.7777C12.7138 17.7777 12.7138 17.7777 12.7138 17.7777V2.11914H21.5745V17.7777Z" fill="#FF5F00"/>
<path d="M13.2857 9.95815C13.2857 6.77018 14.7859 3.95728 17.1487 2.12888C15.3607 0.746694 13.164 -0.00202758 10.9041 0.000450145C5.35579 -0.0515588 0.818828 4.40978 0.777588 9.95815C0.823983 15.5028 5.35942 19.9585 10.9041 19.9065C13.2482 19.9065 15.4141 19.1095 17.1393 17.778C14.7088 15.9114 13.2818 13.0227 13.2763 9.95815" fill="#EB001B"/>
<path d="M33.5293 9.95795C33.4829 15.5026 28.9474 19.9583 23.4028 19.9063C21.1368 19.9108 18.9335 19.1621 17.1394 17.7778C22.2833 13.8257 22.2833 6.07147 17.1394 2.11931C18.9364 0.743875 21.1398 0.00501552 23.4028 0.0190048C28.9511 -0.0330041 33.488 4.42834 33.5293 9.9767" fill="#F79E1B"/>
</svg>
