<svg width="52" height="15" viewBox="0 0 52 15" fill="none" xmlns="http://www.w3.org/2000/svg">
<path fill-rule="evenodd" clip-rule="evenodd" d="M14.2953 2.77175e-07C14.2953 0.00636206 14.2953 0.00636206 14.2953 0.00636206C14.289 0.00636206 12.285 1.94146e-07 11.7506 1.9149C11.2608 3.67075 9.88025 8.51843 9.84208 8.65203C9.46037 8.65203 9.46037 8.65203 9.46037 8.65203C9.46037 8.65203 8.04806 3.6962 7.55184 1.90854C7.01745 -0.00636159 5.00712 2.77175e-07 5.00712 2.77175e-07C0.426636 2.77175e-07 0.426636 2.77175e-07 0.426636 2.77175e-07V14.5685H5.00712V5.91646H5.38883L8.06078 14.5685H11.2417L13.9136 5.92282H14.2953V14.5685H18.8758V2.77175e-07H14.2953ZM31.0268 2.77175e-07C31.0268 2.77175e-07 29.6845 0.120874 29.0547 1.52683C25.8102 8.65203 25.8102 8.65203 25.8102 8.65203H25.4285V2.77175e-07H20.848V14.5685H25.174C25.174 14.5685 26.5799 14.4413 27.2098 13.0417C30.3907 5.91646 30.3907 5.91646 30.3907 5.91646H30.7724V14.5685H35.3528V2.77175e-07H31.0268ZM37.3886 6.61626C37.3886 14.5685 37.3886 14.5685 37.3886 14.5685H41.9691V9.92439H46.9313C49.0943 9.92439 50.9265 8.54388 51.6072 6.61626C37.3886 6.61626 37.3886 6.61626 37.3886 6.61626Z" fill="#4DB45E"/>
<path fill-rule="evenodd" clip-rule="evenodd" d="M46.9315 0C36.7463 0 36.7463 0 36.7463 0C37.2552 2.77374 39.3355 5.00037 42.0266 5.72561C42.6373 5.89102 43.2798 5.98008 43.9415 5.98008C51.7919 5.98008 51.7919 5.98008 51.7919 5.98008C51.8619 5.64927 51.8937 5.31209 51.8937 4.96219C51.8937 2.22026 49.6734 0 46.9315 0Z" fill="url(#paint0_linear_2004_8154)"/>
<defs>
<linearGradient id="paint0_linear_2004_8154" x1="36.7475" y1="2.99004" x2="51.8937" y2="2.99004" gradientUnits="userSpaceOnUse">
<stop offset="0.3" stop-color="#00B4E6"/>
<stop offset="1" stop-color="#088CCB"/>
</linearGradient>
</defs>
</svg>
