<svg width="67" height="60" viewBox="0 0 67 60" fill="none" xmlns="http://www.w3.org/2000/svg">
<path d="M20.5464 47.8992H66.05" stroke="#586E76" stroke-width="1.4173" stroke-miterlimit="22.9256" stroke-linecap="round" stroke-linejoin="round"/>
<path d="M20.5464 53.2415H66.05" stroke="#586E76" stroke-width="1.4173" stroke-miterlimit="22.9256" stroke-linecap="round" stroke-linejoin="round"/>
<path d="M20.5464 58.5835H66.05" stroke="#586E76" stroke-width="1.4173" stroke-miterlimit="22.9256" stroke-linecap="round" stroke-linejoin="round"/>
<path d="M20.5464 15.8455H66.05" stroke="#586E76" stroke-width="1.4173" stroke-miterlimit="22.9256" stroke-linecap="round" stroke-linejoin="round"/>
<path d="M20.5464 21.1877H66.05" stroke="#586E76" stroke-width="1.4173" stroke-miterlimit="22.9256" stroke-linecap="round" stroke-linejoin="round"/>
<path d="M20.5464 26.53H66.05" stroke="#586E76" stroke-width="1.4173" stroke-miterlimit="22.9256" stroke-linecap="round" stroke-linejoin="round"/>
<path d="M20.5464 31.8723H66.05" stroke="#586E76" stroke-width="1.4173" stroke-miterlimit="22.9256" stroke-linecap="round" stroke-linejoin="round"/>
<path d="M20.5464 37.2146H66.05" stroke="#586E76" stroke-width="1.4173" stroke-miterlimit="22.9256" stroke-linecap="round" stroke-linejoin="round"/>
<path d="M20.5464 42.5569H66.05" stroke="#586E76" stroke-width="1.4173" stroke-miterlimit="22.9256" stroke-linecap="round" stroke-linejoin="round"/>
<path fill-rule="evenodd" clip-rule="evenodd" d="M55.114 4.40649L56.8738 6.48055L26.2658 33.3176L23.4375 32.1863L55.114 4.40649Z" fill="#6D0000"/>
<path fill-rule="evenodd" clip-rule="evenodd" d="M20.7349 26.9699L51.3429 0.132812L53.1027 2.20687L21.4891 29.9238L20.7349 26.9699Z" fill="#B32025"/>
<path d="M53.1283 2.20243L21.4829 29.9822L23.4316 32.2021L55.0771 4.42233L53.1283 2.20243Z" fill="#9C0F14"/>
<path fill-rule="evenodd" clip-rule="evenodd" d="M51.3431 0.195657C52.0344 -0.432845 53.8571 0.509909 55.3655 2.20687C56.8739 3.96667 57.5652 5.85218 56.8739 6.41783C56.1825 7.04634 54.3599 6.10358 52.8515 4.40662C51.3431 2.70967 50.6517 0.82416 51.3431 0.195657Z" fill="#F2CF9F"/>
<path fill-rule="evenodd" clip-rule="evenodd" d="M15.2671 37.026L20.5465 27.2842C20.6093 27.1585 20.735 26.9699 20.8607 26.8442C21.5521 29.6096 23.249 31.8094 26.3916 33.1921C26.203 33.3178 26.0773 33.3807 25.8888 33.4435L15.5813 37.4659C15.2042 37.6545 15.0157 37.4031 15.2671 37.026Z" fill="#E5A772"/>
<path fill-rule="evenodd" clip-rule="evenodd" d="M15.2671 37.0259C15.3299 37.0259 14.7014 36.5859 15.3928 37.0259C16.0841 37.5287 23.9404 31.6836 23.9404 31.6836L24.3804 32.0607C24.946 32.5006 25.6374 32.8777 26.3916 33.192C26.203 33.3177 26.0773 33.3805 25.8888 33.4434L15.5813 37.4658C15.2042 37.6544 15.0157 37.403 15.2671 37.0259Z" fill="#C88D5B"/>
<path fill-rule="evenodd" clip-rule="evenodd" d="M15.2669 37.0259L17.0896 33.6948L19.1636 36.0831L15.644 37.4658C15.204 37.6544 15.0155 37.403 15.2669 37.0259Z" fill="#9C0F14"/>
<path fill-rule="evenodd" clip-rule="evenodd" d="M18.598 35.4546L19.1636 36.0831L15.644 37.4658C15.204 37.6543 15.0155 37.4658 15.2669 37.0258C15.3298 37.0258 15.3926 37.0258 15.3926 37.0887C15.7069 37.1515 17.0267 36.3973 18.598 35.4546Z" fill="#7B0000"/>
<path fill-rule="evenodd" clip-rule="evenodd" d="M52.9773 1.95549C53.2915 1.70409 54.0457 2.08119 54.6742 2.8354C55.3027 3.5896 55.617 4.40665 55.3027 4.65805C54.9885 4.90946 54.2343 4.53235 53.6058 3.77815C52.9773 3.02395 52.663 2.20689 52.9773 1.95549Z" fill="#9C0F14"/>
<path fill-rule="evenodd" clip-rule="evenodd" d="M13.0044 20.6848H2.82266C1.81705 20.6848 1 19.8678 1 18.8622V8.61758C1 7.61198 1.81705 6.79492 2.82266 6.79492H13.0044C14.01 6.79492 14.8271 7.61198 14.8271 8.61758V18.8622C14.8271 19.8678 14.01 20.6848 13.0044 20.6848Z" stroke="#586E76" stroke-width="1.206" stroke-miterlimit="22.9256" stroke-linecap="round" stroke-linejoin="round"/>
<path fill-rule="evenodd" clip-rule="evenodd" d="M13.0044 51.7329H2.82266C1.81705 51.7329 1 50.9159 1 49.9103V39.6657C1 38.6601 1.81705 37.843 2.82266 37.843H13.0044C14.01 37.843 14.8271 38.6601 14.8271 39.6657V49.9103C14.8271 50.9159 14.01 51.7329 13.0044 51.7329Z" stroke="#586E76" stroke-width="1.206" stroke-miterlimit="22.9256" stroke-linecap="round" stroke-linejoin="round"/>
</svg>
