<svg width="69" height="61" viewBox="0 0 69 61" fill="none" xmlns="http://www.w3.org/2000/svg">
<path d="M21.019 49.0571H67.6228" stroke="#586E76" stroke-width="1.4173" stroke-miterlimit="22.9256" stroke-linecap="round" stroke-linejoin="round"/>
<path d="M21.019 54.5283H67.6228" stroke="#586E76" stroke-width="1.4173" stroke-miterlimit="22.9256" stroke-linecap="round" stroke-linejoin="round"/>
<path d="M21.019 60H67.6228" stroke="#586E76" stroke-width="1.4173" stroke-miterlimit="22.9256" stroke-linecap="round" stroke-linejoin="round"/>
<path d="M21.019 16.2285H67.6228" stroke="#586E76" stroke-width="1.4173" stroke-miterlimit="22.9256" stroke-linecap="round" stroke-linejoin="round"/>
<path d="M21.019 21.6997H67.6228" stroke="#586E76" stroke-width="1.4173" stroke-miterlimit="22.9256" stroke-linecap="round" stroke-linejoin="round"/>
<path d="M21.019 27.1714H67.6228" stroke="#586E76" stroke-width="1.4173" stroke-miterlimit="22.9256" stroke-linecap="round" stroke-linejoin="round"/>
<path d="M21.019 32.6431H67.6228" stroke="#586E76" stroke-width="1.4173" stroke-miterlimit="22.9256" stroke-linecap="round" stroke-linejoin="round"/>
<path d="M21.019 38.1143H67.6228" stroke="#586E76" stroke-width="1.4173" stroke-miterlimit="22.9256" stroke-linecap="round" stroke-linejoin="round"/>
<path d="M21.019 43.5859H67.6228" stroke="#586E76" stroke-width="1.4173" stroke-miterlimit="22.9256" stroke-linecap="round" stroke-linejoin="round"/>
<path fill-rule="evenodd" clip-rule="evenodd" d="M56.4224 4.5127L58.2247 6.6369L26.8766 34.1228L23.98 32.9641L56.4224 4.5127Z" fill="#6D0000"/>
<path fill-rule="evenodd" clip-rule="evenodd" d="M21.2122 27.6221L52.5602 0.13623L54.3626 2.26043L21.9846 30.6475L21.2122 27.6221Z" fill="#B32025"/>
<path d="M54.3884 2.25565L21.9779 30.707L23.9737 32.9806L56.3843 4.52922L54.3884 2.25565Z" fill="#9C0F14"/>
<path fill-rule="evenodd" clip-rule="evenodd" d="M52.5601 0.200388C53.2682 -0.44331 55.1349 0.522237 56.6798 2.26022C58.2247 4.06258 58.9328 5.99367 58.2247 6.573C57.5166 7.2167 55.6499 6.25115 54.105 4.51316C52.5601 2.77518 51.8521 0.844086 52.5601 0.200388Z" fill="#F2CF9F"/>
<path fill-rule="evenodd" clip-rule="evenodd" d="M15.6119 37.9211L21.0189 27.9438C21.0833 27.815 21.212 27.6219 21.3408 27.4932C22.0488 30.3254 23.7868 32.5784 27.0053 33.9945C26.8122 34.1233 26.6835 34.1876 26.4904 34.252L15.9337 38.3717C15.5475 38.5648 15.3544 38.3073 15.6119 37.9211Z" fill="#E5A772"/>
<path fill-rule="evenodd" clip-rule="evenodd" d="M15.6119 37.9211C15.6763 37.9211 15.0326 37.4706 15.7407 37.9211C16.4487 38.4361 24.4949 32.4497 24.4949 32.4497L24.9455 32.8359C25.5249 33.2865 26.2329 33.6727 27.0054 33.9946C26.8123 34.1233 26.6835 34.1877 26.4904 34.2521L15.9338 38.3717C15.5475 38.5648 15.3544 38.3074 15.6119 37.9211Z" fill="#C88D5B"/>
<path fill-rule="evenodd" clip-rule="evenodd" d="M15.612 37.9214L17.4788 34.5098L19.603 36.9558L15.9982 38.372C15.5477 38.5651 15.3546 38.3076 15.612 37.9214Z" fill="#9C0F14"/>
<path fill-rule="evenodd" clip-rule="evenodd" d="M19.0236 36.312L19.603 36.9557L15.9982 38.3718C15.5477 38.565 15.3546 38.3718 15.612 37.9213C15.6764 37.9213 15.7408 37.9213 15.7408 37.9856C16.0626 38.05 17.4144 37.2776 19.0236 36.312Z" fill="#7B0000"/>
<path fill-rule="evenodd" clip-rule="evenodd" d="M54.2338 2.00278C54.5557 1.7453 55.3281 2.13152 55.9718 2.90396C56.6155 3.67639 56.9373 4.5132 56.6155 4.77068C56.2936 5.02816 55.5212 4.64194 54.8775 3.8695C54.2338 3.09707 53.912 2.26026 54.2338 2.00278Z" fill="#9C0F14"/>
<path fill-rule="evenodd" clip-rule="evenodd" d="M13.2946 21.1847H2.86672C1.83681 21.1847 1 20.3479 1 19.318V8.82571C1 7.79579 1.83681 6.95898 2.86672 6.95898H13.2946C14.3245 6.95898 15.1614 7.79579 15.1614 8.82571V19.318C15.1614 20.3479 14.3245 21.1847 13.2946 21.1847Z" stroke="#586E76" stroke-width="1.206" stroke-miterlimit="22.9256" stroke-linecap="round" stroke-linejoin="round"/>
<path d="M13.8097 8.95459L14.0671 9.34081C12.9729 10.1776 11.8142 11.4006 10.4624 13.0743C9.17504 14.7479 8.14512 16.3571 7.43706 17.7732L6.85773 18.1595C6.40714 18.4813 6.08529 18.7388 5.89218 18.8675C5.82781 18.6101 5.69907 18.2238 5.44159 17.7089L5.24848 17.1939C4.92663 16.4859 4.66916 15.9709 4.41168 15.649C4.1542 15.3272 3.83235 15.0697 3.5105 15.0054C4.02546 14.426 4.54041 14.1685 4.991 14.1685C5.37722 14.1685 5.82781 14.6835 6.2784 15.7134L6.53588 16.2284C7.37269 14.8122 8.46697 13.3961 9.81874 12.0443C11.2349 10.6926 12.5223 9.66266 13.8097 8.95459Z" fill="#9C0F14"/>
<path d="M13.8097 40.3672L14.0671 40.7534C12.9729 41.5902 11.8142 42.8132 10.4624 44.4869C9.17504 46.1605 8.14512 47.7697 7.43706 49.1859L6.85773 49.5721C6.40714 49.8939 6.08529 50.1514 5.89218 50.2801C5.82781 50.0227 5.69907 49.6364 5.44159 49.1215L5.24848 48.6065C4.92663 47.8985 4.66916 47.3835 4.41168 47.0616C4.1542 46.7398 3.83235 46.4823 3.5105 46.4179C4.02546 45.8386 4.54041 45.5811 4.991 45.5811C5.37722 45.5811 5.82781 46.0961 6.2784 47.126L6.53588 47.641C7.37269 46.2248 8.46697 44.8087 9.81874 43.4569C11.2349 42.1052 12.5223 41.0753 13.8097 40.3672Z" fill="#9C0F14"/>
<path fill-rule="evenodd" clip-rule="evenodd" d="M13.2946 52.984H2.86672C1.83681 52.984 1 52.1472 1 51.1173V40.625C1 39.5951 1.83681 38.7583 2.86672 38.7583H13.2946C14.3245 38.7583 15.1614 39.5951 15.1614 40.625V51.1173C15.1614 52.1472 14.3245 52.984 13.2946 52.984Z" stroke="#586E76" stroke-width="1.206" stroke-miterlimit="22.9256" stroke-linecap="round" stroke-linejoin="round"/>
</svg>
