<svg width="344" height="33" viewBox="0 0 344 33" fill="none" xmlns="http://www.w3.org/2000/svg">
<rect width="344" height="33" rx="5" fill="#FFE0DE"/>
<g filter="url(#filter0_d_2001_12779)">
<circle cx="19" cy="16.5" r="4.5" fill="#E66C5B"/>
</g>
<path d="M43.272 10.452L44.322 20H43.188L42.642 14.428C42.558 13.504 42.4833 12.6593 42.418 11.894H42.376C42.1987 12.4727 41.928 13.322 41.564 14.442L39.702 20H38.694L36.832 14.288C36.356 12.8227 36.0993 12.0247 36.062 11.894H36.006C35.9407 12.8367 35.8707 13.63 35.796 14.274L35.208 20H34.088L35.194 10.452H36.608L38.68 16.598C38.8947 17.214 39.0673 17.7973 39.198 18.348H39.254C39.366 17.8907 39.5433 17.3073 39.786 16.598L41.872 10.452H43.272ZM48.248 16.962H46.988V19.076H48.248C48.6307 19.076 48.92 18.9733 49.116 18.768C49.312 18.5627 49.41 18.3107 49.41 18.012C49.41 17.312 49.0227 16.962 48.248 16.962ZM46.988 16.038H48.262C48.9713 16.038 49.522 16.2153 49.914 16.57C50.3153 16.9153 50.516 17.3913 50.516 17.998C50.516 18.6047 50.32 19.09 49.928 19.454C49.536 19.818 48.9947 20 48.304 20H45.882V13.294H46.988V16.038ZM51.748 20V13.294H52.854V20H51.748ZM64.1764 13.294V20H63.0704V16.962H59.3884V20H58.2824V13.294H59.3884V16.038H63.0704V13.294H64.1764ZM68.9727 13.07C69.5514 13.07 70.0647 13.182 70.5127 13.406C70.9607 13.63 71.3061 13.9193 71.5487 14.274C71.8007 14.6287 71.9874 15.002 72.1087 15.394C72.2301 15.7767 72.2907 16.164 72.2907 16.556C72.2907 16.7333 72.2814 16.8687 72.2627 16.962H66.7887C66.7887 17.5687 67.0267 18.1053 67.5027 18.572C67.9787 19.0293 68.5341 19.258 69.1687 19.258C69.8594 19.258 70.4334 18.9873 70.8907 18.446H72.1647C71.9034 18.9407 71.5207 19.3653 71.0167 19.72C70.5221 20.0653 69.9154 20.238 69.1967 20.238C68.1421 20.238 67.2834 19.888 66.6207 19.188C65.9674 18.488 65.6407 17.6107 65.6407 16.556C65.6407 15.5947 65.9487 14.7733 66.5647 14.092C67.1807 13.4107 67.9834 13.07 68.9727 13.07ZM68.9727 14.036C68.3661 14.036 67.8667 14.2367 67.4747 14.638C67.0827 15.03 66.8587 15.4967 66.8027 16.038H71.1287C71.0727 15.4873 70.8441 15.016 70.4427 14.624C70.0507 14.232 69.5607 14.036 68.9727 14.036ZM77.259 20V13.294H79.793C80.4836 13.294 81.025 13.4433 81.417 13.742C81.809 14.0313 82.005 14.4467 82.005 14.988C82.005 15.2867 81.9163 15.562 81.739 15.814C81.571 16.0567 81.305 16.234 80.941 16.346C81.4916 16.4487 81.893 16.6493 82.145 16.948C82.4063 17.2467 82.537 17.5967 82.537 17.998C82.537 18.6047 82.3176 19.09 81.879 19.454C81.4496 19.818 80.8523 20 80.087 20H77.259ZM79.989 16.962H78.323V19.076H80.157C80.577 19.076 80.8943 18.9733 81.109 18.768C81.3236 18.5627 81.431 18.3107 81.431 18.012C81.431 17.312 80.9503 16.962 79.989 16.962ZM79.723 14.218H78.323V16.038H79.569C80.465 16.038 80.913 15.7253 80.913 15.1C80.913 14.512 80.5163 14.218 79.723 14.218ZM90.6609 13.07C91.5196 13.07 92.2009 13.2753 92.7049 13.686C93.2182 14.0873 93.5449 14.5307 93.6849 15.016H92.4529C92.1449 14.3627 91.5476 14.036 90.6609 14.036C89.9889 14.036 89.4242 14.2647 88.9669 14.722C88.5096 15.17 88.2809 15.8093 88.2809 16.64C88.2809 17.396 88.5096 18.0213 88.9669 18.516C89.4336 19.0107 90.0216 19.258 90.7309 19.258C91.5896 19.258 92.1962 18.8893 92.5509 18.152H93.7829C93.5776 18.74 93.2229 19.2347 92.7189 19.636C92.2149 20.0373 91.5476 20.238 90.7169 20.238C89.6716 20.238 88.8129 19.902 88.1409 19.23C87.4689 18.5487 87.1329 17.6807 87.1329 16.626C87.1329 15.618 87.4549 14.7733 88.0989 14.092C88.7522 13.4107 89.6062 13.07 90.6609 13.07ZM98.0665 13.07C98.6451 13.07 99.1585 13.182 99.6065 13.406C100.054 13.63 100.4 13.9193 100.642 14.274C100.894 14.6287 101.081 15.002 101.202 15.394C101.324 15.7767 101.384 16.164 101.384 16.556C101.384 16.7333 101.375 16.8687 101.356 16.962H95.8825C95.8825 17.5687 96.1205 18.1053 96.5965 18.572C97.0725 19.0293 97.6278 19.258 98.2625 19.258C98.9531 19.258 99.5271 18.9873 99.9845 18.446H101.258C100.997 18.9407 100.614 19.3653 100.11 19.72C99.6158 20.0653 99.0091 20.238 98.2905 20.238C97.2358 20.238 96.3771 19.888 95.7145 19.188C95.0611 18.488 94.7345 17.6107 94.7345 16.556C94.7345 15.5947 95.0425 14.7733 95.6585 14.092C96.2745 13.4107 97.0771 13.07 98.0665 13.07ZM98.0665 14.036C97.4598 14.036 96.9605 14.2367 96.5685 14.638C96.1765 15.03 95.9525 15.4967 95.8965 16.038H100.222C100.166 15.4873 99.9378 15.016 99.5365 14.624C99.1445 14.232 98.6545 14.036 98.0665 14.036ZM106.941 13.294V14.288H105.051V20H103.945V14.288H102.027V13.294H106.941ZM108.048 20V13.294H109.154V16.332C109.154 17.1533 109.14 17.8393 109.112 18.39H109.14C109.28 18.1287 109.593 17.6853 110.078 17.06L112.948 13.294H113.942V20H112.836V16.962C112.836 16.1407 112.85 15.4547 112.878 14.904H112.85C112.71 15.1653 112.397 15.6087 111.912 16.234L109.042 20H108.048ZM115.742 20V18.46H117.282V20H115.742ZM128.364 20V11.516H123.8V20H122.638V10.452H129.526V20H128.364ZM131.061 16.64C131.061 15.6133 131.401 14.764 132.083 14.092C132.773 13.4107 133.627 13.07 134.645 13.07C135.681 13.07 136.535 13.4107 137.207 14.092C137.888 14.7733 138.229 15.6227 138.229 16.64C138.229 17.6387 137.888 18.488 137.207 19.188C136.525 19.888 135.671 20.238 134.645 20.238C133.627 20.238 132.773 19.8927 132.083 19.202C131.401 18.5113 131.061 17.6573 131.061 16.64ZM132.209 16.64C132.209 17.3773 132.447 17.9933 132.923 18.488C133.408 18.9827 133.982 19.23 134.645 19.23C135.345 19.23 135.923 18.9827 136.381 18.488C136.847 17.9933 137.081 17.3773 137.081 16.64C137.081 15.912 136.852 15.3007 136.395 14.806C135.947 14.3113 135.363 14.064 134.645 14.064C133.935 14.064 133.352 14.3067 132.895 14.792C132.437 15.2773 132.209 15.8933 132.209 16.64ZM139.124 18.334H140.3C140.478 18.9687 140.963 19.286 141.756 19.286C142.27 19.286 142.662 19.1787 142.932 18.964C143.203 18.74 143.338 18.4553 143.338 18.11C143.338 17.7553 143.198 17.4753 142.918 17.27C142.648 17.0647 142.335 16.962 141.98 16.962H141.014V16.038H141.98C142.335 16.038 142.62 15.9447 142.834 15.758C143.058 15.562 143.17 15.31 143.17 15.002C143.17 14.7313 143.054 14.5027 142.82 14.316C142.587 14.12 142.265 14.022 141.854 14.022C141.518 14.022 141.224 14.1013 140.972 14.26C140.73 14.4187 140.571 14.6333 140.496 14.904H139.348C139.46 14.3347 139.745 13.8867 140.202 13.56C140.66 13.2333 141.206 13.07 141.84 13.07C142.55 13.07 143.128 13.2427 143.576 13.588C144.034 13.924 144.262 14.3627 144.262 14.904C144.262 15.716 143.88 16.2387 143.114 16.472C143.525 16.5933 143.847 16.8033 144.08 17.102C144.323 17.3913 144.444 17.7273 144.444 18.11C144.444 18.7447 144.211 19.2627 143.744 19.664C143.278 20.056 142.61 20.252 141.742 20.252C141.061 20.252 140.482 20.084 140.006 19.748C139.53 19.412 139.236 18.9407 139.124 18.334ZM146.029 20V13.294H148.562C149.253 13.294 149.795 13.4433 150.187 13.742C150.579 14.0313 150.775 14.4467 150.775 14.988C150.775 15.2867 150.686 15.562 150.509 15.814C150.341 16.0567 150.075 16.234 149.711 16.346C150.261 16.4487 150.663 16.6493 150.915 16.948C151.176 17.2467 151.307 17.5967 151.307 17.998C151.307 18.6047 151.087 19.09 150.649 19.454C150.219 19.818 149.622 20 148.857 20H146.029ZM148.758 16.962H147.093V19.076H148.927C149.347 19.076 149.664 18.9733 149.879 18.768C150.093 18.5627 150.201 18.3107 150.201 18.012C150.201 17.312 149.72 16.962 148.758 16.962ZM148.493 14.218H147.093V16.038H148.339C149.235 16.038 149.683 15.7253 149.683 15.1C149.683 14.512 149.286 14.218 148.493 14.218ZM152.402 16.64C152.402 15.6133 152.743 14.764 153.424 14.092C154.115 13.4107 154.969 13.07 155.986 13.07C157.022 13.07 157.876 13.4107 158.548 14.092C159.23 14.7733 159.57 15.6227 159.57 16.64C159.57 17.6387 159.23 18.488 158.548 19.188C157.867 19.888 157.013 20.238 155.986 20.238C154.969 20.238 154.115 19.8927 153.424 19.202C152.743 18.5113 152.402 17.6573 152.402 16.64ZM153.55 16.64C153.55 17.3773 153.788 17.9933 154.264 18.488C154.75 18.9827 155.324 19.23 155.986 19.23C156.686 19.23 157.265 18.9827 157.722 18.488C158.189 17.9933 158.422 17.3773 158.422 16.64C158.422 15.912 158.194 15.3007 157.736 14.806C157.288 14.3113 156.705 14.064 155.986 14.064C155.277 14.064 154.694 14.3067 154.236 14.792C153.779 15.2773 153.55 15.8933 153.55 16.64ZM166.934 13.294V20H165.828V16.962H162.146V20H161.04V13.294H162.146V16.038H165.828V13.294H166.934ZM168.861 20V13.294H169.967V16.332C169.967 17.1533 169.953 17.8393 169.925 18.39H169.953C170.093 18.1287 170.405 17.6853 170.891 17.06L173.761 13.294H174.755V20H173.649V16.962C173.649 16.1407 173.663 15.4547 173.691 14.904H173.663C173.523 15.1653 173.21 15.6087 172.725 16.234L169.855 20H168.861ZM183.695 13.294L184.899 20H183.863L183.233 16.234C183.121 15.5713 183.042 15.0533 182.995 14.68H182.953C182.822 15.268 182.664 15.786 182.477 16.234L180.937 20H180.069L178.529 16.15C178.305 15.5807 178.142 15.0907 178.039 14.68H177.997C177.904 15.3987 177.838 15.884 177.801 16.136L177.143 20H176.121L177.353 13.294H178.431L180.139 17.536C180.27 17.844 180.386 18.208 180.489 18.628H180.531C180.652 18.18 180.774 17.816 180.895 17.536L182.645 13.294H183.695ZM189.765 20V13.294H192.299C192.989 13.294 193.531 13.4433 193.923 13.742C194.315 14.0313 194.511 14.4467 194.511 14.988C194.511 15.2867 194.422 15.562 194.245 15.814C194.077 16.0567 193.811 16.234 193.447 16.346C193.997 16.4487 194.399 16.6493 194.651 16.948C194.912 17.2467 195.043 17.5967 195.043 17.998C195.043 18.6047 194.823 19.09 194.385 19.454C193.955 19.818 193.358 20 192.593 20H189.765ZM192.495 16.962H190.829V19.076H192.663C193.083 19.076 193.4 18.9733 193.615 18.768C193.829 18.5627 193.937 18.3107 193.937 18.012C193.937 17.312 193.456 16.962 192.495 16.962ZM192.229 14.218H190.829V16.038H192.075C192.971 16.038 193.419 15.7253 193.419 15.1C193.419 14.512 193.022 14.218 192.229 14.218ZM203.167 13.294V20H202.061V19.104H202.033C201.407 19.86 200.591 20.238 199.583 20.238C198.64 20.238 197.828 19.9067 197.147 19.244C196.475 18.572 196.139 17.704 196.139 16.64C196.139 15.604 196.47 14.75 197.133 14.078C197.805 13.406 198.645 13.07 199.653 13.07C200.577 13.07 201.375 13.4667 202.047 14.26H202.061V13.294H203.167ZM197.931 14.82C197.501 15.3333 197.287 15.94 197.287 16.64C197.287 17.34 197.501 17.9513 197.931 18.474C198.36 18.9967 198.962 19.258 199.737 19.258C200.39 19.258 200.955 19.0153 201.431 18.53C201.916 18.0353 202.159 17.4193 202.159 16.682C202.159 15.898 201.925 15.2633 201.459 14.778C201.001 14.2833 200.437 14.036 199.765 14.036C198.971 14.036 198.36 14.2973 197.931 14.82ZM212.119 13.294L213.323 20H212.287L211.657 16.234C211.545 15.5713 211.465 15.0533 211.419 14.68H211.377C211.246 15.268 211.087 15.786 210.901 16.234L209.361 20H208.493L206.953 16.15C206.729 15.5807 206.565 15.0907 206.463 14.68H206.421C206.327 15.3987 206.262 15.884 206.225 16.136L205.567 20H204.545L205.777 13.294H206.855L208.563 17.536C208.693 17.844 208.81 18.208 208.913 18.628H208.955C209.076 18.18 209.197 17.816 209.319 17.536L211.069 13.294H212.119ZM218.189 20V13.294H220.723C221.413 13.294 221.955 13.4433 222.347 13.742C222.739 14.0313 222.935 14.4467 222.935 14.988C222.935 15.2867 222.846 15.562 222.669 15.814C222.501 16.0567 222.235 16.234 221.871 16.346C222.421 16.4487 222.823 16.6493 223.075 16.948C223.336 17.2467 223.467 17.5967 223.467 17.998C223.467 18.6047 223.247 19.09 222.809 19.454C222.379 19.818 221.782 20 221.017 20H218.189ZM220.919 16.962H219.253V19.076H221.087C221.507 19.076 221.824 18.9733 222.039 18.768C222.253 18.5627 222.361 18.3107 222.361 18.012C222.361 17.312 221.88 16.962 220.919 16.962ZM220.653 14.218H219.253V16.038H220.499C221.395 16.038 221.843 15.7253 221.843 15.1C221.843 14.512 221.446 14.218 220.653 14.218ZM228.525 23.29V13.294H229.631V14.246H229.659C230.321 13.462 231.161 13.07 232.179 13.07C233.205 13.07 234.022 13.4247 234.629 14.134C235.245 14.8433 235.553 15.6787 235.553 16.64C235.553 17.6573 235.226 18.5113 234.573 19.202C233.929 19.8927 233.117 20.238 232.137 20.238C231.119 20.238 230.293 19.86 229.659 19.104H229.631V23.29H228.525ZM234.405 16.64C234.405 15.9307 234.185 15.3193 233.747 14.806C233.317 14.2927 232.715 14.036 231.941 14.036C231.259 14.036 230.685 14.2833 230.219 14.778C229.761 15.2633 229.533 15.898 229.533 16.682C229.533 17.4287 229.771 18.0447 230.247 18.53C230.732 19.0153 231.306 19.258 231.969 19.258C232.734 19.258 233.331 18.9967 233.761 18.474C234.19 17.9513 234.405 17.34 234.405 16.64ZM243.595 13.294V20H242.489V19.104H242.461C241.835 19.86 241.019 20.238 240.011 20.238C239.068 20.238 238.256 19.9067 237.575 19.244C236.903 18.572 236.567 17.704 236.567 16.64C236.567 15.604 236.898 14.75 237.561 14.078C238.233 13.406 239.073 13.07 240.081 13.07C241.005 13.07 241.803 13.4667 242.475 14.26H242.489V13.294H243.595ZM238.359 14.82C237.929 15.3333 237.715 15.94 237.715 16.64C237.715 17.34 237.929 17.9513 238.359 18.474C238.788 18.9967 239.39 19.258 240.165 19.258C240.818 19.258 241.383 19.0153 241.859 18.53C242.344 18.0353 242.587 17.4193 242.587 16.682C242.587 15.898 242.353 15.2633 241.887 14.778C241.429 14.2833 240.865 14.036 240.193 14.036C239.399 14.036 238.788 14.2973 238.359 14.82ZM246.26 16.64C246.26 17.3773 246.498 17.9933 246.974 18.488C247.46 18.9827 248.034 19.23 248.696 19.23C249.396 19.23 249.975 18.9827 250.432 18.488C250.899 17.9933 251.132 17.3773 251.132 16.64C251.132 15.912 250.913 15.3007 250.474 14.806C250.036 14.3113 249.457 14.064 248.738 14.064C248.029 14.064 247.436 14.3067 246.96 14.792C246.494 15.2773 246.26 15.8933 246.26 16.64ZM249.27 11.544C247.534 11.852 246.54 12.7667 246.288 14.288H246.33C246.573 13.9427 246.928 13.6533 247.394 13.42C247.861 13.1867 248.332 13.07 248.808 13.07C249.835 13.07 250.67 13.4107 251.314 14.092C251.958 14.764 252.28 15.6133 252.28 16.64C252.28 17.6387 251.94 18.488 251.258 19.188C250.577 19.888 249.723 20.238 248.696 20.238C247.66 20.238 246.811 19.8787 246.148 19.16C245.486 18.4413 245.154 17.4147 245.154 16.08C245.154 15.1 245.257 14.26 245.462 13.56C245.677 12.8507 245.98 12.2953 246.372 11.894C246.774 11.4833 247.203 11.1707 247.66 10.956C248.118 10.7413 248.654 10.5827 249.27 10.48C249.961 10.3587 250.54 10.1393 251.006 9.822L251.482 10.76C250.801 11.152 250.064 11.4133 249.27 11.544ZM253.287 16.64C253.287 15.6133 253.628 14.764 254.309 14.092C255 13.4107 255.854 13.07 256.871 13.07C257.907 13.07 258.761 13.4107 259.433 14.092C260.115 14.7733 260.455 15.6227 260.455 16.64C260.455 17.6387 260.115 18.488 259.433 19.188C258.752 19.888 257.898 20.238 256.871 20.238C255.854 20.238 255 19.8927 254.309 19.202C253.628 18.5113 253.287 17.6573 253.287 16.64ZM254.435 16.64C254.435 17.3773 254.673 17.9933 255.149 18.488C255.635 18.9827 256.209 19.23 256.871 19.23C257.571 19.23 258.15 18.9827 258.607 18.488C259.074 17.9933 259.307 17.3773 259.307 16.64C259.307 15.912 259.079 15.3007 258.621 14.806C258.173 14.3113 257.59 14.064 256.871 14.064C256.162 14.064 255.579 14.3067 255.121 14.792C254.664 15.2773 254.435 15.8933 254.435 16.64ZM267.203 13.294V20H266.097V16.654H266.069C265.584 17.3633 264.949 17.718 264.165 17.718C263.521 17.718 262.961 17.4847 262.485 17.018C262.009 16.542 261.771 15.8 261.771 14.792V13.294H262.877V14.708C262.877 15.3427 263.012 15.8373 263.283 16.192C263.554 16.5373 263.918 16.71 264.375 16.71C264.907 16.71 265.327 16.5187 265.635 16.136C265.943 15.7533 266.097 15.198 266.097 14.47V13.294H267.203ZM272 13.07C272.579 13.07 273.092 13.182 273.54 13.406C273.988 13.63 274.333 13.9193 274.576 14.274C274.828 14.6287 275.015 15.002 275.136 15.394C275.257 15.7767 275.318 16.164 275.318 16.556C275.318 16.7333 275.309 16.8687 275.29 16.962H269.816C269.816 17.5687 270.054 18.1053 270.53 18.572C271.006 19.0293 271.561 19.258 272.196 19.258C272.887 19.258 273.461 18.9873 273.918 18.446H275.192C274.931 18.9407 274.548 19.3653 274.044 19.72C273.549 20.0653 272.943 20.238 272.224 20.238C271.169 20.238 270.311 19.888 269.648 19.188C268.995 18.488 268.668 17.6107 268.668 16.556C268.668 15.5947 268.976 14.7733 269.592 14.092C270.208 13.4107 271.011 13.07 272 13.07ZM272 14.036C271.393 14.036 270.894 14.2367 270.502 14.638C270.11 15.03 269.886 15.4967 269.83 16.038H274.156C274.1 15.4873 273.871 15.016 273.47 14.624C273.078 14.232 272.588 14.036 272 14.036ZM279.656 13.07C280.235 13.07 280.748 13.182 281.196 13.406C281.644 13.63 281.99 13.9193 282.232 14.274C282.484 14.6287 282.671 15.002 282.792 15.394C282.914 15.7767 282.974 16.164 282.974 16.556C282.974 16.7333 282.965 16.8687 282.946 16.962H277.472C277.472 17.5687 277.71 18.1053 278.186 18.572C278.662 19.0293 279.218 19.258 279.852 19.258C280.543 19.258 281.117 18.9873 281.574 18.446H282.848C282.587 18.9407 282.204 19.3653 281.7 19.72C281.206 20.0653 280.599 20.238 279.88 20.238C278.826 20.238 277.967 19.888 277.304 19.188C276.651 18.488 276.324 17.6107 276.324 16.556C276.324 15.5947 276.632 14.7733 277.248 14.092C277.864 13.4107 278.667 13.07 279.656 13.07ZM279.656 14.036C279.05 14.036 278.55 14.2367 278.158 14.638C277.766 15.03 277.542 15.4967 277.486 16.038H281.812C281.756 15.4873 281.528 15.016 281.126 14.624C280.734 14.232 280.244 14.036 279.656 14.036ZM287.943 20V13.294H290.477C291.167 13.294 291.709 13.4433 292.101 13.742C292.493 14.0313 292.689 14.4467 292.689 14.988C292.689 15.2867 292.6 15.562 292.423 15.814C292.255 16.0567 291.989 16.234 291.625 16.346C292.175 16.4487 292.577 16.6493 292.829 16.948C293.09 17.2467 293.221 17.5967 293.221 17.998C293.221 18.6047 293.001 19.09 292.563 19.454C292.133 19.818 291.536 20 290.771 20H287.943ZM290.673 16.962H289.007V19.076H290.841C291.261 19.076 291.578 18.9733 291.793 18.768C292.007 18.5627 292.115 18.3107 292.115 18.012C292.115 17.312 291.634 16.962 290.673 16.962ZM290.407 14.218H289.007V16.038H290.253C291.149 16.038 291.597 15.7253 291.597 15.1C291.597 14.512 291.2 14.218 290.407 14.218ZM294.779 23.29V13.294H295.885V14.246H295.913C296.575 13.462 297.415 13.07 298.433 13.07C299.459 13.07 300.276 13.4247 300.882 14.134C301.499 14.8433 301.807 15.6787 301.807 16.64C301.807 17.6573 301.48 18.5113 300.827 19.202C300.183 19.8927 299.371 20.238 298.391 20.238C297.373 20.238 296.547 19.86 295.913 19.104H295.885V23.29H294.779ZM300.659 16.64C300.659 15.9307 300.439 15.3193 300.001 14.806C299.571 14.2927 298.969 14.036 298.195 14.036C297.513 14.036 296.939 14.2833 296.473 14.778C296.015 15.2633 295.787 15.898 295.787 16.682C295.787 17.4287 296.025 18.0447 296.501 18.53C296.986 19.0153 297.56 19.258 298.223 19.258C298.988 19.258 299.585 18.9967 300.015 18.474C300.444 17.9513 300.659 17.34 300.659 16.64ZM306.152 13.07C306.731 13.07 307.244 13.182 307.692 13.406C308.14 13.63 308.486 13.9193 308.728 14.274C308.98 14.6287 309.167 15.002 309.288 15.394C309.41 15.7767 309.47 16.164 309.47 16.556C309.47 16.7333 309.461 16.8687 309.442 16.962H303.968C303.968 17.5687 304.206 18.1053 304.682 18.572C305.158 19.0293 305.714 19.258 306.348 19.258C307.039 19.258 307.613 18.9873 308.07 18.446H309.344C309.083 18.9407 308.7 19.3653 308.196 19.72C307.702 20.0653 307.095 20.238 306.376 20.238C305.322 20.238 304.463 19.888 303.8 19.188C303.147 18.488 302.82 17.6107 302.82 16.556C302.82 15.5947 303.128 14.7733 303.744 14.092C304.36 13.4107 305.163 13.07 306.152 13.07ZM306.152 14.036C305.546 14.036 305.046 14.2367 304.654 14.638C304.262 15.03 304.038 15.4967 303.982 16.038H308.308C308.252 15.4873 308.024 15.016 307.622 14.624C307.23 14.232 306.74 14.036 306.152 14.036ZM317.953 13.294L319.157 20H318.121L317.491 16.234C317.379 15.5713 317.299 15.0533 317.253 14.68H317.211C317.08 15.268 316.921 15.786 316.735 16.234L315.195 20H314.327L312.787 16.15C312.563 15.5807 312.399 15.0907 312.297 14.68H312.255C312.161 15.3987 312.096 15.884 312.059 16.136L311.401 20H310.379L311.611 13.294H312.689L314.397 17.536C314.527 17.844 314.644 18.208 314.747 18.628H314.789C314.91 18.18 315.031 17.816 315.153 17.536L316.903 13.294H317.953ZM323.589 17.242H322.819L320.943 20H319.753L321.713 17.158C321.237 17.046 320.863 16.8267 320.593 16.5C320.331 16.164 320.201 15.7533 320.201 15.268C320.201 14.6707 320.392 14.1947 320.775 13.84C321.157 13.476 321.689 13.294 322.371 13.294H324.695V20H323.589V17.242ZM322.427 16.318H323.589V14.218H322.427C322.053 14.218 321.773 14.3207 321.587 14.526C321.4 14.722 321.307 14.9647 321.307 15.254C321.307 15.9633 321.68 16.318 322.427 16.318Z" fill="#29383D"/>
<defs>
<filter id="filter0_d_2001_12779" x="9.2" y="6.7" width="21.6" height="21.6" filterUnits="userSpaceOnUse" color-interpolation-filters="sRGB">
<feFlood flood-opacity="0" result="BackgroundImageFix"/>
<feColorMatrix in="SourceAlpha" type="matrix" values="0 0 0 0 0 0 0 0 0 0 0 0 0 0 0 0 0 0 127 0" result="hardAlpha"/>
<feMorphology radius="2" operator="dilate" in="SourceAlpha" result="effect1_dropShadow_2001_12779"/>
<feOffset dx="1" dy="1"/>
<feGaussianBlur stdDeviation="2.15"/>
<feComposite in2="hardAlpha" operator="out"/>
<feColorMatrix type="matrix" values="0 0 0 0 0.913725 0 0 0 0 0.531059 0 0 0 0 0.447059 0 0 0 0.37 0"/>
<feBlend mode="normal" in2="BackgroundImageFix" result="effect1_dropShadow_2001_12779"/>
<feBlend mode="normal" in="SourceGraphic" in2="effect1_dropShadow_2001_12779" result="shape"/>
</filter>
</defs>
</svg>
