<svg width="370" height="35" viewBox="0 0 370 35" fill="none" xmlns="http://www.w3.org/2000/svg">
<path d="M0 5.5C0 2.73858 2.23858 0.5 5 0.5H365C367.761 0.5 370 2.73858 370 5.5V29.5C370 32.2614 367.761 34.5 365 34.5H5C2.23857 34.5 0 32.2614 0 29.5V5.5Z" fill="#FFE0DE"/>
<g filter="url(#filter0_d_2011_41977)">
<circle cx="16" cy="18" r="4.5" fill="#E66C5B"/>
</g>
<path d="M40.272 11.952L41.322 21.5H40.188L39.642 15.928C39.572 15.172 39.474 14.066 39.418 13.394H39.376C39.152 14.136 38.816 15.172 38.564 15.942L36.702 21.5H35.694L33.832 15.788C33.594 15.06 33.258 14.136 33.062 13.394H33.006C32.95 14.164 32.88 15.018 32.796 15.774L32.208 21.5H31.088L32.194 11.952H33.608L35.68 18.098C35.848 18.588 36.072 19.33 36.198 19.848H36.254C36.38 19.33 36.618 18.588 36.786 18.098L38.872 11.952H40.272ZM45.248 18.462H43.988V20.576H45.248C46.074 20.576 46.41 20.058 46.41 19.512C46.41 18.84 46.032 18.462 45.248 18.462ZM43.988 17.538H45.262C46.69 17.538 47.516 18.294 47.516 19.498C47.516 20.688 46.718 21.5 45.304 21.5H42.882V14.794H43.988V17.538ZM48.748 21.5V14.794H49.854V21.5H48.748ZM61.1764 14.794V21.5H60.0704V18.462H56.3884V21.5H55.2824V14.794H56.3884V17.538H60.0704V14.794H61.1764ZM65.9727 14.57C68.4087 14.584 69.2907 16.586 69.2907 18.056C69.2907 18.182 69.2767 18.392 69.2627 18.462H63.7887C63.7887 19.68 64.9087 20.758 66.1687 20.758C66.9667 20.758 67.4567 20.464 67.8907 19.946H69.1647C68.7167 20.786 67.7787 21.738 66.1967 21.738C64.0687 21.738 62.6407 20.142 62.6407 18.056C62.6407 16.208 63.9427 14.57 65.9727 14.57ZM65.9727 15.536C64.6987 15.536 63.9007 16.516 63.8027 17.538H68.1287C68.0167 16.488 67.1907 15.536 65.9727 15.536ZM74.259 21.5V14.794H76.793C78.151 14.794 79.005 15.382 79.005 16.488C79.005 17.034 78.711 17.608 77.941 17.846C79.103 18.07 79.537 18.77 79.537 19.498C79.537 20.688 78.641 21.5 77.087 21.5H74.259ZM76.989 18.462H75.323V20.576H77.157C78.039 20.576 78.431 20.058 78.431 19.512C78.431 18.84 77.997 18.462 76.989 18.462ZM76.723 15.718H75.323V17.538H76.569C77.465 17.538 77.913 17.202 77.913 16.6C77.913 15.998 77.451 15.718 76.723 15.718ZM87.6609 14.57C89.5789 14.57 90.4609 15.746 90.6849 16.516H89.4529C89.1869 15.956 88.5989 15.536 87.6609 15.536C86.3869 15.536 85.2809 16.404 85.2809 18.14C85.2809 19.652 86.3169 20.758 87.7309 20.758C88.7809 20.758 89.2849 20.212 89.5509 19.652H90.7829C90.4329 20.646 89.5369 21.738 87.7169 21.738C85.6449 21.738 84.1329 20.254 84.1329 18.126C84.1329 16.166 85.5049 14.57 87.6609 14.57ZM95.0665 14.57C97.5025 14.584 98.3845 16.586 98.3845 18.056C98.3845 18.182 98.3705 18.392 98.3565 18.462H92.8825C92.8825 19.68 94.0025 20.758 95.2625 20.758C96.0605 20.758 96.5505 20.464 96.9845 19.946H98.2585C97.8105 20.786 96.8725 21.738 95.2905 21.738C93.1625 21.738 91.7345 20.142 91.7345 18.056C91.7345 16.208 93.0365 14.57 95.0665 14.57ZM95.0665 15.536C93.7925 15.536 92.9945 16.516 92.8965 17.538H97.2225C97.1105 16.488 96.2845 15.536 95.0665 15.536ZM103.941 14.794V15.788H102.051V21.5H100.945V15.788H99.0267V14.794H103.941ZM105.048 21.5V14.794H106.154V17.832C106.154 18.336 106.14 19.344 106.112 19.89H106.14C106.322 19.554 106.644 19.12 107.078 18.56L109.948 14.794H110.942V21.5H109.836V18.462C109.836 17.958 109.85 16.95 109.878 16.404H109.85C109.668 16.74 109.346 17.174 108.912 17.734L106.042 21.5H105.048ZM112.742 21.5V19.96H114.282V21.5H112.742ZM120.338 16.726C120.338 19.05 122.018 20.772 124.188 20.772C126.372 20.772 128.052 19.05 128.052 16.726C128.052 14.444 126.484 12.68 124.188 12.68C122.018 12.68 120.338 14.388 120.338 16.726ZM119.134 16.726C119.134 13.996 121.262 11.644 124.202 11.644C127.338 11.644 129.256 14.052 129.256 16.726C129.256 19.526 127.086 21.808 124.202 21.808C120.716 21.808 119.134 19.092 119.134 16.726ZM131.479 18.14C131.479 19.652 132.627 20.73 133.915 20.73C135.329 20.73 136.351 19.61 136.351 18.14C136.351 16.726 135.427 15.564 133.957 15.564C132.529 15.564 131.479 16.656 131.479 18.14ZM134.489 13.044C132.823 13.338 131.773 14.206 131.507 15.788H131.549C132.025 15.102 133.061 14.57 134.027 14.57C136.113 14.57 137.499 16.11 137.499 18.14C137.499 20.114 135.987 21.738 133.915 21.738C131.941 21.738 130.373 20.366 130.373 17.58C130.373 13.506 132.235 12.372 134.489 11.98C134.951 11.896 135.763 11.63 136.225 11.322L136.701 12.26C135.819 12.764 135.231 12.918 134.489 13.044ZM138.968 24.79V14.794H140.074V15.746H140.102C140.55 15.214 141.264 14.57 142.622 14.57C144.764 14.57 145.996 16.32 145.996 18.14C145.996 20.17 144.54 21.738 142.58 21.738C141.432 21.738 140.592 21.192 140.102 20.604H140.074V24.79H138.968ZM144.848 18.14C144.848 16.838 144.036 15.536 142.384 15.536C141.04 15.536 139.976 16.586 139.976 18.182C139.976 19.708 141.124 20.758 142.412 20.758C144.036 20.758 144.848 19.428 144.848 18.14ZM154.038 14.794V21.5H152.932V20.604H152.904C152.414 21.192 151.588 21.738 150.454 21.738C148.634 21.738 147.01 20.324 147.01 18.14C147.01 16.068 148.522 14.57 150.524 14.57C151.742 14.57 152.456 15.214 152.918 15.76H152.932V14.794H154.038ZM148.158 18.14C148.158 19.428 148.956 20.758 150.608 20.758C151.868 20.758 153.03 19.694 153.03 18.182C153.03 16.586 151.952 15.536 150.636 15.536C148.956 15.536 148.158 16.852 148.158 18.14ZM156.704 18.14C156.704 19.652 157.852 20.73 159.14 20.73C160.554 20.73 161.576 19.61 161.576 18.14C161.576 16.726 160.652 15.564 159.182 15.564C157.754 15.564 156.704 16.656 156.704 18.14ZM159.714 13.044C158.048 13.338 156.998 14.206 156.732 15.788H156.774C157.25 15.102 158.286 14.57 159.252 14.57C161.338 14.57 162.724 16.11 162.724 18.14C162.724 20.114 161.212 21.738 159.14 21.738C157.166 21.738 155.598 20.366 155.598 17.58C155.598 13.506 157.46 12.372 159.714 11.98C160.176 11.896 160.988 11.63 161.45 11.322L161.926 12.26C161.044 12.764 160.456 12.918 159.714 13.044ZM163.731 18.14C163.731 16.068 165.299 14.57 167.315 14.57C169.401 14.57 170.899 16.11 170.899 18.14C170.899 20.114 169.387 21.738 167.315 21.738C165.285 21.738 163.731 20.17 163.731 18.14ZM164.879 18.14C164.879 19.652 166.027 20.73 167.315 20.73C168.729 20.73 169.751 19.61 169.751 18.14C169.751 16.726 168.785 15.564 167.315 15.564C165.887 15.564 164.879 16.656 164.879 18.14ZM176.251 14.794V15.788H174.361V21.5H173.255V15.788H171.337V14.794H176.251ZM183.72 14.794V21.5H182.614V20.604H182.586C182.096 21.192 181.27 21.738 180.136 21.738C178.316 21.738 176.692 20.324 176.692 18.14C176.692 16.068 178.204 14.57 180.206 14.57C181.424 14.57 182.138 15.214 182.6 15.76H182.614V14.794H183.72ZM177.84 18.14C177.84 19.428 178.638 20.758 180.29 20.758C181.55 20.758 182.712 19.694 182.712 18.182C182.712 16.586 181.634 15.536 180.318 15.536C178.638 15.536 177.84 16.852 177.84 18.14ZM188.527 14.57C190.963 14.584 191.845 16.586 191.845 18.056C191.845 18.182 191.831 18.392 191.817 18.462H186.343C186.343 19.68 187.463 20.758 188.723 20.758C189.521 20.758 190.011 20.464 190.445 19.946H191.719C191.271 20.786 190.333 21.738 188.751 21.738C186.623 21.738 185.195 20.142 185.195 18.056C185.195 16.208 186.497 14.57 188.527 14.57ZM188.527 15.536C187.253 15.536 186.455 16.516 186.357 17.538H190.683C190.571 16.488 189.745 15.536 188.527 15.536ZM200.328 14.794L201.532 21.5H200.496L199.866 17.734C199.782 17.244 199.684 16.642 199.628 16.18H199.586C199.474 16.684 199.32 17.23 199.11 17.734L197.57 21.5H196.702L195.162 17.65C194.966 17.16 194.784 16.642 194.672 16.18H194.63C194.574 16.628 194.518 17.118 194.434 17.636L193.776 21.5H192.754L193.986 14.794H195.064L196.772 19.036C196.912 19.372 197.038 19.792 197.122 20.128H197.164C197.262 19.778 197.388 19.372 197.528 19.036L199.278 14.794H200.328ZM205.824 19.834H207C207.154 20.38 207.63 20.786 208.456 20.786C209.52 20.786 210.038 20.268 210.038 19.61C210.038 18.854 209.324 18.462 208.68 18.462H207.714V17.538H208.68C209.38 17.538 209.87 17.132 209.87 16.502C209.87 15.998 209.408 15.522 208.554 15.522C207.896 15.522 207.35 15.844 207.196 16.404H206.048C206.272 15.242 207.308 14.57 208.54 14.57C209.968 14.57 210.962 15.326 210.962 16.404C210.962 17.23 210.626 17.72 209.814 17.972C210.64 18.21 211.144 18.84 211.144 19.61C211.144 20.828 210.248 21.752 208.442 21.752C207.112 21.752 206.048 21.08 205.824 19.834ZM219.294 14.794V21.5H218.188V20.604H218.16C217.67 21.192 216.844 21.738 215.71 21.738C213.89 21.738 212.266 20.324 212.266 18.14C212.266 16.068 213.778 14.57 215.78 14.57C216.998 14.57 217.712 15.214 218.174 15.76H218.188V14.794H219.294ZM213.414 18.14C213.414 19.428 214.212 20.758 215.864 20.758C217.124 20.758 218.286 19.694 218.286 18.182C218.286 16.586 217.208 15.536 215.892 15.536C214.212 15.536 213.414 16.852 213.414 18.14ZM224.298 18.742H223.528L221.652 21.5H220.462L222.422 18.658C221.47 18.434 220.91 17.748 220.91 16.768C220.91 15.606 221.694 14.794 223.08 14.794H225.404V21.5H224.298V18.742ZM223.136 17.818H224.298V15.718H223.136C222.338 15.718 222.016 16.236 222.016 16.754C222.016 17.44 222.38 17.818 223.136 17.818ZM227.329 21.5V14.794H229.863C231.221 14.794 232.075 15.382 232.075 16.488C232.075 17.034 231.781 17.608 231.011 17.846C232.173 18.07 232.607 18.77 232.607 19.498C232.607 20.688 231.711 21.5 230.157 21.5H227.329ZM230.059 18.462H228.393V20.576H230.227C231.109 20.576 231.501 20.058 231.501 19.512C231.501 18.84 231.067 18.462 230.059 18.462ZM229.793 15.718H228.393V17.538H229.639C230.535 17.538 230.983 17.202 230.983 16.6C230.983 15.998 230.521 15.718 229.793 15.718ZM234.165 21.5V14.794H235.271V17.86L238.393 14.794H239.751L236.559 17.93L239.849 21.5H238.421L235.271 18.042V21.5H234.165ZM245.946 14.794L242.25 24.79H241.186L242.404 21.5L239.94 14.794H241.074L242.488 18.7C242.614 19.022 242.866 19.75 242.936 20.114H242.964C243.118 19.638 243.258 19.19 243.426 18.7L244.826 14.794H245.946ZM250.435 21.5V14.794H252.969C254.327 14.794 255.181 15.382 255.181 16.488C255.181 17.034 254.887 17.608 254.117 17.846C255.279 18.07 255.713 18.77 255.713 19.498C255.713 20.688 254.817 21.5 253.263 21.5H250.435ZM253.165 18.462H251.499V20.576H253.333C254.215 20.576 254.607 20.058 254.607 19.512C254.607 18.84 254.173 18.462 253.165 18.462ZM252.899 15.718H251.499V17.538H252.745C253.641 17.538 254.089 17.202 254.089 16.6C254.089 15.998 253.627 15.718 252.899 15.718ZM260.771 24.79V14.794H261.877V15.746H261.905C262.353 15.214 263.067 14.57 264.425 14.57C266.567 14.57 267.799 16.32 267.799 18.14C267.799 20.17 266.343 21.738 264.383 21.738C263.235 21.738 262.395 21.192 261.905 20.604H261.877V24.79H260.771ZM266.651 18.14C266.651 16.838 265.839 15.536 264.187 15.536C262.843 15.536 261.779 16.586 261.779 18.182C261.779 19.708 262.927 20.758 264.215 20.758C265.839 20.758 266.651 19.428 266.651 18.14ZM275.841 14.794V21.5H274.735V20.604H274.707C274.217 21.192 273.391 21.738 272.257 21.738C270.437 21.738 268.813 20.324 268.813 18.14C268.813 16.068 270.325 14.57 272.327 14.57C273.545 14.57 274.259 15.214 274.721 15.76H274.735V14.794H275.841ZM269.961 18.14C269.961 19.428 270.759 20.758 272.411 20.758C273.671 20.758 274.833 19.694 274.833 18.182C274.833 16.586 273.755 15.536 272.439 15.536C270.759 15.536 269.961 16.852 269.961 18.14ZM278.507 18.14C278.507 19.652 279.655 20.73 280.943 20.73C282.357 20.73 283.379 19.61 283.379 18.14C283.379 16.726 282.455 15.564 280.985 15.564C279.557 15.564 278.507 16.656 278.507 18.14ZM281.517 13.044C279.851 13.338 278.801 14.206 278.535 15.788H278.577C279.053 15.102 280.089 14.57 281.055 14.57C283.141 14.57 284.526 16.11 284.526 18.14C284.526 20.114 283.015 21.738 280.943 21.738C278.969 21.738 277.401 20.366 277.401 17.58C277.401 13.506 279.263 12.372 281.517 11.98C281.979 11.896 282.791 11.63 283.253 11.322L283.729 12.26C282.847 12.764 282.259 12.918 281.517 13.044ZM285.533 18.14C285.533 16.068 287.101 14.57 289.117 14.57C291.203 14.57 292.701 16.11 292.701 18.14C292.701 20.114 291.189 21.738 289.117 21.738C287.087 21.738 285.533 20.17 285.533 18.14ZM286.681 18.14C286.681 19.652 287.829 20.73 289.117 20.73C290.531 20.73 291.553 19.61 291.553 18.14C291.553 16.726 290.587 15.564 289.117 15.564C287.689 15.564 286.681 16.656 286.681 18.14ZM299.449 14.794V21.5H298.343V18.154H298.315C297.769 18.952 297.069 19.218 296.411 19.218C295.305 19.218 294.017 18.49 294.017 16.292V14.794H295.123V16.208C295.123 17.496 295.711 18.21 296.621 18.21C297.671 18.21 298.343 17.454 298.343 15.97V14.794H299.449ZM304.246 14.57C306.682 14.584 307.564 16.586 307.564 18.056C307.564 18.182 307.55 18.392 307.536 18.462H302.062C302.062 19.68 303.182 20.758 304.442 20.758C305.24 20.758 305.73 20.464 306.164 19.946H307.438C306.99 20.786 306.052 21.738 304.47 21.738C302.342 21.738 300.914 20.142 300.914 18.056C300.914 16.208 302.216 14.57 304.246 14.57ZM304.246 15.536C302.972 15.536 302.174 16.516 302.076 17.538H306.402C306.29 16.488 305.464 15.536 304.246 15.536ZM311.902 14.57C314.338 14.584 315.22 16.586 315.22 18.056C315.22 18.182 315.206 18.392 315.192 18.462H309.718C309.718 19.68 310.838 20.758 312.098 20.758C312.896 20.758 313.386 20.464 313.82 19.946H315.094C314.646 20.786 313.708 21.738 312.126 21.738C309.998 21.738 308.57 20.142 308.57 18.056C308.57 16.208 309.872 14.57 311.902 14.57ZM311.902 15.536C310.628 15.536 309.83 16.516 309.732 17.538H314.058C313.946 16.488 313.12 15.536 311.902 15.536ZM320.189 21.5V14.794H322.723C324.081 14.794 324.935 15.382 324.935 16.488C324.935 17.034 324.641 17.608 323.871 17.846C325.033 18.07 325.467 18.77 325.467 19.498C325.467 20.688 324.571 21.5 323.017 21.5H320.189ZM322.919 18.462H321.253V20.576H323.087C323.969 20.576 324.361 20.058 324.361 19.512C324.361 18.84 323.927 18.462 322.919 18.462ZM322.653 15.718H321.253V17.538H322.499C323.395 17.538 323.843 17.202 323.843 16.6C323.843 15.998 323.381 15.718 322.653 15.718ZM327.025 24.79V14.794H328.131V15.746H328.159C328.607 15.214 329.321 14.57 330.679 14.57C332.821 14.57 334.053 16.32 334.053 18.14C334.053 20.17 332.597 21.738 330.637 21.738C329.489 21.738 328.649 21.192 328.159 20.604H328.131V24.79H327.025ZM332.905 18.14C332.905 16.838 332.093 15.536 330.441 15.536C329.097 15.536 328.033 16.586 328.033 18.182C328.033 19.708 329.181 20.758 330.469 20.758C332.093 20.758 332.905 19.428 332.905 18.14ZM338.399 14.57C340.835 14.584 341.717 16.586 341.717 18.056C341.717 18.182 341.703 18.392 341.689 18.462H336.215C336.215 19.68 337.335 20.758 338.595 20.758C339.393 20.758 339.883 20.464 340.317 19.946H341.591C341.143 20.786 340.205 21.738 338.623 21.738C336.495 21.738 335.067 20.142 335.067 18.056C335.067 16.208 336.369 14.57 338.399 14.57ZM338.399 15.536C337.125 15.536 336.327 16.516 336.229 17.538H340.555C340.443 16.488 339.617 15.536 338.399 15.536ZM350.199 14.794L351.403 21.5H350.367L349.737 17.734C349.653 17.244 349.555 16.642 349.499 16.18H349.457C349.345 16.684 349.191 17.23 348.981 17.734L347.441 21.5H346.573L345.033 17.65C344.837 17.16 344.655 16.642 344.543 16.18H344.501C344.445 16.628 344.389 17.118 344.305 17.636L343.647 21.5H342.625L343.857 14.794H344.935L346.643 19.036C346.783 19.372 346.909 19.792 346.993 20.128H347.035C347.133 19.778 347.259 19.372 347.399 19.036L349.149 14.794H350.199ZM355.835 18.742H355.065L353.189 21.5H351.999L353.959 18.658C353.007 18.434 352.447 17.748 352.447 16.768C352.447 15.606 353.231 14.794 354.617 14.794H356.941V21.5H355.835V18.742ZM354.673 17.818H355.835V15.718H354.673C353.875 15.718 353.553 16.236 353.553 16.754C353.553 17.44 353.917 17.818 354.673 17.818Z" fill="#29383D"/>
<defs>
<filter id="filter0_d_2011_41977" x="6.2" y="8.2" width="21.6" height="21.6" filterUnits="userSpaceOnUse" color-interpolation-filters="sRGB">
<feFlood flood-opacity="0" result="BackgroundImageFix"/>
<feColorMatrix in="SourceAlpha" type="matrix" values="0 0 0 0 0 0 0 0 0 0 0 0 0 0 0 0 0 0 127 0" result="hardAlpha"/>
<feMorphology radius="2" operator="dilate" in="SourceAlpha" result="effect1_dropShadow_2011_41977"/>
<feOffset dx="1" dy="1"/>
<feGaussianBlur stdDeviation="2.15"/>
<feComposite in2="hardAlpha" operator="out"/>
<feColorMatrix type="matrix" values="0 0 0 0 0.913725 0 0 0 0 0.531059 0 0 0 0 0.447059 0 0 0 0.37 0"/>
<feBlend mode="normal" in2="BackgroundImageFix" result="effect1_dropShadow_2011_41977"/>
<feBlend mode="normal" in="SourceGraphic" in2="effect1_dropShadow_2011_41977" result="shape"/>
</filter>
</defs>
</svg>
