<svg width="317" height="33" viewBox="0 0 317 33" fill="none" xmlns="http://www.w3.org/2000/svg">
<rect width="317" height="33" rx="5" fill="#FFE0DE"/>
<g filter="url(#filter0_d_2001_14283)">
<circle cx="17" cy="16.5" r="4.5" fill="#E66C5B"/>
</g>
<path d="M41.074 11.134L42.049 20H40.996L40.489 14.826C40.424 14.124 40.333 13.097 40.281 12.473H40.242C40.034 13.162 39.722 14.124 39.488 14.839L37.759 20H36.823L35.094 14.696C34.873 14.02 34.561 13.162 34.379 12.473H34.327C34.275 13.188 34.21 13.981 34.132 14.683L33.586 20H32.546L33.573 11.134H34.886L36.81 16.841C36.966 17.296 37.174 17.985 37.291 18.466H37.343C37.46 17.985 37.681 17.296 37.837 16.841L39.774 11.134H41.074ZM45.6946 17.179H44.5246V19.142H45.6946C46.4616 19.142 46.7736 18.661 46.7736 18.154C46.7736 17.53 46.4226 17.179 45.6946 17.179ZM44.5246 16.321H45.7076C47.0336 16.321 47.8006 17.023 47.8006 18.141C47.8006 19.246 47.0596 20 45.7466 20H43.4976V13.773H44.5246V16.321ZM48.9446 20V13.773H49.9716V20H48.9446ZM60.4852 13.773V20H59.4582V17.179H56.0392V20H55.0122V13.773H56.0392V16.321H59.4582V13.773H60.4852ZM64.939 13.565C67.201 13.578 68.02 15.437 68.02 16.802C68.02 16.919 68.007 17.114 67.994 17.179H62.911C62.911 18.31 63.951 19.311 65.121 19.311C65.862 19.311 66.317 19.038 66.72 18.557H67.903C67.487 19.337 66.616 20.221 65.147 20.221C63.171 20.221 61.845 18.739 61.845 16.802C61.845 15.086 63.054 13.565 64.939 13.565ZM64.939 14.462C63.756 14.462 63.015 15.372 62.924 16.321H66.941C66.837 15.346 66.07 14.462 64.939 14.462ZM72.6333 20V13.773H74.9863C76.2473 13.773 77.0403 14.319 77.0403 15.346C77.0403 15.853 76.7673 16.386 76.0523 16.607C77.1313 16.815 77.5343 17.465 77.5343 18.141C77.5343 19.246 76.7023 20 75.2593 20H72.6333ZM75.1683 17.179H73.6213V19.142H75.3243C76.1433 19.142 76.5073 18.661 76.5073 18.154C76.5073 17.53 76.1043 17.179 75.1683 17.179ZM74.9213 14.631H73.6213V16.321H74.7783C75.6103 16.321 76.0263 16.009 76.0263 15.45C76.0263 14.891 75.5973 14.631 74.9213 14.631ZM85.078 13.565C86.859 13.565 87.678 14.657 87.886 15.372H86.742C86.495 14.852 85.949 14.462 85.078 14.462C83.895 14.462 82.868 15.268 82.868 16.88C82.868 18.284 83.83 19.311 85.143 19.311C86.118 19.311 86.586 18.804 86.833 18.284H87.977C87.652 19.207 86.82 20.221 85.13 20.221C83.206 20.221 81.802 18.843 81.802 16.867C81.802 15.047 83.076 13.565 85.078 13.565ZM91.9546 13.565C94.2166 13.578 95.0356 15.437 95.0356 16.802C95.0356 16.919 95.0226 17.114 95.0096 17.179H89.9266C89.9266 18.31 90.9666 19.311 92.1366 19.311C92.8776 19.311 93.3326 19.038 93.7356 18.557H94.9186C94.5026 19.337 93.6316 20.221 92.1626 20.221C90.1866 20.221 88.8606 18.739 88.8606 16.802C88.8606 15.086 90.0696 13.565 91.9546 13.565ZM91.9546 14.462C90.7716 14.462 90.0306 15.372 89.9396 16.321H93.9566C93.8526 15.346 93.0856 14.462 91.9546 14.462ZM100.195 13.773V14.696H98.44V20H97.413V14.696H95.632V13.773H100.195ZM101.223 20V13.773H102.25V16.594C102.25 17.062 102.237 17.998 102.211 18.505H102.237C102.406 18.193 102.705 17.79 103.108 17.27L105.773 13.773H106.696V20H105.669V17.179C105.669 16.711 105.682 15.775 105.708 15.268H105.682C105.513 15.58 105.214 15.983 104.811 16.503L102.146 20H101.223ZM108.368 20V18.57H109.798V20H108.368ZM120.088 20V12.122H115.85V20H114.771V11.134H121.167V20H120.088ZM122.592 16.88C122.592 14.956 124.048 13.565 125.92 13.565C127.857 13.565 129.248 14.995 129.248 16.88C129.248 18.713 127.844 20.221 125.92 20.221C124.035 20.221 122.592 18.765 122.592 16.88ZM123.658 16.88C123.658 18.284 124.724 19.285 125.92 19.285C127.233 19.285 128.182 18.245 128.182 16.88C128.182 15.567 127.285 14.488 125.92 14.488C124.594 14.488 123.658 15.502 123.658 16.88ZM130.08 18.453H131.172C131.315 18.96 131.757 19.337 132.524 19.337C133.512 19.337 133.993 18.856 133.993 18.245C133.993 17.543 133.33 17.179 132.732 17.179H131.835V16.321H132.732C133.382 16.321 133.837 15.944 133.837 15.359C133.837 14.891 133.408 14.449 132.615 14.449C132.004 14.449 131.497 14.748 131.354 15.268H130.288C130.496 14.189 131.458 13.565 132.602 13.565C133.928 13.565 134.851 14.267 134.851 15.268C134.851 16.035 134.539 16.49 133.785 16.724C134.552 16.945 135.02 17.53 135.02 18.245C135.02 19.376 134.188 20.234 132.511 20.234C131.276 20.234 130.288 19.61 130.08 18.453ZM136.491 20V13.773H138.844C140.105 13.773 140.898 14.319 140.898 15.346C140.898 15.853 140.625 16.386 139.91 16.607C140.989 16.815 141.392 17.465 141.392 18.141C141.392 19.246 140.56 20 139.117 20H136.491ZM139.026 17.179H137.479V19.142H139.182C140.001 19.142 140.365 18.661 140.365 18.154C140.365 17.53 139.962 17.179 139.026 17.179ZM138.779 14.631H137.479V16.321H138.636C139.468 16.321 139.884 16.009 139.884 15.45C139.884 14.891 139.455 14.631 138.779 14.631ZM142.409 16.88C142.409 14.956 143.865 13.565 145.737 13.565C147.674 13.565 149.065 14.995 149.065 16.88C149.065 18.713 147.661 20.221 145.737 20.221C143.852 20.221 142.409 18.765 142.409 16.88ZM143.475 16.88C143.475 18.284 144.541 19.285 145.737 19.285C147.05 19.285 147.999 18.245 147.999 16.88C147.999 15.567 147.102 14.488 145.737 14.488C144.411 14.488 143.475 15.502 143.475 16.88ZM155.903 13.773V20H154.876V17.179H151.457V20H150.43V13.773H151.457V16.321H154.876V13.773H155.903ZM157.692 20V13.773H158.719V16.594C158.719 17.062 158.706 17.998 158.68 18.505H158.706C158.875 18.193 159.174 17.79 159.577 17.27L162.242 13.773H163.165V20H162.138V17.179C162.138 16.711 162.151 15.775 162.177 15.268H162.151C161.982 15.58 161.683 15.983 161.28 16.503L158.615 20H157.692ZM171.467 13.773L172.585 20H171.623L171.038 16.503C170.96 16.048 170.869 15.489 170.817 15.06H170.778C170.674 15.528 170.531 16.035 170.336 16.503L168.906 20H168.1L166.67 16.425C166.488 15.97 166.319 15.489 166.215 15.06H166.176C166.124 15.476 166.072 15.931 165.994 16.412L165.383 20H164.434L165.578 13.773H166.579L168.165 17.712C168.295 18.024 168.412 18.414 168.49 18.726H168.529C168.62 18.401 168.737 18.024 168.867 17.712L170.492 13.773H171.467ZM177.103 20V13.773H179.456C180.717 13.773 181.51 14.319 181.51 15.346C181.51 15.853 181.237 16.386 180.522 16.607C181.601 16.815 182.004 17.465 182.004 18.141C182.004 19.246 181.172 20 179.729 20H177.103ZM179.638 17.179H178.091V19.142H179.794C180.613 19.142 180.977 18.661 180.977 18.154C180.977 17.53 180.574 17.179 179.638 17.179ZM179.391 14.631H178.091V16.321H179.248C180.08 16.321 180.496 16.009 180.496 15.45C180.496 14.891 180.067 14.631 179.391 14.631ZM189.548 13.773V20H188.521V19.168H188.495C188.04 19.714 187.273 20.221 186.22 20.221C184.53 20.221 183.022 18.908 183.022 16.88C183.022 14.956 184.426 13.565 186.285 13.565C187.416 13.565 188.079 14.163 188.508 14.67H188.521V13.773H189.548ZM184.088 16.88C184.088 18.076 184.829 19.311 186.363 19.311C187.533 19.311 188.612 18.323 188.612 16.919C188.612 15.437 187.611 14.462 186.389 14.462C184.829 14.462 184.088 15.684 184.088 16.88ZM197.86 13.773L198.978 20H198.016L197.431 16.503C197.353 16.048 197.262 15.489 197.21 15.06H197.171C197.067 15.528 196.924 16.035 196.729 16.503L195.299 20H194.493L193.063 16.425C192.881 15.97 192.712 15.489 192.608 15.06H192.569C192.517 15.476 192.465 15.931 192.387 16.412L191.776 20H190.827L191.971 13.773H192.972L194.558 17.712C194.688 18.024 194.805 18.414 194.883 18.726H194.922C195.013 18.401 195.13 18.024 195.26 17.712L196.885 13.773H197.86ZM203.497 20V13.773H205.85C207.111 13.773 207.904 14.319 207.904 15.346C207.904 15.853 207.631 16.386 206.916 16.607C207.995 16.815 208.398 17.465 208.398 18.141C208.398 19.246 207.566 20 206.123 20H203.497ZM206.032 17.179H204.485V19.142H206.188C207.007 19.142 207.371 18.661 207.371 18.154C207.371 17.53 206.968 17.179 206.032 17.179ZM205.785 14.631H204.485V16.321H205.642C206.474 16.321 206.89 16.009 206.89 15.45C206.89 14.891 206.461 14.631 205.785 14.631ZM213.094 23.055V13.773H214.121V14.657H214.147C214.563 14.163 215.226 13.565 216.487 13.565C218.476 13.565 219.62 15.19 219.62 16.88C219.62 18.765 218.268 20.221 216.448 20.221C215.382 20.221 214.602 19.714 214.147 19.168H214.121V23.055H213.094ZM218.554 16.88C218.554 15.671 217.8 14.462 216.266 14.462C215.018 14.462 214.03 15.437 214.03 16.919C214.03 18.336 215.096 19.311 216.292 19.311C217.8 19.311 218.554 18.076 218.554 16.88ZM227.088 13.773V20H226.061V19.168H226.035C225.58 19.714 224.813 20.221 223.76 20.221C222.07 20.221 220.562 18.908 220.562 16.88C220.562 14.956 221.966 13.565 223.825 13.565C224.956 13.565 225.619 14.163 226.048 14.67H226.061V13.773H227.088ZM221.628 16.88C221.628 18.076 222.369 19.311 223.903 19.311C225.073 19.311 226.152 18.323 226.152 16.919C226.152 15.437 225.151 14.462 223.929 14.462C222.369 14.462 221.628 15.684 221.628 16.88ZM229.563 16.88C229.563 18.284 230.629 19.285 231.825 19.285C233.138 19.285 234.087 18.245 234.087 16.88C234.087 15.567 233.229 14.488 231.864 14.488C230.538 14.488 229.563 15.502 229.563 16.88ZM232.358 12.148C230.811 12.421 229.836 13.227 229.589 14.696H229.628C230.07 14.059 231.032 13.565 231.929 13.565C233.866 13.565 235.153 14.995 235.153 16.88C235.153 18.713 233.749 20.221 231.825 20.221C229.992 20.221 228.536 18.947 228.536 16.36C228.536 12.577 230.265 11.524 232.358 11.16C232.787 11.082 233.541 10.835 233.97 10.549L234.412 11.42C233.593 11.888 233.047 12.031 232.358 12.148ZM236.088 16.88C236.088 14.956 237.544 13.565 239.416 13.565C241.353 13.565 242.744 14.995 242.744 16.88C242.744 18.713 241.34 20.221 239.416 20.221C237.531 20.221 236.088 18.765 236.088 16.88ZM237.154 16.88C237.154 18.284 238.22 19.285 239.416 19.285C240.729 19.285 241.678 18.245 241.678 16.88C241.678 15.567 240.781 14.488 239.416 14.488C238.09 14.488 237.154 15.502 237.154 16.88ZM249.01 13.773V20H247.983V16.893H247.957C247.45 17.634 246.8 17.881 246.189 17.881C245.162 17.881 243.966 17.205 243.966 15.164V13.773H244.993V15.086C244.993 16.282 245.539 16.945 246.384 16.945C247.359 16.945 247.983 16.243 247.983 14.865V13.773H249.01ZM253.464 13.565C255.726 13.578 256.545 15.437 256.545 16.802C256.545 16.919 256.532 17.114 256.519 17.179H251.436C251.436 18.31 252.476 19.311 253.646 19.311C254.387 19.311 254.842 19.038 255.245 18.557H256.428C256.012 19.337 255.141 20.221 253.672 20.221C251.696 20.221 250.37 18.739 250.37 16.802C250.37 15.086 251.579 13.565 253.464 13.565ZM253.464 14.462C252.281 14.462 251.54 15.372 251.449 16.321H255.466C255.362 15.346 254.595 14.462 253.464 14.462ZM260.574 13.565C262.836 13.578 263.655 15.437 263.655 16.802C263.655 16.919 263.642 17.114 263.629 17.179H258.546C258.546 18.31 259.586 19.311 260.756 19.311C261.497 19.311 261.952 19.038 262.355 18.557H263.538C263.122 19.337 262.251 20.221 260.782 20.221C258.806 20.221 257.48 18.739 257.48 16.802C257.48 15.086 258.689 13.565 260.574 13.565ZM260.574 14.462C259.391 14.462 258.65 15.372 258.559 16.321H262.576C262.472 15.346 261.705 14.462 260.574 14.462ZM268.268 20V13.773H270.621C271.882 13.773 272.675 14.319 272.675 15.346C272.675 15.853 272.402 16.386 271.687 16.607C272.766 16.815 273.169 17.465 273.169 18.141C273.169 19.246 272.337 20 270.894 20H268.268ZM270.803 17.179H269.256V19.142H270.959C271.778 19.142 272.142 18.661 272.142 18.154C272.142 17.53 271.739 17.179 270.803 17.179ZM270.556 14.631H269.256V16.321H270.413C271.245 16.321 271.661 16.009 271.661 15.45C271.661 14.891 271.232 14.631 270.556 14.631ZM274.616 23.055V13.773H275.643V14.657H275.669C276.085 14.163 276.748 13.565 278.009 13.565C279.998 13.565 281.142 15.19 281.142 16.88C281.142 18.765 279.79 20.221 277.97 20.221C276.904 20.221 276.124 19.714 275.669 19.168H275.643V23.055H274.616ZM280.076 16.88C280.076 15.671 279.322 14.462 277.788 14.462C276.54 14.462 275.552 15.437 275.552 16.919C275.552 18.336 276.618 19.311 277.814 19.311C279.322 19.311 280.076 18.076 280.076 16.88ZM285.177 13.565C287.439 13.578 288.258 15.437 288.258 16.802C288.258 16.919 288.245 17.114 288.232 17.179H283.149C283.149 18.31 284.189 19.311 285.359 19.311C286.1 19.311 286.555 19.038 286.958 18.557H288.141C287.725 19.337 286.854 20.221 285.385 20.221C283.409 20.221 282.083 18.739 282.083 16.802C282.083 15.086 283.292 13.565 285.177 13.565ZM285.177 14.462C283.994 14.462 283.253 15.372 283.162 16.321H287.179C287.075 15.346 286.308 14.462 285.177 14.462ZM296.135 13.773L297.253 20H296.291L295.706 16.503C295.628 16.048 295.537 15.489 295.485 15.06H295.446C295.342 15.528 295.199 16.035 295.004 16.503L293.574 20H292.768L291.338 16.425C291.156 15.97 290.987 15.489 290.883 15.06H290.844C290.792 15.476 290.74 15.931 290.662 16.412L290.051 20H289.102L290.246 13.773H291.247L292.833 17.712C292.963 18.024 293.08 18.414 293.158 18.726H293.197C293.288 18.401 293.405 18.024 293.535 17.712L295.16 13.773H296.135ZM301.368 17.439H300.653L298.911 20H297.806L299.626 17.361C298.742 17.153 298.222 16.516 298.222 15.606C298.222 14.527 298.95 13.773 300.237 13.773H302.395V20H301.368V17.439ZM300.289 16.581H301.368V14.631H300.289C299.548 14.631 299.249 15.112 299.249 15.593C299.249 16.23 299.587 16.581 300.289 16.581Z" fill="#29383D"/>
<defs>
<filter id="filter0_d_2001_14283" x="7.2" y="6.7" width="21.6" height="21.6" filterUnits="userSpaceOnUse" color-interpolation-filters="sRGB">
<feFlood flood-opacity="0" result="BackgroundImageFix"/>
<feColorMatrix in="SourceAlpha" type="matrix" values="0 0 0 0 0 0 0 0 0 0 0 0 0 0 0 0 0 0 127 0" result="hardAlpha"/>
<feMorphology radius="2" operator="dilate" in="SourceAlpha" result="effect1_dropShadow_2001_14283"/>
<feOffset dx="1" dy="1"/>
<feGaussianBlur stdDeviation="2.15"/>
<feComposite in2="hardAlpha" operator="out"/>
<feColorMatrix type="matrix" values="0 0 0 0 0.913725 0 0 0 0 0.531059 0 0 0 0 0.447059 0 0 0 0.37 0"/>
<feBlend mode="normal" in2="BackgroundImageFix" result="effect1_dropShadow_2001_14283"/>
<feBlend mode="normal" in="SourceGraphic" in2="effect1_dropShadow_2001_14283" result="shape"/>
</filter>
</defs>
</svg>
