<svg width="311" height="33" viewBox="0 0 311 33" fill="none" xmlns="http://www.w3.org/2000/svg">
<rect width="311" height="33" rx="5" fill="#EEFFDE"/>
<g filter="url(#filter0_d_2011_39602)">
<circle cx="19.5" cy="17" r="4.5" fill="#9FE65B"/>
</g>
<path d="M43.772 10.952L44.822 20.5H43.688L43.142 14.928C43.058 14.004 42.9833 13.1593 42.918 12.394H42.876C42.6987 12.9727 42.428 13.822 42.064 14.942L40.202 20.5H39.194L37.332 14.788C36.856 13.3227 36.5993 12.5247 36.562 12.394H36.506C36.4407 13.3367 36.3707 14.13 36.296 14.774L35.708 20.5H34.588L35.694 10.952H37.108L39.18 17.098C39.3947 17.714 39.5673 18.2973 39.698 18.848H39.754C39.866 18.3907 40.0433 17.8073 40.286 17.098L42.372 10.952H43.772ZM48.748 17.462H47.488V19.576H48.748C49.1307 19.576 49.42 19.4733 49.616 19.268C49.812 19.0627 49.91 18.8107 49.91 18.512C49.91 17.812 49.5227 17.462 48.748 17.462ZM47.488 16.538H48.762C49.4713 16.538 50.022 16.7153 50.414 17.07C50.8153 17.4153 51.016 17.8913 51.016 18.498C51.016 19.1047 50.82 19.59 50.428 19.954C50.036 20.318 49.4947 20.5 48.804 20.5H46.382V13.794H47.488V16.538ZM52.248 20.5V13.794H53.354V20.5H52.248ZM59.5524 15.726C59.5524 16.8833 59.9211 17.8493 60.6584 18.624C61.3957 19.3893 62.3104 19.772 63.4024 19.772C64.4944 19.772 65.4091 19.3893 66.1464 18.624C66.8931 17.8493 67.2664 16.8833 67.2664 15.726C67.2664 14.5687 66.9071 13.6073 66.1884 12.842C65.4697 12.0673 64.5411 11.68 63.4024 11.68C62.3104 11.68 61.3957 12.0627 60.6584 12.828C59.9211 13.5933 59.5524 14.5593 59.5524 15.726ZM58.3484 15.726C58.3484 14.3353 58.8291 13.1407 59.7904 12.142C60.7611 11.1433 61.9697 10.644 63.4164 10.644C64.9284 10.644 66.1464 11.1433 67.0704 12.142C68.0037 13.1407 68.4704 14.3353 68.4704 15.726C68.4704 17.1353 67.9851 18.3347 67.0144 19.324C66.0437 20.3133 64.8444 20.808 63.4164 20.808C62.5857 20.808 61.8344 20.6587 61.1624 20.36C60.4997 20.052 59.9677 19.6507 59.5664 19.156C59.1651 18.652 58.8617 18.1107 58.6564 17.532C58.4511 16.944 58.3484 16.342 58.3484 15.726ZM71.128 12.786H71.1C71.1187 13.4767 71.128 14.144 71.128 14.788V20.5H70.036V10.952H71.128L74.236 15.544C75.3187 17.1493 75.9907 18.1947 76.252 18.68H76.28C76.2613 18.316 76.252 17.6393 76.252 16.65V10.952H77.344V20.5H76.252L73.144 15.908C72.0427 14.284 71.3707 13.2433 71.128 12.786ZM79.4149 20.5V10.952H80.5769V19.436H84.8049V20.5H79.4149ZM86.0321 20.5V10.952H87.1941V20.5H86.0321ZM90.3643 12.786H90.3363C90.355 13.4767 90.3643 14.144 90.3643 14.788V20.5H89.2723V10.952H90.3643L93.4723 15.544C94.555 17.1493 95.227 18.1947 95.4883 18.68H95.5163C95.4977 18.316 95.4883 17.6393 95.4883 16.65V10.952H96.5803V20.5H95.4883L92.3803 15.908C91.279 14.284 90.607 13.2433 90.3643 12.786ZM103.887 10.952V12.016H99.8132V15.026H103.733V16.09H99.8132V19.436H104.041V20.5H98.6512V10.952H103.887ZM109.409 20.5V13.794H110.515V16.832C110.515 17.6533 110.501 18.3393 110.473 18.89H110.501C110.641 18.6287 110.954 18.1853 111.439 17.56L114.309 13.794H115.303V20.5H114.197V17.462C114.197 16.6407 114.211 15.9547 114.239 15.404H114.211C114.071 15.6653 113.759 16.1087 113.273 16.734L110.403 20.5H109.409ZM125.364 13.794V14.788H121.836V20.5H120.73V13.794H125.364ZM125.805 17.14C125.805 16.1133 126.145 15.264 126.827 14.592C127.517 13.9107 128.371 13.57 129.389 13.57C130.425 13.57 131.279 13.9107 131.951 14.592C132.632 15.2733 132.973 16.1227 132.973 17.14C132.973 18.1387 132.632 18.988 131.951 19.688C131.269 20.388 130.415 20.738 129.389 20.738C128.371 20.738 127.517 20.3927 126.827 19.702C126.145 19.0113 125.805 18.1573 125.805 17.14ZM126.953 17.14C126.953 17.8773 127.191 18.4933 127.667 18.988C128.152 19.4827 128.726 19.73 129.389 19.73C130.089 19.73 130.667 19.4827 131.125 18.988C131.591 18.4933 131.825 17.8773 131.825 17.14C131.825 16.412 131.596 15.8007 131.139 15.306C130.691 14.8113 130.107 14.564 129.389 14.564C128.679 14.564 128.096 14.8067 127.639 15.292C127.181 15.7773 126.953 16.3933 126.953 17.14ZM138.325 13.794V14.788H136.435V20.5H135.329V14.788H133.411V13.794H138.325ZM138.766 17.14C138.766 16.1133 139.106 15.264 139.788 14.592C140.478 13.9107 141.332 13.57 142.35 13.57C143.386 13.57 144.24 13.9107 144.912 14.592C145.593 15.2733 145.934 16.1227 145.934 17.14C145.934 18.1387 145.593 18.988 144.912 19.688C144.23 20.388 143.376 20.738 142.35 20.738C141.332 20.738 140.478 20.3927 139.788 19.702C139.106 19.0113 138.766 18.1573 138.766 17.14ZM139.914 17.14C139.914 17.8773 140.152 18.4933 140.628 18.988C141.113 19.4827 141.687 19.73 142.35 19.73C143.05 19.73 143.628 19.4827 144.086 18.988C144.552 18.4933 144.786 17.8773 144.786 17.14C144.786 16.412 144.557 15.8007 144.1 15.306C143.652 14.8113 143.068 14.564 142.35 14.564C141.64 14.564 141.057 14.8067 140.6 15.292C140.142 15.7773 139.914 16.3933 139.914 17.14ZM147.404 20.5V13.794H149.938C150.628 13.794 151.17 13.9433 151.562 14.242C151.954 14.5313 152.15 14.9467 152.15 15.488C152.15 15.7867 152.061 16.062 151.884 16.314C151.716 16.5567 151.45 16.734 151.086 16.846C151.636 16.9487 152.038 17.1493 152.29 17.448C152.551 17.7467 152.682 18.0967 152.682 18.498C152.682 19.1047 152.462 19.59 152.024 19.954C151.594 20.318 150.997 20.5 150.232 20.5H147.404ZM150.133 17.462H148.468V19.576H150.302C150.722 19.576 151.039 19.4733 151.254 19.268C151.468 19.0627 151.576 18.8107 151.576 18.512C151.576 17.812 151.095 17.462 150.133 17.462ZM149.868 14.718H148.468V16.538H149.714C150.61 16.538 151.058 16.2253 151.058 15.6C151.058 15.012 150.661 14.718 149.868 14.718ZM156.605 17.462H155.345V19.576H156.605C156.988 19.576 157.277 19.4733 157.473 19.268C157.669 19.0627 157.767 18.8107 157.767 18.512C157.767 17.812 157.38 17.462 156.605 17.462ZM155.345 16.538H156.619C157.329 16.538 157.879 16.7153 158.271 17.07C158.673 17.4153 158.873 17.8913 158.873 18.498C158.873 19.1047 158.677 19.59 158.285 19.954C157.893 20.318 157.352 20.5 156.661 20.5H154.239V13.794H155.345V16.538ZM160.105 20.5V13.794H161.211V20.5H160.105ZM172.534 13.794V20.5H171.428V14.788H167.746V20.5H166.64V13.794H172.534ZM174.46 23.79V13.794H175.566V14.746H175.594C176.257 13.962 177.097 13.57 178.114 13.57C179.141 13.57 179.957 13.9247 180.564 14.634C181.18 15.3433 181.488 16.1787 181.488 17.14C181.488 18.1573 181.161 19.0113 180.508 19.702C179.864 20.3927 179.052 20.738 178.072 20.738C177.055 20.738 176.229 20.36 175.594 19.604H175.566V23.79H174.46ZM180.34 17.14C180.34 16.4307 180.121 15.8193 179.682 15.306C179.253 14.7927 178.651 14.536 177.876 14.536C177.195 14.536 176.621 14.7833 176.154 15.278C175.697 15.7633 175.468 16.398 175.468 17.182C175.468 17.9287 175.706 18.5447 176.182 19.03C176.667 19.5153 177.241 19.758 177.904 19.758C178.669 19.758 179.267 19.4967 179.696 18.974C180.125 18.4513 180.34 17.84 180.34 17.14ZM182.964 20.5V13.794H184.07V16.832C184.07 17.6533 184.056 18.3393 184.028 18.89H184.056C184.196 18.6287 184.509 18.1853 184.994 17.56L187.864 13.794H188.858V20.5H187.752V17.462C187.752 16.6407 187.766 15.9547 187.794 15.404H187.766C187.626 15.6653 187.313 16.1087 186.828 16.734L183.958 20.5H182.964ZM196.678 13.794V20.5H195.572V17.462H191.89V20.5H190.784V13.794H191.89V16.538H195.572V13.794H196.678ZM201.671 17.742H200.901L199.025 20.5H197.835L199.795 17.658C199.319 17.546 198.945 17.3267 198.675 17C198.413 16.664 198.283 16.2533 198.283 15.768C198.283 15.1707 198.474 14.6947 198.857 14.34C199.239 13.976 199.771 13.794 200.453 13.794H202.777V20.5H201.671V17.742ZM200.509 16.818H201.671V14.718H200.509C200.135 14.718 199.855 14.8207 199.669 15.026C199.482 15.222 199.389 15.4647 199.389 15.754C199.389 16.4633 199.762 16.818 200.509 16.818ZM208.79 13.794V14.788H206.9V20.5H205.794V14.788H203.876V13.794H208.79ZM212.264 17.462H211.004V19.576H212.264C212.646 19.576 212.936 19.4733 213.132 19.268C213.328 19.0627 213.426 18.8107 213.426 18.512C213.426 17.812 213.038 17.462 212.264 17.462ZM211.004 16.538H212.278C212.987 16.538 213.538 16.7153 213.93 17.07C214.331 17.4153 214.532 17.8913 214.532 18.498C214.532 19.1047 214.336 19.59 213.944 19.954C213.552 20.318 213.01 20.5 212.32 20.5H209.898V13.794H211.004V16.538ZM219.495 20.5V13.794H222.029C222.72 13.794 223.261 13.9433 223.653 14.242C224.045 14.5313 224.241 14.9467 224.241 15.488C224.241 15.7867 224.153 16.062 223.975 16.314C223.807 16.5567 223.541 16.734 223.177 16.846C223.728 16.9487 224.129 17.1493 224.381 17.448C224.643 17.7467 224.773 18.0967 224.773 18.498C224.773 19.1047 224.554 19.59 224.115 19.954C223.686 20.318 223.089 20.5 222.323 20.5H219.495ZM222.225 17.462H220.559V19.576H222.393C222.813 19.576 223.131 19.4733 223.345 19.268C223.56 19.0627 223.667 18.8107 223.667 18.512C223.667 17.812 223.187 17.462 222.225 17.462ZM221.959 14.718H220.559V16.538H221.805C222.701 16.538 223.149 16.2253 223.149 15.6C223.149 15.012 222.753 14.718 221.959 14.718ZM232.897 13.794V20.5H231.791V19.604H231.763C231.138 20.36 230.321 20.738 229.313 20.738C228.371 20.738 227.559 20.4067 226.877 19.744C226.205 19.072 225.869 18.204 225.869 17.14C225.869 16.104 226.201 15.25 226.863 14.578C227.535 13.906 228.375 13.57 229.383 13.57C230.307 13.57 231.105 13.9667 231.777 14.76H231.791V13.794H232.897ZM227.661 15.32C227.232 15.8333 227.017 16.44 227.017 17.14C227.017 17.84 227.232 18.4513 227.661 18.974C228.091 19.4967 228.693 19.758 229.467 19.758C230.121 19.758 230.685 19.5153 231.161 19.03C231.647 18.5353 231.889 17.9193 231.889 17.182C231.889 16.398 231.656 15.7633 231.189 15.278C230.732 14.7833 230.167 14.536 229.495 14.536C228.702 14.536 228.091 14.7973 227.661 15.32ZM244.453 20.5H234.835V13.794H235.941V19.506H239.091V13.794H240.197V19.506H243.347V13.794H244.453V20.5ZM251.442 13.794L247.746 23.79H246.682L247.9 20.5L245.436 13.794H246.57L247.984 17.7C248.217 18.288 248.367 18.7593 248.432 19.114H248.46C248.712 18.33 248.866 17.8587 248.922 17.7L250.322 13.794H251.442ZM255.357 18.834H256.533C256.71 19.4687 257.196 19.786 257.989 19.786C258.502 19.786 258.894 19.6787 259.165 19.464C259.436 19.24 259.571 18.9553 259.571 18.61C259.571 18.2553 259.431 17.9753 259.151 17.77C258.88 17.5647 258.568 17.462 258.213 17.462H257.247V16.538H258.213C258.568 16.538 258.852 16.4447 259.067 16.258C259.291 16.062 259.403 15.81 259.403 15.502C259.403 15.2313 259.286 15.0027 259.053 14.816C258.82 14.62 258.498 14.522 258.087 14.522C257.751 14.522 257.457 14.6013 257.205 14.76C256.962 14.9187 256.804 15.1333 256.729 15.404H255.581C255.693 14.8347 255.978 14.3867 256.435 14.06C256.892 13.7333 257.438 13.57 258.073 13.57C258.782 13.57 259.361 13.7427 259.809 14.088C260.266 14.424 260.495 14.8627 260.495 15.404C260.495 16.216 260.112 16.7387 259.347 16.972C259.758 17.0933 260.08 17.3033 260.313 17.602C260.556 17.8913 260.677 18.2273 260.677 18.61C260.677 19.2447 260.444 19.7627 259.977 20.164C259.51 20.556 258.843 20.752 257.975 20.752C257.294 20.752 256.715 20.584 256.239 20.248C255.763 19.912 255.469 19.4407 255.357 18.834ZM268.827 13.794V20.5H267.721V19.604H267.693C267.068 20.36 266.251 20.738 265.243 20.738C264.3 20.738 263.488 20.4067 262.807 19.744C262.135 19.072 261.799 18.204 261.799 17.14C261.799 16.104 262.13 15.25 262.793 14.578C263.465 13.906 264.305 13.57 265.313 13.57C266.237 13.57 267.035 13.9667 267.707 14.76H267.721V13.794H268.827ZM263.591 15.32C263.162 15.8333 262.947 16.44 262.947 17.14C262.947 17.84 263.162 18.4513 263.591 18.974C264.02 19.4967 264.622 19.758 265.397 19.758C266.05 19.758 266.615 19.5153 267.091 19.03C267.576 18.5353 267.819 17.9193 267.819 17.182C267.819 16.398 267.586 15.7633 267.119 15.278C266.662 14.7833 266.097 14.536 265.425 14.536C264.632 14.536 264.02 14.7973 263.591 15.32ZM273.831 17.742H273.061L271.185 20.5H269.995L271.955 17.658C271.479 17.546 271.105 17.3267 270.835 17C270.573 16.664 270.443 16.2533 270.443 15.768C270.443 15.1707 270.634 14.6947 271.017 14.34C271.399 13.976 271.931 13.794 272.613 13.794H274.937V20.5H273.831V17.742ZM272.669 16.818H273.831V14.718H272.669C272.295 14.718 272.015 14.8207 271.829 15.026C271.642 15.222 271.549 15.4647 271.549 15.754C271.549 16.4633 271.922 16.818 272.669 16.818ZM276.862 20.5V13.794H279.396C280.087 13.794 280.628 13.9433 281.02 14.242C281.412 14.5313 281.608 14.9467 281.608 15.488C281.608 15.7867 281.52 16.062 281.342 16.314C281.174 16.5567 280.908 16.734 280.544 16.846C281.095 16.9487 281.496 17.1493 281.748 17.448C282.01 17.7467 282.14 18.0967 282.14 18.498C282.14 19.1047 281.921 19.59 281.482 19.954C281.053 20.318 280.456 20.5 279.69 20.5H276.862ZM279.592 17.462H277.926V19.576H279.76C280.18 19.576 280.498 19.4733 280.712 19.268C280.927 19.0627 281.034 18.8107 281.034 18.512C281.034 17.812 280.554 17.462 279.592 17.462ZM279.326 14.718H277.926V16.538H279.172C280.068 16.538 280.516 16.2253 280.516 15.6C280.516 15.012 280.12 14.718 279.326 14.718ZM283.698 20.5V13.794H284.804V16.86L287.926 13.794H289.284L286.092 16.93L289.382 20.5H287.954L284.804 17.042V20.5H283.698ZM295.479 13.794L291.783 23.79H290.719L291.937 20.5L289.473 13.794H290.607L292.021 17.7C292.254 18.288 292.404 18.7593 292.469 19.114H292.497C292.749 18.33 292.903 17.8587 292.959 17.7L294.359 13.794H295.479Z" fill="#395839"/>
<defs>
<filter id="filter0_d_2011_39602" x="9.7" y="7.2" width="21.6" height="21.6" filterUnits="userSpaceOnUse" color-interpolation-filters="sRGB">
<feFlood flood-opacity="0" result="BackgroundImageFix"/>
<feColorMatrix in="SourceAlpha" type="matrix" values="0 0 0 0 0 0 0 0 0 0 0 0 0 0 0 0 0 0 127 0" result="hardAlpha"/>
<feMorphology radius="2" operator="dilate" in="SourceAlpha" result="effect1_dropShadow_2011_39602"/>
<feOffset dx="1" dy="1"/>
<feGaussianBlur stdDeviation="2.15"/>
<feComposite in2="hardAlpha" operator="out"/>
<feColorMatrix type="matrix" values="0 0 0 0 0.67451 0 0 0 0 0.913725 0 0 0 0 0.447059 0 0 0 0.37 0"/>
<feBlend mode="normal" in2="BackgroundImageFix" result="effect1_dropShadow_2011_39602"/>
<feBlend mode="normal" in="SourceGraphic" in2="effect1_dropShadow_2011_39602" result="shape"/>
</filter>
</defs>
</svg>
