<svg width="283" height="33" viewBox="0 0 283 33" fill="none" xmlns="http://www.w3.org/2000/svg">
<rect width="283" height="33" rx="5" fill="#EEFFDE"/>
<g filter="url(#filter0_d_2001_11185)">
<circle cx="26.5" cy="16.5" r="4.5" fill="#9FE65B"/>
</g>
<path d="M53.772 11.452L54.822 21H53.688L53.142 15.428C53.058 14.504 52.9833 13.6593 52.918 12.894H52.876C52.6987 13.4727 52.428 14.322 52.064 15.442L50.202 21H49.194L47.332 15.288C46.856 13.8227 46.5993 13.0247 46.562 12.894H46.506C46.4407 13.8367 46.3707 14.63 46.296 15.274L45.708 21H44.588L45.694 11.452H47.108L49.18 17.598C49.3947 18.214 49.5673 18.7973 49.698 19.348H49.754C49.866 18.8907 50.0433 18.3073 50.286 17.598L52.372 11.452H53.772ZM58.748 17.962H57.488V20.076H58.748C59.1307 20.076 59.42 19.9733 59.616 19.768C59.812 19.5627 59.91 19.3107 59.91 19.012C59.91 18.312 59.5227 17.962 58.748 17.962ZM57.488 17.038H58.762C59.4713 17.038 60.022 17.2153 60.414 17.57C60.8153 17.9153 61.016 18.3913 61.016 18.998C61.016 19.6047 60.82 20.09 60.428 20.454C60.036 20.818 59.4947 21 58.804 21H56.382V14.294H57.488V17.038ZM62.248 21V14.294H63.354V21H62.248ZM69.5524 16.226C69.5524 17.3833 69.9211 18.3493 70.6584 19.124C71.3957 19.8893 72.3104 20.272 73.4024 20.272C74.4944 20.272 75.4091 19.8893 76.1464 19.124C76.8931 18.3493 77.2664 17.3833 77.2664 16.226C77.2664 15.0687 76.9071 14.1073 76.1884 13.342C75.4697 12.5673 74.5411 12.18 73.4024 12.18C72.3104 12.18 71.3957 12.5627 70.6584 13.328C69.9211 14.0933 69.5524 15.0593 69.5524 16.226ZM68.3484 16.226C68.3484 14.8353 68.8291 13.6407 69.7904 12.642C70.7611 11.6433 71.9697 11.144 73.4164 11.144C74.9284 11.144 76.1464 11.6433 77.0704 12.642C78.0037 13.6407 78.4704 14.8353 78.4704 16.226C78.4704 17.6353 77.9851 18.8347 77.0144 19.824C76.0437 20.8133 74.8444 21.308 73.4164 21.308C72.5857 21.308 71.8344 21.1587 71.1624 20.86C70.4997 20.552 69.9677 20.1507 69.5664 19.656C69.1651 19.152 68.8617 18.6107 68.6564 18.032C68.4511 17.444 68.3484 16.842 68.3484 16.226ZM81.128 13.286H81.1C81.1187 13.9767 81.128 14.644 81.128 15.288V21H80.036V11.452H81.128L84.236 16.044C85.3187 17.6493 85.9907 18.6947 86.252 19.18H86.28C86.2613 18.816 86.252 18.1393 86.252 17.15V11.452H87.344V21H86.252L83.144 16.408C82.0427 14.784 81.3707 13.7433 81.128 13.286ZM89.4149 21V11.452H90.5769V19.936H94.8049V21H89.4149ZM96.0321 21V11.452H97.1941V21H96.0321ZM100.364 13.286H100.336C100.355 13.9767 100.364 14.644 100.364 15.288V21H99.2723V11.452H100.364L103.472 16.044C104.555 17.6493 105.227 18.6947 105.488 19.18H105.516C105.498 18.816 105.488 18.1393 105.488 17.15V11.452H106.58V21H105.488L102.38 16.408C101.279 14.784 100.607 13.7433 100.364 13.286ZM113.887 11.452V12.516H109.813V15.526H113.733V16.59H109.813V19.936H114.041V21H108.651V11.452H113.887ZM119.409 21V14.294H120.515V17.332C120.515 18.1533 120.501 18.8393 120.473 19.39H120.501C120.641 19.1287 120.954 18.6853 121.439 18.06L124.309 14.294H125.303V21H124.197V17.962C124.197 17.1407 124.211 16.4547 124.239 15.904H124.211C124.071 16.1653 123.759 16.6087 123.273 17.234L120.403 21H119.409ZM135.364 14.294V15.288H131.836V21H130.73V14.294H135.364ZM135.805 17.64C135.805 16.6133 136.145 15.764 136.827 15.092C137.517 14.4107 138.371 14.07 139.389 14.07C140.425 14.07 141.279 14.4107 141.951 15.092C142.632 15.7733 142.973 16.6227 142.973 17.64C142.973 18.6387 142.632 19.488 141.951 20.188C141.269 20.888 140.415 21.238 139.389 21.238C138.371 21.238 137.517 20.8927 136.827 20.202C136.145 19.5113 135.805 18.6573 135.805 17.64ZM136.953 17.64C136.953 18.3773 137.191 18.9933 137.667 19.488C138.152 19.9827 138.726 20.23 139.389 20.23C140.089 20.23 140.667 19.9827 141.125 19.488C141.591 18.9933 141.825 18.3773 141.825 17.64C141.825 16.912 141.596 16.3007 141.139 15.806C140.691 15.3113 140.107 15.064 139.389 15.064C138.679 15.064 138.096 15.3067 137.639 15.792C137.181 16.2773 136.953 16.8933 136.953 17.64ZM148.325 14.294V15.288H146.435V21H145.329V15.288H143.411V14.294H148.325ZM148.766 17.64C148.766 16.6133 149.106 15.764 149.788 15.092C150.478 14.4107 151.332 14.07 152.35 14.07C153.386 14.07 154.24 14.4107 154.912 15.092C155.593 15.7733 155.934 16.6227 155.934 17.64C155.934 18.6387 155.593 19.488 154.912 20.188C154.23 20.888 153.376 21.238 152.35 21.238C151.332 21.238 150.478 20.8927 149.788 20.202C149.106 19.5113 148.766 18.6573 148.766 17.64ZM149.914 17.64C149.914 18.3773 150.152 18.9933 150.628 19.488C151.113 19.9827 151.687 20.23 152.35 20.23C153.05 20.23 153.628 19.9827 154.086 19.488C154.552 18.9933 154.786 18.3773 154.786 17.64C154.786 16.912 154.557 16.3007 154.1 15.806C153.652 15.3113 153.068 15.064 152.35 15.064C151.64 15.064 151.057 15.3067 150.6 15.792C150.142 16.2773 149.914 16.8933 149.914 17.64ZM157.404 21V14.294H159.938C160.628 14.294 161.17 14.4433 161.562 14.742C161.954 15.0313 162.15 15.4467 162.15 15.988C162.15 16.2867 162.061 16.562 161.884 16.814C161.716 17.0567 161.45 17.234 161.086 17.346C161.636 17.4487 162.038 17.6493 162.29 17.948C162.551 18.2467 162.682 18.5967 162.682 18.998C162.682 19.6047 162.462 20.09 162.024 20.454C161.594 20.818 160.997 21 160.232 21H157.404ZM160.133 17.962H158.468V20.076H160.302C160.722 20.076 161.039 19.9733 161.254 19.768C161.468 19.5627 161.576 19.3107 161.576 19.012C161.576 18.312 161.095 17.962 160.133 17.962ZM159.868 15.218H158.468V17.038H159.714C160.61 17.038 161.058 16.7253 161.058 16.1C161.058 15.512 160.661 15.218 159.868 15.218ZM166.605 17.962H165.345V20.076H166.605C166.988 20.076 167.277 19.9733 167.473 19.768C167.669 19.5627 167.767 19.3107 167.767 19.012C167.767 18.312 167.38 17.962 166.605 17.962ZM165.345 17.038H166.619C167.329 17.038 167.879 17.2153 168.271 17.57C168.673 17.9153 168.873 18.3913 168.873 18.998C168.873 19.6047 168.677 20.09 168.285 20.454C167.893 20.818 167.352 21 166.661 21H164.239V14.294H165.345V17.038ZM170.105 21V14.294H171.211V21H170.105ZM182.534 14.294V21H181.428V15.288H177.746V21H176.64V14.294H182.534ZM187.33 14.07C187.909 14.07 188.422 14.182 188.87 14.406C189.318 14.63 189.663 14.9193 189.906 15.274C190.158 15.6287 190.345 16.002 190.466 16.394C190.587 16.7767 190.648 17.164 190.648 17.556C190.648 17.7333 190.639 17.8687 190.62 17.962H185.146C185.146 18.5687 185.384 19.1053 185.86 19.572C186.336 20.0293 186.891 20.258 187.526 20.258C188.217 20.258 188.791 19.9873 189.248 19.446H190.522C190.261 19.9407 189.878 20.3653 189.374 20.72C188.879 21.0653 188.273 21.238 187.554 21.238C186.499 21.238 185.641 20.888 184.978 20.188C184.325 19.488 183.998 18.6107 183.998 17.556C183.998 16.5947 184.306 15.7733 184.922 15.092C185.538 14.4107 186.341 14.07 187.33 14.07ZM187.33 15.036C186.723 15.036 186.224 15.2367 185.832 15.638C185.44 16.03 185.216 16.4967 185.16 17.038H189.486C189.43 16.4873 189.201 16.016 188.8 15.624C188.408 15.232 187.918 15.036 187.33 15.036ZM192.116 24.29V14.294H193.222V15.246H193.25C193.913 14.462 194.753 14.07 195.77 14.07C196.797 14.07 197.614 14.4247 198.22 15.134C198.836 15.8433 199.144 16.6787 199.144 17.64C199.144 18.6573 198.818 19.5113 198.164 20.202C197.52 20.8927 196.708 21.238 195.728 21.238C194.711 21.238 193.885 20.86 193.25 20.104H193.222V24.29H192.116ZM197.996 17.64C197.996 16.9307 197.777 16.3193 197.338 15.806C196.909 15.2927 196.307 15.036 195.532 15.036C194.851 15.036 194.277 15.2833 193.81 15.778C193.353 16.2633 193.124 16.898 193.124 17.682C193.124 18.4287 193.362 19.0447 193.838 19.53C194.324 20.0153 194.898 20.258 195.56 20.258C196.326 20.258 196.923 19.9967 197.352 19.474C197.782 18.9513 197.996 18.34 197.996 17.64ZM203.49 14.07C204.069 14.07 204.582 14.182 205.03 14.406C205.478 14.63 205.824 14.9193 206.066 15.274C206.318 15.6287 206.505 16.002 206.626 16.394C206.748 16.7767 206.808 17.164 206.808 17.556C206.808 17.7333 206.799 17.8687 206.78 17.962H201.306C201.306 18.5687 201.544 19.1053 202.02 19.572C202.496 20.0293 203.052 20.258 203.686 20.258C204.377 20.258 204.951 19.9873 205.408 19.446H206.682C206.421 19.9407 206.038 20.3653 205.534 20.72C205.04 21.0653 204.433 21.238 203.714 21.238C202.66 21.238 201.801 20.888 201.138 20.188C200.485 19.488 200.158 18.6107 200.158 17.556C200.158 16.5947 200.466 15.7733 201.082 15.092C201.698 14.4107 202.501 14.07 203.49 14.07ZM203.49 15.036C202.884 15.036 202.384 15.2367 201.992 15.638C201.6 16.03 201.376 16.4967 201.32 17.038H205.646C205.59 16.4873 205.362 16.016 204.96 15.624C204.568 15.232 204.078 15.036 203.49 15.036ZM207.703 19.334H208.879C209.056 19.9687 209.541 20.286 210.335 20.286C210.848 20.286 211.24 20.1787 211.511 19.964C211.781 19.74 211.917 19.4553 211.917 19.11C211.917 18.7553 211.777 18.4753 211.497 18.27C211.226 18.0647 210.913 17.962 210.559 17.962H209.593V17.038H210.559C210.913 17.038 211.198 16.9447 211.413 16.758C211.637 16.562 211.749 16.31 211.749 16.002C211.749 15.7313 211.632 15.5027 211.399 15.316C211.165 15.12 210.843 15.022 210.433 15.022C210.097 15.022 209.803 15.1013 209.551 15.26C209.308 15.4187 209.149 15.6333 209.075 15.904H207.927C208.039 15.3347 208.323 14.8867 208.781 14.56C209.238 14.2333 209.784 14.07 210.419 14.07C211.128 14.07 211.707 14.2427 212.155 14.588C212.612 14.924 212.841 15.3627 212.841 15.904C212.841 16.716 212.458 17.2387 211.693 17.472C212.103 17.5933 212.425 17.8033 212.659 18.102C212.901 18.3913 213.023 18.7273 213.023 19.11C213.023 19.7447 212.789 20.2627 212.323 20.664C211.856 21.056 211.189 21.252 210.321 21.252C209.639 21.252 209.061 21.084 208.585 20.748C208.109 20.412 207.815 19.9407 207.703 19.334ZM214.607 21V14.294H217.141C217.831 14.294 218.373 14.4433 218.765 14.742C219.157 15.0313 219.353 15.4467 219.353 15.988C219.353 16.2867 219.264 16.562 219.087 16.814C218.919 17.0567 218.653 17.234 218.289 17.346C218.839 17.4487 219.241 17.6493 219.493 17.948C219.754 18.2467 219.885 18.5967 219.885 18.998C219.885 19.6047 219.665 20.09 219.227 20.454C218.797 20.818 218.2 21 217.435 21H214.607ZM217.337 17.962H215.671V20.076H217.505C217.925 20.076 218.242 19.9733 218.457 19.768C218.671 19.5627 218.779 19.3107 218.779 19.012C218.779 18.312 218.298 17.962 217.337 17.962ZM217.071 15.218H215.671V17.038H216.917C217.813 17.038 218.261 16.7253 218.261 16.1C218.261 15.512 217.864 15.218 217.071 15.218ZM220.981 17.64C220.981 16.6133 221.321 15.764 222.003 15.092C222.693 14.4107 223.547 14.07 224.565 14.07C225.601 14.07 226.455 14.4107 227.127 15.092C227.808 15.7733 228.149 16.6227 228.149 17.64C228.149 18.6387 227.808 19.488 227.127 20.188C226.445 20.888 225.591 21.238 224.565 21.238C223.547 21.238 222.693 20.8927 222.003 20.202C221.321 19.5113 220.981 18.6573 220.981 17.64ZM222.129 17.64C222.129 18.3773 222.367 18.9933 222.843 19.488C223.328 19.9827 223.902 20.23 224.565 20.23C225.265 20.23 225.843 19.9827 226.301 19.488C226.767 18.9933 227.001 18.3773 227.001 17.64C227.001 16.912 226.772 16.3007 226.315 15.806C225.867 15.3113 225.283 15.064 224.565 15.064C223.855 15.064 223.272 15.3067 222.815 15.792C222.357 16.2773 222.129 16.8933 222.129 17.64ZM235.512 14.294V21H234.406V17.962H230.724V21H229.618V14.294H230.724V17.038H234.406V14.294H235.512ZM237.439 21V14.294H238.545V17.332C238.545 18.1533 238.531 18.8393 238.503 19.39H238.531C238.671 19.1287 238.983 18.6853 239.469 18.06L242.339 14.294H243.333V21H242.227V17.962C242.227 17.1407 242.241 16.4547 242.269 15.904H242.241C242.101 16.1653 241.788 16.6087 241.303 17.234L238.433 21H237.439ZM249.347 14.294V15.288H247.457V21H246.351V15.288H244.433V14.294H249.347ZM252.82 17.962H251.56V20.076H252.82C253.203 20.076 253.492 19.9733 253.688 19.768C253.884 19.5627 253.982 19.3107 253.982 19.012C253.982 18.312 253.595 17.962 252.82 17.962ZM251.56 17.038H252.834C253.544 17.038 254.094 17.2153 254.486 17.57C254.888 17.9153 255.088 18.3913 255.088 18.998C255.088 19.6047 254.892 20.09 254.5 20.454C254.108 20.818 253.567 21 252.876 21H250.454V14.294H251.56V17.038Z" fill="#29383D"/>
<defs>
<filter id="filter0_d_2001_11185" x="16.7" y="6.7" width="21.6" height="21.6" filterUnits="userSpaceOnUse" color-interpolation-filters="sRGB">
<feFlood flood-opacity="0" result="BackgroundImageFix"/>
<feColorMatrix in="SourceAlpha" type="matrix" values="0 0 0 0 0 0 0 0 0 0 0 0 0 0 0 0 0 0 127 0" result="hardAlpha"/>
<feMorphology radius="2" operator="dilate" in="SourceAlpha" result="effect1_dropShadow_2001_11185"/>
<feOffset dx="1" dy="1"/>
<feGaussianBlur stdDeviation="2.15"/>
<feComposite in2="hardAlpha" operator="out"/>
<feColorMatrix type="matrix" values="0 0 0 0 0.67451 0 0 0 0 0.913725 0 0 0 0 0.447059 0 0 0 0.37 0"/>
<feBlend mode="normal" in2="BackgroundImageFix" result="effect1_dropShadow_2001_11185"/>
<feBlend mode="normal" in="SourceGraphic" in2="effect1_dropShadow_2001_11185" result="shape"/>
</filter>
</defs>
</svg>
