<svg width="317" height="33" viewBox="0 0 317 33" fill="none" xmlns="http://www.w3.org/2000/svg">
<rect width="317" height="33" rx="5" fill="#EEFFDE"/>
<g filter="url(#filter0_d_2001_13058)">
<circle cx="46.5" cy="16.5" r="4.5" fill="#9FE65B"/>
</g>
<path d="M68.772 11.452L69.822 21H68.688L68.142 15.428C68.058 14.504 67.9833 13.6593 67.918 12.894H67.876C67.6987 13.4727 67.428 14.322 67.064 15.442L65.202 21H64.194L62.332 15.288C61.856 13.8227 61.5993 13.0247 61.562 12.894H61.506C61.4407 13.8367 61.3707 14.63 61.296 15.274L60.708 21H59.588L60.694 11.452H62.108L64.18 17.598C64.3947 18.214 64.5673 18.7973 64.698 19.348H64.754C64.866 18.8907 65.0433 18.3073 65.286 17.598L67.372 11.452H68.772ZM73.748 17.962H72.488V20.076H73.748C74.1307 20.076 74.42 19.9733 74.616 19.768C74.812 19.5627 74.91 19.3107 74.91 19.012C74.91 18.312 74.5227 17.962 73.748 17.962ZM72.488 17.038H73.762C74.4713 17.038 75.022 17.2153 75.414 17.57C75.8153 17.9153 76.016 18.3913 76.016 18.998C76.016 19.6047 75.82 20.09 75.428 20.454C75.036 20.818 74.4947 21 73.804 21H71.382V14.294H72.488V17.038ZM77.248 21V14.294H78.354V21H77.248ZM84.5524 16.226C84.5524 17.3833 84.9211 18.3493 85.6584 19.124C86.3957 19.8893 87.3104 20.272 88.4024 20.272C89.4944 20.272 90.4091 19.8893 91.1464 19.124C91.8931 18.3493 92.2664 17.3833 92.2664 16.226C92.2664 15.0687 91.9071 14.1073 91.1884 13.342C90.4697 12.5673 89.5411 12.18 88.4024 12.18C87.3104 12.18 86.3957 12.5627 85.6584 13.328C84.9211 14.0933 84.5524 15.0593 84.5524 16.226ZM83.3484 16.226C83.3484 14.8353 83.8291 13.6407 84.7904 12.642C85.7611 11.6433 86.9697 11.144 88.4164 11.144C89.9284 11.144 91.1464 11.6433 92.0704 12.642C93.0037 13.6407 93.4704 14.8353 93.4704 16.226C93.4704 17.6353 92.9851 18.8347 92.0144 19.824C91.0437 20.8133 89.8444 21.308 88.4164 21.308C87.5857 21.308 86.8344 21.1587 86.1624 20.86C85.4997 20.552 84.9677 20.1507 84.5664 19.656C84.1651 19.152 83.8617 18.6107 83.6564 18.032C83.4511 17.444 83.3484 16.842 83.3484 16.226ZM96.128 13.286H96.1C96.1187 13.9767 96.128 14.644 96.128 15.288V21H95.036V11.452H96.128L99.236 16.044C100.319 17.6493 100.991 18.6947 101.252 19.18H101.28C101.261 18.816 101.252 18.1393 101.252 17.15V11.452H102.344V21H101.252L98.144 16.408C97.0427 14.784 96.3707 13.7433 96.128 13.286ZM104.415 21V11.452H105.577V19.936H109.805V21H104.415ZM111.032 21V11.452H112.194V21H111.032ZM115.364 13.286H115.336C115.355 13.9767 115.364 14.644 115.364 15.288V21H114.272V11.452H115.364L118.472 16.044C119.555 17.6493 120.227 18.6947 120.488 19.18H120.516C120.498 18.816 120.488 18.1393 120.488 17.15V11.452H121.58V21H120.488L117.38 16.408C116.279 14.784 115.607 13.7433 115.364 13.286ZM128.887 11.452V12.516H124.813V15.526H128.733V16.59H124.813V19.936H129.041V21H123.651V11.452H128.887ZM134.409 21V14.294H135.515V17.332C135.515 18.1533 135.501 18.8393 135.473 19.39H135.501C135.641 19.1287 135.954 18.6853 136.439 18.06L139.309 14.294H140.303V21H139.197V17.962C139.197 17.1407 139.211 16.4547 139.239 15.904H139.211C139.071 16.1653 138.759 16.6087 138.273 17.234L135.403 21H134.409ZM150.364 14.294V15.288H146.836V21H145.73V14.294H150.364ZM150.805 17.64C150.805 16.6133 151.145 15.764 151.827 15.092C152.517 14.4107 153.371 14.07 154.389 14.07C155.425 14.07 156.279 14.4107 156.951 15.092C157.632 15.7733 157.973 16.6227 157.973 17.64C157.973 18.6387 157.632 19.488 156.951 20.188C156.269 20.888 155.415 21.238 154.389 21.238C153.371 21.238 152.517 20.8927 151.827 20.202C151.145 19.5113 150.805 18.6573 150.805 17.64ZM151.953 17.64C151.953 18.3773 152.191 18.9933 152.667 19.488C153.152 19.9827 153.726 20.23 154.389 20.23C155.089 20.23 155.667 19.9827 156.125 19.488C156.591 18.9933 156.825 18.3773 156.825 17.64C156.825 16.912 156.596 16.3007 156.139 15.806C155.691 15.3113 155.107 15.064 154.389 15.064C153.679 15.064 153.096 15.3067 152.639 15.792C152.181 16.2773 151.953 16.8933 151.953 17.64ZM163.325 14.294V15.288H161.435V21H160.329V15.288H158.411V14.294H163.325ZM163.766 17.64C163.766 16.6133 164.106 15.764 164.788 15.092C165.478 14.4107 166.332 14.07 167.35 14.07C168.386 14.07 169.24 14.4107 169.912 15.092C170.593 15.7733 170.934 16.6227 170.934 17.64C170.934 18.6387 170.593 19.488 169.912 20.188C169.23 20.888 168.376 21.238 167.35 21.238C166.332 21.238 165.478 20.8927 164.788 20.202C164.106 19.5113 163.766 18.6573 163.766 17.64ZM164.914 17.64C164.914 18.3773 165.152 18.9933 165.628 19.488C166.113 19.9827 166.687 20.23 167.35 20.23C168.05 20.23 168.628 19.9827 169.086 19.488C169.552 18.9933 169.786 18.3773 169.786 17.64C169.786 16.912 169.557 16.3007 169.1 15.806C168.652 15.3113 168.068 15.064 167.35 15.064C166.64 15.064 166.057 15.3067 165.6 15.792C165.142 16.2773 164.914 16.8933 164.914 17.64ZM172.404 21V14.294H174.938C175.628 14.294 176.17 14.4433 176.562 14.742C176.954 15.0313 177.15 15.4467 177.15 15.988C177.15 16.2867 177.061 16.562 176.884 16.814C176.716 17.0567 176.45 17.234 176.086 17.346C176.636 17.4487 177.038 17.6493 177.29 17.948C177.551 18.2467 177.682 18.5967 177.682 18.998C177.682 19.6047 177.462 20.09 177.024 20.454C176.594 20.818 175.997 21 175.232 21H172.404ZM175.133 17.962H173.468V20.076H175.302C175.722 20.076 176.039 19.9733 176.254 19.768C176.468 19.5627 176.576 19.3107 176.576 19.012C176.576 18.312 176.095 17.962 175.133 17.962ZM174.868 15.218H173.468V17.038H174.714C175.61 17.038 176.058 16.7253 176.058 16.1C176.058 15.512 175.661 15.218 174.868 15.218ZM181.605 17.962H180.345V20.076H181.605C181.988 20.076 182.277 19.9733 182.473 19.768C182.669 19.5627 182.767 19.3107 182.767 19.012C182.767 18.312 182.38 17.962 181.605 17.962ZM180.345 17.038H181.619C182.329 17.038 182.879 17.2153 183.271 17.57C183.673 17.9153 183.873 18.3913 183.873 18.998C183.873 19.6047 183.677 20.09 183.285 20.454C182.893 20.818 182.352 21 181.661 21H179.239V14.294H180.345V17.038ZM185.105 21V14.294H186.211V21H185.105ZM197.534 14.294V21H196.428V15.288H192.746V21H191.64V14.294H197.534ZM202.33 14.07C202.909 14.07 203.422 14.182 203.87 14.406C204.318 14.63 204.663 14.9193 204.906 15.274C205.158 15.6287 205.345 16.002 205.466 16.394C205.587 16.7767 205.648 17.164 205.648 17.556C205.648 17.7333 205.639 17.8687 205.62 17.962H200.146C200.146 18.5687 200.384 19.1053 200.86 19.572C201.336 20.0293 201.891 20.258 202.526 20.258C203.217 20.258 203.791 19.9873 204.248 19.446H205.522C205.261 19.9407 204.878 20.3653 204.374 20.72C203.879 21.0653 203.273 21.238 202.554 21.238C201.499 21.238 200.641 20.888 199.978 20.188C199.325 19.488 198.998 18.6107 198.998 17.556C198.998 16.5947 199.306 15.7733 199.922 15.092C200.538 14.4107 201.341 14.07 202.33 14.07ZM202.33 15.036C201.723 15.036 201.224 15.2367 200.832 15.638C200.44 16.03 200.216 16.4967 200.16 17.038H204.486C204.43 16.4873 204.201 16.016 203.8 15.624C203.408 15.232 202.918 15.036 202.33 15.036ZM207.116 24.29V14.294H208.222V15.246H208.25C208.913 14.462 209.753 14.07 210.77 14.07C211.797 14.07 212.614 14.4247 213.22 15.134C213.836 15.8433 214.144 16.6787 214.144 17.64C214.144 18.6573 213.818 19.5113 213.164 20.202C212.52 20.8927 211.708 21.238 210.728 21.238C209.711 21.238 208.885 20.86 208.25 20.104H208.222V24.29H207.116ZM212.996 17.64C212.996 16.9307 212.777 16.3193 212.338 15.806C211.909 15.2927 211.307 15.036 210.532 15.036C209.851 15.036 209.277 15.2833 208.81 15.778C208.353 16.2633 208.124 16.898 208.124 17.682C208.124 18.4287 208.362 19.0447 208.838 19.53C209.324 20.0153 209.898 20.258 210.56 20.258C211.326 20.258 211.923 19.9967 212.352 19.474C212.782 18.9513 212.996 18.34 212.996 17.64ZM218.49 14.07C219.069 14.07 219.582 14.182 220.03 14.406C220.478 14.63 220.824 14.9193 221.066 15.274C221.318 15.6287 221.505 16.002 221.626 16.394C221.748 16.7767 221.808 17.164 221.808 17.556C221.808 17.7333 221.799 17.8687 221.78 17.962H216.306C216.306 18.5687 216.544 19.1053 217.02 19.572C217.496 20.0293 218.052 20.258 218.686 20.258C219.377 20.258 219.951 19.9873 220.408 19.446H221.682C221.421 19.9407 221.038 20.3653 220.534 20.72C220.04 21.0653 219.433 21.238 218.714 21.238C217.66 21.238 216.801 20.888 216.138 20.188C215.485 19.488 215.158 18.6107 215.158 17.556C215.158 16.5947 215.466 15.7733 216.082 15.092C216.698 14.4107 217.501 14.07 218.49 14.07ZM218.49 15.036C217.884 15.036 217.384 15.2367 216.992 15.638C216.6 16.03 216.376 16.4967 216.32 17.038H220.646C220.59 16.4873 220.362 16.016 219.96 15.624C219.568 15.232 219.078 15.036 218.49 15.036ZM222.703 19.334H223.879C224.056 19.9687 224.541 20.286 225.335 20.286C225.848 20.286 226.24 20.1787 226.511 19.964C226.781 19.74 226.917 19.4553 226.917 19.11C226.917 18.7553 226.777 18.4753 226.497 18.27C226.226 18.0647 225.913 17.962 225.559 17.962H224.593V17.038H225.559C225.913 17.038 226.198 16.9447 226.413 16.758C226.637 16.562 226.749 16.31 226.749 16.002C226.749 15.7313 226.632 15.5027 226.399 15.316C226.165 15.12 225.843 15.022 225.433 15.022C225.097 15.022 224.803 15.1013 224.551 15.26C224.308 15.4187 224.149 15.6333 224.075 15.904H222.927C223.039 15.3347 223.323 14.8867 223.781 14.56C224.238 14.2333 224.784 14.07 225.419 14.07C226.128 14.07 226.707 14.2427 227.155 14.588C227.612 14.924 227.841 15.3627 227.841 15.904C227.841 16.716 227.458 17.2387 226.693 17.472C227.103 17.5933 227.425 17.8033 227.659 18.102C227.901 18.3913 228.023 18.7273 228.023 19.11C228.023 19.7447 227.789 20.2627 227.323 20.664C226.856 21.056 226.189 21.252 225.321 21.252C224.639 21.252 224.061 21.084 223.585 20.748C223.109 20.412 222.815 19.9407 222.703 19.334ZM229.607 21V14.294H232.141C232.831 14.294 233.373 14.4433 233.765 14.742C234.157 15.0313 234.353 15.4467 234.353 15.988C234.353 16.2867 234.264 16.562 234.087 16.814C233.919 17.0567 233.653 17.234 233.289 17.346C233.839 17.4487 234.241 17.6493 234.493 17.948C234.754 18.2467 234.885 18.5967 234.885 18.998C234.885 19.6047 234.665 20.09 234.227 20.454C233.797 20.818 233.2 21 232.435 21H229.607ZM232.337 17.962H230.671V20.076H232.505C232.925 20.076 233.242 19.9733 233.457 19.768C233.671 19.5627 233.779 19.3107 233.779 19.012C233.779 18.312 233.298 17.962 232.337 17.962ZM232.071 15.218H230.671V17.038H231.917C232.813 17.038 233.261 16.7253 233.261 16.1C233.261 15.512 232.864 15.218 232.071 15.218ZM235.981 17.64C235.981 16.6133 236.321 15.764 237.003 15.092C237.693 14.4107 238.547 14.07 239.565 14.07C240.601 14.07 241.455 14.4107 242.127 15.092C242.808 15.7733 243.149 16.6227 243.149 17.64C243.149 18.6387 242.808 19.488 242.127 20.188C241.445 20.888 240.591 21.238 239.565 21.238C238.547 21.238 237.693 20.8927 237.003 20.202C236.321 19.5113 235.981 18.6573 235.981 17.64ZM237.129 17.64C237.129 18.3773 237.367 18.9933 237.843 19.488C238.328 19.9827 238.902 20.23 239.565 20.23C240.265 20.23 240.843 19.9827 241.301 19.488C241.767 18.9933 242.001 18.3773 242.001 17.64C242.001 16.912 241.772 16.3007 241.315 15.806C240.867 15.3113 240.283 15.064 239.565 15.064C238.855 15.064 238.272 15.3067 237.815 15.792C237.357 16.2773 237.129 16.8933 237.129 17.64ZM250.512 14.294V21H249.406V17.962H245.724V21H244.618V14.294H245.724V17.038H249.406V14.294H250.512ZM252.439 21V14.294H253.545V17.332C253.545 18.1533 253.531 18.8393 253.503 19.39H253.531C253.671 19.1287 253.983 18.6853 254.469 18.06L257.339 14.294H258.333V21H257.227V17.962C257.227 17.1407 257.241 16.4547 257.269 15.904H257.241C257.101 16.1653 256.788 16.6087 256.303 17.234L253.433 21H252.439ZM264.347 14.294V15.288H262.457V21H261.351V15.288H259.433V14.294H264.347ZM267.82 17.962H266.56V20.076H267.82C268.203 20.076 268.492 19.9733 268.688 19.768C268.884 19.5627 268.982 19.3107 268.982 19.012C268.982 18.312 268.595 17.962 267.82 17.962ZM266.56 17.038H267.834C268.544 17.038 269.094 17.2153 269.486 17.57C269.888 17.9153 270.088 18.3913 270.088 18.998C270.088 19.6047 269.892 20.09 269.5 20.454C269.108 20.818 268.567 21 267.876 21H265.454V14.294H266.56V17.038Z" fill="#29383D"/>
<defs>
<filter id="filter0_d_2001_13058" x="36.7" y="6.7" width="21.6" height="21.6" filterUnits="userSpaceOnUse" color-interpolation-filters="sRGB">
<feFlood flood-opacity="0" result="BackgroundImageFix"/>
<feColorMatrix in="SourceAlpha" type="matrix" values="0 0 0 0 0 0 0 0 0 0 0 0 0 0 0 0 0 0 127 0" result="hardAlpha"/>
<feMorphology radius="2" operator="dilate" in="SourceAlpha" result="effect1_dropShadow_2001_13058"/>
<feOffset dx="1" dy="1"/>
<feGaussianBlur stdDeviation="2.15"/>
<feComposite in2="hardAlpha" operator="out"/>
<feColorMatrix type="matrix" values="0 0 0 0 0.67451 0 0 0 0 0.913725 0 0 0 0 0.447059 0 0 0 0.37 0"/>
<feBlend mode="normal" in2="BackgroundImageFix" result="effect1_dropShadow_2001_13058"/>
<feBlend mode="normal" in="SourceGraphic" in2="effect1_dropShadow_2001_13058" result="shape"/>
</filter>
</defs>
</svg>
