<svg width="90" height="66" viewBox="0 0 90 66" fill="none" xmlns="http://www.w3.org/2000/svg">
<path fill-rule="evenodd" clip-rule="evenodd" d="M2.69742 41.5939C2.69742 41.5939 0.431619 44.5629 3.4006 47.5319C6.36957 50.5008 9.57294 51.5947 9.57294 51.5947C9.57294 51.5947 14.2608 52.6885 14.8858 49.8758C15.5109 47.1412 16.3703 44.7973 18.0892 45.1879C19.8081 45.5786 23.0115 49.0164 23.0115 49.0164C23.0115 49.0164 26.8399 52.6104 28.5588 48.1569C30.2776 43.7035 18.558 36.281 18.558 36.281L10.5105 44.3285L2.69742 41.5939Z" fill="#7E7C70"/>
<path fill-rule="evenodd" clip-rule="evenodd" d="M16.214 46.1254C16.6828 45.3441 17.3078 44.9534 18.0891 45.1878C18.4016 45.2659 18.7142 45.4222 19.0267 45.6566L18.9486 41.125C18.9486 41.125 15.3545 41.2813 14.8076 43.1564L16.214 46.1254Z" fill="#686660"/>
<path d="M48.0916 19.8735C49.1073 20.8111 49.3417 21.9049 47.8572 23.3113M48.0916 23.5457C48.0916 23.5457 44.7319 28.8586 42.388 30.5775C40.0441 32.2964 39.419 30.9681 37.9346 29.093C36.4501 27.2178 37.5439 27.2178 36.0594 25.2646C35.7469 24.8739 35.3562 24.6395 34.9656 24.4051" stroke="#2E2E2D" stroke-width="0.5" stroke-miterlimit="22.9256"/>
<path fill-rule="evenodd" clip-rule="evenodd" d="M13.0107 11.4354C13.0107 11.4354 12.3857 12.9199 13.8702 13.7793C15.3547 14.6388 17.2298 13.3887 19.1831 14.6388C21.1364 15.8889 20.4332 19.9517 19.4175 21.4361C18.3237 22.9206 27.465 13.3105 27.465 13.3105L22.3865 7.13818L13.0107 11.4354Z" fill="#7E7C70"/>
<path fill-rule="evenodd" clip-rule="evenodd" d="M39.3409 13.1543C39.3409 13.1543 38.4033 18.4672 41.4504 17.6078C40.6691 16.1233 40.2784 15.342 41.216 13.545C42.388 11.2792 49.0291 12.1386 47.6228 6.5913C47.2321 4.87242 35.1218 8.23205 39.3409 13.1543Z" fill="#414141"/>
<path d="M47.5447 19.4829C48.9511 20.4205 49.5762 21.6706 47.8573 23.3113M48.0917 23.5457C48.0917 23.5457 44.732 28.8586 42.3881 30.5775C40.0442 32.2964 39.4191 30.9682 37.9346 29.093C36.4502 27.2179 37.544 27.2179 36.0595 25.2646C35.4344 24.4833 34.6531 24.2489 33.8718 24.2489" stroke="#2E2E2D" stroke-width="0.5" stroke-miterlimit="22.9256"/>
<path fill-rule="evenodd" clip-rule="evenodd" d="M0.119106 29.2493C0.119106 29.2493 -0.42781 32.062 0.822286 33.859C2.07238 35.7341 9.80734 36.6717 8.86977 39.7188C7.9322 42.7659 15.9797 30.7338 15.9797 30.7338C15.9797 30.7338 7.22902 27.6867 0.119106 29.2493Z" fill="#7E7C70"/>
<path fill-rule="evenodd" clip-rule="evenodd" d="M47.9353 23.3893C48.0134 23.4674 44.6538 28.7803 42.3098 30.4992C38.4033 33.3119 36.9969 27.374 35.9031 25.1863C34.4967 22.3736 31.4496 24.5612 31.4496 24.5612C31.4496 24.5612 26.5274 29.8741 25.5117 31.9837C24.4178 34.0932 26.293 35.9684 27.7775 36.9059C29.1838 37.7654 30.5902 36.5153 33.1685 36.5153C35.7468 36.5153 34.8093 39.5624 34.8093 39.5624C34.8093 39.5624 31.059 45.6566 29.5745 47.2974C25.4335 51.9852 22.3083 44.094 18.1674 43.5471C15.1984 43.1564 14.5733 45.891 13.9483 46.9067C13.3232 48.0005 13.3232 50.9695 10.3543 50.2663C7.38529 49.6413 4.18193 47.063 2.46305 44.9534C0.744165 42.8439 3.08809 40.7344 5.04137 40.7344C7.93221 40.7344 11.995 37.9998 7.1509 34.7964C5.90081 33.937 3.08809 33.3119 1.21295 31.593C-0.662191 29.8741 0.822297 28.2334 0.822297 28.2334C0.822297 28.2334 5.27576 21.436 6.99464 19.9515C8.71352 18.467 10.198 19.7171 10.198 19.7171C10.198 19.7171 9.57296 22.0611 13.4014 22.6861C19.1831 23.6237 23.4021 16.7481 19.9644 13.3104C18.4799 11.8259 13.4014 12.2166 13.4014 12.2166C13.4014 12.2166 12.1513 11.8259 14.4952 9.01318C16.8391 6.2786 18.9487 4.09093 18.9487 4.09093C18.9487 4.09093 21.527 0.262517 23.8709 2.21579C26.2149 4.09093 26.0586 4.71598 28.5588 6.43486C30.9808 8.07561 35.3562 8.70066 36.5281 4.48159C37.2313 2.05953 36.3719 -0.2844 40.2003 0.0281243C47.2321 0.653172 51.1386 9.32571 44.0287 10.0289C39.3409 10.4195 37.9345 15.3418 42.3098 17.0607C44.8882 18.2326 51.4512 19.9515 47.9353 23.3893Z" fill="#F2CF9F"/>
<path fill-rule="evenodd" clip-rule="evenodd" d="M1.05664 27.6084C2.15047 25.8895 5.43197 21.1235 6.83833 19.9515C8.55721 18.467 10.0417 19.7171 10.0417 19.7171C10.0417 19.7171 9.41666 22.0611 13.2451 22.6861C19.0268 23.6237 23.2458 16.7482 19.8081 13.3104C18.3236 11.8259 13.2451 12.2166 13.2451 12.2166C13.2451 12.2166 11.995 11.8259 14.3389 9.0132C16.6828 6.27862 18.7924 4.09095 18.7924 4.09095C18.7924 4.09095 21.3707 0.262535 23.7146 2.21581C26.0585 4.09095 25.9023 4.716 28.4025 6.43488C29.1838 6.9818 30.1214 7.37245 31.1371 7.60685C33.481 24.7957 15.7453 32.2962 1.05664 27.6084Z" fill="#DC824A"/>
<path fill-rule="evenodd" clip-rule="evenodd" d="M48.7948 24.7176C49.1073 24.4051 45.2008 29.6399 42.8569 31.2806C38.9503 34.0934 36.9189 27.1397 35.4344 25.2646C33.9499 23.3894 32.1529 25.4208 32.1529 25.4208C32.1529 25.4208 26.215 32.1401 25.7462 34.0152C25.1211 36.281 23.4804 31.7494 30.5122 24.952C31.9185 23.6238 33.7155 22.6081 35.2 23.7801C35.9032 24.327 36.5283 25.7333 36.7627 26.5147C37.7784 29.7962 40.1223 31.515 42.7787 28.8586C43.7163 27.921 47.6229 22.7644 47.9354 21.9831C48.1698 21.358 48.7167 20.3423 48.0916 20.0298C49.4199 20.5767 50.2012 23.3113 48.7948 24.7176Z" fill="#414141"/>
<path fill-rule="evenodd" clip-rule="evenodd" d="M34.9654 37.8435C35.1998 38.4686 35.0435 39.4061 35.0435 39.4061C33.1684 43.5471 30.9807 45.8129 28.168 49.0944C27.7774 49.5632 27.3867 50.0319 27.0742 50.1101C26.996 49.9538 27.3086 49.0162 27.2304 48.7037C27.9336 48.3131 28.5587 47.6099 29.5744 46.4379C30.9807 44.719 34.5747 40.1093 34.9654 37.8435Z" fill="#414141"/>
<path fill-rule="evenodd" clip-rule="evenodd" d="M28.1681 37.2184C25.9023 36.9059 24.0271 34.4839 25.4335 31.3586C25.746 30.7336 29.34 25.5769 27.3086 29.2491C25.5116 32.5306 24.2615 36.9059 29.7307 36.7497C32.5434 36.2027 35.6687 35.1089 35.1217 39.0936L34.8092 38.8592C34.8092 38.8592 35.0436 38.0779 34.8873 37.6091C34.6529 36.7497 34.0279 36.5153 33.2466 36.5153C31.0589 36.9059 29.5744 37.4528 28.1681 37.2184Z" fill="#414141"/>
<path fill-rule="evenodd" clip-rule="evenodd" d="M42.4661 46.5161C43.7943 47.2974 44.7319 47.6099 45.2006 47.7662C45.3569 47.7662 45.435 47.8443 45.435 47.8443C45.435 47.8443 46.607 48.2349 48.1696 46.9848C49.6541 45.7348 52.0762 44.094 52.7012 45.1097C53.3263 46.2035 53.4825 43.8596 53.4825 43.8596L51.9199 40.8125L47.3102 41.4375L45.2788 43.7033L42.4661 46.5161Z" fill="#414141"/>
<path fill-rule="evenodd" clip-rule="evenodd" d="M51.0604 56.7509C51.0604 56.7509 49.8103 59.4855 52.7011 60.4231C54.8888 61.1263 64.3426 64.4078 65.749 60.2668C65.9053 59.7199 65.749 60.2668 64.4989 57.7666C63.2488 55.2665 63.4051 53.3132 66.2959 51.3599C69.1086 49.4848 71.6088 51.0474 72.3901 52.0631C73.1714 53.0788 75.0466 53.0788 75.0466 53.0788L63.7957 41.1248L55.5138 53.3913L51.0604 56.7509Z" fill="#686660"/>
<path fill-rule="evenodd" clip-rule="evenodd" d="M65.5148 60.6575C65.5929 60.5012 65.671 60.4231 65.671 60.2668C65.8273 59.7199 65.671 60.2668 64.4209 57.7666C61.4519 51.8287 69.3432 48.1565 72.3121 52.1412C73.0935 53.1569 74.9686 53.1569 74.9686 53.1569L63.7177 41.2029L57.6235 50.2661C57.8579 53.4694 58.8736 56.5166 61.4519 58.3136L65.5148 60.6575Z" fill="#7E7C70"/>
<path fill-rule="evenodd" clip-rule="evenodd" d="M51.6855 59.8761C51.9199 60.1105 52.2325 60.2668 52.7013 60.3449C54.4983 60.97 61.2175 63.2358 64.2646 61.7513L60.7487 59.3292L52.545 57.7666L51.6855 59.8761Z" fill="#7E7C70"/>
<path fill-rule="evenodd" clip-rule="evenodd" d="M69.4992 59.798C69.4992 59.798 67.3896 62.767 70.2024 63.939C72.9369 65.1891 80.0469 65.5797 80.0469 65.5797C80.0469 65.5797 84.2659 64.4078 84.891 60.97L89.8914 34.4055C90.2039 32.8429 89.8132 31.8272 89.5007 31.2802C88.5631 29.4832 87.0786 26.6705 84.4222 26.1236C80.3594 25.4204 84.1878 59.2511 69.4992 59.798Z" fill="#7E7C70"/>
<path fill-rule="evenodd" clip-rule="evenodd" d="M69.4992 59.798C69.4992 59.798 67.3896 62.7669 70.2024 63.9389C72.9369 65.189 80.4375 65.4234 80.4375 65.4234C80.4375 65.4234 81.7657 65.1109 83.1721 63.9389L79.0312 59.4073L73.8745 58.3916C72.6244 59.251 71.1399 59.7198 69.4992 59.798Z" fill="#7E7C70"/>
<path fill-rule="evenodd" clip-rule="evenodd" d="M80.8283 65.3453C81.844 64.9547 83.641 64.0171 84.5005 62.2982L78.7188 57.2979C78.7188 57.2979 77.3124 60.1887 78.1719 61.8294L80.8283 65.3453Z" fill="#686660"/>
<path fill-rule="evenodd" clip-rule="evenodd" d="M65.3583 59.4074L62.2331 58.4698C62.2331 58.4698 58.3265 53.3132 60.2017 50.5005C61.2955 48.8597 66.0615 48.0003 69.7336 47.6096L74.9684 53.1569V53.2351C74.6559 53.2351 73.0933 53.1569 72.3901 52.2193C69.5774 48.5472 61.6861 52.1412 64.4989 57.8448C64.8895 58.6261 65.1239 59.0949 65.3583 59.4074Z" fill="#414141"/>
<path fill-rule="evenodd" clip-rule="evenodd" d="M51.1384 56.204C51.3728 55.2664 55.2794 41.0466 49.7321 43.7812C48.9508 44.1718 47.3882 46.1251 45.5911 46.7502C43.4035 47.5315 41.0595 46.7502 40.9033 43.2343C40.8252 40.3434 41.4502 34.4836 44.0285 32.8429C47.4663 30.6552 48.1695 33.8586 50.5915 35.0305C52.7792 36.0462 53.9512 36.9057 55.2794 34.3273C57.5452 29.8739 55.3575 22.6858 61.608 22.3733C65.2801 22.1389 83.4065 25.4204 83.4065 25.4204C83.4065 25.4204 88.8757 26.7486 88.6413 32.3741C88.4069 37.9995 82.9377 59.5636 82.9377 59.5636C82.9377 59.5636 82.5471 62.6108 78.8749 63.3139C75.2028 64.0171 69.8899 62.5326 69.8899 62.5326C69.8899 62.5326 67.6241 61.7513 69.968 59.4074C72.3119 57.0635 73.562 55.1883 73.1714 53.4694C72.7807 51.7506 70.7493 48.3909 66.6865 49.0941C63.3269 49.7191 60.9048 53.7038 61.8424 56.9072C62.3112 58.4698 63.1706 59.0949 61.6861 60.0324C59.6547 61.2825 54.4199 59.8762 52.076 59.2511C52.076 59.2511 50.5915 58.1573 51.1384 56.204Z" fill="#F2CF9F"/>
<path fill-rule="evenodd" clip-rule="evenodd" d="M67.1554 22.8418C72.2339 23.4668 78.9532 24.6388 81.9221 25.1857C85.985 27.139 84.6567 30.108 79.7345 28.7016C82.0003 33.6239 78.7188 35.2646 76.1405 30.4986C74.2653 35.5771 70.7494 34.4833 72.312 29.2485C67.3898 31.5143 65.749 28.2328 70.515 25.6545C68.3274 24.7951 67.2335 23.7012 67.1554 22.8418Z" fill="#72C0CF"/>
<path fill-rule="evenodd" clip-rule="evenodd" d="M75.2028 41.5934C73.9527 38.8589 75.7497 37.9213 77.2342 40.5777C78.328 37.765 80.2032 38.3901 79.4218 41.2809C82.1564 40.0308 83.094 41.8278 80.4375 43.3123C83.2503 44.4062 82.6252 46.2813 79.7344 45.5C80.9845 48.2346 79.1875 49.1721 77.703 46.5157C76.6091 49.3284 74.734 48.7034 75.5153 45.8125C72.7807 47.0626 71.8431 45.2656 74.4996 43.7811C71.6087 42.6873 72.2338 40.734 75.2028 41.5934Z" fill="#9C0F14"/>
</svg>
