<svg width="72" height="67" viewBox="0 0 72 67" fill="none" xmlns="http://www.w3.org/2000/svg">
<path fill-rule="evenodd" clip-rule="evenodd" d="M2.59344 39.9118C2.59344 39.9118 0.415185 42.7661 3.26945 45.6203C6.12371 48.4746 9.20331 49.5262 9.20331 49.5262C9.20331 49.5262 13.7101 50.5778 14.3109 47.8737C14.9118 45.2448 15.7381 42.9914 17.3905 43.367C19.043 43.7425 22.1226 47.0475 22.1226 47.0475C22.1226 47.0475 25.8031 50.5026 27.4556 46.2212C29.1081 41.9399 17.8412 34.8042 17.8412 34.8042L10.1047 42.5408L2.59344 39.9118Z" fill="#7E7C70"/>
<path fill-rule="evenodd" clip-rule="evenodd" d="M15.5127 44.3433C15.9633 43.5922 16.5642 43.2166 17.3154 43.442C17.6158 43.5171 17.9162 43.6673 18.2167 43.8926L18.1416 39.5361C18.1416 39.5361 14.6864 39.6864 14.1606 41.489L15.5127 44.3433Z" fill="#686660"/>
<path d="M46.1584 19.106C47.1349 20.0073 47.3602 21.0589 45.9331 22.4109M46.1584 22.5611C46.1584 22.5611 42.9286 27.6687 40.6752 29.3212C38.4218 30.9737 37.821 29.6968 36.3938 27.8941C34.9667 26.0914 36.0183 26.0914 34.5911 24.2136C34.2907 23.838 33.9151 23.6127 33.5396 23.3874" stroke="#2E2E2D" stroke-width="0.5" stroke-miterlimit="22.9256"/>
<path fill-rule="evenodd" clip-rule="evenodd" d="M27.3804 46.672C27.3804 46.672 25.127 48.4747 27.155 50.5779C28.7324 52.1552 35.4174 59.0655 38.3467 56.0611C38.7223 55.6855 38.3467 56.0611 38.3467 53.4321C38.3467 50.8032 39.3983 49.1507 42.6281 48.7001C45.858 48.2494 47.3602 50.7281 47.5104 51.9299C47.7358 53.1317 49.3131 53.9579 49.3131 53.9579L44.8064 38.8604L32.3378 45.7707L27.3804 46.672Z" fill="#686660"/>
<path fill-rule="evenodd" clip-rule="evenodd" d="M38.0464 56.2864C38.1215 56.2113 38.2718 56.1362 38.3469 55.9859C38.7225 55.6104 38.3469 55.9859 38.3469 53.357C38.3469 46.9725 46.7594 47.2729 47.5106 51.9299C47.7359 53.1317 49.3133 53.9579 49.3133 53.9579L44.8065 38.8604L35.6429 43.968C34.4411 46.8222 33.9904 49.8267 35.4175 52.5308L38.0464 56.2864Z" fill="#7E7C70"/>
<path fill-rule="evenodd" clip-rule="evenodd" d="M26.5542 49.6762C26.7044 49.9767 26.9298 50.2771 27.1551 50.5776C28.432 51.8545 33.2392 56.7368 36.469 56.8119L34.441 53.2065L28.1316 48.3242L26.5542 49.6762Z" fill="#7E7C70"/>
<path fill-rule="evenodd" clip-rule="evenodd" d="M41.877 57.2625C41.877 57.2625 38.7974 58.915 40.6752 61.1684C42.4779 63.4217 48.4118 66.8769 48.4118 66.8769C48.4118 66.8769 52.4678 67.7031 54.571 65.0742L70.3445 44.4183C71.2459 43.2165 71.3961 42.165 71.3961 41.5641C71.3961 39.6111 71.321 36.5315 69.293 34.9542C66.0631 32.4755 54.7212 63.1964 41.877 57.2625Z" fill="#7E7C70"/>
<path fill-rule="evenodd" clip-rule="evenodd" d="M41.877 57.2622C41.877 57.2622 38.7974 58.9147 40.6752 61.168C42.4779 63.4214 48.7873 66.8766 48.7873 66.8766C48.7873 66.8766 50.0643 67.177 51.7918 66.8015L50.2145 61.0929L46.2335 58.0133C44.8064 58.1636 43.3041 57.9382 41.877 57.2622Z" fill="#7E7C70"/>
<path fill-rule="evenodd" clip-rule="evenodd" d="M49.1627 66.9518C50.2142 67.0269 52.1671 66.9518 53.5943 65.9002L50.8151 59.1401C50.8151 59.1401 48.3364 60.9428 48.3364 62.8206L49.1627 66.9518Z" fill="#686660"/>
<path fill-rule="evenodd" clip-rule="evenodd" d="M12.4327 10.9179C12.4327 10.9179 11.8318 12.345 13.2589 13.1712C14.6861 13.9975 16.4888 12.7957 18.3666 13.9975C20.2444 15.1993 19.5684 19.1051 18.5919 20.5322C17.5403 21.9594 26.3285 12.7957 26.3285 12.7957L21.4462 6.86182L12.4327 10.9179Z" fill="#7E7C70"/>
<path fill-rule="evenodd" clip-rule="evenodd" d="M37.7458 12.5706C37.7458 12.5706 36.8444 17.6783 39.7738 16.852C39.0227 15.4249 38.6471 14.6738 39.5485 12.9462C40.6751 10.768 47.0597 11.5942 45.7077 6.26122C45.3321 4.60875 33.6897 7.83858 37.7458 12.5706Z" fill="#414141"/>
<path d="M45.6324 18.6548C46.9844 19.5561 47.5853 20.7579 45.9329 22.3353M46.1582 22.5606C46.1582 22.5606 42.9284 27.6682 40.675 29.3207C38.4217 30.9732 37.8208 29.6963 36.3936 27.8936C34.9665 26.0909 36.0181 26.0909 34.5909 24.2131C33.9901 23.462 33.2389 23.2366 32.4878 23.2366" stroke="#2E2E2D" stroke-width="0.5" stroke-miterlimit="22.9256"/>
<path fill-rule="evenodd" clip-rule="evenodd" d="M0.114496 28.0441C0.114496 28.0441 -0.411271 30.7482 0.790524 32.4757C1.99232 34.2784 9.42842 35.1798 8.52707 38.1092C7.62572 41.0385 15.3623 29.4713 15.3623 29.4713C15.3623 29.4713 6.87459 26.617 0.114496 28.0441Z" fill="#7E7C70"/>
<path fill-rule="evenodd" clip-rule="evenodd" d="M46.0079 22.4856C46.083 22.5607 42.8532 27.6683 40.5998 29.3208C36.8442 32.0248 35.8677 26.0159 34.4406 24.2132C33.0135 22.4105 30.1592 23.6123 30.1592 23.6123C30.1592 23.6123 25.4271 28.7199 24.4507 30.7479C23.3991 32.776 25.4271 34.4284 26.6289 35.48C27.8307 36.5316 29.333 35.1044 31.8117 35.1044C34.2904 35.1044 33.6144 38.3343 33.6144 38.3343C33.6144 38.3343 29.7085 43.8174 28.2814 45.4699C24.3004 49.9766 21.296 42.3903 17.315 41.8645C14.4608 41.489 13.8598 44.1179 13.2589 45.0944C12.658 46.1459 12.6581 49.0002 9.8038 48.3242C6.94954 47.7233 3.86994 45.2446 2.21747 43.2165C0.564999 41.1885 2.81836 39.1605 4.69616 39.1605C7.47531 39.1605 11.3812 36.5316 6.7242 33.452C5.5224 32.6257 2.81836 32.0248 1.01567 30.3724C-0.787025 28.7199 0.640106 27.1425 0.640106 27.1425C0.640106 27.1425 4.9215 20.6078 6.57396 19.1806C8.22643 17.7535 9.65357 18.9553 9.65357 18.9553C9.65357 18.9553 9.05268 21.2087 12.7332 21.8096C18.2915 22.7109 22.3475 16.101 19.0426 12.7961C17.6155 11.369 12.7332 11.7445 12.7332 11.7445C12.7332 11.7445 11.5314 11.369 13.7847 8.66494C16.0381 6.03601 18.0661 3.93288 18.0661 3.93288C18.0661 3.93288 20.5448 0.252376 22.7982 2.13018C25.0516 3.93287 24.9013 4.53377 27.3049 6.18624C29.6334 7.7636 33.8397 8.36449 34.9664 4.30844C35.6424 1.97996 34.8161 -0.273411 38.4966 0.0270376C45.2567 0.627935 49.0123 8.96539 42.1771 9.6414C37.6704 10.017 36.3184 14.749 40.5247 16.4015C43.0785 17.4531 49.3879 19.1055 46.0079 22.4856Z" fill="#F2CF9F"/>
<path fill-rule="evenodd" clip-rule="evenodd" d="M1.01611 26.4667C2.06768 24.8142 5.22239 20.2323 6.57441 19.1057C8.22688 17.6785 9.65401 18.8803 9.65401 18.8803C9.65401 18.8803 9.05312 21.1337 12.7336 21.7346C18.2919 22.6359 22.348 16.0261 19.043 12.7211C17.6159 11.294 12.7336 11.6696 12.7336 11.6696C12.7336 11.6696 11.5318 11.294 13.7852 8.58996C16.0386 5.96103 18.0666 3.85789 18.0666 3.85789C18.0666 3.85789 20.5453 0.177394 22.7986 2.0552C25.052 3.85789 24.9018 4.45879 27.3054 6.11126C28.0565 6.63704 28.9578 7.0126 29.9343 7.23794C32.1126 23.7626 15.0621 31.0485 1.01611 26.4667Z" fill="#DC824A"/>
<path fill-rule="evenodd" clip-rule="evenodd" d="M46.6091 23.2363C46.6842 23.3114 42.8534 27.6679 40.6752 29.3204C36.9196 32.0244 35.9431 26.0155 34.516 24.2128C33.0889 22.4101 30.6101 24.1377 30.6101 24.1377C30.6101 24.1377 25.0518 29.696 24.5261 30.7475C23.5496 32.7756 25.0519 27.2173 29.2581 23.8372C30.8355 22.8608 32.1875 22.335 33.7649 22.9359C35.3422 23.5368 35.192 24.7386 35.4173 25.4897C36.3938 28.6444 38.6472 30.2969 41.201 27.743C42.1023 26.8417 45.8579 21.8843 46.1584 21.1332C46.3837 20.5323 46.4588 19.8563 46.3086 19.2554C47.2099 20.0065 47.9611 21.8843 46.6091 23.2363Z" fill="#414141"/>
<path fill-rule="evenodd" clip-rule="evenodd" d="M33.6145 36.3062C33.8398 36.907 33.6896 37.8084 33.6896 37.8084C31.8869 41.7893 29.7838 43.9676 27.0797 47.1223C26.7042 47.573 26.3286 48.0237 26.0282 48.0988C25.953 47.9485 26.2535 47.0472 26.1784 46.7467C26.8544 46.3712 27.4553 45.6952 28.4318 44.5685C29.7838 42.9911 33.1638 38.5595 33.6145 36.3062Z" fill="#414141"/>
<path fill-rule="evenodd" clip-rule="evenodd" d="M38.4968 55.1594L36.2435 52.9811C36.2435 52.9811 35.1168 46.8219 37.8959 45.2446C39.5484 44.2681 44.0551 45.6201 47.285 46.897L49.3881 53.8825V53.9576C49.0876 53.8074 47.8107 53.0562 47.5854 51.9296C46.8343 47.573 38.4217 47.2726 38.4217 53.3567C38.4217 54.258 38.4217 54.8589 38.4968 55.1594Z" fill="#414141"/>
<path fill-rule="evenodd" clip-rule="evenodd" d="M27.6809 46.2207C28.2818 45.5446 37.821 35.0289 31.8872 35.0289C31.0609 35.0289 28.8827 36.0054 27.08 35.7801C24.9017 35.4796 23.1741 33.752 24.6013 30.7475C25.728 28.2688 28.8076 23.4617 31.7369 23.2363C35.6428 22.8608 34.8165 25.8653 36.3939 27.8933C37.821 29.696 38.4219 30.9729 40.6753 29.3204C44.5811 26.4662 45.7829 19.3305 51.2661 21.7341C54.4959 23.1612 68.6921 33.8271 68.6921 33.8271C68.6921 33.8271 72.8233 37.3574 70.1944 42.0144C67.5655 46.7464 53.5946 62.8956 53.5946 62.8956C53.5946 62.8956 51.9421 65.3743 48.487 64.3227C45.0318 63.2711 41.126 59.7408 41.126 59.7408C41.126 59.7408 39.4735 58.0884 42.5531 57.1119C45.6327 56.0604 47.4354 55.0839 47.8861 53.4314C48.2616 51.779 47.9612 48.0234 44.2056 46.8967C41.0508 45.9953 37.2201 48.3238 36.6192 51.4785C36.3188 52.9808 36.8446 53.9572 35.117 54.1074C32.7885 54.3328 28.9578 50.8025 27.2302 49.3003C27.1551 49.3003 26.3289 47.6478 27.6809 46.2207Z" fill="#F2CF9F"/>
<path fill-rule="evenodd" clip-rule="evenodd" d="M55.848 24.5889C59.904 27.368 65.237 31.2739 67.4904 32.9263C70.1193 36.3815 67.7157 38.3344 64.1103 34.9543C63.885 40.2122 60.4298 40.2122 60.2045 34.9543C56.3737 38.4846 53.8951 36.0059 57.4253 32.1752C52.1675 31.9499 52.1675 28.4947 57.4253 28.2694C55.9982 26.7671 55.5475 25.34 55.848 24.5889Z" fill="#72C0CF"/>
<path fill-rule="evenodd" clip-rule="evenodd" d="M27.0046 35.7805C24.8263 35.4801 23.0237 33.3769 24.4508 30.2973C24.7512 29.6964 28.3566 24.063 26.4037 27.6684C24.6761 30.8231 23.3241 35.4801 28.582 35.2547C31.286 34.7289 34.2905 33.6774 33.7647 37.5081L33.4643 37.2827C33.4643 37.2827 33.6896 36.5316 33.5393 36.0809C33.314 35.2547 32.7131 35.0294 31.962 35.0294C29.7838 35.4801 28.3566 35.9307 27.0046 35.7805Z" fill="#414141"/>
<path fill-rule="evenodd" clip-rule="evenodd" d="M54.6461 44.1174C54.7212 41.1881 56.6741 41.1881 56.8243 44.1174C58.9274 42.1645 60.3546 43.5165 58.3265 45.6197C61.2559 45.6948 61.2559 47.6477 58.3265 47.7979C60.2795 49.9011 58.9274 51.3282 56.8243 49.3002C56.7492 52.2296 54.7963 52.2296 54.6461 49.3002C52.5429 51.2531 51.1158 49.9011 53.1438 47.7979C50.2144 47.7228 50.2144 45.7699 53.1438 45.6197C51.1158 43.5165 52.4678 42.1645 54.6461 44.1174Z" fill="#9C0F14"/>
</svg>
