<svg width="37" height="37" viewBox="0 0 37 37" fill="none" xmlns="http://www.w3.org/2000/svg">
<path d="M35.0609 0.913494L36.0757 1.91731C37.474 3.30225 37.2624 5.75735 35.5993 7.4009L14.6728 28.1017L7.89279 30.5551C7.04142 30.8648 6.21241 30.4633 6.04386 29.6619C5.9869 29.3712 6.01372 29.0705 6.12126 28.7942L8.64957 22.0295L29.5176 1.38478C31.1807 -0.258765 33.6626 -0.471438 35.0609 0.913494ZM13.7595 2.97218C13.9854 2.97218 14.209 3.01618 14.4177 3.10169C14.6264 3.18719 14.816 3.31251 14.9757 3.4705C15.1354 3.62849 15.2621 3.81605 15.3485 4.02247C15.4349 4.2289 15.4794 4.45014 15.4794 4.67357C15.4794 4.897 15.4349 5.11824 15.3485 5.32466C15.2621 5.53108 15.1354 5.71865 14.9757 5.87663C14.816 6.03462 14.6264 6.15995 14.4177 6.24545C14.209 6.33095 13.9854 6.37496 13.7595 6.37496H6.87975C5.96744 6.37496 5.09249 6.73347 4.44739 7.37161C3.80229 8.00976 3.43987 8.87527 3.43987 9.77774V30.1944C3.43987 31.0969 3.80229 31.9624 4.44739 32.6006C5.09249 33.2387 5.96744 33.5972 6.87975 33.5972H27.519C28.4313 33.5972 29.3063 33.2387 29.9514 32.6006C30.5965 31.9624 30.9589 31.0969 30.9589 30.1944V23.3889C30.9589 22.9376 31.1401 22.5049 31.4626 22.1858C31.7852 21.8667 32.2227 21.6875 32.6788 21.6875C33.135 21.6875 33.5724 21.8667 33.895 22.1858C34.2175 22.5049 34.3987 22.9376 34.3987 23.3889V30.1944C34.3987 31.9994 33.6739 33.7304 32.3837 35.0067C31.0935 36.283 29.3436 37 27.519 37H6.87975C5.05513 37 3.30524 36.283 2.01503 35.0067C0.724829 33.7304 0 31.9994 0 30.1944V9.77774C0 7.97279 0.724829 6.24177 2.01503 4.96548C3.30524 3.68919 5.05513 2.97218 6.87975 2.97218H13.7595Z" fill="white"/>
</svg>
