<svg width="35" height="35" viewBox="0 0 35 35" fill="none" xmlns="http://www.w3.org/2000/svg">
<path d="M21.0474 2.43742C21.0949 2.25974 21.177 2.09317 21.2889 1.94722C21.4008 1.80128 21.5404 1.67881 21.6997 1.58682C21.859 1.49484 22.0348 1.43514 22.2171 1.41113C22.3995 1.38712 22.5848 1.39928 22.7624 1.44691C25.3578 2.12408 27.7258 3.48086 29.6224 5.37751C31.5191 7.27416 32.8758 9.64213 33.553 12.2375C33.6006 12.4152 33.6128 12.6005 33.5888 12.7828C33.5648 12.9652 33.5051 13.141 33.4131 13.3002C33.3211 13.4595 33.1986 13.5991 33.0527 13.711C32.9067 13.8229 32.7402 13.905 32.5625 13.9525C32.4442 13.9836 32.3225 13.9995 32.2002 13.9998C31.892 13.9999 31.5923 13.8982 31.3477 13.7106C31.1031 13.5229 30.9273 13.2598 30.8475 12.962C30.2955 10.843 29.1883 8.90953 27.64 7.36099C26.0918 5.81245 24.1586 4.70487 22.0397 4.15244C21.8618 4.1051 21.6951 4.02317 21.5489 3.91133C21.4028 3.79949 21.2801 3.65993 21.188 3.50065C21.0958 3.34136 21.036 3.16547 21.0119 2.98303C20.9877 2.80059 20.9998 2.61518 21.0474 2.43742ZM20.6397 9.75249C23.0529 10.3965 24.6034 11.9488 25.2474 14.362C25.3272 14.6598 25.503 14.9229 25.7476 15.1106C25.9922 15.2982 26.2919 15.3999 26.6002 15.3998C26.7225 15.3995 26.8442 15.3836 26.9625 15.3525C27.1401 15.305 27.3067 15.223 27.4527 15.111C27.5986 14.9991 27.7211 14.8595 27.8131 14.7003C27.905 14.541 27.9647 14.3652 27.9887 14.1828C28.0128 14.0005 28.0006 13.8152 27.953 13.6375C27.057 10.2845 24.7154 7.94297 21.3624 7.04696C21.1848 6.99951 20.9995 6.9875 20.8172 7.01164C20.6349 7.03578 20.4592 7.09559 20.3 7.18765C20.1409 7.2797 20.0014 7.40221 19.8895 7.54818C19.7777 7.69414 19.6957 7.8607 19.6483 8.03835C19.6008 8.21599 19.5888 8.40125 19.613 8.58354C19.6371 8.76582 19.6969 8.94157 19.789 9.10074C19.881 9.25991 20.0035 9.3994 20.1495 9.51122C20.2955 9.62305 20.462 9.70503 20.6397 9.75249ZM33.315 23.5304L25.0707 19.8361L25.0479 19.8256C24.6199 19.6425 24.1531 19.5691 23.6895 19.6118C23.226 19.6546 22.7804 19.8123 22.3932 20.0706C22.3476 20.1007 22.3038 20.1334 22.2619 20.1686L18.0024 23.7999C15.3039 22.4891 12.5179 19.7241 11.2071 17.0606L14.8436 12.7363C14.8786 12.6925 14.9119 12.6488 14.9434 12.6015C15.1961 12.2153 15.3495 11.7726 15.3898 11.3128C15.4301 10.8529 15.3561 10.3903 15.1744 9.96599V9.94499L11.4696 1.68666C11.2294 1.13237 10.8164 0.670629 10.2922 0.370367C9.76797 0.0701049 9.16072 -0.052573 8.56108 0.0206461C6.18976 0.332686 4.01311 1.49726 2.43767 3.29684C0.862224 5.09643 -0.00427166 7.40798 1.58352e-05 9.79974C1.58352e-05 23.6949 11.3051 35 25.2002 35C27.592 35.0043 29.9035 34.1378 31.7031 32.5623C33.5027 30.9869 34.6672 28.8102 34.9793 26.4389C35.0526 25.8395 34.9302 25.2324 34.6303 24.7082C34.3303 24.184 33.869 23.7709 33.315 23.5304Z" fill="white"/>
</svg>
