<svg width="27" height="26" viewBox="0 0 27 26" fill="none" xmlns="http://www.w3.org/2000/svg">
<path d="M13.4546 17.0018L12.9792 17.3648C12.9792 17.3648 11.8476 18.2286 9.51575 15.1079C7.18387 11.9872 8.3154 11.1234 8.3154 11.1234L8.61488 10.8948C9.35277 10.3314 9.55957 9.28772 9.09961 8.44182L8.16059 6.70823C7.59182 5.65993 6.25631 5.344 5.34321 6.04108L3.70303 7.29325C3.24995 7.63914 2.91186 8.12269 2.86467 8.70517C2.74274 10.195 2.96299 13.4698 6.12269 17.6983C9.47419 22.1835 13.1066 22.8545 14.6204 22.924C15.0981 22.9453 15.5438 22.7582 15.9205 22.4706L17.4047 21.3375C18.4066 20.5727 18.3689 19.0135 17.3302 18.2334L15.7111 17.0189C15.029 16.5068 14.113 16.4991 13.4554 17.0012" fill="url(#paint0_linear_1_637)"/>
<path opacity="0.4" d="M13.6676 2.45119C16.4822 2.69975 19.1896 4.0176 21.1233 6.35778C23.0645 8.70618 23.87 11.6193 23.6083 14.4636" stroke="#0E9EFF" stroke-miterlimit="10" stroke-linecap="round"/>
<path opacity="0.8" d="M13.3729 5.57248C15.3955 5.75386 17.337 6.70339 18.7348 8.3812C20.1244 10.0667 20.706 12.1613 20.5266 14.2057" stroke="#0E9EFF" stroke-miterlimit="10" stroke-linecap="round"/>
<path d="M13.0627 8.69325C14.2934 8.80744 15.477 9.38098 16.3227 10.4118C17.1766 11.4349 17.5186 12.7105 17.4138 13.9468" stroke="#0E9EFF" stroke-miterlimit="10" stroke-linecap="round"/>
<defs>
<linearGradient id="paint0_linear_1_637" x1="6.12269" y1="17.6983" x2="13.1235" y2="12.4671" gradientUnits="userSpaceOnUse">
<stop stop-color="#FE7235"/>
<stop offset="0.667708" stop-color="#FEA734"/>
</linearGradient>
</defs>
</svg>
