<svg width="78" height="78" viewBox="0 0 78 78" fill="none" xmlns="http://www.w3.org/2000/svg">
<path d="M39 0.772461C49.1731 0.772461 58.9296 4.81373 66.1231 12.0072C73.3166 19.2007 77.3579 28.9572 77.3579 39.1304C77.3579 49.3035 73.3166 59.06 66.1231 66.2535C58.9296 73.447 49.1731 77.4883 39 77.4883C28.8268 77.4883 19.0704 73.447 11.8769 66.2535C4.68336 59.06 0.64209 49.3035 0.64209 39.1304C0.64209 28.9572 4.68336 19.2007 11.8769 12.0072C19.0704 4.81373 28.8268 0.772461 39 0.772461ZM7.8342 39.1304C7.8342 47.3961 11.1177 55.3232 16.9625 61.1679C22.8072 67.0126 30.7343 70.2962 39 70.2962C47.2657 70.2962 55.1928 67.0126 61.0376 61.1679C66.8823 55.3232 70.1658 47.3961 70.1658 39.1304C70.1658 30.8647 66.8823 22.9375 61.0376 17.0928C55.1928 11.2481 47.2657 7.96457 39 7.96457C30.7343 7.96457 22.8072 11.2481 16.9625 17.0928C11.1177 22.9375 7.8342 30.8647 7.8342 39.1304ZM31.2277 25.8346L51.6725 38.1043C51.8492 38.211 51.9953 38.3615 52.0968 38.5413C52.1982 38.7211 52.2515 38.924 52.2515 39.1304C52.2515 39.3368 52.1982 39.5397 52.0968 39.7195C51.9953 39.8992 51.8492 40.0497 51.6725 40.1564L31.2277 52.4262C31.0459 52.5357 30.8383 52.595 30.6261 52.598C30.4139 52.601 30.2047 52.5475 30.0198 52.4432C29.835 52.3388 29.6812 52.1873 29.5742 52.004C29.4671 51.8208 29.4106 51.6124 29.4105 51.4001V26.8654C29.4098 26.6528 29.4657 26.4438 29.5724 26.2598C29.6791 26.0759 29.8328 25.9237 30.0177 25.8187C30.2027 25.7138 30.4123 25.66 30.6249 25.6628C30.8375 25.6655 31.0456 25.7248 31.2277 25.8346Z" fill="white"/>
</svg>
