<svg width="32" height="32" viewBox="0 0 32 32" fill="none" xmlns="http://www.w3.org/2000/svg">
<path d="M15.5083 0C19.6214 0 23.566 1.63391 26.4743 4.54228C29.3827 7.45065 31.0166 11.3952 31.0166 15.5083C31.0166 19.6214 29.3827 23.566 26.4743 26.4743C23.566 29.3827 19.6214 31.0166 15.5083 31.0166C11.3952 31.0166 7.45065 29.3827 4.54228 26.4743C1.63391 23.566 0 19.6214 0 15.5083C0 11.3952 1.63391 7.45065 4.54228 4.54228C7.45065 1.63391 11.3952 0 15.5083 0ZM2.90781 15.5083C2.90781 18.8502 4.23535 22.0551 6.59841 24.4182C8.96146 26.7812 12.1664 28.1088 15.5083 28.1088C18.8502 28.1088 22.0551 26.7812 24.4182 24.4182C26.7812 22.0551 28.1088 18.8502 28.1088 15.5083C28.1088 12.1664 26.7812 8.96146 24.4182 6.59841C22.0551 4.23535 18.8502 2.90781 15.5083 2.90781C12.1664 2.90781 8.96146 4.23535 6.59841 6.59841C4.23535 8.96146 2.90781 12.1664 2.90781 15.5083ZM12.3659 10.1327L20.6319 15.0935C20.7033 15.1366 20.7624 15.1975 20.8034 15.2701C20.8444 15.3428 20.8659 15.4248 20.8659 15.5083C20.8659 15.5918 20.8444 15.6738 20.8034 15.7465C20.7624 15.8191 20.7033 15.88 20.6319 15.9231L12.3659 20.8839C12.2924 20.9281 12.2085 20.9521 12.1227 20.9533C12.0369 20.9545 11.9523 20.9329 11.8776 20.8907C11.8029 20.8486 11.7407 20.7873 11.6974 20.7132C11.6541 20.6391 11.6313 20.5548 11.6312 20.469V10.5495C11.6309 10.4635 11.6535 10.379 11.6967 10.3047C11.7398 10.2303 11.8019 10.1688 11.8767 10.1263C11.9515 10.0839 12.0362 10.0621 12.1222 10.0633C12.2082 10.0644 12.2923 10.0884 12.3659 10.1327Z" fill="white"/>
<rect x="10" y="10" width="11" height="11" rx="1" fill="white"/>
</svg>
