<svg width="32" height="32" viewBox="0 0 32 32" fill="none" xmlns="http://www.w3.org/2000/svg">
<path d="M15.7959 0.646973C19.909 0.646973 23.8536 2.28088 26.7619 5.18925C29.6703 8.09762 31.3042 12.0422 31.3042 16.1553C31.3042 20.2683 29.6703 24.2129 26.7619 27.1213C23.8536 30.0297 19.909 31.6636 15.7959 31.6636C11.6828 31.6636 7.73824 30.0297 4.82987 27.1213C1.9215 24.2129 0.287598 20.2683 0.287598 16.1553C0.287598 12.0422 1.9215 8.09762 4.82987 5.18925C7.73824 2.28088 11.6828 0.646973 15.7959 0.646973ZM3.1954 16.1553C3.1954 19.4971 4.52295 22.7021 6.886 25.0652C9.24905 27.4282 12.454 28.7558 15.7959 28.7558C19.1378 28.7558 22.3427 27.4282 24.7058 25.0652C27.0688 22.7021 28.3964 19.4971 28.3964 16.1553C28.3964 12.8134 27.0688 9.60843 24.7058 7.24538C22.3427 4.88233 19.1378 3.55478 15.7959 3.55478C12.454 3.55478 9.24905 4.88233 6.886 7.24538C4.52295 9.60843 3.1954 12.8134 3.1954 16.1553ZM12.6535 10.7797L20.9195 15.7404C20.9909 15.7836 21.05 15.8444 21.091 15.9171C21.132 15.9898 21.1535 16.0718 21.1535 16.1553C21.1535 16.2387 21.132 16.3208 21.091 16.3934C21.05 16.4661 20.9909 16.527 20.9195 16.5701L12.6535 21.5308C12.58 21.5751 12.4961 21.5991 12.4103 21.6003C12.3245 21.6015 12.2399 21.5799 12.1652 21.5377C12.0905 21.4955 12.0283 21.4342 11.985 21.3602C11.9417 21.2861 11.9189 21.2018 11.9188 21.116V11.1965C11.9185 11.1105 11.9411 11.026 11.9843 10.9516C12.0274 10.8773 12.0895 10.8157 12.1643 10.7733C12.2391 10.7309 12.3238 10.7091 12.4098 10.7102C12.4958 10.7114 12.5799 10.7353 12.6535 10.7797Z" fill="white"/>
</svg>
