<svg width="140" height="67" viewBox="0 0 140 67" fill="none" xmlns="http://www.w3.org/2000/svg">
<g filter="url(#filter0_d_2011_29883)">
<path fill-rule="evenodd" clip-rule="evenodd" d="M120 53C125.523 53 130 48.5228 130 43V26C130 20.4772 125.523 16 120 16H76.5107L69.5 6L62.4893 16H20C14.4771 16 10 20.4772 10 26V43C10 48.5228 14.4771 53 20 53H120Z" fill="#0E9EFF"/>
</g>
<path d="M23.374 30.888C22.7953 31.5133 22.506 32.2927 22.506 33.226C22.506 34.1593 22.7907 34.9433 23.36 35.578C23.9387 36.2033 24.6573 36.516 25.516 36.516C26.3747 36.516 27.0933 36.2033 27.672 35.578C28.2507 34.9433 28.54 34.1593 28.54 33.226C28.54 32.2927 28.26 31.5133 27.7 30.888C27.1493 30.2533 26.426 29.936 25.53 29.936C24.6713 29.936 23.9527 30.2533 23.374 30.888ZM20.462 33.226C20.462 31.8447 20.9473 30.6547 21.918 29.656C22.8887 28.648 24.0973 28.144 25.544 28.144C26.5613 28.144 27.4573 28.3867 28.232 28.872C29.016 29.348 29.604 29.9687 29.996 30.734C30.388 31.4993 30.584 32.33 30.584 33.226C30.584 34.6353 30.0987 35.8347 29.128 36.824C28.1667 37.8133 26.9673 38.308 25.53 38.308C24.858 38.308 24.2373 38.2053 23.668 38C23.0987 37.804 22.618 37.538 22.226 37.202C21.8433 36.866 21.5167 36.4787 21.246 36.04C20.9753 35.592 20.7747 35.1347 20.644 34.668C20.5227 34.192 20.462 33.7113 20.462 33.226ZM38.3829 36.39H39.3769V40.17H37.4869V38H31.9149V31.294H33.8049V36.39H36.4929V31.294H38.3829V36.39ZM43.4558 31.07C44.5198 31.07 45.3551 31.4107 45.9618 32.092C46.5685 32.7733 46.8718 33.6087 46.8718 34.598C46.8718 34.8127 46.8625 34.9807 46.8438 35.102H41.8598C41.8598 35.5687 42.0278 35.9747 42.3638 36.32C42.7091 36.656 43.1198 36.824 43.5958 36.824C44.1745 36.824 44.6225 36.5907 44.9398 36.124H46.7738C46.5311 36.7493 46.1438 37.258 45.6118 37.65C45.0891 38.042 44.4125 38.238 43.5818 38.238C42.5645 38.238 41.7151 37.902 41.0338 37.23C40.3525 36.5487 40.0118 35.6713 40.0118 34.598C40.0118 33.5993 40.3198 32.764 40.9358 32.092C41.5611 31.4107 42.4011 31.07 43.4558 31.07ZM43.4418 32.386C43.0031 32.386 42.6391 32.526 42.3498 32.806C42.0698 33.086 41.9111 33.422 41.8738 33.814H45.0098C44.9631 33.4127 44.7951 33.0767 44.5058 32.806C44.2258 32.526 43.8711 32.386 43.4418 32.386ZM54.6661 31.294V38H52.7761V35.284H50.0881V38H48.1981V31.294H50.0881V33.702H52.7761V31.294H54.6661ZM56.4012 38V31.294H58.2912V34.206L60.8672 31.294H63.0512L60.1812 34.5L63.1212 38H60.8672L58.2912 34.85V38H56.4012ZM70.7215 31.294V38H68.9015V37.16H68.8455C68.3135 37.8693 67.5855 38.224 66.6615 38.224C66.3161 38.224 65.9708 38.154 65.6255 38.014C65.2895 37.874 64.9628 37.6687 64.6455 37.398C64.3375 37.118 64.0855 36.74 63.8895 36.264C63.7028 35.788 63.6095 35.2467 63.6095 34.64C63.6095 33.5947 63.9175 32.7453 64.5335 32.092C65.1588 31.4387 65.9148 31.112 66.8015 31.112C67.6881 31.112 68.3695 31.462 68.8455 32.162H68.9015V31.294H70.7215ZM65.5275 34.654C65.5275 35.186 65.6768 35.6433 65.9755 36.026C66.2741 36.3993 66.6988 36.586 67.2495 36.586C67.7068 36.586 68.0988 36.404 68.4255 36.04C68.7615 35.676 68.9295 35.2187 68.9295 34.668C68.9295 34.0893 68.7708 33.6227 68.4535 33.268C68.1361 32.904 67.7395 32.722 67.2635 32.722C66.7128 32.722 66.2835 32.9133 65.9755 33.296C65.6768 33.6787 65.5275 34.1313 65.5275 34.654ZM81.7473 31.294L78.0793 41.29H76.2873L77.5193 37.944L75.0833 31.294H77.0433L78.0093 34.206C78.2427 34.9527 78.392 35.5033 78.4573 35.858H78.5133C78.5973 35.4007 78.742 34.85 78.9473 34.206L79.8853 31.294H81.7473ZM88.7165 31.294V38H86.8125V34.906H86.7705C86.3505 35.606 85.7158 35.956 84.8665 35.956C84.1105 35.956 83.5132 35.6993 83.0745 35.186C82.6358 34.6633 82.4165 33.9073 82.4165 32.918V31.294H84.3065V32.792C84.3065 33.2773 84.4092 33.646 84.6145 33.898C84.8292 34.15 85.1232 34.276 85.4965 34.276C85.8885 34.276 86.2058 34.136 86.4485 33.856C86.6912 33.5667 86.8125 33.156 86.8125 32.624V31.294H88.7165ZM95.1618 31.294V32.904H93.4118V38H91.5218V32.904H89.7438V31.294H95.1618ZM99.196 31.07C100.26 31.07 101.095 31.4107 101.702 32.092C102.309 32.7733 102.612 33.6087 102.612 34.598C102.612 34.8127 102.603 34.9807 102.584 35.102H97.6C97.6 35.5687 97.768 35.9747 98.104 36.32C98.4494 36.656 98.86 36.824 99.336 36.824C99.9147 36.824 100.363 36.5907 100.68 36.124H102.514C102.271 36.7493 101.884 37.258 101.352 37.65C100.829 38.042 100.153 38.238 99.322 38.238C98.3047 38.238 97.4554 37.902 96.774 37.23C96.0927 36.5487 95.752 35.6713 95.752 34.598C95.752 33.5993 96.06 32.764 96.676 32.092C97.3014 31.4107 98.1414 31.07 99.196 31.07ZM99.182 32.386C98.7434 32.386 98.3794 32.526 98.09 32.806C97.81 33.086 97.6514 33.422 97.614 33.814H100.75C100.703 33.4127 100.535 33.0767 100.246 32.806C99.966 32.526 99.6114 32.386 99.182 32.386ZM110.406 31.294V38H108.516V35.284H105.828V38H103.938V31.294H105.828V33.702H108.516V31.294H110.406ZM118.805 31.294V38H116.985V37.16H116.929C116.397 37.8693 115.669 38.224 114.745 38.224C114.4 38.224 114.055 38.154 113.709 38.014C113.373 37.874 113.047 37.6687 112.729 37.398C112.421 37.118 112.169 36.74 111.973 36.264C111.787 35.788 111.693 35.2467 111.693 34.64C111.693 33.5947 112.001 32.7453 112.617 32.092C113.243 31.4387 113.999 31.112 114.885 31.112C115.772 31.112 116.453 31.462 116.929 32.162H116.985V31.294H118.805ZM113.611 34.654C113.611 35.186 113.761 35.6433 114.059 36.026C114.358 36.3993 114.783 36.586 115.333 36.586C115.791 36.586 116.183 36.404 116.509 36.04C116.845 35.676 117.013 35.2187 117.013 34.668C117.013 34.0893 116.855 33.6227 116.537 33.268C116.22 32.904 115.823 32.722 115.347 32.722C114.797 32.722 114.367 32.9133 114.059 33.296C113.761 33.6787 113.611 34.1313 113.611 34.654Z" fill="white"/>
<defs>
<filter id="filter0_d_2011_29883" x="0" y="0" width="140" height="67" filterUnits="userSpaceOnUse" color-interpolation-filters="sRGB">
<feFlood flood-opacity="0" result="BackgroundImageFix"/>
<feColorMatrix in="SourceAlpha" type="matrix" values="0 0 0 0 0 0 0 0 0 0 0 0 0 0 0 0 0 0 127 0" result="hardAlpha"/>
<feOffset dy="4"/>
<feGaussianBlur stdDeviation="5"/>
<feComposite in2="hardAlpha" operator="out"/>
<feColorMatrix type="matrix" values="0 0 0 0 0.0783062 0 0 0 0 0.398488 0 0 0 0 0.614167 0 0 0 0.1 0"/>
<feBlend mode="normal" in2="BackgroundImageFix" result="effect1_dropShadow_2011_29883"/>
<feBlend mode="normal" in="SourceGraphic" in2="effect1_dropShadow_2011_29883" result="shape"/>
</filter>
</defs>
</svg>
