<svg width="39" height="43" viewBox="0 0 39 43" fill="none" xmlns="http://www.w3.org/2000/svg">
<g opacity="0.6">
<path d="M22.4907 3.57456C22.6988 3.83283 22.941 4.14073 23.1877 4.47012C23.5262 4.92202 23.869 5.4087 24.1438 5.8599C24.4261 6.3233 24.6094 6.70643 24.6667 6.96127L24.6667 6.96128C24.9124 8.05404 24.8584 8.93656 24.5648 9.73229C24.3104 10.422 23.8636 11.0803 23.2114 11.7744C23.046 11.6273 22.8384 11.4354 22.6235 11.2192C22.3785 10.9728 22.1298 10.7003 21.9248 10.4306C21.7151 10.1548 21.5728 9.90991 21.5122 9.71747C21.3594 9.23229 21.3812 8.69569 21.484 8.09217C21.5353 7.79108 21.6042 7.48587 21.6763 7.16673L21.6771 7.16328C21.7479 6.84999 21.822 6.52246 21.8766 6.19768L21.8767 6.19753C21.9758 5.60761 22.1931 4.71597 22.39 3.95788C22.4247 3.82451 22.4585 3.6959 22.4907 3.57456Z" fill="#B1B1B1" stroke="#B1B1B1"/>
<path d="M21.6421 31.3889C21.772 31.1386 21.9261 30.8455 22.0944 30.5326C22.5911 29.6094 23.1968 28.5415 23.6678 27.8852L23.6679 27.8851C23.706 27.8319 23.7436 27.7792 23.7807 27.7272C24.1805 27.1665 24.5273 26.6803 25.0086 26.3614L25.0086 26.3614C25.3898 26.1086 25.8415 25.9571 26.3631 25.8177C26.4817 25.7861 26.6059 25.7546 26.7336 25.7223C27.142 25.619 27.5867 25.5064 27.9989 25.3477L21.6421 31.3889ZM21.6421 31.3889C21.8597 31.365 22.1048 31.3355 22.3634 31.2996C23.2728 31.1734 24.2752 30.9779 24.8601 30.7059L21.6421 31.3889ZM28.567 25.1125C28.5938 25.3863 28.6019 25.6428 28.5754 25.7911L29.0676 25.8792L28.5754 25.7911C28.3905 26.8243 27.9503 27.8595 27.2964 28.7143L27.2962 28.7145C26.6627 29.5434 25.8086 30.2643 24.8603 30.7058L28.567 25.1125ZM28.567 25.1125C28.369 25.1977 28.1571 25.2867 27.9989 25.3477L28.567 25.1125Z" fill="#B1B1B1" stroke="#B1B1B1"/>
<path d="M16.5366 23.2214L16.5366 23.2214C16.8245 24.1633 17.3585 25.0577 18.0823 25.7127L17.7489 26.0812L18.0823 25.7127C18.5267 26.1148 19.397 26.5581 20.2155 26.9153C20.4754 27.0287 20.7223 27.1302 20.937 27.2154C20.9061 26.9292 20.867 26.5848 20.8206 26.2138C20.6949 25.2071 20.5202 24.0387 20.3201 23.2972C20.3201 23.2971 20.3201 23.2971 20.3201 23.2971L16.5366 23.2214ZM16.5366 23.2214C16.2398 22.2503 16.2079 21.1591 16.4198 20.129M16.5366 23.2214L16.7175 19.4163M16.7175 19.4163C16.8773 19.552 17.0515 19.6971 17.1834 19.7996L17.1834 19.7996C17.5192 20.0606 17.9049 20.2863 18.2548 20.491C18.3632 20.5545 18.4682 20.6159 18.5673 20.6758C19.0104 20.9436 19.373 21.1996 19.6313 21.5273L16.7175 19.4163ZM16.7175 19.4163C16.5739 19.6934 16.4532 19.9667 16.4198 20.129M16.4198 20.129L15.9301 20.0282M16.4198 20.129L15.9301 20.0282M15.9301 20.0282C15.9849 19.7619 16.1699 19.3784 16.3286 19.0817L20.9947 27.7749C20.1481 27.4488 18.4927 26.7583 17.7468 26.0834C16.9485 25.361 16.3696 24.3855 16.0584 23.3675C15.7349 22.3091 15.703 21.1325 15.9301 20.0282Z" fill="#B1B1B1" stroke="#B1B1B1"/>
<path d="M18.772 15.8699L18.772 15.8699C19.2657 16.454 20.2447 17.1815 21.1481 17.7855C21.4409 17.9812 21.7193 18.1597 21.9608 18.311C21.9441 18.0665 21.9232 17.7874 21.8972 17.4908C21.8114 16.5125 21.6746 15.3887 21.4734 14.6839C21.1912 13.696 20.78 12.7407 20.1901 11.9242C19.9675 11.616 19.6659 11.3528 19.3072 11.0569C19.2726 11.0284 19.2374 10.9995 19.2018 10.9703C18.883 10.7086 18.5235 10.4136 18.2247 10.0665M18.772 15.8699L18.6179 9.76201M18.772 15.8699C17.9721 14.9235 17.301 13.8744 17.2249 12.7999L17.2249 12.7999C17.2062 12.5359 17.2597 12.1782 17.3717 11.7637C17.4817 11.3566 17.6388 10.9272 17.8023 10.5313C17.898 10.2997 17.9948 10.082 18.0839 9.88987M18.772 15.8699L17.747 9.40605C17.7626 9.42969 17.7789 9.45422 17.7957 9.47937C17.8787 9.60387 17.9824 9.75508 18.0839 9.88987M18.2247 10.0665L18.6179 9.76201M18.2247 10.0665C18.2247 10.0665 18.2248 10.0665 18.2248 10.0665L18.6179 9.76201M18.2247 10.0665C18.1799 10.0144 18.1321 9.954 18.0839 9.88987M18.6179 9.76201C18.5329 9.6633 18.4289 9.52033 18.331 9.37855C18.3086 9.42291 18.284 9.47225 18.2576 9.52604C18.2056 9.63186 18.1466 9.7545 18.0839 9.88987M22.494 18.6384C22.5157 18.9989 22.5248 19.2253 22.5248 19.2253L22.494 18.6384Z" fill="#B1B1B1" stroke="#B1B1B1"/>
<path d="M27.5999 20.0415L27.5998 20.0417C26.8922 20.603 25.6397 21.2349 24.522 21.7388C24.1641 21.9001 23.8259 22.0458 23.5324 22.1689C23.608 21.9584 23.6931 21.726 23.785 21.4819C24.1446 20.5271 24.5946 19.4307 24.985 18.7598C25.4248 18.004 25.9577 17.2929 26.59 16.7047C26.9613 16.363 27.4039 16.0925 27.898 15.8072C27.9544 15.7746 28.0116 15.7418 28.0695 15.7086C28.5043 15.4591 28.9752 15.1888 29.4008 14.8586L29.4015 14.8581C29.4529 14.8182 29.5093 14.7714 29.5678 14.7213C29.5947 14.9123 29.6214 15.124 29.644 15.3465C29.6872 15.7707 29.715 16.2272 29.7046 16.6528C29.694 17.0851 29.6445 17.4537 29.551 17.718C29.2405 18.5961 28.4606 19.3592 27.5999 20.0415Z" fill="#B1B1B1" stroke="#B1B1B1"/>
<path d="M16.6489 35.5284L16.6489 35.5284C16.3859 35.6886 16.0012 35.686 15.5036 35.4889C15.0187 35.2968 14.5313 34.9577 14.1721 34.6369C13.5005 34.0369 13.1675 33.0219 13.1247 32.0296L12.6269 32.0511L13.1247 32.0296C13.0702 30.7655 13.3635 29.8362 14.0395 28.8322C14.1773 28.9989 14.3476 29.1827 14.5186 29.303L14.5187 29.303C16.0259 30.3629 17.0386 31.276 17.4009 32.6502L17.4009 32.6502C17.5281 33.1325 17.536 33.7536 17.3985 34.3176C17.2591 34.8888 16.9927 35.319 16.6489 35.5284Z" fill="#B1B1B1" stroke="#B1B1B1"/>
<path d="M12.9478 40.7651C14.4882 38.7498 20.4151 33.5503 21.4313 29.1361C22.1352 26.0788 23.5703 17.9837 22.999 11.5495" stroke="#B1B1B1" stroke-linecap="round"/>
</g>
</svg>
