<svg width="39" height="43" viewBox="0 0 39 43" fill="none" xmlns="http://www.w3.org/2000/svg">
<g opacity="0.6">
<mask id="path-1-inside-1_2001_17493" fill="white">
<path fill-rule="evenodd" clip-rule="evenodd" d="M23.2213 12.4587C23.2213 12.4587 21.3637 10.9547 21.0272 9.88614C20.6555 8.70609 21.1681 7.38443 21.3769 6.14418C21.5831 4.91633 22.2671 2.5003 22.2671 2.5003C22.2671 2.5003 24.8608 5.49586 25.1609 6.8307C25.6842 9.15848 24.9604 10.7499 23.2213 12.4587Z"/>
</mask>
<path fill-rule="evenodd" clip-rule="evenodd" d="M23.2213 12.4587C23.2213 12.4587 21.3637 10.9547 21.0272 9.88614C20.6555 8.70609 21.1681 7.38443 21.3769 6.14418C21.5831 4.91633 22.2671 2.5003 22.2671 2.5003C22.2671 2.5003 24.8608 5.49586 25.1609 6.8307C25.6842 9.15848 24.9604 10.7499 23.2213 12.4587Z" fill="#B1B1B1" stroke="#B1B1B1" stroke-width="2" mask="url(#path-1-inside-1_2001_17493)"/>
<mask id="path-2-inside-2_2001_17493" fill="white">
<path fill-rule="evenodd" clip-rule="evenodd" d="M20.7839 31.9697C20.7839 31.9697 23.749 31.7739 25.0707 31.1593C26.0999 30.6802 27.0157 29.9044 27.693 29.0183C28.3976 28.0972 28.8688 26.9873 29.0671 25.8793C29.1557 25.3838 28.9702 24.3894 28.9702 24.3894C28.9702 24.3894 28.2082 24.7312 27.8187 24.8812C26.803 25.2724 25.6365 25.3451 24.7318 25.9447C24.1112 26.3561 23.6876 26.9989 23.261 27.5938C22.2773 28.9648 20.7839 31.9697 20.7839 31.9697Z"/>
</mask>
<path fill-rule="evenodd" clip-rule="evenodd" d="M20.7839 31.9697C20.7839 31.9697 23.749 31.7739 25.0707 31.1593C26.0999 30.6802 27.0157 29.9044 27.693 29.0183C28.3976 28.0972 28.8688 26.9873 29.0671 25.8793C29.1557 25.3838 28.9702 24.3894 28.9702 24.3894C28.9702 24.3894 28.2082 24.7312 27.8187 24.8812C26.803 25.2724 25.6365 25.3451 24.7318 25.9447C24.1112 26.3561 23.6876 26.9989 23.261 27.5938C22.2773 28.9648 20.7839 31.9697 20.7839 31.9697Z" fill="#B1B1B1" stroke="#B1B1B1" stroke-width="2" mask="url(#path-2-inside-2_2001_17493)"/>
<mask id="path-3-inside-3_2001_17493" fill="white">
<path fill-rule="evenodd" clip-rule="evenodd" d="M21.5149 27.9681C21.5149 27.9681 18.7715 27.0112 17.7463 26.0836C16.948 25.3611 16.3691 24.3856 16.058 23.3676C15.7344 22.3092 15.7025 21.1326 15.9296 20.0284C16.0312 19.5346 16.5802 18.6382 16.5802 18.6382C16.5802 18.6382 17.176 19.1611 17.4897 19.4049C18.3079 20.0408 19.3889 20.4129 20.0234 21.2178C20.4587 21.7701 20.6199 22.4909 20.8024 23.167C21.2228 24.7252 21.5149 27.9681 21.5149 27.9681Z"/>
</mask>
<path fill-rule="evenodd" clip-rule="evenodd" d="M21.5149 27.9681C21.5149 27.9681 18.7715 27.0112 17.7463 26.0836C16.948 25.3611 16.3691 24.3856 16.058 23.3676C15.7344 22.3092 15.7025 21.1326 15.9296 20.0284C16.0312 19.5346 16.5802 18.6382 16.5802 18.6382C16.5802 18.6382 17.176 19.1611 17.4897 19.4049C18.3079 20.0408 19.3889 20.4129 20.0234 21.2178C20.4587 21.7701 20.6199 22.4909 20.8024 23.167C21.2228 24.7252 21.5149 27.9681 21.5149 27.9681Z" fill="#B1B1B1" stroke="#B1B1B1" stroke-width="2" mask="url(#path-3-inside-3_2001_17493)"/>
<mask id="path-4-inside-4_2001_17493" fill="white">
<path fill-rule="evenodd" clip-rule="evenodd" d="M22.5243 19.2256C22.5243 19.2256 19.4676 17.4635 18.3753 16.1711C17.5612 15.2079 16.8009 14.0566 16.7136 12.8228C16.6171 11.46 18.0085 8.88896 18.0085 8.88896C18.0085 8.88896 18.3845 9.49178 18.6174 9.76225C19.2111 10.4519 20.0791 10.9196 20.6094 11.6537C21.2421 12.5294 21.6741 13.5405 21.9667 14.5654C22.3971 16.0723 22.5243 19.2256 22.5243 19.2256Z"/>
</mask>
<path fill-rule="evenodd" clip-rule="evenodd" d="M22.5243 19.2256C22.5243 19.2256 19.4676 17.4635 18.3753 16.1711C17.5612 15.2079 16.8009 14.0566 16.7136 12.8228C16.6171 11.46 18.0085 8.88896 18.0085 8.88896C18.0085 8.88896 18.3845 9.49178 18.6174 9.76225C19.2111 10.4519 20.0791 10.9196 20.6094 11.6537C21.2421 12.5294 21.6741 13.5405 21.9667 14.5654C22.3971 16.0723 22.5243 19.2256 22.5243 19.2256Z" fill="#B1B1B1" stroke="#B1B1B1" stroke-width="2" mask="url(#path-4-inside-4_2001_17493)"/>
<mask id="path-5-inside-5_2001_17493" fill="white">
<path fill-rule="evenodd" clip-rule="evenodd" d="M22.694 23.0417C22.694 23.0417 26.3946 21.6347 27.9196 20.4248C28.7887 19.7358 29.6693 18.8983 30.0295 17.8798C30.5025 16.5424 29.911 13.7215 29.911 13.7215C29.911 13.7215 29.3786 14.2438 29.0843 14.4729C28.188 15.1682 27.0733 15.5801 26.2403 16.3471C25.5641 16.9759 25.0022 17.7284 24.5437 18.5163C23.7173 19.9367 22.694 23.0417 22.694 23.0417Z"/>
</mask>
<path fill-rule="evenodd" clip-rule="evenodd" d="M22.694 23.0417C22.694 23.0417 26.3946 21.6347 27.9196 20.4248C28.7887 19.7358 29.6693 18.8983 30.0295 17.8798C30.5025 16.5424 29.911 13.7215 29.911 13.7215C29.911 13.7215 29.3786 14.2438 29.0843 14.4729C28.188 15.1682 27.0733 15.5801 26.2403 16.3471C25.5641 16.9759 25.0022 17.7284 24.5437 18.5163C23.7173 19.9367 22.694 23.0417 22.694 23.0417Z" fill="#B1B1B1" stroke="#B1B1B1" stroke-width="2" mask="url(#path-5-inside-5_2001_17493)"/>
<mask id="path-6-inside-6_2001_17493" fill="white">
<path fill-rule="evenodd" clip-rule="evenodd" d="M16.9085 35.9557C15.9857 36.5177 14.6157 35.7043 13.8385 35.01C13.0278 34.2858 12.6706 33.1163 12.6247 32.0514C12.5543 30.4209 13.027 29.2841 14.0362 27.9871C14.0362 27.9871 14.4765 28.6627 14.8058 28.8943C16.3188 29.9582 17.4719 30.9606 17.8839 32.5229C18.1831 33.6577 17.9094 35.3462 16.9085 35.9557Z"/>
</mask>
<path fill-rule="evenodd" clip-rule="evenodd" d="M16.9085 35.9557C15.9857 36.5177 14.6157 35.7043 13.8385 35.01C13.0278 34.2858 12.6706 33.1163 12.6247 32.0514C12.5543 30.4209 13.027 29.2841 14.0362 27.9871C14.0362 27.9871 14.4765 28.6627 14.8058 28.8943C16.3188 29.9582 17.4719 30.9606 17.8839 32.5229C18.1831 33.6577 17.9094 35.3462 16.9085 35.9557Z" fill="#B1B1B1" stroke="#B1B1B1" stroke-width="2" mask="url(#path-6-inside-6_2001_17493)"/>
<path d="M12.9473 40.7653C14.4877 38.7501 20.4146 33.5505 21.4308 29.1363C22.1347 26.0791 23.5698 17.984 22.9985 11.5497" stroke="#B1B1B1" stroke-linecap="round"/>
</g>
</svg>
