<svg width="49" height="23" viewBox="0 0 49 23" fill="none" xmlns="http://www.w3.org/2000/svg">
<path d="M11.7557 22.7256C24.282 22.7256 28.9794 22.7256 36.8084 22.7256C45.6756 22.7256 51.2177 13.2566 46.784 5.68141C44.7264 2.16574 40.9237 0 36.8084 0C24.282 0 19.5847 0 11.7557 0C2.88844 0 -2.6536 9.46901 1.78003 17.0442C3.83769 20.5599 7.64039 22.7256 11.7557 22.7256Z" fill="url(#paint0_linear_2004_8163)"/>
<path d="M23.6292 12.7216C23.6292 13.936 23.6292 14.3914 23.6292 15.1504C22.9341 15.1504 22.6735 15.1504 22.2391 15.1504C22.2391 11.2515 22.2391 9.78936 22.2391 7.35254C23.5288 7.35254 24.0124 7.35254 24.8184 7.35254C27.2634 7.35254 28.3029 8.23261 28.3029 9.99587C28.3029 11.812 27.0858 12.7247 24.8184 12.7247C24.2238 12.7232 24.0008 12.7226 23.6292 12.7216ZM23.6292 8.63378C23.6292 10.0371 23.6292 10.5633 23.6292 11.4404C24.2763 11.4404 24.519 11.4404 24.9235 11.4404C26.207 11.4404 26.8711 11.0174 26.8711 9.95856C26.8711 9.00074 26.295 8.63378 24.9451 8.63378C24.2871 8.63378 24.0404 8.63378 23.6292 8.63378ZM29.0396 9.97099C29.4041 9.69111 30.0683 9.46876 31.0212 9.46876C32.6368 9.46876 33.4338 10.0254 33.4338 11.4746C33.4338 13.3125 33.4338 14.0017 33.4338 15.1504C32.8237 15.1504 32.5949 15.1504 32.2136 15.1504C32.2136 14.6489 32.2136 14.4609 32.2136 14.1475C31.9495 14.7943 31.2745 15.2359 30.3895 15.2359C29.2728 15.2359 28.6087 14.5984 28.6087 13.5084C28.6087 12.238 29.5261 11.882 30.8884 11.882C31.5155 11.882 31.7506 11.882 32.1426 11.882C32.1426 11.7615 32.1426 11.7163 32.1426 11.641C32.1426 10.8511 31.7672 10.6054 31.0259 10.6054C30.0065 10.6054 29.4196 11.0066 29.0443 11.5974C29.0419 10.7842 29.0411 10.4793 29.0396 9.97099ZM32.1441 13.1896C32.1441 12.9611 32.1441 12.8754 32.1441 12.7325C31.5958 12.7325 31.3902 12.7325 31.0475 12.7325C30.283 12.7325 29.9184 12.8787 29.9184 13.3793C29.9184 13.8023 30.2274 14.0697 30.8035 14.0697C31.6792 14.0697 32.0823 13.569 32.1426 13.1896C32.1433 13.1896 32.1436 13.1896 32.1441 13.1896ZM34.0748 9.58071C34.7991 9.58071 35.0708 9.58071 35.5235 9.58071C36.2819 11.4909 36.5663 12.2072 37.0402 13.4011C37.6604 11.4909 37.8929 10.7746 38.2805 9.58071C38.9678 9.58071 39.2255 9.58071 39.6551 9.58071C38.55 12.661 38.1356 13.8161 37.4449 15.7412C36.9584 17.0785 36.4595 17.3786 35.7305 17.3786C35.3861 17.3786 35.0107 17.279 34.8439 17.1344C34.8439 16.5272 34.8439 16.2995 34.8439 15.9201C35.0223 16.0942 35.2597 16.1936 35.5081 16.1984C35.9066 16.1984 36.2031 15.9309 36.4163 15.1737C35.2486 12.3772 34.8107 11.3285 34.0809 9.58071C34.0778 9.58071 34.0767 9.58071 34.0748 9.58071ZM9.57863 9.97566C9.57863 10.8309 9.57863 11.1516 9.57863 11.6861C10.7061 12.3974 11.1289 12.6642 11.8336 13.1088C14.5311 11.1084 15.5427 10.3583 17.2287 9.10802C17.0388 8.68637 16.8004 8.28869 16.5182 7.92319C14.1751 9.66079 13.2965 10.3124 11.8321 11.3984C10.7046 10.687 10.2818 10.4203 9.57709 9.97566C9.57786 9.97566 9.57815 9.97566 9.57863 9.97566Z" fill="white"/>
<path d="M16.2131 11.2403C16.2131 11.303 16.2131 11.3265 16.2131 11.3657C16.2161 14.9251 12.3612 17.1528 9.2744 15.3757C6.1876 13.5985 6.18395 9.14937 9.26783 7.36718C10.8071 6.47761 12.7205 6.54787 14.1902 7.54793C14.7748 7.11676 14.994 6.95507 15.3594 6.68559C11.7563 3.78164 6.35777 5.86354 5.64209 10.433C4.92641 15.0025 9.43033 18.6324 13.7491 16.9669C16.4427 15.9281 18.0173 13.1234 17.5 10.2855C16.8566 10.7637 16.6153 10.943 16.2131 11.2419C16.2131 11.2411 16.2131 11.2408 16.2131 11.2403Z" fill="white"/>
<defs>
<linearGradient id="paint0_linear_2004_8163" x1="60.9602" y1="-3.20079" x2="49.015" y2="55.8754" gradientUnits="userSpaceOnUse">
<stop offset="0.07" stop-color="#00ADED"/>
<stop offset="0.3" stop-color="#42E3B4"/>
<stop offset="0.57" stop-color="#00D900"/>
<stop offset="0.85" stop-color="#FAED00"/>
</linearGradient>
</defs>
</svg>
