<svg width="19" height="21" viewBox="0 0 19 21" fill="none" xmlns="http://www.w3.org/2000/svg">
<path d="M5.55112 10.4983L2.80984 12.0788L0.266296 16.4833L10.6421 10.4983H5.55112Z" fill="#874691"/>
<path d="M13.3834 5.98535L10.6421 7.56587L8.09857 11.9704L18.4705 5.98535H13.3834Z" fill="#DA1844"/>
<path d="M10.6421 4.40453L8.09857 0V9.02988V11.9701V21L10.6421 16.5955V4.40453Z" fill="#F9B229"/>
<path d="M8.09857 0L10.6421 4.40453L13.3834 5.98505H18.4705L8.09857 0Z" fill="#F07F1A"/>
<path d="M8.09857 9.02979V20.9999L10.6421 16.5954V13.4305L8.09857 9.02979Z" fill="#72B22C"/>
<path d="M13.3834 15.0146L10.6421 16.5952L8.09857 20.9997L18.4705 15.0146H13.3834Z" fill="#00743E"/>
<path d="M0.266296 4.51294V16.4831L2.80984 12.0785V8.91749L0.266296 4.51294Z" fill="#5F5A94"/>
<path d="M8.09854 9.02982V9.0337L0.266296 4.51294L2.80984 8.91749L13.3834 15.0149H18.4705L8.09854 9.02982Z" fill="#0D90CD"/>
</svg>
