<svg width="375" height="750" viewBox="0 0 375 750" fill="none" xmlns="http://www.w3.org/2000/svg">
<g clip-path="url(#clip0_2007_5729)">
<rect width="375" height="750" fill="url(#paint0_linear_2007_5729)"/>
<mask id="mask0_2007_5729" style="mask-type:luminance" maskUnits="userSpaceOnUse" x="-273" y="634" width="920" height="116">
<path d="M-272.282 634H646.282V750H-272.282" fill="white"/>
</mask>
<g mask="url(#mask0_2007_5729)">
<path d="M646 664L546.361 630H-172.505L-272 663.791H175.945V664H646Z" fill="#BDDECA"/>
<path d="M635.087 750H-261.374C-267.259 750 -271.995 745.274 -271.995 739.402V663.501H645.708V739.546C645.708 745.274 640.972 750 635.087 750Z" fill="#697D74"/>
<path d="M-242.429 663.501H-243.434V750H-242.429V663.501ZM-210.997 663.501H-212.001V750H-210.997V663.501ZM-179.565 663.501H-180.569V750H-179.565V663.501ZM-148.276 663.501H-149.281V750H-148.276V663.501ZM-116.844 663.501H-117.849V750H-116.844V663.501ZM-85.4118 663.501H-86.4164V750H-85.4118V663.501ZM-53.9796 663.501H-54.9843V750H-53.9796V663.501ZM-22.5475 663.501H-23.5522V750H-22.5475V663.501ZM8.74112 663.501H7.73643V750H8.74112V663.501ZM40.1732 663.501H39.1686V750H40.1732V663.501ZM71.6054 663.501H70.6007V750H71.6054V663.501ZM304.548 663.501H303.543V750H304.548V663.501ZM335.98 663.501H334.975V750H335.98V663.501ZM367.412 663.501H366.407V750H367.412V663.501ZM398.701 663.501H397.696V750H398.701V663.501ZM430.133 663.501H429.128V750H430.133V663.501ZM461.565 663.501H460.56V750H461.565V663.501ZM492.997 663.501H491.992V750H492.997V663.501ZM524.429 663.501H523.424V750H524.429V663.501ZM555.718 663.501H554.713V750H555.718V663.501ZM587.15 663.501H586.145V750H587.15V663.501ZM618.582 663.501H617.577V750H618.582V663.501Z" fill="#4A5C53"/>
<path d="M88.2542 663.501H-271.995V670.375H88.2542V663.501Z" fill="#4A5C53"/>
<path d="M88.2543 670.089H-271.995V672.237H88.2543V670.089ZM645.708 670.089H285.459V672.237H645.708V670.089Z" fill="#364741"/>
<path d="M645.708 663.501H285.459V670.375H645.708V663.501Z" fill="#4A5C53"/>
<path d="M285.459 663.501H88.2544V686.272H285.459V663.501Z" fill="#61746D"/>
<path d="M347.749 720.785L313.016 714.198H62.1326L27.3994 720.785H347.749Z" fill="#B4DBC9"/>
<path d="M347.749 720.785H27.3994V750H347.749V720.785Z" fill="#61746D"/>
<path d="M312.729 691.284L285.459 686.128H89.4025L62.1326 691.284H312.729Z" fill="#B4DBC9"/>
<path d="M312.729 691.284H62.1326V714.198H312.729V691.284Z" fill="#61746D"/>
<path d="M245.415 714.054V691.427L232.928 686.128V663.501H135.618V686.128L123.131 691.427V714.054L109.64 720.785V750H258.763V720.785L245.415 714.054Z" fill="#FCBE2D"/>
<path d="M252.304 714.054V691.427L239.817 686.128V663.501H142.507V686.128L129.877 691.427V714.054L116.529 720.785V750H265.939V720.785L252.304 714.054Z" fill="#FCBE2D"/>
<path d="M235.512 663.501H138.201V686.128H235.512V663.501ZM248.142 691.427H125.715V714.054H248.142V691.427ZM261.633 720.785H112.223V750H261.633V720.785Z" fill="#D63A38"/>
<path d="M112.223 720.785L125.571 714.054H247.998L261.49 720.785H112.223ZM125.571 691.427L138.058 686.128H235.368L247.855 691.427H125.571Z" fill="#EB5D5B"/>
<path d="M-257.499 687.417C-257.499 688.133 -258.073 688.706 -258.791 688.706C-259.134 688.706 -259.462 688.57 -259.704 688.329C-259.947 688.087 -260.083 687.759 -260.083 687.417C-260.083 686.701 -259.509 686.128 -258.791 686.128C-258.073 686.128 -257.499 686.701 -257.499 687.417ZM-226.354 687.417C-226.354 688.133 -226.928 688.706 -227.646 688.706C-227.989 688.706 -228.317 688.57 -228.559 688.329C-228.802 688.087 -228.938 687.759 -228.938 687.417C-228.938 686.701 -228.364 686.128 -227.646 686.128C-226.928 686.128 -226.354 686.701 -226.354 687.417ZM-197.075 687.417C-197.075 688.133 -197.649 688.706 -198.367 688.706C-198.709 688.706 -199.038 688.57 -199.28 688.329C-199.522 688.087 -199.658 687.759 -199.658 687.417C-199.658 686.701 -199.084 686.128 -198.367 686.128C-197.793 686.128 -197.075 686.701 -197.075 687.417ZM-165.069 687.417C-165.069 688.133 -165.643 688.706 -166.36 688.706C-166.703 688.706 -167.032 688.57 -167.274 688.329C-167.516 688.087 -167.652 687.759 -167.652 687.417C-167.652 686.701 -167.078 686.128 -166.36 686.128C-165.643 686.128 -165.069 686.701 -165.069 687.417ZM-131.053 687.417C-131.053 688.133 -131.627 688.706 -132.345 688.706C-132.687 688.706 -133.016 688.57 -133.258 688.329C-133.5 688.087 -133.637 687.759 -133.637 687.417C-133.637 686.701 -133.062 686.128 -132.345 686.128C-131.627 686.128 -131.053 686.701 -131.053 687.417ZM-99.7645 687.417C-99.7645 688.133 -100.339 688.706 -101.056 688.706C-101.399 688.706 -101.727 688.57 -101.97 688.329C-102.212 688.087 -102.348 687.759 -102.348 687.417C-102.348 686.701 -101.774 686.128 -101.056 686.128C-100.339 686.128 -99.7645 686.701 -99.7645 687.417ZM-69.337 687.417C-69.337 688.133 -69.9111 688.706 -70.6288 688.706C-70.9714 688.706 -71.2999 688.57 -71.5422 688.329C-71.7844 688.087 -71.9205 687.759 -71.9205 687.417C-71.9205 686.701 -71.3464 686.128 -70.6288 686.128C-69.9111 686.128 -69.337 686.701 -69.337 687.417ZM-37.1873 687.417C-37.1873 688.133 -37.7614 688.706 -38.479 688.706C-38.8216 688.706 -39.1502 688.57 -39.3924 688.329C-39.6347 688.087 -39.7707 687.759 -39.7707 687.417C-39.7707 686.701 -39.1966 686.128 -38.479 686.128C-37.7614 686.128 -37.1873 686.701 -37.1873 687.417ZM-5.46808 687.417C-5.46808 688.133 -6.04219 688.706 -6.75981 688.706C-7.1024 688.706 -7.43097 688.57 -7.67322 688.329C-7.91547 688.087 -8.05154 687.759 -8.05154 687.417C-8.05154 686.701 -7.47745 686.128 -6.75981 686.128C-6.18571 686.128 -5.46808 686.701 -5.46808 687.417ZM26.3946 687.417C26.3946 688.133 25.8205 688.706 25.1029 688.706C24.7603 688.706 24.4317 688.57 24.1895 688.329C23.9473 688.087 23.8112 687.759 23.8112 687.417C23.8112 686.701 24.3853 686.128 25.1029 686.128C25.8205 686.128 26.3946 686.701 26.3946 687.417ZM55.8174 687.417C55.8174 688.133 55.2433 688.706 54.5257 688.706C54.1831 688.706 53.8545 688.57 53.6123 688.329C53.37 688.087 53.2339 687.759 53.2339 687.417C53.2339 686.701 53.808 686.128 54.5257 686.128C55.2433 686.128 55.8174 686.701 55.8174 687.417ZM-257.499 733.388C-257.499 734.104 -258.073 734.677 -258.791 734.677C-259.134 734.677 -259.462 734.541 -259.704 734.299C-259.947 734.057 -260.083 733.729 -260.083 733.388C-260.083 732.672 -259.509 732.099 -258.791 732.099C-258.073 732.099 -257.499 732.528 -257.499 733.388ZM-226.354 733.388C-226.354 734.104 -226.928 734.677 -227.646 734.677C-227.989 734.677 -228.317 734.541 -228.559 734.299C-228.802 734.057 -228.938 733.729 -228.938 733.388C-228.938 732.672 -228.364 732.099 -227.646 732.099C-226.928 732.099 -226.354 732.528 -226.354 733.388ZM-197.075 733.388C-197.075 734.104 -197.649 734.677 -198.367 734.677C-198.709 734.677 -199.038 734.541 -199.28 734.299C-199.522 734.057 -199.658 733.729 -199.658 733.388C-199.658 732.672 -199.084 732.099 -198.367 732.099C-197.793 732.099 -197.075 732.528 -197.075 733.388ZM-165.069 733.388C-165.069 734.104 -165.643 734.677 -166.36 734.677C-166.703 734.677 -167.032 734.541 -167.274 734.299C-167.516 734.057 -167.652 733.729 -167.652 733.388C-167.652 732.672 -167.078 732.099 -166.36 732.099C-165.643 732.099 -165.069 732.528 -165.069 733.388ZM-131.053 733.388C-131.053 734.104 -131.627 734.677 -132.345 734.677C-132.687 734.677 -133.016 734.541 -133.258 734.299C-133.5 734.057 -133.637 733.729 -133.637 733.388C-133.637 732.672 -133.062 732.099 -132.345 732.099C-131.627 732.099 -131.053 732.528 -131.053 733.388ZM-99.7645 733.388C-99.7645 734.104 -100.339 734.677 -101.056 734.677C-101.399 734.677 -101.727 734.541 -101.97 734.299C-102.212 734.057 -102.348 733.729 -102.348 733.388C-102.348 732.672 -101.774 732.099 -101.056 732.099C-100.339 732.099 -99.7645 732.528 -99.7645 733.388ZM-69.337 733.388C-69.337 734.104 -69.9111 734.677 -70.6288 734.677C-70.9714 734.677 -71.2999 734.541 -71.5422 734.299C-71.7844 734.057 -71.9205 733.729 -71.9205 733.388C-71.9205 732.672 -71.3464 732.099 -70.6288 732.099C-69.9111 732.099 -69.337 732.528 -69.337 733.388ZM-37.1873 733.388C-37.1873 734.104 -37.7614 734.677 -38.479 734.677C-38.8216 734.677 -39.1502 734.541 -39.3924 734.299C-39.6347 734.057 -39.7707 733.729 -39.7707 733.388C-39.7707 732.672 -39.1966 732.099 -38.479 732.099C-37.7614 732.099 -37.1873 732.528 -37.1873 733.388ZM-5.46808 733.388C-5.46808 734.104 -6.04219 734.677 -6.75981 734.677C-7.1024 734.677 -7.43097 734.541 -7.67322 734.299C-7.91547 734.057 -8.05154 733.729 -8.05154 733.388C-8.05154 732.672 -7.47745 732.099 -6.75981 732.099C-6.18571 732.099 -5.46808 732.528 -5.46808 733.388ZM26.3946 733.388C26.3946 734.104 25.8205 734.677 25.1029 734.677C24.7603 734.677 24.4317 734.541 24.1895 734.299C23.9473 734.057 23.8112 733.729 23.8112 733.388C23.8112 732.672 24.3853 732.099 25.1029 732.099C25.8205 732.099 26.3946 732.528 26.3946 733.388ZM322.775 687.417C322.775 688.133 322.201 688.706 321.484 688.706C321.141 688.706 320.812 688.57 320.57 688.329C320.328 688.087 320.192 687.759 320.192 687.417C320.192 686.701 320.766 686.128 321.484 686.128C322.345 686.128 322.775 686.701 322.775 687.417ZM353.92 687.417C353.92 688.133 353.346 688.706 352.629 688.706C352.286 688.706 351.958 688.57 351.715 688.329C351.473 688.087 351.337 687.759 351.337 687.417C351.337 686.701 351.911 686.128 352.629 686.128C353.346 686.128 353.92 686.701 353.92 687.417ZM383.2 687.417C383.2 688.133 382.626 688.706 381.908 688.706C381.565 688.706 381.237 688.57 380.995 688.329C380.752 688.087 380.616 687.759 380.616 687.417C380.616 686.701 381.19 686.128 381.908 686.128C382.482 686.128 383.2 686.701 383.2 687.417ZM415.206 687.417C415.206 688.133 414.632 688.706 413.914 688.706C413.572 688.706 413.243 688.57 413.001 688.329C412.759 688.087 412.622 687.759 412.622 687.417C412.622 686.701 413.197 686.128 413.914 686.128C414.632 686.128 415.206 686.701 415.206 687.417ZM449.221 687.417C449.221 688.133 448.647 688.706 447.93 688.706C447.587 688.706 447.259 688.57 447.016 688.329C446.774 688.087 446.638 687.759 446.638 687.417C446.638 686.701 447.212 686.128 447.93 686.128C448.647 686.128 449.221 686.701 449.221 687.417ZM480.51 687.417C480.51 688.133 479.936 688.706 479.218 688.706C478.876 688.706 478.547 688.57 478.305 688.329C478.063 688.087 477.927 687.759 477.927 687.417C477.927 686.701 478.501 686.128 479.218 686.128C479.936 686.128 480.51 686.701 480.51 687.417ZM510.938 687.417C510.938 688.133 510.363 688.706 509.646 688.706C509.303 688.706 508.975 688.57 508.732 688.329C508.49 688.087 508.354 687.759 508.354 687.417C508.354 686.701 508.928 686.128 509.646 686.128C510.363 686.128 510.938 686.701 510.938 687.417ZM543.087 687.417C543.087 688.133 542.513 688.706 541.796 688.706C541.453 688.706 541.124 688.57 540.882 688.329C540.64 688.087 540.504 687.759 540.504 687.417C540.504 686.701 541.078 686.128 541.796 686.128C542.513 686.128 543.087 686.701 543.087 687.417ZM574.807 687.417C574.807 688.133 574.232 688.706 573.515 688.706C573.172 688.706 572.844 688.57 572.601 688.329C572.359 688.087 572.223 687.759 572.223 687.417C572.223 686.701 572.797 686.128 573.515 686.128C574.089 686.128 574.807 686.701 574.807 687.417ZM606.669 687.417C606.669 688.133 606.095 688.706 605.378 688.706C605.035 688.706 604.706 688.57 604.464 688.329C604.222 688.087 604.086 687.759 604.086 687.417C604.086 686.701 604.66 686.128 605.378 686.128C606.095 686.128 606.669 686.701 606.669 687.417ZM636.092 687.417C636.092 688.133 635.518 688.706 634.8 688.706C634.458 688.706 634.129 688.57 633.887 688.329C633.645 688.087 633.509 687.759 633.509 687.417C633.509 686.701 634.083 686.128 634.8 686.128C635.518 686.128 636.092 686.701 636.092 687.417ZM353.92 733.388C353.92 734.104 353.346 734.677 352.629 734.677C352.286 734.677 351.958 734.541 351.715 734.299C351.473 734.057 351.337 733.729 351.337 733.388C351.337 732.672 351.911 732.099 352.629 732.099C353.346 732.099 353.92 732.528 353.92 733.388ZM383.2 733.388C383.2 734.104 382.626 734.677 381.908 734.677C381.565 734.677 381.237 734.541 380.995 734.299C380.752 734.057 380.616 733.729 380.616 733.388C380.616 732.672 381.19 732.099 381.908 732.099C382.626 732.099 383.2 732.528 383.2 733.388ZM415.206 733.388C415.206 734.104 414.632 734.677 413.914 734.677C413.572 734.677 413.243 734.541 413.001 734.299C412.759 734.057 412.622 733.729 412.622 733.388C412.622 732.672 413.197 732.099 413.914 732.099C414.632 732.099 415.206 732.528 415.206 733.388ZM449.221 733.388C449.221 734.104 448.647 734.677 447.93 734.677C447.587 734.677 447.259 734.541 447.016 734.299C446.774 734.057 446.638 733.729 446.638 733.388C446.638 732.672 447.212 732.099 447.93 732.099C448.647 732.099 449.221 732.528 449.221 733.388ZM480.51 733.388C480.51 734.104 479.936 734.677 479.218 734.677C478.876 734.677 478.547 734.541 478.305 734.299C478.063 734.057 477.927 733.729 477.927 733.388C477.927 732.672 478.501 732.099 479.218 732.099C479.936 732.099 480.51 732.528 480.51 733.388ZM510.938 733.388C510.938 734.104 510.363 734.677 509.646 734.677C509.303 734.677 508.975 734.541 508.732 734.299C508.49 734.057 508.354 733.729 508.354 733.388C508.354 732.672 508.928 732.099 509.646 732.099C510.363 732.099 510.938 732.528 510.938 733.388ZM543.087 733.388C543.087 734.104 542.513 734.677 541.796 734.677C541.453 734.677 541.124 734.541 540.882 734.299C540.64 734.057 540.504 733.729 540.504 733.388C540.504 732.672 541.078 732.099 541.796 732.099C542.513 732.099 543.087 732.528 543.087 733.388ZM574.807 733.388C574.807 734.104 574.232 734.677 573.515 734.677C573.172 734.677 572.844 734.541 572.601 734.299C572.359 734.057 572.223 733.729 572.223 733.388C572.223 732.672 572.797 732.099 573.515 732.099C574.089 732.099 574.807 732.528 574.807 733.388ZM606.669 733.388C606.669 734.104 606.095 734.677 605.378 734.677C605.035 734.677 604.706 734.541 604.464 734.299C604.222 734.057 604.086 733.729 604.086 733.388C604.086 732.672 604.66 732.099 605.378 732.099C606.095 732.099 606.669 732.528 606.669 733.388ZM636.092 733.388C636.092 734.104 635.518 734.677 634.8 734.677C634.458 734.677 634.129 734.541 633.887 734.299C633.645 734.057 633.509 733.729 633.509 733.388C633.509 732.672 634.083 732.099 634.8 732.099C635.518 732.099 636.092 732.528 636.092 733.388Z" fill="#4A5C53"/>
</g>
<g clip-path="url(#clip1_2007_5729)">
<path d="M-62.6846 679.34H434.161V0.163147H-62.6846V679.34Z" fill="#D63A38"/>
<path d="M-63 0.163146V681.624H435.107V585.858C434.319 586.021 433.688 585.858 432.741 585.531C428.956 583.737 426.432 577.374 424.697 571.174C420.123 555.839 418.073 537.403 416.022 520.436C413.341 497.106 410.975 473.613 409.713 449.794C409.082 439.026 408.609 428.422 407.978 417.817C407.505 426.464 406.874 435.274 406.401 443.594C404.508 474.429 402.931 505.427 400.092 535.935C398.987 547.681 396.464 574.274 387.315 570.685C381.953 568.727 378.483 557.47 376.117 549.15C372.174 536.098 370.281 521.904 368.861 507.547C366.968 488.949 365.391 470.187 363.814 451.425C363.498 456.156 363.183 460.561 363.025 465.456C362.237 478.834 361.29 492.538 360.975 505.916C360.817 514.889 360.659 523.536 360.344 532.509C359.713 547.355 358.609 571.501 349.776 577.537C344.729 580.963 340.155 575.579 336.842 568.89C332.584 560.244 329.902 548.823 327.694 538.056C324.539 523.209 322.174 507.874 319.965 492.212C318.546 481.77 317.284 471.166 316.022 460.561C315.707 467.087 315.391 473.776 315.233 480.628C314.76 494.006 314.76 507.384 313.498 520.599C311.763 540.34 305.454 574.274 291.574 564.975C286.211 561.386 282.426 551.107 279.587 542.624C278.956 540.666 278.325 538.382 277.694 536.261C275.959 548.334 273.435 559.428 268.861 568.238C263.498 578.516 255.297 581.779 248.356 576.069C242.521 571.338 238.735 560.896 235.896 550.455C234.003 543.44 232.426 535.935 231.164 528.104C230.849 529.735 230.375 531.04 230.06 532.672C227.536 543.276 224.066 556.328 218.546 562.528C213.183 568.564 207.189 563.18 203.088 555.349C194.729 539.361 190.47 517.01 187.946 495.311C187.473 502.653 187 510.321 186.369 517.662C185.423 528.92 183.845 540.34 179.271 548.334C176.117 553.881 172.174 557.307 167.915 555.675C163.814 554.044 160.344 548.334 157.978 542.461C152.457 529.246 149.303 512.442 146.937 496.453C145.833 488.459 144.729 479.976 143.782 471.818C142.678 492.212 140.628 512.279 137.315 532.019C135.107 544.582 132.268 557.633 128.325 568.401C125.959 574.6 122.647 580.474 118.23 578.842C114.287 577.211 111.921 569.869 110.186 563.67C108.136 555.675 107.032 546.866 105.77 538.219C105.139 533.488 104.35 528.267 103.719 523.209C103.088 532.346 102.457 541.645 101.511 550.781C100.565 561.222 98.9874 571.827 95.8328 580.8C92.0473 591.731 84.7918 597.441 78.3249 591.731C73.2776 587.163 69.8076 577.7 67.4417 568.727C63.3407 554.37 60.6593 538.545 58.6088 522.394C57.1893 536.587 55.1388 550.129 52.4574 563.343C50.4069 572.969 46.7792 582.758 41.4164 586.184C35.5804 589.773 30.2177 582.105 27.2208 573.458C19.1767 549.802 17.7571 520.273 15.5489 493.027C14.918 502.164 14.1293 511.463 13.0252 520.436C11.6057 534.466 9.71294 549.639 5.92745 562.201C3.40379 571.011 -1.4858 574.927 -5.58675 566.769C-9.37224 559.428 -10.6341 548.008 -11.7382 538.545C-12.6845 531.367 -13.4732 523.862 -14.1041 516.52H-14.2618C-16.3123 515.542 -17.5741 512.931 -18.9937 510.321C-22.1483 504.448 -24.9874 497.759 -27.6688 490.906C-30.8233 482.912 -32.7161 473.45 -34.6088 464.151C-37.1325 450.936 -38.7098 437.231 -39.9716 423.201C-44.8612 365.937 -41.3912 308.02 -42.1798 250.266C-42.653 205.075 -43.9148 160.046 -44.388 114.855C-44.8612 76.3524 -44.8612 38.1762 -45.0189 0H-63V0.163146Z" fill="#AF1D1C"/>
<path opacity="0.5" d="M407.82 7.99417L414.287 667.267C415.864 518.478 414.287 13.5411 414.287 13.5411L407.82 7.99417ZM368.072 19.5775L371.7 678.851C372.489 530.062 371.7 25.1245 371.7 25.1245L368.072 19.5775ZM317.284 7.99417L323.751 667.267C325.328 518.478 323.751 13.5411 323.751 13.5411L317.284 7.99417ZM277.536 19.5775L281.164 678.851C281.953 530.062 281.164 25.1245 281.164 25.1245L277.536 19.5775ZM230.06 7.99417L236.527 667.267C238.104 518.478 236.527 13.5411 236.527 13.5411L230.06 7.99417ZM190.312 19.5775L193.94 678.851C194.729 530.062 193.94 25.1245 193.94 25.1245L190.312 19.5775ZM141.89 7.99417L148.356 667.267C149.934 518.478 148.356 13.5411 148.356 13.5411L141.89 7.99417ZM101.984 19.5775L105.612 678.851C106.401 530.062 105.612 25.1245 105.612 25.1245L101.984 19.5775ZM54.1923 7.99417L60.6592 667.267C62.2365 518.478 60.6592 13.5411 60.6592 13.5411L54.1923 7.99417ZM14.4447 19.5775L18.0725 678.851C18.8611 530.062 18.0725 25.1245 18.0725 25.1245L14.4447 19.5775ZM-16.7856 7.99417L-10.3187 667.267C-8.74141 518.478 -10.3187 13.5411 -10.3187 13.5411L-16.7856 7.99417ZM-56.5332 19.5775L-52.9054 678.851C-52.1168 530.062 -52.9054 25.1245 -52.9054 25.1245L-56.5332 19.5775Z" fill="#282C65"/>
<path opacity="0.8" d="M360.186 496.453C363.972 422.385 364.129 348.317 363.656 274.085C363.025 196.754 359.871 119.26 359.24 41.9285C359.24 40.2971 356.716 39.155 356.716 41.1128C356.243 48.7807 355.927 56.2854 355.612 63.7901C354.192 102.129 354.666 140.469 354.981 178.808C355.297 217.474 355.454 256.139 355.612 294.805C355.77 324.987 355.612 355.169 355.297 385.677C356.716 422.385 358.609 459.419 360.186 496.453Z" fill="url(#paint1_linear_2007_5729)"/>
<path opacity="0.8" d="M309.24 500.858C312.079 431.848 312.237 362.674 311.921 293.5C311.606 221.226 309.24 149.116 308.924 76.8418C308.767 75.2104 307.032 74.2315 307.032 76.0261C306.716 83.0414 306.401 90.2198 306.243 97.2351C305.139 132.801 305.454 168.693 305.612 204.422C305.928 240.477 305.928 276.369 305.928 312.425C306.085 340.649 305.928 368.873 305.612 397.098C306.874 431.685 308.293 466.271 309.24 500.858Z" fill="url(#paint2_linear_2007_5729)"/>
<path opacity="0.8" d="M268.703 500.695C271.858 426.953 272.173 353.048 271.7 279.306C271.227 202.301 268.546 125.296 267.915 48.2912C267.915 46.6598 265.707 45.5177 265.707 47.4755L264.76 70.1528C263.498 108.329 263.814 146.342 264.129 184.518C264.445 222.858 264.445 261.36 264.603 299.699C264.76 329.881 264.603 360.063 264.287 390.082C265.707 426.953 267.442 463.824 268.703 500.695Z" fill="url(#paint3_linear_2007_5729)"/>
<path opacity="0.8" d="M135.423 500.695C138.577 426.953 138.893 353.048 138.42 279.306C137.946 202.301 135.265 125.296 134.634 48.2912C134.634 46.6598 132.426 45.5177 132.426 47.4755L131.479 70.1528C130.218 108.329 130.533 146.342 130.849 184.518C131.164 222.858 131.164 261.36 131.322 299.699C131.479 329.881 131.322 360.063 131.006 390.082C132.426 426.953 134.161 463.824 135.423 500.695Z" fill="url(#paint4_linear_2007_5729)"/>
<path opacity="0.8" d="M91.1009 500.695C94.2555 426.953 94.5709 353.048 94.0978 279.306C93.6246 202.301 90.9432 125.296 90.3123 48.2912C90.3123 46.6598 88.1041 45.5177 88.1041 47.4755L87.1577 70.1528C85.8959 108.329 86.2113 146.342 86.5268 184.518C86.8422 222.858 86.8422 261.36 87 299.699C87.1577 329.881 87 360.063 86.6845 390.082C88.1041 426.953 89.8391 463.824 91.1009 500.695Z" fill="url(#paint5_linear_2007_5729)"/>
<path opacity="0.8" d="M49.1451 500.695C52.2997 426.953 52.6151 353.048 52.1419 279.306C51.6688 202.301 48.9874 125.296 48.3565 48.2912C48.3565 46.6598 46.1483 45.5177 46.1483 47.4755L45.2019 70.1528C43.9401 108.166 44.2555 146.179 44.571 184.355C44.8864 222.694 44.8864 261.197 45.0442 299.536C45.2019 329.718 45.0442 359.9 44.7287 389.919C46.1483 426.953 47.7255 463.824 49.1451 500.695Z" fill="url(#paint6_linear_2007_5729)"/>
<path opacity="0.8" d="M10.0283 497.269C12.2365 423.527 12.5519 349.622 12.3942 275.88C12.2365 198.875 10.6592 121.87 10.5015 44.8652C10.5015 43.2337 9.23964 42.0917 9.08191 44.0494C8.76645 51.391 8.60873 59.0589 8.451 66.7267C7.50462 104.903 7.66235 142.916 7.82008 181.092C7.97781 219.431 7.97781 257.771 7.97781 296.273C7.97781 326.455 7.82008 356.637 7.66235 386.656C8.13554 423.69 9.23964 460.398 10.0283 497.269Z" fill="url(#paint7_linear_2007_5729)"/>
<path opacity="0.8" d="M220.754 504.611C223.593 432.663 223.909 360.39 223.593 288.442C223.278 213.069 220.912 137.695 220.596 62.4849C220.439 60.8535 218.704 59.7115 218.546 61.6692C218.23 68.8476 217.915 76.1892 217.757 83.6939C216.495 120.891 216.969 158.089 217.126 195.449C217.442 232.973 217.442 270.659 217.442 308.183C217.442 337.549 217.284 366.915 217.126 396.445C218.073 432.174 219.492 468.392 220.754 504.611Z" fill="url(#paint8_linear_2007_5729)"/>
<path opacity="0.8" d="M177.063 665.799C179.271 589.61 179.587 365.61 179.429 289.421C179.271 209.806 177.694 130.191 177.536 50.5753C177.536 48.9438 176.275 47.8018 176.117 49.7596C175.801 57.5906 175.644 65.4216 175.486 73.0894C174.54 112.571 174.697 151.889 174.855 191.37C175.013 231.015 175.013 270.822 175.013 310.63C175.013 341.628 174.855 372.789 174.697 403.786C175.328 441.8 176.275 627.786 177.063 665.799Z" fill="url(#paint9_linear_2007_5729)"/>
<path d="M407.82 7.99417L414.287 667.267C415.864 518.478 414.287 13.5411 414.287 13.5411L407.82 7.99417ZM368.072 19.5775L371.7 678.851C372.489 530.062 371.7 25.1245 371.7 25.1245L368.072 19.5775ZM317.284 7.99417L323.751 667.267C325.328 518.478 323.751 13.5411 323.751 13.5411L317.284 7.99417ZM277.536 19.5775L281.164 678.851C281.953 530.062 281.164 25.1245 281.164 25.1245L277.536 19.5775ZM230.06 7.99417L236.527 667.267C238.104 518.478 236.527 13.5411 236.527 13.5411L230.06 7.99417ZM190.312 19.5775L193.94 678.851C194.729 530.062 193.94 25.1245 193.94 25.1245L190.312 19.5775ZM141.89 7.99417L148.356 667.267C149.934 518.478 148.356 13.5411 148.356 13.5411L141.89 7.99417ZM101.984 19.5775L105.612 678.851C106.401 530.062 105.612 25.1245 105.612 25.1245L101.984 19.5775ZM54.1923 7.99417L60.6592 667.267C62.2365 518.478 60.6592 13.5411 60.6592 13.5411L54.1923 7.99417ZM14.4447 19.5775L18.0725 678.851C18.8611 530.062 18.0725 25.1245 18.0725 25.1245L14.4447 19.5775ZM-16.7856 7.99417L-10.3187 667.267C-8.74141 518.478 -10.3187 13.5411 -10.3187 13.5411L-16.7856 7.99417ZM-56.5332 19.5775L-52.9054 678.851C-52.1168 530.062 -52.9054 25.1245 -52.9054 25.1245L-56.5332 19.5775Z" fill="#AD1C1A"/>
<path d="M414.602 680.645C414.602 680.972 414.76 681.461 414.76 681.787C414.76 688.803 405.296 696.634 393.309 696.634C381.322 696.634 371.542 688.803 371.542 681.787C371.542 681.461 371.542 680.972 371.7 680.645H414.602Z" fill="#AF1D1C"/>
<path d="M371.543 680.645C371.543 680.972 371.7 681.461 371.7 681.787C371.7 688.803 362.237 696.634 350.249 696.634C338.262 696.634 328.483 688.803 328.483 681.787C328.483 681.461 328.483 680.972 328.64 680.645H371.543Z" fill="#AF1D1C"/>
<path d="M362.394 299.536C362.868 232.157 364.76 165.104 361.921 97.8876C361.763 93.1564 361.448 88.0989 361.29 83.3676C360.344 64.6058 363.025 16.1515 347.883 6.0364C340.47 0.978873 339.524 28.0611 338.42 36.0553C334.476 61.6692 336.842 89.7303 337.158 115.834C337.473 160.862 336.842 206.053 337.631 251.082C338.42 301.82 338.577 352.559 339.681 403.297C340.47 444.736 341.732 633.822 343.94 675.098C343.94 675.262 344.098 675.751 344.098 676.077C344.098 676.077 344.886 682.277 351.353 682.277C357.82 682.277 358.293 676.077 358.293 676.077V675.425C362.868 599.562 361.921 375.399 362.394 299.536Z" fill="#EB5C5C"/>
<path d="M328.483 680.645C328.483 680.972 328.64 681.461 328.64 681.787C328.64 688.803 319.177 696.634 307.189 696.634C295.202 696.634 285.423 688.803 285.423 681.787C285.423 681.461 285.423 680.972 285.58 680.645H328.483Z" fill="#AF1D1C"/>
<path d="M319.334 299.536C319.807 232.157 321.7 165.104 318.861 97.8876C318.703 93.1564 318.388 88.0989 318.23 83.3676C317.284 64.6058 319.965 16.1515 304.823 6.0364C297.41 0.978873 296.464 28.0611 295.36 36.0553C291.416 61.6692 293.782 89.7303 294.098 115.834C294.413 160.862 293.782 206.053 294.571 251.082C295.36 301.82 295.517 352.559 296.621 403.297C297.41 444.736 298.672 633.822 300.88 675.098C300.88 675.262 301.038 675.751 301.038 676.077C301.038 676.077 301.826 682.277 308.293 682.277C314.76 682.277 315.233 676.077 315.233 676.077V675.425C319.807 599.562 318.703 375.399 319.334 299.536Z" fill="#EB5C5C"/>
<path d="M285.423 680.645C285.423 680.972 285.58 681.461 285.58 681.787C285.58 688.803 276.117 696.634 264.129 696.634C252.142 696.634 242.363 688.803 242.363 681.787C242.363 681.461 242.363 680.972 242.521 680.645H285.423Z" fill="#AF1D1C"/>
<path d="M276.274 299.536C276.748 232.157 278.64 165.104 275.801 97.8876C275.644 93.1564 275.328 88.0989 275.17 83.3676C274.224 64.6058 276.905 16.1515 261.763 6.0364C254.35 0.978873 253.404 28.0611 252.3 36.0553C248.356 61.6692 250.722 89.7303 251.038 115.834C251.353 160.862 250.722 206.053 251.511 251.082C252.3 301.82 252.457 352.559 253.562 403.297C254.35 444.736 255.612 633.822 257.82 675.098C257.82 675.262 257.978 675.751 257.978 676.077C257.978 676.077 258.767 682.277 265.233 682.277C271.7 682.277 272.174 676.077 272.174 676.077V675.425C276.748 599.562 275.644 375.399 276.274 299.536Z" fill="#EB5C5C"/>
<path d="M242.363 680.645C242.363 680.972 242.52 681.461 242.52 681.787C242.52 688.803 233.057 696.634 221.069 696.634C209.082 696.634 199.303 688.803 199.303 681.787C199.303 681.461 199.303 680.972 199.46 680.645H242.363Z" fill="#AF1D1C"/>
<path d="M233.214 299.536C233.688 232.157 235.58 165.104 232.741 97.8876C232.583 93.1564 232.268 88.0989 232.11 83.3676C231.164 64.6058 233.845 16.1515 218.703 6.0364C211.29 0.978873 210.344 28.0611 209.24 36.0553C205.296 61.6692 207.662 89.7303 207.978 115.834C208.293 160.862 207.662 206.053 208.451 251.082C209.24 301.82 209.397 352.559 210.501 403.297C211.29 444.736 212.552 633.822 214.76 675.098C214.76 675.262 214.918 675.751 214.918 676.077C214.918 676.077 215.707 682.277 222.173 682.277C228.64 682.277 229.113 676.077 229.113 676.077V675.425C233.688 599.562 232.583 375.399 233.214 299.536Z" fill="#EB5C5C"/>
<path d="M199.303 680.645C199.303 680.972 199.461 681.461 199.461 681.787C199.461 688.803 189.997 696.634 178.009 696.634C166.022 696.634 156.243 688.803 156.243 681.787C156.243 681.461 156.243 680.972 156.401 680.645H199.303Z" fill="#AF1D1C"/>
<path d="M190.155 299.536C190.628 232.157 192.521 165.104 189.681 97.8876C189.524 93.1564 189.208 88.0989 189.05 83.3676C188.104 64.6058 190.786 16.1515 175.644 6.0364C168.23 0.978873 167.284 28.0611 166.18 36.0553C162.237 61.6692 164.603 89.7303 164.918 115.834C165.233 160.862 164.603 206.053 165.391 251.082C166.18 301.82 166.338 352.559 167.442 403.297C168.23 444.736 169.492 633.822 171.7 675.098C171.7 675.262 171.858 675.751 171.858 676.077C171.858 676.077 172.647 682.277 179.114 682.277C185.58 682.277 186.054 676.077 186.054 676.077V675.425C190.628 599.562 189.524 375.399 190.155 299.536Z" fill="#EB5C5C"/>
<path d="M156.243 680.645C156.243 680.972 156.401 681.461 156.401 681.787C156.401 688.803 146.937 696.634 134.949 696.634C122.962 696.634 113.183 688.803 113.183 681.787C113.183 681.461 113.183 680.972 113.341 680.645H156.243Z" fill="#AF1D1C"/>
<path d="M147.095 299.536C147.568 232.157 149.46 165.104 146.621 97.8876C146.464 93.1564 146.148 88.0989 145.99 83.3676C145.044 64.6058 147.725 16.1515 132.583 6.0364C125.17 0.978873 124.224 28.0611 123.12 36.0553C119.177 61.6692 121.542 89.7303 121.858 115.834C122.173 160.862 121.542 206.053 122.331 251.082C123.12 301.82 123.277 352.559 124.382 403.297C125.17 444.736 126.432 633.822 128.64 675.098C128.64 675.262 128.798 675.751 128.798 676.077C128.798 676.077 129.587 682.277 136.054 682.277C142.52 682.277 142.994 676.077 142.994 676.077V675.425C147.568 599.562 146.464 375.399 147.095 299.536Z" fill="#EB5C5C"/>
<path d="M113.025 680.645C113.025 680.972 113.183 681.461 113.183 681.787C113.183 688.803 103.719 696.634 91.7319 696.634C79.7445 696.634 69.9653 688.803 69.9653 681.787C69.9653 681.461 69.9653 680.972 70.1231 680.645H113.025Z" fill="#AF1D1C"/>
<path d="M104.035 299.536C104.508 232.157 106.401 165.104 103.562 97.8876C103.404 93.1564 103.088 88.0989 102.931 83.3676C101.984 64.6058 104.666 16.1515 89.5237 6.0364C82.1104 0.978873 81.1641 28.0611 80.06 36.0553C76.1167 61.6692 78.4827 89.7303 78.7981 115.834C79.1136 160.862 78.4827 206.053 79.2713 251.082C80.06 301.82 80.2177 352.559 81.3218 403.297C82.1104 444.736 83.3723 633.822 85.5805 675.098C85.5805 675.262 85.7382 675.751 85.7382 676.077C85.7382 676.077 86.5268 682.277 92.9937 682.277C99.4606 682.277 99.9338 676.077 99.9338 676.077V675.425C104.35 599.562 103.404 375.399 104.035 299.536Z" fill="#EB5C5C"/>
<path d="M69.9652 680.645C69.9652 680.972 70.1229 681.461 70.1229 681.787C70.1229 688.803 60.6592 696.634 48.6718 696.634C36.6845 696.634 26.9053 688.803 26.9053 681.787C26.9053 681.461 26.9053 680.972 27.063 680.645H69.9652Z" fill="#AF1D1C"/>
<path d="M60.9747 299.536C61.4478 232.157 63.3406 165.104 60.5015 97.8876C60.3437 93.1564 60.0283 88.0989 59.8706 83.3676C58.9242 64.6058 61.6056 16.1515 46.4636 6.0364C39.0504 0.978873 38.104 28.0611 36.9999 36.0553C33.0567 61.6692 35.4226 89.7303 35.7381 115.834C36.0535 160.862 35.4226 206.053 36.2113 251.082C36.9999 301.82 37.1576 352.559 38.2617 403.297C39.0504 444.736 40.3122 633.822 42.5204 675.098C42.5204 675.262 42.6781 675.751 42.6781 676.077C42.6781 676.077 43.4668 682.277 49.9337 682.277C56.4005 682.277 56.8737 676.077 56.8737 676.077V675.425C61.2901 599.562 60.3437 375.399 60.9747 299.536Z" fill="#EB5C5C"/>
<path d="M26.9054 680.645C26.9054 680.972 27.0631 681.461 27.0631 681.787C27.0631 688.803 17.5994 696.634 5.61202 696.634C-6.37536 696.634 -16.1545 688.803 -16.1545 681.787C-16.1545 681.461 -16.1545 680.972 -15.9968 680.645H26.9054Z" fill="#AF1D1C"/>
<path d="M17.9148 299.536C18.388 232.157 20.2808 165.104 17.4417 97.8876C17.2839 93.1564 16.9685 88.0989 16.8107 83.3676C15.8644 64.6058 18.5458 16.1515 3.40381 6.0364C-4.00944 0.978873 -4.95582 28.0611 -6.05992 36.0553C-10.0031 61.6692 -7.6372 89.7303 -7.32175 115.834C-7.00629 160.862 -7.6372 206.053 -6.84856 251.082C-6.05992 301.82 -5.90219 352.559 -4.79809 403.297C-4.00944 444.736 -2.74761 633.822 -0.539413 675.098C-0.539413 675.262 -0.381684 675.751 -0.381684 676.077C-0.381684 676.077 0.40696 682.277 6.87384 682.277C13.3407 682.277 13.8139 676.077 13.8139 676.077V675.425C18.2303 599.562 17.2839 375.399 17.9148 299.536Z" fill="#EB5C5C"/>
<path d="M26.9054 679.83C26.9054 680.156 27.0631 680.645 27.0631 680.972M27.0631 680.972C27.0631 687.987 17.5994 695.818 5.61199 695.818C-6.37539 695.818 -15.8391 687.824 -15.8391 680.809M27.0631 680.972C27.0631 687.987 36.5268 695.818 48.5142 695.818C60.5016 695.818 69.9653 687.987 69.9653 680.972C69.9653 680.645 69.8076 680.156 69.8076 679.83M112.71 679.83C112.71 680.156 112.868 680.645 112.868 680.972C112.868 687.987 103.404 695.818 91.4164 695.818C79.429 695.818 69.9653 687.824 69.9653 680.809" stroke="#FBBD2C" stroke-miterlimit="10"/>
<path d="M156.085 679.83C156.085 680.156 156.243 680.645 156.243 680.972C156.243 687.987 146.779 695.818 134.792 695.818C122.804 695.818 113.025 687.987 113.025 680.972M199.145 679.83C199.145 680.156 199.303 680.645 199.303 680.972M199.303 680.972C199.303 687.987 189.839 695.818 177.852 695.818C165.864 695.818 156.243 687.824 156.243 680.809M199.303 680.972C199.303 687.987 208.766 695.818 220.754 695.818C232.741 695.818 242.205 687.987 242.205 680.972C242.205 680.645 242.047 680.156 242.047 679.83M285.107 679.83C285.107 680.156 285.265 680.645 285.265 680.972C285.265 687.987 275.801 695.818 263.814 695.818C251.826 695.818 242.205 687.824 242.205 680.809M328.483 679.83C328.483 680.156 328.64 680.645 328.64 680.972C328.64 687.987 319.177 695.818 307.189 695.818C295.202 695.818 285.423 687.987 285.423 680.972" stroke="#FBBD2C" stroke-width="10" stroke-miterlimit="10"/>
<path d="M371.385 679.83C371.385 680.156 371.543 680.645 371.543 680.972C371.543 687.987 362.079 695.818 350.091 695.818C338.104 695.818 328.483 687.824 328.483 680.809M414.445 679.83C414.445 680.156 414.603 680.645 414.603 680.972C414.603 687.987 405.139 695.818 393.151 695.818C381.164 695.818 371.7 687.987 371.7 680.972" stroke="#FBBD2C" stroke-width="10" stroke-miterlimit="10"/>
<path d="M432.584 501.837C435.581 430.053 435.896 358.269 435.423 286.484C434.95 211.274 432.426 136.553 431.953 61.5061C431.953 59.8746 429.902 58.7326 429.902 60.6903L428.956 82.7151C427.694 119.912 428.01 156.947 428.325 194.144C428.64 231.504 428.64 269.028 428.798 306.388C428.956 335.591 428.798 364.958 428.483 394.161C429.902 429.89 431.48 465.782 432.584 501.837ZM360.186 496.453C363.972 422.385 364.129 348.317 363.656 274.085C363.025 196.754 359.871 119.26 359.24 41.9285C359.24 40.2971 356.716 39.1551 356.716 41.1128C356.243 48.7807 355.928 56.2854 355.612 63.7901C354.193 102.129 354.666 140.469 354.981 178.808C355.297 217.474 355.454 256.139 355.612 294.805C355.77 324.987 355.612 355.169 355.297 385.677C356.716 422.385 358.609 459.419 360.186 496.453ZM309.24 500.858C312.079 431.848 312.237 362.674 311.921 293.5C311.606 221.226 309.24 149.116 308.924 76.8418C308.767 75.2103 307.032 74.2315 307.032 76.0261C306.716 83.0414 306.401 90.2198 306.243 97.2351C305.139 132.801 305.454 168.693 305.612 204.422C305.928 240.477 305.928 276.369 305.928 312.425C306.085 340.649 305.928 368.873 305.612 397.098C306.874 431.684 308.293 466.271 309.24 500.858ZM268.704 500.695C271.858 426.953 272.174 353.048 271.7 279.306C271.227 202.301 268.546 125.296 267.915 48.2912C267.915 46.6598 265.707 45.5178 265.707 47.4755L264.76 70.1528C263.499 108.329 263.814 146.342 264.129 184.518C264.445 222.858 264.445 261.36 264.603 299.699C264.76 329.881 264.603 360.063 264.287 390.082C265.707 426.953 267.442 463.824 268.704 500.695ZM135.423 500.695C138.577 426.953 138.893 353.048 138.42 279.306C137.946 202.301 135.265 125.296 134.634 48.2912C134.634 46.6598 132.426 45.5178 132.426 47.4755L131.48 70.1528C130.218 108.329 130.533 146.342 130.849 184.518C131.164 222.858 131.164 261.36 131.322 299.699C131.48 329.881 131.322 360.063 131.006 390.082C132.426 426.953 134.161 463.824 135.423 500.695ZM91.1011 500.695C94.2556 426.953 94.5711 353.048 94.0979 279.306C93.6247 202.301 90.9433 125.296 90.3124 48.2912C90.3124 46.6598 88.1042 45.5178 88.1042 47.4755L87.1578 70.1528C85.896 108.329 86.2115 146.342 86.5269 184.518C86.8424 222.858 86.8424 261.36 87.0001 299.699C87.1578 329.881 87.0001 360.063 86.6846 390.082C88.1042 426.953 89.8392 463.824 91.1011 500.695ZM49.1452 500.695C52.2998 426.953 52.6152 353.048 52.1421 279.306C51.6689 202.301 48.9875 125.296 48.3566 48.2912C48.3566 46.6598 46.1484 45.5178 46.1484 47.4755L45.202 70.1528C43.9402 108.166 44.2556 146.179 44.5711 184.355C44.8865 222.694 44.8865 261.197 45.0443 299.536C45.202 329.718 45.0443 359.9 44.7288 389.919C46.1484 426.953 47.7257 463.824 49.1452 500.695ZM10.0285 497.269C12.2367 423.527 12.5522 349.622 12.3944 275.88C12.2367 198.875 10.6594 121.87 10.5017 44.8652C10.5017 43.2337 9.23986 42.0917 9.08213 44.0494C8.76667 51.391 8.60894 59.0589 8.45121 66.7267C7.50484 104.903 7.66257 142.916 7.8203 181.092C7.97803 219.431 7.97803 257.771 7.97803 296.273C7.97803 326.455 7.8203 356.637 7.66257 386.656C8.13576 423.69 9.23986 460.398 10.0285 497.269ZM-25.7759 497.269C-23.5677 423.527 -23.2523 349.622 -23.41 275.88C-23.5677 198.875 -25.145 121.87 -25.3027 44.8652C-25.3027 43.2337 -26.5646 42.0917 -26.7223 44.0494C-27.0377 51.391 -27.1955 59.0589 -27.3532 66.7267C-28.2996 104.903 -28.1418 142.916 -27.9841 181.092C-27.8264 219.431 -27.8264 257.934 -27.8264 296.273C-27.8264 326.455 -27.9841 356.637 -28.1418 386.656C-27.5109 423.69 -26.5646 460.398 -25.7759 497.269ZM220.754 504.611C223.593 432.663 223.909 360.39 223.593 288.442C223.278 213.069 220.912 137.695 220.596 62.4849C220.439 60.8535 218.704 59.7115 218.546 61.6692C218.23 68.8476 217.915 76.1892 217.757 83.6939C216.495 120.891 216.969 158.089 217.126 195.449C217.442 232.973 217.442 270.659 217.442 308.183C217.442 337.549 217.284 366.915 217.126 396.445C218.073 432.174 219.492 468.392 220.754 504.611ZM177.063 672.978C179.271 595.646 179.587 370.342 179.429 293.01C179.271 212.253 177.694 131.333 177.536 50.5753C177.536 48.9438 176.275 47.6387 176.117 49.7596C175.801 57.5906 175.644 65.5847 175.486 73.4157C174.54 113.387 174.697 153.357 174.855 193.491C175.013 233.951 174.855 274.085 174.855 314.546C174.855 346.196 174.697 377.683 174.54 409.333C175.328 447.836 176.275 634.312 177.063 672.978ZM400.249 501.837C402.458 426.627 402.773 351.417 402.615 276.206C402.458 197.57 400.723 118.933 400.565 40.6234C400.565 38.9919 399.145 37.8499 399.145 39.8076C398.83 47.6387 398.672 54.9802 398.514 62.8112C397.568 101.64 397.726 140.632 397.883 179.461C398.041 218.616 398.041 257.934 398.041 296.926C398.041 327.76 397.883 358.595 397.726 388.94C398.357 426.627 399.461 464.151 400.249 501.837Z" fill="#F18C8E"/>
<path d="M114.287 686.682L114.445 703.812H114.918L114.76 687.498L114.287 686.682ZM116.653 688.966L116.811 706.096H117.284L117.126 689.455L116.653 688.966ZM119.019 691.413L119.177 708.543H119.65L119.492 691.413H119.019ZM121.7 692.881L121.858 710.012H122.331L122.174 692.881H121.7ZM124.382 694.023L124.539 711.154H125.013L124.855 694.023H124.382ZM127.221 694.676L127.379 711.806H127.852L127.694 694.676H127.221ZM130.06 695.165L130.218 712.296H130.691L130.533 695.165H130.06ZM132.268 695.655L132.426 712.785H132.899L132.741 695.655H132.268ZM134.95 695.655L135.107 712.785H135.58L135.423 695.655H134.95ZM137.473 695.492L137.631 712.622H138.104L137.946 695.492H137.473ZM139.839 695.329L139.997 712.459H140.47L140.312 695.329H139.839ZM142.678 694.35L142.836 711.48H143.309L143.151 694.35H142.678ZM144.729 693.697L144.886 710.827H145.36L145.202 693.697H144.729ZM146.779 692.881L146.937 710.012H147.41L147.252 692.881H146.779ZM148.987 691.576L149.145 708.707H149.618L149.461 691.576H148.987ZM150.88 690.108L151.038 707.238L151.511 706.912L151.353 689.782L150.88 690.108ZM153.246 687.824L153.404 704.954H153.877L153.719 687.824H153.246ZM155.139 685.703L155.297 702.833H155.77L155.612 685.54L155.139 685.703ZM70.9117 686.682L71.0694 703.812H71.5426L71.3849 687.498L70.9117 686.682ZM73.2776 688.966L73.4354 706.096H73.9085L73.7508 689.455L73.2776 688.966ZM75.6436 691.413L75.8013 708.543H76.2745L76.1167 691.413H75.6436ZM78.325 692.881L78.4827 710.012H78.9559L78.7981 692.881H78.325ZM81.0063 694.023L81.1641 711.154H81.6373L81.4795 694.023H81.0063ZM83.8455 694.676L84.0032 711.806H84.4764L84.3186 694.676H83.8455ZM86.6846 695.165L86.8423 712.296H87.3155L87.1578 695.165H86.6846ZM88.8928 695.655L89.0505 712.785H89.5237L89.366 695.655H88.8928ZM91.5742 695.655L91.7319 712.785H92.2051L92.0473 695.655H91.5742ZM94.0978 695.492L94.2555 712.622H94.7287L94.571 695.492H94.0978ZM96.4638 695.329L96.6215 712.459H97.0947L96.9369 695.329H96.4638ZM99.3029 694.35L99.4606 711.48H99.9338L99.7761 694.35H99.3029ZM101.353 693.697L101.511 710.827H101.984L101.827 693.697H101.353ZM103.404 692.881L103.562 710.012H104.035L103.877 692.881H103.404ZM105.454 691.576L105.612 708.707H106.085L105.927 691.576H105.454ZM107.505 690.108L107.662 707.238L108.136 706.912L107.978 689.782L107.505 690.108ZM109.713 687.824L109.871 704.954H110.344L110.186 687.824H109.713ZM111.606 685.703L111.763 702.833H112.237L112.079 685.54L111.606 685.703ZM28.325 686.682L28.4827 703.812H28.9559L28.7981 687.498L28.325 686.682ZM30.6909 688.966L30.8486 706.096H31.3218L31.1641 689.455L30.6909 688.966ZM33.0568 691.413L33.2145 708.543H33.6877L33.53 691.413H33.0568ZM35.7382 692.881L35.8959 710.012H36.3691L36.2114 692.881H35.7382ZM38.4196 694.023L38.5773 711.154H39.0505L38.8928 694.023H38.4196ZM41.2587 694.676L41.4164 711.806H41.8896L41.7319 694.676H41.2587ZM44.0978 695.165L44.2556 712.296H44.7287L44.571 695.165H44.0978ZM46.306 695.655L46.4638 712.785H46.9369L46.7792 695.655H46.306ZM48.9874 695.655L49.1451 712.785H49.6183L49.4606 695.655H48.9874ZM51.5111 695.492L51.6688 712.622H52.142L51.9843 695.492H51.5111ZM53.877 695.329L54.0347 712.459H54.5079L54.3502 695.329H53.877ZM56.7161 694.35L56.8738 711.48H57.347L57.1893 694.35H56.7161ZM58.7666 693.697L58.9243 710.827H59.3975L59.2398 693.697H58.7666ZM60.8171 692.881L60.9748 710.012H61.448L61.2902 692.881H60.8171ZM63.0253 691.576L63.183 708.707H63.6562L63.4985 691.576H63.0253ZM64.918 690.108L65.0757 707.238L65.5489 706.912L65.3912 689.782L64.918 690.108ZM67.2839 687.824L67.4417 704.954H67.9149L67.7571 687.824H67.2839ZM69.1767 685.703L69.3344 702.833H69.8076L69.6499 685.54L69.1767 685.703ZM243.94 686.682L244.098 703.812H244.571L244.413 687.498L243.94 686.682ZM246.306 688.966L246.464 706.096H246.937L246.779 689.455L246.306 688.966ZM248.672 691.413L248.83 708.543H249.303L249.145 691.413H248.672ZM251.353 692.881L251.511 710.012H251.984L251.827 692.881H251.353ZM254.035 694.023L254.192 711.154H254.666L254.508 694.023H254.035ZM256.874 694.676L257.032 711.806H257.505L257.347 694.676H256.874ZM259.713 695.165L259.871 712.296H260.344L260.186 695.165H259.713ZM261.921 695.655L262.079 712.785H262.552L262.394 695.655H261.921ZM264.603 695.655L264.76 712.785H265.233L265.076 695.655H264.603ZM267.126 695.492L267.284 712.622H267.757L267.599 695.492H267.126ZM269.492 695.329L269.65 712.459H270.123L269.965 695.329H269.492ZM272.331 694.35L272.489 711.48H272.962L272.804 694.35H272.331ZM274.382 693.697L274.539 710.827H275.013L274.855 693.697H274.382ZM276.432 692.881L276.59 710.012H277.063L276.905 692.881H276.432ZM278.483 691.576L278.64 708.707H279.114L278.956 691.576H278.483ZM280.533 690.108L280.691 707.238L281.164 706.912L281.006 689.782L280.533 690.108ZM282.741 687.824L282.899 704.954H283.372L283.215 687.824H282.741ZM284.792 685.703L284.95 702.833H285.423L285.265 685.54L284.792 685.703ZM200.565 686.682L200.722 703.812H201.196L201.038 687.498L200.565 686.682ZM202.931 688.966L203.088 706.096H203.562L203.404 689.455L202.931 688.966ZM205.139 691.413L205.297 708.543H205.77L205.612 691.413H205.139ZM207.978 692.881L208.136 710.012H208.609L208.451 692.881H207.978ZM210.659 694.023L210.817 711.154H211.29L211.133 694.023H210.659ZM213.498 694.676L213.656 711.806H214.129L213.972 694.676H213.498ZM216.18 695.165L216.338 712.296H216.811L216.653 695.165H216.18ZM218.546 695.655L218.703 712.785H219.177L219.019 695.655H218.546ZM221.227 695.655L221.385 712.785H221.858L221.7 695.655H221.227ZM223.593 695.492L223.751 712.622H224.224L224.066 695.492H223.593ZM225.959 695.329L226.117 712.459H226.59L226.432 695.329H225.959ZM228.798 694.35L228.956 711.48H229.429L229.271 694.35H228.798ZM230.849 693.697L231.006 710.827H231.48L231.322 693.697H230.849ZM233.057 692.881L233.215 710.012H233.688L233.53 692.881H233.057ZM235.107 691.576L235.265 708.707H235.738L235.58 691.576H235.107ZM237.158 690.108L237.315 707.238L237.789 706.912L237.631 689.782L237.158 690.108ZM239.366 687.824L239.524 704.954H239.997L239.839 687.824H239.366ZM241.259 685.703L241.416 702.833H241.89L241.732 685.54L241.259 685.703ZM157.978 686.682L158.136 703.812H158.609L158.451 687.498L157.978 686.682ZM160.344 688.966L160.502 706.096H160.975L160.817 689.455L160.344 688.966ZM162.71 691.413L162.868 708.543H163.341L163.183 691.413H162.71ZM165.391 692.881L165.549 710.012H166.022L165.864 692.881H165.391ZM168.073 694.023L168.23 711.154H168.703L168.546 694.023H168.073ZM170.912 694.676L171.069 711.806H171.543L171.385 694.676H170.912ZM173.751 695.165L173.909 712.296H174.382L174.224 695.165H173.751ZM175.959 695.655L176.117 712.785H176.59L176.432 695.655H175.959ZM178.64 695.655L178.798 712.785H179.271L179.114 695.655H178.64ZM181.164 695.492L181.322 712.622H181.795L181.637 695.492H181.164ZM183.53 695.329L183.688 712.459H184.161L184.003 695.329H183.53ZM186.369 694.35L186.527 711.48H187L186.842 694.35H186.369ZM188.42 693.697L188.577 710.827H189.05L188.893 693.697H188.42ZM190.47 692.881L190.628 710.012H191.101L190.943 692.881H190.47ZM192.678 691.576L192.836 708.707H193.309L193.151 691.576H192.678ZM194.571 690.108L194.729 707.238L195.202 706.912L195.044 689.782L194.571 690.108ZM196.937 687.824L197.095 704.954H197.568L197.41 687.824H196.937ZM198.83 685.703L198.987 702.833H199.461L199.303 685.54L198.83 685.703ZM372.962 686.682L373.12 703.812H373.593L373.435 687.498L372.962 686.682ZM375.328 688.966L375.486 706.096H375.959L375.801 689.455L375.328 688.966ZM377.694 691.413L377.852 708.543H378.325L378.167 691.413H377.694ZM380.375 692.881L380.533 710.012H381.006L380.849 692.881H380.375ZM383.057 694.023L383.215 711.154H383.688L383.53 694.023H383.057ZM385.896 694.676L386.054 711.806H386.527L386.369 694.676H385.896ZM388.735 695.165L388.893 712.296H389.366L389.208 695.165H388.735ZM390.943 695.655L391.101 712.785H391.574L391.416 695.655H390.943ZM393.625 695.655L393.782 712.785H394.256L394.098 695.655H393.625ZM396.148 695.492L396.306 712.622H396.779L396.621 695.492H396.148ZM398.514 695.329L398.672 712.459H399.145L398.987 695.329H398.514ZM401.353 694.35L401.511 711.48H401.984L401.827 694.35H401.353ZM403.404 693.697L403.562 710.827H404.035L403.877 693.697H403.404ZM405.454 692.881L405.612 710.012H406.085L405.927 692.881H405.454ZM407.662 691.576L407.82 708.707H408.293L408.136 691.576H407.662ZM409.555 690.108L409.713 707.238L410.186 706.912L410.028 689.782L409.555 690.108ZM411.921 687.824L412.079 704.954H412.552L412.394 687.824H411.921ZM413.814 685.703L413.972 702.833H414.445L414.287 685.54L413.814 685.703ZM415.391 686.682L415.549 703.812H416.022L415.864 687.498L415.391 686.682ZM417.757 688.966L417.915 706.096H418.388L418.23 689.455L417.757 688.966ZM420.123 691.413L420.281 708.543H420.754L420.596 691.413H420.123ZM422.804 692.881L422.962 710.012H423.435L423.278 692.881H422.804ZM425.486 694.023L425.644 711.154H426.117L425.959 694.023H425.486ZM428.325 694.676L428.483 711.806H428.956L428.798 694.676H428.325ZM431.164 695.165L431.322 712.296H431.795L431.637 695.165H431.164ZM433.372 695.655L433.53 712.785H434.003L433.845 695.655H433.372Z" fill="#FBBD2C" stroke="#FBBD2C" stroke-width="5" stroke-miterlimit="10"/>
<path d="M329.587 686.682L329.745 703.812H330.218L330.06 687.498L329.587 686.682ZM331.953 688.966L332.11 706.096H332.584L332.426 689.455L331.953 688.966ZM334.319 691.413L334.476 708.543H334.95L334.792 691.413H334.319ZM337 692.881L337.158 710.012H337.631L337.473 692.881H337ZM339.681 694.023L339.839 711.154H340.312L340.155 694.023H339.681ZM342.521 694.676L342.678 711.806H343.151L342.994 694.676H342.521ZM345.36 695.165L345.517 712.296H345.991L345.833 695.165H345.36ZM347.568 695.655L347.726 712.785H348.199L348.041 695.655H347.568ZM350.249 695.655L350.407 712.785H350.88L350.722 695.655H350.249ZM352.773 695.492L352.931 712.622H353.404L353.246 695.492H352.773ZM355.139 695.329L355.297 712.459H355.77L355.612 695.329H355.139ZM357.978 694.35L358.136 711.48H358.609L358.451 694.35H357.978ZM360.028 693.697L360.186 710.827H360.659L360.502 693.697H360.028ZM362.079 692.881L362.237 710.012H362.71L362.552 692.881H362.079ZM364.129 691.576L364.287 708.707H364.76L364.603 691.576H364.129ZM366.18 690.108L366.338 707.238L366.811 706.912L366.653 689.782L366.18 690.108ZM368.388 687.824L368.546 704.954H369.019L368.861 687.824H368.388ZM370.439 685.703L370.596 702.833H371.069L370.912 685.54L370.439 685.703ZM287 686.682L287.158 703.812H287.631L287.473 687.498L287 686.682ZM289.366 688.966L289.524 706.096H289.997L289.839 689.455L289.366 688.966ZM291.732 691.413L291.89 708.543H292.363L292.205 691.413H291.732ZM294.571 692.881L294.729 710.012H295.202L295.044 692.881H294.571ZM297.095 694.023L297.252 711.154H297.726L297.568 694.023H297.095ZM300.091 694.676L300.249 711.806H300.722L300.565 694.676H300.091ZM302.773 695.165L302.931 712.296H303.404L303.246 695.165H302.773ZM304.981 695.655L305.139 712.785H305.612L305.454 695.655H304.981ZM307.82 695.655L307.978 712.785H308.451L308.293 695.655H307.82ZM310.186 695.492L310.344 712.622H310.817L310.659 695.492H310.186ZM312.552 695.329L312.71 712.459H313.183L313.025 695.329H312.552ZM315.391 694.35L315.549 711.48H316.022L315.864 694.35H315.391ZM317.442 693.697L317.599 710.827H318.073L317.915 693.697H317.442ZM319.492 692.881L319.65 710.012H320.123L319.965 692.881H319.492ZM321.7 691.576L321.858 708.707H322.331L322.174 691.576H321.7ZM323.593 690.108L323.751 707.238L324.224 706.912L324.066 689.782L323.593 690.108ZM325.959 687.824L326.117 704.954H326.59L326.432 687.824H325.959ZM327.852 685.703L328.009 702.833H328.483L328.325 685.54L327.852 685.703ZM-15.2082 686.682L-15.0504 703.812H-14.5773L-14.735 687.498L-15.2082 686.682ZM-12.8422 688.966L-12.6845 706.096H-12.2113L-12.3691 689.455L-12.8422 688.966ZM-10.4763 691.413L-10.3186 708.543H-9.8454L-10.0031 691.413H-10.4763ZM-7.79492 692.881L-7.6372 710.012H-7.16401L-7.32174 692.881H-7.79492ZM-5.11354 694.023L-4.95581 711.154H-4.48262L-4.64035 694.023H-5.11354ZM-2.11669 694.676L-1.95896 711.806H-1.48577L-1.64351 694.676H-2.11669ZM0.564697 695.165L0.722427 712.296H1.19561L1.03788 695.165H0.564697ZM2.7729 695.655L2.93063 712.785H3.40382L3.24609 695.655H2.7729ZM5.45429 695.655L5.61201 712.785H6.0852L5.92747 695.655H5.45429ZM7.97794 695.492L8.13567 712.622H8.60886L8.45113 695.492H7.97794ZM10.3439 695.329L10.5016 712.459H10.9748L10.8171 695.329H10.3439ZM13.183 694.35L13.3407 711.48H13.8139L13.6562 694.35H13.183ZM15.2335 693.697L15.3912 710.827H15.8644L15.7066 693.697H15.2335ZM17.2839 692.881L17.4417 710.012H17.9149L17.7571 692.881H17.2839ZM19.4921 691.576L19.6499 708.707H20.1231L19.9653 691.576H19.4921ZM21.3849 690.108L21.5426 707.238L22.0158 706.912L21.8581 689.782L21.3849 690.108ZM23.7508 687.824L23.9085 704.954H24.3817L24.224 687.824H23.7508ZM25.6436 685.703L25.8013 702.833H26.2745L26.1167 685.54L25.6436 685.703ZM-57.7949 686.682L-57.6372 703.812H-57.164L-57.3217 687.498L-57.7949 686.682ZM-55.429 688.966L-55.2713 706.096H-54.7981L-54.9558 689.455L-55.429 688.966ZM-53.0631 691.413L-52.9053 708.543H-52.4321L-52.5899 691.413H-53.0631ZM-50.3817 692.881L-50.2239 710.012H-49.7508L-49.9085 692.881H-50.3817ZM-47.7003 694.023L-47.5426 711.154H-47.0694L-47.2271 694.023H-47.7003ZM-44.8612 694.676L-44.7034 711.806H-44.2303L-44.388 694.676H-44.8612ZM-42.0221 695.165L-41.8643 712.296H-41.3911L-41.5489 695.165H-42.0221ZM-39.8139 695.655L-39.6561 712.785H-39.1829L-39.3407 695.655H-39.8139ZM-37.1325 695.655L-36.9747 712.785H-36.5015L-36.6593 695.655H-37.1325ZM-34.6088 695.492L-34.4511 712.622H-33.9779L-34.1356 695.492H-34.6088ZM-32.2429 695.329L-32.0851 712.459H-31.612L-31.7697 695.329H-32.2429ZM-29.4038 694.35L-29.246 711.48H-28.7728L-28.9306 694.35H-29.4038ZM-27.3533 693.697L-27.1956 710.827H-26.7224L-26.8801 693.697H-27.3533ZM-25.3028 692.881L-25.1451 710.012H-24.6719L-24.8296 692.881H-25.3028ZM-23.0946 691.576L-22.9369 708.707H-22.4637L-22.6214 691.576H-23.0946ZM-21.2019 690.108L-21.0441 707.238L-20.5709 706.912L-20.7287 689.782L-21.2019 690.108ZM-18.8359 687.824L-18.6782 704.954H-18.205L-18.3627 687.824H-18.8359ZM-16.9432 685.703L-16.7855 702.833H-16.3123L-16.47 685.54L-16.9432 685.703Z" fill="#FBBD2C" stroke="#FBBD2C" stroke-width="5" stroke-miterlimit="10"/>
<g clip-path="url(#clip2_2007_5729)">
<path d="M295.042 41.6803L293.319 41.8033L293.935 42.541L293.196 42.0492L293.073 43.7705L292.95 42.0492L292.212 42.6639L292.704 41.9262L291.104 41.8033L292.827 41.6803L292.212 40.9426L292.95 41.4344L293.073 39.7131L293.196 41.4344L293.935 40.8197L293.442 41.5574L295.042 41.6803ZM265.507 24.4672L264.03 24.5902L264.522 25.2049L263.907 24.7131L263.784 26.1885L263.661 24.7131L263.046 25.2049L263.538 24.5902L262.061 24.4672L263.538 24.3443L263.046 23.7295L263.661 24.2213L263.784 22.7459L263.907 24.2213L264.522 23.7295L264.03 24.3443L265.507 24.4672ZM227.234 40.5738L225.757 40.6967L226.25 41.3115L225.634 40.8197L225.511 42.2951L225.388 40.8197L224.773 41.3115L225.265 40.6967L223.788 40.5738L225.265 40.4508L224.773 39.8361L225.388 40.3279L225.511 38.8525L225.634 40.3279L226.25 39.8361L225.757 40.4508L227.234 40.5738ZM95.3098 32.459L93.833 32.582L94.3253 33.1967L93.71 32.7049L93.5869 34.1803L93.4638 32.7049L92.8485 33.1967L93.3408 32.582L91.864 32.459L93.3408 32.3361L92.8485 31.7213L93.4638 32.2131L93.5869 30.7377L93.71 32.2131L94.3253 31.7213L93.833 32.3361L95.3098 32.459Z" fill="#FAF085"/>
<path d="M250.739 4.42624H249.632V52.9918H250.739V4.42624Z" fill="#F8AF48"/>
<path d="M252.585 3.68854C252.585 3.68854 257.015 59.0164 325.808 59.0164C394.601 59.0164 411.46 3.68854 411.46 3.68854H252.585Z" fill="#FCBE2D"/>
<path d="M254.554 0.614746C254.554 0.614746 258.984 55.8197 327.777 55.8197C396.57 55.8197 413.429 0.614746 413.429 0.614746H254.554Z" fill="#AF1D1C"/>
<path d="M252.585 0.614746C252.585 0.614746 257.015 55.8197 325.808 55.8197C394.601 55.8197 411.46 0.614746 411.46 0.614746H252.585Z" fill="#D63A38"/>
<path d="M327.531 51.1475C379.587 51.1475 401.861 1.35245 401.861 1.35245C401.861 1.35245 364.942 44.6311 324.7 44.6311C284.336 44.6311 259.969 6.39343 259.969 6.39343C259.969 6.39343 279.536 51.1475 327.531 51.1475Z" fill="#EB5C5C"/>
<path d="M327.777 47.0902C375.649 47.0902 402.354 0.614746 402.354 0.614746C402.354 0.614746 365.065 42.0492 324.824 42.0492C284.582 42.0492 259.969 5.53278 259.969 5.53278C259.969 5.53278 279.905 47.0902 327.777 47.0902Z" fill="#AF1D1C"/>
<path d="M258.738 0.614746C258.738 0.614746 293.319 38.1147 329.008 37.377C366.419 36.6393 390.047 0.614746 390.047 0.614746C390.047 0.614746 354.728 31.4754 328.023 31.4754C301.318 31.4754 258.738 0.614746 258.738 0.614746Z" fill="#EB5C5C"/>
<path d="M258.738 0.614746C258.738 0.614746 292.704 34.0574 328.392 34.0574C364.081 34.0574 389.924 0.614746 389.924 0.614746C389.924 0.614746 353.867 28.7705 327.162 28.7705C300.457 28.7705 258.738 0.614746 258.738 0.614746Z" fill="#AF1D1C"/>
<path d="M281.751 0.614746C281.751 0.614746 306.118 19.7951 329.746 19.7951C353.374 19.7951 368.634 0.614746 368.634 0.614746C368.634 0.614746 347.59 14.6311 330.115 14.6311C312.763 14.5082 281.751 0.614746 281.751 0.614746Z" fill="#AF1D1C"/>
<path d="M281.751 0.614746C281.751 0.614746 306.733 21.8852 330.608 21.8852C354.359 21.8852 368.757 0.614746 368.757 0.614746C368.757 0.614746 347.59 18.1967 330.115 18.1967C312.763 18.1967 281.751 0.614746 281.751 0.614746Z" fill="#EB5C5C"/>
<path d="M115 5.16393C115 5.16393 119.43 60.3688 188.223 60.3688C257.015 60.3688 278.059 0.614746 278.059 0.614746L115 5.16393Z" fill="#FCBE2D"/>
<path d="M117.708 0.614746C117.708 0.614746 122.138 55.8197 190.93 55.8197C259.723 55.8197 276.583 0.614746 276.583 0.614746H117.708Z" fill="#AF1D1C"/>
<path d="M115 0.614746C115 0.614746 119.43 55.8197 188.223 55.8197C257.015 55.8197 273.875 0.614746 273.875 0.614746H115Z" fill="#D63A38"/>
<path d="M190.069 51.1475C242.125 51.1475 264.399 1.35245 264.399 1.35245C264.399 1.35245 227.48 44.6311 187.238 44.6311C146.873 44.6311 122.507 6.39343 122.507 6.39343C122.507 6.39343 142.197 51.1475 190.069 51.1475Z" fill="#EB5C5C"/>
<path d="M190.315 47.0902C238.187 47.0902 264.892 0.614746 264.892 0.614746C264.892 0.614746 227.603 42.0492 187.361 42.0492C147.12 42.0492 122.384 5.53278 122.384 5.53278C122.384 5.53278 142.32 47.0902 190.315 47.0902Z" fill="#AF1D1C"/>
<path d="M121.276 0.614746C121.276 0.614746 155.857 38.1147 191.546 37.377C228.957 36.6393 252.585 0.614746 252.585 0.614746C252.585 0.614746 217.266 31.4754 190.561 31.4754C163.856 31.4754 121.276 0.614746 121.276 0.614746Z" fill="#EB5C5C"/>
<path d="M121.276 0.614746C121.276 0.614746 155.242 34.0574 190.93 34.0574C226.619 34.0574 252.462 0.614746 252.462 0.614746C252.462 0.614746 216.405 28.7705 189.7 28.7705C162.995 28.7705 121.276 0.614746 121.276 0.614746Z" fill="#AF1D1C"/>
<path d="M144.289 0.614746C144.289 0.614746 168.656 19.7951 192.284 19.7951C215.912 19.7951 231.172 0.614746 231.172 0.614746C231.172 0.614746 210.128 14.6311 192.653 14.6311C175.424 14.5082 144.289 0.614746 144.289 0.614746Z" fill="#AF1D1C"/>
<path d="M144.289 0.614746C144.289 0.614746 169.271 21.8852 193.145 21.8852C216.897 21.8852 231.295 0.614746 231.295 0.614746C231.295 0.614746 210.005 18.1967 192.653 18.1967C175.301 18.1967 144.289 0.614746 144.289 0.614746Z" fill="#EB5C5C"/>
<path d="M-28.7383 1.35245C-28.7383 1.35245 -24.308 59.2623 44.4846 59.2623C116.6 59.2623 135.552 0.614746 135.552 0.614746L-28.7383 1.35245Z" fill="#FCBE2D"/>
<path d="M-25.2925 0.860657C-25.2925 0.860657 -20.8622 56.0656 47.9304 56.0656C116.723 56.0656 133.583 0.860657 133.583 0.860657H-25.2925Z" fill="#AF1D1C"/>
<path d="M-28.7383 0.614746C-28.7383 0.614746 -24.308 55.8197 44.4846 55.8197C113.277 55.8197 130.137 0.614746 130.137 0.614746H-28.7383Z" fill="#D63A38"/>
<path d="M46.3305 51.1475C98.3865 51.1475 120.661 1.35245 120.661 1.35245C120.661 1.35245 83.7419 44.6311 43.5001 44.6311C3.13516 44.6311 -21.2314 6.39343 -21.2314 6.39343C-21.2314 6.39343 -1.66432 51.1475 46.3305 51.1475Z" fill="#EB5C5C"/>
<path d="M46.4536 45.7377C94.3254 45.7377 121.03 -0.737701 121.03 -0.737701C121.03 -0.737701 83.7419 40.6967 43.5001 40.6967C3.25826 40.6967 -21.4775 4.18033 -21.4775 4.18033C-21.4775 4.18033 -1.54122 45.7377 46.4536 45.7377Z" fill="#AF1D1C"/>
<path d="M-22.4622 0.614746C-22.4622 0.614746 12.1187 38.1147 47.8072 37.377C85.2186 36.6393 108.847 0.614746 108.847 0.614746C108.847 0.614746 73.6506 31.4754 46.9458 31.4754C20.1179 31.4754 -22.4622 0.614746 -22.4622 0.614746Z" fill="#EB5C5C"/>
<path d="M-22.4622 0.614746C-22.4622 0.614746 11.5034 34.0574 47.1919 34.0574C82.8803 34.0574 108.724 0.614746 108.724 0.614746C108.724 0.614746 72.6661 28.7705 45.9612 28.7705C19.2564 28.7705 -22.4622 0.614746 -22.4622 0.614746Z" fill="#AF1D1C"/>
<path d="M0.550781 0.614746C0.550781 0.614746 24.9174 19.7951 48.5456 19.7951C72.2969 19.7951 87.4337 0.614746 87.4337 0.614746C87.4337 0.614746 66.3898 14.6311 48.9148 14.6311C31.5628 14.5082 0.550781 0.614746 0.550781 0.614746Z" fill="#AF1D1C"/>
<path d="M0.550781 0.614746C0.550781 0.614746 25.5327 21.8852 49.4071 21.8852C73.1584 21.8852 87.5568 0.614746 87.5568 0.614746C87.5568 0.614746 66.3899 18.1967 48.9148 18.1967C31.5628 18.1967 0.550781 0.614746 0.550781 0.614746Z" fill="#EB5C5C"/>
<path d="M127.306 33.4426L127.799 49.7951H129.152L128.537 33.4426H127.306ZM134.567 40.2049L135.059 56.5574H136.413L135.921 40.2049H134.567ZM141.828 47.0902L142.32 63.4426H143.674L143.182 47.0902H141.828ZM150.319 51.1476L150.812 67.5H152.165L151.673 51.1476H150.319ZM158.688 54.2213L159.18 70.5738H160.534L160.041 54.2213H158.688ZM167.548 56.1885L168.04 72.541H169.394L168.779 56.1885H167.548ZM176.163 57.7869L176.655 74.1394H178.009L177.516 57.7869H176.163ZM183.177 58.5246L183.67 74.8771H185.023L184.408 58.5246H183.177ZM191.546 58.5246L192.038 74.8771H193.392L192.899 58.5246H191.546ZM199.053 57.7869L199.545 74.1394H200.898L200.283 57.7869H199.053ZM207.052 56.8033L207.544 73.1557H208.898L208.405 56.8033H207.052ZM215.174 55.2049L215.666 71.5574H217.02L216.528 55.2049H215.174ZM221.819 53.1148L222.312 69.4672H223.665L223.173 53.1148H221.819ZM228.588 50.2869L229.08 66.6394H230.434L229.942 50.2869H228.588ZM235.233 47.0902L235.726 63.4426H237.079L236.464 47.0902H235.233ZM241.509 43.5246L242.002 59.8771H243.355L242.863 43.5246H241.509ZM254.554 33.5656L255.047 49.5492H256.4L255.908 33.1967L254.554 33.5656ZM259.231 28.7705L259.6 44.8771H260.954L260.461 28.5246L259.231 28.7705ZM263.538 24.3443L263.907 39.4672H265.261L264.769 23.1148L263.538 24.3443ZM268.953 16.3525L269.445 31.4754H270.799L270.306 15.123L268.953 16.3525ZM273.506 8.23772L273.998 23.3607H275.352L274.737 7.00821L273.506 8.23772ZM266.984 33.9344L267.476 50.2869H268.83L268.337 36.2705L266.984 33.9344ZM274.244 40.6967L274.737 57.0492H276.09L275.598 42.2951L274.244 40.6967ZM281.505 47.582L281.997 63.9344H283.351L282.859 47.582H281.505ZM289.997 51.6394L290.489 67.9918H291.843L291.35 51.6394H289.997ZM298.365 54.7131L298.857 71.0656H300.211L299.719 54.7131H298.365ZM307.225 56.5574L307.718 72.9098H309.071L308.579 56.5574H307.225ZM315.963 58.2787L316.455 74.6312H317.809L317.317 58.2787H315.963ZM322.855 58.2787L323.347 74.6312H324.701L324.208 58.2787H322.855ZM331.346 58.2787L331.838 74.6312H333.192L332.577 58.2787H331.346ZM338.976 57.6639L339.468 74.0164H340.822L340.33 57.6639H338.976ZM346.36 56.5574L346.852 72.9098H348.206L347.59 56.5574H346.36ZM354.851 54.7131L355.343 71.0656H356.697L356.082 54.7131H354.851ZM361.497 52.623L361.989 68.9754H363.343L362.85 52.623H361.497ZM368.019 49.5492L368.511 65.9016H369.865L369.373 49.5492H368.019ZM374.541 45.3689L375.034 61.7213H376.387L375.895 45.3689H374.541ZM380.818 41.6803L381.31 58.0328H382.664L382.048 41.6803H380.818ZM387.832 36.2705L388.324 52.623H389.801L389.186 36.2705H387.832ZM393.862 30.9836L394.355 46.9672H395.708L395.216 30.2459L393.862 30.9836Z" fill="#FCBE2D"/>
<path d="M397.062 33.9344L397.554 50.2869H398.908L398.293 36.2705L397.062 33.9344ZM404.323 40.6967L404.815 57.0492H406.169L405.676 42.2951L404.323 40.6967ZM411.583 47.582L412.076 63.9344H413.429L412.937 47.582H411.583ZM420.075 51.6394L420.567 67.9918H421.921L421.429 51.6394H420.075ZM428.443 54.7131L428.935 71.0656H430.289L429.797 54.7131H428.443ZM437.427 56.5574L437.919 72.9099H439.273L438.657 56.5574H437.427ZM446.041 58.2787L446.534 74.6312H447.887L447.272 58.2787H446.041ZM452.933 58.2787L453.425 74.6312H454.779L454.163 58.2787H452.933ZM461.424 58.2787L461.916 74.6312H463.27L462.778 58.2787H461.424ZM469.054 57.664L469.546 74.0164H470.9L470.285 57.664H469.054ZM476.438 56.5574L476.93 72.9099H478.284L477.792 56.5574H476.438ZM484.929 54.7131L485.422 71.0656H486.775L486.283 54.7131H484.929ZM491.575 52.623L492.067 68.9754H493.421L492.929 52.623H491.575ZM498.097 49.5492L498.589 65.9017H499.943L499.451 49.5492H498.097ZM504.62 45.3689L505.112 61.7213H506.466L505.85 45.3689H504.62ZM510.896 41.6803L511.388 58.0328H512.742L512.25 41.6803H510.896ZM517.91 36.2705L518.403 52.623H519.756L519.141 36.2705H517.91ZM523.941 30.9836L524.433 46.9672H525.786L525.417 30.2459L523.941 30.9836ZM-170.508 3.68854C-170.508 3.68854 -166.078 59.0164 -97.2849 59.0164C-28.4923 59.0164 -11.6326 3.68854 -11.6326 3.68854H-170.508Z" fill="#FCBE2D"/>
<path d="M-155.986 33.9344L-155.494 50.2869H-154.14L-154.633 36.2705L-155.986 33.9344ZM-148.726 40.6967L-148.233 56.9262H-146.88L-147.372 42.1721L-148.726 40.6967ZM-141.465 47.582L-140.973 63.9344H-139.619L-140.234 47.582H-141.465ZM-132.973 51.6394L-132.481 67.9918H-131.127L-131.743 51.6394H-132.973ZM-124.605 54.7131L-124.113 71.0656H-122.759L-123.374 54.7131H-124.605ZM-115.745 56.5574L-115.252 72.9098H-113.899L-114.514 56.5574H-115.745ZM-107.13 58.2787L-106.638 74.6312H-105.284L-105.776 58.2787H-107.13ZM-100.115 58.2787L-99.6232 74.6312H-98.2695L-98.7617 58.2787H-100.115ZM-91.7471 58.2787L-91.2548 74.6312H-89.9011L-90.3934 58.2787H-91.7471ZM-83.9941 57.6639L-83.5018 74.0164H-82.1481L-82.6404 57.6639H-83.9941ZM-76.7333 56.5574L-76.2411 72.9098H-74.8874L-75.3796 56.5574H-76.7333ZM-68.1189 54.7131L-67.6266 71.0656H-66.1498L-66.7652 54.7131H-68.1189ZM-61.4734 52.623L-60.9812 68.9754H-59.6275L-60.2428 52.623H-61.4734ZM-54.951 49.5492L-54.4588 65.9016H-53.1051L-53.7204 49.5492H-54.951ZM-48.4287 45.3689L-47.9364 61.7213H-46.5827L-47.075 45.3689H-48.4287ZM-42.2755 41.6803L-41.7832 58.0328H-40.4295L-41.0448 41.6803H-42.2755ZM-35.1378 36.2705L-34.6455 52.623H-33.2918L-33.7841 36.2705H-35.1378ZM-29.2307 30.9836L-28.7385 46.9672H-27.3848L-27.877 30.2459L-29.2307 30.9836ZM-14.4631 33.6885L-13.9708 49.0574H-12.6171L-12.8633 35.1639L-14.4631 33.6885ZM-7.20233 40.8197L-6.71007 55.6967H-5.35637L-5.84862 42.1721L-7.20233 40.8197ZM0.0584259 46.2295L0.55069 62.582H1.90439L1.41214 46.2295H0.0584259ZM8.54982 50.2869L9.04208 66.6394H10.3958L9.78046 50.2869H8.54982ZM16.9182 53.3607L17.4104 69.7131H18.7641L18.1488 53.3607H16.9182ZM25.7787 55.3279L26.271 71.6803H27.6247L27.1324 55.3279H25.7787ZM34.5163 56.9262L35.0085 73.2787H36.3622L35.87 56.9262H34.5163ZM41.4078 57.7869L41.9001 74.1394H43.2538L42.7615 57.7869H41.4078ZM49.7762 57.7869L50.2684 74.1394H51.6221L51.1299 57.7869H49.7762ZM57.2831 56.9262L57.7753 73.2787H59.2521L58.5137 56.9262H57.2831ZM65.2822 56.0656L65.7744 72.418H67.1281L66.5128 56.0656H65.2822ZM73.4044 54.4672L73.8967 70.8197H75.2504L74.635 54.4672H73.4044ZM80.0498 52.3771L80.5421 68.7295H81.8958L81.2805 52.3771H80.0498ZM86.9414 49.5492L87.4337 65.9016H88.7874L88.172 49.5492H86.9414ZM93.4638 46.2295L93.956 62.582H95.3097L94.8175 46.2295H93.4638ZM99.8631 42.6639L100.355 59.0164H101.709L101.217 42.6639H99.8631ZM106.385 38.1148L106.878 54.4672H108.231L107.739 38.1148H106.385ZM112.785 32.7049L113.277 48.6885H114.631L114.015 32.3361L112.785 32.7049ZM117.584 28.0328L117.953 44.1394H119.307L118.692 27.7869L117.584 28.0328ZM121.768 23.4836L122.261 38.6066H123.614L122.999 22.2541L121.768 23.4836ZM127.306 15.6148L127.799 30.7377H129.152L128.537 14.3853L127.306 15.6148ZM131.737 7.37706L132.106 22.5H133.459L133.09 6.14755L131.737 7.37706Z" fill="#FCBE2D"/>
</g>
</g>
</g>
<defs>
<linearGradient id="paint0_linear_2007_5729" x1="85.6428" y1="60.5458" x2="448.072" y2="139.769" gradientUnits="userSpaceOnUse">
<stop stop-color="#70B3FF"/>
<stop offset="1" stop-color="#70DBFC"/>
</linearGradient>
<linearGradient id="paint1_linear_2007_5729" x1="386.464" y1="459.909" x2="329.413" y2="460.244" gradientUnits="userSpaceOnUse">
<stop offset="0.21" stop-color="white"/>
<stop offset="0.61" stop-color="#96191C"/>
<stop offset="1" stop-color="#25193F"/>
</linearGradient>
<linearGradient id="paint2_linear_2007_5729" x1="329.051" y1="440.201" x2="286.921" y2="440.46" gradientUnits="userSpaceOnUse">
<stop offset="0.21" stop-color="white"/>
<stop offset="0.61" stop-color="#96191C"/>
<stop offset="1" stop-color="#25193F"/>
</linearGradient>
<linearGradient id="paint3_linear_2007_5729" x1="292.158" y1="454.623" x2="241.7" y2="454.928" gradientUnits="userSpaceOnUse">
<stop offset="0.21" stop-color="white"/>
<stop offset="0.61" stop-color="#96191C"/>
<stop offset="1" stop-color="#25193F"/>
</linearGradient>
<linearGradient id="paint4_linear_2007_5729" x1="158.845" y1="454.623" x2="108.404" y2="454.928" gradientUnits="userSpaceOnUse">
<stop offset="0.21" stop-color="white"/>
<stop offset="0.61" stop-color="#96191C"/>
<stop offset="1" stop-color="#25193F"/>
</linearGradient>
<linearGradient id="paint5_linear_2007_5729" x1="114.476" y1="454.623" x2="64.0345" y2="454.928" gradientUnits="userSpaceOnUse">
<stop offset="0.21" stop-color="white"/>
<stop offset="0.61" stop-color="#96191C"/>
<stop offset="1" stop-color="#25193F"/>
</linearGradient>
<linearGradient id="paint6_linear_2007_5729" x1="72.5205" y1="454.623" x2="22.0787" y2="454.928" gradientUnits="userSpaceOnUse">
<stop offset="0.21" stop-color="white"/>
<stop offset="0.61" stop-color="#96191C"/>
<stop offset="1" stop-color="#25193F"/>
</linearGradient>
<linearGradient id="paint7_linear_2007_5729" x1="25.3753" y1="458.082" x2="-6.95918" y2="458.28" gradientUnits="userSpaceOnUse">
<stop offset="0.21" stop-color="white"/>
<stop offset="0.61" stop-color="#96191C"/>
<stop offset="1" stop-color="#25193F"/>
</linearGradient>
<linearGradient id="paint8_linear_2007_5729" x1="241.196" y1="445.552" x2="197.158" y2="445.811" gradientUnits="userSpaceOnUse">
<stop offset="0.21" stop-color="white"/>
<stop offset="0.61" stop-color="#96191C"/>
<stop offset="1" stop-color="#25193F"/>
</linearGradient>
<linearGradient id="paint9_linear_2007_5729" x1="193.152" y1="370.896" x2="159.019" y2="371.095" gradientUnits="userSpaceOnUse">
<stop offset="0.21" stop-color="white"/>
<stop offset="0.61" stop-color="#96191C"/>
<stop offset="1" stop-color="#25193F"/>
</linearGradient>
<clipPath id="clip0_2007_5729">
<rect width="375" height="750" fill="white"/>
</clipPath>
<clipPath id="clip1_2007_5729">
<rect width="500" height="726" fill="white" transform="translate(-63)"/>
</clipPath>
<clipPath id="clip2_2007_5729">
<rect width="715" height="75" fill="white" transform="translate(-171)"/>
</clipPath>
</defs>
</svg>
