<svg width="1440" height="684" viewBox="0 0 1440 684" fill="none" xmlns="http://www.w3.org/2000/svg">
<g clip-path="url(#clip0_2007_3767)">
<rect width="1440" height="684" fill="white"/>
<g clip-path="url(#clip1_2007_3767)">
<path d="M1438.92 547.68L1282.68 511.08H156.24L0.360107 547.56H702.36V547.68H1438.92Z" fill="#BCE3CC"/>
<path d="M1422 683.76H16.6801C7.56012 683.76 0.120117 676.32 0.120117 667.2V547.68H1438.68V667.08C1438.68 676.32 1431.24 683.76 1422 683.76Z" fill="#687C73"/>
<path d="M46.56 547.68H45V683.76H46.56V547.68ZM95.76 547.68H94.2V683.76H95.76V547.68ZM144.96 547.68H143.4V683.76H144.96V547.68ZM194.16 547.68H192.6V683.76H194.16V547.68ZM243.36 547.68H241.8V683.76H243.36V547.68ZM292.56 547.68H291V683.76H292.56V547.68ZM341.88 547.68H340.32V683.76H341.88V547.68ZM391.08 547.68H389.52V683.76H391.08V547.68ZM440.28 547.68H438.72V683.76H440.28V547.68ZM489.48 547.68H487.92V683.76H489.48V547.68ZM538.68 547.68H537.12V683.76H538.68V547.68ZM903.96 547.68H902.4V683.76H903.96V547.68ZM953.16 547.68H951.6V683.76H953.16V547.68ZM1002.36 547.68H1000.8V683.76H1002.36V547.68ZM1051.56 547.68H1050V683.76H1051.56V547.68ZM1100.76 547.68H1099.2V683.76H1100.76V547.68ZM1150.08 547.68H1148.52V683.76H1150.08V547.68ZM1199.28 547.68H1197.72V683.76H1199.28V547.68ZM1248.48 547.68H1246.92V683.76H1248.48V547.68ZM1297.68 547.68H1296.12V683.76H1297.68V547.68ZM1346.88 547.68H1345.32V683.76H1346.88V547.68ZM1396.08 547.68H1394.52V683.76H1396.08V547.68Z" fill="#495B52"/>
<path d="M564.72 547.68H0.120117V558.48H564.72V547.68Z" fill="#495B52"/>
<path d="M564.72 558.12H0.120117V561.48H564.72V558.12ZM1438.68 558.12H873.96V561.48H1438.68V558.12Z" fill="#354740"/>
<path d="M1438.68 547.68H873.96V558.48H1438.68V547.68Z" fill="#495B52"/>
<path d="M873.96 547.68H564.84V583.56H873.96V547.68Z" fill="#60736C"/>
<path d="M971.52 637.8L917.04 627.36H523.8L469.44 637.8H971.52Z" fill="#B0E9CF"/>
<path d="M971.52 637.8H469.44V683.64H971.52V637.8Z" fill="#60736C"/>
<path d="M916.8 591.48L874.08 583.32H566.52L523.92 591.48H916.8Z" fill="#B0E9CF"/>
<path d="M916.68 591.48H523.92V627.36H916.68V591.48Z" fill="#60736C"/>
<path d="M811.08 627.12V591.6L791.4 583.32V547.68H638.76V583.32L619.08 591.6V627.12L597.96 637.8V683.76H832.2V637.8L811.08 627.12Z" fill="#FFBF27"/>
<path d="M821.88 627.12V591.6L802.2 583.32V547.68H649.56V583.32L629.76 591.6V627.12L608.76 637.8V683.76H842.88V637.8L821.88 627.12Z" fill="#FFBF27"/>
<path d="M795.72 547.68H643.08V583.2H795.72V547.68ZM815.4 591.6H623.4V627.12H815.4V591.6ZM836.52 637.8H602.4V683.76H836.52V637.8Z" fill="#D53A38"/>
<path d="M602.4 637.8L623.4 627.12H815.4L836.52 637.8H602.4ZM623.4 591.6L643.08 583.32H795.72L815.4 591.6H623.4Z" fill="#FE5B57"/>
<path d="M22.9201 585.36C22.9201 586.44 21.9601 587.4 20.8801 587.4C19.8001 587.4 18.8401 586.44 18.8401 585.36C18.8401 584.28 19.8001 583.32 20.8801 583.32C21.9601 583.32 22.9201 584.16 22.9201 585.36ZM71.7601 585.36C71.7601 586.44 70.8001 587.4 69.7201 587.4C68.6401 587.4 67.6801 586.44 67.6801 585.36C67.6801 584.28 68.6401 583.32 69.7201 583.32C70.8001 583.32 71.7601 584.16 71.7601 585.36ZM117.48 585.36C117.48 586.44 116.52 587.4 115.44 587.4C114.36 587.4 113.4 586.44 113.4 585.36C113.4 584.28 114.36 583.32 115.44 583.32C116.52 583.32 117.48 584.16 117.48 585.36ZM167.76 585.36C167.76 586.44 166.8 587.4 165.72 587.4C164.64 587.4 163.68 586.44 163.68 585.36C163.68 584.28 164.64 583.32 165.72 583.32C166.8 583.32 167.76 584.16 167.76 585.36ZM221.04 585.36C221.04 586.44 220.08 587.4 219 587.4C217.92 587.4 216.96 586.44 216.96 585.36C216.96 584.28 217.92 583.32 219 583.32C220.08 583.32 221.04 584.16 221.04 585.36ZM270.12 585.36C270.12 586.44 269.16 587.4 268.08 587.4C267 587.4 266.04 586.44 266.04 585.36C266.04 584.28 267 583.32 268.08 583.32C269.28 583.32 270.12 584.16 270.12 585.36ZM317.76 585.36C317.76 586.44 316.8 587.4 315.72 587.4C314.64 587.4 313.68 586.44 313.68 585.36C313.68 584.28 314.64 583.32 315.72 583.32C316.92 583.32 317.76 584.16 317.76 585.36ZM368.28 585.36C368.28 586.44 367.32 587.4 366.24 587.4C365.16 587.4 364.2 586.44 364.2 585.36C364.2 584.28 365.16 583.32 366.24 583.32C367.32 583.32 368.28 584.16 368.28 585.36ZM417.84 585.36C417.84 586.44 416.88 587.4 415.8 587.4C414.72 587.4 413.76 586.44 413.76 585.36C413.76 584.28 414.72 583.32 415.8 583.32C416.88 583.32 417.84 584.16 417.84 585.36ZM467.76 585.36C467.76 586.44 466.8 587.4 465.72 587.4C464.64 587.4 463.68 586.44 463.68 585.36C463.68 584.28 464.64 583.32 465.72 583.32C466.92 583.32 467.76 584.16 467.76 585.36ZM514.08 585.36C514.08 586.44 513.12 587.4 512.04 587.4C510.96 587.4 510 586.44 510 585.36C510 584.28 510.96 583.32 512.04 583.32C513.12 583.32 514.08 584.16 514.08 585.36ZM22.9201 657.48C22.9201 658.56 21.9601 659.52 20.8801 659.52C19.8001 659.52 18.8401 658.56 18.8401 657.48C18.8401 656.4 19.8001 655.44 20.8801 655.44C21.9601 655.44 22.9201 656.28 22.9201 657.48ZM71.7601 657.48C71.7601 658.56 70.8001 659.52 69.7201 659.52C68.6401 659.52 67.6801 658.56 67.6801 657.48C67.6801 656.4 68.6401 655.44 69.7201 655.44C70.8001 655.44 71.7601 656.28 71.7601 657.48ZM117.48 657.48C117.48 658.56 116.52 659.52 115.44 659.52C114.36 659.52 113.4 658.56 113.4 657.48C113.4 656.4 114.36 655.44 115.44 655.44C116.52 655.44 117.48 656.28 117.48 657.48ZM167.76 657.48C167.76 658.56 166.8 659.52 165.72 659.52C164.64 659.52 163.68 658.56 163.68 657.48C163.68 656.4 164.64 655.44 165.72 655.44C166.8 655.44 167.76 656.28 167.76 657.48ZM221.04 657.48C221.04 658.56 220.08 659.52 219 659.52C217.92 659.52 216.96 658.56 216.96 657.48C216.96 656.4 217.92 655.44 219 655.44C220.08 655.44 221.04 656.28 221.04 657.48ZM270.12 657.48C270.12 658.56 269.16 659.52 268.08 659.52C267 659.52 266.04 658.56 266.04 657.48C266.04 656.4 267 655.44 268.08 655.44C269.28 655.44 270.12 656.28 270.12 657.48ZM317.76 657.48C317.76 658.56 316.8 659.52 315.72 659.52C314.64 659.52 313.68 658.56 313.68 657.48C313.68 656.4 314.64 655.44 315.72 655.44C316.92 655.44 317.76 656.28 317.76 657.48ZM368.28 657.48C368.28 658.56 367.32 659.52 366.24 659.52C365.16 659.52 364.2 658.56 364.2 657.48C364.2 656.4 365.16 655.44 366.24 655.44C367.32 655.44 368.28 656.28 368.28 657.48ZM417.84 657.48C417.84 658.56 416.88 659.52 415.8 659.52C414.72 659.52 413.76 658.56 413.76 657.48C413.76 656.4 414.72 655.44 415.8 655.44C416.88 655.44 417.84 656.28 417.84 657.48ZM467.76 657.48C467.76 658.56 466.8 659.52 465.72 659.52C464.64 659.52 463.68 658.56 463.68 657.48C463.68 656.4 464.64 655.44 465.72 655.44C466.92 655.44 467.76 656.28 467.76 657.48ZM932.52 585.36C932.52 586.44 931.56 587.4 930.48 587.4C929.4 587.4 928.44 586.44 928.44 585.36C928.44 584.28 929.4 583.32 930.48 583.32C931.68 583.32 932.52 584.16 932.52 585.36ZM981.36 585.36C981.36 586.44 980.4 587.4 979.32 587.4C978.24 587.4 977.28 586.44 977.28 585.36C977.28 584.28 978.24 583.32 979.32 583.32C980.4 583.32 981.36 584.16 981.36 585.36ZM1027.08 585.36C1027.08 586.44 1026.12 587.4 1025.04 587.4C1023.96 587.4 1023 586.44 1023 585.36C1023 584.28 1023.96 583.32 1025.04 583.32C1026.12 583.32 1027.08 584.16 1027.08 585.36ZM1077.36 585.36C1077.36 586.44 1076.4 587.4 1075.32 587.4C1074.24 587.4 1073.28 586.44 1073.28 585.36C1073.28 584.28 1074.24 583.32 1075.32 583.32C1076.4 583.32 1077.36 584.16 1077.36 585.36ZM1130.64 585.36C1130.64 586.44 1129.68 587.4 1128.6 587.4C1127.52 587.4 1126.56 586.44 1126.56 585.36C1126.56 584.28 1127.52 583.32 1128.6 583.32C1129.8 583.32 1130.64 584.16 1130.64 585.36ZM1179.72 585.36C1179.72 586.44 1178.76 587.4 1177.68 587.4C1176.6 587.4 1175.64 586.44 1175.64 585.36C1175.64 584.28 1176.6 583.32 1177.68 583.32C1178.88 583.32 1179.72 584.16 1179.72 585.36ZM1227.36 585.36C1227.36 586.44 1226.4 587.4 1225.32 587.4C1224.12 587.4 1223.28 586.44 1223.28 585.36C1223.28 584.28 1224.24 583.32 1225.32 583.32C1226.52 583.32 1227.36 584.16 1227.36 585.36ZM1277.88 585.36C1277.88 586.44 1276.92 587.4 1275.84 587.4C1274.76 587.4 1273.8 586.44 1273.8 585.36C1273.8 584.28 1274.76 583.32 1275.84 583.32C1276.92 583.32 1277.88 584.16 1277.88 585.36ZM1327.44 585.36C1327.44 586.44 1326.48 587.4 1325.4 587.4C1324.32 587.4 1323.36 586.44 1323.36 585.36C1323.36 584.28 1324.32 583.32 1325.4 583.32C1326.48 583.32 1327.44 584.16 1327.44 585.36ZM1377.36 585.36C1377.36 586.44 1376.4 587.4 1375.32 587.4C1374.24 587.4 1373.28 586.44 1373.28 585.36C1373.28 584.28 1374.24 583.32 1375.32 583.32C1376.4 583.32 1377.36 584.16 1377.36 585.36ZM1423.68 585.36C1423.68 586.44 1422.72 587.4 1421.64 587.4C1420.56 587.4 1419.6 586.44 1419.6 585.36C1419.6 584.28 1420.56 583.32 1421.64 583.32C1422.72 583.32 1423.68 584.16 1423.68 585.36ZM981.36 657.48C981.36 658.56 980.4 659.52 979.32 659.52C978.24 659.52 977.28 658.56 977.28 657.48C977.28 656.4 978.24 655.44 979.32 655.44C980.4 655.44 981.36 656.28 981.36 657.48ZM1027.08 657.48C1027.08 658.56 1026.12 659.52 1025.04 659.52C1023.96 659.52 1023 658.56 1023 657.48C1023 656.4 1023.96 655.44 1025.04 655.44C1026.12 655.44 1027.08 656.28 1027.08 657.48ZM1077.36 657.48C1077.36 658.56 1076.4 659.52 1075.32 659.52C1074.24 659.52 1073.28 658.56 1073.28 657.48C1073.28 656.4 1074.24 655.44 1075.32 655.44C1076.4 655.44 1077.36 656.28 1077.36 657.48ZM1130.64 657.48C1130.64 658.56 1129.68 659.52 1128.6 659.52C1127.52 659.52 1126.56 658.56 1126.56 657.48C1126.56 656.4 1127.52 655.44 1128.6 655.44C1129.8 655.44 1130.64 656.28 1130.64 657.48ZM1179.72 657.48C1179.72 658.56 1178.76 659.52 1177.68 659.52C1176.6 659.52 1175.64 658.56 1175.64 657.48C1175.64 656.4 1176.6 655.44 1177.68 655.44C1178.88 655.44 1179.72 656.28 1179.72 657.48ZM1227.36 657.48C1227.36 658.56 1226.4 659.52 1225.32 659.52C1224.12 659.52 1223.28 658.56 1223.28 657.48C1223.28 656.4 1224.24 655.44 1225.32 655.44C1226.52 655.44 1227.36 656.28 1227.36 657.48ZM1277.88 657.48C1277.88 658.56 1276.92 659.52 1275.84 659.52C1274.76 659.52 1273.8 658.56 1273.8 657.48C1273.8 656.4 1274.76 655.44 1275.84 655.44C1276.92 655.44 1277.88 656.28 1277.88 657.48ZM1327.44 657.48C1327.44 658.56 1326.48 659.52 1325.4 659.52C1324.32 659.52 1323.36 658.56 1323.36 657.48C1323.36 656.4 1324.32 655.44 1325.4 655.44C1326.48 655.44 1327.44 656.28 1327.44 657.48ZM1377.36 657.48C1377.36 658.56 1376.4 659.52 1375.32 659.52C1374.24 659.52 1373.28 658.56 1373.28 657.48C1373.28 656.4 1374.24 655.44 1375.32 655.44C1376.4 655.44 1377.36 656.28 1377.36 657.48ZM1423.68 657.48C1423.68 658.56 1422.72 659.52 1421.64 659.52C1420.56 659.52 1419.6 658.56 1419.6 657.48C1419.6 656.4 1420.56 655.44 1421.64 655.44C1422.72 655.44 1423.68 656.28 1423.68 657.48Z" fill="#495B52"/>
<path d="M749.16 509.64H717.24V521.04H717.84C735.12 521.04 749.28 515.52 749.28 510.48L749.16 509.64Z" fill="#AF1C1A"/>
<path opacity="0.5" d="M722.04 20.76C722.04 20.76 720.84 402.24 722.04 508.44L727.32 16.8L722.04 20.76Z" fill="#0A0177"/>
<path d="M722.04 20.76C722.04 20.76 720.84 402.24 722.04 508.44L727.32 16.8L722.04 20.76Z" fill="#AC1B19"/>
<path d="M1439.28 3H719.52V508.8H1439.28V3Z" fill="#D53A38"/>
<path d="M1413.12 3C1413 30.24 1412.88 57.6 1412.28 84.84C1411.68 117.12 1409.88 149.28 1409.16 181.56C1408.08 222.72 1413 264.24 1405.92 305.04C1404.27 315.015 1401.7 324.817 1398.24 334.32C1395.97 341.21 1392.6 347.692 1388.28 353.52C1384.44 358.32 1380.36 363.12 1375.8 367.32C1373.76 369.12 1371.84 371.04 1368.96 371.76H1368.84C1367.88 377.04 1366.8 382.32 1365.48 387.48C1363.68 394.2 1361.88 402.36 1356.48 407.64C1350.48 413.52 1343.52 410.64 1339.8 404.4C1334.82 395.05 1331.38 384.962 1329.6 374.52C1328.06 368.061 1326.82 361.534 1325.88 354.96C1322.76 374.4 1320.72 395.4 1308.96 412.32C1304.64 418.56 1296.72 424.08 1288.32 421.44C1280.4 418.92 1275.24 411.96 1272.24 405.12C1268.28 395.76 1265.4 385.92 1263.36 375.84C1260.5 387.379 1256.18 398.508 1250.52 408.96C1246.92 415.44 1241.88 422.16 1234.68 425.4C1225.32 429.48 1214.76 425.4 1209.24 417.6C1204.96 411.18 1202.17 403.881 1201.08 396.24C1199.88 389.76 1198.8 383.16 1197.96 376.56L1194.96 387.24C1193.44 393.473 1191.31 399.542 1188.6 405.36C1186.2 409.92 1182.72 415.08 1176.96 416.28C1170.72 417.48 1165.8 413.28 1162.44 408.84C1156.89 400.827 1152.53 392.057 1149.48 382.8C1144.73 368.877 1141.55 354.468 1140 339.84C1138.56 345.72 1137 351.6 1135.32 357.36C1132.25 369.277 1126.82 380.457 1119.36 390.24C1115.88 394.44 1110.84 398.64 1104.96 399.72C1098.6 400.8 1092.96 398.4 1088.4 394.44C1081.8 388.68 1079.52 380.64 1078.08 372.6C1077.12 367.32 1076.4 361.92 1075.8 356.64C1072.88 372.755 1065.29 387.654 1053.96 399.48C1048.08 405 1039.32 408.96 1031.52 404.64C1023.48 400.2 1018.56 390.96 1014.84 383.4L1013.28 380.16C1011.45 385.66 1009.16 390.998 1006.44 396.12C1002.71 404.082 996.352 410.52 988.44 414.36C983.473 416.324 978.05 416.836 972.802 415.837C967.555 414.839 962.699 412.371 958.8 408.72C952.64 402.362 948.254 394.501 946.08 385.92C945.231 387.482 944.31 389.003 943.32 390.48C939.36 396.6 933.72 403.8 926.04 406.44C906 413.04 896.76 388.92 894.24 374.76C892.56 365.28 892.44 355.8 891.84 346.2C891.6 341.4 891.12 336.6 890.76 331.92C888.96 339.48 887.04 347.04 885 354.48C882.002 365.594 878.274 376.497 873.84 387.12C870.884 395.216 866.403 402.671 860.64 409.08C855.96 413.76 849.12 417.6 841.92 415.2C829.2 410.88 827.64 393.6 826.68 383.04C826.08 376.68 825.96 370.44 825.72 364.08C825.36 354.48 823.92 344.76 822.84 335.16L821.64 325.2C819.443 338.603 817.003 351.965 814.32 365.28C812.543 375.735 808.97 385.803 803.76 395.04C800.16 400.92 795.12 408.96 787.44 410.4C774 413.04 770.52 393.96 768.84 385.56C764.64 363.72 762.36 341.52 759.72 319.56L757.44 301.08L754.92 324C752.803 340.962 749.718 357.79 745.68 374.4C742.8 386.52 739.8 399.6 733.2 410.64C730.56 415.08 726.96 419.64 721.44 420.96C720.24 421.2 719.16 421.32 718.08 421.2V510.48H1439.64V3H1413.12Z" fill="#AF1C1A"/>
<path opacity="0.5" d="M748.08 12.48C748.08 12.48 745.8 393.96 748.08 500.16L757.56 8.52002L748.08 12.48ZM809.88 20.76C809.88 20.76 808.68 402.24 809.88 508.44L815.16 16.8L809.88 20.76ZM879.36 12.48C879.36 12.48 877.08 393.96 879.36 500.16L888.84 8.52002L879.36 12.48ZM941.04 20.76C941.04 20.76 939.84 402.24 941.04 508.44L946.32 16.92L941.04 20.76ZM1005.72 12.48C1005.72 12.48 1003.44 393.96 1005.72 500.16L1015.2 8.52002L1005.72 12.48ZM1067.52 20.76C1067.52 20.76 1066.32 402.24 1067.52 508.44L1072.8 16.8L1067.52 20.76ZM1133.52 12.48C1133.52 12.48 1131.24 393.96 1133.52 500.16L1143 8.52002L1133.52 12.48ZM1195.32 20.76C1195.32 20.76 1194.12 402.24 1195.32 508.44L1200.6 16.8L1195.32 20.76ZM1260.48 12.48C1260.48 12.48 1258.2 393.96 1260.48 500.16L1269.96 8.52002L1260.48 12.48ZM1322.28 20.76C1322.28 20.76 1321.08 402.24 1322.28 508.44L1327.56 16.8L1322.28 20.76ZM1363.2 12.48C1363.2 12.48 1360.92 393.96 1363.2 500.16L1372.68 8.52002L1363.2 12.48ZM1425 20.76C1425 20.76 1423.8 402.24 1425 508.44L1430.28 16.8L1425 20.76Z" fill="#0A0177"/>
<path opacity="0.8" d="M727.56 284.28C727.2 263.4 727.08 242.4 727.2 221.52C727.32 194.76 727.44 168.12 727.8 141.36C728.16 114.84 728.76 88.32 726.84 61.8L725.52 46.08C725.4 44.64 722.52 45.6 722.52 46.68C721.92 100.2 718.2 153.72 717.6 207.36C717 258.6 717.36 309.96 721.8 361.2C723.48 335.52 725.76 309.84 727.56 284.28Z" fill="url(#paint0_linear_2007_3767)"/>
<path opacity="0.8" d="M833.88 278.04C833.52 256.44 833.4 234.84 833.52 213.24C833.76 185.64 833.88 158.04 834.36 130.44C834.84 103.08 835.56 75.72 833.4 48.36L831.84 32.16C831.72 30.72 828.12 31.68 828.12 32.76C827.28 88.08 822.6 143.28 821.76 198.6C820.34 251.571 821.983 304.579 826.68 357.36C828.96 330.96 831.72 304.56 833.88 278.04Z" fill="url(#paint1_linear_2007_3767)"/>
<path opacity="0.8" d="M905.4 286.44C905.04 266.282 904.92 246.121 905.04 225.96C905.16 200.28 905.16 174.48 905.52 148.8C905.76 123.24 906.36 97.68 904.68 72.24L903.48 57.12C903.36 55.8 900.84 56.64 900.72 57.72C900.24 109.32 896.88 160.8 896.4 212.4C895.439 261.795 896.761 311.207 900.36 360.48C901.8 335.76 903.84 311.04 905.4 286.44Z" fill="url(#paint2_linear_2007_3767)"/>
<path opacity="0.8" d="M965.4 281.4C965.04 259.92 964.92 238.44 965.04 216.84C965.16 189.36 965.28 161.88 965.64 134.52C966 107.28 966.6 80.0399 964.68 52.7999L963.36 36.7199C963.24 35.2799 960.12 36.2399 960.12 37.3199C959.4 92.3999 955.44 147.36 954.72 202.32C954.12 255 954.48 307.68 959.16 360.36C960.96 334.08 963.48 307.8 965.4 281.4Z" fill="url(#paint3_linear_2007_3767)"/>
<path opacity="0.8" d="M1158.48 281.4C1158.12 259.92 1158 238.44 1158.12 216.84C1158.24 189.36 1158.36 161.88 1158.72 134.52C1159.08 107.28 1159.68 80.0399 1157.76 52.7999L1156.44 36.7199C1156.32 35.2799 1153.2 36.2399 1153.2 37.3199C1152.48 92.3999 1148.52 147.36 1147.8 202.32C1147.2 255 1147.56 307.68 1152.24 360.36C1154.16 334.08 1156.56 307.8 1158.48 281.4Z" fill="url(#paint4_linear_2007_3767)"/>
<path opacity="0.8" d="M1222.68 281.4C1222.32 259.92 1222.2 238.44 1222.32 216.84C1222.44 189.36 1222.56 161.88 1222.92 134.52C1223.28 107.28 1223.88 80.0399 1221.96 52.7999L1220.64 36.7199C1220.52 35.2799 1217.4 36.2399 1217.4 37.3199C1216.68 92.3999 1212.72 147.36 1212 202.32C1211.4 255 1211.76 307.68 1216.44 360.36C1218.36 334.08 1220.76 307.8 1222.68 281.4Z" fill="url(#paint5_linear_2007_3767)"/>
<path opacity="0.8" d="M1283.52 281.4C1283.16 259.92 1283.04 238.44 1283.16 216.84C1283.28 189.36 1283.4 161.88 1283.76 134.52C1284.12 107.28 1284.72 80.0399 1282.8 52.7999L1281.48 36.7199C1281.36 35.2799 1278.24 36.2399 1278.24 37.3199C1277.52 92.3999 1273.56 147.36 1272.84 202.32C1272.24 255 1272.6 307.68 1277.28 360.36C1279.2 334.08 1281.6 307.8 1283.52 281.4Z" fill="url(#paint6_linear_2007_3767)"/>
<path opacity="0.8" d="M1337.64 279C1337.28 257.52 1337.16 236.04 1337.16 214.44L1337.28 132.12C1337.4 104.88 1337.76 77.64 1336.32 50.4L1335.36 34.32C1335.24 32.88 1333.32 33.84 1333.32 34.92C1333.08 90 1330.8 144.96 1330.56 199.92C1330.32 252.6 1330.8 305.28 1333.92 357.96C1335.12 331.68 1336.56 305.4 1337.64 279Z" fill="url(#paint7_linear_2007_3767)"/>
<path opacity="0.8" d="M1389.48 279C1389.12 257.52 1389 236.04 1389 214.44L1389.12 132.12C1389.24 104.88 1389.6 77.64 1388.16 50.4L1387.2 34.32C1387.08 32.88 1385.16 33.84 1385.16 34.92C1384.92 90 1382.64 144.96 1382.4 199.92C1382.16 252.6 1382.64 305.28 1385.76 357.96C1386.96 331.68 1388.4 305.4 1389.48 279Z" fill="url(#paint8_linear_2007_3767)"/>
<path opacity="0.8" d="M1034.16 285.84C1033.8 264.84 1033.68 243.84 1033.68 222.84C1033.8 195.96 1033.8 169.2 1034.16 142.32C1034.4 115.68 1035 89.04 1033.2 62.52L1032 46.8C1031.88 45.36 1029.24 46.32 1029.12 47.4C1028.52 101.16 1025.16 154.92 1024.68 208.8C1023.7 260.315 1025.06 311.848 1028.76 363.24C1030.44 337.32 1032.48 311.52 1034.16 285.84Z" fill="url(#paint9_linear_2007_3767)"/>
<path opacity="0.8" d="M1095.48 291.12C1095.12 268.92 1095 246.72 1095 224.52C1095 196.2 1094.88 167.76 1095.12 139.44C1095.24 111.36 1095.48 83.16 1094.16 55.08L1093.2 38.4C1093.08 36.96 1091.16 37.8 1091.16 39C1090.92 95.88 1088.64 152.64 1088.52 209.52C1088.4 264 1088.76 444.84 1092 499.2C1093.08 471.96 1094.4 318.36 1095.48 291.12Z" fill="url(#paint10_linear_2007_3767)"/>
<path opacity="0.8" d="M772.56 280.68C772.22 258.762 772.06 236.841 772.08 214.92L772.2 131.04C772.32 103.32 772.68 75.48 771.24 47.76L770.28 31.32C770.16 29.88 768.12 30.72 768.12 31.92C767.88 87.96 765.36 144 765.12 200.16C764.88 253.8 765.36 307.56 768.6 361.2C769.8 334.32 771.36 307.44 772.56 280.68Z" fill="url(#paint11_linear_2007_3767)"/>
<path d="M748.08 12.48C748.08 12.48 745.8 393.96 748.08 500.16L757.56 8.52002L748.08 12.48ZM809.88 20.76C809.88 20.76 808.68 402.24 809.88 508.44L815.16 16.8L809.88 20.76ZM879.36 12.48C879.36 12.48 877.08 393.96 879.36 500.16L888.84 8.52002L879.36 12.48ZM941.04 20.76C941.04 20.76 939.84 402.24 941.04 508.44L946.32 16.92L941.04 20.76ZM1005.72 12.48C1005.72 12.48 1003.44 393.96 1005.72 500.16L1015.2 8.52002L1005.72 12.48ZM1067.52 20.76C1067.52 20.76 1066.32 402.24 1067.52 508.44L1072.8 16.8L1067.52 20.76ZM1133.52 12.48C1133.52 12.48 1131.24 393.96 1133.52 500.16L1143 8.52002L1133.52 12.48ZM1195.32 20.76C1195.32 20.76 1194.12 402.24 1195.32 508.44L1200.6 16.8L1195.32 20.76ZM1260.48 12.48C1260.48 12.48 1258.2 393.96 1260.48 500.16L1269.96 8.52002L1260.48 12.48ZM1322.28 20.76C1322.28 20.76 1321.08 402.24 1322.28 508.44L1327.56 16.8L1322.28 20.76ZM1363.2 12.48C1363.2 12.48 1360.92 393.96 1363.2 500.16L1372.68 8.52002L1363.2 12.48ZM1425 20.76C1425 20.76 1423.8 402.24 1425 508.44L1430.28 16.8L1425 20.76Z" fill="#AC1B19"/>
<path d="M720.36 509.4C720.36 509.4 725.76 515.76 733.2 509.4C736.32 505.56 738.24 325.2 738.96 296.64C739.92 259.92 740.04 223.2 740.64 186.48C741.24 153.84 740.64 121.2 741 88.68C741.24 69.72 743.16 49.44 739.92 30.96C738.96 25.2 738.12 5.64 731.76 9.36C718.68 16.92 721.08 51.96 720.24 65.52L719.64 76.08C717.24 124.68 718.8 173.16 719.28 221.88C719.64 275.16 718.92 455.52 720.36 509.4Z" fill="#FE5A59"/>
<path d="M747.84 509.64L747.72 510.48C747.72 515.52 761.52 521.04 778.8 521.04C796.08 521.04 810.24 515.52 810.24 510.48L810.12 509.64H747.84Z" fill="#AF1C1A"/>
<path d="M767.28 506.04V506.4C767.28 506.4 767.88 510.84 777.24 510.84C786.6 510.84 787.8 506.4 787.8 506.4L787.92 505.68C791.28 476.28 792.96 320.28 794.16 290.76C795.6 254.52 795.96 218.28 797.04 182.04C798 149.88 797.16 117.6 797.64 85.4399C798 66.72 801.36 46.68 795.72 28.44C794.04 22.8 792.72 3.47996 782.04 7.07996C760.08 14.4 764.04 48.96 762.6 62.4L761.64 72.84C757.68 120.84 760.32 168.72 761.04 216.84C761.88 270.96 760.44 451.92 767.28 506.04Z" fill="#FE5A59"/>
<path d="M810.24 509.64L810.12 510.48C810.12 515.52 823.92 521.04 841.2 521.04C858.48 521.04 872.64 515.52 872.64 510.48L872.52 509.64H810.24Z" fill="#AF1C1A"/>
<path d="M829.68 506.04V506.4C829.68 506.4 830.28 510.84 839.64 510.84C849 510.84 850.2 506.4 850.2 506.4L850.32 505.68C853.68 476.28 855.36 320.28 856.56 290.76C858 254.52 858.36 218.28 859.44 182.04C860.4 149.88 859.56 117.6 860.04 85.4399C860.4 66.72 863.76 46.68 858.12 28.44C856.44 22.8 855.12 3.47996 844.44 7.07996C822.48 14.4 826.44 48.96 825 62.4L824.04 72.84C820.08 120.84 822.72 168.72 823.44 216.84C824.28 270.96 822.84 451.92 829.68 506.04Z" fill="#FE5A59"/>
<path d="M872.64 509.64L872.52 510.48C872.52 515.52 886.32 521.04 903.6 521.04C920.88 521.04 935.04 515.52 935.04 510.48L934.92 509.64H872.64Z" fill="#AF1C1A"/>
<path d="M892.08 506.04V506.4C892.08 506.4 892.68 510.84 902.04 510.84C911.4 510.84 912.6 506.4 912.6 506.4L912.72 505.68C916.08 476.28 917.76 320.28 918.96 290.76C920.4 254.52 920.76 218.28 921.84 182.04C922.8 149.88 921.96 117.6 922.44 85.4399C922.8 66.72 926.16 46.68 920.52 28.44C918.84 22.8 917.52 3.47996 906.84 7.07996C884.88 14.4 888.84 48.96 887.4 62.4L886.44 72.84C882.48 120.84 885.12 168.72 885.84 216.84C886.68 270.96 885.24 451.92 892.08 506.04Z" fill="#FE5A59"/>
<path d="M935.04 509.64L934.92 510.48C934.92 515.52 948.72 521.04 966 521.04C983.28 521.04 997.44 515.52 997.44 510.48L997.32 509.64H935.04Z" fill="#AF1C1A"/>
<path d="M954.48 506.04V506.4C954.48 506.4 955.08 510.84 964.44 510.84C973.8 510.84 975 506.4 975 506.4L975.12 505.68C978.48 476.28 980.16 320.28 981.36 290.76C982.8 254.52 983.16 218.28 984.24 182.04C985.2 149.88 984.36 117.6 984.84 85.4399C985.2 66.72 988.56 46.68 982.92 28.44C981.24 22.8 979.92 3.47996 969.24 7.07996C947.28 14.4 951.24 48.96 949.8 62.4L948.84 72.84C944.88 120.84 947.52 168.72 948.24 216.84C949.08 270.96 947.64 451.92 954.48 506.04Z" fill="#FE5A59"/>
<path d="M997.44 509.64L997.32 510.48C997.32 515.52 1011.12 521.04 1028.4 521.04C1045.68 521.04 1059.84 515.52 1059.84 510.48L1059.72 509.64H997.44Z" fill="#AF1C1A"/>
<path d="M1016.88 506.04V506.4C1016.88 506.4 1017.48 510.84 1026.84 510.84C1036.2 510.84 1037.4 506.4 1037.4 506.4L1037.52 505.68C1040.88 476.28 1042.56 320.28 1043.76 290.76C1045.2 254.52 1045.56 218.28 1046.64 182.04C1047.6 149.88 1046.76 117.6 1047.24 85.4399C1047.6 66.72 1050.96 46.68 1045.32 28.44C1043.64 22.8 1042.32 3.47996 1031.64 7.07996C1009.68 14.4 1013.64 48.96 1012.2 62.4L1011.24 72.84C1007.28 120.84 1009.92 168.72 1010.64 216.84C1011.48 270.96 1010.04 451.92 1016.88 506.04Z" fill="#FE5A59"/>
<path d="M1059.84 509.64L1059.72 510.48C1059.72 515.52 1073.52 521.04 1090.8 521.04C1108.08 521.04 1122.24 515.52 1122.24 510.48L1122.12 509.64H1059.84Z" fill="#AF1C1A"/>
<path d="M1079.28 506.04V506.4C1079.28 506.4 1079.88 510.84 1089.24 510.84C1098.6 510.84 1099.8 506.4 1099.8 506.4L1099.92 505.68C1103.28 476.28 1104.96 320.28 1106.16 290.76C1107.6 254.52 1107.96 218.28 1109.04 182.04C1110 149.88 1109.16 117.6 1109.64 85.4399C1110 66.72 1113.36 46.68 1107.72 28.44C1106.04 22.8 1104.72 3.47996 1094.04 7.07996C1072.08 14.4 1076.04 48.96 1074.6 62.4L1073.64 72.84C1069.68 120.84 1072.32 168.72 1073.04 216.84C1073.88 270.96 1072.44 451.92 1079.28 506.04Z" fill="#FE5A59"/>
<path d="M1122.24 509.64L1122.12 510.48C1122.12 515.52 1135.92 521.04 1153.2 521.04C1170.48 521.04 1184.64 515.52 1184.64 510.48L1184.52 509.64H1122.24Z" fill="#AF1C1A"/>
<path d="M1141.68 506.04V506.4C1141.68 506.4 1142.28 510.84 1151.64 510.84C1161 510.84 1162.2 506.4 1162.2 506.4L1162.32 505.68C1165.68 476.28 1167.36 320.28 1168.56 290.76C1170 254.52 1170.36 218.28 1171.44 182.04C1172.4 149.88 1171.56 117.6 1172.04 85.4399C1172.4 66.72 1175.76 46.68 1170.12 28.44C1168.44 22.8 1167.12 3.47996 1156.44 7.07996C1134.48 14.4 1138.44 48.96 1137 62.4L1136.04 72.84C1132.08 120.84 1134.72 168.72 1135.44 216.84C1136.28 270.96 1134.84 451.92 1141.68 506.04Z" fill="#FE5A59"/>
<path d="M1184.64 509.64L1184.52 510.48C1184.52 515.52 1198.32 521.04 1215.6 521.04C1232.88 521.04 1247.04 515.52 1247.04 510.48L1246.92 509.64H1184.64Z" fill="#AF1C1A"/>
<path d="M1204.08 506.04V506.4C1204.08 506.4 1204.68 510.84 1214.04 510.84C1223.4 510.84 1224.6 506.4 1224.6 506.4L1224.72 505.68C1228.08 476.28 1229.76 320.28 1230.96 290.76C1232.4 254.52 1232.76 218.28 1233.84 182.04C1234.8 149.88 1233.96 117.6 1234.44 85.4399C1234.8 66.72 1238.16 46.68 1232.52 28.44C1230.84 22.8 1229.52 3.47996 1218.84 7.07996C1196.88 14.4 1200.84 48.96 1199.4 62.4L1198.44 72.84C1194.48 120.84 1197.12 168.72 1197.84 216.84C1198.68 270.96 1197.24 451.92 1204.08 506.04Z" fill="#FE5A59"/>
<path d="M1247.04 509.64L1246.92 510.48C1246.92 515.52 1260.72 521.04 1278 521.04C1295.28 521.04 1309.44 515.52 1309.44 510.48L1309.32 509.64H1247.04Z" fill="#AF1C1A"/>
<path d="M1266.36 506.04V506.4C1266.36 506.4 1266.96 510.84 1276.32 510.84C1285.68 510.84 1286.88 506.4 1286.88 506.4L1287 505.68C1290.36 476.28 1292.04 320.28 1293.24 290.76C1294.68 254.52 1295.04 218.28 1296.12 182.04C1297.08 149.88 1296.24 117.6 1296.72 85.4399C1297.08 66.72 1300.44 46.68 1294.8 28.44C1293.12 22.8 1291.8 3.47996 1281.12 7.07996C1259.16 14.4 1263.12 48.96 1261.68 62.4L1260.72 72.84C1256.76 120.84 1259.4 168.72 1260.12 216.84C1260.96 270.96 1259.52 451.92 1266.36 506.04Z" fill="#FE5A59"/>
<path d="M1309.44 509.64L1309.32 510.48C1309.32 515.52 1323.12 521.04 1340.4 521.04C1357.68 521.04 1371.84 515.52 1371.84 510.48L1371.72 509.64H1309.44Z" fill="#AF1C1A"/>
<path d="M1328.76 506.04V506.4C1328.76 506.4 1329.36 510.84 1338.72 510.84C1348.08 510.84 1349.28 506.4 1349.28 506.4L1349.4 505.68C1352.76 476.28 1354.44 320.28 1355.64 290.76C1357.08 254.52 1357.44 218.28 1358.52 182.04C1359.48 149.88 1358.64 117.6 1359.12 85.4399C1359.48 66.72 1362.84 46.68 1357.2 28.44C1355.52 22.8 1354.2 3.47996 1343.52 7.07996C1321.56 14.4 1325.52 48.96 1324.08 62.4L1323.12 72.84C1319.16 120.84 1321.8 168.72 1322.52 216.84C1323.36 270.96 1321.92 451.92 1328.76 506.04Z" fill="#FE5A59"/>
<path d="M1371.84 509.64L1371.72 510.48C1371.72 515.52 1385.52 521.04 1402.8 521.04C1420.08 521.04 1434.24 515.52 1434.24 510.48L1434.12 509.64H1371.84Z" fill="#AF1C1A"/>
<path d="M1381.8 506.04V506.4C1381.8 506.4 1382.4 510.84 1391.76 510.84C1401.12 510.84 1402.32 506.4 1402.32 506.4L1402.44 505.68C1405.8 476.28 1407.48 320.28 1408.68 290.76C1410.12 254.52 1410.48 218.28 1411.56 182.04C1412.52 149.88 1411.68 117.6 1412.16 85.4399C1412.52 66.72 1415.88 46.68 1410.24 28.44C1408.56 22.8 1407.24 3.47996 1396.56 7.07996C1374.6 14.4 1378.56 48.96 1377.12 62.4L1376.16 72.84C1372.2 120.84 1374.84 168.72 1375.56 216.84C1376.4 270.96 1374.96 451.92 1381.8 506.04Z" fill="#FE5A59"/>
<path d="M727.56 284.28C727.2 263.4 727.08 242.4 727.2 221.52C727.32 194.76 727.44 168.12 727.8 141.36C728.16 114.84 728.76 88.32 726.84 61.8L725.52 46.08C725.4 44.64 722.52 45.6 722.52 46.68C721.92 100.2 718.2 153.72 717.6 207.36C717 258.6 717.36 309.96 721.8 361.2C723.48 335.52 725.76 309.84 727.56 284.28ZM833.88 278.04C833.52 256.44 833.4 234.84 833.52 213.24C833.76 185.64 833.88 158.04 834.36 130.44C834.84 103.08 835.56 75.72 833.4 48.36L831.84 32.16C831.72 30.72 828.12 31.68 828.12 32.76C827.28 88.08 822.6 143.28 821.76 198.6C820.34 251.571 821.983 304.579 826.68 357.36C828.96 330.96 831.72 304.56 833.88 278.04ZM905.4 286.44C905.04 266.282 904.92 246.121 905.04 225.96C905.16 200.28 905.16 174.48 905.52 148.8C905.76 123.24 906.36 97.68 904.68 72.24L903.48 57.12C903.36 55.8 900.84 56.64 900.72 57.72C900.24 109.32 896.88 160.8 896.4 212.4C895.439 261.795 896.761 311.207 900.36 360.48C901.8 335.76 903.84 311.04 905.4 286.44ZM965.4 281.4C965.04 259.92 964.92 238.44 965.04 216.84C965.16 189.36 965.28 161.88 965.64 134.52C966 107.28 966.6 80.04 964.68 52.8L963.36 36.72C963.24 35.28 960.12 36.24 960.12 37.32C959.4 92.4 955.44 147.36 954.72 202.32C954.12 255 954.48 307.68 959.16 360.36C960.96 334.08 963.48 307.8 965.4 281.4ZM1158.48 281.4C1158.12 259.92 1158 238.44 1158.12 216.84C1158.24 189.36 1158.36 161.88 1158.72 134.52C1159.08 107.28 1159.68 80.04 1157.76 52.8L1156.44 36.72C1156.32 35.28 1153.2 36.24 1153.2 37.32C1152.48 92.4 1148.52 147.36 1147.8 202.32C1147.2 255 1147.56 307.68 1152.24 360.36C1154.16 334.08 1156.56 307.8 1158.48 281.4ZM1222.68 281.4C1222.32 259.92 1222.2 238.44 1222.32 216.84C1222.44 189.36 1222.56 161.88 1222.92 134.52C1223.28 107.28 1223.88 80.04 1221.96 52.8L1220.64 36.72C1220.52 35.28 1217.4 36.24 1217.4 37.32C1216.68 92.4 1212.72 147.36 1212 202.32C1211.4 255 1211.76 307.68 1216.44 360.36C1218.36 334.08 1220.76 307.8 1222.68 281.4ZM1283.52 281.4C1283.16 259.92 1283.04 238.44 1283.16 216.84C1283.28 189.36 1283.4 161.88 1283.76 134.52C1284.12 107.28 1284.72 80.04 1282.8 52.8L1281.48 36.72C1281.36 35.28 1278.24 36.24 1278.24 37.32C1277.52 92.4 1273.56 147.36 1272.84 202.32C1272.24 255 1272.6 307.68 1277.28 360.36C1279.2 334.08 1281.6 307.8 1283.52 281.4ZM1337.64 279C1337.28 257.52 1337.16 236.04 1337.16 214.44L1337.28 132.12C1337.4 104.88 1337.76 77.64 1336.32 50.4L1335.36 34.32C1335.24 32.88 1333.32 33.84 1333.32 34.92C1333.08 90 1330.8 144.96 1330.56 199.92C1330.32 252.6 1330.8 305.28 1333.92 357.96C1335.12 331.68 1336.56 305.4 1337.64 279ZM1389.48 279C1389.12 257.52 1389 236.04 1389 214.44L1389.12 132.12C1389.24 104.88 1389.6 77.64 1388.16 50.4L1387.2 34.32C1387.08 32.88 1385.16 33.84 1385.16 34.92C1384.92 90 1382.64 144.96 1382.4 199.92C1382.16 252.6 1382.64 305.28 1385.76 357.96C1386.96 331.68 1388.4 305.4 1389.48 279ZM1034.16 285.84C1033.8 264.84 1033.68 243.84 1033.68 222.84C1033.8 195.96 1033.8 169.2 1034.16 142.32C1034.4 115.68 1035 89.04 1033.2 62.52L1032 46.8C1031.88 45.36 1029.24 46.32 1029.12 47.4C1028.52 101.16 1025.16 154.92 1024.68 208.8C1023.7 260.315 1025.06 311.848 1028.76 363.24C1030.44 337.32 1032.48 311.52 1034.16 285.84ZM1095.6 295.08C1095.24 272.52 1095.12 249.96 1095.12 227.4V141C1095.24 112.44 1095.48 83.88 1094.16 55.32C1093.9 49.6768 1093.58 44.0365 1093.2 38.4C1093.08 36.84 1091.16 37.8 1091.16 39C1090.92 96.72 1088.76 154.44 1088.52 212.16C1088.4 267.48 1088.76 449.16 1092 504.36C1093.08 476.76 1094.52 322.68 1095.6 295.08ZM772.56 280.68C772.22 258.762 772.059 236.841 772.08 214.92L772.2 131.04C772.32 103.32 772.68 75.48 771.24 47.76L770.28 31.32C770.16 29.88 768.12 30.72 768.12 31.92C767.88 87.96 765.36 144 765.12 200.16C764.88 253.8 765.36 307.56 768.6 361.2C769.8 334.32 771.36 307.44 772.56 280.68Z" fill="#FF8D8D"/>
<path d="M720.12 118.92H717V521.64H720.12V118.92Z" fill="#FFBF27"/>
<path d="M685.92 511.44H717.6V522.84H717C699.84 522.84 685.68 517.32 685.68 512.28L685.92 511.44Z" fill="#AF1C1A"/>
<path opacity="0.5" d="M707.64 18.6L712.92 510.24C714.12 404.04 712.92 22.56 712.92 22.56L707.64 18.6Z" fill="#0A0177"/>
<path d="M707.64 18.6L712.92 510.24C714.12 404.04 712.92 22.56 712.92 22.56L707.64 18.6Z" fill="#AC1B19"/>
<path d="M0.120117 510.6H715.44V4.80005H0.120117V510.6Z" fill="#D53A38"/>
<path d="M-0.23999 4.80005V512.28H716.88V423C715.754 423.096 714.621 423.015 713.52 422.76C708 421.44 704.4 416.88 701.88 412.44C695.28 401.4 692.28 388.32 689.52 376.2C685.56 359.52 682.32 342.84 680.28 325.8L677.76 302.88L675.48 321.36C672.84 343.32 670.56 365.52 666.36 387.36C664.68 395.76 661.2 414.84 647.88 412.2C640.2 410.76 635.28 402.72 631.68 396.84C626.04 387.6 623.28 377.4 621.24 367.08C618.557 353.766 616.117 340.403 613.92 327L612.72 336.96C611.64 346.56 610.2 356.28 609.84 365.88C609.6 372.24 609.48 378.48 608.88 384.84C607.92 395.4 606.36 412.68 593.76 417C586.56 419.4 579.84 415.56 575.16 410.88C569.435 404.464 564.995 397.009 562.08 388.92C557.52 378.36 554.04 367.32 551.04 356.28C549 348.84 547.08 341.28 545.28 333.72C544.92 338.4 544.44 343.2 544.2 348C543.6 357.6 543.48 367.08 541.8 376.56C539.28 390.72 530.16 414.84 510.24 408.24C502.56 405.6 497.04 398.4 493.08 392.28C492.09 390.803 491.169 389.282 490.32 387.72C488.139 396.273 483.801 404.123 477.72 410.52C473.866 414.163 469.051 416.629 463.843 417.628C458.634 418.627 453.249 418.118 448.32 416.16C439.92 412.68 434.4 405.24 430.44 397.92C427.722 392.799 425.434 387.46 423.6 381.96L422.04 385.2C418.32 392.76 413.4 402 405.48 406.44C397.68 410.76 389.04 406.8 383.16 401.28C371.905 389.418 364.356 374.53 361.44 358.44C360.84 363.72 360.12 369.12 359.16 374.4C357.72 382.44 355.44 390.48 348.96 396.24C346.806 398.32 344.204 399.877 341.354 400.792C338.504 401.708 335.482 401.957 332.52 401.52C326.64 400.44 321.72 396.24 318.24 392.04C310.813 382.251 305.426 371.07 302.4 359.16C300.72 353.4 299.16 347.52 297.72 341.64C296.166 356.268 292.986 370.677 288.24 384.6C285 393.6 281.04 402.84 275.4 410.64C272.04 415.08 267.12 419.28 261 418.08C255.24 416.88 251.76 411.72 249.48 407.16C246.774 401.342 244.644 395.273 243.12 389.04L240.12 378.36C239.28 384.96 238.2 391.56 237 398.04C235.912 405.681 233.123 412.98 228.84 419.4C223.32 427.2 212.88 431.28 203.52 427.2C196.32 423.96 191.4 417.24 187.8 410.76C181.92 400.44 178.2 389.16 175.08 377.64C173.04 387.72 170.16 397.56 166.2 406.92C163.2 413.76 158.04 420.72 150.24 423.24C141.84 425.88 134.04 420.36 129.72 414.12C118.08 397.2 116.04 376.2 112.92 356.76C111.981 363.334 110.74 369.861 109.2 376.32C107.04 386.28 104.4 397.2 99.12 406.2C95.4 412.44 88.56 415.32 82.56 409.44C77.16 404.16 75.36 396 73.56 389.28C72.24 384.12 71.16 378.84 70.2 373.56H70.08C67.2 372.84 65.28 370.92 63.24 369.12C58.7447 364.871 54.6104 360.255 50.88 355.32C46.5502 349.515 43.2241 343.025 41.04 336.12C37.585 326.617 35.0141 316.815 33.36 306.84C26.28 266.04 31.2 224.52 30.12 183.36C29.4 151.08 27.6 118.92 27 86.6401C26.28 59.4001 26.16 32.0401 26.04 4.80005H-0.23999Z" fill="#AF1C1A"/>
<path opacity="0.5" d="M677.52 10.3199L687 501.96C689.28 395.76 687 14.2799 687 14.2799L677.52 10.3199ZM620.28 18.5999L625.56 510.24C626.76 404.04 625.56 22.5599 625.56 22.5599L620.28 18.5999ZM547.08 10.3199L556.56 501.96C558.84 395.76 556.56 14.2799 556.56 14.2799L547.08 10.3199ZM489.96 18.7199L495.24 510.24C496.44 404.04 495.24 22.5599 495.24 22.5599L489.96 18.7199ZM421.56 10.3199L431.04 501.96C433.32 395.76 431.04 14.2799 431.04 14.2799L421.56 10.3199ZM364.32 18.5999L369.6 510.24C370.8 404.04 369.6 22.5599 369.6 22.5599L364.32 18.5999ZM294.48 10.3199L303.96 501.96C306.24 395.76 303.96 14.2799 303.96 14.2799L294.48 10.3199ZM237.24 18.5999L242.52 510.24C243.72 404.04 242.52 22.5599 242.52 22.5599L237.24 18.5999ZM168.36 10.3199L177.84 501.96C180.12 395.76 177.84 14.2799 177.84 14.2799L168.36 10.3199ZM111.12 18.5999L116.4 510.24C117.6 404.04 116.4 22.5599 116.4 22.5599L111.12 18.5999ZM66.24 10.3199L75.72 501.96C78 395.76 75.72 14.2799 75.72 14.2799L66.24 10.3199ZM9 18.5999L14.28 510.24C15.48 404.04 14.28 22.5599 14.28 22.5599L9 18.5999Z" fill="#0A0177"/>
<path opacity="0.8" d="M713.04 363C717.48 311.76 717.84 260.4 717.24 209.16C716.64 155.52 712.92 102 712.32 48.48C712.32 47.4 709.44 46.44 709.32 47.88L708 63.6C706.08 90.12 706.68 116.64 707.04 143.16C707.4 169.92 707.52 196.56 707.64 223.32C707.76 244.2 707.64 265.2 707.28 286.08C709.2 311.64 711.48 337.32 713.04 363Z" fill="url(#paint12_linear_2007_3767)"/>
<path opacity="0.8" d="M608.88 359.16C614.28 306.36 614.52 253.32 613.8 200.4C612.96 145.08 608.28 89.88 607.44 34.56C607.44 33.48 603.84 32.52 603.72 33.96L602.16 50.16C600 77.52 600.72 104.88 601.2 132.24C601.68 159.84 601.8 187.44 602.04 215.04C602.16 236.64 602.04 258.24 601.68 279.84C603.84 306.36 606.6 332.76 608.88 359.16Z" fill="url(#paint13_linear_2007_3767)"/>
<path opacity="0.8" d="M535.68 362.28C539.279 313.007 540.601 263.595 539.64 214.2C539.16 162.6 535.8 111.12 535.32 59.52C535.2 58.44 532.68 57.6 532.56 58.92L531.36 74.04C529.68 99.48 530.28 125.04 530.52 150.6C530.88 176.28 530.88 202.08 531 227.76C531.12 247.92 531 268.08 530.64 288.24C532.2 312.84 534.24 337.56 535.68 362.28Z" fill="url(#paint14_linear_2007_3767)"/>
<path opacity="0.8" d="M477.24 362.16C481.92 309.48 482.28 256.8 481.68 204.12C480.96 149.16 477 94.2 476.28 39.12C476.28 38.04 473.16 37.08 473.04 38.52L471.72 54.6C469.8 81.84 470.4 109.08 470.76 136.32C471.12 163.68 471.24 191.16 471.36 218.64C471.48 240.24 471.36 261.72 471 283.2C472.92 309.6 475.44 335.88 477.24 362.16Z" fill="url(#paint15_linear_2007_3767)"/>
<path opacity="0.8" d="M285.36 362.16C290.04 309.48 290.4 256.8 289.8 204.12C289.08 149.16 285.12 94.2 284.4 39.12C284.4 38.04 281.28 37.08 281.16 38.52L279.84 54.6C277.92 81.84 278.52 109.08 278.88 136.32C279.24 163.68 279.36 191.16 279.48 218.64C279.6 240.24 279.48 261.72 279.12 283.2C281.04 309.6 283.44 335.88 285.36 362.16Z" fill="url(#paint16_linear_2007_3767)"/>
<path opacity="0.8" d="M221.52 362.16C226.2 309.48 226.56 256.8 225.96 204.12C225.24 149.16 221.28 94.2 220.56 39.12C220.56 38.04 217.44 37.08 217.32 38.52L216 54.6C214.08 81.84 214.68 109.08 215.04 136.32C215.4 163.68 215.52 191.16 215.64 218.64C215.76 240.24 215.64 261.72 215.28 283.2C217.2 309.6 219.6 335.88 221.52 362.16Z" fill="url(#paint17_linear_2007_3767)"/>
<path opacity="0.8" d="M161.04 362.16C165.72 309.48 166.08 256.8 165.48 204.12C164.76 149.16 160.8 94.2 160.08 39.12C160.08 38.04 156.96 37.08 156.84 38.52L155.52 54.6C153.6 81.84 154.2 109.08 154.56 136.32C154.92 163.68 155.04 191.16 155.16 218.64C155.28 240.24 155.16 261.72 154.8 283.2C156.72 309.6 159.12 335.88 161.04 362.16Z" fill="url(#paint18_linear_2007_3767)"/>
<path opacity="0.8" d="M104.76 359.76C107.88 307.08 108.36 254.4 108.12 201.72C107.88 146.76 105.6 91.8 105.36 36.72C105.36 35.64 103.44 34.68 103.32 36.12L102.36 52.2C100.92 79.44 101.28 106.68 101.4 133.92L101.52 216.24C101.52 237.84 101.4 259.32 101.04 280.8C102.12 307.2 103.56 333.48 104.76 359.76Z" fill="url(#paint19_linear_2007_3767)"/>
<path opacity="0.8" d="M53.2801 359.76C56.4001 307.08 56.8801 254.4 56.6401 201.72C56.4001 146.76 54.1201 91.8 53.8801 36.72C53.8801 35.64 51.9601 34.68 51.8401 36.12L50.8801 52.2C49.4401 79.44 49.8001 106.68 49.9201 133.92L50.0401 216.24C50.0401 237.84 49.9201 259.32 49.5601 280.8C50.6401 307.2 52.0801 333.48 53.2801 359.76Z" fill="url(#paint20_linear_2007_3767)"/>
<path opacity="0.8" d="M408 365.04C411.699 313.648 413.061 262.115 412.08 210.6C411.6 156.72 408.24 102.96 407.64 49.2001C407.52 48.1201 404.88 47.1601 404.76 48.6001L403.56 64.3201C401.76 90.8401 402.36 117.48 402.6 144.12C402.96 171 402.96 197.76 403.08 224.64C403.08 245.64 402.96 266.64 402.6 287.64C404.4 313.32 406.32 339.12 408 365.04Z" fill="url(#paint21_linear_2007_3767)"/>
<path opacity="0.8" d="M345.24 501C348.48 446.64 348.84 265.8 348.72 211.32C348.6 154.44 346.32 97.68 346.08 40.8C346.08 39.6 344.16 38.76 344.04 40.2L343.08 56.88C341.76 84.9601 342 113.16 342.12 141.24C342.36 169.56 342.24 198 342.24 226.32C342.24 248.52 342.12 270.72 341.76 292.92C342.84 320.16 344.16 473.76 345.24 501Z" fill="url(#paint22_linear_2007_3767)"/>
<path opacity="0.8" d="M666.6 363C669.499 309.372 670.66 255.663 670.08 201.96C669.84 145.8 667.32 89.76 667.08 33.72C667.08 32.52 665.04 31.68 664.92 33.12L663.96 49.56C662.52 77.28 662.88 105.12 663 132.84L663.12 216.72C663.12 238.68 663 260.64 662.64 282.48C663.84 309.24 665.4 336.12 666.6 363Z" fill="url(#paint23_linear_2007_3767)"/>
<path d="M677.52 10.3199L687 501.96C689.28 395.76 687 14.2799 687 14.2799L677.52 10.3199ZM620.28 18.5999L625.56 510.24C626.76 404.04 625.56 22.5599 625.56 22.5599L620.28 18.5999ZM547.08 10.3199L556.56 501.96C558.84 395.76 556.56 14.2799 556.56 14.2799L547.08 10.3199ZM489.96 18.7199L495.24 510.24C496.44 404.04 495.24 22.5599 495.24 22.5599L489.96 18.7199ZM421.56 10.3199L431.04 501.96C433.32 395.76 431.04 14.2799 431.04 14.2799L421.56 10.3199ZM364.32 18.5999L369.6 510.24C370.8 404.04 369.6 22.5599 369.6 22.5599L364.32 18.5999ZM294.48 10.3199L303.96 501.96C306.24 395.76 303.96 14.2799 303.96 14.2799L294.48 10.3199ZM237.24 18.5999L242.52 510.24C243.72 404.04 242.52 22.5599 242.52 22.5599L237.24 18.5999ZM168.36 10.3199L177.84 501.96C180.12 395.76 177.84 14.2799 177.84 14.2799L168.36 10.3199ZM111.12 18.5999L116.4 510.24C117.6 404.04 116.4 22.5599 116.4 22.5599L111.12 18.5999ZM66.24 10.3199L75.72 501.96C78 395.76 75.72 14.2799 75.72 14.2799L66.24 10.3199ZM9 18.5999L14.28 510.24C15.48 404.04 14.28 22.5599 14.28 22.5599L9 18.5999Z" fill="#AC1B19"/>
<path d="M715.56 223.68C716.04 174.96 717.6 126.48 715.2 77.88L714.6 67.32C713.76 53.76 716.16 18.72 703.2 11.16C696.96 7.44005 696.12 27 695.16 32.76C691.92 51.24 693.84 71.52 694.08 90.48C694.44 123 693.84 155.64 694.44 188.28C695.04 225 695.28 261.72 696.12 298.44C696.84 327 698.76 507.48 701.76 511.2C709.2 517.56 714.48 511.2 714.48 511.2C716.04 457.32 715.32 276.96 715.56 223.68Z" fill="#FE5A59"/>
<path d="M687.24 511.44L687.36 512.28C687.36 517.32 673.68 522.84 656.4 522.84C639.12 522.84 625.08 517.32 625.08 512.28L625.2 511.44H687.24Z" fill="#AF1C1A"/>
<path d="M674.16 218.64C674.88 170.52 677.52 122.64 673.56 74.64L672.6 64.2C671.16 50.76 675.12 16.2 653.28 8.88C642.72 5.28 641.4 24.6 639.72 30.24C634.08 48.48 637.44 68.52 637.8 87.24C638.28 119.4 637.44 151.68 638.4 183.84C639.48 220.08 639.84 256.32 641.28 292.56C642.48 322.08 644.16 478.08 647.52 507.48L647.64 508.2C647.64 508.2 648.72 512.64 658.08 512.64C667.44 512.64 668.04 508.2 668.04 508.2V507.84C674.76 453.72 673.32 272.76 674.16 218.64Z" fill="#FE5A59"/>
<path d="M625.2 511.44L625.32 512.28C625.32 517.32 611.64 522.84 594.36 522.84C577.2 522.84 563.04 517.32 563.04 512.28L563.16 511.44H625.2Z" fill="#AF1C1A"/>
<path d="M612.12 218.64C612.84 170.52 615.48 122.64 611.52 74.64L610.56 64.2C609.12 50.76 613.08 16.2 591.24 8.88C580.68 5.28 579.36 24.6 577.68 30.24C572.04 48.48 575.4 68.52 575.76 87.24C576.24 119.4 575.4 151.68 576.36 183.84C577.44 220.08 577.8 256.32 579.24 292.56C580.44 322.08 582.12 478.08 585.48 507.48L585.6 508.2C585.6 508.2 586.68 512.64 596.04 512.64C605.4 512.64 606 508.2 606 508.2V507.84C612.72 453.72 611.28 272.76 612.12 218.64Z" fill="#FE5A59"/>
<path d="M563.16 511.44L563.28 512.28C563.28 517.32 549.6 522.84 532.32 522.84C515.16 522.84 501 517.32 501 512.28L501.12 511.44H563.16Z" fill="#AF1C1A"/>
<path d="M550.08 218.64C550.8 170.52 553.44 122.64 549.48 74.64L548.52 64.2C547.08 50.76 551.04 16.2 529.2 8.88C518.64 5.28 517.32 24.6 515.64 30.24C510 48.48 513.36 68.52 513.72 87.24C514.2 119.4 513.36 151.68 514.32 183.84C515.4 220.08 515.76 256.32 517.2 292.56C518.4 322.08 520.08 478.08 523.44 507.48L523.56 508.2C523.56 508.2 524.64 512.64 534 512.64C543.36 512.64 543.96 508.2 543.96 508.2V507.84C550.68 453.72 549.24 272.76 550.08 218.64Z" fill="#FE5A59"/>
<path d="M501.24 511.44L501.36 512.28C501.36 517.32 487.68 522.84 470.4 522.84C453.24 522.84 439.08 517.32 439.08 512.28L439.2 511.44H501.24Z" fill="#AF1C1A"/>
<path d="M488.04 218.64C488.76 170.52 491.4 122.64 487.44 74.64L486.48 64.2C485.04 50.76 489 16.2 467.16 8.88C456.6 5.28 455.28 24.6 453.6 30.24C447.96 48.48 451.32 68.52 451.68 87.24C452.16 119.4 451.32 151.68 452.28 183.84C453.36 220.08 453.72 256.32 455.16 292.56C456.36 322.08 458.04 478.08 461.4 507.48L461.52 508.2C461.52 508.2 462.6 512.64 471.96 512.64C481.32 512.64 481.92 508.2 481.92 508.2V507.84C488.64 453.72 487.32 272.76 488.04 218.64Z" fill="#FE5A59"/>
<path d="M439.2 511.44L439.32 512.28C439.32 517.32 425.64 522.84 408.36 522.84C391.2 522.84 377.04 517.32 377.04 512.28L377.16 511.44H439.2Z" fill="#AF1C1A"/>
<path d="M426.12 218.64C426.84 170.52 429.48 122.64 425.52 74.64L424.56 64.2C423.12 50.76 427.08 16.2 405.24 8.88C394.68 5.28 393.36 24.6 391.68 30.24C386.04 48.48 389.4 68.52 389.76 87.24C390.24 119.4 389.4 151.68 390.36 183.84C391.44 220.08 391.8 256.32 393.24 292.56C394.44 322.08 396.12 478.08 399.48 507.48L399.6 508.2C399.6 508.2 400.68 512.64 410.04 512.64C419.4 512.64 420 508.2 420 508.2V507.84C426.72 453.72 425.28 272.76 426.12 218.64Z" fill="#FE5A59"/>
<path d="M377.16 511.44L377.28 512.28C377.28 517.32 363.6 522.84 346.32 522.84C329.16 522.84 315 517.32 315 512.28L315.12 511.44H377.16Z" fill="#AF1C1A"/>
<path d="M364.08 218.64C364.8 170.52 367.44 122.64 363.48 74.64L362.52 64.2C361.08 50.76 365.04 16.2 343.2 8.88C332.64 5.28 331.32 24.6 329.64 30.24C324 48.48 327.36 68.52 327.72 87.24C328.2 119.4 327.36 151.68 328.32 183.84C329.4 220.08 329.76 256.32 331.2 292.56C332.4 322.08 334.08 478.08 337.44 507.48L337.56 508.2C337.56 508.2 338.64 512.64 348 512.64C357.36 512.64 357.96 508.2 357.96 508.2V507.84C364.68 453.72 363.24 272.76 364.08 218.64Z" fill="#FE5A59"/>
<path d="M315.12 511.44L315.24 512.28C315.24 517.32 301.56 522.84 284.28 522.84C267.12 522.84 252.96 517.32 252.96 512.28L253.08 511.44H315.12Z" fill="#AF1C1A"/>
<path d="M302.04 218.64C302.76 170.52 305.4 122.64 301.44 74.64L300.48 64.2C299.04 50.76 303 16.2 281.16 8.88C270.6 5.28 269.28 24.6 267.6 30.24C261.96 48.48 265.32 68.52 265.68 87.24C266.16 119.4 265.32 151.68 266.28 183.84C267.36 220.08 267.72 256.32 269.16 292.56C270.36 322.08 272.04 478.08 275.4 507.48L275.52 508.2C275.52 508.2 276.6 512.64 285.96 512.64C295.32 512.64 295.92 508.2 295.92 508.2V507.84C302.64 453.72 301.2 272.76 302.04 218.64Z" fill="#FE5A59"/>
<path d="M253.2 511.44L253.32 512.28C253.32 517.32 239.64 522.84 222.36 522.84C205.2 522.84 191.04 517.32 191.04 512.28L191.16 511.44H253.2Z" fill="#AF1C1A"/>
<path d="M240.12 218.64C240.84 170.52 243.48 122.64 239.52 74.64L238.56 64.2C237.12 50.76 241.08 16.2 219.24 8.88C208.68 5.28 207.36 24.6 205.68 30.24C200.04 48.48 203.4 68.52 203.76 87.24C204.24 119.4 203.4 151.68 204.36 183.84C205.44 220.08 205.8 256.32 207.24 292.56C208.44 322.08 210.12 478.08 213.48 507.48L213.6 508.2C213.6 508.2 214.68 512.64 224.04 512.64C233.4 512.64 234 508.2 234 508.2V507.84C240.72 453.72 239.28 272.76 240.12 218.64Z" fill="#FE5A59"/>
<path d="M191.16 511.44L191.28 512.28C191.28 517.32 177.6 522.84 160.32 522.84C143.16 522.84 129 517.32 129 512.28L129.12 511.44H191.16Z" fill="#AF1C1A"/>
<path d="M178.08 218.64C178.8 170.52 181.44 122.64 177.48 74.64L176.52 64.2C175.08 50.76 179.04 16.2 157.2 8.88C146.64 5.28 145.32 24.6 143.64 30.24C138 48.48 141.36 68.52 141.72 87.24C142.2 119.4 141.36 151.68 142.32 183.84C143.4 220.08 143.76 256.32 145.2 292.56C146.4 322.08 148.08 478.08 151.44 507.48L151.56 508.2C151.56 508.2 152.64 512.64 162 512.64C171.36 512.64 171.96 508.2 171.96 508.2V507.84C178.68 453.72 177.24 272.76 178.08 218.64Z" fill="#FE5A59"/>
<path d="M129.12 511.44L129.24 512.28C129.24 517.32 115.56 522.84 98.28 522.84C81.12 522.84 66.96 517.32 66.96 512.28L67.08 511.44H129.12Z" fill="#AF1C1A"/>
<path d="M116.04 218.64C116.76 170.52 119.4 122.64 115.44 74.64L114.48 64.2C113.04 50.76 117 16.2 95.16 8.88C84.6 5.28 83.28 24.6 81.6 30.24C75.96 48.48 79.32 68.52 79.68 87.24C80.16 119.4 79.32 151.68 80.28 183.84C81.36 220.08 81.72 256.32 83.16 292.56C84.36 322.08 86.0401 478.08 89.4001 507.48L89.5201 508.2C89.5201 508.2 90.6 512.64 99.96 512.64C109.32 512.64 109.92 508.2 109.92 508.2V507.84C116.64 453.72 115.2 272.76 116.04 218.64Z" fill="#FE5A59"/>
<path d="M67.2 511.44L67.32 512.28C67.32 517.32 53.64 522.84 36.36 522.84C19.2 522.84 5.04004 517.32 5.04004 512.28L5.16004 511.44H67.2Z" fill="#AF1C1A"/>
<path d="M63.48 218.64C64.2 170.52 66.84 122.64 62.88 74.64L61.92 64.2C60.48 50.76 64.44 16.2 42.6 8.88C32.04 5.28 30.72 24.6 29.04 30.24C23.4 48.48 26.76 68.52 27.12 87.24C27.6 119.4 26.76 151.68 27.72 183.84C28.8 220.08 29.16 256.32 30.6 292.56C31.8 322.08 33.48 478.08 36.84 507.48L36.96 508.2C36.96 508.2 38.04 512.64 47.4 512.64C56.76 512.64 57.36 508.2 57.36 508.2V507.84C64.08 453.72 62.64 272.76 63.48 218.64Z" fill="#FE5A59"/>
<path d="M713.04 363C717.48 311.76 717.84 260.4 717.24 209.16C716.64 155.52 712.92 102 712.32 48.48C712.32 47.4 709.44 46.44 709.32 47.88L708 63.6C706.08 90.12 706.68 116.64 707.04 143.16C707.4 169.92 707.52 196.56 707.64 223.32C707.76 244.2 707.64 265.2 707.28 286.08C709.2 311.64 711.48 337.32 713.04 363ZM608.88 359.16C614.28 306.36 614.52 253.32 613.8 200.4C612.96 145.08 608.28 89.88 607.44 34.56C607.44 33.48 603.84 32.52 603.72 33.96L602.16 50.16C600 77.52 600.72 104.88 601.2 132.24C601.68 159.84 601.8 187.44 602.04 215.04C602.16 236.64 602.04 258.24 601.68 279.84C603.84 306.36 606.6 332.76 608.88 359.16ZM535.68 362.28C539.279 313.007 540.601 263.595 539.64 214.2C539.16 162.6 535.8 111.12 535.32 59.52C535.2 58.44 532.68 57.6 532.56 58.92L531.36 74.04C529.68 99.48 530.28 125.04 530.52 150.6C530.88 176.28 530.88 202.08 531 227.76C531.12 247.92 531 268.08 530.64 288.24C532.2 312.84 534.24 337.56 535.68 362.28ZM477.24 362.16C481.92 309.48 482.28 256.8 481.68 204.12C480.96 149.16 477 94.2 476.28 39.12C476.28 38.04 473.16 37.08 473.04 38.52L471.72 54.6C469.8 81.84 470.4 109.08 470.76 136.32C471.12 163.68 471.24 191.16 471.36 218.64C471.48 240.24 471.36 261.72 471 283.2C472.92 309.6 475.44 335.88 477.24 362.16ZM285.36 362.16C290.04 309.48 290.4 256.8 289.8 204.12C289.08 149.16 285.12 94.2 284.4 39.12C284.4 38.04 281.28 37.08 281.16 38.52L279.84 54.6C277.92 81.84 278.52 109.08 278.88 136.32C279.24 163.68 279.36 191.16 279.48 218.64C279.6 240.24 279.48 261.72 279.12 283.2C281.04 309.6 283.44 335.88 285.36 362.16ZM221.52 362.16C226.2 309.48 226.56 256.8 225.96 204.12C225.24 149.16 221.28 94.2 220.56 39.12C220.56 38.04 217.44 37.08 217.32 38.52L216 54.6C214.08 81.84 214.68 109.08 215.04 136.32C215.4 163.68 215.52 191.16 215.64 218.64C215.76 240.24 215.64 261.72 215.28 283.2C217.2 309.6 219.6 335.88 221.52 362.16ZM161.04 362.16C165.72 309.48 166.08 256.8 165.48 204.12C164.76 149.16 160.8 94.2 160.08 39.12C160.08 38.04 156.96 37.08 156.84 38.52L155.52 54.6C153.6 81.84 154.2 109.08 154.56 136.32C154.92 163.68 155.04 191.16 155.16 218.64C155.28 240.24 155.16 261.72 154.8 283.2C156.72 309.6 159.12 335.88 161.04 362.16ZM104.76 359.76C107.88 307.08 108.36 254.4 108.12 201.72C107.88 146.76 105.6 91.8 105.36 36.72C105.36 35.64 103.44 34.68 103.32 36.12L102.36 52.2C100.92 79.44 101.28 106.68 101.4 133.92L101.52 216.24C101.52 237.84 101.4 259.32 101.04 280.8C102.12 307.2 103.56 333.48 104.76 359.76ZM53.2801 359.76C56.4001 307.08 56.8801 254.4 56.6401 201.72C56.4001 146.76 54.1201 91.8 53.8801 36.72C53.8801 35.64 51.9601 34.68 51.8401 36.12L50.8801 52.2C49.4401 79.44 49.8001 106.68 49.9201 133.92L50.0401 216.24C50.0401 237.84 49.9201 259.32 49.5601 280.8C50.6401 307.2 52.0801 333.48 53.2801 359.76ZM408 365.04C411.699 313.648 413.061 262.115 412.08 210.6C411.6 156.72 408.24 102.96 407.64 49.2C407.52 48.12 404.88 47.16 404.76 48.6L403.56 64.32C401.76 90.84 402.36 117.48 402.6 144.12C402.96 171 402.96 197.76 403.08 224.64C403.08 245.64 402.96 266.64 402.6 287.64C404.4 313.32 406.32 339.12 408 365.04ZM345.24 506.16C348.48 450.96 348.84 269.28 348.72 213.96C348.48 156.24 346.32 98.52 346.08 40.8C346.08 39.6 344.16 38.64 344.04 40.2L343.08 57.12C341.76 85.68 342 114.24 342.12 142.8V229.2C342.12 251.76 342 274.32 341.64 296.88C342.72 324.48 344.16 478.56 345.24 506.16ZM666.6 363C669.499 309.372 670.66 255.663 670.08 201.96C669.84 145.8 667.32 89.76 667.08 33.72C667.08 32.52 665.04 31.68 664.92 33.12L663.96 49.56C662.52 77.28 662.88 105.12 663 132.84L663.12 216.72C663.12 238.68 663 260.64 662.64 282.48C663.84 309.24 665.4 336.12 666.6 363Z" fill="#FF8D8D"/>
<path d="M713.64 522.84H716.76V120.12H713.64V522.84Z" fill="#FFBF27"/>
<path d="M52.8 479.04L82.32 480.12L102.72 527.28L75.48 532.44L52.8 479.04ZM48.72 479.28L73.2 533.16L19.92 543.72L14.28 531.48L48.72 479.28Z" fill="#354740"/>
<path d="M63.48 486.24L79.56 486.6L95.76 524.28L80.4 527.76L63.48 486.24Z" fill="#FFCC7B"/>
<path d="M70.2 502.8C70.2 502.8 79.32 497.16 82.8 505.8C86.4 514.44 75.48 515.76 75.48 515.76L70.2 502.8Z" fill="white"/>
<path opacity="0.7" d="M26.2801 2.04004L26.6401 11.04C26.6401 29.04 21.2401 56.16 24.9601 72.6C49.6801 110.52 77.0401 143.28 114.72 162.84C163.2 188.04 218.88 174.48 265.2 153.72C293.4 141 312.96 127.68 331.56 100.92C346.8 105.24 363.84 124.44 378.96 133.32C402.657 146.942 428.861 155.635 456 158.88C505.44 164.4 578.52 135.6 609.72 88.8C626.76 98.76 641.4 118.32 660.24 128.64C691.406 145.387 726.391 153.74 761.76 152.88C813.24 153 861.6 140.28 899.04 97.08C921.6 144.48 980.76 157.2 1024.44 163.2C1070.28 169.44 1137.24 153 1170.12 107.28C1195.56 148.32 1273.56 163.32 1312.44 163.2C1351.2 162.96 1396.68 149.76 1429.32 125.88C1433.14 123.061 1436.74 119.973 1440.12 116.64V2.04004H26.2801Z" fill="#AF1C1A"/>
<path d="M854.52 6.35999C854.52 6.35999 863.4 118.08 1002.36 118.08C1141.2 118.08 1175.28 6.35999 1175.28 6.35999H854.52Z" fill="#FFBF27"/>
<path d="M858.6 0.23999C858.6 0.23999 867.48 111.84 1006.44 111.84C1145.28 111.84 1179.36 0.23999 1179.36 0.23999H858.6Z" fill="#AF1C1A"/>
<path d="M854.52 0.23999C854.52 0.23999 863.4 111.84 1002.36 111.84C1141.2 111.84 1175.28 0.23999 1175.28 0.23999H854.52Z" fill="#D53A38"/>
<path d="M1005.84 102.36C1110.96 102.36 1155.96 1.80005 1155.96 1.80005C1155.96 1.80005 1081.56 89.16 1000.32 89.16C918.96 89.16 869.76 12 869.76 12C869.76 12 909.12 102.36 1005.84 102.36Z" fill="#FE5A59"/>
<path d="M1006.44 94.08C1103.16 94.08 1156.92 0.23999 1156.92 0.23999C1156.92 0.23999 1081.68 83.88 1000.32 83.88C918.96 83.88 869.4 10.2 869.4 10.2C869.4 10.2 909.72 94.08 1006.44 94.08Z" fill="#AF1C1A"/>
<path d="M867.12 0.23999C867.12 0.23999 936.96 75.96 1008.84 74.4C1084.44 72.84 1131.96 0.23999 1131.96 0.23999C1131.96 0.23999 1060.8 62.52 1006.92 62.52C952.92 62.64 867.12 0.23999 867.12 0.23999Z" fill="#FE5A59"/>
<path d="M867.12 0.23999C867.12 0.23999 935.64 67.92 1007.64 67.92C1079.64 67.92 1131.96 0.23999 1131.96 0.23999C1131.96 0.23999 1059.12 57.12 1005.24 57.12C951.36 57.12 867.12 0.23999 867.12 0.23999Z" fill="#AF1C1A"/>
<path d="M913.44 0.23999C913.44 0.23999 962.52 39 1010.4 39C1058.28 39 1088.88 0.23999 1088.88 0.23999C1088.88 0.23999 1046.28 28.44 1011.24 28.44C976.2 28.44 913.44 0.23999 913.44 0.23999Z" fill="#AF1C1A"/>
<path d="M913.44 0.23999C913.44 0.23999 963.96 43.2 1011.96 43.2C1059.96 43.2 1088.88 0.23999 1088.88 0.23999C1088.88 0.23999 1046.04 35.76 1011.12 35.76C976.08 35.76 913.44 0.23999 913.44 0.23999Z" fill="#FE5A59"/>
<path d="M576.96 9.47999C576.96 9.47999 585.84 121.08 724.8 121.08C863.64 121.08 906.12 0.23999 906.12 0.23999L576.96 9.47999Z" fill="#FFBF27"/>
<path d="M582.48 0.23999C582.48 0.23999 591.36 111.84 730.32 111.84C869.16 111.84 903.24 0.23999 903.24 0.23999H582.48Z" fill="#AF1C1A"/>
<path d="M576.96 0.23999C576.96 0.23999 585.84 111.84 724.8 111.84C863.64 111.84 897.72 0.23999 897.72 0.23999H576.96Z" fill="#D53A38"/>
<path d="M728.4 102.36C833.52 102.36 878.52 1.80005 878.52 1.80005C878.52 1.80005 804.12 89.16 722.88 89.16C641.52 89.16 592.2 12 592.2 12C592.2 12 631.68 102.36 728.4 102.36Z" fill="#FE5A59"/>
<path d="M729 94.08C825.72 94.08 879.48 0.23999 879.48 0.23999C879.48 0.23999 804.24 83.88 722.88 83.88C641.52 83.88 591.96 10.2 591.96 10.2C591.96 10.2 632.28 94.08 729 94.08Z" fill="#AF1C1A"/>
<path d="M589.68 0.23999C589.68 0.23999 659.52 75.96 731.4 74.4C807 72.84 854.52 0.23999 854.52 0.23999C854.52 0.23999 783.36 62.52 729.48 62.52C675.48 62.64 589.68 0.23999 589.68 0.23999Z" fill="#FE5A59"/>
<path d="M589.68 0.23999C589.68 0.23999 658.2 67.92 730.2 67.92C802.2 67.92 854.52 0.23999 854.52 0.23999C854.52 0.23999 781.68 57 727.8 57C673.8 57.12 589.68 0.23999 589.68 0.23999Z" fill="#AF1C1A"/>
<path d="M636 0.23999C636 0.23999 685.08 39 732.96 39C780.84 39 811.44 0.23999 811.44 0.23999C811.44 0.23999 768.84 28.44 733.8 28.44C698.76 28.44 636 0.23999 636 0.23999Z" fill="#AF1C1A"/>
<path d="M636 0.23999C636 0.23999 686.52 43.2 734.52 43.2C782.4 43.2 811.44 0.23999 811.44 0.23999C811.44 0.23999 768.6 35.76 733.56 35.76C698.64 35.76 636 0.23999 636 0.23999Z" fill="#FE5A59"/>
<path d="M286.8 1.79999C286.8 1.79999 295.68 118.92 434.64 118.92C580.32 118.8 618.36 0.23999 618.36 0.23999L286.8 1.79999Z" fill="#FFBF27"/>
<path d="M293.76 0.719971C293.76 0.719971 302.64 112.32 441.6 112.32C580.44 112.32 614.52 0.719971 614.52 0.719971H293.76Z" fill="#AF1C1A"/>
<path d="M286.8 0.23999C286.8 0.23999 295.68 111.84 434.64 111.84C573.48 111.84 607.56 0.23999 607.56 0.23999H286.8Z" fill="#D53A38"/>
<path d="M438.24 102.36C543.36 102.36 588.36 1.80005 588.36 1.80005C588.36 1.80005 513.96 89.16 432.72 89.16C351.36 89.16 302.04 12 302.04 12C302.04 12 341.52 102.36 438.24 102.36Z" fill="#FE5A59"/>
<path d="M438.48 91.44C535.2 91.44 588.96 -2.40002 588.96 -2.40002C588.96 -2.40002 513.72 81.24 432.36 81.24C351 81.24 301.44 7.55998 301.44 7.55998C301.44 7.55998 341.76 91.44 438.48 91.44Z" fill="#AF1C1A"/>
<path d="M299.52 0.23999C299.52 0.23999 369.36 75.96 441.24 74.4C516.84 72.84 564.36 0.23999 564.36 0.23999C564.36 0.23999 493.2 62.52 439.32 62.52C385.32 62.64 299.52 0.23999 299.52 0.23999Z" fill="#FE5A59"/>
<path d="M299.52 0.23999C299.52 0.23999 368.04 67.92 440.04 67.92C512.04 67.92 564.36 0.23999 564.36 0.23999C564.36 0.23999 491.52 57.12 437.64 57.12C383.76 57.12 299.52 0.23999 299.52 0.23999Z" fill="#AF1C1A"/>
<path d="M345.84 0.23999C345.84 0.23999 394.92 39 442.8 39C490.68 39 521.28 0.23999 521.28 0.23999C521.28 0.23999 478.68 28.44 443.64 28.44C408.6 28.44 345.84 0.23999 345.84 0.23999Z" fill="#AF1C1A"/>
<path d="M345.84 0.23999C345.84 0.23999 396.36 43.2 444.36 43.2C492.24 43.2 521.28 0.23999 521.28 0.23999C521.28 0.23999 478.44 35.76 443.4 35.76C408.48 35.76 345.84 0.23999 345.84 0.23999Z" fill="#FE5A59"/>
<path d="M297.6 0.23999C297.6 0.23999 303.6 44.4 304.32 56.64H306.48C306.48 56.64 303.72 11.88 299.4 0.23999H297.6Z" fill="#AF1C1A"/>
<path d="M589.68 50.04L590.64 83.04H593.4L592.2 50.04H589.68ZM601.8 66.48L602.76 99.6H605.52L604.32 66.48H601.8ZM616.44 80.16L617.52 113.16H620.28L619.08 80.16H616.44ZM630.96 94.08L632.04 127.2H634.8L633.6 94.08H630.96ZM648.24 102.36L649.2 135.36H651.96L650.88 102.36H648.24ZM665.04 108.48L666 141.6H668.76L667.68 108.48H665.04ZM683.04 112.44L684 145.44H686.76L685.68 112.44H683.04ZM700.56 115.68L701.52 148.68H704.28L703.08 115.68H700.56ZM714.6 117.24L715.56 150.36H718.32L717.12 117.24H714.6ZM731.52 117.24L732.48 150.36H735.24L734.16 117.24H731.52ZM746.52 115.68L747.48 148.68H750.24L749.16 115.68H746.52ZM762.6 113.76L763.56 146.88H766.32L765.24 113.76H762.6ZM779.16 110.64L780.12 143.64H782.88L781.8 110.64H779.16ZM792.48 106.44L793.44 139.56H796.2L795.12 106.44H792.48ZM806.28 100.68L807.24 133.8H810.12L808.92 100.68H806.28ZM819.6 94.08L820.68 127.2H823.44L822.24 94.08H819.6ZM832.32 86.88L833.4 120H836.16L834.96 86.88H832.32ZM845.76 77.52L846.72 110.64H849.48L848.28 77.52H845.76ZM858.6 66.72L859.56 99.12H862.32L861.24 66L858.6 66.72ZM868.08 57.12L868.8 89.64H871.56L870.48 56.64L868.08 57.12ZM876.72 48.24L877.56 78.72H880.32L879.24 45.72L876.72 48.24ZM887.88 32.16L888.72 62.64H891.48L890.4 29.64L887.88 32.16ZM896.88 15.6L897.84 46.08H900.6L899.4 13.08L896.88 15.6ZM883.68 67.56L884.76 100.56H887.52L886.32 72.36L883.68 67.56ZM898.44 81.12L899.4 114.12H902.16L901.08 84.24L898.44 81.12ZM912.96 95.04L913.92 128.16H916.68L915.6 95.04H912.96ZM930.24 103.32L931.2 136.32H933.96L932.88 103.32H930.24ZM947.04 109.56L948 142.56H950.76L949.68 109.56H947.04ZM965.04 113.4L966 146.52H968.76L967.56 113.4H965.04ZM982.44 116.64L983.52 149.64H986.28L985.08 116.64H982.44ZM996.48 116.64L997.56 149.64H1000.32L999.12 116.64H996.48ZM1013.52 116.64L1014.48 149.64H1017.24L1016.16 116.64H1013.52ZM1029 115.56L1030.08 148.68H1032.84L1031.64 115.56H1029ZM1043.88 113.4L1044.84 146.52H1047.6L1046.52 113.4H1043.88ZM1061.16 109.44L1062.12 142.44H1064.88L1063.68 109.44H1061.16ZM1074.48 105.24L1075.44 138.36H1078.2L1077.12 105.24H1074.48ZM1087.56 99.12L1088.52 132.12H1091.28L1090.2 99.12H1087.56ZM1100.88 90.6L1101.84 123.72H1104.6L1103.52 90.6H1100.88ZM1113.36 83.28L1114.32 116.4H1117.08L1116 83.28H1113.36ZM1127.64 72.24L1128.72 105.24H1131.48L1130.28 72.24H1127.64ZM1139.76 61.68L1140.72 94.08H1143.48L1142.52 60.24L1139.76 61.68Z" fill="#FFBF27"/>
<path d="M1117.08 6.35999C1117.08 6.35999 1125.96 118.08 1264.92 118.08C1403.76 118.08 1437.84 6.35999 1437.84 6.35999H1117.08Z" fill="#FFBF27"/>
<path d="M1121.16 0.23999C1121.16 0.23999 1130.04 111.84 1269 111.84C1407.84 111.84 1441.92 0.23999 1441.92 0.23999H1121.16Z" fill="#AF1C1A"/>
<path d="M1117.08 0.23999C1117.08 0.23999 1125.96 111.84 1264.92 111.84C1403.76 111.84 1437.84 0.23999 1437.84 0.23999H1117.08Z" fill="#D53A38"/>
<path d="M1268.4 102.36C1373.52 102.36 1418.52 1.80005 1418.52 1.80005C1418.52 1.80005 1344.12 89.16 1262.88 89.16C1181.52 89.16 1132.32 12 1132.32 12C1132.32 12 1171.68 102.36 1268.4 102.36Z" fill="#FE5A59"/>
<path d="M1269 94.08C1365.72 94.08 1419.48 0.23999 1419.48 0.23999C1419.48 0.23999 1344.24 83.88 1262.88 83.88C1181.52 83.88 1131.96 10.2 1131.96 10.2C1131.96 10.2 1172.28 94.08 1269 94.08Z" fill="#AF1C1A"/>
<path d="M1129.68 0.23999C1129.68 0.23999 1199.52 75.96 1271.4 74.4C1347 72.84 1394.52 0.23999 1394.52 0.23999C1394.52 0.23999 1323.36 62.52 1269.48 62.52C1215.6 62.64 1129.68 0.23999 1129.68 0.23999Z" fill="#FE5A59"/>
<path d="M1129.68 0.23999C1129.68 0.23999 1198.2 67.92 1270.2 67.92C1342.2 67.92 1394.52 0.23999 1394.52 0.23999C1394.52 0.23999 1321.68 57 1267.8 57C1213.92 57.12 1129.68 0.23999 1129.68 0.23999Z" fill="#AF1C1A"/>
<path d="M1176.12 0.23999C1176.12 0.23999 1225.2 39 1273.08 39C1320.96 39 1351.56 0.23999 1351.56 0.23999C1351.56 0.23999 1308.96 28.44 1273.92 28.44C1238.88 28.44 1176.12 0.23999 1176.12 0.23999Z" fill="#AF1C1A"/>
<path d="M1176.12 0.23999C1176.12 0.23999 1226.64 43.2 1274.64 43.2C1322.52 43.2 1351.56 0.23999 1351.56 0.23999C1351.56 0.23999 1308.72 35.76 1273.68 35.76C1238.64 35.76 1176.12 0.23999 1176.12 0.23999Z" fill="#FE5A59"/>
<path d="M1146.36 67.56L1147.32 100.56H1150.08L1148.88 72.36L1146.36 67.56ZM1161 81.12L1162.08 114.12H1164.84L1163.64 84.24L1161 81.12ZM1175.52 95.04L1176.6 128.16H1179.36L1178.16 95.04H1175.52ZM1192.8 103.32L1193.76 136.32H1196.52L1195.44 103.32H1192.8ZM1209.6 109.56L1210.56 142.56H1213.32L1212.24 109.56H1209.6ZM1227.6 113.4L1228.56 146.52H1231.32L1230.24 113.4H1227.6ZM1245.12 116.64L1246.08 149.64H1248.84L1247.64 116.64H1245.12ZM1259.16 116.64L1260.12 149.64H1262.88L1261.68 116.64H1259.16ZM1276.08 116.64L1277.04 149.64H1279.8L1278.72 116.64H1276.08ZM1291.68 115.56L1292.64 148.68H1295.4L1294.32 115.56H1291.68ZM1306.44 113.4L1307.4 146.52H1310.16L1309.08 113.4H1306.44ZM1323.72 109.44L1324.68 142.44H1327.44L1326.36 109.44H1323.72ZM1337.04 105.24L1338 138.36H1340.76L1339.68 105.24H1337.04ZM1350.12 99.12L1351.08 132.12H1353.84L1352.76 99.12H1350.12ZM1363.44 90.6L1364.52 123.72H1367.28L1366.08 90.6H1363.44ZM1375.92 83.28L1376.88 116.4H1379.64L1378.56 83.28H1375.92ZM1390.32 72.24L1391.28 105.24H1394.04L1392.84 72.24H1390.32ZM1402.32 61.68L1403.28 94.08H1406.04L1405.2 60.24L1402.32 61.68ZM0.600098 6.35999C0.600098 6.35999 9.4801 118.08 148.44 118.08C287.28 118.08 321.36 6.35999 321.36 6.35999H0.600098Z" fill="#FFBF27"/>
<path d="M4.80005 0.23999C4.80005 0.23999 13.68 111.84 152.64 111.84C291.48 111.84 325.56 0.23999 325.56 0.23999H4.80005Z" fill="#AF1C1A"/>
<path d="M0.600098 0.23999C0.600098 0.23999 9.4801 111.84 148.44 111.84C287.28 111.84 321.36 0.23999 321.36 0.23999H0.600098Z" fill="#D53A38"/>
<path d="M152.04 102.36C257.16 102.36 302.16 1.80005 302.16 1.80005C302.16 1.80005 227.76 89.16 146.52 89.16C65.1601 89.16 15.8401 12 15.8401 12C15.8401 12 55.3201 102.36 152.04 102.36Z" fill="#FE5A59"/>
<path d="M152.64 94.08C249.36 94.08 303.12 0.23999 303.12 0.23999C303.12 0.23999 227.88 83.88 146.52 83.88C65.1601 83.88 15.6001 10.2 15.6001 10.2C15.6001 10.2 55.9201 94.08 152.64 94.08Z" fill="#AF1C1A"/>
<path d="M13.3201 0.23999C13.3201 0.23999 83.1601 75.96 155.04 74.4C230.64 72.84 278.16 0.23999 278.16 0.23999C278.16 0.23999 207 62.52 153.12 62.52C99.1201 62.64 13.3201 0.23999 13.3201 0.23999Z" fill="#FE5A59"/>
<path d="M13.3201 0.23999C13.3201 0.23999 81.8401 67.92 153.84 67.92C225.84 67.92 278.16 0.23999 278.16 0.23999C278.16 0.23999 205.32 57 151.44 57C97.4401 57.12 13.3201 0.23999 13.3201 0.23999Z" fill="#AF1C1A"/>
<path d="M59.6399 0.23999C59.6399 0.23999 108.72 39 156.6 39C204.48 39 235.08 0.23999 235.08 0.23999C235.08 0.23999 192.48 28.44 157.44 28.44C122.4 28.44 59.6399 0.23999 59.6399 0.23999Z" fill="#AF1C1A"/>
<path d="M59.6399 0.23999C59.6399 0.23999 110.16 43.2 158.16 43.2C206.16 43.2 235.08 0.23999 235.08 0.23999C235.08 0.23999 192.24 35.76 157.2 35.76C122.28 35.76 59.6399 0.23999 59.6399 0.23999Z" fill="#FE5A59"/>
<path d="M29.8799 67.56L30.8399 100.56H33.5999L32.5199 72.36L29.8799 67.56ZM44.6399 81.12L45.5999 114.12H48.3599L47.2799 84.24L44.6399 81.12ZM59.1599 95.04L60.1199 128.16H62.8799L61.7999 95.04H59.1599ZM76.4399 103.32L77.3999 136.32H80.1599L78.9599 103.32H76.4399ZM93.2399 109.56L94.1999 142.56H96.9599L95.7599 109.56H93.2399ZM111.12 113.4L112.08 146.52H114.84L113.76 113.4H111.12ZM128.64 116.64L129.6 149.64H132.36L131.28 116.64H128.64ZM142.68 116.64L143.64 149.64H146.4L145.32 116.64H142.68ZM159.6 116.64L160.68 149.64H163.44L162.24 116.64H159.6ZM175.2 115.56L176.16 148.68H178.92L177.84 115.56H175.2ZM189.96 113.4L191.04 146.52H193.8L192.6 113.4H189.96ZM207.24 109.44L208.32 142.44H211.08L209.88 109.44H207.24ZM220.68 105.24L221.64 138.36H224.4L223.2 105.24H220.68ZM233.76 99.12L234.72 132.12H237.48L236.28 99.12H233.76ZM247.08 90.6L248.04 123.72H250.8L249.72 90.6H247.08ZM259.44 83.28L260.52 116.4H263.28L262.08 83.28H259.44ZM273.84 72.24L274.8 105.24H277.56L276.48 72.24H273.84ZM285.84 61.68L286.92 94.08H289.68L288.72 60.24L285.84 61.68ZM315.6 66.96L316.56 98.04H319.32L318.72 70.08L315.6 66.96ZM330.36 81.48L331.32 111.6H334.08L333.12 84.24L330.36 81.48ZM344.88 92.52L345.84 125.52H348.6L347.52 92.52H344.88ZM362.16 100.68L363.12 133.8H365.88L364.8 100.68H362.16ZM378.96 106.92L379.92 140.04H382.68L381.48 106.92H378.96ZM396.84 110.88L397.92 143.88H400.68L399.48 110.88H396.84ZM414.36 114.12L415.32 147.12H418.08L417 114.12H414.36ZM428.4 115.68L429.36 148.68H432.12L431.04 115.68H428.4ZM445.44 115.68L446.4 148.68H449.16L447.96 115.68H445.44ZM460.32 114.12L461.4 147.12H464.16L462.96 114.12H460.32ZM476.52 112.2L477.48 145.2H480.24L479.04 112.2H476.52ZM492.96 109.08L494.04 142.08H496.8L495.6 109.08H492.96ZM506.4 104.88L507.36 138H510.12L508.92 104.88H506.4ZM520.2 99.12L521.16 132.24H523.92L522.84 99.12H520.2ZM533.52 92.52L534.48 125.52H537.24L536.16 92.52H533.52ZM546.24 85.32L547.2 118.44H549.96L548.88 85.32H546.24ZM559.56 75.96L560.52 109.08H563.28L562.2 75.96H559.56ZM572.52 65.16L573.48 97.56H576.24L575.16 64.44L572.52 65.16ZM582 55.56L582.72 88.08H585.48L584.28 55.08L582 55.56ZM590.52 46.56L591.48 77.16H594.24L593.04 44.04L590.52 46.56ZM601.68 30.6L602.64 61.08H605.4L604.2 28.08L601.68 30.6ZM610.8 14.04L611.64 44.52H614.4L613.32 11.52L610.8 14.04Z" fill="#FFBF27"/>
<path d="M1385.4 479.04L1355.76 480.12L1335.36 527.28L1362.6 532.44L1385.4 479.04ZM1389.36 479.28L1365 533.16L1418.28 543.72L1423.92 531.48L1389.36 479.28Z" fill="#354740"/>
<path d="M1374.72 486.24L1358.52 486.6L1342.44 524.28L1357.68 527.76L1374.72 486.24Z" fill="#FFCC7B"/>
<path d="M1367.88 502.8C1367.88 502.8 1358.76 497.16 1355.28 505.8C1351.68 514.44 1362.6 515.76 1362.6 515.76L1367.88 502.8Z" fill="white"/>
</g>
<path opacity="0.5" d="M1100 532.431L1273.05 537L1277.67 531.916L1120.56 528.111L1100 532.431Z" fill="#071A3D" fill-opacity="0.48"/>
<path d="M1118.18 494.493C1143.67 494.724 1160.3 517.978 1203.14 515.969C1234.76 514.547 1267.68 486.582 1279.71 490.724C1279.71 490.724 1281.01 499.204 1274.29 499.916C1274.29 499.916 1260.61 521.533 1203.14 524.129C1156.18 526.262 1129.16 498.387 1118.18 505.356V494.511V494.493Z" fill="#942408"/>
<path d="M1172.1 474.067L1131.63 473C1131.63 473 1143.88 516.449 1150.74 521.053C1150.74 521.178 1134.47 478.689 1172.1 474.067ZM1213.64 502.636C1212.93 502.28 1212.11 501.924 1211.27 501.569C1199.83 497.32 1193.22 501.8 1192.51 502.28L1195.94 507.613L1195.82 507.72C1195.82 507.72 1204.56 504.289 1211.63 508.893L1213.64 502.636Z" fill="#1F130E"/>
<path d="M1166.56 529.907C1181.3 532.271 1195.23 521.64 1197.47 506.404C1199.71 491.062 1189.56 476.787 1174.82 474.529C1160.05 472.182 1146.14 482.796 1143.88 498.031C1141.65 513.267 1151.79 527.542 1166.54 529.907H1166.56ZM1147.67 498.511C1149.68 485.267 1161.47 476.431 1174.23 478.422C1186.97 480.431 1195.69 492.467 1193.81 505.711C1191.93 518.92 1180 528.022 1167.27 526.013C1154.4 524.004 1145.68 511.72 1147.67 498.511Z" fill="#1F130E"/>
<path d="M1147.67 498.511C1145.68 511.72 1154.53 524.004 1167.14 526.013C1179.9 528.022 1191.8 518.92 1193.7 505.711C1195.69 492.484 1186.85 480.2 1174.23 478.191C1161.62 476.307 1149.68 485.391 1147.67 498.511ZM1153 499.329C1154.53 489.178 1163.73 482.084 1173.52 483.738C1183.29 485.284 1190.04 494.724 1188.62 505C1187.09 515.133 1177.89 522.244 1168.08 520.573C1158.19 519.044 1151.45 509.604 1152.98 499.329H1153Z" fill="#392A28"/>
<path d="M1151.45 499.098C1149.8 510.067 1157.12 520.342 1167.73 521.996C1178.35 523.649 1188.27 516.093 1189.94 505.107C1191.57 494.138 1184.25 483.862 1173.64 482.209C1163.02 480.556 1153.11 488.111 1151.44 499.098H1151.45ZM1155.11 499.684C1155.39 497.605 1156.07 495.6 1157.12 493.785C1158.18 491.97 1159.58 490.381 1161.24 489.109C1162.91 487.837 1164.81 486.907 1166.84 486.373C1168.87 485.839 1170.98 485.71 1173.06 485.996C1181.66 487.293 1187.56 495.667 1186.26 504.52C1185.98 506.6 1185.3 508.605 1184.25 510.419C1183.2 512.234 1181.8 513.823 1180.13 515.095C1178.46 516.367 1176.56 517.297 1174.53 517.831C1172.5 518.366 1170.39 518.494 1168.31 518.209C1159.71 516.929 1153.82 508.538 1155.11 499.684Z" fill="#1F130E"/>
<path d="M1152.87 499.329C1151.33 509.48 1158.06 519.062 1167.98 520.573C1177.75 522.12 1186.99 515.151 1188.5 505C1190.04 494.849 1183.31 485.267 1173.4 483.738C1163.62 482.209 1154.38 489.178 1152.87 499.329ZM1156.29 499.916C1156.52 497.982 1157.15 496.116 1158.12 494.428C1159.09 492.739 1160.39 491.263 1161.95 490.087C1163.5 488.91 1165.27 488.056 1167.16 487.577C1169.04 487.097 1171.01 487.001 1172.93 487.293C1176.8 487.98 1180.24 490.161 1182.51 493.363C1184.79 496.566 1185.71 500.535 1185.09 504.413C1184.85 506.347 1184.22 508.213 1183.25 509.901C1182.28 511.589 1180.98 513.065 1179.43 514.242C1177.87 515.419 1176.1 516.272 1174.22 516.752C1172.33 517.232 1170.36 517.328 1168.44 517.036C1160.53 515.862 1155.11 508.182 1156.29 499.916Z" fill="#BDA070"/>
<path d="M1154.63 499.56C1153.91 503.926 1154.95 508.401 1157.51 512.007C1160.07 515.614 1163.96 518.061 1168.31 518.813C1177.18 520.236 1185.55 513.836 1186.85 504.644C1187.57 500.278 1186.53 495.804 1183.97 492.197C1181.41 488.59 1177.52 486.144 1173.16 485.391C1164.32 483.969 1155.93 490.369 1154.63 499.56ZM1172.93 487.293C1176.8 487.98 1180.24 490.161 1182.51 493.363C1184.79 496.566 1185.71 500.535 1185.09 504.413C1184.85 506.347 1184.22 508.213 1183.25 509.901C1182.28 511.589 1180.98 513.066 1179.43 514.242C1177.87 515.419 1176.1 516.272 1174.22 516.752C1172.33 517.232 1170.36 517.328 1168.44 517.036C1164.57 516.348 1161.13 514.168 1158.86 510.966C1156.59 507.763 1155.66 503.794 1156.29 499.916C1156.52 497.982 1157.15 496.116 1158.12 494.428C1159.09 492.739 1160.39 491.263 1161.95 490.087C1163.5 488.91 1165.27 488.057 1167.16 487.577C1169.04 487.097 1171.01 487.001 1172.93 487.293Z" fill="#FFB53B"/>
<path opacity="0.9" d="M1172.93 487.293C1176.8 487.98 1180.24 490.161 1182.51 493.363C1184.79 496.566 1185.71 500.535 1185.09 504.413C1184.85 506.347 1184.22 508.213 1183.25 509.901C1182.28 511.589 1180.98 513.066 1179.43 514.242C1177.87 515.419 1176.1 516.272 1174.22 516.752C1172.33 517.232 1170.36 517.328 1168.44 517.036C1164.57 516.348 1161.13 514.168 1158.86 510.966C1156.59 507.763 1155.66 503.794 1156.29 499.916C1156.52 497.982 1157.15 496.116 1158.12 494.428C1159.09 492.739 1160.39 491.263 1161.95 490.087C1163.5 488.91 1165.27 488.057 1167.16 487.577C1169.04 487.097 1171.01 487.001 1172.93 487.293Z" fill="#001845"/>
<path d="M1173.98 478.191L1136.23 477.124C1136.23 477.124 1148.97 511.133 1149.09 511.258C1149.09 511.364 1148.86 499.347 1154.78 491.524C1161.24 482.813 1173.98 478.191 1173.98 478.191Z" fill="#392A28"/>
<path opacity="0.5" d="M1156.05 486.102C1156.05 486.102 1155.7 486.689 1154.99 487.756C1154.63 488.236 1154.28 488.947 1153.92 489.64C1153.69 489.996 1153.57 490.476 1153.34 490.831C1153.11 491.293 1152.98 491.649 1152.75 492.129C1152.29 493.126 1151.9 494.153 1151.58 495.204C1151.22 496.378 1150.87 497.551 1150.74 498.76C1150.26 501.369 1150.26 504.044 1150.74 506.653C1151.18 509.297 1152.15 511.825 1153.59 514.084C1154.3 515.151 1155.01 516.218 1155.72 517.036C1156.43 517.978 1157.23 518.689 1157.94 519.4C1158.29 519.756 1158.65 520.111 1159 520.342C1159.36 520.698 1159.71 520.929 1160.07 521.178C1160.78 521.64 1161.37 521.996 1161.85 522.351C1162.31 522.707 1162.79 522.831 1163.02 523.062L1163.48 523.293C1163.48 523.293 1163.37 523.293 1163.02 523.187L1161.72 522.707C1161.14 522.476 1160.53 522.12 1159.82 521.764C1159.11 521.284 1158.29 520.822 1157.48 520.236C1153.33 517.024 1150.52 512.398 1149.57 507.24C1149.32 505.818 1149.21 504.396 1149.21 502.973C1149.21 501.569 1149.45 500.147 1149.68 498.849C1149.93 497.551 1150.39 496.253 1150.74 495.204C1150.97 494.6 1151.22 494.013 1151.45 493.551L1152.16 492.004C1152.39 491.471 1152.63 490.956 1152.87 490.6C1153.11 490.244 1153.34 489.782 1153.59 489.427C1154.05 488.716 1154.53 488.129 1154.88 487.649C1155.59 486.476 1156.05 485.996 1156.05 485.996V486.102Z" fill="#99763A"/>
<path d="M1191.22 495.667C1191.34 496.253 1191.45 496.964 1191.45 497.907C1191.45 498.387 1191.57 498.742 1191.57 499.204V500.751C1191.57 501.818 1191.57 502.884 1191.45 504.058C1191.34 505.231 1191.09 506.404 1190.86 507.72C1190.63 509.018 1190.15 510.209 1189.56 511.489C1188.46 513.971 1186.9 516.216 1184.94 518.102C1184.13 519.044 1183.18 519.88 1182.12 520.591C1181.07 521.302 1180 521.871 1179.05 522.369C1177.98 522.831 1177.04 523.293 1176.1 523.524L1174.67 523.88C1174.19 524.004 1173.84 524.129 1173.38 524.236L1171.25 524.591C1170.66 524.716 1170.18 524.716 1169.82 524.716C1170.18 524.716 1170.66 524.84 1171.25 524.84C1171.83 524.84 1172.54 524.84 1173.38 524.716C1174.19 524.591 1175.15 524.484 1176.22 524.236C1179.84 523.29 1183.17 521.457 1185.9 518.902C1186.92 517.957 1187.82 516.895 1188.59 515.738C1189.44 514.564 1190.15 513.249 1190.61 511.969C1191.18 510.686 1191.58 509.336 1191.8 507.951C1192.16 506.653 1192.26 505.356 1192.26 504.04V502.262C1192.26 501.693 1192.26 501.107 1192.16 500.627C1192.18 500.147 1192.07 499.56 1192.07 499.098C1191.91 498.618 1191.91 498.156 1191.8 497.8C1191.68 496.964 1191.45 496.253 1191.32 495.667H1191.22Z" fill="#99763A"/>
<path d="M1155.11 498.742L1139.53 498.262C1135.87 498.742 1136.12 502.173 1139.42 502.991L1154.76 503.453L1155.11 498.742Z" fill="#FFB53B"/>
<path d="M1136.12 508.769C1138.82 508.413 1141.41 505.924 1141.77 501.569L1139.41 501.462C1139.09 504.644 1137.19 506.422 1135.53 506.422C1133.63 506.422 1132.21 504.289 1132.11 501.089C1131.98 498.831 1132.57 497.178 1133.63 496.484C1134.16 496.192 1134.75 496.038 1135.35 496.038C1135.95 496.038 1136.54 496.192 1137.06 496.484C1137.88 496.947 1138.84 497.782 1138.84 498.973L1141.31 498.831C1141.22 497.851 1140.89 496.909 1140.32 496.101C1139.76 495.293 1139 494.647 1138.11 494.227C1137.2 493.722 1136.18 493.468 1135.14 493.49C1134.11 493.511 1133.1 493.809 1132.21 494.351C1130.91 495.187 1129.39 497.071 1129.51 501.196C1129.87 506.884 1132.92 508.876 1135.41 509.018C1135.52 508.751 1135.87 508.751 1136.12 508.751V508.769Z" fill="#FFB53B"/>
<path d="M1237.46 475.844L1277.94 476.911C1277.94 476.911 1263.31 519.631 1256.23 523.88C1256.35 524.004 1274.88 482.458 1237.46 475.827V475.844Z" fill="#1F130E"/>
<path d="M1264.38 501.213C1262.96 485.747 1249.74 474.547 1234.89 476.076C1220.02 477.604 1209.04 491.293 1210.46 506.76C1211.88 522.227 1225.08 533.427 1240.07 531.827C1254.93 530.28 1265.78 516.573 1264.38 501.107V501.213ZM1239.6 528.022C1226.73 529.32 1215.41 519.631 1214.1 506.298C1212.93 493.071 1222.25 481.391 1235.12 480.076C1247.98 478.778 1259.3 488.236 1260.49 501.587C1261.91 514.92 1252.46 526.724 1239.6 528.022Z" fill="#1F130E"/>
<path d="M1235.12 479.969C1222.25 481.267 1212.93 493.071 1214.1 506.28C1215.29 519.524 1226.73 529.32 1239.6 528.022C1252.46 526.724 1261.79 514.92 1260.6 501.693C1259.3 488.36 1247.98 478.671 1235.12 479.969ZM1239.01 522.458C1229.09 523.524 1220.35 515.969 1219.41 505.711C1218.47 495.436 1225.67 486.333 1235.58 485.391C1245.53 484.324 1254.24 491.898 1255.28 502.156C1256.35 512.431 1249.03 521.533 1239.12 522.476L1239.01 522.458Z" fill="#392A28"/>
<path d="M1235.58 483.844C1224.85 484.911 1217.07 494.849 1218.11 505.818C1219.18 516.929 1228.62 524.947 1239.36 523.88C1250.1 522.813 1257.88 512.911 1256.83 501.924C1255.76 490.831 1246.2 482.796 1235.58 483.862V483.844ZM1238.88 520.111C1236.79 520.286 1234.68 520.046 1232.68 519.404C1230.68 518.762 1228.83 517.73 1227.23 516.369C1225.62 515.008 1224.31 513.344 1223.35 511.472C1222.39 509.6 1221.82 507.558 1221.65 505.462C1221.21 501.23 1222.45 496.995 1225.1 493.665C1227.75 490.335 1231.59 488.175 1235.81 487.649C1237.9 487.474 1240.01 487.713 1242.01 488.355C1244.01 488.996 1245.86 490.025 1247.46 491.385C1249.06 492.744 1250.38 494.406 1251.34 496.276C1252.3 498.145 1252.88 500.186 1253.04 502.28C1253.88 511.258 1247.5 519.276 1238.88 520.111Z" fill="#1F130E"/>
<path d="M1235.7 485.391C1225.79 486.458 1218.59 495.542 1219.54 505.836C1220.48 516.093 1229.33 523.524 1239.12 522.582C1249.03 521.64 1256.23 512.449 1255.28 502.28C1254.34 491.898 1245.62 484.449 1235.7 485.391ZM1238.78 518.92C1230.75 519.756 1223.68 513.729 1222.84 505.356C1222.41 501.43 1223.54 497.493 1225.99 494.398C1228.45 491.303 1232.02 489.299 1235.94 488.822C1243.97 487.987 1251.04 494.013 1251.87 502.404C1252.32 506.336 1251.19 510.286 1248.74 513.386C1246.28 516.486 1242.69 518.483 1238.76 518.938L1238.78 518.92Z" fill="#BDA070"/>
<path d="M1235.81 487.044C1231.44 487.566 1227.45 489.794 1224.71 493.243C1221.97 496.692 1220.71 501.084 1221.19 505.462C1221.34 507.633 1221.93 509.752 1222.92 511.693C1223.9 513.634 1225.26 515.359 1226.92 516.766C1228.58 518.173 1230.51 519.235 1232.58 519.889C1234.66 520.543 1236.84 520.775 1239.01 520.573C1247.98 519.631 1254.47 511.364 1253.63 502.156C1253.26 497.793 1251.17 493.757 1247.83 490.926C1244.49 488.095 1240.17 486.7 1235.81 487.044ZM1251.87 502.511C1252.3 506.437 1251.17 510.374 1248.72 513.469C1246.27 516.564 1242.7 518.567 1238.78 519.044C1230.75 519.88 1223.68 513.853 1222.84 505.462C1222.41 501.537 1223.54 497.599 1225.99 494.504C1228.45 491.409 1232.02 489.406 1235.94 488.929C1237.88 488.761 1239.83 488.981 1241.68 489.574C1243.54 490.168 1245.26 491.125 1246.74 492.388C1248.22 493.652 1249.44 495.197 1250.32 496.935C1251.2 498.672 1251.73 500.568 1251.87 502.511Z" fill="#FFB53B"/>
<path opacity="0.9" d="M1236.06 488.947C1232.13 489.406 1228.55 491.405 1226.1 494.504C1223.64 497.604 1222.52 501.551 1222.97 505.48C1223.78 513.729 1230.87 519.88 1238.88 519.044C1242.81 518.585 1246.39 516.587 1248.85 513.487C1251.3 510.388 1252.43 506.44 1251.98 502.511C1251.16 494.244 1243.97 488.111 1236.06 488.947Z" fill="#001845"/>
<path d="M1235.47 479.844L1273.23 480.911C1273.23 480.911 1258.59 514.084 1258.48 514.209C1258.48 514.209 1259.3 502.298 1253.99 494.244C1247.86 485.178 1235.47 479.844 1235.47 479.844Z" fill="#392A28"/>
<path opacity="0.5" d="M1252.92 488.698L1253.88 490.351C1254.11 490.938 1254.47 491.542 1254.82 492.253C1254.93 492.609 1255.18 493.071 1255.41 493.427C1255.64 493.907 1255.76 494.369 1255.99 494.849C1256.35 495.738 1256.7 496.804 1257.06 497.924C1257.29 499.098 1257.65 500.289 1257.77 501.587C1257.88 502.884 1257.88 504.182 1257.88 505.48C1257.88 506.778 1257.65 508.182 1257.29 509.48C1256.94 510.778 1256.58 512.076 1255.99 513.249C1255.44 514.43 1254.81 515.576 1254.11 516.68C1253.4 517.747 1252.69 518.689 1251.87 519.524C1251.04 520.342 1250.22 521.16 1249.51 521.747C1249.15 522.102 1248.67 522.351 1248.32 522.707L1247.25 523.436C1246.54 523.898 1245.97 524.253 1245.37 524.502C1244.91 524.733 1244.43 524.964 1244.07 525.071L1243.61 525.32L1244.07 525.178C1244.43 525.053 1244.78 524.947 1245.37 524.716L1247.38 523.88C1249.24 522.959 1250.95 521.76 1252.46 520.324C1253.4 519.507 1254.24 518.564 1254.95 517.498C1255.76 516.431 1256.47 515.258 1257.06 513.96C1257.65 512.662 1258.13 511.364 1258.48 509.942C1258.84 508.52 1259.07 507.098 1259.07 505.693C1259.07 504.271 1259.07 502.849 1258.84 501.569C1258.71 500.271 1258.36 498.973 1258 497.782C1257.77 497.178 1257.65 496.591 1257.42 496.111L1256.7 494.582L1255.99 493.16C1255.79 492.751 1255.55 492.359 1255.28 491.987L1254.11 490.12C1253.68 489.636 1253.28 489.119 1252.92 488.573V488.698Z" fill="#99763A"/>
<path d="M1217.76 494.493C1217.76 494.493 1217.65 495.204 1217.4 496.378L1217.05 498.511C1217.05 498.973 1216.94 499.329 1216.94 499.809C1216.94 500.271 1216.82 500.751 1216.82 501.338C1216.7 502.437 1216.7 503.545 1216.82 504.644C1216.94 505.818 1217.07 507.009 1217.3 508.307C1218.06 512.241 1219.85 515.904 1222.49 518.92C1223.43 519.88 1224.26 520.822 1225.33 521.533C1227.16 522.92 1229.18 524.034 1231.33 524.84C1231.81 525.071 1232.28 525.196 1232.75 525.302L1234.05 525.658C1234.87 525.889 1235.58 526.013 1236.18 526.138C1236.77 526.244 1237.25 526.244 1237.61 526.369H1236.18C1235.58 526.369 1234.87 526.244 1234.05 526.138C1233.22 526.013 1232.28 525.889 1231.33 525.533C1230.39 525.302 1229.33 524.822 1228.14 524.36C1227.07 523.88 1226 523.187 1224.85 522.476C1223.71 521.702 1222.68 520.788 1221.77 519.756C1220.83 518.689 1220 517.622 1219.18 516.324C1218.47 515.151 1217.76 513.836 1217.4 512.413C1216.94 511.111 1216.58 509.774 1216.34 508.413C1216.11 507.116 1216.11 505.818 1216.11 504.502C1216.11 503.933 1216.11 503.347 1216.23 502.724C1216.36 502.156 1216.36 501.569 1216.46 501.107C1216.59 500.716 1216.59 500.04 1216.71 499.649C1216.82 499.187 1216.94 498.707 1217.07 498.351C1217.3 497.569 1217.53 496.858 1217.65 496.271C1217.53 495.329 1217.76 494.618 1217.76 494.618V494.493Z" fill="#99763A"/>
<path d="M1253.15 501.444L1268.73 501.8C1272.39 502.511 1271.93 505.942 1268.63 506.529L1253.28 506.067L1253.17 501.444H1253.15Z" fill="#FFB53B"/>
<path d="M1271.58 512.431C1268.98 511.969 1266.39 509.373 1266.39 504.876H1268.88C1268.88 508.076 1270.74 509.96 1272.39 510.067C1274.29 510.191 1275.82 508.182 1276.18 504.876C1276.41 502.636 1275.95 500.964 1274.88 500.271C1274.05 499.684 1272.75 499.56 1271.45 500.147C1270.63 500.502 1269.57 501.338 1269.44 502.511L1266.96 502.28C1267.21 500.396 1268.38 498.724 1270.39 497.907C1271.32 497.45 1272.36 497.252 1273.4 497.333C1274.43 497.414 1275.43 497.772 1276.28 498.369C1277.58 499.311 1279 501.32 1278.65 505.338C1278.06 511.027 1274.88 512.893 1272.29 512.769C1272.07 512.639 1271.83 512.56 1271.58 512.538V512.431Z" fill="#FFB53B"/>
<path d="M1274.17 499.916C1274.17 499.916 1278.19 496.964 1279.59 490.707L1281.37 500.147C1281.37 500.147 1282.31 504.52 1275.11 507.596C1275.24 507.72 1276.05 504.396 1274.17 499.916ZM1132.57 497.782C1132.57 497.782 1129.97 497.907 1118.18 494.6V505.462C1118.18 505.462 1124.2 506.173 1133.53 505.462C1133.53 505.462 1131.63 501.693 1132.57 497.8V497.782Z" fill="#9F3709"/>
</g>
<defs>
<linearGradient id="paint0_linear_2007_3767" x1="692.16" y1="537.12" x2="755.76" y2="536.64" gradientUnits="userSpaceOnUse">
<stop offset="0.2" stop-color="white"/>
<stop offset="0.6" stop-color="#951319"/>
<stop offset="1" stop-color="#250640"/>
</linearGradient>
<linearGradient id="paint1_linear_2007_3767" x1="790.56" y1="528.24" x2="868.92" y2="527.64" gradientUnits="userSpaceOnUse">
<stop offset="0.2" stop-color="white"/>
<stop offset="0.6" stop-color="#951319"/>
<stop offset="1" stop-color="#250640"/>
</linearGradient>
<linearGradient id="paint2_linear_2007_3767" x1="873.6" y1="542.28" x2="930.6" y2="541.8" gradientUnits="userSpaceOnUse">
<stop offset="0.2" stop-color="white"/>
<stop offset="0.6" stop-color="#951319"/>
<stop offset="1" stop-color="#250640"/>
</linearGradient>
<linearGradient id="paint3_linear_2007_3767" x1="927.24" y1="532.08" x2="996" y2="531.48" gradientUnits="userSpaceOnUse">
<stop offset="0.2" stop-color="white"/>
<stop offset="0.6" stop-color="#951319"/>
<stop offset="1" stop-color="#250640"/>
</linearGradient>
<linearGradient id="paint4_linear_2007_3767" x1="1120.32" y1="532.08" x2="1189.08" y2="531.48" gradientUnits="userSpaceOnUse">
<stop offset="0.2" stop-color="white"/>
<stop offset="0.6" stop-color="#951319"/>
<stop offset="1" stop-color="#250640"/>
</linearGradient>
<linearGradient id="paint5_linear_2007_3767" x1="1184.64" y1="532.08" x2="1253.4" y2="531.48" gradientUnits="userSpaceOnUse">
<stop offset="0.2" stop-color="white"/>
<stop offset="0.6" stop-color="#951319"/>
<stop offset="1" stop-color="#250640"/>
</linearGradient>
<linearGradient id="paint6_linear_2007_3767" x1="1245.36" y1="532.08" x2="1314.12" y2="531.48" gradientUnits="userSpaceOnUse">
<stop offset="0.2" stop-color="white"/>
<stop offset="0.6" stop-color="#951319"/>
<stop offset="1" stop-color="#250640"/>
</linearGradient>
<linearGradient id="paint7_linear_2007_3767" x1="1313.64" y1="529.56" x2="1356.24" y2="529.2" gradientUnits="userSpaceOnUse">
<stop offset="0.2" stop-color="white"/>
<stop offset="0.6" stop-color="#951319"/>
<stop offset="1" stop-color="#250640"/>
</linearGradient>
<linearGradient id="paint8_linear_2007_3767" x1="1365.48" y1="529.56" x2="1408.08" y2="529.2" gradientUnits="userSpaceOnUse">
<stop offset="0.2" stop-color="white"/>
<stop offset="0.6" stop-color="#951319"/>
<stop offset="1" stop-color="#250640"/>
</linearGradient>
<linearGradient id="paint9_linear_2007_3767" x1="1000.92" y1="538.44" x2="1060.56" y2="537.96" gradientUnits="userSpaceOnUse">
<stop offset="0.2" stop-color="white"/>
<stop offset="0.6" stop-color="#951319"/>
<stop offset="1" stop-color="#250640"/>
</linearGradient>
<linearGradient id="paint10_linear_2007_3767" x1="1071.48" y1="602.16" x2="1114.8" y2="601.8" gradientUnits="userSpaceOnUse">
<stop offset="0.2" stop-color="white"/>
<stop offset="0.6" stop-color="#951319"/>
<stop offset="1" stop-color="#250640"/>
</linearGradient>
<linearGradient id="paint11_linear_2007_3767" x1="747.36" y1="529.68" x2="792" y2="529.32" gradientUnits="userSpaceOnUse">
<stop offset="0.2" stop-color="white"/>
<stop offset="0.6" stop-color="#951319"/>
<stop offset="1" stop-color="#250640"/>
</linearGradient>
<linearGradient id="paint12_linear_2007_3767" x1="1113.6" y1="538.92" x2="1176.96" y2="538.44" gradientUnits="userSpaceOnUse">
<stop offset="0.2" stop-color="white"/>
<stop offset="0.6" stop-color="#951319"/>
<stop offset="1" stop-color="#250640"/>
</linearGradient>
<linearGradient id="paint13_linear_2007_3767" x1="1211.52" y1="530.04" x2="1289.4" y2="529.44" gradientUnits="userSpaceOnUse">
<stop offset="0.2" stop-color="white"/>
<stop offset="0.6" stop-color="#951319"/>
<stop offset="1" stop-color="#250640"/>
</linearGradient>
<linearGradient id="paint14_linear_2007_3767" x1="1293.96" y1="544.08" x2="1350.72" y2="543.6" gradientUnits="userSpaceOnUse">
<stop offset="0.2" stop-color="white"/>
<stop offset="0.6" stop-color="#951319"/>
<stop offset="1" stop-color="#250640"/>
</linearGradient>
<linearGradient id="paint15_linear_2007_3767" x1="1347.24" y1="533.76" x2="1415.64" y2="533.28" gradientUnits="userSpaceOnUse">
<stop offset="0.2" stop-color="white"/>
<stop offset="0.6" stop-color="#951319"/>
<stop offset="1" stop-color="#250640"/>
</linearGradient>
<linearGradient id="paint16_linear_2007_3767" x1="1539.24" y1="533.76" x2="1607.52" y2="533.28" gradientUnits="userSpaceOnUse">
<stop offset="0.2" stop-color="white"/>
<stop offset="0.6" stop-color="#951319"/>
<stop offset="1" stop-color="#250640"/>
</linearGradient>
<linearGradient id="paint17_linear_2007_3767" x1="1603.08" y1="533.76" x2="1671.48" y2="533.28" gradientUnits="userSpaceOnUse">
<stop offset="0.2" stop-color="white"/>
<stop offset="0.6" stop-color="#951319"/>
<stop offset="1" stop-color="#250640"/>
</linearGradient>
<linearGradient id="paint18_linear_2007_3767" x1="1663.44" y1="533.76" x2="1731.84" y2="533.28" gradientUnits="userSpaceOnUse">
<stop offset="0.2" stop-color="white"/>
<stop offset="0.6" stop-color="#951319"/>
<stop offset="1" stop-color="#250640"/>
</linearGradient>
<linearGradient id="paint19_linear_2007_3767" x1="1731.24" y1="531.36" x2="1773.72" y2="531" gradientUnits="userSpaceOnUse">
<stop offset="0.2" stop-color="white"/>
<stop offset="0.6" stop-color="#951319"/>
<stop offset="1" stop-color="#250640"/>
</linearGradient>
<linearGradient id="paint20_linear_2007_3767" x1="1782.84" y1="531.36" x2="1825.2" y2="531" gradientUnits="userSpaceOnUse">
<stop offset="0.2" stop-color="white"/>
<stop offset="0.6" stop-color="#951319"/>
<stop offset="1" stop-color="#250640"/>
</linearGradient>
<linearGradient id="paint21_linear_2007_3767" x1="1420.56" y1="540.24" x2="1479.84" y2="539.76" gradientUnits="userSpaceOnUse">
<stop offset="0.2" stop-color="white"/>
<stop offset="0.6" stop-color="#951319"/>
<stop offset="1" stop-color="#250640"/>
</linearGradient>
<linearGradient id="paint22_linear_2007_3767" x1="1490.64" y1="603.96" x2="1533.84" y2="603.6" gradientUnits="userSpaceOnUse">
<stop offset="0.2" stop-color="white"/>
<stop offset="0.6" stop-color="#951319"/>
<stop offset="1" stop-color="#250640"/>
</linearGradient>
<linearGradient id="paint23_linear_2007_3767" x1="1168.56" y1="531.48" x2="1212.96" y2="531.12" gradientUnits="userSpaceOnUse">
<stop offset="0.2" stop-color="white"/>
<stop offset="0.6" stop-color="#951319"/>
<stop offset="1" stop-color="#250640"/>
</linearGradient>
<clipPath id="clip0_2007_3767">
<rect width="1440" height="684" fill="white"/>
</clipPath>
<clipPath id="clip1_2007_3767">
<rect width="1440" height="684" fill="white"/>
</clipPath>
</defs>
</svg>
