<svg width="45" height="43" viewBox="0 0 45 43" fill="none" xmlns="http://www.w3.org/2000/svg">
<path d="M21.2042 1.79584C21.7572 0.691221 23.3337 0.691221 23.8867 1.79584L29.2147 12.4376C29.5816 13.1704 30.2844 13.6769 31.0957 13.7931L42.9616 15.4927C44.1986 15.6699 44.6892 17.1934 43.7882 18.0592L35.2388 26.274C34.6393 26.85 34.3654 27.6862 34.5079 28.5052L36.5312 40.1334C36.7439 41.3559 35.4649 42.2933 34.3632 41.7223L23.6958 36.1941C22.9744 35.8203 22.1165 35.8203 21.3952 36.1941L10.7277 41.7223C9.62605 42.2933 8.34705 41.3559 8.55975 40.1334L10.583 28.5052C10.7255 27.6862 10.4516 26.85 9.85213 26.274L1.30275 18.0592C0.401663 17.1934 0.892333 15.6699 2.12935 15.4927L13.9952 13.7931C14.8065 13.6769 15.5093 13.1704 15.8762 12.4376L21.2042 1.79584Z" fill="#F5FAFE" stroke="#D3DFE7"/>
</svg>
