<svg width="45" height="43" viewBox="0 0 45 43" fill="none" xmlns="http://www.w3.org/2000/svg">
<path d="M20.7571 1.572C21.4945 0.0991697 23.5964 0.0991695 24.3338 1.572L29.6618 12.2137C29.9553 12.8 30.5176 13.2052 31.1666 13.2982L43.0325 14.9978C44.6818 15.234 45.336 17.2653 44.1346 18.4197L35.5852 26.6345C35.1057 27.0953 34.8865 27.7643 35.0005 28.4195L37.0238 40.0477C37.3074 41.6777 35.602 42.9275 34.1331 42.1663L23.4657 36.638C22.8886 36.339 22.2023 36.339 21.6252 36.638L10.9578 42.1663C9.48888 42.9275 7.78355 41.6777 8.06715 40.0477L10.0904 28.4195C10.2044 27.7643 9.98525 27.0953 9.5057 26.6345L0.956321 18.4197C-0.245126 17.2653 0.409099 15.234 2.05845 14.9978L13.9243 13.2982C14.5733 13.2052 15.1356 12.8 15.4291 12.2137L20.7571 1.572Z" fill="#FBD304"/>
</svg>
