<svg width="77" height="14" viewBox="0 0 77 14" fill="none" xmlns="http://www.w3.org/2000/svg">
<path d="M6.03017 2.56285C6.39887 1.82644 7.44985 1.82644 7.81855 2.56285L8.8298 4.58266C8.97656 4.87579 9.25768 5.07838 9.58219 5.12486L11.8195 5.44533C12.6442 5.56345 12.9713 6.57908 12.3706 7.1563L10.7701 8.69417C10.5303 8.92456 10.4207 9.25906 10.4777 9.58666L10.858 11.7725C10.9998 12.5875 10.1472 13.2124 9.41272 12.8318L7.38448 11.7807C7.09596 11.6312 6.75277 11.6312 6.46424 11.7807L4.436 12.8318C3.70154 13.2124 2.84888 12.5875 2.99068 11.7725L3.37101 9.58666C3.42801 9.25906 3.31844 8.92456 3.07867 8.69417L1.47816 7.1563C0.877437 6.57909 1.20455 5.56345 2.02923 5.44533L4.26653 5.12486C4.59104 5.07838 4.87216 4.87579 5.01893 4.58265L6.03017 2.56285Z" fill="#FBE203"/>
<path d="M21.6098 2.5631C21.9785 1.82668 23.0294 1.82668 23.3981 2.5631L24.4094 4.5829C24.5561 4.87604 24.8373 5.07862 25.1618 5.12511L27.3991 5.44557C28.2238 5.5637 28.5509 6.57933 27.9502 7.15654L26.3496 8.69441C26.1099 8.9248 26.0003 9.25931 26.0573 9.58691L26.4376 11.7728C26.5794 12.5878 25.7268 13.2127 24.9923 12.832L22.9641 11.7809C22.6755 11.6314 22.3324 11.6314 22.0438 11.7809L20.0156 12.832C19.2811 13.2127 18.4285 12.5878 18.5703 11.7728L18.9506 9.58691C19.0076 9.25931 18.898 8.9248 18.6583 8.69441L17.0578 7.15654C16.457 6.57933 16.7841 5.5637 17.6088 5.44557L19.8461 5.12511C20.1706 5.07862 20.4518 4.87604 20.5985 4.5829L21.6098 2.5631Z" fill="#FBE203"/>
<path d="M37.1898 2.5631C37.5585 1.82668 38.6095 1.82668 38.9782 2.5631L39.9895 4.5829C40.1362 4.87604 40.4173 5.07862 40.7419 5.12511L42.9792 5.44557C43.8038 5.5637 44.131 6.57933 43.5302 7.15654L41.9297 8.69441C41.6899 8.9248 41.5804 9.25931 41.6374 9.58691L42.0177 11.7728C42.1595 12.5878 41.3068 13.2127 40.5724 12.832L38.5441 11.7809C38.2556 11.6314 37.9124 11.6314 37.6239 11.7809L35.5957 12.832C34.8612 13.2127 34.0085 12.5878 34.1504 11.7728L34.5307 9.58691C34.5877 9.25931 34.4781 8.9248 34.2383 8.69441L32.6378 7.15654C32.0371 6.57933 32.3642 5.5637 33.1889 5.44557L35.4262 5.12511C35.7507 5.07862 36.0318 4.87604 36.1786 4.5829L37.1898 2.5631Z" fill="#FBE203"/>
<path d="M52.7694 2.5631C53.1381 1.82668 54.1891 1.82668 54.5578 2.5631L55.5691 4.5829C55.7158 4.87604 55.9969 5.07862 56.3215 5.12511L58.5588 5.44557C59.3834 5.5637 59.7105 6.57933 59.1098 7.15654L57.5093 8.69441C57.2695 8.9248 57.16 9.25931 57.217 9.58691L57.5973 11.7728C57.7391 12.5878 56.8864 13.2127 56.152 12.832L54.1237 11.7809C53.8352 11.6314 53.492 11.6314 53.2035 11.7809L51.1753 12.832C50.4408 13.2127 49.5881 12.5878 49.7299 11.7728L50.1103 9.58691C50.1673 9.25931 50.0577 8.9248 49.8179 8.69441L48.2174 7.15654C47.6167 6.57933 47.9438 5.5637 48.7685 5.44557L51.0058 5.12511C51.3303 5.07862 51.6114 4.87604 51.7582 4.5829L52.7694 2.5631Z" fill="#FBE203"/>
<path d="M68.3495 2.5631C68.7182 1.82668 69.7692 1.82668 70.1379 2.5631L71.1491 4.5829C71.2959 4.87604 71.577 5.07862 71.9015 5.12511L74.1388 5.44557C74.9635 5.5637 75.2906 6.57933 74.6899 7.15654L73.0894 8.69441C72.8496 8.9248 72.74 9.25931 72.797 9.58691L73.1774 11.7728C73.3192 12.5878 72.4665 13.2127 71.7321 12.832L69.7038 11.7809C69.4153 11.6314 69.0721 11.6314 68.7836 11.7809L66.7553 12.832C66.0209 13.2127 65.1682 12.5878 65.31 11.7728L65.6903 9.58691C65.7473 9.25931 65.6378 8.9248 65.398 8.69441L63.7975 7.15654C63.1968 6.57933 63.5239 5.5637 64.3486 5.44557L66.5859 5.12511C66.9104 5.07862 67.1915 4.87604 67.3383 4.5829L68.3495 2.5631Z" fill="#FBE203"/>
</svg>
