<svg width="68" height="66" viewBox="0 0 68 66" fill="none" xmlns="http://www.w3.org/2000/svg">
<path d="M44.1177 57.4933L44.587 56.8479V56.1439L43.8244 55.0293V54.4426L43.883 53.2693L43.707 51.9786L43.2377 51.0986H42.9444L42.5337 51.9786L42.2404 52.4479L41.8884 53.5626V54.6186L41.595 55.7333L41.243 57.4933L41.595 57.7279L42.5924 57.5519L43.6484 57.7279L44.1177 57.4933ZM51.3337 63.5946L51.7444 64.7093L51.5684 65.0026L50.6297 65.4719L49.9844 65.9999L49.163 65.8826L47.4617 65.4719L46.171 65.6479H44.9977L43.4137 64.4159L43.003 64.2986V64.0053L43.531 63.5946L45.115 63.3599L45.467 62.9493V60.4266L45.115 60.0159L42.651 60.1919L41.8884 59.6639L41.1844 59.7226L39.8937 61.8346L40.0697 62.4213L42.123 63.9466L42.1817 64.2399L41.595 64.5333L41.0084 65.1786H39.7764L39.3657 65.4719H38.1337L37.6057 65.6479L36.5497 65.4719H36.0217L34.9657 65.0026L34.6724 64.1813V63.6533L35.9044 63.0666L36.7844 62.8906L37.8404 61.1893L38.1337 58.9599L38.603 58.0213V57.1999L39.0724 56.0266L39.2484 54.9119L40.3044 51.9199L40.8324 49.3973L41.243 48.5759L41.3604 47.1093L43.179 45.2319L43.707 45.4079L44.1177 45.9359L44.9977 46.5226L45.643 48.5759L46.4057 49.8079L46.0537 51.0986L46.1124 52.3893L46.8164 53.3279L47.051 55.4986L47.1684 56.4373L47.4617 57.5519L48.0484 58.6079L48.4004 60.1919L48.7524 61.0719L49.339 61.5999L50.571 62.5973L50.8644 62.6559L51.3337 63.5946Z" fill="#57636A"/>
<path d="M23.8189 36.256H44.7628L34.3202 11.264L23.8189 36.256ZM46.3469 39.7173H22.2935L19.4189 46.464C17.5415 50.9227 16.6029 53.6213 16.6029 54.6187C16.6029 55.264 16.7789 55.7333 17.1309 56.0267C17.4829 56.32 18.3629 56.496 19.7709 56.672L23.7602 57.1413V59.7813C21.1202 59.6053 18.0695 59.5467 14.7255 59.5467C10.7362 59.5467 7.21619 59.6053 4.16553 59.7813V57.1413L5.39753 57.0827C7.33353 57.024 8.62419 56.848 9.21086 56.496C9.79752 56.144 10.3842 55.264 11.0295 53.9147C13.0242 49.9253 15.0189 45.584 17.0722 40.9493L28.5709 15.0187C31.6215 8.15467 33.7335 3.168 34.8482 0H37.6642L58.7842 49.0453C60.1922 52.3893 61.1308 54.384 61.6002 55.088C62.0695 55.792 62.5975 56.2613 63.2428 56.5547C63.8295 56.848 65.2375 57.024 67.3495 57.1413V59.7813C63.7122 59.6053 60.3095 59.5467 57.0242 59.5467C53.9735 59.5467 49.9255 59.6053 44.8215 59.7813V57.1413L48.9282 56.9067C50.3948 56.7893 51.2748 56.672 51.5682 56.4373C51.9788 56.144 52.2135 55.7333 52.2135 55.264C52.2135 54.7947 51.8028 53.4453 50.9815 51.3333L46.3469 39.7173Z" fill="#B6C0CE"/>
<path d="M24.8747 29.2745C25.872 29.2745 26.6347 29.0985 27.104 28.6879C27.5733 28.2772 27.808 27.8079 27.808 27.1625C27.808 26.6345 27.632 26.1065 27.28 25.5199C26.928 24.9332 26.3413 24.4052 25.6373 23.8772C24.8747 23.3492 23.9947 22.9385 22.88 22.6452C21.7653 22.3519 20.5333 22.1759 19.1253 22.1759C17.8347 22.1759 16.6027 22.2932 15.488 22.5279C16.368 23.4079 17.1893 24.2292 18.0107 25.0505C18.832 25.8719 19.6533 26.5759 20.416 27.2212C21.2373 27.8665 22 28.3359 22.704 28.6879C23.4667 29.0985 24.1707 29.2745 24.8747 29.2745ZM31.0933 35.9625C31.5627 35.9625 32.032 35.9625 32.6187 35.9625C33.1467 35.9625 33.7333 35.9625 34.2613 35.9039C34.7893 35.9039 35.3173 35.8452 35.7867 35.8452C36.256 35.8452 36.608 35.7865 36.9013 35.7279C37.6053 34.0265 38.3093 32.3252 39.0133 30.6825C39.7173 28.9812 40.3627 27.4559 41.008 25.9892C41.5947 24.5812 42.1227 23.2905 42.592 22.2345C43.0613 21.1785 43.3547 20.4159 43.5893 19.9465C43.5893 19.9465 43.5893 19.8879 43.648 19.8879V19.8292C43.648 19.8292 43.648 19.7705 43.648 19.7119C43.648 19.6532 43.5893 19.5945 43.5307 19.5945C43.2373 19.5945 42.8267 19.8292 42.24 20.3572C41.6533 20.8852 41.008 21.5305 40.2453 22.4105C39.4827 23.2319 38.72 24.2292 37.84 25.3439C36.96 26.4585 36.08 27.5732 35.2 28.7465C34.32 29.9199 33.44 31.0932 32.6187 32.2665C31.7973 33.4399 30.976 34.5545 30.3307 35.4932C30.1547 35.7279 30.0373 35.9039 30.0373 35.9625H31.0933ZM11.088 42.8265C12.144 42.8265 13.0827 42.6505 13.9627 42.3572C14.784 42.0639 15.5467 41.6532 16.1333 41.1252C16.72 40.5972 17.1893 40.0692 17.4827 39.4825C17.776 38.8958 17.952 38.2505 17.952 37.6639C17.952 36.6665 17.5413 35.7865 16.6613 35.0825C15.7813 34.3199 14.432 33.9679 12.496 33.9679C11.616 33.9679 10.736 34.1439 9.91467 34.4372C9.09333 34.7305 8.33067 35.1412 7.568 35.6692C6.864 36.1972 6.21867 36.8425 5.57333 37.5465C4.98667 38.2505 4.45867 39.0132 4.048 39.7759C4.63467 40.7145 5.51467 41.4772 6.688 42.0052C7.80267 42.5332 9.26933 42.8265 11.088 42.8265ZM33.8507 49.2212C33.7333 49.4559 33.6747 49.6905 33.6747 49.8665C33.6747 50.2185 33.8507 50.5119 34.144 50.6879C34.4373 50.8638 34.848 50.9812 35.2587 51.0399C35.4347 51.0399 35.552 51.0985 35.728 51.0985C35.904 51.0985 36.08 51.0985 36.3733 51.0985C36.4907 51.0985 36.5493 51.2159 36.5493 51.3919C36.5493 51.5092 36.4907 51.6265 36.432 51.6852C36.3733 51.8025 36.256 51.8025 36.1387 51.8025C36.0213 51.8025 35.8453 51.8025 35.552 51.8025C35.2587 51.8025 34.9067 51.7439 34.496 51.7439C34.0853 51.7439 33.6747 51.6852 33.2053 51.6852C32.736 51.6852 32.3253 51.6852 31.856 51.6852C31.5627 51.6852 31.152 51.6852 30.6827 51.6852C30.2133 51.6852 29.8027 51.6852 29.392 51.6852C28.9813 51.6852 28.5707 51.6852 28.2773 51.6852C27.9253 51.6852 27.7493 51.6852 27.632 51.6852C27.456 51.6852 27.3973 51.6265 27.3973 51.5679C27.3973 51.5092 27.3973 51.3919 27.3387 51.3332C27.3387 51.2745 27.3387 51.1572 27.3973 51.0985C27.456 50.9812 27.5147 50.9225 27.632 50.9225C28.16 50.9225 28.6293 50.8639 28.9813 50.7465C29.3333 50.6292 29.6267 50.4532 29.92 50.2772C30.2133 50.0425 30.3893 49.8078 30.624 49.4558C30.8 49.1625 31.0347 48.7518 31.2693 48.2825C31.7973 47.1678 32.5013 45.6425 33.3813 43.6479C34.2613 41.6532 35.2 39.5412 36.1973 37.1945L29.2747 36.9012C27.8667 38.8372 26.4587 40.7732 24.992 42.5919C23.5253 44.4105 22 46.0532 20.2987 47.4612C18.656 48.8692 16.8373 50.0425 14.9013 50.8639C12.9653 51.7439 10.7947 52.1545 8.448 52.1545C6.98133 52.1545 5.69067 51.9785 4.63467 51.5679C3.57867 51.1572 2.69867 50.6292 1.99467 49.9839C1.29067 49.3385 0.821334 48.5758 0.469334 47.6958C0.176001 46.8158 0 45.8772 0 44.9385C0 43.8825 0.176001 42.8265 0.469334 41.7119C0.821334 40.6559 1.29067 39.5998 1.99467 38.6025C1.46667 37.6052 1.232 36.4319 1.232 35.0825C1.232 33.7919 1.52533 32.4425 2.05333 31.1519C2.58133 29.8025 3.40267 28.5705 4.45867 27.3972C5.51467 26.2239 6.864 25.1679 8.448 24.2292C10.032 23.2905 11.9093 22.5865 14.0213 22.1172C13.3173 21.4132 12.5547 20.7679 11.792 20.1225C11.0293 19.4772 10.2667 18.9492 9.504 18.4799C8.74133 18.0105 7.92 17.5999 7.09867 17.3652C6.27733 17.0719 5.39733 16.9545 4.51733 16.9545C3.57867 16.9545 2.93333 17.2479 2.464 17.7759C2.05333 18.3039 1.81867 18.9492 1.81867 19.6532C1.81867 20.3572 1.99467 20.9439 2.34667 21.5305C2.69867 22.0585 3.22667 22.3519 3.872 22.3519C4.224 22.3519 4.51733 22.2932 4.752 22.1759C4.98667 22.0585 5.22133 21.8825 5.39733 21.7065C5.57333 21.5305 5.69066 21.3545 5.74933 21.2372C5.86666 21.0612 5.92533 20.9439 5.984 20.9439L6.10133 20.8265C6.21867 20.7092 6.336 20.6505 6.512 20.6505C6.98133 20.6505 7.216 20.8265 7.216 21.1199C7.216 21.4132 6.92266 21.8239 6.336 22.2345C5.74933 22.6452 4.98667 22.8799 3.98933 22.8799C2.69867 22.8799 1.76 22.5865 1.17333 21.9412C0.586667 21.3545 0.293333 20.6505 0.293333 19.8879C0.293333 19.0079 0.645334 18.1865 1.408 17.4825C2.112 16.7785 3.22667 16.3679 4.63467 16.3679C5.51467 16.3679 6.39467 16.5439 7.27467 16.8372C8.15467 17.1305 8.976 17.5999 9.856 18.1279C10.6773 18.6559 11.4987 19.2425 12.32 19.9465C13.1413 20.6505 13.904 21.3545 14.7253 22.0585C15.488 21.9412 16.3093 21.8239 17.1893 21.7065C18.0693 21.5892 18.9493 21.5892 19.888 21.5892C21.5307 21.5892 22.9973 21.7652 24.2293 22.1172C25.4613 22.4692 26.5173 22.9385 27.3387 23.4665C28.16 23.9945 28.7467 24.6399 29.1573 25.3439C29.568 26.0479 29.744 26.6932 29.744 27.3385C29.744 28.1599 29.4507 28.8052 28.8053 29.3919C28.16 29.9785 27.2213 30.2719 25.9893 30.2719C24.9333 30.2719 23.936 30.0372 22.9973 29.6265C22.0587 29.2159 21.12 28.6292 20.1813 27.9839C19.2427 27.2799 18.3627 26.5172 17.424 25.6372C16.544 24.7572 15.6053 23.8185 14.7253 22.9385C12.9067 23.4079 11.264 24.1119 9.79733 25.0505C8.33066 25.9892 7.09867 27.1039 6.10133 28.3359C5.104 29.5679 4.28267 30.8585 3.75467 32.2079C3.22667 33.5572 2.93333 34.8479 2.93333 36.1385C2.93333 36.6665 2.992 37.1945 3.05067 37.6639L3.168 37.5465C3.81333 36.8425 4.51733 36.1972 5.28 35.7279C6.04267 35.1999 6.80533 34.7892 7.62666 34.4959C8.448 34.2025 9.21066 33.9679 9.97333 33.7919C10.736 33.6159 11.4987 33.5572 12.2027 33.5572C13.376 33.5572 14.432 33.7332 15.312 34.0265C16.192 34.3199 16.9547 34.7305 17.6 35.1999C18.1867 35.6692 18.656 36.2558 19.008 36.8425C19.3013 37.4879 19.4773 38.0745 19.4773 38.7199C19.4773 39.3652 19.3013 39.9519 19.008 40.5972C18.7147 41.1839 18.1867 41.7705 17.5413 42.2399C16.8373 42.7092 16.016 43.1199 14.96 43.4132C13.904 43.7065 12.7307 43.8239 11.3227 43.8239C9.504 43.8239 7.92 43.5892 6.62933 43.0612C5.33867 42.5332 4.28267 41.8879 3.46133 41.0079C2.816 42.4159 2.52267 43.8825 2.52267 45.3492C2.52267 46.1705 2.64 46.9919 2.87467 47.7545C3.10933 48.5172 3.52 49.1625 4.048 49.6905C4.576 50.2185 5.28 50.6879 6.10133 50.9812C6.92267 51.2745 7.92 51.4505 9.09333 51.4505C11.2053 51.4505 13.1413 50.9812 14.96 50.1012C16.7787 49.2212 18.5387 47.9892 20.1813 46.5225C21.824 44.9972 23.4667 43.2372 25.0507 41.1839C26.6347 39.1305 28.2773 36.9599 29.92 34.6719C32.1493 31.5625 34.2027 28.6879 36.1387 26.1065C38.0747 23.5252 40.128 21.3545 42.1813 19.4772C44.2347 17.6585 46.4053 16.2505 48.752 15.1945C51.04 14.1972 53.68 13.6692 56.6133 13.6692C58.3733 13.6692 59.8986 13.8452 61.072 14.1385C62.304 14.4905 63.2426 14.9012 64.0053 15.4292C64.7093 15.9572 65.2373 16.6025 65.5893 17.2479C65.8827 17.8932 66.0586 18.5385 66.0586 19.1839C66.0586 19.7119 66 20.1812 65.824 20.6505C65.648 21.1199 65.4133 21.5305 65.12 21.8825C64.8267 22.2345 64.5333 22.5279 64.1813 22.7625C63.8293 22.9972 63.4187 23.0559 63.0667 23.0559C62.7147 23.0559 62.4213 22.9385 62.2453 22.7625C62.0693 22.5865 61.952 22.3519 61.952 22.1172C61.952 21.8825 62.0107 21.6479 62.1867 21.4719C62.3627 21.2959 62.656 21.1199 63.008 21.1199C63.712 21.0612 64.24 20.8265 64.592 20.4159C65.0026 20.0052 65.1786 19.5359 65.1786 19.0079C65.1786 18.4799 65.0027 17.9519 64.7093 17.4239C64.3573 16.8959 63.8293 16.3679 63.1253 15.8985C62.4213 15.4292 61.4827 15.0772 60.4267 14.7252C59.312 14.4319 58.0213 14.2559 56.496 14.2559C55.616 14.2559 54.6773 14.3732 53.7387 14.5492C52.7413 14.7252 51.8027 15.0772 50.864 15.5465C49.9253 16.0159 49.0453 16.7199 48.224 17.5412C47.4027 18.3625 46.7573 19.4185 46.2293 20.7092C45.408 22.6452 43.9413 26.0479 41.7707 30.8585C39.6 35.5519 36.96 41.7119 33.8507 49.2212Z" fill="#444444"/>
<path d="M20.2983 7.27478L18.4209 10.3255C18.9489 10.2081 19.7703 10.0321 20.8849 9.79746L20.2983 7.27478ZM22.7036 14.9014C22.2929 14.9014 21.9409 14.3735 21.6476 13.3175C21.5303 12.9068 21.3543 12.2028 21.1783 11.2055C20.7089 11.2641 20.1223 11.3815 19.4183 11.5575L17.6583 11.9094C17.4236 12.4961 17.0716 13.3175 16.5436 14.4908C16.4263 14.7255 16.1916 14.8428 15.9569 14.8428C15.7809 14.8428 15.6049 14.7841 15.4876 14.6668C15.3703 14.5494 15.2529 14.3735 15.2529 14.1975C15.2529 13.9628 15.6049 13.1414 16.2503 11.7334C16.1916 11.6161 16.1329 11.4988 16.1329 11.3228C16.1329 10.9708 16.3676 10.7361 16.7783 10.6188C17.3063 9.68012 17.9516 8.56545 18.7143 7.33345C19.7703 5.63212 20.4156 4.81079 20.7089 4.81079C21.0609 4.81079 21.2956 5.04545 21.4129 5.57345L21.8236 7.80278L22.8209 12.4375L23.1729 13.4934C23.2903 13.8454 23.3489 14.0801 23.3489 14.1975C23.3489 14.3735 23.2903 14.5494 23.1143 14.6668C22.9969 14.8428 22.8796 14.9014 22.7036 14.9014Z" fill="#9CBECC"/>
<path d="M55.6159 26.2828V30.0961C55.5572 30.6241 55.3812 31.1521 55.0292 31.6801C54.8532 31.9148 54.6772 32.0908 54.5012 32.2081C54.2665 32.3841 54.0319 32.5014 53.7972 32.5014C53.5625 32.5014 53.3279 32.3841 53.0932 32.1494C52.7999 31.9148 52.6825 31.5041 52.6825 30.8001V30.2721C52.6825 29.1574 52.9759 28.3948 53.6212 27.8668C54.2079 27.3974 54.8532 26.8694 55.6159 26.2828ZM58.9012 21.3548L59.8985 21.0614V20.5334H55.6159V21.7068C54.9119 20.7681 53.9145 20.2988 52.5652 20.3574C51.8612 20.3574 51.2159 20.5921 50.5119 21.1201C49.8079 21.6481 49.4559 22.5281 49.3972 23.6428C49.3972 24.1708 49.5732 24.6988 49.8665 25.1094C50.1599 25.5788 50.5705 25.8134 50.9812 25.8134C52.0372 25.7548 52.6239 25.2268 52.6825 24.1708C52.6825 23.1148 52.1545 22.5281 51.2159 22.5281C50.6292 22.5281 50.3359 22.8214 50.2185 23.2908L50.1012 23.2321C50.1599 22.6454 50.5119 22.1174 51.0399 21.7654C51.5092 21.4134 52.0959 21.2374 52.7412 21.2374C53.6212 21.2374 54.3252 21.4721 54.9119 22.0001C55.4399 22.5281 55.7332 23.1734 55.7332 23.9361C55.7332 24.6401 55.5572 25.1094 55.2639 25.4614C54.9705 25.8134 54.6772 26.1068 54.4425 26.2241C53.9145 26.5761 53.3279 26.8108 52.7999 27.0454C52.2132 27.2801 51.6265 27.5148 51.1572 27.8081C50.6292 28.1014 50.2185 28.5121 49.9839 28.9814C49.6905 29.5094 49.5145 30.1548 49.5145 30.9761C49.4559 31.7388 49.6319 32.5014 50.0425 33.2054C50.4532 33.9094 51.1572 34.2614 52.2132 34.3201C53.1519 34.3201 53.9145 34.0854 54.4425 33.6748C54.9705 33.2641 55.3812 32.7361 55.7332 32.0908C54.9119 36.0801 52.9759 38.0748 49.8665 38.1334C49.5732 38.1334 49.3385 38.0748 49.1625 37.8988L48.9279 38.4854L49.5145 38.9548V50.5708L48.5172 50.8641V51.3921H53.4452V50.8641L52.7999 50.5708V38.2508C53.3865 38.0161 53.9732 37.5468 54.5599 36.9014C55.0879 36.3148 55.4985 35.6108 55.7919 34.8481V50.6294L55.1465 50.9228V51.4508H60.0745V50.9228L59.0772 50.6294V21.3548H58.9012Z" fill="#6D0000"/>
</svg>
