<svg width="27" height="26" viewBox="0 0 27 26" fill="none" xmlns="http://www.w3.org/2000/svg">
<path d="M13.6531 25.7896C20.6539 25.7896 26.3291 20.1143 26.3291 13.1135C26.3291 6.11275 20.6539 0.4375 13.6531 0.4375C6.6523 0.4375 0.977051 6.11275 0.977051 13.1135C0.977051 20.1143 6.6523 25.7896 13.6531 25.7896Z" fill="url(#paint0_linear_1_563)"/>
<path d="M19.8229 7.73139L17.56 19.1448C17.56 19.1448 17.2431 19.937 16.3716 19.5557L11.1477 15.5499L9.24631 14.6339L6.0476 13.5594C6.0476 13.5594 5.55739 13.3861 5.50788 13.0048C5.45836 12.6235 6.06245 12.4205 6.06245 12.4205L18.7781 7.4343C18.7781 7.42935 19.8229 6.96885 19.8229 7.73139Z" fill="white"/>
<path d="M10.7417 19.016C10.7417 19.016 10.5882 19.0011 10.4001 18.402C10.2119 17.8028 9.24635 14.6338 9.24635 14.6338L16.9262 9.75653C16.9262 9.75653 17.3719 9.48915 17.3521 9.75653C17.3521 9.75653 17.4313 9.80605 17.1936 10.0239C16.956 10.2467 11.1626 15.4558 11.1626 15.4558" fill="#D2E4F0"/>
<path d="M13.1475 17.0848L11.0827 18.9713C11.0827 18.9713 10.9193 19.0951 10.746 19.0159L11.1421 15.5151" fill="#B5CFE4"/>
<defs>
<linearGradient id="paint0_linear_1_563" x1="13.6531" y1="0.4375" x2="13.6531" y2="25.6971" gradientUnits="userSpaceOnUse">
<stop stop-color="#41BCE7"/>
<stop offset="1" stop-color="#22A6DC"/>
</linearGradient>
</defs>
</svg>
