<svg width="24" height="17" viewBox="0 0 24 17" fill="none" xmlns="http://www.w3.org/2000/svg">
<path fill-rule="evenodd" clip-rule="evenodd" d="M6.91878 8.47681C6.93126 3.80702 10.7103 0 15.4591 0C20.1617 0 24.0535 3.81962 23.9994 8.5C23.9994 13.1804 20.1617 17 15.4591 17C10.7642 17 6.93132 13.2465 6.91878 8.52331V14.8481H3.8918L0 2.47467H6.91878V8.47681ZM12.2699 8.5C12.2699 10.2215 13.7294 11.6741 15.4591 11.6741C17.2428 11.6741 18.6482 10.2215 18.6482 8.5C18.6482 6.77851 17.1888 5.32595 15.4591 5.32595C13.7294 5.32595 12.2699 6.77851 12.2699 8.5Z" fill="#0070F0"/>
</svg>
