<svg width="12" height="12" viewBox="0 0 12 12" fill="none" xmlns="http://www.w3.org/2000/svg">
<path d="M12 4.35557V0.810333C12 0.508753 11.6398 0.361314 11.433 0.57577L10.2455 1.76869C9.62057 1.14087 8.86553 0.659225 8.03415 0.358046C7.20278 0.0568668 6.31551 -0.0564302 5.43557 0.026225C2.64035 0.280892 0.338794 2.53939 0.0319202 5.34743C-0.130295 6.92193 0.33011 8.49739 1.31381 9.73393C2.29751 10.9705 3.72566 11.769 5.29016 11.9572C6.85467 12.1454 8.43012 11.7082 9.67664 10.74C10.9232 9.77177 11.7409 8.35007 11.9533 6.78161C12 6.37951 11.6865 6.03101 11.2862 6.03101C10.9526 6.03101 10.6724 6.27898 10.6324 6.60737C10.3456 8.94629 8.33753 10.7558 5.92923 10.7223C3.45423 10.6887 1.36615 8.59109 1.32613 6.09803C1.2861 3.48434 3.40086 1.33977 5.99595 1.33977C7.28348 1.33977 8.45094 1.86921 9.29818 2.71364L7.9039 4.11431C7.69042 4.32876 7.83719 4.69066 8.13739 4.69066H11.6664C11.8532 4.69066 12 4.54322 12 4.35557Z" fill="#50636A"/>
</svg>
