<svg width="35" height="23" viewBox="0 0 35 23" fill="none" xmlns="http://www.w3.org/2000/svg">
<path d="M0.182709 0C34.9395 0 34.9395 0 34.9395 0V22.0786H0.182709" fill="white"/>
<path d="M0.761932 18.4905C34.3602 18.4905 34.3602 18.4905 34.3602 18.4905V21.5027H0.761932" fill="#F7B600"/>
<path d="M0.761932 0.579102C17.5611 0.579102 23.8607 0.579102 34.3602 0.579102C34.3602 2.08523 34.3602 2.65003 34.3602 3.59136C21.1816 3.59136 11.2614 3.59136 0.761932 3.59136C0.761932 3.01208 0.761932 1.52043 0.761932 0.579102ZM14.2109 6.90935C12.4747 11.0496 11.8236 12.6022 10.7384 15.1898C9.60723 15.1898 9.18302 15.1898 8.47602 15.1898C7.62158 11.8855 7.30117 10.6464 6.76714 8.58122C6.66416 8.17572 6.57405 8.02608 6.25866 7.8539C5.58646 7.53203 4.87672 7.29527 4.1459 7.14911C4.17084 7.02923 4.18019 6.98428 4.19578 6.90935C6.0189 6.90935 6.70258 6.90935 7.84203 6.90935C8.33403 6.90886 8.75318 7.26657 8.83002 7.75253C9.28058 10.1517 9.44953 11.0514 9.73113 12.5509C10.8454 9.73495 11.2633 8.67897 11.9597 6.91901C13.0853 6.91418 13.5074 6.91237 14.2109 6.90935ZM23.0819 12.4865C23.0916 10.3014 20.0616 10.1807 20.0809 9.20395C20.0809 8.90787 20.3706 8.59087 20.9885 8.51042C21.7132 8.44135 22.4431 8.56921 23.1012 8.88052C23.2887 8.00194 23.359 7.67247 23.4762 7.12336C22.8358 6.88409 22.158 6.76042 21.4744 6.7581C19.3568 6.7581 17.8668 7.88447 17.8555 9.49359C17.8427 10.6859 18.9192 11.3505 19.7302 11.7463C20.5653 12.1518 20.8453 12.4125 20.8421 12.7746C20.8421 13.3297 20.1678 13.5791 19.5548 13.5791C18.7872 13.5967 18.0281 13.4166 17.3503 13.0562C17.154 13.9637 17.0803 14.304 16.9577 14.8712C17.4597 15.1013 18.3833 15.3009 19.3391 15.3105C21.5919 15.3105 23.0626 14.1986 23.0691 12.4769M28.664 15.1802C29.6544 15.1802 30.0258 15.1802 30.6448 15.1802C29.7823 11.0448 29.4589 9.49399 28.9198 6.90935C28.0058 6.90935 27.6631 6.90935 27.0918 6.90935C26.6921 6.90545 26.3305 7.14589 26.1795 7.51599C24.5704 11.3521 23.9669 12.7907 22.9613 15.1882C24.0876 15.1882 24.51 15.1882 25.214 15.1882C25.4377 14.5703 25.5216 14.3386 25.6613 13.9524C27.0355 13.9524 27.5508 13.9524 28.4097 13.9524C28.5368 14.5663 28.5845 14.7965 28.664 15.1802ZM26.2825 12.2564C26.8457 10.702 27.0568 10.1191 27.4088 9.14763C27.7307 10.702 27.8513 11.2849 28.0525 12.2564C27.1675 12.2564 26.8356 12.2564 26.2825 12.2564ZM17.2714 6.90935C16.3864 11.0496 16.0545 12.6022 15.5014 15.1898C14.4297 15.1898 14.0279 15.1898 13.3581 15.1898C14.2431 11.0496 14.575 9.49701 15.1281 6.90935C16.1998 6.90935 16.6016 6.90935 17.2714 6.90935Z" fill="#1A1F71"/>
</svg>
