<svg width="80" height="76" viewBox="0 0 80 76" fill="none" xmlns="http://www.w3.org/2000/svg">
<g clip-path="url(#clip0_2001_6053)">
<path d="M40.0339 0C58.6184 0 73.6918 15.0734 73.6918 33.6579C73.6918 52.2424 58.6184 67.3361 40.0339 67.3361C21.4494 67.3361 6.37598 52.2626 6.37598 33.6781C6.37598 15.0936 21.4292 0 40.0339 0Z" fill="white"/>
<path d="M40.0347 3.99561C56.4197 3.99561 69.6972 17.2731 69.6972 33.6582C69.6972 50.0432 56.4197 63.3207 40.0347 63.3207C23.6496 63.3207 10.3721 50.0432 10.3721 33.6582C10.3519 17.2933 23.6496 3.99561 40.0347 3.99561Z" fill="#EBEEF3"/>
<path d="M40.0344 7.99072C54.22 7.99072 65.7016 19.4925 65.7016 33.6579C65.7016 47.8435 54.1998 59.3251 40.0344 59.3251C25.869 59.3251 14.3672 47.8233 14.3672 33.6579C14.3672 19.4925 25.8488 7.99072 40.0344 7.99072Z" fill="#D7DEEA"/>
<path d="M40.0341 12.0063C52.0001 12.0063 61.706 21.7123 61.706 33.6782C61.706 45.6441 52.0001 55.35 40.0341 55.35C28.0682 55.35 18.3623 45.6441 18.3623 33.6782C18.3623 21.6921 28.0682 12.0063 40.0341 12.0063Z" fill="#C3CEE0"/>
<path d="M40.0339 16.0015C49.8003 16.0015 57.7104 23.9115 57.7104 33.6779C57.7104 43.4444 49.8003 51.3544 40.0339 51.3544C30.2674 51.3544 22.3574 43.4444 22.3574 33.6779C22.3574 23.9115 30.2674 16.0015 40.0339 16.0015ZM59.4457 45.4421C59.4457 45.4421 59.7484 55.0471 60.0309 56.5201C60.3336 57.9932 60.4748 59.6276 62.5331 59.325C64.5913 59.0223 65.0352 57.9932 65.0352 57.2667C65.0554 56.5 60.6161 46.4712 59.4457 45.4421Z" fill="#AFBFD7"/>
<path d="M59.2852 45.2806C59.2852 45.2806 60.4757 55.0269 60.6169 56.056C60.7582 57.0851 60.9196 59.1635 62.9778 58.7196C65.0361 58.2756 65.1975 56.8026 64.8948 55.0269C64.6123 53.2512 60.4757 43.5049 59.2852 45.2806Z" fill="#E0EDEC"/>
<path d="M59.668 47.5609C59.7487 49.4577 63.179 56.944 64.8741 57.287C65.2171 57.3476 63.7037 53.3522 63.5423 52.7468C63.3808 52.1415 62.0087 46.5924 59.668 47.5609Z" fill="#8AA4CD"/>
<path d="M60.6162 43.5049C60.6162 43.5049 64.4501 57.0851 65.7819 58.1344C67.1137 59.1635 69.1719 57.3878 68.8894 56.2174C68.6069 55.0269 63.2798 44.9981 60.6162 43.5049Z" fill="white"/>
<path d="M21.7925 46.3301C21.7925 46.3301 19.5527 56.2983 18.9473 57.7915C18.342 59.2847 17.8577 60.9394 15.7591 60.213C13.6605 59.4865 13.3982 58.3162 13.5395 57.5494C13.7009 56.7826 20.3598 47.1776 21.7925 46.3301Z" fill="#8AA4CD"/>
<path d="M21.9745 46.209C21.9745 46.209 18.7863 56.1571 18.4231 57.2064C18.0599 58.2556 17.4949 60.3946 15.4165 59.5067C13.3381 58.6189 13.4793 57.0449 14.1452 55.2692C14.8111 53.4935 21.1068 44.1306 21.9745 46.209Z" fill="#E0EDEC"/>
<path d="M17.8783 52.9085C17.8783 52.9085 18.6249 52.2023 18.2617 53.4735C17.2124 55.4914 15.8402 59.7491 15.3963 59.9509C14.6699 60.2737 14.4277 59.8903 14.4277 59.8903C14.4277 59.8903 17.0711 55.4914 17.8783 52.9085Z" fill="#AFBFD7"/>
<path d="M61.9482 48.0048C63.1791 52.0607 64.975 57.4888 65.7822 58.1345C66.6297 58.8004 67.8 58.2959 68.4458 57.5493C67.7193 57.8923 67.1543 57.8923 66.7104 57.6502C64.6925 56.6413 63.2195 46.7134 62.8361 46.7134C62.5536 46.7134 62.2307 47.2986 61.9482 48.0048Z" fill="#E0EDEC"/>
<path d="M21.1267 48.5295C20.6626 50.4868 15.5574 57.6503 13.7212 57.6503C13.358 57.6503 15.7391 53.7558 16.0216 53.1706C16.3242 52.5652 18.8667 47.0161 21.1267 48.5295Z" fill="#8AA4CD"/>
<path d="M20.5221 44.292C20.5221 44.292 16.4258 58.7601 15.0133 59.8497C13.6008 60.9595 11.4013 59.0627 11.704 57.8117C12.0471 56.5404 17.6971 45.8659 20.5221 44.292Z" fill="white"/>
<path d="M19.1088 49.0743C17.7972 53.3925 15.9004 59.1838 15.0125 59.8699C14.1045 60.5761 12.8736 60.0515 12.1875 59.2443C12.9543 59.6075 13.6202 59.1838 14.1045 58.9416C16.2434 57.852 17.777 47.7021 18.1604 47.7021C18.4631 47.7021 18.8061 48.3075 19.1088 49.0743Z" fill="#E0EDEC"/>
<path d="M16.708 51.6171C17.4748 50.5275 18.3627 49.5186 19.3716 48.6509L20.8244 51.5768C20.0375 52.1821 19.311 52.8884 18.6653 53.635L16.708 51.6171Z" fill="#E0EDEC"/>
<path d="M19.4122 39.6914C19.4122 39.6914 5.18628 45.4221 2.48234 47.218C-0.221593 49.0139 0.000371158 49.1148 0.74698 50.7695C1.49359 52.4241 3.45092 52.0205 3.45092 52.0205C3.45092 52.0205 2.84556 53.3725 4.80288 54.8859C6.76021 56.3791 7.20414 55.6325 7.20414 55.6325C7.20414 55.6325 6.90146 57.4284 9.60539 58.0338C12.3093 58.6391 22.7417 43.7271 24.8403 43.1218C26.9388 42.5366 22.5601 40.2968 19.4122 39.6914Z" fill="#E0EDEC"/>
<path d="M39.2268 71.3515C39.1461 71.412 39.0654 71.4726 38.9847 71.5533L37.8547 69.8986C38.2784 70.4031 38.7425 70.8874 39.2268 71.3515ZM40.5182 66.4481H40.4375L40.4981 66.5894V66.6095L40.5586 66.7306L40.5788 66.7508V66.771L40.6393 66.8719L40.6595 66.9122L40.6797 66.9526C40.7604 67.0938 40.8209 67.2149 40.9016 67.3561L40.9824 67.4974C41.0025 67.5378 41.0429 67.5781 41.0631 67.6386V67.6588L41.164 67.8001V67.8203L41.2447 67.9413L41.3254 68.0624L41.3456 68.0826L41.4061 68.1835L41.4263 68.2036V68.2238L41.4868 68.3247L41.507 68.3651L41.5272 68.4054L41.5877 68.4861L41.6079 68.5265L41.6886 68.6274C41.1841 69.3538 40.599 70.0197 39.9532 70.6453C39.1865 69.8986 38.5004 69.0915 37.9152 68.2036M37.9757 68.2036C41.0025 65.7419 43.1213 61.9483 43.6863 57.5695C44.0091 58.6995 44.1706 59.8699 44.1706 61.1008C44.1706 63.6433 43.424 66.0445 42.1325 68.0624M36.8659 69.0108C36.9466 68.9704 37.0072 68.9099 37.0879 68.8695L37.1282 68.9301C37.0475 68.9503 36.9668 68.9906 36.8659 69.0108ZM36.3211 69.3538C36.4018 69.3135 36.4825 69.2529 36.5632 69.2126C36.5027 69.2529 36.4018 69.3135 36.3211 69.3538ZM36.0588 69.5153C36.1395 69.4749 36.2202 69.4144 36.3211 69.374C36.2202 69.4144 36.1395 69.4547 36.0588 69.5153ZM35.7763 69.6565C35.857 69.6161 35.9377 69.5758 36.0184 69.5153C35.9579 69.5758 35.857 69.6161 35.7763 69.6565ZM35.4938 69.8179C35.5745 69.7776 35.6552 69.7372 35.7561 69.6969C35.6552 69.717 35.5745 69.7574 35.4938 69.8179ZM35.2113 69.939C35.292 69.8986 35.3929 69.8583 35.4736 69.8179C35.3929 69.8583 35.3122 69.8986 35.2113 69.939ZM34.3436 70.3022C34.4243 70.2619 34.5252 70.2417 34.6059 70.2013C34.5252 70.2417 34.4445 70.282 34.3436 70.3022ZM33.7584 70.5242C33.8593 70.4838 33.9602 70.4636 34.0409 70.4233C33.94 70.4636 33.8391 70.4838 33.7584 70.5242ZM33.4557 70.6049C33.5566 70.5847 33.6373 70.5444 33.7382 70.5242C33.6373 70.5645 33.5566 70.5847 33.4557 70.6049ZM33.153 70.7058C33.2539 70.6856 33.3347 70.6453 33.4355 70.6251C33.3347 70.6453 33.2338 70.6654 33.153 70.7058ZM32.8302 70.7865C32.9311 70.7663 33.032 70.7461 33.1329 70.7058C33.032 70.726 32.9311 70.7461 32.8302 70.7865ZM31.9221 70.9681C32.023 70.9479 32.1239 70.9278 32.2047 70.9076C32.1038 70.9278 32.0029 70.9479 31.9221 70.9681ZM30.9536 71.069C31.0545 71.069 31.1554 71.0488 31.2563 71.0488C31.1554 71.069 31.0545 71.069 30.9536 71.069ZM30.6307 71.1094C30.7316 71.1094 30.8325 71.0892 30.9334 71.0892C30.8325 71.0892 30.7316 71.0892 30.6307 71.1094ZM28.9962 71.069C29.0971 71.069 29.198 71.0892 29.2989 71.0892C29.198 71.0892 29.0971 71.0892 28.9962 71.069ZM28.6734 71.0488C28.7743 71.069 28.855 71.069 28.9559 71.069C28.8752 71.069 28.7743 71.0488 28.6734 71.0488ZM28.3505 71.0085C28.4514 71.0287 28.5321 71.0287 28.633 71.0488C28.5321 71.0287 28.4312 71.0287 28.3505 71.0085ZM28.0075 70.9681C28.1084 70.9883 28.2093 70.9883 28.29 71.0085C28.2093 70.9883 28.1084 70.9681 28.0075 70.9681ZM27.6846 70.9076L27.9873 70.9681C27.8864 70.9278 27.7855 70.9278 27.6846 70.9076ZM27.382 70.8269L27.6846 70.8874C27.5636 70.8874 27.4829 70.8672 27.382 70.8269ZM26.4537 70.6049C26.5546 70.6251 26.6354 70.6654 26.7362 70.6856C26.6354 70.6453 26.5345 70.6251 26.4537 70.6049ZM26.1309 70.504C26.2318 70.5444 26.3125 70.5645 26.4134 70.5847C26.3125 70.5645 26.2116 70.5242 26.1309 70.504ZM25.8282 70.3829C25.9291 70.4233 26.0098 70.4435 26.1107 70.4838C26.0098 70.4636 25.9089 70.4233 25.8282 70.3829ZM25.5255 70.282C25.6062 70.3224 25.7071 70.3426 25.808 70.3829C25.7071 70.3426 25.6062 70.3022 25.5255 70.282ZM24.9403 70.0399C25.0412 70.0803 25.122 70.1206 25.2228 70.161L24.9403 70.0399ZM24.6377 69.8986C24.7184 69.939 24.8193 69.9794 24.9 70.0197C24.8193 69.9794 24.7386 69.939 24.6377 69.8986ZM24.3552 69.7574C24.4359 69.7978 24.5368 69.8381 24.6175 69.8785C24.5166 69.8381 24.4359 69.7978 24.3552 69.7574ZM24.0727 69.596C24.1534 69.6363 24.2341 69.6767 24.3148 69.7372C24.2341 69.6969 24.1534 69.6565 24.0727 69.596ZM23.77 69.4345C23.8507 69.4749 23.9314 69.5354 24.0121 69.5758C23.9516 69.5354 23.8507 69.4951 23.77 69.4345ZM23.4875 69.2731C23.5682 69.3336 23.6691 69.374 23.7498 69.4345C23.6691 69.374 23.5884 69.3336 23.4875 69.2731ZM22.6803 68.7485C22.9427 68.9301 23.205 69.1117 23.4673 69.2731C23.205 69.0915 22.9427 68.9301 22.6803 68.7485ZM21.9136 68.1431L22.1557 68.3247C22.075 68.2844 21.9943 68.2036 21.9136 68.1431ZM21.6512 67.9211C21.7319 67.9817 21.8127 68.0624 21.8934 68.1229C21.8127 68.0624 21.7319 68.0019 21.6512 67.9211ZM20.7028 67.0333C21.0055 67.3561 21.3284 67.6386 21.6512 67.9413C21.3082 67.6386 21.0055 67.336 20.7028 67.0333ZM16.203 56.944C16.546 60.677 18.0393 64.0267 20.2387 66.5288L20.1782 66.4481H20.0975C21.6916 69.5758 24.3955 72.8044 31.2361 74.6003C30.7921 74.6406 30.328 74.6608 29.8639 74.6608C24.6578 74.6608 20.1177 72.0376 17.5953 68.1028L17.5751 68.0826C17.5348 68.022 17.5146 67.9817 17.4743 67.9211L17.4339 67.8404C17.3935 67.7799 17.3532 67.6992 17.3128 67.6386L17.2725 67.5579C17.2321 67.4772 17.1918 67.4167 17.1514 67.336L17.111 67.2552C17.0707 67.1745 17.0303 67.114 16.99 67.0333L16.9496 66.9526C16.9093 66.892 16.8891 66.8113 16.8487 66.7306L16.8084 66.6297C16.768 66.5692 16.7478 66.4885 16.7075 66.4279L16.6671 66.3472C16.6268 66.2665 16.6066 66.206 16.5662 66.1252L16.5259 66.0445C16.4855 65.9638 16.4653 65.8831 16.425 65.8226L16.3846 65.7419C16.3644 65.6611 16.3241 65.5804 16.3039 65.5199L16.2635 65.4392C16.2434 65.3585 16.203 65.2777 16.1828 65.197L16.1626 65.1163C16.1425 65.0356 16.1021 64.9549 16.0819 64.854L16.0618 64.8136C16.0416 64.7127 16.0012 64.632 15.981 64.5311L15.9609 64.4706C15.9407 64.3697 15.9205 64.289 15.8801 64.1881L15.86 64.1477L15.7994 63.8652V63.8249L15.7389 63.5222V63.4818L15.6784 63.1792V63.1388C15.6582 63.0379 15.638 62.937 15.638 62.816V62.7958C15.6178 62.6949 15.6178 62.5738 15.5976 62.4729V62.4527C15.5775 62.3518 15.5775 62.2308 15.5775 62.1299V62.1097C15.5775 62.0088 15.5573 61.8877 15.5573 61.7868V61.7667C15.5573 61.6456 15.5371 61.5447 15.5371 61.4236V60.7376C15.5371 60.6165 15.5371 60.5156 15.5573 60.3945V60.3743C15.5573 60.2734 15.5775 60.1524 15.5775 60.0515V60.0313C15.5775 59.9304 15.5976 59.8295 15.5976 59.7286V59.6883C15.6178 59.5874 15.6178 59.5067 15.638 59.4058V59.3452C15.6582 59.2645 15.6582 59.1636 15.6784 59.0829L15.6985 59.0022C15.7187 58.9215 15.7187 58.8408 15.7389 58.7802L15.7591 58.6592C15.7793 58.5986 15.7793 58.5179 15.7994 58.4574L15.8398 58.2959L15.8801 58.1345C15.9003 58.074 15.9003 58.0134 15.9205 57.9731L15.9609 57.8318C15.981 57.7713 16.0012 57.7108 16.0012 57.6502L16.0416 57.509L16.1021 57.3274C16.1223 57.1659 16.1626 57.065 16.203 56.944ZM16.425 50.9913C16.5259 50.8299 16.6469 50.6482 16.7478 50.4868L16.7276 50.5272C16.6268 50.6886 16.5259 50.85 16.425 50.9913ZM28.7743 75.1451C27.6039 75.0644 26.4739 74.8424 25.3843 74.5196C26.4134 74.7415 27.5232 74.9635 28.7743 75.1451ZM44.8365 60.9393C44.7759 59.2242 44.4127 57.5897 43.8275 56.0763C43.8275 56.2175 43.8074 56.3588 43.8074 56.5C44.3724 57.8722 44.7558 59.3452 44.8365 60.9393ZM43.545 67.5781C43.3231 67.9413 43.1011 68.2844 42.859 68.6072L42.8186 68.5669C44.0697 66.549 44.8365 64.1881 44.8566 61.6254C44.8163 63.7442 44.3522 65.762 43.545 67.5781ZM43.202 50.4868C44.8768 53.0091 45.8656 56.0359 45.8656 59.2847C45.8656 59.6479 45.8454 59.9909 45.8252 60.3542C45.8252 60.1322 45.8454 59.9102 45.8454 59.6883C45.8454 56.5404 44.9374 53.6145 43.3836 51.1527L43.202 50.4868Z" fill="#F5DC83"/>
<path d="M39.9936 70.6254C40.1146 70.5245 40.1752 70.464 40.1752 70.464C40.1752 70.464 40.155 70.5649 40.1348 70.7667C40.0944 70.7263 40.0541 70.6658 39.9936 70.6254ZM39.7514 71.8159C37.0475 73.9145 33.6575 75.1858 29.985 75.1858C23.3462 75.1858 17.676 71.1299 15.2949 65.3588C15.6178 64.4306 15.8196 63.8857 15.8196 63.8857C15.8196 63.8857 18.6647 72.5625 27.1196 73.7733C33.2337 74.6409 37.3502 72.5222 39.146 71.2913C39.3478 71.4729 39.5496 71.6545 39.7514 71.8159Z" fill="white"/>
<path d="M35.1307 74.3383C35.0702 74.3584 35.0097 74.3786 34.9693 74.3988L34.8684 74.4391C34.7877 74.4593 34.6868 74.4997 34.5859 74.5199L34.485 74.5602C34.4043 74.5804 34.3034 74.6208 34.2227 74.6409H34.2025L34.0814 74.6611L33.8595 74.7216L33.698 74.762L33.4559 74.8225L33.2945 74.8629L33.0927 74.9033L32.9111 74.9436C32.8505 74.9638 32.7698 74.9638 32.7093 74.984C24.7589 73.3091 21.7927 69.8384 20.0977 66.4888H20.1784C22.6805 69.3743 26.1512 71.15 29.9852 71.15C31.2564 71.15 32.4671 70.9482 33.6375 70.585L35.1307 74.3383ZM39.3682 72.1186L39.2673 72.1791C39.1866 72.2397 39.1059 72.3002 39.0252 72.3406L38.9647 72.3809C38.884 72.4415 38.8032 72.4818 38.7225 72.5424L38.662 72.5827C38.5813 72.6433 38.5006 72.6836 38.4198 72.7441L38.3189 72.8047C38.2382 72.8652 38.1373 72.9056 38.0566 72.9661L38.0163 73.0065C37.9356 73.0468 37.8548 73.1074 37.754 73.1477H37.7338L37.6329 73.2082C37.5723 73.2486 37.4916 73.289 37.4311 73.3091L37.3302 73.3697H37.31C37.2091 73.41 37.1284 73.4706 37.0275 73.5109C36.9266 73.5513 36.8257 73.6118 36.7248 73.6522L36.6239 73.6925C36.5231 73.7329 36.4222 73.7733 36.3414 73.8338L36.3011 73.854L35.9984 73.975L35.8975 74.0154C35.837 74.0356 35.7563 74.0759 35.6756 74.0961L35.5747 74.1365H35.5545L35.4939 74.1566C36.2204 73.8338 36.8257 73.4706 37.5118 73.0468L35.4939 69.7577C35.958 69.5156 36.4222 69.2532 36.8459 68.9707C36.9468 68.9506 37.0073 68.9304 37.0881 68.89C37.3302 69.2129 37.5723 69.5357 37.8347 69.8586L39.3682 72.1186Z" fill="#D2AF6B"/>
<path d="M37.552 73.087C36.7247 73.5914 36.0386 74.0152 35.1306 74.3582L33.6172 70.5646C34.2629 70.3629 34.9086 70.1005 35.514 69.7979L37.552 73.087Z" fill="#B8804C"/>
<path d="M37.8958 73.531C37.8555 73.5512 37.7949 73.5916 37.7546 73.6117C37.7949 73.5916 37.8353 73.5714 37.8958 73.531ZM38.703 73.0266C38.6021 73.0871 38.5214 73.1476 38.4205 73.2082L38.5416 73.1275L38.703 73.0266ZM39.49 72.4817C39.4496 72.5221 39.3891 72.5423 39.3487 72.5826L39.49 72.4817ZM40.963 71.2105L40.8217 71.3517C40.8621 71.3114 40.9025 71.2508 40.963 71.2105ZM41.2859 70.9078L41.0639 71.1298C41.1244 71.0491 41.2051 70.9683 41.2859 70.9078ZM41.5078 70.6657L41.3666 70.8069C41.4069 70.7666 41.4473 70.706 41.5078 70.6657ZM42.1939 69.8585C42.1535 69.8989 42.1334 69.9392 42.093 69.9796L42.1939 69.8585ZM29.4612 75.2462C29.3603 75.226 29.2392 75.226 29.1383 75.2059C29.2594 75.2059 29.3603 75.226 29.4612 75.2462ZM16.8294 68.9101C16.9504 69.1119 17.0715 69.2935 17.1926 69.4953C17.0513 69.3137 16.9101 69.1119 16.7688 68.9303L16.8294 68.9101ZM20.5019 49.8413C18.3024 51.5767 16.6074 53.9376 15.6792 56.6415C15.3765 56.1371 14.9931 55.451 14.6904 54.6438V54.664C15.5985 51.9399 17.2128 49.5387 19.3315 47.6822L20.5019 49.8413ZM33.7592 44.1913L33.9812 44.2519C33.9207 44.2317 33.8399 44.2115 33.7592 44.1913ZM29.8446 43.707C31.1965 43.707 32.5082 43.8685 33.7592 44.1913C34.7278 45.4222 35.6762 46.8549 36.4833 48.1261C34.5664 47.1778 32.4274 46.6329 30.1674 46.5926H29.9051H29.9455H29.8244C28.5935 46.6127 27.4231 46.7742 26.273 47.0567L25.1833 44.4536C24.8403 44.5545 24.4972 44.6756 24.1744 44.8169C25.7887 44.0904 27.7662 43.707 29.8446 43.707Z" fill="#B87E44"/>
<path d="M24.4765 48.5095C24.4159 48.5297 24.3756 48.5499 24.3151 48.5701C24.3554 48.5499 24.4159 48.5297 24.4765 48.5095ZM24.759 48.3884C24.6984 48.4086 24.6177 48.4288 24.5572 48.4692C24.6379 48.449 24.6984 48.4086 24.759 48.3884ZM25.5056 48.1463C25.2634 48.227 25.0415 48.2875 24.7993 48.3683C25.0213 48.2875 25.2634 48.227 25.5056 48.1463ZM22.2568 45.624C23.1245 45.1599 24.0326 44.7563 25.0011 44.4536L26.0908 47.0567C25.0617 47.319 24.0729 47.6822 23.1447 48.1463L22.2568 45.624Z" fill="#F5DC83"/>
<path d="M19.3105 47.6621C20.602 46.5321 22.075 45.6039 23.6893 44.938L25.0009 48.3078C24.1534 48.5903 23.3463 48.9535 22.5997 49.3773L20.602 49.9826L19.3105 47.6621Z" fill="white"/>
<path d="M42.476 69.5358C42.1935 69.8788 41.9109 70.2218 41.6083 70.5649L40.9424 69.6972C41.2249 69.3541 41.5074 69.0111 41.7495 68.6681L41.7697 68.6882L41.7899 68.7084L41.8504 68.7891L41.8706 68.8093L41.8908 68.8295L41.9109 68.8497L41.9311 68.8699L42.0118 68.9707V68.9909L42.032 69.0111L42.0522 69.0313L42.1329 69.1322L42.1531 69.1524L42.254 69.2734L42.2742 69.2936L42.2943 69.3138L42.3145 69.334L42.3347 69.3541L42.3952 69.4147L42.4154 69.4349L42.4356 69.455L42.4558 69.4752L42.476 69.4954L42.5567 69.5963L42.476 69.5358ZM42.5365 49.5993C44.6754 52.2225 45.9265 55.6327 45.8458 59.6886C45.8458 63.0382 44.8167 66.1659 43.041 68.7286L43.0208 68.7084L43.0006 68.6882L42.9401 68.6479L42.9199 68.6277L42.8997 68.6075L42.8795 68.5874L42.8593 68.5672L42.8392 68.547L42.819 68.5268L42.7988 68.5066L42.7786 68.4865L42.7585 68.4663L42.7383 68.4461L42.7181 68.4259L42.6979 68.4058L42.6777 68.3856L42.6576 68.3654L42.6374 68.3452L42.6172 68.325L42.597 68.3049L42.5768 68.2847L42.5567 68.2645L42.5365 68.2443L42.5163 68.2241L42.4961 68.204L42.476 68.1838L42.4558 68.1636L42.4356 68.1434L42.3347 68.0627L42.2136 67.9618L42.1127 67.8811L42.0926 67.8609H42.0724C43.3638 65.8229 44.1104 63.4418 44.1104 60.8993C44.1104 57.1663 42.5163 53.7964 39.9536 51.3346C40.7809 50.81 41.6285 50.1643 42.5365 49.5993ZM37.3304 49.5186C36.4224 48.0253 35.0906 45.9066 33.7588 44.1914C36.1197 44.7766 38.299 45.8259 40.1352 47.2586C39.994 47.3796 39.8326 47.5007 39.6913 47.6218C39.3684 47.9043 39.0456 48.207 38.7429 48.5096C38.6017 48.6307 38.299 48.9737 38.0568 49.2562C38.0165 49.2966 37.9761 49.3571 37.9358 49.4177L37.855 49.5186L37.8349 49.5387L37.8147 49.5589V49.5993C37.5725 49.6396 37.4515 49.5791 37.3304 49.5186Z" fill="#D2AF6B"/>
<path d="M40.3974 51.1728C40.9825 51.8186 41.5274 52.5248 42.0117 53.2512L41.7695 53.5741C41.2449 52.8477 40.6597 52.1616 40.014 51.536C40.135 51.415 40.2763 51.2939 40.3974 51.1728ZM29.1377 47.5205L29.4404 46.5923H29.8439C32.2452 46.5923 34.5052 47.1573 36.5029 48.146C37.0881 48.4285 37.6329 48.7716 38.1575 49.155L38.0566 49.276L37.9961 49.3366L37.9558 49.3971L37.9356 49.4173L37.9154 49.4375V49.4577L37.8952 49.498L37.875 49.5182C35.615 48.1259 32.9313 47.2985 30.0457 47.2985C29.6018 47.5205 29.3798 47.5205 29.1377 47.5205Z" fill="#FFF286"/>
<path d="M57.1863 69.031C60.7983 66.6499 63.4013 62.4729 64.0268 57.5493C63.6434 60.4954 62.5538 63.1792 60.9799 65.3786L62.7959 67.5579C61.9081 69.1117 60.7175 70.4838 59.2445 71.6138L59.3252 71.5533L57.5293 68.9099C57.4486 68.9503 57.3477 68.9906 57.2266 69.0108L57.1863 69.031ZM57.1863 69.031C56.8029 69.2933 56.9845 69.152 57.1863 69.031V69.031ZM55.794 69.7776C56.0361 69.6767 56.1168 69.6565 55.8747 69.7978C55.8545 69.7978 55.8141 69.7978 55.794 69.7776ZM53.9577 70.5645C53.8972 70.5847 53.9174 70.5645 53.9981 70.5444C53.9981 70.5444 53.9779 70.5645 53.9577 70.5645ZM36.5436 56.944C36.927 60.9192 38.5816 64.4706 41.0232 67.0131C40.8416 66.8315 40.6802 66.6499 40.4986 66.4481H40.4179C42.012 69.5758 44.7159 72.8044 51.5565 74.6003C51.1125 74.6406 50.6484 74.6608 50.1843 74.6608C42.2743 74.6608 35.8575 68.587 35.8575 61.0806V60.7376C35.8575 60.6165 35.8575 60.5156 35.8777 60.3945V60.3743C35.8777 60.2734 35.8978 60.1524 35.8978 60.0515V60.0313C35.8978 59.9304 35.918 59.8295 35.918 59.7286V59.6681C35.9382 59.5672 35.9382 59.4663 35.9584 59.3856V59.3251C35.9786 59.2443 35.9786 59.1434 35.9987 59.0627L36.0189 58.982C36.0391 58.9013 36.0391 58.8206 36.0593 58.7399L36.0795 58.6188C36.0996 58.5583 36.0996 58.4776 36.1198 58.417L36.1602 58.2758C36.1803 58.2152 36.1803 58.1547 36.2005 58.1143C36.2207 58.0538 36.2409 57.9933 36.2409 57.9125L36.2812 57.7915L36.3418 57.5897L36.3821 57.4888L36.4427 57.2668L36.483 57.1659C36.5032 57.0852 36.5234 57.0045 36.5436 56.944ZM35.8575 65.8831C34.9494 63.8652 34.4248 61.6456 34.4248 59.2847C34.4248 56.0359 35.4136 53.0091 37.0884 50.4868C36.6848 51.98 36.4628 53.5741 36.4628 55.2288V55.4911L36.4225 55.5718C36.3821 55.6525 36.3418 55.7534 36.3216 55.8342L36.2812 55.9149C36.2409 55.9956 36.2207 56.0763 36.1803 56.1772L36.14 56.2579C36.1198 56.3386 36.0794 56.3992 36.0593 56.4799L36.0189 56.5808C35.9987 56.6615 35.9584 56.7422 35.9382 56.8431L35.8978 56.944L35.8373 57.1458L35.7768 57.3274L35.7162 57.509C35.6961 57.5695 35.6759 57.63 35.6759 57.6906C35.6557 57.7511 35.6557 57.7915 35.6355 57.852L35.575 58.074L35.5548 58.195L35.4943 58.4574L35.4741 58.5583L35.4136 58.8408L35.3934 58.9417C35.3732 59.0426 35.353 59.1233 35.353 59.2242L35.3328 59.2847C35.3127 59.3856 35.2925 59.5067 35.2925 59.6076V59.6479C35.2723 59.769 35.2723 59.8699 35.2521 59.9909V60.0111C35.2319 60.1322 35.2319 60.2533 35.2118 60.3743V60.3945C35.2118 60.5156 35.1916 60.6367 35.1916 60.7577V60.7779C35.1714 61.0201 35.1714 61.2824 35.1714 61.5447V62.4527C35.1714 62.5335 35.1714 62.6142 35.1916 62.6949V63.1186L35.2118 63.2195V63.502L35.2319 63.5827V63.7442L35.2521 63.8047V63.8652L35.2723 63.9258L35.2925 63.9863L35.3127 64.0468L35.3328 64.1074L35.353 64.1679L35.3732 64.2285L35.3934 64.289L35.4136 64.3495V64.3697L35.4337 64.4302V64.4504L35.4539 64.4908L35.4741 64.5513L35.4943 64.6119L35.5548 64.8742V64.8944L35.575 65.0154L35.5952 65.076L35.6153 65.1365L35.6355 65.197L35.6557 65.2576L35.6961 65.3786L35.7162 65.4392L35.7364 65.4997L35.7566 65.5602L35.7768 65.6208L35.7969 65.6813L35.8171 65.7419L35.8575 65.8831Z" fill="#F5DC83"/>
<path d="M55.8748 69.7979C56.3389 69.5558 56.803 69.2934 57.2268 69.0109C57.3478 68.9908 57.4487 68.9504 57.5294 68.91L59.3253 71.5534C58.8007 71.9772 58.2357 72.3404 57.6505 72.6834L55.8748 69.7979ZM51.5566 74.6004C44.716 72.8247 42.0121 69.5759 40.418 66.4482H40.4987C43.0008 69.3338 46.4716 71.1095 50.3055 71.1095C51.5767 71.1095 52.7875 70.9077 53.9578 70.5445L55.2493 73.7731C54.0991 74.217 52.848 74.4793 51.5566 74.6004Z" fill="#D2AF6B"/>
<path d="M55.2494 73.7932L53.958 70.5646C54.6037 70.3629 55.2494 70.1005 55.8548 69.7979L57.6305 72.6834C56.8839 73.1273 56.0969 73.4905 55.2494 73.7932Z" fill="#B8804C"/>
<path d="M65.5002 54.6035C65.9643 56.0967 66.2064 57.6707 66.2064 59.3051C66.2064 62.6548 65.1773 65.7623 63.4016 68.325L60.96 65.3991C62.9576 62.6346 64.1684 59.1033 64.1684 55.2291V54.9264L65.5002 54.6035Z" fill="#D2B06F"/>
<path d="M63.5218 68.5469C63.4815 68.6276 63.4209 68.6882 63.3604 68.7689C63.4209 68.7083 63.4613 68.6276 63.5218 68.5469ZM64.4904 66.8721C64.45 66.9326 64.4299 67.0133 64.3895 67.0739C64.4299 67.0133 64.45 66.9528 64.4904 66.8721ZM64.6518 66.5291C64.6115 66.5896 64.5913 66.6703 64.5509 66.7308C64.5913 66.6703 64.6316 66.6098 64.6518 66.5291ZM48.973 75.6498C48.9125 75.6498 48.8318 75.6296 48.7713 75.6296L48.9327 75.6498H48.973ZM49.6188 75.6901C49.417 75.6901 49.2354 75.67 49.0336 75.6498C49.1345 75.6498 49.2152 75.67 49.3161 75.67H49.3968C49.4775 75.6901 49.538 75.6901 49.6188 75.6901ZM56.9638 74.1969C56.9032 74.2171 56.8629 74.2373 56.8023 74.2776L56.8427 74.2575L56.9638 74.1969ZM59.0624 73.0064C58.9816 73.0669 58.9009 73.1275 58.8 73.1678L58.8807 73.1275L59.0422 73.0266L59.0624 73.0064ZM59.3852 72.7844C59.3045 72.845 59.2238 72.8853 59.1632 72.9458L59.2238 72.9055L59.3449 72.8248L59.3852 72.7844ZM59.7686 72.5221L59.5063 72.7239L59.587 72.6633L59.7081 72.5826L59.7686 72.5221ZM60.9591 70.0401L61.0802 69.9191C61.0399 69.9392 60.9995 69.9796 60.9591 70.0401ZM58.1341 72.3808L58.2754 72.3001L58.1745 72.3808H58.1341ZM63.0981 69.1523L62.9165 69.3944C62.977 69.3339 63.0375 69.233 63.0981 69.1523ZM63.7236 68.2442C63.6833 68.3048 63.6631 68.3451 63.6227 68.4057L63.7236 68.2442ZM63.9254 67.9012L63.8043 68.0828C63.8649 68.0223 63.885 67.9617 63.9254 67.9012ZM64.8133 66.2062C64.7931 66.2667 64.7729 66.3071 64.7325 66.3676C64.7527 66.3273 64.7729 66.2667 64.8133 66.2062ZM54.0984 44.1913L54.3204 44.2519C54.2598 44.2317 54.1791 44.2115 54.0984 44.1913ZM60.8582 70.141C60.8179 70.1814 60.7775 70.2217 60.7372 70.2823L60.8582 70.141ZM60.717 70.2823C60.7574 70.2419 60.7977 70.2016 60.8381 70.141L60.717 70.2823ZM38.5205 52.1215C38.4398 52.2224 38.3591 52.3233 38.2784 52.4444L38.2582 52.4646C38.1977 52.5251 38.1573 52.6058 38.0968 52.6663L38.0766 52.6865C37.8546 52.9892 37.6528 53.2919 37.4511 53.5946C37.2493 53.9174 37.0677 54.2201 36.886 54.5631C36.543 55.229 36.2403 55.9151 35.978 56.6213C35.6753 56.1169 35.3121 55.4308 34.9893 54.6237C35.4735 53.1708 36.1596 51.8188 37.0273 50.5879L38.5205 52.1215ZM50.1838 43.707C51.5357 43.707 52.8473 43.8685 54.0984 44.1913C55.067 45.4222 56.0154 46.8549 56.8225 48.1261C55.0266 47.2383 53.0088 46.7136 50.89 46.6128C50.7891 46.6128 50.7084 46.6127 50.6075 46.5926H49.8004C49.6995 46.5926 49.5784 46.5926 49.4775 46.6128H49.3363C49.2757 46.6128 49.2152 46.6128 49.1547 46.6329C49.0941 46.6329 49.0538 46.6329 48.9932 46.6531C48.9327 46.6531 48.8721 46.6733 48.7914 46.6733L48.6502 46.6935C48.5493 46.7136 48.4484 46.7136 48.3475 46.7338C48.287 46.7338 48.2466 46.754 48.1861 46.754C48.1255 46.754 48.065 46.7742 47.9843 46.7742L47.8229 46.7944L47.6413 46.8145C47.5807 46.8145 47.5404 46.8347 47.4798 46.8347C47.4193 46.8549 47.3386 46.8549 47.278 46.8751C47.2377 46.8751 47.1771 46.8953 47.1368 46.8953L46.8543 46.9558C46.8139 46.976 46.7534 46.976 46.713 46.9961C46.6525 47.0163 46.592 47.0163 46.5314 47.0365L46.3902 47.0769L46.2086 47.1374L46.0673 47.1778C45.9664 47.1979 45.8655 47.2383 45.7848 47.2585C45.7445 47.2786 45.6839 47.2786 45.6436 47.2988C45.583 47.319 45.5427 47.3392 45.4821 47.3594C45.4216 47.3795 45.3611 47.3997 45.3207 47.4199L45.1795 47.4603C45.1189 47.4804 45.0786 47.5006 45.018 47.5208C44.9575 47.541 44.897 47.5611 44.8566 47.5813C44.7759 47.6217 44.6952 47.6419 44.6145 47.6822C44.5539 47.7024 44.5136 47.7226 44.453 47.7428C44.3925 47.7629 44.332 47.7831 44.2916 47.8235L44.1705 47.884C44.11 47.9042 44.0495 47.9445 43.9889 47.9647L43.8679 48.0253C43.8073 48.0454 43.7468 48.0858 43.7064 48.106C43.6459 48.1261 43.5854 48.1665 43.5248 48.1867L43.2827 48.3078L43.1616 48.3683C43.1011 48.4086 43.0405 48.4288 42.98 48.4692L42.8791 48.5297C42.8186 48.5701 42.758 48.5903 42.6975 48.6306L42.5966 48.6911C42.4755 48.7517 42.3746 48.8324 42.2536 48.8929L42.193 48.9333L42.0114 49.0544L41.9105 49.1149C41.85 49.1553 41.7895 49.1956 41.7491 49.236L41.6684 49.2965C41.4666 49.4378 41.2648 49.579 41.0832 49.7203L41.0428 49.7606C40.9823 49.801 40.9218 49.8615 40.8612 49.9019L40.8411 49.922L39.7312 47.6822C42.4957 45.1801 46.1682 43.707 50.1838 43.707Z" fill="#B87E44"/>
<path d="M50.8302 46.5923C58.7201 46.9151 65.036 53.2916 65.1974 61.1814C65.1167 58.2354 63.9665 55.6121 62.4329 53.3319C59.8299 49.498 55.7336 46.8142 50.8302 46.5923ZM62.8567 69.4748C62.7154 69.6564 62.5944 69.8179 62.4531 69.9793L62.4329 69.9995C62.3522 70.1004 62.2513 70.2013 62.1706 70.3022L62.1504 70.3223C62.0092 70.4838 61.8679 70.6452 61.7065 70.7864L61.6662 70.8268C61.5854 70.9075 61.5047 71.0084 61.4038 71.0891L61.3433 71.1497C61.2626 71.2304 61.1617 71.3313 61.0608 71.412L61.0406 71.4322C60.8792 71.5734 60.7379 71.7147 60.5765 71.8357L60.4958 71.8963C60.4151 71.9568 60.3344 72.0375 60.2537 72.0981L60.1729 72.1586C60.1326 72.199 60.072 72.2393 60.0317 72.2797C59.9712 72.32 59.9106 72.3806 59.8501 72.4209L59.7088 72.5218L59.5878 72.6025L59.3658 72.764L59.2447 72.8447L59.0631 72.9657L58.9017 73.0666L58.7806 73.1473C58.6999 73.1877 58.6394 73.2482 58.5587 73.2886L58.4174 73.3693L58.2761 73.45C58.2156 73.4904 58.1551 73.5307 58.0945 73.5509C58.034 73.5913 57.9735 73.6115 57.9129 73.6518L57.7919 73.7123L57.5497 73.8334L57.4286 73.894L57.1865 74.015L57.0856 74.0554C57.0049 74.0957 56.9444 74.1159 56.8636 74.1563L56.7627 74.1966C56.682 74.237 56.5811 74.2773 56.5004 74.3177L56.3794 74.3581C56.2986 74.3984 56.1978 74.4388 56.117 74.459L56.0161 74.4993C55.9354 74.5397 55.8345 74.5599 55.7538 74.6002L55.6731 74.6204C55.5722 74.6607 55.4915 74.6809 55.3906 74.7213L55.3099 74.7616C55.209 74.802 55.1081 74.8222 55.0072 74.8625L54.9063 74.8827C54.8054 74.9231 54.7045 74.9432 54.6036 74.9634L54.5229 74.9836C54.422 75.0038 54.3413 75.0441 54.2404 75.0643L54.1799 75.0845C54.079 75.1047 53.9579 75.145 53.857 75.1652L53.7763 75.1854L53.4535 75.2459L53.3727 75.2661L53.0297 75.3266L52.6665 75.3872H52.606C52.4849 75.4074 52.3638 75.4275 52.2629 75.4275H52.2024C52.0813 75.4477 51.9602 75.4477 51.8392 75.4679H51.7988C51.6777 75.4881 51.5567 75.4881 51.4356 75.5082H51.3952C51.2742 75.5082 51.1531 75.5284 51.0522 75.5284H50.9715C50.8504 75.5284 50.7495 75.5486 50.6285 75.5486H49.7406C49.6195 75.5486 49.4984 75.5486 49.3976 75.5284H49.3168C49.1958 75.5284 49.0747 75.5082 48.9738 75.5082H48.9334C48.8124 75.5082 48.6913 75.4881 48.5702 75.4679H48.5299C48.4088 75.4477 48.2877 75.4477 48.1667 75.4275H48.1061C47.9851 75.4074 47.864 75.3872 47.7631 75.3872H47.7026L47.3393 75.3266L46.9963 75.2661L46.9156 75.2459L46.5927 75.1854L46.512 75.1652C46.4111 75.145 46.29 75.1047 46.1892 75.0845L46.1286 75.0643C46.0277 75.0441 45.947 75.024 45.8461 74.9836L45.7654 74.9634C45.6645 74.9432 45.5636 74.9029 45.4627 74.8827L45.3618 74.8625C45.2609 74.8222 45.16 74.802 45.0592 74.7616L44.9784 74.7213C44.8775 74.6809 44.7968 74.6607 44.6959 74.6204L44.6152 74.6002C44.5345 74.5599 44.4336 74.5397 44.3529 74.4993L44.252 74.459C44.1713 74.4186 44.0704 74.3782 43.9897 74.3581L43.8686 74.3177C43.7879 74.2773 43.687 74.237 43.6063 74.1966L43.5054 74.1563C43.4247 74.1159 43.3641 74.0957 43.2834 74.0554L43.1825 74.015L42.9404 73.894L42.8193 73.8334L42.7588 73.8132C44.7968 74.7616 47.299 75.2661 50.5679 75.2661C57.247 75.2661 65.1571 69.7775 65.1571 61.4236C65.1772 64.4302 64.3297 67.1745 62.8567 69.4748Z" fill="#D2B06F"/>
<path d="M43.1019 49.2963L42.9607 49.377C43.001 49.3366 43.0616 49.3165 43.1019 49.2963ZM39.6514 47.6618L39.7119 47.6013L39.7321 47.5811L39.7724 47.5407L39.7926 47.5206L39.8128 47.5004C40.9832 46.552 42.2948 45.765 43.7073 45.1597L44.696 47.7224C43.1826 48.2874 41.7701 49.0743 40.519 50.0631L39.6514 47.6618Z" fill="white"/>
<path d="M37.0479 50.5878C37.2496 50.2852 37.4716 50.0027 37.6936 49.7202V49.6798L38.0568 49.2561C38.2989 48.9534 38.6016 48.6305 38.7429 48.5094C39.0455 48.2068 39.3482 47.9041 39.6912 47.6216L40.8011 49.8614C39.9536 50.5273 39.1868 51.2941 38.5209 52.1214L37.0479 50.5878Z" fill="#FFF286"/>
<path d="M56.9236 48.2877C56.0963 46.9761 55.1076 45.4828 54.0986 44.1914C61.0401 45.9469 66.3672 51.5162 66.1856 59.7088C66.1856 63.8857 64.5713 67.6995 61.9481 70.5649L61.7261 70.2824C63.8045 67.982 65.1767 64.9956 65.1767 61.5248C65.1767 58.4577 64.0063 55.7336 62.4122 53.3727C60.9997 51.2337 59.1231 49.4782 56.9236 48.2877Z" fill="#D2AF6B"/>
<path d="M37.1085 68.91C35.2723 66.307 34.1826 63.1187 34.1826 59.6884C34.1826 57.9126 34.4651 56.2176 35.0099 54.6235C35.3328 55.4307 35.696 56.1168 35.9987 56.6212C37.9762 50.8905 43.3841 46.7539 49.7807 46.5723L49.478 47.5005C43.2428 47.783 38.0367 51.8591 36.4023 57.3476C35.7364 59.5471 35.6758 61.8677 36.2207 64.1075C37.7341 70.3225 43.5657 74.6407 50.1843 74.6407C58.0943 74.6407 64.5111 68.567 64.5111 61.0605C64.5111 58.2759 63.6232 55.693 62.1098 53.5339L62.352 53.2312L62.4125 53.3119C64.0066 55.6728 65.1366 58.3969 65.177 61.4641C65.3384 69.9593 57.4889 75.8313 50.608 75.6698C43.9491 75.5084 40.438 73.2484 37.5121 69.4548C37.391 69.253 37.2699 69.0714 37.1489 68.8696L37.1085 68.91Z" fill="#6D1B1E"/>
<path d="M49.4775 47.5205L49.7802 46.5923H50.1838C52.585 46.5923 54.8451 47.1573 56.8427 48.146C59.1431 49.276 60.8986 51.1728 62.3515 53.2512L62.1094 53.5741C59.5467 49.9218 55.1679 47.5205 50.1838 47.5205H49.4775Z" fill="#FFF286"/>
<path d="M36.9668 68.9501C37.108 68.9299 40.3972 66.2664 40.942 64.9346C41.7491 65.3987 43.1213 66.1655 43.1213 66.1655C41.729 68.9501 40.1752 70.8267 38.8636 71.6541C38.6618 71.4724 37.895 70.3626 36.9668 68.9501Z" fill="#D2AF6B"/>
<path d="M36.9668 68.9505C37.0677 68.9303 38.9443 67.4371 40.1147 66.1255L42.3747 67.5783C41.2043 69.5962 39.9532 70.9684 38.8838 71.6342C38.8636 71.6342 38.8636 71.6141 38.8434 71.5939C38.4197 71.0289 37.9152 70.3226 37.4713 69.7173C37.3098 69.4751 37.1484 69.2128 36.9668 68.9505Z" fill="#F5DC83"/>
<path d="M40.4176 70.3023L38.4199 67.8405C38.7024 67.5984 38.9647 67.3361 39.2271 67.0737L41.3458 69.1925C41.023 69.5961 40.7203 69.9593 40.4176 70.3023Z" fill="white"/>
<path d="M43.1014 54.6841C44.1103 56.6414 44.6955 58.8611 44.756 61.2018C44.6955 58.8207 43.9287 56.6414 42.8189 54.6841H43.1014ZM42.4153 69.475C42.274 69.6566 42.153 69.818 42.0117 69.9795L41.9915 69.9997C41.9108 70.1005 41.8099 70.2014 41.7292 70.3023L41.709 70.3225C41.5678 70.4839 41.4265 70.6454 41.2651 70.7866L41.2248 70.827C41.144 70.9077 41.0633 71.0086 40.9624 71.0893L40.9019 71.1498C40.8212 71.2306 40.7203 71.3314 40.6194 71.4122L40.5992 71.4323C40.4378 71.5736 40.2965 71.7148 40.1351 71.8359L40.0544 71.8964C39.9737 71.957 39.893 72.0377 39.8122 72.0982L39.7315 72.1588C39.6912 72.1991 39.6306 72.2395 39.5903 72.2798C39.5297 72.3202 39.4692 72.3807 39.4087 72.4211L39.2674 72.522L39.1464 72.6027L38.9244 72.7641L38.8033 72.8448L38.6217 72.9659L38.4603 73.0668L38.3392 73.1475C38.2585 73.1879 38.198 73.2484 38.1172 73.2888L37.976 73.3695L37.8347 73.4502C37.7742 73.4906 37.7137 73.5309 37.6531 73.5511C37.5926 73.5914 37.5321 73.6116 37.4715 73.652L37.3505 73.7125L37.1083 73.8336L36.9872 73.8941L36.7451 74.0152L36.6442 74.0556C36.5635 74.0959 36.503 74.1161 36.4222 74.1565L36.3213 74.1968C36.2406 74.2372 36.1397 74.2775 36.059 74.3179L35.938 74.3582C35.8572 74.3986 35.7563 74.4389 35.6756 74.4591L35.5747 74.4995C35.494 74.5398 35.3931 74.56 35.3124 74.6004L35.2317 74.6206C35.1308 74.6609 35.0501 74.6811 34.9492 74.7214L34.8685 74.7618C34.7676 74.8022 34.6667 74.8223 34.5658 74.8627L34.4649 74.8829C34.364 74.9232 34.2631 74.9434 34.1622 74.9636L34.0815 74.9838C33.9806 75.004 33.8999 75.0443 33.799 75.0645L33.7385 75.0847C33.6376 75.1048 33.5165 75.1452 33.4156 75.1654L33.3349 75.1856L33.0121 75.2461L32.9313 75.2663L32.5883 75.3268L32.2251 75.3873H32.1645C32.0435 75.4075 31.9224 75.4277 31.8215 75.4277H31.761C31.6399 75.4479 31.5188 75.4479 31.3978 75.4681H31.3574C31.2363 75.4882 31.1153 75.4882 30.9942 75.5084H30.9538C30.8328 75.5084 30.7117 75.5286 30.6108 75.5286H30.5301C30.409 75.5286 30.3081 75.5488 30.187 75.5488H29.2992C29.1781 75.5488 29.057 75.5488 28.9561 75.5286H28.8754C28.7544 75.5286 28.6333 75.5084 28.5324 75.5084H28.492C28.371 75.5084 28.2499 75.4882 28.1288 75.4681H28.0885C27.9674 75.4479 27.8463 75.4479 27.7253 75.4277H27.6647C27.5436 75.4075 27.4226 75.3873 27.3217 75.3873H27.2611L26.8979 75.3268L26.5549 75.2663L26.4742 75.2461L26.1513 75.1856L26.0706 75.1654C25.9697 75.1452 25.8486 75.1048 25.7477 75.0847L25.6872 75.0645C25.5863 75.0443 25.5056 75.0241 25.4047 74.9838L25.324 74.9636C25.2231 74.9434 25.1222 74.9031 25.0213 74.8829L24.9204 74.8627C24.8195 74.8223 24.7186 74.8022 24.6177 74.7618L24.537 74.7214C24.4361 74.6811 24.3554 74.6609 24.2545 74.6206L24.1738 74.6004C24.0931 74.56 23.9922 74.5398 23.9115 74.4995L23.8106 74.4591C23.7299 74.4188 23.629 74.3784 23.5483 74.3582L23.4272 74.3179C23.3465 74.2775 23.2456 74.2372 23.1649 74.1968L23.064 74.1565C22.9833 74.1161 22.9227 74.0959 22.842 74.0556L22.7411 74.0152L22.499 73.8941L22.3779 73.8336L22.3174 73.8134C24.3554 74.7618 26.8576 75.2663 30.1265 75.2663C36.8056 75.2663 44.7157 69.7777 44.7157 61.4237C44.756 64.4304 43.9085 67.1746 42.4153 69.475Z" fill="#D2B06F"/>
<path d="M0.847063 48.7517C0.0802755 49.2764 -0.303118 49.5185 0.282062 50.8301C0.88742 52.1417 3.42993 52.0408 3.42993 52.0408C3.42993 52.0408 2.82457 53.3928 4.78189 54.9062C6.73922 56.3994 7.30422 55.5317 7.30422 55.5317C7.30422 55.5317 6.65851 56.6617 9.36244 57.2671C12.0664 57.8724 19.0078 46.4917 20.5616 46.0478C22.1153 45.6038 21.3485 45.0994 20.501 44.4335C18.8666 45.9267 10.8557 52.5857 9.0194 53.8569C7.18315 55.1282 4.47921 55.108 3.91421 53.413C3.34921 51.718 19.8351 42.9604 19.8351 42.9604C17.9787 43.9492 1.00849 53.6955 0.847063 48.7517Z" fill="#AFBFD7"/>
<path d="M10.9569 52.5653C10.9569 52.6259 14.1047 49.1148 16.6674 46.2091C18.2817 44.3728 15.2145 45.2405 15.5576 44.958C16.1629 44.5342 18.6046 42.8796 20.5417 42.3953C21.369 42.1935 22.2569 42.6173 22.6201 42.7585C23.851 43.2428 24.4564 43.7473 24.4564 43.7473C24.4564 43.7473 10.8358 51.96 10.9569 52.5653Z" fill="#8AA4CD"/>
<path d="M39.066 21.2279C39.066 21.2279 38.622 20.9858 38.0772 20.9656C37.6534 20.9656 37.1288 21.0665 36.8059 21.3692C36.5638 21.5911 35.3733 21.8535 35.1715 22.5194C34.7679 23.8713 35.5145 26.1313 35.8979 27.8263C36.5033 30.389 36.3418 29.481 37.9965 34.8889C39.6511 40.2967 38.9045 42.2137 35.4338 44.4737C31.7815 46.8548 26.6359 45.301 23.1854 43.2428C21.6922 42.3549 20.2998 41.911 19.6743 41.1241C18.3829 42.0523 16.8896 39.7115 16.8896 39.7115C16.8896 39.7115 22.3782 32.3262 25.5261 30.2276C28.674 28.129 29.2793 27.9676 29.7434 24.961C29.9856 23.387 30.3488 22.5194 30.2681 20.9454C30.2075 19.5128 29.9856 18.2011 30.3286 17.2729C31.1761 15.0533 34.5661 14.4479 36.0593 16.7079C36.4629 17.3335 36.7252 18.5442 37.1893 19.1697C38.1176 20.3804 38.7633 20.2997 39.409 21.0665C39.4897 21.127 39.3485 21.1876 39.066 21.2279Z" fill="#F3F4F8"/>
<path d="M25.5463 30.2479C27.6448 28.8354 28.8959 28.1695 29.3802 26.6763C29.4206 26.6763 29.4407 26.6763 29.4811 26.6964C29.4811 26.6964 29.239 28.8959 28.1291 29.6425C27.4431 30.0865 25.5463 30.8936 23.5486 32.5079C22.4388 33.3958 21.1877 34.9899 20.3604 35.8172C19.6945 36.8059 17.9793 39.6108 18.06 40.0749C18.1609 40.539 17.273 41.1847 16.93 41.2251C16.5264 40.8215 15.0938 41.5479 15.0938 41.5479C17.3941 38.4202 22.4388 32.3061 25.5463 30.2479Z" fill="#E0EDEC"/>
<path d="M29.2188 27.0798C29.4609 26.5551 29.6021 25.9094 29.7434 24.9812C29.9855 23.4073 30.3488 22.5396 30.268 20.9657C30.2479 20.3401 30.1873 19.7549 30.147 19.1899C30.3488 19.5128 30.6111 19.9164 30.9339 20.3805C31.7411 21.5508 33.6379 21.5508 33.0123 21.7324C32.3868 21.9141 31.1963 21.6517 31.0348 22.358C30.8532 23.0844 29.2188 27.5035 29.2188 27.2816C29.4407 27.4026 29.4004 27.3017 29.2188 27.0798Z" fill="#F3F4F8"/>
<path d="M38.6416 37.3911C39.3277 40.9829 38.3188 42.6173 35.4534 44.4738C31.8011 46.8548 26.6555 45.3011 23.205 43.2429C22.8014 43.0007 21.8934 42.577 20.9248 42.1532C19.5123 41.5075 17.5752 41.1847 17.3936 41.003C18.4832 40.0345 23.3866 38.622 25.7071 36.2812C24.4359 40.66 28.9155 43.485 31.902 43.3438C36.4624 43.1622 38.6215 40.7407 38.6416 37.3911Z" fill="#E0EDEC"/>
<mask id="mask0_2001_6053" style="mask-type:luminance" maskUnits="userSpaceOnUse" x="35" y="19" width="5" height="3">
<path d="M39.0658 21.2279C39.0658 21.2279 38.6219 20.9857 38.077 20.9656C37.6533 20.9656 37.1286 21.0665 36.8058 21.3691C36.7049 21.47 36.4022 21.5709 36.0794 21.7324C36.0592 21.692 36.039 21.6315 36.0188 21.5911C35.6758 20.5418 36.8663 19.8557 37.5322 19.5732C38.2788 19.8557 38.8438 20.4006 39.429 21.0665C39.4895 21.127 39.3483 21.1875 39.0658 21.2279Z" fill="white"/>
</mask>
<g mask="url(#mask0_2001_6053)">
<path d="M35.6758 19.5732H39.4895V21.7324H35.6758V19.5732Z" fill="url(#paint0_linear_2001_6053)"/>
</g>
<path d="M38.5006 36.5234C39.449 40.6601 38.1172 42.8999 35.4536 44.4738C31.2968 46.9558 25.3441 44.9581 21.9541 42.5972C27.9673 45.2002 39.9333 47.1374 38.5006 36.5234Z" fill="#AFBFD7"/>
<path d="M36.8056 21.3692C34.0613 23.0844 36.3213 29.5012 37.1688 32.185H37.1083C36.6644 31.8823 34.5456 30.3891 33.9604 27.8264C33.3551 25.2637 34.6667 20.8244 36.402 20.3401C36.9872 20.1787 37.2092 20.4814 37.7944 20.6832C38.2988 20.8648 38.9244 20.9455 39.4692 21.0867C39.106 21.4701 38.0163 20.6226 36.8056 21.3692Z" fill="#E0EDEC"/>
<path d="M36.8061 21.3693C35.1111 22.4387 35.3331 25.3041 35.9384 27.9677C34.6268 25.2839 34.9295 22.6203 35.4945 21.2482C35.777 20.6025 36.2411 20.5621 36.4025 20.3402C36.4631 20.32 36.5236 20.32 36.564 20.2998L37.0482 21.2078C36.9675 21.2886 36.8868 21.3289 36.8061 21.3693Z" fill="#8AA4CD"/>
<path d="M36.5029 20.34C37.0276 20.2391 37.2495 20.5216 37.8145 20.7234C38.1576 20.8444 38.5208 20.9251 38.9042 21.0059C39.0858 21.0664 39.2674 21.1269 39.449 21.1673C39.0454 21.4094 38.0365 20.7032 36.9267 21.3287C36.6644 21.0664 36.5433 20.6426 36.5029 20.34Z" fill="#B87E44"/>
<path d="M31.2568 15.9813C32.6492 14.9724 34.9697 14.9724 36.019 16.627C36.2208 16.8692 37.0481 18.8265 37.0683 18.9879C37.0683 18.9879 36.241 16.8894 35.0302 16.1629C33.0729 15.1742 32.1043 15.5172 31.2568 15.9813Z" fill="#A9B5D3"/>
<path d="M29.2393 27.3015C29.2393 27.5235 30.8737 23.1044 31.0553 22.378C31.2369 21.6515 32.4073 21.8937 33.0328 21.7121C32.4678 21.5305 32.0441 21.3287 31.7011 21.1067C30.45 20.2794 30.6719 19.5126 30.4096 18.3826C30.3693 18.201 30.1877 18.2615 30.1877 18.1001C30.2078 18.6449 30.2684 20.3399 30.3087 20.9655C30.3693 22.5394 30.0262 23.4071 29.7841 24.981C29.6428 25.9092 29.5016 26.5549 29.2594 27.0796C29.4007 27.3015 29.441 27.4024 29.2393 27.3015Z" fill="#E0EDEC"/>
<path d="M15.7795 41.7695C14.4074 42.2942 -2.50228 47.5406 0.403443 49.619C0.564872 49.2154 1.15005 48.3074 1.83612 47.8231C5.40774 45.2403 14.7101 42.274 15.7795 41.7695Z" fill="#AFBFD7"/>
<path d="M28.4927 30.2478C28.4927 30.2478 27.5039 32.9517 24.3157 35.0301C21.1275 37.1085 20.2598 37.1085 20.2598 37.1085C20.2598 37.1085 26.4143 28.4115 28.4927 30.2478ZM14.5089 41.8909C12.148 44.1105 5.30744 50.4264 1.756 48.3884C0.888322 47.9041 9.84763 43.2428 14.5089 41.8909ZM15.7398 45.4423C15.7398 45.4423 10.8364 51.0923 8.87905 52.4241C6.92173 53.7761 4.33887 54.8859 3.85458 53.4129C3.35011 51.96 14.3878 46.7943 15.7398 45.4423ZM37.2098 35.8776C37.1695 36.9673 36.7054 37.7543 36.0798 38.2385C35.313 36.0996 34.4454 31.4182 32.1248 31.0953C32.8513 29.9048 37.3511 31.4585 37.2098 35.8776Z" fill="white"/>
<path d="M21.1474 42.3349C21.1474 42.3349 12.5715 47.2585 11.1791 47.6419C9.78682 48.0455 19.8156 41.891 21.1474 42.3349Z" fill="#8AA4CD"/>
<path d="M29.4202 17.5151C29.2386 17.5959 29.3395 17.8582 29.7633 18.1205C29.9852 18.2617 30.2879 18.3223 30.5704 18.3425C30.1265 18.1609 29.5211 17.6362 29.4202 17.5151Z" fill="#A9B5D3"/>
<path d="M28.9768 16.2638C28.7145 16.2436 28.6742 16.5665 29.0374 16.7884C30.2683 17.8781 31.3377 17.8175 30.914 17.2122C30.1674 17.0508 29.2795 16.5261 28.9768 16.2638ZM29.0172 15.1338C28.9567 15.2347 28.8154 15.5172 29.1786 15.8602C29.9656 16.627 31.0149 17.1113 31.3983 15.9006C31.3781 15.9006 29.2593 16.0015 29.0172 15.1338Z" fill="#8AA4CD"/>
<path d="M11.542 42.9603C12.6922 42.6173 14.1047 42.0321 15.2347 41.225C19.3108 40.5389 24.4967 37.6937 27.927 32.7298C29.4202 30.5505 28.714 31.3576 28.8956 30.7119C28.8956 31.9226 28.4113 32.4473 26.6558 35.01C25.4249 36.8059 22.9631 38.7834 20.3399 40.3169C19.0686 41.0635 12.5711 43.1218 11.542 42.9603Z" fill="#AFBFD7"/>
<path d="M8.59583 55.148C8.59583 58.6591 15.9207 51.0518 16.3646 49.155C16.7278 47.5407 8.31333 55.3902 8.59583 55.148Z" fill="#E0EDEC"/>
<path d="M29.0169 15.2148C29.0169 15.2148 29.1582 15.8 29.9048 15.9413C30.6716 16.0825 31.3173 16.0422 31.3173 16.0422C31.3173 16.0422 31.8419 15.6991 32.0841 15.6386C32.3262 15.5579 30.2276 16.022 29.0169 15.2148ZM28.916 16.244C28.916 16.244 29.9451 17.1116 30.5303 17.2327C31.1155 17.374 31.1558 16.8291 31.1558 16.8291C31.1558 16.8291 30.1671 16.8897 28.916 16.244ZM29.4205 17.495C29.4205 17.495 29.9451 18.1407 30.3891 18.282C30.6716 18.3627 30.268 18.0197 30.0258 17.7573C30.0258 17.717 29.8241 17.3941 29.4205 17.495Z" fill="white"/>
<path d="M35.9781 16.9704C37.1082 18.8873 36.3414 20.6227 34.1822 20.9455C30.3685 21.5105 28.7946 15.8404 32.5478 15.5377C35.5544 15.2753 35.8571 17.2125 35.9781 16.9704Z" fill="white"/>
<path d="M33.2137 18.5444C33.0725 19.3111 34.0007 19.4726 34.3841 18.9278C34.8885 18.2013 33.4962 17.0713 33.2137 18.5444Z" fill="#080808"/>
<path d="M33.8398 18.3825C33.7792 18.665 34.1424 18.7457 34.2837 18.5238C34.4855 18.2413 33.9406 17.8175 33.8398 18.3825ZM61.6862 39.2068C61.6862 39.2068 75.0445 44.5945 77.587 46.2895C80.1295 47.9845 80.3515 48.1258 79.6452 49.6795C78.939 51.2333 76.679 50.8095 76.679 50.8095C76.679 50.8095 77.244 52.0808 75.4077 53.4933C73.5715 54.9058 73.1477 54.1996 73.1477 54.1996C73.1477 54.1996 73.4302 55.8946 70.8877 56.4596C68.3452 57.0246 58.5586 43.0206 56.5811 42.4556C54.6035 41.8704 58.72 39.7718 61.6862 39.2068Z" fill="#E0EDEC"/>
<path d="M79.1611 47.8839C79.8876 48.3884 80.049 48.7516 79.6454 49.6596C78.9392 51.2134 76.6792 50.7896 76.6792 50.7896C76.6792 50.7896 77.2442 52.0609 75.4079 53.4734C73.5717 54.8859 73.0268 54.0586 73.0268 54.0586C73.0268 54.0586 73.4304 55.8746 70.8879 56.4396C68.3454 57.0046 62.5541 45.7046 60.5766 45.1396C59.6484 44.8773 59.8502 44.2517 60.6372 43.6262C62.1707 45.0185 69.6974 51.2739 71.4125 52.4644C73.1277 53.655 74.9842 53.4734 76.4168 52.4241C77.8495 51.3748 61.2425 42.2339 61.2425 42.2339C63.0182 43.2025 78.7374 52.2425 79.1611 47.8839Z" fill="#AFBFD7"/>
<path d="M69.4951 51.2942C69.4951 51.3548 66.6297 48.0455 64.2487 45.3214C62.7353 43.6062 65.6006 44.4133 65.298 44.151C64.733 43.7474 62.4326 42.1937 60.6165 41.7498C59.8295 41.548 59.0224 41.9515 58.6592 42.0928C57.509 42.5569 56.9238 43.021 56.9238 43.021C56.9238 43.021 69.6162 50.7091 69.4951 51.2942Z" fill="#8AA4CD"/>
<path d="M43.2023 21.8533C43.2023 21.8533 43.626 21.6112 44.1305 21.6112C44.5139 21.6112 45.0184 21.7121 45.321 21.9946C45.543 22.2165 46.673 22.4587 46.8546 23.0842C47.238 24.3555 46.5318 26.4742 46.1685 28.0683C45.6035 30.4696 45.7448 29.6221 44.191 34.7071C42.6373 39.7921 43.3435 41.588 46.5923 43.7068C50.0227 45.9466 54.8454 44.4736 58.0941 42.5566C59.4864 41.7293 60.798 41.3055 61.3832 40.5589C62.5939 41.4266 64.0064 39.2473 64.0064 39.2473C64.0064 39.2473 58.8609 32.326 55.8946 30.3485C52.9284 28.371 52.3634 28.2298 51.9396 25.4048C51.7177 23.9317 51.3746 23.1044 51.4352 21.6314C51.4957 20.2794 51.7177 19.0485 51.3746 18.1808C50.5877 16.1024 47.3994 15.5374 46.0071 17.6562C45.6237 18.2414 45.3816 19.3915 44.9377 19.9565C44.0498 21.0865 43.4646 21.026 42.8391 21.7323C42.8189 21.7726 42.94 21.8332 43.2023 21.8533Z" fill="#F3F4F8"/>
<path d="M55.915 30.3287C53.9375 29.017 52.7873 28.3713 52.303 26.979H52.2021C52.2021 26.979 52.4241 29.0574 53.4734 29.7435C54.4622 30.4094 58.5988 33.3756 60.7781 35.5347C61.4036 36.463 63.0582 38.9247 62.9372 39.5301C62.8766 39.7924 63.0986 39.9337 63.4013 39.974C63.7847 39.5906 64.0268 39.2072 64.0268 39.2072C61.8879 36.3015 58.8409 32.2658 55.915 30.3287Z" fill="#E0EDEC"/>
<path d="M52.4645 27.3621C52.2426 26.8778 52.1013 26.2523 51.9601 25.3846C51.7381 23.9116 51.3951 23.0842 51.4556 21.6112C51.4758 21.026 51.5363 20.461 51.5565 19.9565C51.3749 20.2592 51.1126 20.6426 50.8099 21.0664C50.0431 22.1762 48.2674 22.1762 48.8526 22.3376C49.4377 22.499 50.5476 22.2569 50.709 22.9228C50.8704 23.6089 52.404 27.7657 52.404 27.5437C52.2628 27.6446 52.3031 27.5639 52.4645 27.3621Z" fill="#F3F4F8"/>
<path d="M43.606 37.0479C42.9603 40.4177 43.9087 41.9513 46.6126 43.7068C50.043 45.9466 54.8656 44.4736 58.1144 42.5566C58.4978 42.3346 59.3453 41.9311 60.2533 41.5275C61.5851 40.9221 63.4012 40.6195 63.5626 40.458C62.5335 39.55 59.6883 38.0164 58.6592 37.8954C58.1951 39.2877 52.7267 42.7786 49.9219 42.6575C45.6642 42.4557 43.6262 40.1755 43.606 37.0479Z" fill="#E0EDEC"/>
<mask id="mask1_2001_6053" style="mask-type:luminance" maskUnits="userSpaceOnUse" x="42" y="20" width="5" height="3">
<path d="M43.2225 21.8534C43.2225 21.8534 43.6463 21.6113 44.1507 21.6113C44.5341 21.6113 45.0386 21.7121 45.3413 21.9947C45.4422 22.0955 45.7247 22.1964 46.0072 22.3377C46.0274 22.2973 46.0475 22.2368 46.0677 22.1964C46.3906 21.2077 45.2807 20.5821 44.6552 20.3198C43.949 20.6023 43.4243 21.0866 42.8795 21.7323C42.819 21.7727 42.94 21.8332 43.2225 21.8534Z" fill="white"/>
</mask>
<g mask="url(#mask1_2001_6053)">
<path d="M42.8193 20.2998H46.391V22.3177H42.8193V20.2998Z" fill="url(#paint1_linear_2001_6053)"/>
</g>
<path d="M43.4651 38.0366C43.1826 40.7406 44.1916 42.1329 46.613 43.7068C50.4268 46.1888 56.097 44.1507 59.3054 41.9311C53.7361 44.292 44.7364 46.7538 43.4651 38.0366Z" fill="#AFBFD7"/>
<path d="M45.3215 21.9948C47.8842 23.6091 45.7856 29.6425 44.9784 32.1648H45.039C45.4627 31.8823 47.4402 30.4698 48.0052 28.0685C48.5702 25.6673 47.3393 21.4903 45.7049 21.0464C45.1399 20.8849 44.9381 21.1674 44.3933 21.3692C43.909 21.5508 43.3238 21.6316 42.8193 21.7526C43.1826 22.0957 44.1915 21.2885 45.3215 21.9948Z" fill="#E0EDEC"/>
<path d="M45.3212 21.9946C46.9154 23.0035 46.7136 25.6873 46.1284 28.2096C47.3593 25.6873 47.0768 23.1852 46.532 21.8937C46.2696 21.2884 45.8257 21.248 45.6845 21.0462C45.6239 21.026 45.5836 21.026 45.523 21.0059L45.0791 21.8735C45.18 21.9139 45.2607 21.9543 45.3212 21.9946Z" fill="#8AA4CD"/>
<path d="M45.6238 21.0263C45.1396 20.9254 44.9176 21.1877 44.393 21.3693C44.0701 21.4904 43.7271 21.5509 43.3638 21.6317C43.2024 21.6922 43.0208 21.7326 42.8594 21.7931C43.2428 22.0151 44.1912 21.3492 45.2405 21.9545C45.4624 21.7124 45.5633 21.3088 45.6238 21.0263Z" fill="#B87E44"/>
<path d="M46.1085 17.8581C45.039 19.654 45.7654 21.2885 47.8035 21.5912C51.3751 22.136 52.8683 16.7887 49.337 16.5062C46.512 16.264 46.2295 18.0801 46.1085 17.8581Z" fill="white"/>
<path d="M48.7116 19.3311C48.8529 20.0373 47.965 20.1988 47.622 19.6943C47.1377 19.0082 48.4493 17.9589 48.7116 19.3311Z" fill="#080808"/>
<path d="M50.9312 16.8897C49.559 15.9413 47.2789 15.9212 46.1085 17.4749C45.7049 18.0197 45.4426 19.0287 44.9583 19.5533C44.918 19.5937 44.8776 19.634 44.8574 19.6744C44.918 19.6946 44.9583 19.7147 45.0189 19.7349C45.0189 19.7349 45.8664 17.7574 47.0972 17.0512C49.0748 16.1431 50.0635 16.466 50.9312 16.8897Z" fill="#A9B5D3"/>
<path d="M52.444 27.5642C52.444 27.7861 50.9104 23.6294 50.749 22.9433C50.5876 22.2572 49.4778 22.4993 48.8926 22.3177C49.4172 22.1361 49.8208 21.9545 50.1437 21.7527C51.3342 20.9658 51.1122 20.2595 51.3544 19.1901C51.3947 19.0286 51.5562 19.069 51.5763 18.9277L51.4754 21.6115C51.4149 23.1047 51.7579 23.9119 51.9799 25.3849C52.101 26.2526 52.2624 26.8781 52.4844 27.3624C52.3028 27.5642 52.2624 27.6449 52.444 27.5642Z" fill="#E0EDEC"/>
<path d="M65.7012 41.0229C66.9926 41.5072 82.288 46.5519 79.5437 48.5092C78.5348 46.1483 66.8917 41.588 65.7012 41.0229Z" fill="#AFBFD7"/>
<path d="M53.1502 30.3282C53.1502 30.3282 54.0784 32.8708 57.0648 34.8281C60.0513 36.7854 60.8584 36.7854 60.8584 36.7854C60.8584 36.7854 55.1075 28.5929 53.1502 30.3282ZM66.2663 41.2651C66.2663 41.2651 72.0172 46.6729 74.4386 47.2581C76.86 47.8433 77.425 47.8433 78.2322 47.3792C79.0595 46.9151 70.645 42.5363 66.2663 41.2651ZM65.5802 44.6147C65.5802 44.6147 69.737 49.9217 71.5732 51.1728C73.4095 52.444 75.8309 53.4731 76.295 52.101C76.7591 50.7087 66.8514 45.886 65.5802 44.6147ZM44.9576 35.615C44.998 36.6442 45.4218 37.3706 46.0271 37.8347C46.7535 35.8168 47.5607 31.4381 49.74 31.1152C49.0337 30.0054 44.8366 31.4582 44.9576 35.615Z" fill="white"/>
<path d="M60.1729 41.5476C60.1729 41.5476 68.0829 46.3098 69.4147 46.673C70.7263 47.0362 61.4441 41.1239 60.1729 41.5476Z" fill="#8AA4CD"/>
<path d="M48.1259 19.1897C48.1865 19.4722 47.8434 19.5126 47.7022 19.331C47.5206 19.0687 48.025 18.6651 48.1259 19.1897Z" fill="#E0EDEC"/>
<path d="M64.7326 40.9021C64.7326 40.9021 62.6138 38.6017 63.7842 39.5501C64.7124 40.2967 67.376 40.8213 68.627 40.9222C69.3736 40.9828 70.2817 40.9424 71.331 40.9222C76.416 40.781 78.2321 39.2676 79.1199 40.1756C80.028 41.0837 80.4719 42.8796 78.8172 43.4647C77.1828 44.0297 66.5486 42.2338 64.7326 40.9021Z" fill="#AFBFD7"/>
<path d="M65.6608 41.124C65.6608 41.124 62.2103 40.1151 63.8246 40.3774C65.116 40.5993 67.2953 39.772 68.1831 39.2676C68.728 38.9649 69.2728 38.5008 69.9185 37.9761C73.0664 35.4134 72.8646 33.2341 74.2569 33.5974C77.6066 34.465 77.8084 37.8954 77.0214 38.6622C75.3466 40.337 67.7796 41.4065 65.6608 41.124Z" fill="#E0EDEC"/>
<path d="M65.2979 40.3167C66.4077 40.0947 67.5982 39.6306 68.1834 39.2876C68.7282 38.9849 69.273 38.5208 69.9188 37.9961C73.0666 35.4335 72.8648 33.2542 74.2572 33.6174C77.2032 34.3842 77.6673 36.5635 77.2032 37.7338C77.7279 35.7765 75.3872 34.6667 74.6607 34.7676C73.9343 34.8886 72.8245 36.3617 71.8357 37.3504C70.9075 38.319 66.5893 41.144 65.2979 40.3167Z" fill="#F3F4F8"/>
<path d="M69.0718 42.2543C68.0024 41.9314 66.6706 41.3866 65.6011 40.6198C62.877 38.6826 63.4622 39.288 60.5363 38.0167C57.4086 36.6244 54.7248 34.1626 53.6755 32.6492C52.263 30.6112 52.9491 31.3578 52.7675 30.7524C52.7675 31.8824 53.2114 32.3667 54.8863 34.7882C56.0364 36.4832 58.5184 37.8957 60.9802 39.3485C62.1506 40.0548 68.0831 42.4157 69.0718 42.2543Z" fill="#AFBFD7"/>
<path d="M64.7129 40.1554C64.7129 40.1554 65.9034 40.5186 67.1545 40.1957C67.4975 40.115 68.1634 39.9132 68.5065 39.7316C70.2418 38.8438 71.6947 37.7743 72.9458 36.3012C73.4906 35.6555 74.0758 34.9896 74.4793 34.8887C75.2058 34.687 76.3761 35.1914 76.4972 35.7161C76.1542 35.5546 75.4277 34.9896 74.2776 36.0389C71.9368 38.1577 68.8697 41.2854 64.7129 40.1554Z" fill="#AFBFD7"/>
<path d="M16.7482 68.91C14.9119 66.307 13.8223 63.1187 13.8223 59.6884C13.8223 57.9126 14.1048 56.2176 14.6496 54.6235C14.9724 55.4307 15.3357 56.1168 15.6383 56.6212C17.6158 50.8905 23.0237 46.7539 29.4203 46.5723L29.1177 47.5005C22.8825 47.783 17.6764 51.8591 16.0419 57.3476C15.376 59.5471 15.3155 61.8677 15.8603 64.1075C17.3737 70.3225 23.2053 74.6407 29.8239 74.6407C37.7339 74.6407 44.1507 68.567 44.1507 61.0605C44.1507 58.2759 43.2629 55.693 41.7495 53.5339L41.9916 53.2312L42.0522 53.3119C43.6463 55.6728 44.7157 58.3969 44.8166 61.4641C45.0991 70.383 36.8662 75.6698 30.1871 75.6698C23.508 75.6698 20.0776 73.2484 17.1517 69.4548C17.0307 69.253 16.9096 69.0714 16.7885 68.8696L16.7482 68.91Z" fill="#6D1B1E"/>
</g>
<defs>
<linearGradient id="paint0_linear_2001_6053" x1="37.597" y1="21.0644" x2="37.5365" y2="19.1253" gradientUnits="userSpaceOnUse">
<stop stop-color="#DB978B"/>
<stop offset="0.4" stop-color="#EFCE9D"/>
<stop offset="1" stop-color="#EFCE9D"/>
</linearGradient>
<linearGradient id="paint1_linear_2001_6053" x1="44.5953" y1="21.7022" x2="44.6477" y2="19.8821" gradientUnits="userSpaceOnUse">
<stop stop-color="#DB978B"/>
<stop offset="0.4" stop-color="#EFCE9D"/>
<stop offset="1" stop-color="#EFCE9D"/>
</linearGradient>
<clipPath id="clip0_2001_6053">
<rect width="79.988" height="75.69" fill="white"/>
</clipPath>
</defs>
</svg>
