<svg width="27" height="26" viewBox="0 0 27 26" fill="none" xmlns="http://www.w3.org/2000/svg">
<path fill-rule="evenodd" clip-rule="evenodd" d="M9.83855 6.87633C9.59275 6.28768 9.40638 6.2653 9.03402 6.25025C8.90726 6.24292 8.76604 6.23559 8.60937 6.23559C8.12491 6.23559 7.61846 6.37721 7.31285 6.69015C6.94049 7.07023 6.01653 7.95696 6.01653 9.77518C6.01653 11.5936 7.34256 13.3522 7.52141 13.5984C7.70779 13.844 10.1067 17.6298 13.8317 19.1727C16.7446 20.3799 17.609 20.268 18.2719 20.1265C19.2404 19.918 20.4547 19.2022 20.7603 18.338C21.0657 17.4735 21.0657 16.7357 20.9762 16.5792C20.8869 16.4228 20.6409 16.3336 20.2685 16.1471C19.8962 15.9607 18.0857 15.0664 17.743 14.9472C17.4077 14.8206 17.0875 14.8654 16.8343 15.2231C16.4766 15.7224 16.1267 16.2293 15.8434 16.5347C15.62 16.7731 15.2548 16.803 14.9494 16.6763C14.5396 16.5052 13.3924 16.1023 11.9768 14.843C10.8815 13.867 10.1366 12.6524 9.92075 12.2872C9.70466 11.9147 9.89837 11.6984 10.0697 11.4973C10.2561 11.2662 10.4347 11.1024 10.6209 10.8861C10.8073 10.67 10.9115 10.5583 11.0307 10.3048C11.1575 10.059 11.0679 9.80548 10.9786 9.6191C10.8891 9.43233 10.1442 7.61391 9.83855 6.87633ZM13.3773 0.4375C6.38928 0.4375 0.705078 6.12329 0.705078 13.1133C0.705078 15.8854 1.59913 18.4565 3.11887 20.5431L1.53932 25.2528L6.41167 23.6956C8.41567 25.0221 10.8071 25.7896 13.3849 25.7896C20.3729 25.7896 26.0571 20.1034 26.0571 13.1137C26.0571 6.12369 20.3729 0.437896 13.3849 0.437896H13.3775V0.4375H13.3773Z" fill="#67C15E"/>
</svg>
