<svg width="36" height="36" viewBox="0 0 36 36" fill="none" xmlns="http://www.w3.org/2000/svg">
<circle cx="18" cy="18" r="18" fill="#D61E3B"/>
<path d="M21.6961 9H19.1845C16.6729 9 14.1174 10.9285 14.1174 15.1839C14.0649 16.1703 14.2799 17.1523 14.7387 18.0213C15.1975 18.8904 15.8821 19.6125 16.7169 20.1079L13.6088 25.7969C13.5376 25.9206 13.5 26.0615 13.5 26.2051C13.5 26.3487 13.5376 26.4896 13.6088 26.6133C13.6733 26.7265 13.7646 26.8213 13.8744 26.8887C13.9842 26.9561 14.1088 26.9941 14.2367 26.999H15.8002C15.9588 27.0069 16.116 26.9649 16.2507 26.8788C16.3853 26.7926 16.4911 26.6663 16.5536 26.5169L19.4356 20.7315H19.6491V26.2726C19.6498 26.3716 19.6702 26.4695 19.7088 26.5602C19.7475 26.651 19.8038 26.7328 19.8742 26.8007C19.9446 26.8686 20.0277 26.9212 20.1186 26.9552C20.2094 26.9893 20.306 27.0042 20.4026 26.999H21.7714C21.9559 27.006 22.1356 26.9385 22.2719 26.811C22.4082 26.6835 22.49 26.5063 22.4998 26.3176V9.78424C22.5023 9.68378 22.4854 9.58379 22.4502 9.49C22.4149 9.39621 22.3619 9.31045 22.2943 9.23762C22.2267 9.16479 22.1457 9.10632 22.0559 9.06554C21.9662 9.02477 21.8695 9.0025 21.7714 9H21.6961ZM19.6994 18.1795H19.3289C17.8848 18.1795 17.0308 16.9774 17.0308 14.9654C17.0308 12.4584 18.1171 11.5649 19.128 11.5649H19.7182L19.6994 18.1795Z" fill="white"/>
</svg>
