<svg width="307" height="168" viewBox="0 0 307 168" fill="none" xmlns="http://www.w3.org/2000/svg">
<path d="M95.8896 117.671C98.2588 119.974 100.099 123.357 102.261 126.058C104.377 128.702 106.884 130.806 109.116 133.222C110.427 134.644 111.416 136.549 112.75 137.885" stroke="#70706F" stroke-miterlimit="10"/>
<path d="M95.1997 106.015C98.972 109.37 104.4 111.132 108.587 113.918C113.233 116.989 116.522 122.561 118.937 128.332C120.226 131.431 121.261 134.701 123.009 137.458" stroke="#70706F" stroke-miterlimit="10"/>
<path d="M94.6934 76.874C96.3955 79.9444 100.72 82.759 103.411 85.0618C105.964 87.2225 108.471 89.7527 110.933 91.9987C113.325 94.1878 115.763 96.6328 117.718 99.3905C119.673 102.177 121.076 105.531 122.939 108.431C124.435 110.762 125.953 113.037 127.172 115.624C129.219 119.945 130.645 124.068 131.726 128.844C132.324 131.431 132.853 134.331 134.095 136.435" stroke="#70706F" stroke-miterlimit="10"/>
<path d="M94.3716 58.3093C98.1209 60.8396 102.353 63.3983 105.849 66.355C110.841 70.591 114.038 77.1015 117.971 82.7021C125.654 93.5908 132.83 104.963 138.535 117.614C140.789 122.618 141.456 129.014 142.836 134.359C142.79 134.16 142.767 133.933 142.744 133.734" stroke="#70706F" stroke-miterlimit="10"/>
<path d="M94.1875 39.5747C104.331 44.8342 114.337 50.5202 121.33 61.6078C127.011 70.6201 131.956 80.4568 137.661 89.3554C141.916 95.9511 145.55 102.462 148.403 110.194C151.163 117.671 153.026 126.03 155.648 133.109C155.533 132.853 155.372 132.654 155.188 132.483" stroke="#70706F" stroke-miterlimit="10"/>
<path d="M103.802 31.4434C107.966 34.3432 112.819 34.4569 116.43 38.9488C120.662 44.1799 123.952 50.2923 127.908 55.8362C140.628 73.6901 153.187 92.3401 161.307 114.146C163.584 120.287 166.436 126.513 169.012 132.256" stroke="#70706F" stroke-miterlimit="10"/>
<path d="M109.69 30.4199C111.186 30.3631 114.314 31.9551 115.924 32.7228C118.339 33.8884 120.478 35.8785 122.341 37.9539C126.321 42.332 130.3 46.9945 133.796 51.8845C139.777 60.2713 145.573 68.7434 150.932 77.8409C157.35 88.758 164.112 99.3339 167.77 112.213C169.081 116.818 169.932 121.509 172.094 125.603C173.405 128.105 174.624 130.436 175.751 132.995C175.567 132.881 175.429 132.682 175.268 132.483" stroke="#70706F" stroke-miterlimit="10"/>
<path d="M116.775 28.7427C118.639 29.1407 120.64 30.4485 122.503 31.0171C124.55 31.6425 125.631 32.3817 127.218 34.1443C132.049 39.546 136.833 45.3457 141.387 51.2307C148.219 60.0724 154.222 69.5679 159.72 79.7742C166.068 91.5442 172.762 103.257 176.626 116.648C178.397 122.789 181.87 128.105 183.365 134.075C183.181 133.99 183.02 133.848 182.859 133.734" stroke="#70706F" stroke-miterlimit="10"/>
<path d="M124.872 26.8662C127.034 27.7475 129.357 28.174 131.404 29.1975C133.52 30.2494 135.061 32.8933 136.671 34.7981C141.433 40.3988 145.527 46.4828 150.035 52.1403C153.417 56.3764 155.947 61.7212 158.615 66.668C161.421 71.8707 164.504 76.7037 167.333 81.878C172.048 90.5206 176.533 99.1064 180.444 108.261C182.491 113.065 184.331 117.927 186.378 122.732C188.126 126.854 190.403 130.919 191.945 134.956" stroke="#70706F" stroke-miterlimit="10"/>
<path d="M130.093 25.416C131.565 26.3258 133.429 26.5816 135.154 27.0934C137.431 27.7473 138.581 28.8845 140.214 31.0451C145.527 38.181 150.611 45.7434 156.177 52.7087C164.573 63.1993 170.875 75.9074 177.661 87.9617C182.928 97.2867 186.723 106.896 189.99 117.5C191.922 123.812 195.625 129.498 198.201 135.582C198.017 135.61 197.856 135.553 197.695 135.411" stroke="#70706F" stroke-miterlimit="10"/>
<path d="M138.857 23.3413C139.961 22.9149 142.928 24.4785 144.239 25.0187C146.033 25.7294 147.483 26.4118 148.955 27.947C155.602 34.7986 161.468 43.7824 166.85 52.1692C168.782 55.1828 170.829 58.0826 172.876 61.0109C175.039 64.1097 176.465 67.7203 178.397 70.9898C182.031 77.2159 185.412 83.6979 189.07 89.9525C193.67 97.8275 197.511 107.579 199.604 116.961C200.432 120.657 201.79 123.642 203.446 126.883C204.596 129.129 205.378 131.574 206.413 133.82C206.873 134.843 207.931 136.378 207.77 137.288" stroke="#70706F" stroke-miterlimit="10"/>
<path d="M151.485 21.4645C152.037 21.0381 155.533 22.8576 156.66 23.3978C158.776 24.3928 159.88 25.9849 161.583 27.9465C166.758 33.8884 171.864 39.9724 175.936 47.0798C177.224 49.3258 178.144 51.8845 179.432 54.1873C182.951 60.4703 186.378 66.8386 189.898 73.15C194.935 82.2475 199.236 92.0558 203.906 101.495C207.241 108.261 208.805 115.823 211.588 122.76C212.922 126.086 214.809 129.043 216.258 132.284C217.316 134.615 218.052 137.572 219.708 139.363" stroke="#70706F" stroke-miterlimit="10"/>
<path d="M157.051 19.7866C160.939 20.3836 165.24 21.7483 167.793 25.8422C172.186 32.8928 177.201 39.915 182.123 46.6244C189.691 57.0013 194.958 69.3967 201.077 81.0814C206.528 91.5151 210.921 102.489 215.062 113.804C216.787 118.495 218.144 123.044 220.329 127.479C221.502 129.867 223.112 132.084 224.078 134.643C224.446 135.581 225.412 138.083 225.136 138.14" stroke="#70706F" stroke-miterlimit="10"/>
<path d="M165.148 18.3373C165.769 17.8824 169.564 20.8106 170.714 21.6067C172.324 22.7439 173.659 23.9948 174.924 25.8143C179.777 32.8365 183.848 40.4557 188.564 47.5347C192.037 52.7374 195.763 58.1106 198.868 63.6829C202.549 70.307 205.585 77.6135 208.966 84.4651C213.36 93.392 217.27 102.774 220.191 112.582C222.951 121.85 226.493 130.465 230.703 138.937" stroke="#70706F" stroke-miterlimit="10"/>
<path d="M175.751 16.0347C180.145 16.2621 183.296 19.1335 186.355 22.9147C191.485 29.2261 195.556 36.561 200.156 43.5832C212.623 62.5459 222.997 83.4703 231.163 105.759C234.268 114.203 236.039 123.414 239.949 131.176C239.719 131.005 239.489 130.834 239.259 130.607" stroke="#70706F" stroke-miterlimit="10"/>
<path d="M189.23 14.1577C191.945 14.2714 195.901 16.1194 197.718 18.4506C200.823 22.4024 203.331 27.1217 206.252 31.3009C209.587 36.0771 212.324 41.82 215.107 47.2785C219.018 54.9545 222.675 62.8012 226.608 70.4772C231.002 79.0346 235.832 87.5636 239.627 96.4621" stroke="#70706F" stroke-miterlimit="10"/>
<path d="M196.66 11.6564C199.236 11.4858 202.641 13.9308 204.872 15.466C206.114 16.3189 206.643 17.3424 207.448 18.7923C209.127 21.8627 211.335 24.3361 213.474 26.9232C217.408 31.671 220.49 37.556 223.664 43.0714C226.677 48.3309 229.898 53.5904 232.405 59.1911C233.854 62.4321 235.303 65.7015 236.798 68.8857C237.879 71.2169 238.684 74.0884 240.156 76.0216" stroke="#70706F" stroke-miterlimit="10"/>
<path d="M208.46 9.38184C210.346 9.86514 212.416 11.2298 214.187 11.969C217.109 13.2199 218.236 15.6933 220.26 18.7068C225.481 26.4966 230.335 34.1158 234.728 42.6448C235.625 44.379 236.568 46.1416 237.603 47.7621C238.408 49.013 239.926 50.6904 240.133 52.0835" stroke="#70706F" stroke-miterlimit="10"/>
<path d="M220.743 7.90364C222.123 7.56248 223.664 9.92215 225.044 10.6045C226.332 11.2299 227.574 11.4574 228.885 12.225C232.244 14.2151 234.682 19.3893 236.844 23.1136C237.925 24.99 239.443 26.9801 240.202 29.0839C240.041 28.9986 239.903 28.8849 239.788 28.7427" stroke="#70706F" stroke-miterlimit="10"/>
<path d="M93.3594 39.1474C94.1874 38.4935 95.9586 38.323 97.0626 37.8965C98.2817 37.4132 99.5468 36.9015 100.766 36.4466C103.503 35.3947 106.194 34.5987 109.024 33.5752C115.602 31.2155 122.572 31.5282 129.403 29.9362C134.233 28.8274 138.742 26.8089 143.618 26.0128C149.921 24.9894 156.292 24.4776 162.594 23.5394C173.957 21.8337 185.32 19.9573 196.66 17.5408C203.192 16.1477 209.587 14.8115 216.211 13.5606C220.283 12.793 224.354 12.2244 228.425 11.3715C229.667 11.1156 235.993 10.6892 236.269 9.75098" stroke="#70706F" stroke-miterlimit="10"/>
<path d="M92.5083 56.4623C96.7866 54.3869 100.697 50.6626 104.837 48.3883C107.597 46.8815 110.427 45.5168 113.233 44.0101C115.211 42.9582 117.028 41.4798 119.121 40.8259C124.343 39.2338 129.84 39.0348 135.153 38.2957C139.777 37.6418 144.239 36.8742 148.793 36.4762C162.042 35.339 175.544 33.4057 188.563 30.1932C198.339 27.7766 208.161 26.4973 218.052 24.9336C221.847 24.3366 225.642 23.768 229.46 23.3131C231.738 23.0288 233.992 22.773 236.269 22.6308C237.051 22.6024 237.971 22.6024 238.753 22.4887C239.259 22.4034 239.581 22.5171 239.282 22.2612" stroke="#70706F" stroke-miterlimit="10"/>
<path d="M93.3594 74.3732C95.0615 73.8046 97.7297 70.9616 99.2708 69.4264C102.169 66.5266 105.343 63.8542 108.494 61.2386C113.624 57.0026 118.753 52.3401 124.573 50.0373C128.506 48.4736 133.014 49.156 137.132 48.9569C142.307 48.6727 147.505 47.7629 152.635 47.1374C163.906 45.7728 175.084 43.8111 186.378 42.7024C196.545 41.7073 206.689 39.3477 216.856 38.3526C225.481 37.4997 234.107 35.5665 242.778 35.4243C242.318 35.3959 242.157 35.6802 241.674 35.8508" stroke="#70706F" stroke-miterlimit="10"/>
<path d="M93.8657 105.19C96.0509 102.717 98.8801 100.698 101.203 98.3099C103.825 95.609 106.609 93.3062 109.53 90.975C115.901 85.8576 121.077 78.0394 127.839 73.6043C134.096 69.5105 142.491 68.5154 149.392 68.1174C161.238 67.4635 173.176 67.8047 185.021 67.0086C194.452 66.3832 203.86 64.8195 213.337 64.3647C218.144 64.1372 222.951 63.8245 227.759 63.5402C231.278 63.3127 234.751 63.6539 238.247 63.4833C238.96 63.4549 239.42 63.398 240.065 63.3127C239.788 63.3696 239.535 63.4265 239.282 63.5402" stroke="#70706F" stroke-miterlimit="10"/>
<path d="M96.3955 136.861C98.9027 134.9 100.559 131.573 102.261 128.73C104.377 125.177 106.608 121.538 108.908 118.126C111.669 114.004 114.636 110.052 117.304 105.816C120.018 101.523 122.594 96.8321 125.907 93.2215C134.578 83.726 145.872 83.9534 156.752 81.8496C162.387 80.7408 168.276 80.9398 174.003 81.0251C181.801 81.1389 189.828 80.7693 197.695 81.2241C211.174 82.0202 224.768 80.2007 238.27 79.5752C239.397 79.5184 240.593 79.7174 241.674 79.5752" stroke="#70706F" stroke-miterlimit="10"/>
<path d="M121.835 138.083C126.482 125.517 130.76 112.326 139.57 103.086C144.676 97.741 152.267 97.4283 158.753 96.4048C170.622 94.5569 182.629 95.8078 194.59 96.4617C209.725 97.3146 224.86 98.7361 240.041 98.7361C239.742 98.7361 239.443 98.7361 239.121 98.7361" stroke="#70706F" stroke-miterlimit="10"/>
<path d="M132.623 137.06C134.739 131.829 136.51 126.143 138.765 120.912C139.869 118.354 141.318 115.852 142.882 113.577C144.124 111.786 145.826 108.773 147.62 108.062C150.978 106.726 155.671 107.209 159.213 106.868C163.698 106.413 168.253 106.242 172.738 106.242C177.292 106.242 181.778 106.043 186.309 106.043C192.565 106.043 198.73 106.669 204.963 106.669C216.763 106.669 228.632 107.721 240.225 109.228C240.11 109.341 239.949 109.37 239.811 109.398" stroke="#70706F" stroke-miterlimit="10"/>
<path d="M142.215 134.985C144.791 130.948 146.562 126.286 148.908 122.05C149.92 120.23 150.909 118.212 152.658 117.671C155.211 116.904 158.408 117.103 161.099 116.961C178.051 116.051 195.142 118.069 211.979 119.775C221.318 120.713 230.886 122.334 240.271 122.05C240.041 122.106 239.834 122.192 239.627 122.277" stroke="#70706F" stroke-miterlimit="10"/>
<path d="M157.718 133.307C158.362 131.544 160.939 129.469 162.388 128.047C163.768 126.711 165.424 124.266 166.988 123.612C169.081 122.731 172.301 123.783 174.394 123.925C177.132 124.124 179.915 124.181 182.652 124.522C195.556 126.143 208.851 125.944 221.709 128.218C224.906 128.786 227.919 129.639 231.14 129.924C234.153 130.18 237.764 129.838 240.616 130.748" stroke="#70706F" stroke-miterlimit="10"/>
<path d="M238.934 142.585L170.184 135.313C170.184 135.313 161.51 135.654 156.356 135.938C151.179 136.222 108.268 142.329 108.268 142.329C108.268 142.329 91.1955 146.76 89.838 132.075C88.4805 117.362 88.7105 40.7871 88.7105 40.7871C88.7105 40.7871 88.4805 31.0732 97.7069 28.5737C106.933 26.0742 227.844 0 227.844 0C227.844 0 235.943 3.32319 231.893 6.10671C224.254 7.49847 98.8343 33.033 98.8343 33.033C98.8343 33.033 95.245 33.3171 94.5547 42.1789C93.8875 51.0691 95.9122 130.684 95.9122 130.684C95.9122 130.684 95.4521 141.221 112.317 137.614C131.415 134.575 158.841 131.223 158.841 131.223C158.841 131.223 169.172 131.223 179.065 132.047C188.959 132.871 238.957 137.33 238.957 137.33V142.585H238.934Z" fill="#EC6347"/>
<path d="M233.739 7.55898C229.377 6.29071 228.367 5.85834 222.811 7.35721C217.256 8.82725 101.205 32.492 101.205 32.492C101.205 32.492 91.6092 34.3945 90.7827 37.5651C91.4485 34.1927 95.1446 32.0885 98.6801 31.022C102.216 29.9555 223.822 4.61889 223.822 4.61889C223.822 4.61889 232.224 2.48589 233.739 7.55898Z" fill="#A53631"/>
<path d="M96 131.773C97.1325 137.103 96 143.022 127.155 137.804C156.507 133.568 163.949 131.492 173.217 131.632C161.037 131.071 152.324 132.193 147.817 132.586C143.31 133.007 114.074 137.383 114.074 137.383C114.074 137.383 102.887 139.431 99.7442 136.963C97.2481 134.802 96 131.773 96 131.773Z" fill="#CD4D37"/>
<path d="M251.202 139.328L300.727 144.201C300.727 144.201 306.54 144.486 306.769 147.535C306.998 150.585 304.32 151.155 302.077 152.551C299.835 153.947 258.937 166.202 258.937 166.202C258.937 166.202 240.377 175.663 239.713 151.183C239.484 126.675 238.592 33.9699 238.592 33.9699C238.592 33.9699 238.477 13.3657 236.463 10.6583C234.449 7.951 232.55 6.12712 232.55 6.12712L228.522 0L239.988 0.62696C239.988 0.62696 249.211 2.50784 249.554 17.7544C249.897 33.0009 251.408 148.675 251.408 148.675C251.408 148.675 251.751 161.414 259.784 160.359C268.504 158.051 296.837 149.302 296.837 149.302L251.339 144.486L251.202 139.328Z" fill="#F18565"/>
<path d="M236.87 0C241.145 1.87725 243.364 4.57935 245.256 10.8368C247.149 17.0943 247.663 35.0135 247.312 39.792C246.962 44.5988 249.018 146.056 249.018 146.056C249.018 146.056 248.153 162.922 258.783 160.448C256.049 158.57 252.452 157.12 251.26 147.933C250.91 138.347 249.368 17.2934 249.368 17.2934C249.368 17.2934 249.695 0.625749 236.87 0Z" fill="#CD4D37"/>
<path d="M224.043 24.5078L184.065 31.5994L219.732 29.3978C219.709 29.3978 221.679 25.6202 224.043 24.5078Z" fill="#E20E17"/>
<path d="M222.49 55.1925L182.49 48.7266L218.991 50.6965C218.991 50.6733 220.126 54.1727 222.49 55.1925Z" fill="#E20E17"/>
<path d="M217.392 42.9561L177.391 36.4902L216.905 37.9734C216.905 37.9734 215.978 40.9862 217.392 42.9561Z" fill="#E20E17"/>
<mask id="mask0_2001_1243" style="mask-type:luminance" maskUnits="userSpaceOnUse" x="217" y="20" width="42" height="42">
<path d="M217.832 41.3565C217.832 52.5501 227.38 61.5421 238.551 61.7275L237.994 20.8696C226.824 21.055 217.832 30.1397 217.832 41.3565ZM249.513 24.2069L250.069 58.1122C255.654 54.4505 258.783 48.5408 258.783 41.3565C258.783 34.1722 255.098 27.8454 249.513 24.2069Z" fill="white"/>
</mask>
<g mask="url(#mask0_2001_1243)">
<path d="M258.806 41.1942C258.829 52.5269 249.652 61.7043 238.342 61.7275C227.01 61.7506 217.832 52.5733 217.809 41.2638C217.786 29.9311 226.963 20.7537 238.273 20.7305C249.606 20.7073 258.806 29.8847 258.806 41.1942Z" fill="#333435"/>
<path d="M221.239 39.4567C221.239 39.4567 220.057 41.7974 219.501 44.8797C219.2 46.4325 219.292 47.035 220.497 48.75C222.792 52.0177 223.649 52.9215 224.437 52.7825C225.225 52.6434 228.933 51.8555 229.999 51.5774C230.81 51.3688 230.81 51.1834 231.135 49.7465C231.459 48.3328 231.992 46.3398 232.108 45.2505C232.247 44.1613 232.085 44.1845 231.112 43.0025C230.161 41.8206 227.89 38.7846 227.427 38.2053C226.963 37.6491 226.732 37.8113 225.665 37.9735C224.576 38.1357 222.954 38.5761 222.166 38.7846C221.401 38.9932 221.401 39.2018 221.239 39.4567Z" fill="white"/>
<path d="M222.815 28.3322C222.815 28.3322 221.818 29.6763 220.891 31.2523C220.382 32.1793 220.544 33.5003 220.845 36.0495C221.146 38.5988 221.401 38.5988 222.375 38.3902C223.325 38.1817 226.013 37.6254 226.732 37.4632C227.45 37.301 227.983 36.0727 228.655 35.0066C229.304 33.9406 231.923 30.557 232.456 30.0008C232.966 29.5605 232.803 29.1201 232.664 27.915C232.525 26.7331 232.155 24.2533 231.83 24.1838C231.506 24.0911 229.003 24.0911 228.053 24.0448C227.102 23.9984 224.738 25.922 222.815 28.3322Z" fill="white"/>
<path d="M232.433 45.3655C232.433 45.3655 231.436 49.3517 231.112 50.8812C230.95 51.7851 230.926 51.9936 232.78 53.2219C234.634 54.4502 235.561 55.1918 236.164 55.5163C236.766 55.8407 237.3 55.8407 239.014 55.4467C240.729 55.0528 242.444 54.682 243.14 54.3807C243.835 54.0794 244.924 51.6692 245.411 50.0701C245.898 48.471 246.292 47.1732 245.596 46.5938C244.901 46.0376 244.067 45.1569 242.954 44.3922C241.819 43.6274 240.869 42.6308 240.428 42.8162C239.988 43.0248 235.561 44.1372 233.846 44.6007C233.035 44.8325 232.502 45.0179 232.433 45.3655Z" fill="white"/>
<path d="M235.909 61.1016C235.909 61.1016 236.72 57.6948 236.859 56.8837C236.998 56.0494 237.276 56.0262 238.458 55.8176C239.64 55.6091 242.769 54.6821 243.325 54.4967C243.881 54.2881 244.206 54.1954 245.156 54.9138C246.106 55.6322 248.215 57.2082 248.933 57.718C249.466 58.0888 247.033 59.8269 243.881 60.6844C240.219 61.681 235.886 61.6578 235.909 61.1016Z" fill="white"/>
<path d="M233.105 29.1426C233.105 29.1426 232.664 26.686 232.502 25.3419C232.34 23.9977 232.502 24.1599 234.264 23.3951C236.025 22.6304 240.22 21.6802 241.123 21.6106C242.027 21.5411 243.093 21.7961 245.365 22.9548C247.636 24.0904 248.238 24.4844 248.354 25.1796C248.47 25.8517 248.748 28.934 248.794 30.3709C248.748 31.3674 248.424 31.2515 246.732 31.9468C245.017 32.6652 243.371 33.3373 242.954 33.5691C242.398 33.8008 241.494 33.2446 239.965 32.2712C238.621 31.3906 235.863 30.2086 234.681 29.861C233.545 29.4902 233.244 29.722 233.105 29.1426Z" fill="white"/>
<path d="M242.63 34.6358C242.63 34.6358 241.796 38.4829 241.378 40.4296C240.985 42.3068 241.1 42.5849 242.236 43.4424C243.372 44.2999 244.669 45.5282 245.341 46.038C246.037 46.571 246.477 47.1736 248.656 46.571C251.413 45.7831 252.132 45.5745 252.989 45.2964C253.847 45.0183 254.009 44.6938 254.31 43.1411C254.635 41.5884 254.866 39.2708 255.029 37.9962C255.191 36.7216 254.936 36.5362 253.939 35.5165C252.92 34.4967 251.019 32.8745 250.301 32.1329C249.583 31.3913 249.049 31.3218 248.169 31.6462C247.288 31.9707 244.855 32.8745 243.974 33.3612C243.093 33.871 242.769 33.9174 242.63 34.6358Z" fill="white"/>
<path d="M257.392 36.0957C257.392 36.0957 256.071 36.536 255.677 36.7214C255.283 36.9068 255.33 38.2278 255.168 39.5488C255.005 40.8929 254.519 43.4422 254.217 44.5778C254.032 45.1108 254.774 45.5743 255.399 46.594C256.373 48.1699 256.883 49.0506 257.091 48.7493C257.3 48.448 258.713 45.3657 258.644 40.2904C258.458 37.996 258.065 35.7248 257.392 36.0957Z" fill="white"/>
<path d="M218.921 47.3823C218.921 47.3823 219.107 46.8261 219.292 47.1042C219.454 47.4055 221.401 50.5805 222.954 52.2723C223.51 52.8053 223.649 52.9444 223.719 53.9409C223.788 54.9375 223.672 55.1924 223.093 54.5898C222.514 54.0568 219.709 50.5342 218.921 47.3823Z" fill="white"/>
<path d="M242.491 21.1943C242.491 21.1943 242.212 21.1016 242.073 21.2175C241.958 21.3333 242.63 21.5419 243.812 22.0518C244.994 22.5616 246.824 23.4886 247.589 24.0217C248.122 24.3461 248.331 24.4156 248.794 24.2071C249.258 24.0217 249.397 23.929 248.864 23.6509C248.354 23.3496 244.97 21.5651 242.491 21.1943Z" fill="white"/>
<path d="M241.981 55.0991C241.981 55.0991 239.432 55.7249 237.786 56.0957C236.697 56.2347 236.836 58.0424 236.373 60.0586C236.373 60.0586 237.021 57.7411 237.346 56.9068C237.67 56.0725 239.015 56.3274 241.981 55.0991Z" fill="#989898"/>
<path d="M223.835 27.4744C223.835 27.4744 226.152 25.0178 227.103 24.508C228.053 23.9749 231.645 24.3457 231.645 24.3457C231.645 24.3457 229.119 24.4384 227.937 24.508C226.755 24.5543 223.835 27.4744 223.835 27.4744Z" fill="white"/>
<path d="M236.697 22.8394C236.697 22.8394 240.312 21.7965 241.448 21.7502C242.583 21.7038 244.831 22.654 247.311 24.0677C244.53 22.8394 242.467 22.0283 241.633 22.0514C240.776 22.0283 236.697 22.8394 236.697 22.8394Z" fill="white"/>
<path d="M223.163 38.8777C223.163 38.8777 226.384 38.0665 226.871 38.1361C227.357 38.2056 231.158 43.4432 231.158 43.4432C231.158 43.4432 227.844 39.3643 226.871 38.8777C225.92 38.391 223.163 38.8777 223.163 38.8777Z" fill="white"/>
<path d="M251.575 33.5005C251.575 33.5005 253.777 35.5631 254.426 36.212C255.075 36.8609 255.028 36.9072 254.472 41.6582C254.727 38.6222 254.889 37.3707 254.31 36.606C253.73 35.8412 251.575 33.5005 251.575 33.5005Z" fill="url(#paint0_linear_2001_1243)"/>
<path d="M231.645 47.2429C231.645 47.2429 231.112 49.6068 230.834 50.6729C230.556 51.7389 229.536 51.5999 226.963 52.1329C229.698 51.2986 230.37 51.2059 230.602 50.4874C230.834 49.7458 231.645 47.2429 231.645 47.2429Z" fill="white"/>
<path d="M231.691 48.8886C231.691 48.8886 232.248 46.5711 232.456 45.6209C232.734 44.7171 234.519 44.6012 236.373 44.1145C236.373 44.1145 234.635 44.6939 233.499 45.1342C232.363 45.5745 232.363 47.1041 231.691 48.8886Z" fill="white"/>
<path d="M232.757 53.0146C232.757 53.0146 234.797 54.4747 235.701 55.0541C236.604 55.6566 237.091 55.703 239.432 55.1931C241.772 54.6833 242.421 54.4283 242.421 54.4283C242.421 54.4283 239.154 55.1468 237.462 55.1931C235.747 55.2858 232.757 53.0146 232.757 53.0146Z" fill="white"/>
<path d="M241.494 41.0552C241.494 41.0552 242.421 36.0262 242.699 34.8211C243.001 33.6392 245.086 32.9903 247.288 32.0864C247.288 32.0864 244.785 33.3842 243.812 34.01C242.861 34.682 242.954 35.4237 241.494 41.0552Z" fill="white"/>
<path d="M243.557 45.1106C243.557 45.1106 245.04 46.3157 245.527 46.756C246.013 47.1964 246.013 48.3319 244.53 51.8778C245.156 49.4907 246.036 47.4745 245.156 46.6865C244.275 45.8754 243.557 45.1106 243.557 45.1106Z" fill="white"/>
<path d="M220.752 49.6528C220.752 49.6528 221.934 51.2519 222.746 52.1789C223.464 52.9205 223.603 53.0596 223.603 54.5428C223.487 53.5694 223.371 53.0828 222.908 52.5961C222.467 52.1326 220.752 49.6528 220.752 49.6528Z" fill="white"/>
<path d="M235.121 31.2528C235.701 31.9248 235.469 33.0604 234.612 33.7789C233.754 34.4973 232.595 34.5436 232.039 33.8716C231.46 33.1995 231.691 32.0639 232.549 31.3455C233.406 30.627 234.565 30.5807 235.121 31.2528Z" fill="#4B4C4D"/>
<path d="M231.413 34.9368C231.668 35.2381 231.575 35.7479 231.181 36.0492C230.811 36.3737 230.301 36.3968 230.046 36.0956C229.791 35.7943 229.884 35.2844 230.278 34.9832C230.648 34.6587 231.158 34.6355 231.413 34.9368Z" fill="#4B4C4D"/>
</g>
<mask id="mask1_2001_1243" style="mask-type:luminance" maskUnits="userSpaceOnUse" x="248" y="13" width="59" height="148">
<path d="M248.782 13.6177C249.334 18.7635 250.346 98.7366 250.346 98.7366L251.013 144.85C251.013 144.85 250.346 163.045 262.813 159.577C274.728 155.397 296.188 149.029 296.188 149.029C296.188 149.029 306.194 146.812 306.079 145.987C305.964 145.163 302.491 121.537 302.491 121.537L266.861 19.8722L248.782 13.6177Z" fill="white"/>
</mask>
<g mask="url(#mask1_2001_1243)">
<path d="M249.058 15.4087C250.622 16.4606 251.933 17.8252 253.612 18.735C255.268 19.6447 256.832 20.4976 258.304 21.9191C261.985 25.4444 264.515 29.9363 266.976 34.8263C270.265 41.3936 273.485 47.9609 276.338 54.8693C279.581 62.7728 282.019 71.1312 285.17 79.12C289.633 90.435 294.831 101.835 298.12 113.719C301.202 124.864 302.445 136.406 304.86 147.664" stroke="#9C9B9B" stroke-miterlimit="10" stroke-linecap="round"/>
<path d="M249.058 20.6118C249.357 23.6254 252.071 26.838 253.405 29.3682C254.992 32.3818 256.464 35.5091 257.959 38.5226C261.18 45.0046 264.377 51.6572 267.229 58.3098C269.782 64.3085 271.944 70.3356 273.968 76.6755C279.627 94.4441 286.964 111.019 292.669 128.958C294.647 135.156 296.441 139.107 297.775 144.537" stroke="#70706F" stroke-miterlimit="10" stroke-linecap="round"/>
<path d="M247.401 33.1779C251.772 30.3633 256.671 27.9468 260.696 24.3931" stroke="#9C9B9B" stroke-miterlimit="10" stroke-linecap="round"/>
<path d="M267.942 36.0488C266.585 40.1712 262.352 43.7533 259.707 46.6247C256.418 50.15 252.945 53.4479 249.333 56.433" stroke="#9C9B9B" stroke-miterlimit="10" stroke-linecap="round"/>
<path d="M279.558 62.916C277.142 65.2757 275.302 69.2274 273.324 72.1557C271.047 75.5389 268.747 78.8936 266.424 82.2483C263.387 86.6265 260.305 90.9763 257.2 95.2692C254.555 98.9366 251.564 104.424 247.7 106.243" stroke="#9C9B9B" stroke-miterlimit="10" stroke-linecap="round"/>
<path d="M286.481 81.6501C285.308 82.5883 284.71 84.2941 283.905 85.6303C282.87 87.3077 281.674 88.8998 280.593 90.5203C278.407 93.8181 276.291 97.1728 274.336 100.67C269.805 108.744 266.147 117.472 262.421 126.114C258.787 134.558 255.199 143.94 250.092 151.19" stroke="#9C9B9B" stroke-miterlimit="10" stroke-linecap="round"/>
<path d="M294.049 101.636C290.139 108.857 284.917 114.885 281.398 122.447C278.615 128.417 277.212 135.127 275.809 141.722C274.636 147.238 273.808 153.293 271.484 158.297" stroke="#9C9B9B" stroke-miterlimit="10" stroke-linecap="round"/>
<path d="M300.972 127.252C299.914 128.418 299.316 130.778 298.672 132.313C297.752 134.445 296.878 136.577 296.027 138.738C294.279 143.173 292.668 147.693 291.196 152.271" stroke="#9C9B9B" stroke-miterlimit="10" stroke-linecap="round"/>
<path d="M297.591 113.094C296.832 116.96 293.727 119.917 292.048 123.243C290.185 126.911 288.759 130.891 287.517 134.957C285.423 141.893 284.089 149.285 281.559 155.995" stroke="#9C9B9B" stroke-miterlimit="10" stroke-linecap="round"/>
<path d="M249.748 115.397C254.877 120.003 259.983 123.897 263.871 130.237C266.401 134.36 268.448 138.908 270.219 143.599C271.001 145.675 271.645 147.835 272.611 149.769C273.761 152.043 274.911 154.317 275.785 156.791C275.624 156.706 275.486 156.592 275.371 156.45" stroke="#9C9B9B" stroke-miterlimit="10" stroke-linecap="round"/>
<path d="M249.563 73.7471C250.921 74.8274 251.611 76.3342 252.646 77.7557C253.727 79.234 255.13 80.3712 256.257 81.878C258.649 85.0621 283.146 149.74 284.641 153.948" stroke="#9C9B9B" stroke-miterlimit="10" stroke-linecap="round"/>
<path d="M249.242 42.2756C250.53 42.4178 251.795 44.3226 252.784 45.2039C254.394 46.6538 255.613 48.2175 256.809 50.236C259.385 54.5289 261.364 59.3335 263.319 64.0813C267.091 73.2642 270.863 82.4186 274.636 91.6014C278.753 101.637 282.893 111.673 286.412 122.05C288.184 127.281 289.817 132.597 291.22 137.999C292.577 143.315 293.129 148.888 294.233 154.318" stroke="#9C9B9B" stroke-miterlimit="10" stroke-linecap="round"/>
<path d="M248.896 99.1917C252.14 105.702 253.428 113.293 255.268 120.486C256.188 124.068 257.223 127.621 258.718 130.891C260.282 134.302 262.283 137.43 263.572 141.04C263.388 141.325 263.411 140.131 263.296 140.017" stroke="#9C9B9B" stroke-miterlimit="10" stroke-linecap="round"/>
<path d="M249.909 126.229C251.496 130.749 253.75 135.184 255.475 139.562" stroke="#9C9B9B" stroke-miterlimit="10" stroke-linecap="round"/>
<path d="M249.748 73.1213C250.783 74.9693 251.197 77.528 252.071 79.5749C252.899 81.4797 253.75 83.4698 254.624 85.3177C256.487 89.2411 258.235 93.3634 259.914 97.4857C263.526 106.384 265.159 116.335 268.632 125.29C270.679 130.55 272.404 135.923 274.52 141.012" stroke="#70706F" stroke-miterlimit="10" stroke-linecap="round"/>
<path d="M248.896 42.5029C255.176 54.5856 259.707 67.578 265.205 80.2009C268.011 86.6545 270.886 93.0796 273.301 99.7322C275.693 106.328 277.143 112.895 279.029 119.548C280.294 123.983 282.272 127.878 284.135 132C285.699 135.468 286.297 139.818 288.022 142.889" stroke="#70706F" stroke-miterlimit="10" stroke-linecap="round"/>
<path d="M260.696 24.3641C258.603 23.7102 256.602 22.9995 254.532 22.5162C252.37 22.0044 250 22.0329 247.884 21.2368" stroke="#70706F" stroke-miterlimit="10" stroke-linecap="round"/>
<path d="M267.689 36.021C262.628 33.576 257.568 32.8369 252.255 33.5192C250.759 33.7182 249.057 33.5476 247.884 34.3436" stroke="#70706F" stroke-miterlimit="10" stroke-linecap="round"/>
<path d="M279.213 62.6593C277.396 62.972 275.533 61.6074 273.808 60.982C271.668 60.2144 269.46 59.6173 267.252 59.3046C260.835 58.3948 254.716 60.6977 248.391 60.4134" stroke="#70706F" stroke-miterlimit="10" stroke-linecap="round"/>
<path d="M286.09 81.6502C283.859 79.6316 281.053 79.3473 278.385 78.9209C275.096 78.3807 271.76 78.1533 268.448 78.1533C262.008 78.1249 255.636 79.4326 249.242 79.5463" stroke="#70706F" stroke-miterlimit="10" stroke-linecap="round"/>
<path d="M294.049 101.238C289.104 98.253 282.548 97.7412 277.12 97.0589C270.978 96.2913 264.883 97.0305 258.764 97.4854C255.544 97.7128 252.071 97.5991 248.782 97.9403C249.035 98.0824 249.288 98.1393 249.564 98.1108" stroke="#70706F" stroke-miterlimit="10" stroke-linecap="round"/>
<path d="M297.936 113.094C292.462 109.626 285.906 109.967 279.65 109.967C272.91 109.967 266.286 111.161 259.524 110.763C257.43 110.649 255.314 110.422 253.198 110.308C251.588 110.223 249.242 110.45 247.724 109.768" stroke="#70706F" stroke-miterlimit="10" stroke-linecap="round"/>
<path d="M250.07 121.651C256.372 122.703 262.905 123.755 269.368 123.727C276.338 123.698 283.491 123.698 290.185 124.978C293.796 125.66 297.407 126.541 300.812 127.707" stroke="#70706F" stroke-miterlimit="10" stroke-linecap="round"/>
<path d="M250.253 130.379C256.441 130.379 262.72 130.436 268.885 131.005C274.543 131.516 280.018 132.682 285.906 132.682C288.758 132.682 300.144 134.331 302.513 135.809" stroke="#70706F" stroke-miterlimit="10" stroke-linecap="round"/>
<path d="M249.909 134.132C250.208 136.634 252.439 138.88 253.727 140.728C255.59 143.429 257.476 146.101 259.224 148.916C261.341 152.299 262.721 156.251 264.814 159.634C264.883 160.003 264.745 159.861 264.561 159.776" stroke="#9C9B9B" stroke-miterlimit="10" stroke-linecap="round"/>
</g>
<path d="M10.0536 92.3812L7.56049 92.9774L3.17053 89.1565L4.25447 93.7632L2.22208 94.251L0 84.8478L2.03239 84.3601L3.06213 88.6958L5.12162 83.6284L7.50629 83.0593L5.36551 88.3164L10.0536 92.3812Z" fill="#1E1E1C"/>
<path d="M13.0887 83.7913C14.1727 83.5203 15.1753 83.6829 16.0696 84.2249C16.9638 84.7669 17.5329 85.6069 17.8039 86.718C18.0748 87.829 17.9123 88.8317 17.3703 89.7259C16.8283 90.6202 15.9883 91.2163 14.9043 91.4602C14.1727 91.6228 13.441 91.5957 12.7635 91.3247L13.4681 94.3327L11.517 94.7933L9.18652 84.9295L10.4873 84.6314L10.975 85.2004C11.4628 84.4959 12.1674 84.0081 13.0887 83.7913ZM12.7364 89.4278C13.1971 89.7259 13.712 89.7801 14.281 89.6717C14.8501 89.5362 15.2837 89.2381 15.5547 88.7775C15.8528 88.3168 15.907 87.8019 15.7715 87.2328C15.6902 86.8535 15.5276 86.5283 15.2837 86.2844C15.0398 86.0134 14.7417 85.8508 14.4165 85.7424C14.0643 85.634 13.712 85.634 13.3326 85.7153C12.9532 85.7966 12.628 85.9592 12.3842 86.2031C12.1132 86.447 11.9506 86.7451 11.8422 87.0702C11.7609 87.4225 11.7338 87.7748 11.8422 88.1542C11.9777 88.6962 12.2758 89.1297 12.7364 89.4278Z" fill="#1E1E1C"/>
<path d="M24.2533 81.3523L25.7166 81L27.4238 88.2624L25.8792 88.6147L25.554 88.0185C25.0391 88.7502 24.3075 89.2109 23.4132 89.4276C22.3293 89.6986 21.3266 89.536 20.4324 88.967C19.5381 88.3979 18.9691 87.5849 18.6981 86.4739C18.4271 85.39 18.5897 84.3873 19.1316 83.4931C19.6736 82.5988 20.5137 82.0297 21.5976 81.7588C22.519 81.542 23.3861 81.6504 24.172 82.0839L24.2533 81.3523ZM21.5976 87.314C22.0583 87.612 22.5732 87.6662 23.1422 87.5578C23.7113 87.4224 24.1449 87.1243 24.4159 86.6636C24.7139 86.2029 24.7681 85.688 24.6326 85.119C24.4971 84.5499 24.1991 84.1163 23.7384 83.8182C23.2777 83.5202 22.7628 83.466 22.1938 83.5744C21.8144 83.6557 21.4892 83.8182 21.2453 84.0892C20.9743 84.3331 20.8117 84.6312 20.7034 84.9564C20.595 85.3087 20.595 85.6609 20.6763 86.0403C20.8388 86.6094 21.1369 87.043 21.5976 87.314Z" fill="#1E1E1C"/>
<path d="M28.5075 85.0372L28.0469 83.1403L32.4368 82.1106L32.8975 84.0075L28.5075 85.0372Z" fill="#1E1E1C"/>
<path d="M9.29486 109.806C8.59029 109.969 7.88573 109.969 7.20827 109.752C6.53081 109.562 5.96174 109.21 5.50106 108.695C5.01329 108.18 4.71521 107.557 4.52552 106.852C4.28163 105.768 4.41712 104.766 4.98619 103.871C5.55526 102.977 6.36821 102.381 7.47925 102.137C8.4277 101.92 9.29486 102.002 10.0807 102.381C10.8937 102.76 11.4627 103.384 11.8692 104.224L9.91812 104.684C9.67423 104.386 9.37615 104.142 9.02387 104.034C8.67159 103.898 8.29221 103.898 7.88573 103.98C7.34376 104.115 6.96438 104.386 6.6934 104.847C6.42241 105.308 6.36821 105.822 6.50371 106.392C6.6392 106.961 6.93729 107.394 7.37086 107.692C7.83154 107.99 8.29221 108.072 8.83418 107.963C9.24066 107.882 9.53874 107.692 9.80973 107.394C10.0536 107.123 10.2433 106.744 10.2975 106.31L12.2757 105.85C12.3028 106.825 12.0589 107.665 11.5169 108.37C11.0021 109.101 10.2433 109.562 9.29486 109.806Z" fill="#1E1E1C"/>
<path d="M17.8308 99.9145L18.9419 99.6436L20.6491 106.906L18.7522 107.367L17.8579 103.519L15.392 108.152L14.2809 108.423L12.5737 101.161L14.4706 100.7L15.3649 104.494L17.8308 99.9145Z" fill="#1E1E1C"/>
<path d="M21.7331 103.654L21.2725 101.758L25.6624 100.728L26.1231 102.625L21.7331 103.654Z" fill="#1E1E1C"/>
<path d="M13.9827 121.431C14.362 121.512 14.6601 121.675 14.904 121.919C15.1479 122.163 15.3376 122.488 15.4189 122.867C15.5544 123.49 15.4731 124.059 15.1208 124.574C14.7956 125.089 14.2808 125.441 13.6304 125.577L9.67401 126.525L7.9668 119.263L11.8961 118.342C12.5194 118.206 13.0613 118.26 13.5491 118.504C14.0369 118.748 14.335 119.155 14.4704 119.697C14.5517 120.022 14.5517 120.347 14.4704 120.645C14.3621 120.916 14.1995 121.187 13.9827 121.431ZM12.6006 120.455C12.5735 120.32 12.5194 120.184 12.411 120.103C12.3297 120.022 12.2213 119.968 12.0858 119.913C11.9503 119.886 11.8148 119.886 11.6793 119.913L10.216 120.266L10.5412 121.675L12.0045 121.322C12.2213 121.268 12.3839 121.16 12.4923 120.997C12.6277 120.835 12.6548 120.645 12.6006 120.455ZM12.7903 124.114C13.0342 124.059 13.1968 123.951 13.3323 123.788C13.4407 123.626 13.4678 123.436 13.4136 123.192C13.3594 122.975 13.251 122.813 13.0613 122.704C12.8987 122.596 12.6819 122.569 12.4381 122.65L10.8934 123.03L11.2457 124.52L12.7903 124.114Z" fill="#1E1E1C"/>
<path d="M20.893 124.059C20.1614 124.222 19.4297 124.222 18.7523 124.032C18.0748 123.843 17.5057 123.49 17.018 122.975C16.5302 122.461 16.2321 121.864 16.0424 121.133C15.7714 120.022 15.934 119.019 16.5031 118.125C17.0722 117.231 17.9122 116.634 19.0503 116.363C20.1614 116.092 21.1911 116.255 22.1125 116.797C23.0338 117.339 23.6029 118.179 23.8739 119.263C24.1449 120.347 23.9823 121.349 23.3861 122.271C22.8441 123.219 22.0041 123.815 20.893 124.059ZM20.4595 122.244C21.0285 122.108 21.435 121.81 21.706 121.349C21.977 120.889 22.0312 120.374 21.8957 119.805C21.7602 119.236 21.4621 118.775 21.0285 118.504C20.595 118.206 20.0801 118.152 19.511 118.287C18.942 118.423 18.5355 118.721 18.2645 119.182C17.9935 119.642 17.9393 120.157 18.0748 120.726C18.129 121.024 18.2645 121.268 18.4 121.512C18.5626 121.729 18.7252 121.919 18.942 122.054C19.1587 122.19 19.3755 122.271 19.6465 122.325C19.8904 122.325 20.1614 122.298 20.4595 122.244Z" fill="#1E1E1C"/>
<path d="M25.6078 119.534L24.0361 112.895L26.0143 112.434L27.586 119.073L25.6078 119.534ZM26.2582 122.596L25.7704 120.51L27.857 120.022L28.3448 122.108L26.2582 122.596Z" fill="#1E1E1C"/>
<path d="M79.3081 155.807C95.4049 155.807 108.454 154.06 108.454 151.904C108.454 149.748 95.4049 148 79.3081 148C63.2112 148 50.1621 149.748 50.1621 151.904C50.1621 154.06 63.2112 155.807 79.3081 155.807Z" fill="#2675AA"/>
<path d="M124.017 73.4776C123.964 73.4513 123.937 73.4249 123.885 73.4249C122.988 72.9765 122.566 72.3434 121.564 72.871C120.72 73.293 120.166 74.3217 119.928 75.2449C119.401 77.3286 119.295 80.441 120.667 82.2346C121.405 83.1842 122.909 84.081 123.858 82.9204C125.335 85.1096 128.527 86.4021 130.927 86.4021C134.198 86.4021 135.016 82.7094 135.622 79.8344C136.572 75.1921 135.886 66.778 131.745 63.8239C129.345 62.1094 127.314 65.1954 126.417 67.2264C125.889 68.387 125.467 69.6794 125.335 70.9719C125.204 72.0797 125.678 74.2425 124.017 73.4776Z" fill="#F8B133" stroke="#422A19" stroke-miterlimit="10"/>
<path d="M126.469 70.26C126.443 68.8621 127.472 66.0925 128.896 65.8024C130.742 65.4068 131.481 68.4137 131.956 69.838C132.536 71.6843 132.826 73.8736 132.061 75.6936C131.191 77.8037 129.16 78.3048 127.762 76.3794C126.68 74.9023 126.047 71.4997 126.469 70.26Z" fill="url(#paint1_linear_2001_1243)"/>
<path d="M125.335 71.4204C125.018 75.2977 127.076 79.9664 129.687 81.6017" stroke="#422A19" stroke-miterlimit="10" stroke-linecap="round"/>
<path d="M122.856 72.792C123.885 73.6624 124.491 75.8253 124.465 77.4606" stroke="#422A19" stroke-miterlimit="10" stroke-linecap="round"/>
<path d="M122.539 83.4217C123.62 83.3954 124.544 80.5467 124.544 79.6235" stroke="#422A19" stroke-miterlimit="10" stroke-linecap="round"/>
<path d="M94.9231 90.4119C95.0023 90.1745 95.1078 89.9371 95.2397 89.7261C96.7167 87.1676 98.273 85.2157 100.225 83.0792C102.625 80.4679 105.131 78.0941 108.639 77.461C112.2 76.828 116.367 76.5115 120.06 76.5115C120.957 76.5115 121.458 76.5642 121.88 77.5665C122.249 78.4633 122.065 79.492 121.22 79.914C119.638 80.679 117.238 80.1514 115.55 80.1778C113.703 80.1778 111.646 80.3361 109.879 80.7581C106.555 81.5758 103.654 84.4244 101.28 86.9565C100.04 88.2754 98.8796 89.7261 97.6135 90.9921C97.0596 91.546 96.1892 92.3637 95.3715 91.8098C95.055 91.5724 94.844 91.1504 94.8704 90.7284C94.8704 90.5965 94.8968 90.491 94.9231 90.4119Z" fill="url(#paint2_linear_2001_1243)" stroke="#422A19" stroke-miterlimit="10"/>
<path d="M128.843 63.9038C131.824 63.2444 133.222 68.4405 133.723 70.7617C134.541 74.5335 134.461 81.0221 131.586 83.7916" stroke="#422A19" stroke-miterlimit="10" stroke-linecap="round"/>
<path d="M127.92 66.5406L126.971 64.9316L128.263 66.2241L128.685 66.2768L130.162 65.3009L128.975 66.6461L128.923 67.1209L129.872 68.7298L128.606 67.4374L128.158 67.3846L126.681 68.387L127.868 67.0154L127.92 66.5406Z" fill="white"/>
<path d="M126.417 87.1942C124.096 88.3812 125.362 91.3881 125.889 93.2344C126.338 94.817 127.736 96.637 129.081 97.5338C129.767 97.9822 130.558 98.2987 131.296 97.7712C131.771 97.4283 131.745 96.7425 132.272 96.5315C132.905 96.2941 133.881 96.9799 134.488 97.1645C136.255 97.6921 138.972 97.7448 140.686 96.9535C142.797 95.9776 143.482 94.1312 143.456 91.8365C143.403 89.1197 142.48 86.1919 141.451 83.7125C140.212 80.7584 138.655 78.6219 136.202 76.5645C134.277 74.9556 132.325 74.7709 130.663 76.9602C129.318 78.7274 128.896 81.2068 129.107 83.3696C129.213 84.3192 129.476 85.3743 128.975 86.0864C128.237 87.1151 127.366 86.6931 126.417 87.1942Z" fill="#F8B133" stroke="#422A19" stroke-miterlimit="10"/>
<path d="M128.632 94.5789C123.331 95.7922 118.266 97.0319 115.26 98.8519C112.253 100.698 103.865 107.451 102.704 108.743C101.57 110.036 98.1148 111.064 98.9853 108.427C99.8557 105.789 107.953 99.7487 109.852 98.1661C111.751 96.5835 114.811 94.8427 117.264 94.0778C119.717 93.3392 127.023 91.5984 127.023 91.5984C127.023 91.5984 128.289 91.5984 128.817 92.8117C129.345 94.025 128.632 94.5789 128.632 94.5789Z" fill="url(#paint3_linear_2001_1243)" stroke="#422A19" stroke-miterlimit="10"/>
<path d="M130.795 97.9022C132.114 97.3483 132.509 95.0799 131.006 92.0994" stroke="#422A19" stroke-miterlimit="10" stroke-linecap="round"/>
<path d="M126.707 87.1142C128.157 86.613 129.502 89.1979 130.162 90.464" stroke="#422A19" stroke-miterlimit="10" stroke-linecap="round"/>
<path d="M129.186 84.1077C129.793 87.4839 132.325 90.0424 135.596 91.071C136.519 91.3612 137.626 91.6249 138.629 91.5194" stroke="#422A19" stroke-miterlimit="10" stroke-linecap="round"/>
<path d="M130.716 76.9066C133.301 75.0866 136.519 79.6497 137.626 81.3642C140.343 85.6108 141.055 90.0948 140.132 94.9744" stroke="#422A19" stroke-miterlimit="10" stroke-linecap="round"/>
<path d="M131.085 81.2853C132.404 83.8965 136.941 89.5411 138.233 87.0881C139.315 85.0571 136.994 81.9711 135.78 80.494C135.2 79.8082 133.987 78.2256 133.063 77.9618C131.666 77.5662 130.584 78.9114 130.716 80.2566C130.742 80.494 130.874 80.8369 131.085 81.2853Z" fill="url(#paint4_linear_2001_1243)"/>
<path d="M131.164 79.6495L131.613 81.4431L131.639 79.5967L131.929 79.2275L133.749 78.7527H131.877L131.507 78.4625L131.059 76.6953L131.032 78.5417L130.742 78.9109L128.922 79.3593H130.795L131.164 79.6495Z" fill="white"/>
<path d="M83.4496 52.4299C84.7156 54.3818 86.0345 56.2809 87.3269 58.2327C88.5666 60.1318 89.8327 62.0573 90.8614 64.0619C90.9669 64.2466 91.046 64.4312 91.1251 64.6158C91.2043 64.7741 91.046 64.3784 91.0987 64.5367C91.1251 64.5631 91.1251 64.6158 91.1515 64.6422C91.1779 64.7477 91.2306 64.8532 91.257 64.9587C91.3098 65.117 91.3361 65.2752 91.3889 65.4599C91.3889 65.2225 91.4416 65.7764 91.3889 65.4599C91.3889 65.5654 91.4153 65.6709 91.4153 65.7764C91.4153 65.961 91.3889 66.1193 91.3889 66.3039C91.3889 66.4886 91.4416 66.0401 91.3889 66.2248C91.3889 66.2775 91.3625 66.3039 91.3625 66.3567C91.3361 66.4885 91.3098 66.5941 91.2834 66.7259C91.1515 67.2535 90.9932 67.7546 90.8086 68.2558C90.624 68.7833 90.4393 69.3372 90.2283 69.8647C90.1228 70.1021 90.0437 70.3395 89.9382 70.6033C89.8854 70.7352 89.8327 70.867 89.7799 70.9989C89.7535 71.0517 89.7272 71.1044 89.7008 71.1572C89.6744 71.2363 89.5953 71.3946 89.6744 71.2363C89.226 72.265 88.7512 73.2937 88.2501 74.3224C87.1159 76.5644 86.1927 78.9119 84.7684 80.9692C84.3728 81.5231 84.6365 82.4199 85.2168 82.7364C85.8762 83.0793 86.562 82.8683 86.984 82.288C88.3028 80.4153 89.1469 78.2788 90.1756 76.2478C91.257 74.1113 92.2329 71.9485 93.0506 69.6801C93.71 67.8074 94.3694 65.8555 93.5781 63.9037C93.1561 62.8486 92.5758 61.8727 92.0219 60.9231C91.4153 59.8944 90.7822 58.8921 90.1492 57.9162C88.6721 55.6478 87.1423 53.4322 85.6652 51.1902C85.2959 50.6363 84.5046 50.3462 83.898 50.7418C83.3441 51.032 83.0539 51.8232 83.4496 52.4299Z" fill="#541814"/>
<path d="M102.098 119.795L76.6179 141.477L43.9639 116.076L71.1052 92.5483L82.3416 98.3775L102.098 119.795Z" fill="#FFD207"/>
<path d="M102.098 119.795L75.2727 142.637L43.9639 116.076L71.1052 92.5483L82.3416 98.3775L102.098 119.795Z" fill="#FFD207"/>
<path d="M102.098 119.795L116.394 95.3709L86.1137 68.1504L71.1055 92.5486L102.098 119.795Z" fill="#FFE609"/>
<path d="M71.1843 92.3903L71.2107 92.4167L71.1316 92.4695L71.1052 92.5486L44.0957 115.971L45.3618 117.105L49.4765 120.666L76.4596 97.2436L76.5915 97.1381V97.1645L91.4678 73.03L86.1134 68.1504L71.1843 92.3903Z" fill="#F8B133"/>
<path d="M38.5039 113.201L46.3377 120.059L74.6924 95.476L71.3162 91.2558L66.8586 88.5918L38.5039 113.201Z" fill="#FFD207"/>
<path d="M66.8584 88.5915L74.6922 95.4757L90.3598 69.9961L82.526 63.1382L66.8584 88.5915Z" fill="#FFE609"/>
<path d="M38.5039 113.201L55.0947 87.6683L82.5262 63.1382L66.8586 88.5915L38.5039 113.201Z" fill="#FEEB17"/>
<path d="M71.6592 84.2659L73.2946 84.6352L74.5079 83.4746L74.6661 85.1363L76.1432 85.954L74.6134 86.6398L74.2969 88.2751L73.1627 87.0091L71.5273 87.2201L72.3714 85.7694L71.6592 84.2659Z" fill="#F8B133"/>
<path d="M84.399 89.409L86.0343 89.7782L87.2476 88.6177L87.4059 90.2794L88.883 91.0971L87.3531 91.7565L87.0102 93.4182L85.9024 92.1521L84.2407 92.3631L85.1111 90.9124L84.399 89.409Z" fill="#F8B133"/>
<path d="M103.496 89.1455L105.131 89.5148L106.344 88.3542L106.503 90.016L107.98 90.8336L106.45 91.5194L106.133 93.1548L105.025 91.8887L103.364 92.0997L104.208 90.649L103.496 89.1455Z" fill="#F8B133"/>
<path d="M85.5596 101.437L87.195 101.78L88.4083 100.646L88.5665 102.307L90.0436 103.125L88.4874 103.785L88.1709 105.446L87.0631 104.18L85.4014 104.391L86.2454 102.94L85.5596 101.437Z" fill="#F8B133"/>
<path d="M94.2378 86.5074L95.8732 86.8766L97.1129 85.7161L97.2711 87.3778L98.7218 88.1955L97.192 88.8812L96.8755 90.5166L95.7677 89.2505L94.106 89.4615L94.95 88.0372L94.2378 86.5074Z" fill="#F8B133"/>
<path d="M96.3213 100.328L97.9567 100.671L99.17 99.5369L99.3283 101.199L100.805 102.016L99.2491 102.676L98.9326 104.337L97.8248 103.071L96.1631 103.282L97.0071 101.832L96.3213 100.328Z" fill="#F8B133"/>
<path d="M100.805 110.563L102.441 110.932L103.654 109.798L103.812 111.46L105.289 112.251L103.759 112.937L103.443 114.572L102.335 113.333L100.673 113.517L101.517 112.093L100.805 110.563Z" fill="#F8B133"/>
<path d="M108.929 97.3216L110.538 97.6908L111.778 96.5303L111.936 98.2184L113.387 99.0097L111.857 99.6954L111.541 101.331L110.433 100.065L108.771 100.276L109.615 98.8514L108.929 97.3216Z" fill="#F8B133"/>
<path d="M89.358 76.8806L90.9933 77.2235L92.2066 76.0894L92.3649 77.7511L93.842 78.5687L92.3121 79.2282L91.9956 80.8635L90.8878 79.6238L89.2261 79.8348L90.0701 78.3841L89.358 76.8806Z" fill="#F8B133"/>
<path d="M81.6563 68.5183L83.2916 68.8612L84.505 67.7271L84.6632 69.3888L86.1403 70.2064L84.5841 70.8658L84.2676 72.5012L83.1598 71.2615L81.498 71.4725L82.3421 70.0218L81.6563 68.5183Z" fill="#F8B133"/>
<path d="M43.1458 110.379L45.0186 110.906L46.7594 110.062L46.5484 111.566L48.1046 112.489L46.1 112.858L45.3087 114.282L44.28 113.016L42.249 112.99L43.6206 111.803L43.1458 110.379Z" fill="#EE7E05"/>
<path d="M60.2117 113.86L62.0845 114.414L63.8253 113.544L63.6143 115.047L65.1441 115.97L63.1659 116.366L62.3746 117.79L61.3459 116.524L59.3149 116.471L60.6865 115.311L60.2117 113.86Z" fill="#EE7E05"/>
<path d="M85.2957 114.757L87.1685 115.284L88.9093 114.44L88.6983 115.944L90.2545 116.867L88.2499 117.236L87.4586 118.661L86.4299 117.395L84.3989 117.368L85.7705 116.181L85.2957 114.757Z" fill="#EE7E05"/>
<path d="M59.9212 122.986L61.7939 123.514L63.5612 122.67L63.3238 124.173L64.88 125.097L62.8754 125.466L62.0841 126.89L61.0554 125.624L59.0244 125.598L60.396 124.411L59.9212 122.986Z" fill="#EE7E05"/>
<path d="M52.5623 106.633L54.4351 107.161L56.1759 106.317L55.9649 107.82L57.5211 108.743L55.5165 109.113L54.7252 110.537L53.6965 109.271L51.6655 109.244L53.0371 108.057L52.5623 106.633Z" fill="#EE7E05"/>
<path d="M74.8768 111.143L76.7495 111.697L78.5167 110.827L78.2793 112.33L79.8355 113.254L77.8309 113.649L77.0396 115.074L76.011 113.807L73.98 113.755L75.3516 112.594L74.8768 111.143Z" fill="#EE7E05"/>
<path d="M72.0282 124.516L73.9009 125.07L75.6417 124.199L75.4307 125.703L76.9869 126.626L74.9823 127.022L74.191 128.446L73.1623 127.18L71.1313 127.127L72.5029 125.967L72.0282 124.516Z" fill="#EE7E05"/>
<path d="M76.7235 133.458L78.5962 133.985L80.337 133.141L80.126 134.645L81.6822 135.568L79.6776 135.937L78.8863 137.362L77.8576 136.096L75.8267 136.069L77.1982 134.882L76.7235 133.458Z" fill="#EE7E05"/>
<path d="M89.7532 122.749L91.626 123.303L93.3668 122.458L93.1558 123.962L94.712 124.885L92.7074 125.254L91.9161 126.679L90.8874 125.413L88.8564 125.386L90.228 124.199L89.7532 122.749Z" fill="#EE7E05"/>
<path d="M71.4476 101.912L73.2939 102.44L75.0612 101.596L74.8238 103.099L76.38 104.022L74.3754 104.418L73.5841 105.816L72.5818 104.55L70.5244 104.523L71.896 103.337L71.4476 101.912Z" fill="#EE7E05"/>
<path d="M64.2996 93.4191L66.146 93.9466L67.9132 93.1025L67.6758 94.606L69.232 95.5292L67.2274 95.9248L66.4361 97.3228L65.4338 96.0567L63.3765 96.0303L64.748 94.8698L64.2996 93.4191Z" fill="#EE7E05"/>
<path d="M91.4678 129.026L55.5694 98.3771L71.4744 73.0293L65.0122 78.7794L49.7402 103.468L85.3748 134.196L91.4678 129.026Z" fill="#E94643"/>
<path d="M55.5694 98.3771L71.4744 73.0293L65.0122 78.7794L49.7402 103.468L55.5694 98.3771Z" fill="#EB5E60"/>
<path d="M108.191 109.456L73.2156 78.3314L50.0835 97.3488L54.6202 91.2031L77.4886 71.8955L112.279 102.492L108.191 109.456Z" fill="#E94643"/>
<path d="M73.2157 78.3311L45.8633 101.859L50.5847 94.6318L77.4886 71.8953L73.2157 78.3311Z" fill="#EB5E60"/>
<path d="M62.6646 67.4114C61.7942 67.3587 60.7655 68.0181 60.2907 68.6247C60.1061 68.8357 59.8159 69.9963 59.7632 71.7635C60.7391 72.3702 61.8733 73.7681 62.0052 76.564C62.0579 77.7774 61.8997 79.3863 61.6359 81.0217C62.2162 82.3141 62.9547 83.6066 63.9307 84.8726C63.9307 84.8726 66.1727 76.6168 65.988 72.5812C65.777 68.572 63.535 67.4378 62.6646 67.4114Z" fill="#BC1B1C"/>
<path d="M61.0029 87.352C61.0029 87.352 51.9558 77.329 53.723 73.6627C55.6749 71.4734 57.8641 70.8668 60.2644 68.6248C58.7873 72.6867 60.9238 80.415 63.8779 84.8726C62.3217 87.5103 61.0029 87.352 61.0029 87.352Z" fill="#E94643"/>
<path d="M62.0845 87.6159C62.0845 87.6159 47.683 81.2592 41.0625 89.9106C42.988 88.8292 59.1304 90.4909 59.1304 90.4909L62.0845 87.6159Z" fill="#BC1B1C"/>
<path d="M41.0361 89.9105C41.0361 89.9105 37.5016 95.687 46.2058 96.8475C51.9031 97.6124 62.0845 87.6158 62.0845 87.6158C62.0845 87.6158 60.6601 88.9346 58.8138 90.5172C56.3608 92.6009 54.0924 91.9679 52.1933 92.1261C44.887 92.7592 42.4076 87.774 46.9444 86.1123C43.832 86.3233 41.0361 89.9105 41.0361 89.9105Z" fill="#D32B29"/>
<path d="M58.7875 83.7383C58.7875 83.7383 54.7783 77.3815 51.4285 76.8013C48.1051 76.221 44.0958 81.5226 47.6039 84.8197C54.4618 83.791 58.7875 83.7383 58.7875 83.7383Z" fill="#D32B29"/>
<path d="M62.6913 86.4816C62.6913 86.4816 54.9103 81.6811 52.6419 81.3118C50.3736 80.9426 47.4721 82.6306 46.1533 86.8509C50.5846 83.7121 59.4998 88.2224 60.5549 88.9346C62.1638 88.1697 62.6913 86.4816 62.6913 86.4816Z" fill="#C41718"/>
<path d="M50.0569 81.7334C50.0569 81.7334 46.8917 84.3183 49.3184 86.3756C53.2748 89.7255 62.3483 87.2461 62.3483 87.2461C62.3483 87.2461 60.2118 89.9628 58.7347 90.9652C57.2577 91.9675 50.136 94.4732 47.3401 92.4159C42.4869 88.855 46.2587 82.8676 50.0569 81.7334Z" fill="#E94643"/>
<path d="M56.5191 74.7174C56.5191 74.7174 55.4376 77.2495 57.4686 80.9158C59.4996 84.5558 62.5857 86.745 62.5857 86.745C62.5857 86.745 63.6143 84.8987 63.3242 83.87C61.2405 81.839 58.1808 75.1921 60.2382 71.7104C58.0489 72.6336 56.5191 74.7174 56.5191 74.7174Z" fill="#C41718"/>
<path d="M62.2427 87.299C62.2427 87.299 69.76 79.2806 66.0146 72.2908C64.1418 69.5213 58.7347 68.5453 56.519 74.7438C60.0271 73.2931 65.2233 77.9881 62.2427 87.299Z" fill="#E94643"/>
<path d="M92.6552 134.038C91.9166 133.352 91.7056 132.535 90.5187 132.508C89.5164 132.508 88.6723 133.115 88.1712 133.959C87.1689 135.726 86.7996 138.68 87.248 140.659C87.4854 141.714 87.8019 142.98 88.8833 143.507C89.5427 143.85 89.7274 143.455 90.334 143.323C91.0198 143.191 91.2572 143.692 91.7584 144.114C93.2882 145.354 94.6861 146.593 96.6116 147.226C98.7217 147.939 100.779 148.44 103.021 148.361C103.76 148.334 104.762 148.202 105.421 147.886C106.054 147.569 106.318 147.015 106.793 146.673C107.4 146.224 108.165 146.356 108.587 145.486C108.903 144.853 108.903 143.903 108.376 143.349C108.903 143.059 109.483 142.611 109.773 142.083C110.222 141.213 109.879 140.791 109.378 140.184C110.301 138.601 108.798 137.546 107.426 137.124C106.265 136.781 104.92 136.755 103.707 136.597C102.942 136.491 101.702 136.465 101.148 135.885C101.702 135.331 103.707 133.563 102.467 132.693C101.781 132.218 100.357 132.983 99.6185 133.062C98.1415 133.247 96.9809 132.192 95.6093 132.034C94.4751 131.928 93.1036 132.957 92.6815 133.906C92.8134 134.012 92.8925 133.985 92.6552 134.038Z" fill="#F8B133" stroke="#422A19" stroke-miterlimit="10" stroke-linecap="round"/>
<path d="M100.357 139.287C101.544 139.313 102.678 139.867 103.891 139.894C105.131 139.92 106.344 140.157 107.584 140.236C108.217 140.263 108.824 140.395 109.457 140.368" fill="#F8B133"/>
<path d="M100.357 139.287C101.544 139.313 102.678 139.867 103.891 139.894C105.131 139.92 106.344 140.157 107.584 140.236C108.217 140.263 108.824 140.395 109.457 140.368" stroke="#422A19" stroke-miterlimit="10" stroke-linecap="round"/>
<path d="M99.9087 142.479C101.122 142.663 102.203 143.191 103.443 143.349C104.445 143.481 105.474 143.56 106.503 143.56C107.109 143.56 107.822 143.507 108.349 143.534" fill="#F8B133"/>
<path d="M99.9087 142.479C101.122 142.663 102.203 143.191 103.443 143.349C104.445 143.481 105.474 143.56 106.503 143.56C107.109 143.56 107.822 143.507 108.349 143.534" stroke="#422A19" stroke-miterlimit="10" stroke-linecap="round"/>
<path d="M98.6953 145.934C99.6712 145.908 100.911 146.409 101.913 146.514C102.968 146.646 104.05 146.752 105.105 146.725C105.711 146.699 106.424 146.646 106.978 146.356" fill="#F8B133"/>
<path d="M98.6953 145.934C99.6712 145.908 100.911 146.409 101.913 146.514C102.968 146.646 104.05 146.752 105.105 146.725C105.711 146.699 106.424 146.646 106.978 146.356" stroke="#422A19" stroke-miterlimit="10" stroke-linecap="round"/>
<path d="M90.2812 143.48C91.2836 143.164 91.943 142.346 92.2859 141.344L90.2812 143.48Z" fill="#F8B133"/>
<path d="M90.2812 143.48C91.2836 143.164 91.943 142.346 92.2859 141.344" stroke="#422A19" stroke-miterlimit="10" stroke-linecap="round"/>
<path d="M92.1538 133.511C93.1297 133.959 93.2352 136.148 93.1561 137.045L92.1538 133.511Z" fill="#F8B133"/>
<path d="M92.1538 133.511C93.1297 133.959 93.2352 136.148 93.1561 137.045" stroke="#422A19" stroke-miterlimit="10" stroke-linecap="round"/>
<path d="M101.333 136.122C100.647 135.937 99.9612 135.726 99.2754 135.489L101.333 136.122Z" fill="#F8B133"/>
<path d="M101.333 136.122C100.647 135.937 99.9612 135.726 99.2754 135.489" stroke="#422A19" stroke-miterlimit="10" stroke-linecap="round"/>
<path d="M60.4228 107.345C59.9481 111.855 59.4997 116.365 58.9985 120.876C58.7348 123.144 58.471 125.413 58.1545 127.681C58.1545 127.681 58.1281 127.892 58.1545 127.76C58.1808 127.628 58.1545 127.839 58.1545 127.839C58.1281 127.971 58.1281 128.103 58.1017 128.235C58.049 128.578 57.9962 128.921 57.9698 129.29C57.9171 129.791 57.8907 130.319 57.9171 130.82C57.9962 131.717 58.2336 132.613 58.7611 133.352C60.3437 135.673 63.2715 136.623 65.8828 137.177C68.3885 137.704 70.947 137.889 73.5056 138.205C77.9896 138.785 82.4999 138.733 87.0103 138.706C87.5642 138.706 88.1445 138.706 88.6984 138.706C89.3578 138.706 90.0172 138.126 89.9908 137.414C89.9645 136.728 89.4369 136.121 88.6984 136.121C84.2935 136.121 79.8887 136.253 75.4838 135.831C74.1122 135.699 72.7406 135.515 71.3427 135.383C70.736 135.33 70.103 135.251 69.4963 135.172C69.3381 135.146 69.1798 135.119 69.0479 135.119C69.0216 135.119 69.3381 135.172 69.2062 135.146C69.1798 135.146 69.1271 135.146 69.1007 135.119C69.0216 135.119 68.9161 135.093 68.8369 135.093C68.494 135.04 68.1511 134.987 67.8083 134.935C66.4894 134.697 65.1706 134.407 63.9045 133.959C63.7463 133.906 63.588 133.853 63.4561 133.774C63.4298 133.748 63.377 133.748 63.3506 133.721C63.2187 133.668 63.5089 133.774 63.4825 133.774C63.4034 133.721 63.3243 133.695 63.2451 133.668C62.9814 133.537 62.7176 133.405 62.4538 133.273C62.1901 133.115 61.9527 132.956 61.7153 132.798C61.5307 132.666 61.9263 132.983 61.768 132.851C61.7153 132.798 61.6625 132.772 61.6098 132.719C61.5043 132.64 61.3988 132.534 61.3196 132.429C61.2141 132.323 61.135 132.244 61.0559 132.139C60.924 131.98 61.0559 132.086 61.1086 132.218C61.0823 132.165 61.0295 132.112 60.9767 132.033C60.8976 131.928 60.8449 131.822 60.7921 131.717C60.7657 131.664 60.7394 131.611 60.713 131.558C60.6866 131.532 60.6866 131.479 60.6602 131.453C60.5811 131.347 60.7657 131.769 60.713 131.558C60.6339 131.321 60.5811 131.11 60.5284 130.873C60.502 130.741 60.5284 130.899 60.5284 130.925C60.5284 130.873 60.5284 130.82 60.502 130.741C60.502 130.609 60.4756 130.477 60.4756 130.319C60.4756 129.791 60.5283 129.29 60.6075 128.789C60.5811 129.026 60.6075 128.71 60.6339 128.631C60.6602 128.499 60.6602 128.367 60.6866 128.235C60.7394 127.892 60.7921 127.523 60.8185 127.18C60.8976 126.626 60.9768 126.046 61.0295 125.492C61.1614 124.384 61.2933 123.302 61.4252 122.195C61.9263 117.79 62.3747 113.385 62.8231 108.98C62.8759 108.426 62.9286 107.846 63.0077 107.292C63.0869 106.633 62.3747 105.973 61.7153 106C60.9504 106.105 60.502 106.633 60.4228 107.345Z" fill="#541814"/>
<path d="M87.6956 47.207C88.8298 47.1806 89.5419 48.4467 89.199 49.5017C88.8034 50.7151 87.6692 51.5064 86.6405 52.1921C85.5591 52.9043 79.7826 56.808 78.965 54.6979C78.8595 54.4341 78.9913 54.1968 78.9122 53.9594C78.8331 53.6428 78.5957 53.5373 78.3056 53.3527C77.4879 52.8516 77.0659 52.0339 76.3537 51.4272C75.8525 50.9788 75.3514 50.5568 74.7711 50.2139C74.1117 49.8446 73.1358 49.5809 72.6874 48.9215C72.2653 48.3412 72.6874 47.4708 73.2149 47.0751C73.7688 46.6531 74.7975 46.785 75.4041 47.1279C74.7975 45.9673 74.1908 44.9386 73.3732 43.9099C72.5291 42.8285 71.6587 41.6943 71.263 40.3491C71.1048 39.7688 71.1839 39.0039 71.6587 38.6083C71.8697 38.4236 73.3732 38.0807 73.4787 38.5028C73.2149 37.4213 73.9007 36.7355 75.0349 36.8147C75.2195 36.8411 76.3009 37.2367 76.2746 37.4741C76.3537 36.63 77.0659 35.9443 77.9363 35.8651C78.4374 35.8387 79.2551 36.1289 79.4397 36.6564C79.3079 36.208 79.7826 35.8124 80.0728 35.5486C80.3893 35.2585 80.6003 35.1793 81.0223 35.364C81.84 35.7069 82.5522 36.4718 83.1324 37.1312C83.8974 38.0016 84.6359 38.872 85.2953 39.848C85.8756 40.7448 86.3767 41.5888 86.7988 42.5911C87.168 43.4879 87.6428 44.3056 87.7747 45.2551C87.8802 45.9145 88.0121 46.574 87.6956 47.207Z" fill="#F8B133"/>
<path d="M87.6957 47.4446C88.8562 47.4446 89.3046 48.737 88.8826 49.6866C88.4342 50.7416 87.4319 51.4274 86.5087 52.0341C85.4537 52.7462 84.3722 53.4056 83.2644 54.0123C82.5786 54.3816 81.8665 54.6981 81.1279 54.9355C80.6531 55.0937 80.0201 55.252 79.519 55.041C79.2816 54.9355 79.1497 54.7244 79.1497 54.4607C79.1497 54.1969 79.2024 53.9595 79.0442 53.6958C78.9387 53.4848 78.7277 53.3793 78.543 53.2474C78.0155 52.9309 77.6462 52.5088 77.2506 52.0604C76.8549 51.5857 76.4065 51.1636 75.9318 50.7944C75.4042 50.3723 74.8767 50.0294 74.27 49.7393C73.7689 49.5019 73.0304 49.2645 72.793 48.7106C72.5556 48.1831 72.9776 47.4182 73.4788 47.1808C74.0327 46.917 74.7448 47.0753 75.2724 47.339C75.4834 47.4446 75.6944 47.2335 75.5889 47.0225C75.0877 46.0466 74.5074 45.0707 73.848 44.1739C73.215 43.3035 72.5028 42.4858 71.9753 41.5099C71.7379 41.0615 71.4741 40.5603 71.395 40.0328C71.3423 39.6371 71.395 39.0305 71.7379 38.7667C71.9225 38.6348 72.2391 38.5821 72.4501 38.5293C72.6083 38.5029 72.7666 38.4766 72.9248 38.4766C72.9776 38.4766 73.0567 38.4766 73.1095 38.4766C73.1886 38.4766 73.215 38.5557 73.1886 38.4766C73.2941 38.7403 73.6898 38.6348 73.637 38.3447C73.4787 37.6061 73.8216 36.9995 74.6129 36.9467C74.8767 36.9204 75.0877 36.9731 75.3251 37.0786C75.457 37.1314 75.5889 37.1841 75.7208 37.2632C75.7735 37.2896 75.8526 37.3424 75.9054 37.3688C75.9581 37.3951 75.9845 37.4743 75.9845 37.3951C76.0109 37.6853 76.4065 37.6853 76.4329 37.3951C76.512 36.7357 77.0132 36.2082 77.6726 36.0499C78.1474 35.9444 78.9651 36.1291 79.1497 36.6566C79.2552 36.9204 79.6508 36.8148 79.5981 36.5247C79.519 36.1554 80.0465 35.6807 80.3366 35.5224C80.7323 35.285 81.3126 35.7334 81.6291 35.9708C82.4204 36.5775 83.0534 37.3688 83.6864 38.1337C84.3722 38.9513 85.0053 39.8218 85.5592 40.7449C86.0867 41.6154 86.4823 42.5649 86.9044 43.4881C87.1418 44.0156 87.3528 44.5431 87.4583 45.097C87.5638 45.7301 87.6957 46.4159 87.4319 47.0225C87.3264 47.2863 87.6957 47.5237 87.8275 47.2599C88.0649 46.7324 88.0649 46.1785 87.9858 45.5982C87.9067 44.9652 87.7484 44.3849 87.511 43.7782C87.0362 42.644 86.5351 41.5099 85.9021 40.4548C85.2426 39.3997 84.5041 38.3974 83.6864 37.4479C82.9479 36.6038 82.1566 35.6015 81.1015 35.1268C80.574 34.8894 80.2047 34.9949 79.7827 35.3641C79.3871 35.707 79.0178 36.1027 79.1233 36.6566C79.2816 36.6038 79.4134 36.5775 79.5717 36.5247C79.3079 35.7862 78.3584 35.4696 77.6199 35.6015C76.7231 35.7598 76.09 36.4983 75.9581 37.3951C76.1164 37.3951 76.2483 37.3951 76.4065 37.3951C76.3802 37.0522 75.9318 36.8676 75.668 36.7357C75.2724 36.5775 74.9295 36.472 74.5074 36.4983C73.4524 36.6038 72.9512 37.4743 73.1886 38.4502C73.3469 38.3974 73.4787 38.3711 73.637 38.3183C73.4524 37.8172 72.6875 37.949 72.2918 38.0282C71.6588 38.16 71.2104 38.3711 70.9994 39.0305C70.7092 39.8745 71.0785 40.7713 71.4741 41.5099C71.9489 42.4067 72.582 43.198 73.1886 44.0156C73.9272 44.9915 74.5602 46.0466 75.1405 47.1544C75.246 47.0489 75.3515 46.9434 75.457 46.8379C74.4811 46.3104 73.1886 46.3104 72.5292 47.3127C72.2391 47.7611 72.0808 48.3677 72.3709 48.8689C72.6611 49.3437 73.215 49.6338 73.6898 49.8712C74.3492 50.1877 74.9295 50.5042 75.5097 50.9526C76.0373 51.401 76.512 51.8494 76.9604 52.3769C77.1715 52.6143 77.3825 52.8517 77.6199 53.0627C77.8836 53.2737 78.1738 53.432 78.4375 53.643C78.754 53.9068 78.5694 54.2233 78.6485 54.5662C78.6749 54.7245 78.754 54.8827 78.8859 55.0146C79.2816 55.4894 79.9146 55.4894 80.4685 55.4102C81.2862 55.2784 82.0511 54.9355 82.7896 54.5926C84.1348 53.9332 85.4273 53.1419 86.667 52.2978C87.7484 51.5593 89.0672 50.6625 89.3837 49.2909C89.6475 48.1303 88.8562 46.8906 87.6165 46.8643C87.4055 46.9698 87.4055 47.4446 87.6957 47.4446Z" fill="#422A19"/>
<path d="M73.2676 38.2393C73.8215 38.925 74.2963 40.1384 74.9293 40.956C75.5623 41.8001 76.1162 42.6441 76.6438 43.6201C76.9603 44.174 77.3559 44.6487 77.6461 45.2026C77.7252 45.229 77.6461 45.1763 77.6724 45.1235" fill="#F8B133"/>
<path d="M73.0831 38.3451C73.5051 38.8727 73.7952 39.5057 74.1118 40.086C74.4546 40.719 74.903 41.2729 75.2987 41.8796C75.7471 42.5126 76.1164 43.172 76.4856 43.8314C76.6703 44.1743 76.9077 44.4909 77.1187 44.8074C77.2505 45.0184 77.3824 45.414 77.6462 45.414C77.8308 45.414 77.91 45.2294 77.8308 45.0711C77.8308 45.0975 77.8308 45.0975 77.8308 45.1239C77.8045 44.8337 77.3561 44.8337 77.3824 45.1239C77.3824 45.203 77.4088 45.2558 77.4352 45.3085C77.4879 45.203 77.5671 45.0711 77.6198 44.9656H77.5934C77.6462 44.992 77.7253 45.0448 77.7781 45.0711C77.4352 44.4381 76.9868 43.8578 76.6175 43.2248C76.2746 42.5918 75.879 41.9851 75.457 41.4048C75.0613 40.8773 74.692 40.3498 74.3755 39.7695C74.059 39.2156 73.7689 38.6353 73.3996 38.1077C73.2941 37.8967 72.8984 38.1078 73.0831 38.3451Z" fill="#422A19"/>
<path d="M76.1953 37.2637C77.1185 39.0836 78.1999 40.9564 79.3605 42.6708C79.6243 43.0665 79.9408 43.5149 80.2045 43.9633C80.1782 43.8842 80.1782 43.805 80.1782 43.6995" fill="#F8B133"/>
<path d="M75.9845 37.369C76.5648 38.5296 77.1978 39.6901 77.8836 40.7979C78.543 41.9058 79.3607 42.9344 79.9937 44.0686C80.1256 44.306 80.4421 44.1478 80.4157 43.884C80.3893 43.8312 80.3893 43.7521 80.3893 43.6994C80.363 43.4092 79.9146 43.4092 79.9409 43.6994C79.9409 43.8049 79.9673 43.9104 79.9937 44.0159C80.1256 43.9631 80.2575 43.9104 80.4157 43.8312C79.7827 42.697 78.9914 41.6684 78.3056 40.5606C77.6198 39.4527 76.9868 38.2922 76.4065 37.1316C76.2482 36.8942 75.8526 37.1052 75.9845 37.369Z" fill="#422A19"/>
<path d="M79.2554 36.3667C79.8884 37.0525 80.0994 38.2394 80.6533 39.0307C81.2072 39.8484 81.5501 40.7716 82.0513 41.6156C82.315 42.0376 82.5524 42.4333 82.7898 42.8553" fill="#F8B133"/>
<path d="M79.0971 36.5249C79.4664 36.947 79.6774 37.4745 79.8884 38.002C80.0994 38.5296 80.3632 38.978 80.6534 39.4527C80.9962 40.0066 81.26 40.5869 81.5501 41.1672C81.8667 41.8002 82.2623 42.3805 82.6052 42.9608C82.7635 43.1982 83.1591 42.9872 83.0009 42.7234C82.6316 42.1168 82.2623 41.5365 81.9458 40.9298C81.6293 40.3232 81.3655 39.6901 80.9962 39.1098C80.6797 38.6087 80.4423 38.1339 80.2313 37.58C80.0203 37.0788 79.8093 36.6041 79.44 36.1821C79.229 35.971 78.9125 36.2876 79.0971 36.5249Z" fill="#422A19"/>
<path d="M75.4043 47.0492C75.8527 46.97 76.4594 47.4712 76.855 47.6822C77.1188 47.8141 77.3298 47.9987 77.5935 47.9723C77.8573 47.946 78.2002 47.7086 78.464 47.6294C79.8092 47.181 81.1807 46.9173 82.6314 47.2074C83.0271 47.2865 84.9789 47.7349 84.9526 48.157" fill="#F8B133"/>
<path d="M75.4044 47.2862C76.2748 47.1807 76.8287 48.3941 77.7255 48.2094C77.9365 48.1567 78.1212 48.0512 78.3058 47.972C78.5432 47.8665 78.8069 47.7874 79.0707 47.7083C79.5982 47.55 80.1521 47.4445 80.7061 47.3917C81.5501 47.3126 82.3678 47.3917 83.1591 47.6028C83.4756 47.6819 83.8185 47.7874 84.1086 47.8929C84.2405 47.9457 84.3724 47.9984 84.5043 48.0775C84.5306 48.1039 84.5834 48.1303 84.6098 48.1567C84.6361 48.183 84.6625 48.2358 84.6625 48.183C84.6625 48.4732 85.1373 48.4732 85.1109 48.183C85.0845 47.6291 84.135 47.4181 83.7393 47.3126C82.9744 47.0752 82.2095 46.917 81.3918 46.917C80.284 46.917 79.018 47.128 78.0157 47.6028C77.8838 47.6555 77.7519 47.7346 77.62 47.7874C77.4354 47.8401 77.2771 47.761 77.1189 47.6819C76.9342 47.5764 76.7496 47.4709 76.5649 47.339C76.1957 47.1016 75.8 46.8378 75.3516 46.8906C75.1142 46.8642 75.1142 47.3126 75.4044 47.2862Z" fill="#422A19"/>
<path d="M87.9068 46.5215C88.0123 47.5238 87.1946 48.8954 86.4561 49.4229L87.9068 46.5215Z" fill="#F8B133"/>
<path d="M87.6694 46.5216C87.7222 47.0491 87.5376 47.5766 87.3002 48.025C87.0628 48.4734 86.7463 48.9218 86.3506 49.2383C86.2451 49.3175 86.1924 49.423 86.2715 49.5549C86.3243 49.6604 86.4825 49.7131 86.588 49.634C87.0628 49.2911 87.4321 48.7899 87.7222 48.2624C88.0123 47.7349 88.2234 47.1282 88.1706 46.5216C88.1706 46.3897 88.0651 46.2842 87.9332 46.2842C87.8013 46.2842 87.6694 46.3897 87.6694 46.5216Z" fill="#422A19"/>
<path d="M78.3325 53.2739C78.9392 53.7486 80.3107 53.0892 80.9174 52.8255C81.867 52.4298 82.7638 51.9287 83.6606 51.4275C84.0826 51.1901 84.4782 50.8736 84.9266 50.6626C84.8475 50.689 84.8475 50.7417 84.8211 50.7945" fill="#F8B133"/>
<path d="M78.2269 53.4848C79.0182 54.0387 80.2843 53.3793 81.0492 53.0364C81.7614 52.7463 82.4208 52.4034 83.0802 52.0341C83.4231 51.8495 83.7396 51.6912 84.0825 51.4802C84.399 51.2692 84.7155 51.0582 85.0584 50.8999C84.9793 50.768 84.9002 50.6361 84.821 50.5043C84.7155 50.557 84.6892 50.6361 84.61 50.7153C84.4518 50.9527 84.8474 51.19 85.0057 50.9527C85.0057 50.8999 85.0321 50.8735 85.0321 50.8999C85.2694 50.7416 85.0584 50.3724 84.7947 50.5043C84.2144 50.7944 83.6869 51.19 83.1066 51.5066C82.4735 51.8495 81.8405 52.1923 81.1811 52.4825C80.7327 52.6935 80.2579 52.8781 79.8095 53.0364C79.3875 53.1683 78.8336 53.3529 78.4379 53.0891C78.2269 52.9309 77.9895 53.3265 78.2269 53.4848Z" fill="#422A19"/>
<path d="M77.1187 46.5221C77.7781 45.8627 78.8331 45.5462 79.6772 45.256C80.7322 44.8604 81.8664 44.623 82.9742 44.3856C83.449 44.2801 84.1084 44.2274 84.3986 44.0164" fill="#F8B133"/>
<path d="M77.2767 46.6798C77.7251 46.2314 78.3318 45.9676 78.9121 45.7566C79.5187 45.5192 80.1518 45.3082 80.7848 45.1236C81.4706 44.9389 82.1564 44.7807 82.8685 44.6224C83.4224 44.5169 84.0555 44.5169 84.5303 44.2004C84.7676 44.0421 84.5566 43.6465 84.2929 43.8047C84.0555 43.963 83.7653 44.0157 83.5016 44.0421C83.1587 44.0949 82.8422 44.1476 82.4993 44.2268C81.7607 44.385 81.0222 44.5433 80.31 44.7807C79.1758 45.1236 77.8306 45.4928 76.9602 46.3369C76.7492 46.5479 77.0657 46.8908 77.2767 46.6798Z" fill="#422A19"/>
<defs>
<linearGradient id="paint0_linear_2001_1243" x1="247.873" y1="40.8917" x2="255.447" y2="36.014" gradientUnits="userSpaceOnUse">
<stop offset="0.2851" stop-color="#9E9E9E"/>
<stop offset="0.3819" stop-color="#AAAAAA"/>
<stop offset="0.5559" stop-color="#CAC9C9"/>
<stop offset="0.6938" stop-color="#E7E6E6"/>
<stop offset="0.7624" stop-color="#F0EFF0"/>
<stop offset="0.8856" stop-color="#FBFBFB"/>
<stop offset="1" stop-color="#FEFEFE"/>
</linearGradient>
<linearGradient id="paint1_linear_2001_1243" x1="127.477" y1="66.2821" x2="131.135" y2="77.2499" gradientUnits="userSpaceOnUse">
<stop offset="0.0180995" stop-color="#FAF29E"/>
<stop offset="0.9762" stop-color="#FFDD66"/>
</linearGradient>
<linearGradient id="paint2_linear_2001_1243" x1="106.342" y1="78.1182" x2="109.468" y2="87.4939" gradientUnits="userSpaceOnUse">
<stop stop-color="#793210"/>
<stop offset="0.4246" stop-color="#A1533C"/>
<stop offset="1" stop-color="#971914"/>
</linearGradient>
<linearGradient id="paint3_linear_2001_1243" x1="114.629" y1="102.623" x2="111.523" y2="96.808" gradientUnits="userSpaceOnUse">
<stop stop-color="#793210"/>
<stop offset="0.4246" stop-color="#A1533C"/>
<stop offset="1" stop-color="#971914"/>
</linearGradient>
<linearGradient id="paint4_linear_2001_1243" x1="137.349" y1="87.7832" x2="132.094" y2="77.9418" gradientUnits="userSpaceOnUse">
<stop offset="0.0180995" stop-color="#FAF29E"/>
<stop offset="0.9762" stop-color="#FFDD66"/>
</linearGradient>
</defs>
</svg>
