<svg width="113" height="180" viewBox="0 0 113 180" fill="none" xmlns="http://www.w3.org/2000/svg">
<path d="M20.3652 100.864C20.3652 100.864 23.5432 149.545 28.407 159.796C28.407 159.796 38.3002 153.382 45.1813 155.175C52.0623 156.967 65.0231 162.345 73.728 157.864C82.433 153.382 100.036 150.077 105.149 152.57C105.149 152.57 111.588 89.632 103.656 68.0925L20.3652 100.864Z" fill="#80172C"/>
<path d="M35.5361 107.166C35.5361 107.166 50.2101 135.876 52.3933 137.332L56.3727 158.312H58.5006L57.6992 136.408L76.3803 132.319L89.1752 138.089L73.6168 145.931C73.6168 145.931 75.3025 153.298 70.9086 155.679C70.9086 155.679 69.8309 156.743 70.6875 157.835C71.5442 158.928 75.0815 157.247 75.9105 156.687C76.7119 156.127 77.1541 145.371 77.1541 145.371L94.8956 138.761L83.0403 128.145L40.7038 104.057L23.6531 98.3428V102.096C22.8241 105.177 35.5361 107.166 35.5361 107.166Z" fill="#5E001E"/>
<path d="M97.6317 89.1559C97.6317 89.1559 99.5661 101.256 96.8302 105.766C95.0616 108.707 88.8991 120.555 88.7056 129.462L86.4396 130.33C86.4396 130.33 83.9248 120.667 91.6073 108.763C99.2897 96.8305 93.9286 85.5986 93.9286 85.5986L97.6317 89.1559Z" fill="#5E001E"/>
<path d="M20.3916 101.564C20.3916 101.564 22.7958 147.864 28.4057 159.796C28.4057 159.796 31.1415 162.289 39.6531 160.048C39.6531 160.048 23.8736 124.14 23.542 99.0432L20.3916 101.564Z" fill="#F2244E"/>
<path d="M40.3729 155.007L32.1377 109.015L44.7668 155.007H40.3729Z" fill="#A52339"/>
<path d="M107.603 110.399C107.603 110.399 108.25 146.942 105.58 159.141C105.58 159.141 102.656 159.673 98.8057 160.12C98.8057 160.12 106.367 112.329 105.552 102.62L107.603 110.399Z" fill="#F2244E"/>
<path d="M104.089 122.822C104.089 122.822 99.7608 153.825 98.8613 160.121L105.635 159.141L100.154 158.693L104.089 122.822Z" fill="#FF6E8B"/>
<path d="M111.981 83.6011C111.981 83.6011 106.131 68.6714 92.9559 63.9597C92.9559 63.9597 89.1399 84.0552 94.2094 90.0725C97.0505 93.4501 105.769 86.2975 111.981 83.6011Z" fill="#853711"/>
<path d="M92.9561 63.9593C92.9561 63.9593 104.794 62.8807 111.981 83.6006C111.981 83.6006 103.764 65.861 93.4853 65.5772L92.9561 63.9593Z" fill="#732E16"/>
<path d="M107.413 79.8541C107.413 79.8541 106.187 81.3016 104.405 80.1379C102.622 78.9742 103.625 77.186 103.625 77.186C103.625 77.186 103.903 79.258 104.85 79.7689C106.271 80.5353 107.413 79.8541 107.413 79.8541Z" fill="#702C0A"/>
<path d="M104.516 83.7708C104.516 83.7708 103.29 85.2184 101.507 84.0547C99.7246 82.8909 100.727 81.1028 100.727 81.1028C100.727 81.1028 101.006 83.1748 101.953 83.6857C103.374 84.452 104.516 83.7708 104.516 83.7708Z" fill="#702C0A"/>
<path d="M99.2519 75.682C99.2519 75.682 98.0263 77.1295 96.2436 75.9658C94.4609 74.8021 95.4637 73.0139 95.4637 73.0139C95.4637 73.0139 95.7422 75.0859 96.6893 75.5968C98.1098 76.3632 99.2519 75.682 99.2519 75.682Z" fill="#702C0A"/>
<path d="M99.9198 79.8541C99.9198 79.8541 98.6942 81.3016 96.9116 80.1379C95.1289 78.9742 96.1316 77.186 96.1316 77.186C96.1316 77.186 96.4102 79.258 97.3572 79.7689C98.7778 80.5353 99.9198 79.8541 99.9198 79.8541Z" fill="#702C0A"/>
<path d="M100.7 85.3604C100.7 85.3604 99.4745 86.808 97.6918 85.6443C95.9091 84.4805 96.9119 82.6924 96.9119 82.6924C96.9119 82.6924 97.1905 84.7644 98.1375 85.2753C99.5581 86.0416 100.7 85.3604 100.7 85.3604Z" fill="#702C0A"/>
<path d="M102.176 88.7381C102.176 88.7381 100.95 90.1857 99.1674 89.0219C97.3847 87.8582 98.3875 86.0701 98.3875 86.0701C98.3875 86.0701 98.666 88.1421 99.6131 88.653C101.034 89.4193 102.176 88.7381 102.176 88.7381Z" fill="#702C0A"/>
<path d="M103.374 76.9874C103.374 76.9874 101.814 78.066 100.394 76.4482C98.9732 74.8303 100.422 73.4111 100.422 73.4111C100.422 73.4111 100.143 75.4831 100.923 76.2211C102.093 77.328 103.374 76.9874 103.374 76.9874Z" fill="#702C0A"/>
<path d="M103.958 80.5638C103.958 80.5638 102.538 81.8126 100.922 80.3935C99.3346 78.9743 100.588 77.3564 100.588 77.3564C100.588 77.3564 100.56 79.4568 101.424 80.0813C102.733 81.0747 103.958 80.5638 103.958 80.5638Z" fill="#702C0A"/>
<path d="M108.109 82.6072C108.109 82.6072 106.967 84.1116 105.101 83.0614C103.263 81.9828 104.182 80.1663 104.182 80.1663C104.182 80.1663 104.572 82.2383 105.519 82.6924C106.995 83.3452 108.109 82.6072 108.109 82.6072Z" fill="#702C0A"/>
<path d="M53.0716 131.295L70.7314 152.844C70.7314 152.844 78.9837 142.518 81.2393 131.295C81.2393 131.295 77.7459 125.627 76.6181 125.402C75.4903 125.178 55.3272 127.451 53.9794 126.076C52.6315 124.729 53.0716 131.295 53.0716 131.295Z" fill="#5E001E"/>
<path d="M64.3215 132.193C64.3215 132.193 68.6952 142.013 70.1531 151.301C70.1531 151.301 57.3621 134.718 53.9512 130.285L54.3913 127.928C54.3913 127.9 64.0189 131.547 64.3215 132.193Z" fill="#B04717"/>
<path d="M64.8711 130.846C64.8711 130.846 70.5376 145.38 70.6202 151.301C70.6202 151.301 73.9761 137.187 72.9308 129.415L64.8711 130.846Z" fill="#B04717"/>
<path d="M73.6736 128.713C73.6736 128.713 73.9762 143.388 70.9229 151.104C70.9229 151.104 76.9745 144.342 81.0731 130.004C81.0731 130.004 78.2123 126.946 76.782 127.114C75.3241 127.282 73.6736 128.713 73.6736 128.713Z" fill="#D8762E"/>
<path d="M68.7227 131.014C68.7227 131.014 71.1708 136.654 70.7307 147.905C70.7307 147.905 71.886 136.906 69.3828 130.593L68.7227 131.014Z" fill="#5E001E"/>
<path d="M64.8731 133.146C64.8731 133.146 63.2777 137.832 63.4702 140.358C63.4702 140.358 64.1304 136.738 65.3132 133.82L64.8731 133.146Z" fill="#5E001E"/>
<path d="M56.8408 134.016L58.3537 133.427L57.611 135.868L56.8408 134.016Z" fill="#5E001E"/>
<path d="M66.4683 137.664L66.2207 144.314L67.1285 139.039L66.4683 137.664Z" fill="#5E001E"/>
<path d="M65.3125 132.669C65.3125 132.669 68.6684 135.812 69.5762 137.664C69.5762 137.664 67.6231 135.363 66.2202 134.83L65.3125 132.669Z" fill="#5E001E"/>
<path d="M67.4307 139.123C67.4307 139.123 69.5487 140.582 70.1539 143.388C70.1539 143.388 69.4662 141.227 67.6507 140.358L67.4307 139.123Z" fill="#5E001E"/>
<path d="M73.1244 130.93C73.1244 130.93 71.639 134.129 71.4189 134.83L73.3445 131.659L73.1244 130.93Z" fill="#5E001E"/>
<path d="M73.1252 136.738L71.4473 139.881L73.1252 137.664V136.738Z" fill="#5E001E"/>
<path d="M73.3447 132.866C73.3447 132.866 76.7282 136.457 77.0582 138.309C77.0582 138.309 75.4078 135.616 73.3447 134.101V132.866Z" fill="#5E001E"/>
<path d="M73.1252 139.6C73.1252 139.6 74.2255 142.63 74.5281 144.707C74.5281 144.707 74.0604 142.939 72.7676 140.358L73.1252 139.6Z" fill="#5E001E"/>
<path d="M73.3447 130.032C73.3447 130.032 77.7459 130.481 79.6164 132.67C79.6164 132.67 76.9757 131.014 73.3447 130.621V130.032Z" fill="#5E001E"/>
<path d="M54.3921 128.797C54.3921 128.797 60.9664 131.603 68.2834 130.649C75.6004 129.695 77.0583 128.18 77.0583 128.18L77.691 128.769C77.691 128.769 73.1247 133.399 62.6994 131.603C54.7222 130.228 53.9795 129.723 53.9795 129.723L54.3921 128.797Z" fill="#5E001E"/>
<path d="M86.1093 129.022C86.1093 129.022 95.3793 136.766 96.0945 139.684L76.9493 145.745L76.4541 143.949L90.2079 138.674C90.2079 138.674 81.8456 133.175 75.7939 130.257L86.1093 129.022Z" fill="#FF7E03"/>
<path d="M76.4261 143.949C76.4261 143.949 70.9246 139.796 69.9343 141.143C68.9441 142.49 74.7757 144.174 75.1058 146.418C75.4359 148.663 73.7854 153.826 71.0346 155.958C71.0346 155.958 69.8243 157.081 71.0346 158.091C71.5023 158.484 73.4553 157.866 74.2255 155.397C74.2255 155.397 73.1252 159.774 72.0249 161.233C72.0249 161.233 72.245 162.58 73.1252 162.58C74.0055 162.58 76.5362 159.213 76.4261 156.071C76.4261 156.071 77.0313 159.241 76.4261 161.346C76.151 162.328 77.7465 162.917 78.0766 161.682C78.4067 160.448 79.8646 153.152 76.9213 145.745L76.4261 143.949Z" fill="#FF7E03"/>
<path d="M81.2671 133.203L90.1795 138.674L76.4258 143.949L91.2523 138.843L82.2024 132.95L81.2671 133.203Z" fill="#EB4403"/>
<path d="M89.4367 131.968L87.7588 134.83L89.9319 132.417L89.4367 131.968Z" fill="#EB4403"/>
<path d="M92.7383 135.167L91.2529 137.215L93.1509 135.588L92.7383 135.167Z" fill="#EB4403"/>
<path d="M93.4245 140.526L91.6641 139.6L92.5443 140.807L93.4245 140.526Z" fill="#EB4403"/>
<path d="M84.87 143.22L83.2471 142.153L84.0723 143.388L84.87 143.22Z" fill="#EB4403"/>
<path d="M76.4258 156.07C76.4258 156.07 76.5202 154.022 76.5202 152.395C76.5202 152.395 76.6619 156.912 76.5911 157.894L76.4258 156.07Z" fill="#EB4403"/>
<path d="M74.1977 155.538C74.1977 155.538 75.1329 152.816 75.3805 151.553C75.3805 151.553 73.9776 159.494 72.0521 161.233C72.0246 161.233 73.7575 158.371 74.1977 155.538Z" fill="#EB4403"/>
<path d="M78.7361 154.975C78.7361 154.975 77.7458 154.787 77.3057 155.323C77.3057 155.323 78.1034 155.108 78.7361 155.323V154.975Z" fill="#EB4403"/>
<path d="M78.7085 157.108C78.7085 157.108 77.9658 156.915 77.3057 157.329C77.3057 157.329 78.3234 157.191 78.681 157.467L78.7085 157.108Z" fill="#EB4403"/>
<path d="M78.5435 159.157C78.5435 159.157 77.7733 158.877 77.3057 159.157C77.3057 159.157 78.2134 159.129 78.4885 159.466L78.5435 159.157Z" fill="#EB4403"/>
<path d="M75.9865 158.54C75.9865 158.54 75.4089 157.866 74.4736 157.894C74.4736 157.894 75.5739 158.568 75.849 159.017L75.9865 158.54Z" fill="#EB4403"/>
<path d="M74.9675 160.812C74.9675 160.812 74.3073 160.279 73.5371 160.279C73.5371 160.279 74.3623 160.672 74.6924 161.233L74.9675 160.812Z" fill="#EB4403"/>
<path d="M76.4535 155.593C76.4535 155.593 75.9309 155.06 75.2432 155.173C75.2432 155.173 76.2059 155.537 76.426 156.098L76.4535 155.593Z" fill="#EB4403"/>
<path d="M72.7671 157.642C72.7671 157.642 72.6571 156.464 72.0244 156.043C72.0244 156.043 72.7121 156.183 72.9597 157.446L72.7671 157.642Z" fill="#EB4403"/>
<path d="M74.2263 155.453C74.2263 155.453 74.0887 154.696 73.126 154.359C73.126 154.359 73.8687 154.106 74.3363 155.116L74.2263 155.453Z" fill="#EB4403"/>
<path d="M74.638 154.331C74.638 154.331 74.4455 153.349 73.9229 153.181C73.9229 153.181 74.5005 153.237 74.7206 154.079L74.638 154.331Z" fill="#EB4403"/>
<path d="M50.6787 130.93C50.6787 130.93 52.6593 137.271 53.7596 140.442C54.8599 143.613 56.5103 157.867 56.4003 160.785H58.931V131.716L50.6787 130.93Z" fill="#FF7E03"/>
<path d="M56.3993 160.784C56.3993 160.784 51.5579 170.886 51.4479 173.355C51.3379 175.824 52.6582 175.487 52.9883 174.814C53.3184 174.14 54.8038 170.549 54.8038 170.549C54.8038 170.549 53.2084 179.752 55.7391 179.864C58.2698 179.977 57.9397 172.457 57.6096 170.324C57.6096 170.324 59.5076 177.507 60.6904 176.609C62.781 175.038 59.7002 166.508 58.9299 160.335L56.3993 160.784Z" fill="#FF7E03"/>
<path d="M58.9305 139.123L55.5195 139.6L58.9305 140.105V139.123Z" fill="#EB4403"/>
<path d="M58.9306 144.707L56.1523 144.735L58.9306 145.492V144.707Z" fill="#EB4403"/>
<path d="M58.9303 150.684L56.207 150.74L58.9303 151.469V150.684Z" fill="#EB4403"/>
<path d="M58.9303 157.67L56.8672 158.456H58.9303V157.67Z" fill="#EB4403"/>
<path d="M51.8066 171.671C51.8066 171.671 52.962 171.699 53.4296 172.205C53.4296 172.205 52.7419 171.082 51.9717 171.166L51.8066 171.671Z" fill="#EB4403"/>
<path d="M52.6035 169.455C52.6035 169.455 53.7588 169.679 54.2265 170.184C54.2265 170.184 53.4838 169.062 52.686 169.146L52.6035 169.455Z" fill="#EB4403"/>
<path d="M53.3184 167.659C53.3184 167.659 54.5287 167.827 54.9688 168.361C54.9688 168.361 54.2261 167.238 53.4284 167.322L53.3184 167.659Z" fill="#EB4403"/>
<path d="M54.5295 172.37C54.5295 172.37 56.2624 172.183 56.7851 172.477C56.7851 172.477 55.0246 172.45 54.502 172.692L54.5295 172.37Z" fill="#EB4403"/>
<path d="M54.3644 174.561C54.3644 174.561 56.2349 174.113 57.1977 174.898C57.1977 174.898 55.1346 174.505 54.3369 174.898L54.3644 174.561Z" fill="#EB4403"/>
<path d="M54.3369 176.806C54.3369 176.806 56.1249 176.385 57.0877 177.17C57.0877 177.17 55.1621 176.75 54.3644 177.114L54.3369 176.806Z" fill="#EB4403"/>
<path d="M60.14 166.733C60.14 166.733 58.5721 167.126 58.1045 168.248C58.1045 168.248 59.2048 167.322 60.2226 167.098L60.14 166.733Z" fill="#EB4403"/>
<path d="M58.6836 170.689C58.6836 170.689 59.5638 170.128 60.8017 169.792L60.8567 170.1C60.8567 170.1 58.9862 170.521 58.6836 170.689Z" fill="#EB4403"/>
<path d="M61.241 172.317C61.241 172.317 59.563 172.597 59.1504 172.99C59.1504 172.99 60.2782 172.625 61.2685 172.709L61.241 172.317Z" fill="#EB4403"/>
<path d="M58.3809 98.1854V90.0483C58.3809 90.0483 62.2044 94.7061 63.7998 94.9586C63.7998 94.9586 61.8468 98.4659 58.3809 98.1854Z" fill="#F19A52"/>
<path d="M84.4023 79.4144V70.5759C84.4023 70.5759 87.9508 76.0193 89.4637 76.2999C89.4637 76.2999 88.2534 80.2842 84.4023 79.4144Z" fill="#F19A52"/>
<path d="M76.6162 98.0455V89.207C76.6162 89.207 81.0724 94.6504 82.9704 94.931C82.9704 94.931 80.6598 98.3542 76.6162 98.0455Z" fill="#FCA55D"/>
<path d="M68.4746 90.2731V81.4346C68.4746 81.4346 72.9308 86.878 74.8288 87.1585C74.8288 87.1866 72.5457 90.6098 68.4746 90.2731Z" fill="#F19A52"/>
<path d="M52.0254 90.0487V81.2102C52.0254 81.2102 56.4816 86.6536 58.3796 86.9342C58.3796 86.9342 56.069 90.3573 52.0254 90.0487Z" fill="#FCA55D"/>
<path d="M66.8242 105.032V96.1936C66.8242 96.1936 71.2804 101.637 73.1785 101.918C73.1785 101.946 70.8953 105.369 66.8242 105.032Z" fill="#F19A52"/>
<path d="M50.7051 109.577V100.823C50.7051 100.823 55.1613 106.266 57.0593 106.547C57.0593 106.547 54.7762 109.886 50.7051 109.577Z" fill="#F19A52"/>
<path d="M41.0225 100.739V91.9849C41.0225 91.9849 45.4787 97.4282 47.3767 97.7088C47.3767 97.7088 45.6162 102.03 41.0225 100.739Z" fill="#F19A52"/>
<path d="M59.2324 114.852V106.098C59.2324 106.098 63.6886 111.542 65.5867 111.822C65.5867 111.822 63.276 115.161 59.2324 114.852Z" fill="#F19A52"/>
<path d="M74.4717 115.638V106.884C74.4717 106.884 78.9279 112.327 80.8259 112.608C80.8259 112.608 78.5153 115.947 74.4717 115.638Z" fill="#FCA55D"/>
<path d="M65.3115 122.597L65.339 114.375C65.339 114.375 68.86 119.286 70.758 119.566C70.7305 119.566 68.8875 122.737 65.3115 122.597Z" fill="#F19A52"/>
<path d="M80.7715 108.315L80.799 100.094C80.799 100.094 84.32 105.004 86.218 105.285C86.218 105.257 84.5125 108.624 80.7715 108.315Z" fill="#F19A52"/>
<path d="M94.9103 64.5994C94.9653 64.2347 94.9653 63.898 95.1304 63.5612C95.433 62.972 95.6805 62.4108 95.9281 61.8216C96.0106 61.5971 95.433 61.6533 95.5155 61.4849C93.92 60.082 93.6175 58.4546 93.1498 57.6409C93.1498 57.6409 91.2518 61.7655 89.0512 64.5152C87.7033 66.1988 83.9348 72.5961 63.6343 77.31C51.2284 80.2 36.6769 76.9733 35.3565 76.0474C35.6041 76.8049 35.8517 79.4144 35.7141 79.3583C32.5508 77.8151 30.4602 76.4402 28.7822 74.8689C28.012 76.7208 26.7467 79.218 24.3535 80.2C28.067 88.4493 30.5977 97.9612 35.3015 106.21C35.3015 106.21 36.6769 106.407 35.3015 106.21C36.952 109.577 45.5068 124.364 46.4696 125.88C47.4323 127.395 50.8158 133.427 51.806 135.504C52.4112 136.822 58.9305 135.868 58.9305 135.868C60.3334 135.167 60.6359 130.032 60.6359 130.032C68.0355 132.67 73.647 130.201 74.3072 129.499C74.3072 129.499 79.4511 133.68 81.6242 133.147C83.7973 132.614 87.1257 129.892 87.1257 129.892C83.7698 126.076 88.7761 118.64 92.3521 106.098C93.9475 100.543 94.3051 96.1935 94.3602 94.4258C94.3051 94.3977 98.0737 69.7622 94.8828 64.7958C94.8003 64.7117 94.8553 64.6275 94.9103 64.5994Z" fill="#4E87C3"/>
<path d="M28.8094 75.0652C28.8094 75.0652 26.2237 82.0799 20.4746 80.5927C20.4746 80.5927 21.795 83.9878 25.0409 83.3425C25.0409 83.3425 24.4082 87.6635 27.269 88.9823C27.269 88.9823 28.3693 105.34 35.3012 106.21C35.3012 106.21 32.0553 97.5963 31.9177 90.8342C31.9177 90.8342 27.7091 80.1157 28.8094 75.0652Z" fill="#87381D"/>
<path d="M60.6908 130.088C60.6908 130.088 60.3057 135.083 58.9854 135.925V138.366C58.9854 138.366 59.618 137.159 60.3607 136.037C61.1034 134.914 61.6811 130.425 61.6811 130.425L60.6908 130.088Z" fill="#5E001E"/>
<path d="M74.3615 129.555C74.3615 129.555 79.0103 133.259 81.3209 133.231V133.315L80.7983 134.213C80.7983 134.213 76.0945 132.277 74.1689 130.425L74.3615 129.555Z" fill="#5E001E"/>
<path d="M28.8642 80.7891C28.8642 80.7891 34.8608 88.3088 35.4385 106.491L31.7249 105.593C33.733 101.188 31.3398 87.1864 27.2412 80.7891H28.8642V80.7891Z" fill="#11286B"/>
<path d="M94.6621 95.3518C94.6621 95.3518 93.0942 79.4145 96.5051 65.9463L95.3773 65.6377L93.4242 67.9385C93.4242 67.9385 90.0683 89.207 94.1394 96.9231L94.6621 95.3518Z" fill="#11286B"/>
<path d="M78.6265 90.0209C79.7268 97.9615 73.3451 106.267 65.4504 106.632C58.9036 106.912 52.1368 102.058 51.0365 94.1174C49.9362 86.1768 56.758 80.537 63.2498 79.555C69.7141 78.5729 77.5262 82.0803 78.6265 90.0209Z" fill="#0B1A45"/>
<path d="M79.4508 89.8803C80.5511 97.8209 74.1693 106.126 66.2746 106.491C59.7279 106.772 52.961 101.917 51.8607 93.9769C50.7604 86.0363 57.5823 80.3965 64.074 79.4144C70.5383 78.4604 78.3504 81.9397 79.4508 89.8803Z" fill="#FAEB00"/>
<path d="M63.1399 93.9767C63.1949 94.8746 62.5072 95.6322 61.6545 95.6883C60.8018 95.7444 60.0591 95.0429 60.0041 94.145C59.949 93.2472 60.6367 92.4896 61.4895 92.4335C62.3697 92.4054 63.1124 93.0788 63.1399 93.9767Z" fill="#11286B"/>
<path d="M71.1995 93.5558C71.2545 94.4537 70.5668 95.2113 69.7141 95.2674C68.8614 95.3235 68.1186 94.622 68.0636 93.7241C68.0086 92.8263 68.6963 92.0687 69.549 92.0126C70.4293 91.9845 71.1445 92.6579 71.1995 93.5558Z" fill="#11286B"/>
<path fill-rule="evenodd" clip-rule="evenodd" d="M75.7112 89.1507L73.2906 89.2348L73.153 86.5131L73.1255 85.6153L72.3278 85.3347L72.2728 85.3066L72.2468 85.2979C70.6611 84.768 69.1698 84.2697 65.1208 84.4929C60.4996 84.7454 57.9964 86.0642 57.9138 86.1203L57.1711 86.5131L57.1986 87.3268L57.3362 90.0485L54.998 90.2169L57.3637 93.5278C57.3637 93.5839 57.3637 93.64 57.3912 93.6681C57.4462 94.6782 57.8038 98.2136 60.307 100.851C62.1775 102.815 65.4784 103.994 65.616 104.022L66.0836 104.19L66.5237 103.994C66.6303 103.957 66.7369 103.898 66.8582 103.83L66.8583 103.83L66.8584 103.83L66.8585 103.83L66.8587 103.83C66.9252 103.792 66.9961 103.753 67.0739 103.713C67.1375 103.678 67.2084 103.639 67.2857 103.596C67.5756 103.436 67.954 103.227 68.3667 102.984C69.7421 102.114 70.8149 101.216 71.5301 100.29C73.7857 97.3999 73.8132 93.8645 73.7582 92.8263C73.7582 92.8123 73.7513 92.7913 73.7444 92.7702C73.7375 92.7492 73.7307 92.7281 73.7307 92.7141L75.7112 89.1507ZM72.3825 86.5412L72.52 89.4031L71.1722 89.4593C71.1722 89.4593 71.1951 89.2021 71.1991 89.1786L69.4942 88.9261C69.4805 88.9261 69.4805 88.9823 69.4805 89.0384C69.4805 89.0945 69.4805 89.1506 69.4667 89.1506C69.3605 89.1506 69.2992 89.1767 69.2209 89.2101C69.1369 89.2458 69.0334 89.2899 68.834 89.319L68.669 85.7275C69.607 85.8362 70.5615 86.0797 71.5325 86.3275C71.8145 86.3994 72.0978 86.4717 72.3825 86.5412ZM65.3888 85.7765L65.2034 85.7836C64.5292 85.8081 63.897 85.8757 63.2148 85.9486L63.2148 85.9486L62.9203 85.98L63.1128 90.2449C64.3782 90.778 65.2584 91.7601 65.561 92.9947C65.7536 91.7881 66.4138 90.75 67.6241 90.0766L67.4315 85.7275C66.6756 85.7275 66.0581 85.751 65.3888 85.7765ZM61.7101 86.2325L61.8751 89.8237C61.8726 89.7966 61.4625 89.9082 61.4625 89.9082L61.49 90.1607C61.4762 90.1607 61.4625 90.1186 61.4487 90.0765L61.4487 90.0765C61.435 90.0344 61.4212 89.9923 61.4075 89.9923C61.3662 89.9923 61.3318 89.9713 61.2974 89.9502C61.2631 89.9292 61.2287 89.9082 61.1874 89.9082L59.647 90.0485L59.6745 90.0765L58.6017 90.1326L58.4642 87.2706C58.4642 87.2706 59.6745 86.6534 61.7101 86.2325ZM61.4349 91.0866C59.867 91.1427 58.6292 92.5457 58.7117 94.2011C58.7942 95.8566 60.1421 97.1192 61.71 97.0351C63.2779 96.9509 64.5158 95.576 64.4332 93.9206C64.3507 92.2651 63.0304 91.0025 61.4349 91.0866ZM66.0009 101.16C61.7648 101.384 60.1143 98.6343 59.7567 97.9048C60.3619 98.2135 61.0496 98.3818 61.7923 98.3537C62.9751 98.2976 64.0204 97.7084 64.7356 96.8386L65.8634 97.7926L66.8812 96.8386C67.6514 97.5681 68.6967 97.989 69.8245 97.9329C70.5397 97.9048 71.1999 97.6523 71.7775 97.2875C71.5024 98.0451 70.1821 100.935 66.0009 101.16ZM66.7707 93.7801C66.8533 95.4356 68.1736 96.6982 69.7691 96.614C71.3645 96.5579 72.5748 95.155 72.4923 93.4995C72.4098 91.8441 71.0894 90.5814 69.494 90.6656C67.9261 90.7217 66.6882 92.1247 66.7707 93.7801Z" fill="#11286B"/>
<path d="M51.8057 135.504C51.8057 135.504 51.7782 136.823 55.5742 136.486C59.3702 136.149 59.4253 135.672 59.6728 134.999C59.6728 134.999 53.2086 136.598 51.8057 135.504Z" fill="#071A3D"/>
<path d="M87.1798 129.78L87.1248 129.892C87.1248 129.892 83.5488 132.866 81.2657 133.203C81.2657 133.203 80.4129 133.175 79.9453 132.95C79.9453 132.95 85.2818 131.07 86.7397 129.331L87.1798 129.78Z" fill="#071A3D"/>
<path d="M90.8937 108.792C88.2805 109.999 85.6398 110.981 82.9991 111.766V106.519L81.9813 103.657L80.7434 100.178L78.2953 106.547V113.001C75.0219 113.73 71.776 114.179 68.6126 114.46V113.871H60.1128V114.712C58.8475 114.684 57.6371 114.656 56.4543 114.572C56.4818 114.376 56.4818 114.179 56.5093 114.039C56.8394 111.907 57.4171 107.501 57.4171 107.473L57.4446 107.277H57.362C57.2795 107.137 57.0595 107.024 56.7844 106.912V106.884H56.7569C56.7569 106.491 55.5741 106.154 54.1437 106.154C52.6858 106.154 51.5305 106.491 51.5305 106.884C51.2279 106.996 51.0078 107.137 50.9253 107.277H50.6777L50.7052 107.473C50.7052 107.529 51.3929 111.093 51.5855 114.151C50.0726 113.983 48.6147 113.786 47.2943 113.59C47.2943 113.45 47.2668 113.366 47.2393 113.309C47.2393 113.281 47.2118 113.253 47.1843 113.225C47.0742 113.057 46.6891 112.861 46.194 112.72C46.304 112.327 46.5241 111.486 46.7717 111.065C46.7992 111.065 46.8267 111.065 46.8267 111.065C46.8817 111.065 46.8817 111.065 46.9092 111.009C46.9092 110.953 46.9092 110.924 46.9092 110.868H46.8817C46.7717 110.504 46.0565 109.942 44.9562 109.578C44.0209 109.269 43.1957 109.101 42.7831 109.101C42.618 109.101 42.5355 109.129 42.508 109.185C42.508 109.213 42.508 109.213 42.508 109.241C42.563 109.55 42.8381 111.149 42.8381 112.131C42.7556 112.131 42.7005 112.131 42.618 112.131C42.0954 112.131 41.8203 112.215 41.7378 112.384C41.7103 112.412 41.6828 112.468 41.6277 112.552C38.4369 111.85 36.5664 111.261 36.5664 111.261L39.3996 116.452C37.9142 117.21 36.2363 118.584 35.7686 121.082C35.136 124.561 36.0437 127.928 41.0776 129.275L42.2879 129.499C47.4593 130.004 49.4399 127.198 50.045 123.691C50.3476 121.867 49.8525 120.38 49.1373 119.23C49.825 119.342 50.5677 119.454 51.3379 119.567C51.2829 120.521 51.2279 121.531 51.2004 122.429C51.0353 126.16 51.0903 126.216 51.1453 126.301L51.1729 126.329H51.2279C51.2554 126.329 52.8508 126.693 54.3362 126.693C55.244 126.693 55.9317 126.553 56.3718 126.301L56.4543 126.244V126.132C56.4543 126.076 56.3443 123.046 56.3168 119.987C57.4996 120.044 58.7649 120.1 60.0578 120.1V121.082H68.5576V119.763C72.2436 119.426 75.4895 118.921 78.2403 118.36V123.944C78.2403 124.168 78.9004 124.365 79.7807 124.449C80.0282 124.477 80.3033 124.477 80.5784 124.477C80.8535 124.477 81.101 124.477 81.3486 124.449H81.3761C82.2839 124.365 82.944 124.168 82.944 123.944V117.21C86.5475 116.199 88.5006 115.302 88.5006 115.302C89.6284 113.001 90.8937 108.792 90.8937 108.792Z" fill="#5E001E"/>
<path d="M37.5576 110.476C37.5576 110.476 66.468 119.763 91.8575 108.007C91.8575 108.007 90.5921 112.215 89.5193 114.6C89.5193 114.6 80.3318 118.809 64.68 119.342C49.0558 119.875 40.4734 115.863 40.4734 115.863L37.5576 110.476Z" fill="#11286B"/>
<rect x="61.0762" y="113.085" width="8.49982" height="7.2672" fill="#FFC13B"/>
<path d="M51.6133 115.077C51.6133 115.077 54.8592 115.077 58.3526 115.666L58.2426 117.153C58.2426 117.153 54.5291 118.809 51.6408 116.901L51.6133 115.077Z" fill="#5E001E"/>
<path d="M51.8047 106.687C51.8047 106.687 52.905 112.383 52.6849 115.582C52.4649 118.781 52.1348 125.262 52.2448 125.375C52.2448 125.375 55.8208 126.216 57.3062 125.375C57.3062 125.375 56.9486 115.386 57.3062 113.225C57.6638 111.065 58.2139 106.659 58.2139 106.659H51.8047V106.687Z" fill="white"/>
<path fill-rule="evenodd" clip-rule="evenodd" d="M52.2438 125.571C52.2438 125.571 53.8668 125.936 55.3522 125.936C56.2324 125.936 56.9201 125.795 57.4153 125.571L57.4978 125.515V125.403C57.4978 125.396 57.496 125.336 57.4927 125.228C57.4524 123.889 57.1922 115.257 57.4978 113.309C57.8279 111.205 58.4055 106.8 58.4055 106.744L58.433 106.547H51.6387L51.6662 106.744C51.6662 106.749 51.6776 106.813 51.6978 106.926C51.8764 107.927 52.7441 112.787 52.5464 115.61C52.4364 117.237 52.2989 119.679 52.2163 121.671C52.027 125.34 52.1036 125.456 52.1585 125.539C52.1595 125.54 52.1604 125.541 52.1613 125.543L52.1888 125.571H52.2438ZM55.3525 125.599C54.1146 125.599 52.7943 125.346 52.4092 125.262C52.3541 124.449 52.6292 118.669 52.8218 115.61C53.0143 112.748 52.1616 107.894 51.969 106.856H58.0207C58.01 106.937 57.996 107.045 57.9791 107.175C57.8216 108.388 57.4137 111.527 57.1405 113.225C56.8442 115.064 57.0576 122.419 57.1243 124.717C57.1319 124.979 57.1376 125.175 57.1405 125.29C56.7554 125.487 56.1502 125.599 55.3525 125.599Z" fill="#172C54"/>
<path d="M55.0782 107.417C53.1802 107.417 51.9424 106.968 51.9424 106.659C51.9424 106.351 53.1527 105.902 55.0782 105.902C56.9763 105.902 58.2141 106.351 58.2141 106.659C58.2141 106.996 57.0038 107.417 55.0782 107.417Z" fill="white"/>
<path fill-rule="evenodd" clip-rule="evenodd" d="M51.7773 106.687C51.7773 106.182 53.2627 105.79 55.0782 105.79C56.8937 105.79 58.3791 106.182 58.3791 106.687C58.3791 107.192 56.8937 107.585 55.0782 107.585C53.2352 107.585 51.7773 107.192 51.7773 106.687ZM58.0493 106.688C57.8842 106.491 56.9215 106.098 55.0785 106.098C53.263 106.098 52.2727 106.491 52.1077 106.688C52.2727 106.884 53.2355 107.277 55.0785 107.277C56.9215 107.277 57.9117 106.884 58.0493 106.688Z" fill="#172C54"/>
<path d="M55.0782 106.687C53.4828 106.687 52.6025 106.323 52.6025 106.126C52.6025 105.93 53.4828 105.565 55.0782 105.565C56.6737 105.565 57.5539 105.93 57.5539 106.126C57.5539 106.323 56.6737 106.687 55.0782 106.687Z" fill="white"/>
<path fill-rule="evenodd" clip-rule="evenodd" d="M52.4648 106.126C52.4648 105.733 53.6202 105.397 55.0781 105.397C56.536 105.397 57.7188 105.733 57.6913 106.126C57.6913 106.519 56.536 106.856 55.0781 106.856C53.6477 106.856 52.4648 106.519 52.4648 106.126ZM57.3341 106.126C57.1141 105.986 56.3439 105.733 55.0785 105.733C53.8132 105.733 53.043 105.958 52.8229 106.126C53.043 106.267 53.8132 106.519 55.0785 106.519C56.3439 106.519 57.1141 106.295 57.3341 106.126Z" fill="#172C54"/>
<path d="M55.077 106.154C54.1693 106.154 53.7017 105.958 53.6191 105.873C53.7017 105.789 54.1693 105.593 55.077 105.593C55.9848 105.593 56.4524 105.789 56.5349 105.873C56.4524 105.986 55.9848 106.154 55.077 106.154Z" fill="white"/>
<path fill-rule="evenodd" clip-rule="evenodd" d="M53.4541 105.873C53.4541 105.621 54.1968 105.425 55.077 105.425C55.9848 105.425 56.7 105.649 56.7 105.873C56.7 106.126 55.9573 106.322 55.077 106.322C54.1693 106.322 53.4541 106.126 53.4541 105.873ZM56.1503 105.874C55.9027 105.817 55.5451 105.761 55.0775 105.761C54.6099 105.761 54.2523 105.817 54.0047 105.874C54.2523 105.93 54.6099 105.986 55.0775 105.986C55.5451 105.986 55.9302 105.93 56.1503 105.874Z" fill="#172C54"/>
<rect x="52.5469" y="106.126" width="1.03061" height="1.048" fill="#172C54"/>
<rect x="57.416" y="106.126" width="1.03061" height="1.048" fill="#172C54"/>
<rect x="56.5361" y="105.874" width="1.03061" height="1.048" fill="#172C54"/>
<rect x="53.4277" y="105.874" width="1.03061" height="1.048" fill="#172C54"/>
<path d="M54.6924 107.585L54.8849 109.044L55.4076 107.585H54.6924Z" fill="#172C54"/>
<path d="M52.7393 125.486L52.9868 124.112L53.2344 125.571L52.7393 125.486Z" fill="#172C54"/>
<path d="M55.3525 125.768V123.326L56.0127 125.768H55.3525Z" fill="#172C54"/>
<path d="M54.7478 116.536C53.4274 116.536 52.7122 116.087 52.6572 116.059L52.8223 115.778L52.7397 115.919L52.8223 115.778C52.8498 115.778 54.3902 116.704 57.1134 115.75L57.2235 116.059C56.2607 116.424 55.4355 116.536 54.7478 116.536Z" fill="#172C54"/>
<path d="M51.6133 115.217C51.6133 115.217 53.7314 117.378 58.4076 115.807L58.2151 117.518C58.2151 117.518 54.7491 119.202 51.8333 117.294L51.6133 115.217Z" fill="#5E001E"/>
<path d="M51.5312 114.993C51.5312 114.993 52.7966 117.181 58.5182 115.694L58.3256 117.35C58.3256 117.35 54.4746 119.033 51.5863 117.125L51.5312 114.993Z" fill="#11286B"/>
<path d="M42.1502 114.544C42.1502 114.544 41.38 116.901 48.697 116.452L48.8621 115.049C48.8621 115.049 45.3961 114.32 42.8104 113.843L42.1502 114.544Z" fill="#5E001E"/>
<path d="M78.625 113.871C78.625 113.871 80.5505 112.58 85.0618 112.776V114.965C85.0618 114.965 80.5505 116.284 78.625 115.414V113.871Z" fill="#5E001E"/>
<path d="M79.2314 105.734V123.214C79.2314 123.439 79.8916 123.635 80.7719 123.719V105.874L79.2314 105.734Z" fill="#A84A0A"/>
<path d="M82.3936 123.719C83.3013 123.635 83.9615 123.439 83.9615 123.214V105.734L82.3936 105.874V123.719Z" fill="#EB6B15"/>
<rect x="80.7988" y="105.228" width="1.56793" height="1.048" fill="#BF540B"/>
<path d="M82.3668 123.719V105.874H80.7988V123.719C81.0464 123.747 81.3215 123.747 81.5965 123.747C81.8716 123.747 82.1192 123.747 82.3668 123.719Z" fill="#BF540B"/>
<rect x="82.3672" y="105.228" width="1.03061" height="1.048" fill="#BF540B"/>
<path d="M82.3672 123.719C82.3672 123.719 82.3908 123.719 82.3672 123.719L82.3908 105.874H82.3672V123.719Z" fill="#BF540B"/>
<path d="M79.2314 105.734L81.6796 99.3643L83.9627 105.734C83.9627 105.734 83.8802 106.042 83.5776 106.211C83.3026 106.351 82.8899 105.958 82.4498 106.154C81.7071 106.463 81.1295 106.042 80.7719 106.042C80.4143 106.042 80.3593 106.211 79.9466 106.183C79.5615 106.126 79.2314 105.734 79.2314 105.734Z" fill="#E39522"/>
<path d="M81.6789 99.3643L80.3311 102.844C80.3311 102.844 80.8812 103.18 81.5139 103.18C82.1466 103.18 82.9168 102.844 82.9168 102.844L81.6789 99.3643Z" fill="#000A25"/>
<path d="M78.625 114.039C78.625 114.039 82.5861 114.572 85.0618 112.945V115.189C85.0618 115.189 80.8256 116.985 78.625 115.638V114.039Z" fill="#5E001E"/>
<path d="M78.1855 113.702C78.1855 113.702 82.9719 114.207 85.4475 112.58L85.0624 115.217C85.0624 115.217 80.5512 116.536 78.6257 115.666L78.1855 113.702Z" fill="#11286B"/>
<path d="M51.0351 122.905C51.7778 118.584 47.9268 116.087 47.2391 115.638C46.3588 115.049 46.909 113.758 46.909 113.758L45.3136 113.59L43.7181 113.253C43.7181 113.253 43.8281 114.6 42.8104 114.824C42.0127 114.993 37.5289 115.975 36.7862 120.296C36.1535 123.775 37.0613 127.142 42.0952 128.489L43.3055 128.714C48.4494 129.219 50.43 126.385 51.0351 122.905Z" fill="#0A2456"/>
<g opacity="0.8">
<path d="M50.7329 122.821C51.4481 118.669 47.7621 116.312 47.102 115.863C46.2492 115.302 46.6618 113.758 46.6618 113.758L43.8836 113.281C43.8836 113.281 44.0761 114.797 42.8658 115.105C42.1231 115.302 37.8319 116.2 37.0892 120.324C36.484 123.663 37.3643 126.862 42.1506 128.153L43.3059 128.377C48.2573 128.854 50.1553 126.16 50.7329 122.821Z" fill="#FDFDFC"/>
</g>
<path d="M50.3743 122.625C50.4569 122.092 50.4844 121.587 50.4294 121.11L37.7759 118.781C37.5833 119.202 37.4183 119.707 37.3083 120.24C36.7306 123.439 37.5558 126.469 42.1496 127.703L43.2499 127.9C48.0087 128.377 49.8242 125.795 50.3743 122.625Z" fill="#F33605"/>
<path d="M50.4307 121.138C50.3481 121.671 47.4323 121.587 43.9389 120.941C40.4454 120.296 37.6947 119.342 37.7772 118.809C37.8597 118.276 40.7755 118.36 44.269 119.005C47.7624 119.651 50.5132 120.605 50.4307 121.138Z" fill="#A11F02"/>
<g opacity="0.5">
<path d="M45.3955 116.677C45.3955 116.677 48.0637 119.51 47.8162 122.793L48.6139 122.934C48.6139 122.934 49.4391 119.146 46.0557 116.368L45.3955 116.677Z" fill="#FDFDFC"/>
</g>
<path d="M47.652 123.551L48.5597 123.719C48.5597 123.719 48.1746 127.086 44.9287 127.816C44.9287 127.816 46.9093 127.226 47.652 123.551Z" fill="#FDFDFC"/>
<path d="M42.8653 111.682C42.8653 111.682 42.6177 111.935 42.5902 112.58C42.5627 113.225 44.2131 113.534 45.2859 113.73C46.3587 113.927 47.8716 114.095 48.0092 113.253C48.1192 112.636 47.9817 112.608 47.9817 112.608L42.8653 111.682Z" fill="#4DDBD1"/>
<path fill-rule="evenodd" clip-rule="evenodd" d="M45.2311 113.899C45.8363 114.011 46.3039 114.067 46.7165 114.067C47.5968 114.067 48.0919 113.814 48.1744 113.309C48.257 112.804 48.2019 112.636 48.1469 112.552L48.0919 112.468L42.783 111.486L42.7279 111.542C42.7004 111.57 42.4254 111.85 42.3979 112.552C42.3704 113.309 43.7732 113.646 45.2311 113.899ZM42.9108 111.899C42.9145 111.892 42.9179 111.885 42.9212 111.878L47.8726 112.776C47.9001 112.832 47.9001 112.973 47.8451 113.225C47.7625 113.73 46.9373 113.871 45.3144 113.562C44.6817 113.45 42.7287 113.085 42.7562 112.58C42.7562 112.21 42.8535 112.015 42.9108 111.899Z" fill="#083A63"/>
<path d="M47.9823 112.636C47.9548 112.86 46.7445 112.86 45.3416 112.58C43.9112 112.327 42.8109 111.906 42.8384 111.682C42.8934 111.457 44.0762 111.457 45.4791 111.738C46.9095 111.991 48.0373 112.411 47.9823 112.636Z" fill="#4DDBD1"/>
<path fill-rule="evenodd" clip-rule="evenodd" d="M45.3147 112.748C46.0298 112.888 46.745 112.973 47.2677 112.973C47.8728 112.973 48.1204 112.888 48.1479 112.608C48.1479 112.58 48.1479 112.496 48.0929 112.411C47.8453 112.047 46.5525 111.71 45.5072 111.514C44.792 111.401 44.0768 111.317 43.5542 111.317C42.9765 111.317 42.7014 111.401 42.6739 111.626C42.6464 111.85 42.894 112.047 43.4992 112.271C43.9668 112.468 44.627 112.608 45.3147 112.748ZM45.3966 112.412C44.1038 112.187 43.3611 111.906 43.1135 111.738C43.1437 111.738 43.1813 111.734 43.2289 111.73C43.3114 111.721 43.4242 111.71 43.5811 111.71C44.0762 111.71 44.7639 111.766 45.4791 111.906C46.772 112.131 47.5147 112.412 47.7623 112.58C47.732 112.58 47.6945 112.584 47.6468 112.588C47.5643 112.597 47.4516 112.608 47.2946 112.608C46.7995 112.608 46.1118 112.552 45.3966 112.412Z" fill="#083A63"/>
<path d="M45.5618 112.215C44.8741 112.075 44.1589 111.822 43.9113 111.71C43.9663 110.924 43.7188 109.241 43.5537 108.736L47.7073 110.083C47.3497 110.644 47.0472 111.738 46.9371 112.075C46.8271 112.131 46.387 112.327 45.6718 112.215C45.6443 112.215 45.6168 112.215 45.5618 112.215Z" fill="#FFC928"/>
<path d="M46.8269 109.802C46.8269 109.802 45.8641 110.756 45.7266 112.159C45.7266 112.159 46.7168 112.243 46.9369 111.991C46.9369 111.991 47.4595 110.223 47.7071 110.083C47.7346 110.083 47.0469 109.746 46.8269 109.802Z" fill="#FFDA6B"/>
<path d="M43.5537 108.736C43.5537 108.736 44.0488 111.317 43.9938 111.71C43.9938 111.71 44.7915 111.935 44.9016 111.906C44.9016 111.906 45.0391 109.437 44.7365 109.297C44.434 109.185 43.5537 108.736 43.5537 108.736Z" fill="#FFA805"/>
<path fill-rule="evenodd" clip-rule="evenodd" d="M43.7725 111.822C43.8825 110.896 43.4424 108.427 43.4424 108.427L47.8436 110.139C47.486 110.447 47.0734 112.187 47.0734 112.187C47.0734 112.187 46.5782 112.524 45.6705 112.384C45.6567 112.384 45.6361 112.377 45.6155 112.369C45.5948 112.362 45.5742 112.355 45.5605 112.355C44.6802 112.215 43.7725 111.822 43.7725 111.822ZM46.8532 111.962C46.9907 111.514 47.2108 110.924 47.5133 110.335L47.6234 110.139C47.6234 110.139 45.8629 109.606 45.2577 109.437C44.4875 109.241 43.6348 108.764 43.6348 108.764C43.7998 109.381 44.1024 110.868 44.0749 111.598C44.3775 111.71 45.0102 111.934 45.6153 112.047C45.6428 112.075 45.6979 112.075 45.7254 112.075C46.3305 112.159 46.7156 112.047 46.8532 111.962Z" fill="#A11F02"/>
<path d="M47.6247 110.111C47.4871 110.083 47.3221 109.999 47.1295 109.914C46.7719 109.774 46.3043 109.55 45.7266 109.381C44.6538 109.045 44.0212 108.708 43.7461 108.54C44.1587 108.54 44.9839 108.736 45.8367 109.017C46.8544 109.325 47.4596 109.802 47.6247 110.111Z" fill="#FFC928"/>
<path fill-rule="evenodd" clip-rule="evenodd" d="M43.4162 108.427C43.4438 108.371 43.5263 108.343 43.6913 108.343C44.1039 108.343 44.9567 108.512 45.8919 108.82C47.1848 109.241 47.9275 109.943 47.8175 110.279C47.8101 110.287 47.8047 110.294 47.7997 110.301C47.786 110.32 47.7752 110.335 47.7349 110.335C47.6107 110.335 47.3616 110.229 47.0053 110.078C46.6517 109.927 46.1924 109.731 45.6444 109.55C44.3515 109.129 43.3612 108.624 43.4162 108.427ZM45.7619 108.993C45.3778 108.874 44.2377 108.522 44.1866 108.652C44.1316 108.792 45.4245 109.241 45.7821 109.325C45.8575 109.353 45.9859 109.409 46.1374 109.475C46.5939 109.673 47.2605 109.964 47.3225 109.858C47.4325 109.69 46.1672 109.129 45.8371 109.016C45.8172 109.01 45.7919 109.003 45.7619 108.993Z" fill="#A11F02"/>
<path d="M44.3232 109.072L44.4915 110.223L44.6356 109.269L44.3232 109.072Z" fill="#A11F02"/>
<path d="M46.3585 109.774C46.3585 109.774 45.8359 110.924 45.9459 111.289C45.9459 111.289 46.4685 109.914 46.8811 109.858L46.3585 109.774Z" fill="#A11F02"/>
<path d="M47.4316 120.128L48.3669 119.763L48.5044 120.24L47.5692 120.492L47.4316 120.128Z" fill="#FDFDFC"/>
<path d="M44.0752 112.72C44.0752 112.72 46.1933 113.394 47.7612 113.141C47.7612 113.141 45.8357 113.759 44.0752 112.72Z" fill="#FDFDFC"/>
<path d="M41.9302 114.6C41.9302 114.6 41.7376 117.097 49.0546 116.648L48.8346 115.189C48.8346 115.189 44.4058 115.302 42.7829 113.983L41.9302 114.6Z" fill="#5E001E"/>
<path d="M41.9302 114.488C41.9302 114.488 41.7376 116.985 49.0546 116.536L48.8346 115.077C48.8346 115.077 44.4058 115.189 42.7829 113.871L41.9302 114.488Z" fill="#11286B"/>
<path fill-rule="evenodd" clip-rule="evenodd" d="M64.9817 114.488C64.569 114.488 64.1564 114.516 63.8538 114.572L63.7988 119.173H64.3765L64.404 117.153H64.9541C65.4768 117.181 65.7244 117.434 65.8344 118.079C65.9444 118.668 66.0269 119.061 66.1095 119.201H66.7146C66.6207 119.034 66.5468 118.682 66.4415 118.181C66.4235 118.095 66.4046 118.005 66.3845 117.911C66.2745 117.434 66.082 117.097 65.7244 116.957V116.929C66.2195 116.788 66.6046 116.396 66.6046 115.778C66.6321 115.413 66.4946 115.105 66.2745 114.88C65.9994 114.628 65.6143 114.488 64.9817 114.488ZM64.9811 116.704H64.3759L64.4309 114.992C64.5134 114.964 64.7335 114.936 65.0086 114.936C65.6137 114.964 66.0264 115.245 66.0264 115.834C66.0264 116.367 65.6137 116.704 64.9811 116.704Z" fill="#937031"/>
<path d="M25.9209 80.761C25.9209 80.761 32.9628 96.2494 30.6522 105.397L32.6877 105.874C32.6877 105.874 34.1456 99.5042 31.835 91.76C29.5244 84.0158 27.2963 80.789 27.2963 80.789L25.9209 80.761Z" fill="#4E87C3"/>
<path d="M95.544 66.8159C95.544 66.8159 92.4081 87.9722 94.6637 95.3516L95.544 94.3976C95.544 94.3976 93.921 78.9373 97.3319 67.2649L95.544 66.8159Z" fill="#4E87C3"/>
<path fill-rule="evenodd" clip-rule="evenodd" d="M112.007 136.365C111.95 136.142 111.894 135.918 111.81 135.722C111.247 134.016 110.093 133.485 108.854 133.709C109.558 131.276 107.306 128.731 104.492 128.647C105.927 126.717 104.886 123.725 102.522 123.193C103.338 121.879 103.085 119.921 101.931 118.551C101.227 117.712 100.355 117.264 99.3978 117.152C99.9607 114.719 98.1875 112.426 95.6263 112.035C95.7108 111.363 95.6263 110.608 95.4293 109.937C94.6976 107.336 92.7274 105.63 90.4195 105.994C90.1944 104.791 89.4063 103.617 88.6182 102.666C88.3931 102.386 87.6613 101.575 86.8733 100.96C87.2391 100.121 87.014 99.2259 86.2541 98.303C85.4379 97.3242 84.0588 96.4572 82.7078 95.9818C82.8767 94.136 82.2294 91.7588 80.3718 91.0037C80.0622 90.8639 79.9215 91.3953 80.2311 91.5071C81.8353 92.1504 82.2012 94.2479 82.1731 95.814L82.173 95.814C81.9197 95.7581 81.6664 95.7021 81.4131 95.6742C79.9496 95.5064 80.1748 96.5691 80.9065 97.436C81.779 98.4428 82.3419 97.4081 82.5952 96.5411C83.9462 97.0165 85.3253 97.8835 86.1696 99.0301C86.5637 99.5615 86.6481 100.093 86.4511 100.624C85.7756 100.177 85.072 99.953 84.6498 100.373C83.9462 101.1 84.7905 102.917 85.8038 102.134C86.1133 101.911 86.3667 101.659 86.5637 101.407C87.9709 102.386 89.1249 103.896 89.744 105.462C89.7722 105.574 89.8285 105.798 89.8566 106.078C89.4063 106.218 88.9278 106.441 88.4494 106.749C88.3368 106.833 88.2524 107.001 88.3649 107.112C88.4285 107.196 88.4868 107.274 88.5419 107.348C88.9502 107.899 89.1756 108.203 89.9692 108.203C90.0536 108.203 90.1662 108.147 90.1944 108.063C90.4477 107.504 90.5321 106.945 90.4758 106.385C90.6728 106.329 90.898 106.301 91.1231 106.301C93.7688 106.162 95.2886 109.741 95.2042 111.951C94.5568 111.895 93.8814 111.979 93.1777 112.202C93.0089 112.258 92.8963 112.51 93.0651 112.65C94.4724 113.936 95.2323 113.489 95.5138 112.482C95.8515 112.51 96.1329 112.566 96.2737 112.594C97.8498 112.985 98.9193 114.468 99.0882 116.006C99.1445 116.397 99.06 116.761 98.9474 117.125C98.6378 117.125 98.3282 117.18 97.9905 117.264C96.724 117.572 96.7521 118.523 97.7654 119.39C97.8779 119.474 98.0468 119.502 98.1312 119.39C98.666 118.802 99.0319 118.215 99.257 117.6C100.777 117.712 101.931 119.11 102.353 120.564C102.606 121.375 102.522 122.27 102.1 123.025C102.086 123.039 102.079 123.053 102.072 123.067C102.064 123.081 102.057 123.095 102.043 123.109C101.424 123.053 100.749 123.165 99.9888 123.501C99.9044 123.529 99.8481 123.641 99.8481 123.725V124.284C99.8481 124.424 99.9607 124.564 100.101 124.536C101.03 124.452 101.734 124.088 102.212 123.557C102.254 123.557 102.297 123.564 102.339 123.571L102.339 123.571C102.381 123.578 102.423 123.585 102.466 123.585C104.802 123.92 105.252 127.053 103.929 128.591C103.929 128.591 103.901 128.619 103.845 128.647C103.31 128.703 102.747 128.842 102.184 129.122C102.1 129.15 102.043 129.262 102.043 129.346V129.765C102.043 129.933 102.212 130.073 102.381 130.017C103.085 129.793 103.619 129.486 104.042 129.066C104.351 129.038 104.604 129.038 104.689 129.038H104.689C106.321 129.01 107.757 130.269 108.348 131.723C108.573 132.31 108.545 132.954 108.404 133.569C108.404 133.597 108.348 133.709 108.263 133.849C107.56 134.1 106.828 134.576 106.237 135.191C106.124 135.303 106.124 135.471 106.237 135.554L106.659 135.974C106.744 136.058 106.884 136.086 106.969 136.002C107.813 135.415 108.348 134.771 108.657 134.1C109.277 133.96 109.924 134.128 110.459 134.576C111.162 135.163 111.472 136.17 111.556 137.093L112.007 136.365ZM80.8221 96.3735C80.7377 96.1498 81.582 96.3176 82.1168 96.4574C81.9479 97.2684 81.2443 97.4642 80.8221 96.3735ZM86.1698 101.184C85.9165 101.016 85.6632 100.876 85.3817 100.82C84.6781 100.68 85.1284 102.386 86.0572 101.323C86.0854 101.295 86.1416 101.24 86.1698 101.184ZM89.1336 107.322C88.9754 107.148 88.9138 107.08 88.9286 107.042C88.9381 107.017 88.9789 107.005 89.0457 106.984C89.1289 106.959 89.2526 106.922 89.4066 106.833C89.5754 106.749 89.7443 106.665 89.9132 106.609C89.9132 107.364 89.8006 108.091 89.3221 107.532C89.2483 107.449 89.1857 107.38 89.1336 107.322ZM94.219 112.93C93.2058 112.454 94.1909 112.426 95.1478 112.51C95.0352 112.902 94.7538 113.153 94.219 112.93ZM98.1307 117.796C98.3559 117.712 98.5529 117.684 98.7499 117.656L98.7499 117.656C98.6655 117.852 98.5529 118.048 98.4403 118.215C97.6241 119.698 97.6523 117.964 98.1307 117.796ZM101.586 123.567C101.432 123.592 101.263 123.62 101.115 123.669C100.27 124.004 100.186 124.116 100.833 123.948C101.115 123.837 101.396 123.725 101.649 123.557L101.586 123.567ZM102.634 129.57C102.634 129.458 102.775 129.374 102.972 129.29C102.775 129.43 102.634 129.542 102.634 129.57ZM107.808 134.551C107.391 134.795 106.698 135.202 106.997 135.499C107.11 135.61 107.56 135.023 107.954 134.464C107.912 134.49 107.862 134.519 107.808 134.551Z" fill="white"/>
<ellipse cx="53.777" cy="55.8721" rx="0.515307" ry="0.524002" fill="#FEFEFE"/>
<path d="M24.5146 16.1249L28.9177 37.5688C28.9177 37.5688 42.9524 43.1397 53.162 38.8005C63.344 34.4614 72.0951 22.5357 76.8008 19.5122L65.9583 0C65.9583 0 28.8076 14.1093 24.5146 16.1249Z" fill="#8A2202"/>
<path d="M25.4502 16.6572L29.9633 37.8211C29.9633 37.8211 39.5124 40.9565 47.6305 38.633C47.6305 38.633 42.8422 18.0289 38.5217 12.374L25.4502 16.6572Z" fill="#EB4403"/>
<path d="M39.623 11.8418C39.623 11.8418 44.9617 19.2604 49.0896 38.3247C49.0896 38.3247 57.8131 36.2811 61.198 32.5859C61.198 32.5859 58.0058 14.4733 53.1349 6.83081L39.623 11.8418Z" fill="#FF6403"/>
<path d="M54.0693 6.41094C54.0693 6.41094 60.0134 14.6694 62.0223 32.026C62.0223 32.026 68.049 27.6029 69.6451 25.5313C71.2412 23.4597 75.3416 20.4082 76.0571 19.9603L65.4347 2.15576L54.0693 6.41094Z" fill="#FF801F"/>
<path d="M54.0693 6.41077L65.6549 1.0918L75.9195 19.6802L65.0494 2.6595L54.0693 6.41077Z" fill="#FFB752"/>
<path d="M39.623 11.8418C39.623 11.8418 46.1726 22.6758 49.0896 38.3247C49.0896 38.3247 46.3377 18.8405 41.1916 12.3457L53.1349 6.83081L39.623 11.8418Z" fill="#FFB752"/>
<path d="M65.9583 0L55.0883 8.06245L39.6226 13.6614L24.5146 16.1249V14.7532L36.1552 8.06245L49.6946 2.74347L62.2708 0H65.9583Z" fill="#C23802"/>
<path d="M65.9583 0L55.0883 8.06245L39.6226 13.6614L24.5146 16.1249L24.7073 17.0767L39.9528 14.7252L55.5836 8.98627L66.2335 0.503903L65.9583 0Z" fill="#8A2202"/>
<path d="M53.2164 5.12312C53.4641 5.85098 49.9967 7.72662 45.4835 9.35031C40.9704 10.974 37.0902 11.7019 36.8426 10.974C36.5949 10.2461 40.0623 8.3705 44.5754 6.74681C49.1161 5.15112 52.9687 4.39526 53.2164 5.12312Z" fill="#8A2202"/>
<path d="M65.6309 76.2189C65.6309 76.2189 80.7079 77.9537 95.8673 66.1461C95.8673 66.1461 97.57 66.8736 102.733 67.2933C102.733 67.2933 98.1193 64.4673 93.4781 57.4443C93.4781 57.4443 90.4572 65.4466 83.1246 69.9794C75.7921 74.4562 65.6309 76.2189 65.6309 76.2189Z" fill="#5E001E"/>
<path d="M65.6309 76.3043C65.6309 76.3043 80.598 76.8533 95.73 65.2683C95.73 65.2683 99.1079 66.0919 102.733 67.5469C102.733 67.5469 98.1193 64.3349 93.4781 57.4443C93.4781 57.4443 92.764 63.7584 83.1246 70.1549C76.0118 74.8767 65.6309 76.3043 65.6309 76.3043Z" fill="#F2244E"/>
<path d="M93.457 57.4443C93.457 57.4443 98.3037 65.6337 102.733 67.9244C102.733 67.9244 100.56 67.0367 95.7411 65.605L93.457 57.4443Z" fill="#FF6E8B"/>
<path d="M23.0986 36.2637C23.0986 36.2637 42.0393 44.113 56.3347 36.2637C70.6301 28.4145 69.0264 22.4154 80.6949 18.2104C80.6949 18.2104 64.7682 29.3396 63.1091 47.505C63.1091 47.505 63.1091 45.5146 59.4592 45.5987C55.7817 45.6828 27.7992 45.01 23.0986 36.2637Z" fill="#5E001E"/>
<path d="M16.9326 37.9461L14.3887 38.3105C14.0293 43.02 21.4949 45.5991 21.4949 45.5991C11.2365 53.0558 16.5731 65.5025 16.5731 65.5025C17.0985 62.6712 19.8082 59.4474 19.8082 59.4474C14.8035 72.0622 26.472 76.8839 26.472 76.8839C25.1448 75.1178 26.9974 70.9409 26.9974 70.9409C26.3061 73.2396 29.0159 75.3982 29.0159 75.3982C28.7117 75.9308 30.6196 75.4823 36.0115 77.1082C36.0115 77.1082 49.5327 78.8743 53.072 78.7902C87.3864 77.7529 93.6078 58.0738 93.6078 58.0738C96.0687 54.7098 95.7093 51.3178 95.7093 51.3178L96.9535 56.1395C102.428 48.8509 99.2209 41.5623 99.2209 41.5623C102.069 43.6648 102.622 45.4028 102.622 45.4028C102.235 26.032 86.1698 27.5458 86.1698 27.5458C85.5891 18.9116 95.8199 12.5762 95.8199 12.5762C59.6805 21.6028 62.5008 46.5242 62.5008 46.5242C60.2611 39.2636 52.0489 44.0012 36.1774 41.338C27.2186 39.8243 12.232 29.9566 12.232 29.9566C11.8448 34.5821 16.9326 37.9461 16.9326 37.9461Z" fill="#D8762E"/>
<path d="M67.1743 53.1402C67.1743 53.1402 61.0635 41.6747 69.3034 32.5359C76.4096 24.6586 86.7509 29.2841 89.1842 31.4987L67.1743 53.1402Z" fill="#C74E03"/>
<path d="M70.4914 57.7375C74.3349 60.2044 82.7407 62.7273 90.0681 53.112C96.1512 45.0946 96.0959 33.7412 86.3076 29.9287C74.722 25.4434 67.118 37.3294 66.2885 40.5252C65.8738 42.1231 63.9382 53.5045 70.4914 57.7375Z" fill="#67301B"/>
<path d="M70.9063 57.289C74.7497 59.7559 82.6301 61.4099 88.8239 54.0652C95.0453 46.7486 95.46 35.0588 85.6441 31.2744C74.0584 26.7891 67.6435 38.0864 66.8416 41.2822C66.4545 42.852 64.3531 53.056 70.9063 57.289Z" fill="white"/>
<g opacity="0.7">
<path d="M52.9616 59.9802C52.9616 59.9802 65.0449 56.448 60.842 46.3C60.842 46.3 54.3164 47.7017 52.3256 47.7017C50.3347 47.7017 38.0026 47.8979 33.6891 47.3092C29.3756 46.7205 25.8916 49.7761 25.3662 50.4489C25.3662 50.4489 30.0392 47.5896 34.1315 47.982C38.1961 48.3745 51.3302 49.8322 58.9894 47.982C58.9341 47.954 60.0678 56.1957 52.9616 59.9802Z" fill="#87381D"/>
<path d="M43.4216 60.8213C46.7397 60.9615 53.8736 61.0456 56.9151 57.4574C60.648 53.0281 59.2378 48.0102 58.9336 47.9542C58.6295 47.8981 49.2835 50.1407 40.9607 49.4679C34.4075 48.9353 28.0479 49.6642 28.0479 52.6917C28.0755 54.9344 28.1032 60.2326 43.4216 60.8213Z" fill="#401C0F"/>
<path d="M26.8316 52.187C26.8316 52.187 24.896 58.3543 32.0852 60.8772C32.0852 60.8772 23.1264 59.3915 26.8316 52.187Z" fill="#87381D"/>
</g>
<path d="M44.141 61.1295C47.459 61.2697 53.4316 61.1295 56.4732 57.5133C60.206 53.0841 58.6852 48.6829 58.4087 48.6268C58.1045 48.5708 50.0029 50.7013 41.6248 50.3368C35.7628 50.0845 29.3202 50.1686 29.3479 53.1682C29.3479 55.4388 28.8225 60.5409 44.141 61.1295Z" fill="white"/>
<path d="M62.5559 46.5242C62.5559 46.5242 62.4453 24.2099 95.8749 12.5762C95.8473 12.5762 61.7264 19.0238 62.5559 46.5242Z" fill="#C74E03"/>
<path d="M33.5781 62.7551C33.5781 62.7551 49.3666 69.7634 60.2887 58.1016C60.2887 58.0736 49.4496 67.4086 33.5781 62.7551Z" fill="#87381D"/>
<path d="M80.0312 64.8298C80.0312 64.8298 84.2618 63.6524 85.7549 59.1391C85.7549 59.1391 86.4739 60.9613 86.5845 61.9705C86.5845 61.9705 94.8243 58.7747 95.405 49.1874C95.405 49.1874 96.8705 51.43 97.0917 53.7848C97.0917 53.7848 101.046 47.4774 98.1701 40.2168C98.1701 40.2168 100.382 40.4972 101.958 42.908C101.958 42.908 101.156 28.8915 86.1697 27.4618C86.1697 27.4618 101.792 25.4434 102.622 45.3188C102.622 45.3188 100.963 42.5155 99.2208 41.4783C99.2208 41.4783 102.318 49.1033 96.9534 56.0555C96.9534 56.0555 96.2622 53.4484 95.7092 51.2338C95.7092 51.2338 96.6769 59.3354 85.7549 63.1479L85.4231 61.3537C85.4508 61.4098 84.8425 63.7085 80.0312 64.8298Z" fill="#5E001E"/>
<path d="M22.5181 59.7837C22.5181 59.7837 21.412 61.718 23.7347 64.2409C23.7347 64.2409 23.79 63.0636 25.0343 62.3067C25.0343 62.3067 25.2002 66.2593 29.2925 68.0815C29.2925 68.0815 25.2831 65.2501 25.7532 61.4937C25.7532 61.4937 24.1771 61.718 23.5135 63.0636C23.5135 63.0636 22.4628 62.1104 22.5181 59.7837Z" fill="#FFAC61"/>
<path d="M62.5557 46.5242C62.5557 46.5242 61.5049 42.992 58.1592 42.5155C48.7303 41.1979 37.5595 44.7861 22.4346 35.8997C22.4346 35.8997 30.3427 42.7117 44.1403 43.1602C57.938 43.6368 59.9289 42.8238 62.5557 46.5242Z" fill="#FFB752"/>
<path d="M95.8479 12.5762C95.8479 12.5762 79.7552 17.6221 68.6396 32.2553C68.6396 32.2553 78.1238 21.1543 84.677 26.5927C84.677 26.5927 82.935 19.0518 95.8479 12.5762Z" fill="#87381D"/>
<path d="M89.93 29.5361C89.93 29.5361 97.1468 31.1901 100.244 39.2916C100.244 39.2916 98.9994 38.1423 96.6214 37.8619C96.6214 37.8619 99.2759 42.123 97.3403 49.8601C97.3403 49.8601 95.9855 47.5894 95.1006 47.281C95.1006 47.281 95.2942 55.4386 87.4414 60.877C87.4414 60.877 93.8011 56.8683 94.4923 46.5241C94.4923 46.5241 96.179 47.0287 96.8979 47.9538C96.8979 47.9538 98.0869 41.9267 95.1283 36.7126C95.1283 36.7126 97.921 36.8247 98.8058 37.3293C98.7505 37.3573 95.543 31.8629 89.93 29.5361Z" fill="#FFB752"/>
<path d="M84.6774 26.5927C84.6774 26.5927 82.8801 18.9677 95.8483 12.5762C95.8483 12.5762 87.9955 15.6037 84.6774 26.5927Z" fill="#FFB752"/>
<path d="M12.2866 29.9565C12.2866 29.9565 15.0793 36.6845 19.7799 37.6376C19.7799 37.6376 18.8675 38.3945 17.7614 38.6748C17.7614 38.6748 21.3284 45.655 29.3747 46.8044C29.3747 46.8044 14.471 46.0195 14.4157 38.3104L16.9596 37.946C16.9319 37.946 12.2313 35.3949 12.2866 29.9565Z" fill="#5E001E"/>
<path d="M21.4937 45.5991C21.4937 45.5991 13.8621 54.1492 16.5442 62.2507C16.5442 62.2507 18.2033 59.2232 20.8301 58.1859C20.8301 58.1859 17.4843 69.0628 24.6182 73.6041C24.6182 73.6041 24.3141 70.7167 28.1022 69.3711C28.1022 69.3711 27.3003 74.5572 34.9043 78.4538C34.9043 78.4538 33.9088 75.4823 34.4618 73.7723C34.4618 73.7723 35.4849 77.4727 40.7109 76.6877C40.7109 76.6877 37.9458 77.9492 35.5402 76.3513C35.5402 76.3513 36.3144 78.7902 36.1485 79.8835C36.1485 79.8835 25.6413 74.8936 27.0515 70.9129C27.0515 70.9129 25.4754 75.3141 26.5261 76.8559C26.5261 76.8559 20.6642 74.2208 19.254 69.259C17.8715 64.2971 19.3922 60.0081 19.8623 59.4194C19.8623 59.4194 17.3184 62.3629 16.6272 65.4745C16.5719 65.5026 11.097 52.8036 21.4937 45.5991Z" fill="#5E001E"/>
<path d="M61.2309 73.2676C61.2309 73.2676 57.6086 77.2203 53.627 72.8191C53.6546 72.8191 57.581 75.9308 61.2309 73.2676Z" fill="#FFAC61"/>
<path d="M54.1235 72.6512C54.1235 72.6512 50.5012 76.6038 46.5195 72.2026C46.5472 72.2307 50.4736 75.3423 54.1235 72.6512Z" fill="#FFAC61"/>
<path d="M38.5561 67.6893C38.5561 67.6893 34.9338 71.6419 30.9521 67.2407C30.9521 67.2407 34.8785 70.3524 38.5561 67.6893Z" fill="#EB883F"/>
<path d="M46.2162 68.1939C46.2162 68.1939 42.594 72.1465 38.6123 67.7454C38.6123 67.7454 42.5663 70.857 46.2162 68.1939Z" fill="#EB883F"/>
<path d="M42.4008 70.3802C42.4008 70.3802 38.7786 74.3328 34.7969 69.9316C34.8245 69.9316 38.7509 73.0433 42.4008 70.3802Z" fill="#EB883F"/>
<path d="M56.3087 66.3716C56.3087 66.3716 53.1565 72.1464 49.1748 67.7452C49.1748 67.7452 52.7417 70.156 56.3087 66.3716Z" fill="#EB883F"/>
<path d="M58.4916 75.3421C58.4916 75.3421 54.8694 79.2947 50.8877 74.8936C50.9153 74.8936 54.8417 78.0052 58.4916 75.3421Z" fill="#FFAC61"/>
<path opacity="0.8" d="M28.8498 75.202C28.8498 75.202 32.1126 78.1455 36.0942 79.9116C36.0942 79.9116 35.956 77.4166 35.4859 76.3794C35.4859 76.3794 36.1772 77.1083 38.2786 77.1924C38.2786 77.1924 52.4634 80.6965 65.5145 77.2484C77.5426 74.0807 85.3954 71.81 93.5799 57.9897L94.2989 59.027C94.2989 59.027 89.8748 67.4088 80.2523 73.2397C74.8328 76.5196 65.5145 77.6689 65.5145 77.6689C65.5145 77.6689 59.6526 79.0706 56.2516 79.2107C52.8505 79.3229 38.6381 79.3789 36.0389 77.1363C36.0389 77.1363 36.4814 78.0894 36.5643 79.1547C36.592 79.5752 36.592 79.9957 36.4814 80.4162C36.4814 80.4162 30.8683 79.1547 28.1309 75.7066L28.8498 75.202Z" fill="#5E001E"/>
<path d="M42.7858 56.8684C43.3665 58.9429 45.4956 60.1763 47.5417 59.5876C49.5879 58.9989 50.8045 56.8404 50.2239 54.7659C49.6432 52.6915 47.5141 51.458 45.4679 52.0467C43.4218 52.6354 42.2328 54.794 42.7858 56.8684Z" fill="black"/>
<path d="M47.0716 55.4386C47.1822 55.803 47.5416 56.0273 47.9011 55.9152C48.2606 55.803 48.4818 55.4386 48.3712 55.0742C48.2606 54.7098 47.9011 54.4855 47.5416 54.5976C47.1822 54.6817 46.961 55.0742 47.0716 55.4386Z" fill="white"/>
<path fill-rule="evenodd" clip-rule="evenodd" d="M74.5284 44.8421C76.5745 44.2535 78.7036 45.4869 79.2843 47.5613C79.8373 49.6638 78.6483 51.8224 76.6022 52.383C74.556 52.9717 72.4269 51.7383 71.8462 49.6638C71.2656 47.5894 72.4822 45.4308 74.5284 44.8421ZM76.1047 48.2342C76.1877 48.5986 76.5748 48.8229 76.9342 48.7108C77.2937 48.5986 77.5149 48.2342 77.4043 47.8698C77.3213 47.5053 76.9342 47.2811 76.5748 47.3932C76.2153 47.4773 75.9941 47.8698 76.1047 48.2342Z" fill="black"/>
<path d="M76.5749 47.3653C76.2154 47.4774 75.9942 47.8418 76.1048 48.2063C76.2154 48.5707 76.5749 48.7949 76.9343 48.6828C77.2938 48.5707 77.515 48.2063 77.4044 47.8418C77.2938 47.4774 76.9343 47.2812 76.5749 47.3653Z" fill="white"/>
<path d="M60.3174 63.7084C60.3174 63.7084 65.7646 68.5861 67.23 71.3334C67.23 71.3334 69.1103 63.5122 68.6679 60.793L60.3174 63.7084Z" fill="#C74E03"/>
<path d="M63.3865 57.7932C66.1516 56.5317 68.5019 60.3722 68.6678 60.8207C68.8337 61.2412 66.7322 69.1185 66.7322 69.1185C66.7322 69.1185 63.2759 65.0257 60.2896 63.7362C60.3173 63.7081 59.1283 59.7555 63.3865 57.7932Z" fill="#FAEB00"/>
<path d="M69.4414 57.8496C69.4414 57.8496 69.8838 61.3818 72.2618 61.2136C72.2894 61.2136 70.4368 60.3445 69.4414 57.8496Z" fill="#5E001E"/>
<path d="M59.238 60.8489C59.238 60.8489 60.0398 64.0446 56.9153 66.063C56.8877 66.063 58.9615 63.7082 59.238 60.8489Z" fill="#5E001E"/>
<path d="M65.5706 64.213L63.3862 57.7935C63.3862 57.7935 59.681 58.9148 60.234 63.4281L65.5706 64.213Z" fill="#F09800"/>
<path d="M66.0684 65.0539L66.6767 69.0065C66.6767 69.0065 63.1927 64.9417 60.3447 63.7363C60.3447 63.7083 63.7458 63.2037 66.0684 65.0539Z" fill="#F09800"/>
<path d="M58.7959 63.372C58.7959 63.372 63.773 65.7828 66.0127 65.3904C67.8653 65.054 68.2524 63.6803 70.4368 59.9519L70.1327 59.5034C70.1327 59.5034 68.4736 62.2226 65.3768 63.1477C62.031 64.1569 58.9065 62.8674 58.9065 62.8674L58.7959 63.372Z" fill="#5E001E"/>
<path opacity="0.8" d="M29.6928 75.2603L20.2832 79.0588L23.2429 80.2315C32.6245 80.3335 58.6753 81.9141 66.6609 76.0506C66.6609 76.0506 51.9462 80.9453 36.3381 76.331C36.3381 76.331 36.9244 77.7331 36.3939 77.7841C34.8862 77.9116 30.9492 76.6114 29.6928 75.2603Z" fill="#5E001E"/>
<path d="M29.6928 75.2603L20.2832 80.835L23.0195 81.4157C32.2336 81.0964 58.0052 83.245 66.6609 77.4089C66.6609 77.4089 51.9462 81.7642 36.3381 76.4797C36.3381 76.4797 36.8128 78.8316 36.7011 79.9059C36.729 79.8769 31.396 77.3508 29.6928 75.2603Z" fill="#F2244E"/>
<path d="M7.97168 92.699C7.97168 92.699 13.9313 77.999 27.3547 73.3599C27.3547 73.3319 25.652 100.049 7.97168 92.699Z" fill="#853711"/>
<path d="M27.3547 73.332C27.3547 73.332 15.2935 72.27 7.97168 92.6711C7.97168 92.6711 16.3436 75.2044 26.8155 74.9249L27.3547 73.332Z" fill="#732E16"/>
<path d="M12.626 89.0098C12.626 89.0098 13.8747 90.4351 15.6909 89.2893C17.5072 88.1435 16.4856 86.3828 16.4856 86.3828C16.4856 86.3828 16.2018 88.4229 15.2369 88.926C13.7895 89.6805 12.626 89.0098 12.626 89.0098Z" fill="#702C0A"/>
<path d="M16.7402 86.1873C16.7402 86.1873 18.3295 87.2493 19.7768 85.6563C21.2242 84.0634 19.7484 82.666 19.7484 82.666C19.7484 82.666 20.0322 84.7061 19.2376 85.4327C18.0457 86.5227 16.7402 86.1873 16.7402 86.1873Z" fill="#702C0A"/>
<path d="M16.1445 89.7088C16.1445 89.7088 17.5919 90.9384 19.2379 89.5411C20.8555 88.1437 19.5784 86.5508 19.5784 86.5508C19.5784 86.5508 19.6068 88.6188 18.727 89.2337C17.3932 90.2118 16.1445 89.7088 16.1445 89.7088Z" fill="#702C0A"/>
<path d="M11.916 91.693C11.916 91.693 13.0796 93.1742 14.981 92.1401C16.854 91.0781 15.9175 89.2896 15.9175 89.2896C15.9175 89.2896 15.5202 91.3297 14.5553 91.7768C13.0512 92.4196 11.916 91.693 11.916 91.693Z" fill="#702C0A"/>
<path d="M58.5909 66.4788C58.5909 66.4788 56.104 69.9675 53.8381 70.5064C51.5723 71.0453 27.2557 53.7152 24.1333 49.7727C21.0384 45.8302 26.0123 42.455 25.7912 39.959C25.2386 33.2936 11.5605 26.146 11.5605 26.146C11.5605 26.146 5.14978 26.0893 2.85629 39.7037C-0.100379 57.2323 48.7814 85.539 55.3027 86.4749C66.328 88.0633 76.1375 76.6896 76.1375 76.6896C79.7021 72.2082 65.7477 61.4584 58.5909 66.4788Z" fill="#AFABAA"/>
<path d="M56.7121 67.2163C56.7121 67.2163 54.2252 70.705 51.9593 71.2439C49.6934 71.7828 25.3769 54.4528 22.2544 50.5103C19.1596 46.5677 24.1334 43.1925 23.9124 40.6965C23.3597 34.0311 9.68167 26.8835 9.68167 26.8835C9.68167 26.8835 3.27095 26.8268 0.977454 40.4413C-1.97922 57.9698 46.8749 86.2481 53.4238 87.1841C64.4492 88.7725 74.2587 77.3988 74.2587 77.3988C77.8232 72.9173 63.8965 62.1676 56.7121 67.2163Z" fill="url(#paint0_linear_2001_7554)"/>
<path d="M51.9036 83.2415C44.885 81.9651 25.5975 66.9325 25.5975 66.9325C25.5975 66.9325 1.91654 50.964 4.59688 39.7037C7.30486 28.4434 10.3997 27.2805 10.3997 27.2805C10.3997 27.2805 4.92847 28.4718 2.19286 40.0724C-0.570384 51.9283 15.8709 63.8126 22.3645 68.7762C32.8096 76.7463 44.4152 83.8088 52.622 86.9855C63.5921 91.24 74.6727 76.6895 74.6727 76.6895C71.3845 80.4619 58.9222 84.5178 51.9036 83.2415Z" fill="#AFABAA"/>
<path d="M15.6236 95.8561C15.6236 95.8561 17.3525 95.8845 21.4963 89.0699C27.3964 79.4159 26.381 69.4779 31.8421 64.2534C36.4798 59.8523 36.2877 59.9659 39.5534 59.5684C41.7762 59.2844 44.4381 63.5152 44.4381 63.5152C40.3492 61.3004 39.9101 62.9189 37.9343 63.9695C37.9343 63.9695 43.7246 62.4646 45.4809 64.0546L48.6368 66.9225C42.0506 65.304 39.5808 67.1496 39.5808 67.1496C39.5808 67.1496 43.9991 68.8533 47.1824 68.257C48.8289 67.9446 52.0671 66.5533 52.0671 66.5533C52.5611 73.5383 43.6149 72.4025 41.8037 72.6865C41.8037 72.6865 46.5512 73.4531 51.875 73.3963C51.875 73.3963 51.4634 80.0974 45.5907 79.5295C41.7762 79.1604 41.0627 79.1604 39.718 78.2517C39.718 78.2517 44.7126 81.5455 50.5852 82.5109C50.5852 82.5109 49.4052 90.0353 46.167 88.5304C42.819 86.9688 41.6116 84.0725 40.5413 82.5109C40.5413 82.5109 45.2065 90.9439 44.7949 93.8685C44.3832 96.7931 41.2274 99.5474 40.5962 99.8597L38.044 92.3069C38.044 92.3069 41.3097 102.614 32.6105 105.482C32.6105 105.482 33.4337 100.74 32.1714 97.361C32.1714 97.361 33.6258 106.646 29.1801 111.445L24.5149 113.319L24.7619 110.621C24.7619 110.621 23.0605 115.704 19.246 116.016C19.246 116.016 14.4985 112.296 12.5775 109.088C12.5775 109.088 17.1604 115.647 18.1483 116.272C18.1483 116.272 16.0352 117.748 14.718 116.499C14.1417 115.931 10.4095 114.511 8.24159 111.019C5.90898 107.271 4.78384 100.967 8.1867 92.2501C8.15926 92.2501 10.4644 95.6858 15.6236 95.8561Z" fill="url(#paint1_linear_2001_7554)"/>
<g opacity="0.6">
<path opacity="0.5" d="M6.07422 101.279C6.07422 101.279 8.24217 104.232 10.3552 102.585C10.3552 102.585 15.1028 104.942 18.8624 103.04C22.622 101.137 19.3289 99.4904 19.3289 99.4904C19.3289 99.4904 22.9239 97.6732 24.9272 96.1115C21.689 96.8782 18.4507 97.1337 18.4507 97.1337C28.3575 94.2659 30.2784 88.871 30.2784 88.871L31.184 91.029C34.285 88.1044 33.6538 82.7947 33.599 82.3971C33.6264 82.6243 33.9008 84.1576 35.1906 83.7601C39.2247 82.5959 36.206 71.6357 36.206 71.6357C43.3136 73.8789 52.0951 72.9703 52.0951 72.9703C51.0798 80.8922 44.6857 79.5577 40.3498 78.5923C40.3498 78.5923 44.0271 80.5231 45.5639 81.0626C46.7439 81.4885 50.5858 82.4255 50.5858 82.4255C48.9667 92.4771 44.4936 87.5649 41.7494 83.8168C42.5177 85.3501 42.9294 86.7698 43.5606 87.8772C48.0062 95.8844 40.8438 99.4336 40.8438 99.4336C40.2126 96.8214 38.0995 91.5117 36.8097 88.7858C43.1764 102.018 32.858 105.056 32.858 105.056C34.0929 100.2 30.9645 93.0733 30.9645 93.0733C30.937 93.1301 30.9919 93.0166 30.9645 93.0733C33.0776 96.509 34.0106 105.851 29.4003 111.018L24.7351 112.892L24.982 110.195C24.982 110.195 23.3904 115.221 19.4661 115.59C19.4661 115.59 15.0479 111.672 13.8679 110.167C14.5265 111.047 17.6549 115.221 18.3959 115.845C18.3959 115.845 16.2828 117.379 14.8009 115.874C13.319 114.483 6.15655 114.539 6.07422 101.279Z" fill="#FC9549"/>
</g>
<path d="M52.0399 66.5249C52.0399 66.5249 53.2474 71.3235 46.3868 72.3741L41.7765 72.658L41.5844 72.8L36.3154 72.0902C36.3429 72.0902 50.5306 71.4939 52.0399 66.5249Z" fill="#A75124"/>
<path d="M41.3645 60.1079C41.3645 60.1079 36.0681 56.9562 30.3876 65.9288C27.2866 70.8693 26.4358 75.7531 23.4995 84.2998C20.5632 92.8464 15.6235 94.8056 8.37874 92.4489L7.61035 93.8402C7.61035 93.8402 15.4314 101.251 21.8804 91.7107C27.4238 83.5331 26.9847 71.7496 31.842 65.588C36.2328 60.0228 38.4282 61.1301 41.3645 60.1079Z" fill="#752C13"/>
<path d="M35.9868 72.0332C35.9868 72.0332 39.0878 83.0218 34.9714 84.1575C34.9714 84.1575 33.8463 84.5266 33.3798 82.7946C33.3798 82.7946 34.0109 88.6722 30.9648 91.4264L30.2239 89.4388C30.2239 89.4388 28.8243 94.2091 18.2041 97.5312C18.2041 97.5312 27.5894 94.5498 29.922 88.445C29.922 88.445 31.1844 89.7796 31.2392 90.461C31.2392 90.461 33.7914 86.7982 32.8309 81.3465C32.8309 81.3465 34.2854 84.8958 35.3831 83.1069C36.4808 81.2613 37.0845 78.9046 35.9868 72.0332Z" fill="#ED8233"/>
<path d="M34.0099 73.1406C34.0099 73.1406 35.135 75.3838 34.2569 76.264C33.3787 77.1442 31.4578 76.5763 30.4424 74.9295C30.4424 74.9295 33.269 76.7467 33.8178 75.4406C34.3941 74.106 34.0099 73.1406 34.0099 73.1406Z" fill="#ED8233"/>
<path opacity="0.6" d="M39.6085 84.186C39.6085 84.186 40.7337 86.4292 39.8555 87.3094C38.9774 88.1896 37.0564 87.6217 36.041 85.9749C36.041 85.9749 38.8676 87.7921 39.4164 86.486C39.9927 85.1798 39.6085 84.186 39.6085 84.186Z" fill="#87381D"/>
<path opacity="0.6" d="M35.9865 89.7231C35.9865 89.7231 37.1116 91.9663 36.2334 92.8465C35.3553 93.7267 33.4343 93.1588 32.4189 91.512C32.4189 91.512 35.2455 93.3292 35.7944 92.0231C36.3707 90.7169 35.9865 89.7231 35.9865 89.7231Z" fill="#87381D"/>
<path opacity="0.6" d="M22.7316 103.04C22.7316 103.04 23.8567 105.283 22.9786 106.163C22.1004 107.043 20.1794 106.475 19.1641 104.829C19.1641 104.829 21.9906 106.646 22.5395 105.34C23.1158 104.034 22.7316 103.04 22.7316 103.04Z" fill="#87381D"/>
<path opacity="0.6" d="M19.2462 106.106C19.2462 106.106 20.3714 108.35 19.4932 109.23C18.615 110.11 16.6941 109.542 15.6787 107.895C15.6787 107.895 18.5053 109.713 19.0541 108.406C19.6304 107.1 19.2462 106.106 19.2462 106.106Z" fill="#87381D"/>
<path d="M31.5126 77.116C31.5126 77.116 32.8299 78.5073 31.7322 79.9838C30.6345 81.4887 28.1647 80.7788 28 80.6652C28 80.6652 30.7442 80.6936 31.2656 79.4727C31.7596 78.2801 31.5126 77.116 31.5126 77.116Z" fill="#ED8233"/>
<path d="M34.5315 76.5198C34.5315 76.5198 35.7939 78.195 34.6962 79.8703C33.6259 81.5455 31.7324 80.0123 31.7324 80.0123C31.7324 80.0123 33.7906 80.7505 34.2297 79.3592C34.6688 77.9395 34.9157 77.0877 34.5315 76.5198Z" fill="#ED8233"/>
<path d="M28.3025 84.3567C28.3025 84.3567 29.7569 85.6628 28.7141 87.3097C27.6713 88.9565 24.5703 88.9849 24.5703 88.9849C24.5703 88.9849 26.9304 88.6442 27.9457 86.9973C28.9337 85.3505 28.3025 84.3567 28.3025 84.3567Z" fill="#ED8233"/>
<path d="M37.3867 91.0859C37.3867 91.0859 40.57 99.1215 40.5975 99.8597C40.5975 99.8597 45.2627 97.3043 44.7413 92.6476C44.7413 92.6476 44.0003 97.2475 40.9817 99.0931C40.9817 99.0647 38.5393 92.7612 37.3867 91.0859Z" fill="#D8762E"/>
<path d="M40.5693 82.7665C40.5693 82.7665 44.5759 89.3824 47.3476 88.5589C50.1193 87.7355 50.5584 82.511 50.5584 82.511C50.5584 82.511 49.1863 88.3034 47.2104 88.0762C45.262 87.8491 40.9261 83.0505 40.5693 82.7665Z" fill="#D8762E"/>
<path d="M31.8145 96.3389C31.8145 96.3389 33.4061 101.62 32.5828 105.51C32.5828 105.51 37.2481 104.346 38.236 99.6326C38.236 99.6326 36.9462 103.239 33.3512 104.914C33.3787 104.886 33.1317 98.3832 31.8145 96.3389Z" fill="#D8762E"/>
<path d="M29.126 111.445L24.4883 113.319L24.7353 110.621L24.9822 112.58L29.126 111.445Z" fill="#D8762E"/>
<path d="M13.9502 110.99C13.9502 110.99 18.7801 115.846 19.2466 116.044C19.2466 116.044 21.2224 115.988 22.4299 114.454C22.4299 114.454 20.0424 116.016 19.2191 115.448C17.2433 114.114 13.9502 110.99 13.9502 110.99Z" fill="#D8762E"/>
<path d="M22.4023 114.454C22.4023 114.454 26.9303 109.94 25.5857 100.854C25.5857 100.825 27.8908 109.883 22.4023 114.454Z" fill="#5E001E"/>
<path d="M30.6902 93.5278C30.6902 93.5278 35.6298 103.295 29.126 111.473C29.126 111.445 33.7089 103.75 30.6902 93.5278Z" fill="#5E001E"/>
<path d="M36.8091 88.8711C36.8091 88.8711 43.4776 102.188 32.583 105.482C32.583 105.482 38.4831 103.153 38.2087 97.2758C37.9343 92.0512 36.8091 88.8711 36.8091 88.8711Z" fill="#5E001E"/>
<path d="M40.6791 82.7097C40.6791 82.7097 46.1127 90.0638 44.9052 94.039C43.7252 98.0142 40.5693 99.8598 40.5693 99.8598C40.5693 99.8598 44.6034 96.2253 44.3015 92.7613C43.9996 89.2972 40.8163 82.9369 40.6791 82.7097Z" fill="#5E001E"/>
<path d="M40.3496 78.6492C40.3496 78.6492 44.9599 81.0911 50.5856 82.5108C50.5856 82.5108 50.174 85.2934 49.3507 86.0601C49.3507 86.0601 50.0368 83.391 49.7624 82.9935C49.7624 82.9651 42.1059 80.6652 40.3496 78.6492Z" fill="#5E001E"/>
<path d="M52.1221 73.0274C52.1221 73.0274 43.2307 73.0274 41.8037 72.6299C41.8037 72.6299 49.1583 73.6237 51.3811 73.5385C51.3811 73.5385 52.0946 79.2741 44.301 79.3025C44.2735 79.3309 51.1616 81.4605 52.1221 73.0274Z" fill="#5E001E"/>
<path d="M14.1965 93.3575C14.1965 93.3575 7.61035 93.8402 11.6718 84.7825C11.6718 84.7825 8.70805 90.2909 7.61035 93.8402C7.61035 93.8118 13.0439 94.1526 14.1965 93.3575Z" fill="#752C13"/>
<path d="M40.9258 62.4079C40.9258 62.4079 41.8314 62.1239 44.4384 63.5153C44.4384 63.5153 43.423 63.2313 42.3528 63.3165L40.9258 62.4079Z" fill="#5E001E"/>
<path d="M48.6371 66.8942C48.6371 66.8942 43.2035 65.077 39.5811 67.1214C39.5811 67.1214 41.2002 67.6893 42.1058 67.888C42.1058 67.888 40.7336 67.3769 40.5415 67.1214C40.5141 67.1214 44.0267 66.0708 48.6371 66.8942Z" fill="#5E001E"/>
<path d="M96.1033 94.2539C96.1033 94.2539 95.6265 76.2802 97.5791 67.349L96.1033 66.876C96.1033 66.876 93.0153 83.7646 95.3767 95.1721L96.1033 94.2539Z" fill="#4E87C3"/>
<path d="M96.5489 66.876C96.5489 66.876 93.4725 85.74 95.7798 95.6819L95.3231 97.2681C95.3231 97.2681 91.5978 89.4789 94.6742 68.4905L96.5489 66.876Z" fill="#11286B"/>
<path d="M99.588 91.8681C99.588 91.8681 98.2432 95.937 93.4951 90.6053C86.7434 83.0568 86.1122 74.1053 80.4309 70.3731C75.6279 67.2303 64.5947 66.7252 65.0339 62.6843C65.0339 62.6843 61.3561 66.1359 65.5553 68.8297C69.7545 71.4956 75.0241 70.5976 76.5336 70.6537C76.5336 70.6537 70.6877 73.1792 63.9909 68.1563C63.9909 68.1563 60.7523 72.9267 65.5553 74.2175C72.3344 76.0415 75.7926 73.7966 75.7926 73.7966C75.7926 73.7966 70.3034 76.3782 67.3667 76.3782C65.8572 76.3782 62.7559 75.6486 62.7559 75.6486C63.3871 81.8783 71.2091 79.4369 72.8559 79.3808C72.8559 79.3808 68.739 80.84 63.9635 81.6538C63.9635 81.6538 65.3632 87.5186 70.523 86.0594C73.8714 85.1334 74.5301 84.9931 75.573 83.9828C75.573 83.9828 71.6208 87.6869 66.5159 89.5109C66.5159 89.5109 68.739 95.965 71.3738 94.0849C74.1184 92.1767 74.7496 89.4267 75.4632 87.8553C75.4632 87.8553 72.8833 94.3375 72.0051 99.8655C72.0051 99.8655 74.832 101.212 76.4787 99.9497C78.1529 98.6589 79.3331 94.8426 79.3331 94.8426C79.3331 94.8426 77.8785 105.758 86.0847 106.881C86.0847 106.881 84.6301 102.84 85.2339 99.6411C85.2339 99.6411 85.3437 108.059 90.0918 111.595L94.538 112.493L93.9068 110.164C93.9068 110.164 96.1573 113.84 99.588 113.503C99.588 113.503 96.7611 109.575 97.9687 106.432C97.9687 106.432 98.0236 108.424 98.7647 110.36C99.2587 111.679 99.3959 112.437 100.357 113.812C100.357 113.812 102.278 113.924 103.677 113.139C104.693 112.577 107.273 111.23 108.673 107.807C110.182 104.131 117.839 90.2125 107.575 75.1716C107.657 75.1997 110.319 89.1742 99.588 91.8681Z" fill="#D8762E"/>
<g opacity="0.6">
<path d="M109.388 98.4909C109.388 98.4909 102.032 104.131 102.663 100.539C102.663 100.539 100.962 104.187 97.3114 103.121C93.6612 102.055 97.037 99.473 97.037 99.473C97.037 99.473 91.7674 102.139 92.3712 99.894C93.1397 96.9195 97.4761 97.2562 97.4761 97.2562C88.172 96.3302 85.6196 91.8965 85.6196 91.8965L85.1255 93.973C81.9144 91.8965 81.6399 87.1261 81.6399 86.7332C81.6399 86.9296 81.6399 88.3327 80.4323 88.1924C76.6723 87.8276 77.6603 77.6414 77.6603 77.6414C71.6497 80.7562 63.6904 81.4296 63.6904 81.4296C65.8312 88.2485 71.3203 86.0317 75.053 84.4603C75.053 84.4603 72.0614 86.7893 70.7714 87.4909C69.7834 88.0521 66.5173 89.5113 66.5173 89.5113C69.5364 98.1261 72.7475 93.047 74.6138 89.3149C74.1747 90.8021 72.8573 97.5649 72.0339 99.894C72.0339 99.894 74.9432 100.876 76.3704 100.062C78.4288 98.8838 79.0875 95.5164 79.8285 92.9067C76.2057 105.618 85.8666 106.629 85.8666 106.629C84.0003 102.532 85.7019 95.7409 85.7019 95.7409C85.647 95.7128 85.7294 95.797 85.7019 95.7409C84.3296 99.1363 84.9609 107.527 89.8462 111.315L94.2924 112.213L93.6612 109.884C93.6612 109.884 95.1432 112.157 96.5979 113.139C97.4761 113.728 98.2995 113.616 99.6169 113.476C99.6169 113.476 96.1587 109.238 97.9976 106.404C97.7506 106.797 98.4916 110.192 100.385 113.784C100.385 113.784 101.181 113.812 102.993 113.391C104.2 113.167 109.744 110.473 109.388 98.4909Z" fill="#87381D"/>
</g>
<path d="M62.7569 75.6768C62.7569 75.6768 62.4275 80.1104 68.7126 79.914L72.8843 79.4089L73.0765 79.4931L77.6873 78.0058C77.6325 78.0339 64.8702 79.8298 62.7569 75.6768Z" fill="#A75124"/>
<path d="M77.9344 77.9216C77.9344 77.9216 75.9583 87.0135 79.5537 88.4727C79.8556 88.613 81.5572 89.1461 81.7219 87.5467C81.7219 87.5467 82.6276 94.8707 84.7135 94.2252C85.1526 94.0849 85.7564 92.3451 85.7564 92.3451C85.7564 92.3451 87.7325 96.3298 97.7228 97.5365C97.7228 97.5365 88.8853 96.4421 85.8662 91.4191C85.8662 91.4191 84.9331 92.7941 85.0154 93.4115C85.0154 93.4115 82.1885 90.5773 82.1885 85.6385C82.1885 85.6385 81.4475 89.0058 80.185 87.6028C78.9225 86.1717 78.0168 84.1793 77.9344 77.9216Z" fill="#ED8233"/>
<path d="M79.8827 78.5955C79.8827 78.5955 79.224 80.7562 80.1297 81.4016C81.0354 82.0189 82.6821 81.2052 83.3134 79.6057C83.3134 79.6057 81.0628 81.6822 80.3767 80.5878C79.6906 79.5215 79.8827 78.5955 79.8827 78.5955Z" fill="#ED8233"/>
<path opacity="0.6" d="M76.5897 89.2585C76.5897 89.2585 75.931 91.4193 76.8367 92.0647C77.7424 92.682 79.3892 91.8682 80.0204 90.2688C80.0204 90.2688 77.7699 92.3453 77.0837 91.2509C76.3976 90.1846 76.5897 89.2585 76.5897 89.2585Z" fill="#87381D"/>
<path opacity="0.6" d="M80.6522 93.552C80.6522 93.552 79.9935 95.7127 80.8992 96.3581C81.8049 96.9755 83.4517 96.1617 84.0829 94.5622C84.0829 94.5622 81.8324 96.6387 81.1462 95.5444C80.4601 94.478 80.6522 93.552 80.6522 93.552Z" fill="#87381D"/>
<path opacity="0.6" d="M94.5663 103.149C94.5663 103.149 93.9076 105.31 94.8133 105.955C95.719 106.572 97.3657 105.759 97.997 104.159C97.997 104.159 95.7464 106.236 95.0603 105.141C94.3742 104.075 94.5663 103.149 94.5663 103.149Z" fill="#87381D"/>
<path opacity="0.6" d="M101.347 107.919C101.347 107.919 100.688 110.08 101.594 110.726C102.499 111.343 104.146 110.529 104.777 108.93C104.777 108.93 102.527 111.006 101.841 109.912C101.154 108.845 101.347 107.919 101.347 107.919Z" fill="#87381D"/>
<path opacity="0.6" d="M102.031 104.131C102.031 104.131 101.372 106.292 102.278 106.937C103.184 107.555 104.831 106.741 105.462 105.141C105.462 105.141 103.211 107.218 102.525 106.123C101.839 105.057 102.031 104.131 102.031 104.131Z" fill="#87381D"/>
<path opacity="0.6" d="M105.215 102.307C105.215 102.307 104.556 104.468 105.462 105.113C106.367 105.731 108.014 104.917 108.645 103.317C108.645 103.317 106.395 105.394 105.709 104.299C105.023 103.233 105.215 102.307 105.215 102.307Z" fill="#87381D"/>
<path opacity="0.6" d="M105.682 105.646C105.682 105.646 105.024 107.807 105.929 108.453C106.835 109.07 108.482 108.256 109.113 106.657C109.113 106.657 106.863 108.733 106.177 107.639C105.49 106.573 105.682 105.646 105.682 105.646Z" fill="#87381D"/>
<path opacity="0.6" d="M87.6493 97.0037C87.6493 97.0037 86.9906 99.1644 87.8963 99.8098C88.802 100.427 90.4487 99.6134 91.08 98.0139C91.08 98.0139 88.8294 100.09 88.1433 98.996C87.4572 97.9297 87.6493 97.0037 87.6493 97.0037Z" fill="#87381D"/>
<path d="M82.7372 81.6819C82.7372 81.6819 81.7766 83.113 82.9842 84.2635C84.1918 85.414 86.3051 84.3758 86.4149 84.2355C86.4149 84.2355 83.9722 84.7125 83.3135 83.7304C82.6823 82.7482 82.7372 81.6819 82.7372 81.6819Z" fill="#ED8233"/>
<path d="M79.9385 81.6538C79.9385 81.6538 79.0877 83.3375 80.2953 84.6283C81.5304 85.9191 82.9576 84.2635 82.9576 84.2635C82.9576 84.2635 81.2285 85.2457 80.6247 84.0951C80.0483 82.9446 79.6915 82.215 79.9385 81.6538Z" fill="#ED8233"/>
<path d="M86.7173 87.575C86.7173 87.575 85.6195 88.978 86.7997 90.2688C87.9798 91.5597 90.7793 91.0546 90.7793 91.0546C90.7793 91.0546 88.6385 91.1387 87.4584 89.8479C86.2782 88.529 86.7173 87.575 86.7173 87.575Z" fill="#ED8233"/>
<path d="M101.758 96.0216C101.758 96.0216 102.334 97.7052 104.036 97.3685C105.737 97.0318 106.78 94.3379 106.78 94.3379C106.78 94.3379 105.71 96.2461 104.036 96.5828C102.362 96.8915 101.758 96.0216 101.758 96.0216Z" fill="#ED8233"/>
<path d="M104.255 93.0745C104.255 93.0745 104.831 94.7582 106.533 94.4215C108.235 94.0848 109.277 91.3909 109.277 91.3909C109.277 91.3909 108.207 93.299 106.533 93.6358C104.859 93.9725 104.255 93.0745 104.255 93.0745Z" fill="#ED8233"/>
<path d="M106.78 94.4781C106.78 94.4781 107.357 96.1618 109.058 95.8251C110.76 95.4883 111.803 92.7944 111.803 92.7944C111.803 92.7944 110.732 94.7026 109.058 95.0393C107.357 95.348 106.78 94.4781 106.78 94.4781Z" fill="#ED8233"/>
<path d="M104.31 98.1258C104.31 98.1258 104.886 99.8095 106.588 99.4728C108.289 99.136 109.332 96.4421 109.332 96.4421C109.332 96.4421 108.262 98.3503 106.588 98.687C104.913 99.0238 104.31 98.1258 104.31 98.1258Z" fill="#ED8233"/>
<path d="M96.9551 95.2076C96.9551 95.2076 97.5314 96.8913 99.2331 96.5545C100.935 96.2178 101.978 93.5239 101.978 93.5239C101.978 93.5239 100.907 95.4321 99.2331 95.7688C97.5589 96.1056 96.9551 95.2076 96.9551 95.2076Z" fill="#ED8233"/>
<path d="M97.4482 98.8556C97.4482 98.8556 98.0246 100.539 99.7262 100.202C101.428 99.8658 102.471 97.1719 102.471 97.1719C102.471 97.1719 101.4 99.08 99.7262 99.4168C98.052 99.7255 97.4482 98.8556 97.4482 98.8556Z" fill="#ED8233"/>
<path d="M75.4914 88.1362C75.4914 88.1362 72.9389 94.6465 70.3316 94.3658C67.7242 94.0852 66.5166 89.5393 66.5166 89.5393C66.5166 89.5393 68.6299 94.422 70.359 93.9169C72.0881 93.4118 75.2169 88.473 75.4914 88.1362Z" fill="#D8762E"/>
<path d="M85.4003 98.6873C85.4003 98.6873 84.7965 103.626 86.1139 106.909C86.1139 106.909 81.7775 106.657 80.1582 102.644C80.1582 102.644 81.8598 105.618 85.318 106.516C85.3454 106.488 84.5495 100.708 85.4003 98.6873Z" fill="#D8762E"/>
<path d="M90.1484 111.623L94.5946 112.493L93.9634 110.164L94.0183 111.932L90.1484 111.623Z" fill="#D8762E"/>
<path d="M96.6258 113.167C96.6258 113.167 91.8777 109.912 91.6856 101.662C91.6856 101.662 90.9994 110.024 96.6258 113.167Z" fill="#5E001E"/>
<path d="M85.9763 96.021C85.9763 96.021 83.067 105.45 90.1206 111.595C90.148 111.623 84.851 105.562 85.9763 96.021Z" fill="#5E001E"/>
<path d="M79.8008 92.9346C79.8008 92.9346 75.9035 105.759 86.1133 106.909C86.1133 106.909 80.4869 105.815 79.8282 100.595C79.2793 95.9091 79.8008 92.9346 79.8008 92.9346Z" fill="#5E001E"/>
<path d="M75.0522 84.488C75.0522 84.488 71.3196 87.3784 66.5166 89.5671C66.5166 89.5671 67.3125 91.9523 68.1633 92.4855C68.1633 92.4855 67.1204 90.2406 67.3125 89.8477C67.3125 89.8477 73.8172 86.5646 75.0522 84.488Z" fill="#5E001E"/>
<path d="M63.6904 81.4577C63.6904 81.4577 71.6222 79.9985 72.8573 79.4373C72.8573 79.4373 66.435 81.5138 64.4589 81.7944C64.4589 81.7944 64.7059 86.9857 71.6497 85.723C71.6497 85.723 65.8312 88.7255 63.6904 81.4577Z" fill="#5E001E"/>
<path d="M63.9916 68.1846C63.9916 68.1846 62.8389 70.233 62.9212 71.5519C63.0859 73.7968 67.9438 77.6412 75.7932 73.853C75.7932 73.853 66.8185 75.1438 65.2815 71.7203C65.2815 71.7203 64.7326 70.682 65.5011 69.1948L63.9916 68.1846Z" fill="#87381D"/>
<path d="M65.0341 62.7124C65.0341 62.7124 63.552 64.34 63.5795 65.3782C63.6069 66.4165 63.3325 69.1384 69.7273 70.4573C73.6521 71.2711 76.5339 70.6537 76.5339 70.6537C76.5339 70.6537 67.0651 69.0543 65.2537 66.5849C64.4852 65.5747 64.5126 63.7507 65.0341 62.7124Z" fill="#87381D"/>
<path d="M71.2648 66.9492C70.9629 66.8774 70.6884 66.8055 70.4414 66.7815C70.4414 66.7815 70.7433 66.8534 71.2648 66.9492Z" fill="#FC9549"/>
<path d="M103.321 67.8475L100.302 67.5107C105.242 71.1306 111.088 81.7097 103.651 87.799C99.8355 90.9138 94.319 92.6256 91.0255 86.7327C87.0733 79.6613 85.701 75.3679 82.0233 71.6357C79.7453 69.3066 73.5151 67.5668 71.292 67.0056C73.8444 67.7352 78.7572 69.9521 80.6784 71.5796C86.0303 76.1536 86.4969 87.799 93.6054 93.0184C97.7497 96.0491 106.917 89.174 107.356 88.5848C114.382 80.475 103.321 67.8475 103.321 67.8475Z" fill="#FC9549"/>
<path d="M75.2498 88.8843C75.2498 88.8843 72.2507 95.8364 71.8145 100.774C71.8145 100.774 75.0317 102.675 76.9675 100.15C76.9675 100.15 74.8136 101.71 72.4688 100.433C72.4415 100.462 73.9956 91.353 75.2498 88.8843Z" fill="#5E001E"/>
<defs>
<linearGradient id="paint0_linear_2001_7554" x1="-3.24226" y1="85.8559" x2="72.3711" y2="93.7672" gradientUnits="userSpaceOnUse">
<stop stop-color="white"/>
<stop offset="1" stop-color="#D8CAC5"/>
</linearGradient>
<linearGradient id="paint1_linear_2001_7554" x1="6.0249" y1="116.998" x2="52.0624" y2="116.998" gradientUnits="userSpaceOnUse">
<stop offset="0.01" stop-color="#87381D"/>
<stop offset="1" stop-color="#C25E15"/>
</linearGradient>
</defs>
</svg>
