<svg width="235" height="302" viewBox="0 0 235 302" fill="none" xmlns="http://www.w3.org/2000/svg">
<path opacity="0.5" d="M232.898 255.089C232.898 255.341 232.898 255.643 232.898 255.895C232.847 268.951 228.815 281.452 217.372 288.761C206.736 295.566 193.076 295.415 181.13 298.237C168.427 301.262 155.724 300.909 142.568 301.06C120.439 301.262 98.3612 300.657 76.2325 300.657C55.4648 300.657 35.6044 295.717 18.8188 282.964C-0.89031 267.993 -7.29201 237.144 15.5928 222.627C27.2872 215.217 41.1492 211.638 54.9103 211.184C67.8649 210.731 80.7187 215.015 93.6733 214.007C106.073 213.049 118.574 209.975 130.924 208.261C162.681 203.926 232.091 211.89 232.898 255.089Z" fill="#9C9B9B"/>
<path d="M163.991 107.547C148.063 106.489 134.15 113.395 121.548 123.476C121.498 123.526 121.397 123.577 121.347 123.627C121.296 123.728 121.246 123.778 121.145 123.829C121.044 123.93 120.893 124.031 120.792 124.131C120.742 124.182 120.641 124.283 120.591 124.333C120.44 124.484 120.288 124.585 120.188 124.736C119.885 124.988 119.532 125.291 119.23 125.543V125.644H119.179C117.718 126.752 116.205 127.912 114.744 129.021C114.744 129.071 114.693 129.122 114.643 129.122V129.222L114.542 129.172C111.971 130.936 109.35 132.701 106.779 134.465C106.527 134.666 106.225 134.868 105.973 135.07C104.914 135.775 103.856 136.481 102.747 137.136C102.192 137.489 101.638 137.842 101.083 138.195C100.277 138.699 99.4702 139.203 98.6637 139.707C97.2523 140.564 95.8409 141.371 94.4799 142.227C94.4295 142.328 94.3287 142.328 94.2279 142.328C94.0262 142.429 93.8246 142.53 93.623 142.681C93.5222 142.782 93.3709 142.832 93.2701 142.933C93.1189 143.034 93.0181 143.084 92.8669 143.185C92.6652 143.336 92.4132 143.437 92.2116 143.588C92.0604 143.689 91.9091 143.74 91.7579 143.84L91.7075 143.891H91.6067C91.2538 144.093 90.9514 144.294 90.5986 144.546C79.3074 151.855 67.1089 156.694 54.1543 160.122C40.9476 163.6 26.9849 166.624 16.1474 175.446C8.38467 181.747 2.83989 190.82 0.773203 200.599C0.168318 203.422 -0.134124 206.446 0.773203 209.218C2.13419 213.453 7.47734 215.822 10.905 218.292C41.4013 240.269 80.4667 245.915 116.961 239.261C150.18 233.212 181.079 217.838 209.408 199.49C208.652 203.522 207.896 207.505 207.14 211.537C207.644 208.866 216.011 202.867 218.028 200.498C221.354 196.617 224.48 192.534 227.252 188.249C229.319 185.023 229.974 187.543 231.133 183.612C232.948 177.512 227.504 159.416 224.883 154.325C220.649 146.008 215.406 139.556 209.257 132.499C199.226 120.956 185.918 111.782 170.897 108.656C168.528 108.001 166.26 107.699 163.991 107.547Z" fill="#6AC2C3"/>
<path d="M232.142 177.513C231.486 174.237 230.68 170.96 229.571 167.533C228.462 164.004 227.807 160.375 226.395 156.947C225.185 153.973 222.564 151.654 221.506 148.781C218.733 153.872 219.136 160.173 217.826 165.668C215.507 175.447 213.793 184.772 207.039 192.938C203.561 197.122 199.831 201.305 195.899 205.136C189.8 211.084 183.6 214.814 175.988 218.696C173.165 220.158 170.292 221.519 167.419 222.829C164.999 223.938 162.529 224.946 160.11 225.954C158.346 226.711 156.581 227.416 154.767 228.072C153.154 228.676 151.44 229.13 149.827 229.735C148.768 230.138 147.811 230.693 146.752 231.046C144.282 231.902 141.862 232.659 139.393 233.415C135.864 234.473 132.336 235.532 128.807 236.49C127.396 236.893 125.934 236.893 124.472 237.195C123.111 237.498 121.851 238.002 120.49 238.254C117.566 238.808 114.643 239.212 111.719 239.665C108.947 240.068 106.124 240.522 103.301 240.875C100.831 241.177 98.3612 241.379 95.8912 241.53C92.6652 241.681 89.4895 241.833 86.2635 241.833C82.987 241.833 79.7106 241.782 76.4341 241.48C72.8552 241.127 69.2763 240.522 65.647 239.968C63.2779 239.615 60.9087 239.413 58.5396 238.909C55.7168 238.304 52.9444 237.498 50.172 236.691C48.1558 236.086 46.2403 234.977 44.2744 234.725C40.8971 234.221 37.8223 232.507 34.6467 231.398C32.2775 230.592 30.0596 229.231 27.7913 228.072C25.523 226.912 23.2547 225.854 21.0368 224.543C17.6091 222.476 14.1814 220.359 10.8545 217.99C7.17483 215.369 2.99105 210.53 0.0170294 205.54C-0.0333777 205.489 0.0170286 206.699 0.319471 211.034C1.52924 228.979 8.98948 244.454 18.1132 260.937C23.91 271.321 31.219 282.057 41.9557 287.149C46.946 289.518 53.1965 291.836 58.7412 291.937C66.5039 292.038 74.317 291.988 82.0797 291.988C109.148 292.038 136.267 292.089 163.336 292.139C169.435 292.139 175.534 292.139 181.533 291.282C187.834 290.375 193.177 288.258 198.822 285.435C200.133 284.628 201.494 283.822 202.805 283.015C205.375 280.949 207.997 278.882 210.567 276.815C210.567 276.714 210.618 276.664 210.719 276.614C210.819 276.513 210.971 276.412 211.071 276.362C212.332 275.001 213.592 273.69 214.801 272.329C215.054 271.976 215.356 271.674 215.608 271.321C216.566 270.01 217.574 268.7 218.532 267.389C218.733 267.137 218.884 266.885 219.086 266.583C220.245 264.717 221.405 262.802 222.514 260.937C223.169 259.677 223.774 258.417 224.429 257.207C225.236 255.342 226.042 253.527 226.849 251.662C226.899 251.511 227 251.309 227.05 251.158L227 251.057L227.101 251.007C227.151 250.856 227.202 250.704 227.302 250.503C227.302 250.452 227.252 250.402 227.252 250.351C227.302 250.301 227.353 250.251 227.403 250.15C227.403 250.049 227.454 249.948 227.504 249.898C227.706 249.293 227.958 248.638 228.159 248.033C228.21 247.932 228.21 247.831 228.26 247.73C229.016 245.059 229.823 242.387 230.579 239.665L230.629 239.564C230.68 239.262 230.781 239.01 230.831 238.707V238.657C230.932 238.355 230.982 238.052 231.083 237.75C231.184 237.195 231.285 236.641 231.385 236.137C231.486 235.784 231.537 235.381 231.637 235.028C231.688 234.776 231.738 234.524 231.789 234.272C231.94 233.566 232.041 232.81 232.192 232.104C232.242 231.802 232.293 231.449 232.343 231.146C232.343 231.046 232.293 230.945 232.293 230.844C232.898 224.291 233.502 217.738 234.158 211.185C234.259 209.975 234.41 208.816 234.561 207.606C234.561 206.044 234.561 204.481 234.561 202.918C234.46 202.666 234.259 202.414 234.259 202.162C234.208 200.549 234.208 198.936 234.158 197.323C233.956 190.468 233.452 184.066 232.142 177.513Z" fill="#42B7AF"/>
<path d="M76.1819 222.022C81.3235 224.845 86.0617 228.424 91.9594 229.634C97.2521 230.692 102.898 230.39 108.442 230.138C112.374 229.936 116.205 228.575 120.137 228.676C123.615 228.777 126.639 229.634 130.218 229.231C136.418 228.575 143.627 226.559 145.895 220.057C147.306 215.974 145.996 212.647 150.482 209.824C156.38 206.094 163.84 209.522 169.586 211.941C170.897 212.496 180.827 217.083 180.121 218.746C182.289 213.403 177.803 210.328 174.022 207.505C171.703 205.791 167.57 203.977 166.915 200.852C166.007 196.365 168.931 196.113 172.207 197.021C177.399 198.482 182.944 207.304 188.438 206.9C186.473 202.616 182.39 200.196 179.164 196.869C175.938 193.643 174.627 190.921 180.071 190.115C184.204 189.51 186.926 191.98 190.404 193.492C197.159 196.416 197.562 192.635 194.336 187.695C190.102 181.294 190.354 177.412 189.699 169.599C188.993 161.131 185.716 151.503 180.172 144.95C169.838 132.752 155.271 128.971 140.249 127.056C133.293 126.148 125.631 125.896 120.086 130.584C114.29 135.474 108.644 140.313 102.142 144.547C92.2114 151.049 81.2227 156.191 74.2665 166.171C71.2925 170.456 70.4355 174.64 66.403 178.269C62.5216 181.747 57.7834 184.167 53.2971 186.738C46.1393 190.871 40.5946 198.533 44.3751 206.598C48.6597 215.822 58.3378 216.78 67.0079 218.343C70.4355 219.149 73.3591 220.46 76.1819 222.022Z" fill="#42B7AF"/>
<path d="M72.6536 135.927C70.5869 139.657 69.2259 143.841 68.5706 147.974C67.26 156.644 67.9153 164.054 69.9316 172.321C70.2844 173.631 77.1398 188.199 78.0975 186.939C85.457 177.26 95.0343 169.195 103.503 160.475C108.997 154.779 114.592 149.033 120.137 143.437C118.826 138.195 112.072 136.33 107.989 133.759C102.948 130.634 97.8571 123.779 92.4636 121.863C87.1708 119.998 79.2065 127.156 75.9804 130.936C74.7707 132.449 73.6113 134.112 72.6536 135.927Z" fill="#80152E"/>
<path d="M231.083 233.414C232.898 226.055 233.452 217.284 233.805 209.622C234.057 204.027 233.15 196.567 233.855 191.627C231.889 197.424 230.68 203.876 229.067 209.773C225.992 220.813 220.85 231.701 213.441 240.522C209.71 244.958 205.275 248.99 200.083 251.662C195.244 254.182 189.85 254.132 185.162 256.45C189.447 252.115 192.774 243.244 193.832 237.447C186.674 243.748 181.13 252.115 172.964 257.66C167.016 261.693 160.211 264.213 153.658 267.187C155.17 264.818 156.884 262.398 157.64 259.576C149.625 263.104 144.484 270.665 135.662 273.589C127.194 276.412 118.07 276.865 109.199 276.865C89.0359 276.865 70.5365 272.833 51.8859 265.322C46.4419 263.155 41.6533 259.676 36.9654 256.249C31.9247 252.569 27.136 250.049 22.0953 246.621C19.1213 244.605 16.2985 242.236 13.5765 239.816C10.8042 237.397 7.07403 233.767 4.35205 231.146C4.80571 234.826 6.92281 239.413 8.08217 242.891C9.39276 246.722 10.7033 250.603 12.3164 254.283C13.7278 257.559 15.5928 260.533 17.2563 263.659C19.6254 268.044 22.6498 271.825 25.8759 275.252C27.7913 277.319 29.9588 279.033 32.0759 280.797C33.7898 282.208 35.6548 283.418 37.5199 284.628C57.4307 297.431 83.8944 291.987 106.073 291.987C130.269 291.987 154.464 291.987 178.66 291.937C180.575 291.937 182.541 291.433 184.406 290.828C188.035 289.618 191.665 288.409 195.143 286.795C197.663 285.636 199.982 283.821 202.401 282.259C215.003 273.841 224.228 257.005 228.512 242.74C228.966 240.925 230.075 237.397 231.083 233.414Z" fill="#0B9182"/>
<path d="M117.012 135.019C115.399 135.17 110.156 129.071 110.156 129.071C110.156 129.071 110.913 130.331 109.249 133.356C107.636 136.38 96.3449 137.842 96.3449 137.842L95.236 134.969C87.7757 144.647 58.3884 129.979 58.3884 129.979C60.6568 125.341 69.1251 116.721 69.1251 116.721C67.0584 119.544 59.0437 124.736 54.5575 124.232C50.1217 123.728 46.2907 116.772 46.2907 116.772C48.5591 116.57 55.7169 107.951 55.7169 107.951C54.8095 108.959 49.3152 111.933 43.9216 111.983C38.5281 112.134 35.2516 103.162 35.2516 103.162C40.6956 103.162 51.7347 94.8448 51.7347 94.8448C33.0337 101.247 33.2353 88.0903 33.2353 88.0903C44.1232 93.131 46.3916 75.8918 53.3477 72.7161C60.4551 69.4397 65.9495 83.0495 67.6633 87.939C70.9398 97.1131 77.3415 105.632 85.205 111.328C100.075 122.065 113.433 113.294 113.433 113.294C117.97 122.367 117.012 135.019 117.012 135.019Z" fill="#5E1424"/>
<path d="M118.473 134.112C116.86 134.263 111.618 128.164 111.618 128.164C111.618 128.164 112.374 129.424 110.711 132.449C109.098 135.473 97.8065 136.935 97.8065 136.935L96.6975 134.062C90.4975 144.244 59.0434 129.878 59.0434 129.878C61.9671 124.888 70.6371 115.814 70.6371 115.814C68.52 118.637 60.5557 123.829 56.0694 123.325C51.6336 122.821 45.988 114.201 45.988 114.201C48.2563 114 57.3296 107.044 57.3296 107.044C56.3719 108.052 50.9279 111.026 45.5344 111.076C40.1408 111.227 34.6464 101.348 34.6464 101.348C40.0904 101.348 53.3475 93.9882 53.3475 93.9882C32.7814 102.457 33.3863 88.1914 33.3863 88.1914C33.3359 89.5019 43.0644 86.78 44.0222 85.671C45.1311 84.3604 45.5848 81.6888 46.5425 80.0758C47.7019 78.1604 49.0629 76.3961 50.5247 74.6823C54.5068 70.0952 57.4304 66.6675 63.3785 70.4985C67.3102 73.0188 70.6875 77.9587 72.5021 82.1929C76.2827 91.1654 80.8697 101.902 88.7332 108.203C94.3284 112.689 115.651 112.941 115.651 112.941C121.649 121.46 118.473 134.112 118.473 134.112Z" fill="#F6A145"/>
<path d="M116.81 113.345C100.428 129.525 86.4146 150.394 78.6015 172.019C77.4925 175.093 76.4844 178.269 75.6779 181.445C75.0226 183.965 75.2746 187.141 74.3169 189.459C72.5527 193.694 66.4534 194.046 62.7737 195.659C60.455 196.668 56.4224 199.188 55.3135 201.607C54.2045 204.128 56.372 206.951 58.2875 208.664C62.3704 212.344 68.6209 213.352 73.4096 215.923C80.4666 219.704 86.3642 223.585 94.5301 224.391C100.781 225.047 106.829 223.938 112.929 222.627C121.649 220.762 128.656 217.385 134.705 210.933C140.552 204.733 144.736 197.02 147.609 189.056C150.986 179.832 152.7 170.103 153.557 160.324C154.111 153.973 154.212 147.622 154.061 141.27C154.01 139.103 153.708 119.545 152.397 119.293C152.448 119.343 116.81 113.345 116.81 113.345Z" fill="#0B9182"/>
<path d="M121.397 187.745C121.397 187.745 95.5887 202.968 94.5302 214.36C94.5302 214.36 104.561 215.923 112.626 243.596C114.542 250.351 120.339 261.894 137.477 262.348C147.054 261.995 163.386 266.531 166.411 271.018C166.411 271.018 203.409 216.528 207.644 193.592L121.397 187.745Z" fill="#80152E"/>
<path d="M203.712 208.362C203.712 208.362 201.141 266.229 187.179 281.452C187.179 281.452 156.985 274.748 150.281 272.127C150.281 272.127 200.133 210.025 206.384 195.508L203.712 208.362Z" fill="#E52F52"/>
<path d="M188.187 223.08C188.187 223.08 156.834 263.809 150.432 272.076L162.378 276.36L153.708 271.168L188.187 223.08Z" fill="#EC708B"/>
<path d="M65.7489 87.1259C65.5128 87.0243 65.2768 86.9226 65.0278 86.7509C64.2836 87.8296 63.5521 88.9785 62.8079 90.0572C61.4467 92.1189 59.4213 95.4982 58.7629 96.4525C58.7629 96.4525 59.9806 96.374 64.93 89.378C65.3021 88.8386 65.7888 88.1333 66.3613 87.3035C66.1381 87.272 65.9435 87.1989 65.7489 87.1259Z" fill="#70462A"/>
<path d="M63.3644 89.3388C63.1354 89.6707 62.935 89.9612 62.706 90.2931C61.3605 92.2431 59.3924 95.5395 58.7626 96.4523C58.7626 96.4523 59.9102 96.3867 64.5576 89.9171C64.1842 89.6595 63.8108 89.4019 63.3644 89.3388Z" fill="#1E1F1D"/>
<path d="M130.663 20.8232C131.34 19.5756 131.599 18.2235 131.54 16.7125C131.457 14.8795 130.393 13.2266 129.437 11.7712C129.831 12.5325 129.743 13.6357 129.409 14.3854C128.257 17.3872 125.18 19.1838 122.444 20.6642C121.415 21.1791 120.415 21.6525 119.29 22.04C118.545 22.3218 117.745 22.5048 116.97 22.828C116.295 23.0969 115.604 23.4773 114.983 23.845C112.871 24.776 110.921 26.0033 109.206 27.514C109.234 27.4725 109.234 27.4725 109.263 27.431C109.788 26.936 110.342 26.3996 110.909 25.9332C111.701 25.3167 112.59 24.8275 113.52 24.3669C114.549 23.852 115.549 23.3786 116.537 22.8351C116.636 22.7807 116.61 22.6405 116.511 22.6948C114.664 23.6861 112.599 24.2823 110.873 25.5411C110.293 25.9374 109.797 26.3909 109.3 26.8444C109.415 26.6784 109.558 26.471 109.672 26.305C110.169 25.8515 110.707 25.4266 111.245 25.0018C111.853 24.564 112.503 24.1549 113.207 23.8446C113.306 23.7902 113.28 23.65 113.181 23.7044C112.28 24.1234 111.461 24.5997 110.627 25.1877C111.579 24.2521 112.639 23.5139 113.837 22.9318C114.232 22.7144 114.64 22.5671 115.076 22.3783C113.734 22.3709 112.405 22.4336 111.088 22.5664C110.215 22.944 109.425 23.3788 108.635 23.8136C107.224 24.6161 105.951 25.5745 104.703 26.6732C103.894 27.4013 103.293 28.2726 102.567 29.058C102.182 29.5273 101.769 30.038 101.467 30.5645C101.123 31.0624 100.971 31.815 100.573 32.2141C100.515 31.5001 100.753 30.623 101 29.9978C101.952 27.2865 104.504 24.2091 107.654 23.9937C106.844 23.9249 105.974 24.1207 105.187 24.3738C103.093 25.0116 101.147 26.0572 99.5714 27.5421C98.7055 28.3532 98.0185 29.349 97.3887 30.2618C96.673 31.299 95.986 32.2948 95.4235 33.3764C95.0928 33.9444 94.8323 34.4995 94.5846 35.1248C94.3527 35.6384 94.2424 36.4197 93.9275 36.8761C92.8616 36.2019 92.623 34.5062 92.9623 33.3931C93.3905 31.9737 94.5683 30.8879 95.7017 29.9552C96.2685 29.4889 96.9053 29.0096 97.6351 28.8395C96.7165 28.5732 95.3885 29.4329 94.64 29.8963C93.229 30.6988 92.064 31.8547 91.0235 33.0965C90.5112 33.6616 90.1519 34.2711 89.764 34.9221C89.0741 36.0995 88.6617 37.4073 88.1377 38.6993C87.8901 39.3245 87.754 39.9655 87.5764 40.5779C87.3416 41.2733 87.0653 41.94 86.8305 42.6354C86.5356 43.5954 86.2821 44.5841 86.0158 45.5027C85.5433 47.0752 85.0135 48.7306 84.1103 50.1284C84.285 49.6977 84.4883 49.2256 84.6214 48.7663C85.2657 46.9449 85.8399 45.1364 86.3725 43.2992C86.6832 42.2275 86.9653 41.1974 87.359 40.1829C87.3748 40.0713 87.2346 40.0971 87.1773 40.18C86.4915 41.9728 85.8888 43.8228 85.2445 45.6442C84.835 46.7702 84.4671 47.9249 84.0576 49.0509C84.3654 48.161 84.5903 47.2138 84.8151 46.2666C85.4295 43.6897 86.0567 41.1829 87.1719 38.7678C87.4324 38.2126 87.7216 37.616 88.0236 37.0895C87.2121 37.9994 86.4421 38.9379 85.6721 39.8764C85.5862 40.0009 85.5289 40.0838 85.4016 40.1797C84.0719 42.0181 82.8796 44.0125 81.9934 46.0957C81.7171 46.7625 81.4122 47.4707 81.1774 48.166C80.9712 48.8199 80.7779 49.5439 80.6132 50.2264C80.3726 51.2852 80.1449 52.4141 79.9458 53.5016C79.9731 52.6631 80.0706 51.8117 80.2096 50.989C80.5476 49.0788 81.1919 47.2574 81.9893 45.4804C82.4245 44.4946 82.9011 43.5375 83.4193 42.6089C83.4766 42.5259 83.3649 42.5102 83.3077 42.5932C82.8182 43.4802 82.3157 44.2972 81.8262 45.1842C81.3653 46.0298 80.9873 46.9326 80.6094 47.8354C79.9523 49.5867 79.6013 51.4267 79.4321 53.2697C79.4566 52.6129 79.481 51.9561 79.5756 51.2865C79.8149 49.4307 80.319 47.635 81.0462 45.8709C80.6455 46.4517 80.2032 47.004 79.8024 47.5848C79.5448 47.9582 79.3158 48.2902 79.0167 48.6349C78.6989 49.273 78.4512 49.8983 78.2164 50.5937C77.7555 51.4392 77.4062 52.3005 77.1813 53.2477C76.9536 54.3767 76.8661 55.4799 76.8201 56.6117C76.7827 57.1983 76.7869 57.8136 76.7496 58.4003C76.7396 58.1484 76.7297 57.8966 76.7197 57.6448C76.6757 56.0221 76.7018 54.3866 77.034 52.8399C77.2016 51.9757 77.4522 51.1687 77.7729 50.3489C77.8301 50.2659 77.6484 50.263 77.6327 50.3746C77.2991 51.1243 77.0357 51.8612 76.8137 52.6267C76.6204 53.3506 76.4686 54.1033 76.4284 54.8716C76.3309 55.723 76.3736 56.5486 76.3878 57.4158C76.4019 58.2829 76.4862 59.1371 76.6405 59.9785C76.7177 60.3992 76.782 60.7498 76.8592 61.1705L76.8721 61.2406C76.6605 60.4822 76.519 59.7109 76.4061 58.8982C76.1417 57.0623 76.1707 55.2451 76.4516 53.4179C76.5146 52.9714 76.6063 52.4835 76.698 51.9956C76.1097 52.937 75.4928 53.9199 74.9875 54.9186C74.6352 55.9616 74.366 57.0619 74.1669 58.1494C74.0881 58.7074 73.9806 59.3069 74.0134 59.8807C73.9761 60.4673 74.0218 61.1113 74.0546 61.685C74.133 62.9027 74.2687 64.0375 74.3472 65.2552L74.3185 65.2967C74.2928 65.1564 74.2671 65.0162 74.2414 64.876C74.1127 64.1748 74.0127 63.4322 73.9542 62.7181C73.8243 61.22 73.806 59.7376 73.9694 58.2581C74.0955 57.3652 74.2216 56.4724 74.4593 55.5953C74.4879 55.5538 74.3763 55.538 74.3477 55.5795C74.2017 55.9687 74.0556 56.3579 73.9511 56.7757C73.8466 57.1935 73.7707 57.5698 73.6661 57.9876C73.5558 58.7688 73.4454 59.55 73.4467 60.347C73.4136 61.549 73.5206 62.7252 73.6277 63.9014C73.5891 63.6911 73.509 63.4521 73.4705 63.2417C73.1875 61.6992 73.1978 60.1753 73.3483 58.6257C72.714 60.6989 72.3731 62.7908 72.4785 64.9457C72.6524 68.0665 73.3844 71.2661 72.7613 74.3882C72.6095 75.1408 72.3747 75.8362 72.0283 76.5158C71.971 76.5988 72.0254 76.6975 72.0955 76.6846C72.0669 76.7261 72.0797 76.7962 72.0225 76.8792C71.9495 77.0738 72.1154 77.1883 72.2843 77.1211C72.9025 76.9352 73.3991 76.4817 73.8256 76.0411C74.3508 75.5461 74.8474 75.0926 75.427 74.6964C76.7551 73.8367 78.176 73.2861 79.6128 72.6239C82.19 71.4625 84.6872 70.0622 87.0056 68.4772C89.3239 66.8923 91.4921 65.0812 93.5644 63.1428C92.1434 63.6934 90.7096 64.1739 89.2915 64.5428C87.2839 65.056 85.292 65.4577 83.2043 65.732C83.1342 65.7449 83.0927 65.7163 83.0798 65.6461C83.4719 65.6105 83.8224 65.5461 84.173 65.4818C84.8742 65.3532 85.5911 65.1129 86.2794 64.9142C86.6171 64.7797 86.9677 64.7154 87.3054 64.581C88.134 64.3565 88.7422 63.9188 89.5578 63.6242C90.5424 63.2624 91.5684 62.9292 92.4985 62.4686C93.6677 61.928 94.8082 61.4288 95.9359 60.8596C98.4459 59.5294 100.337 57.588 101.911 55.3061C102.569 54.3518 103.288 53.1328 102.887 51.938C102.89 53.532 101.694 54.9111 100.531 55.8853C99.0574 57.1342 97.3344 58.2113 95.5056 58.9092C94.6198 59.2166 93.734 59.5241 92.864 59.72C91.6434 59.9801 90.3684 60.1416 89.215 60.5706C91.662 59.6868 94.3322 58.8345 96.5905 57.5143C98.0015 56.7119 99.444 55.6862 100.485 54.4444C101.411 53.3686 102.183 52.2483 102.943 51.058C103.475 50.1996 104.06 49.4399 104.285 48.4927C104.097 48.8532 103.645 49.1536 103.32 49.3582C101.062 50.6784 98.4249 50.3288 96.0223 51.0594C96.0924 51.0466 96.1625 51.0337 96.2613 50.9794C98.2145 50.3673 100.113 49.6566 102.067 49.0445C103.163 48.6985 104.259 48.3524 105.355 48.0064C105.454 47.952 105.498 47.7989 105.358 47.8247C103.338 48.2678 101.4 48.7683 99.4181 49.4218C98.4622 49.7421 97.5063 50.0624 96.5089 50.3541C95.553 50.6744 94.5556 50.9661 93.574 51.1462C93.4338 51.172 93.2521 51.1691 93.0832 51.2363C94.3038 50.9761 95.47 50.6172 96.6363 50.2583C97.8726 49.8865 99.0961 49.4446 100.32 49.0027C101.753 48.5222 103.338 48.2678 104.678 47.4783C106.245 46.5385 107.481 45.3697 108.664 43.9204C109.434 42.9819 110.598 41.029 110.283 39.7097C110.233 40.2262 110.017 40.6283 109.606 40.9573C108.489 41.7784 106.611 42.0141 105.253 42.1183C103.111 42.2938 101.068 42.415 99.0416 43.2217C98.6051 43.4104 98.1687 43.5992 97.7036 43.8295C98.4363 43.4777 99.2105 43.1544 99.9975 42.9013C101.024 42.5681 101.992 42.3179 103.031 42.0549C104.14 41.7789 105.236 41.4329 106.332 41.0868C107.569 40.715 108.847 40.3719 110.096 40.0702C110.166 40.0574 110.21 39.9043 110.099 39.8885C108.977 40.0943 107.826 40.3416 106.676 40.5889C105.525 40.8362 104.388 41.1537 103.279 41.4296C102.001 41.7728 100.682 42.0873 99.388 42.542C99.4581 42.5292 99.5569 42.4748 99.627 42.462C101.794 41.6296 104.053 41.1064 106.258 40.4844C108.632 39.7952 110.952 39.0072 112.782 37.3306C113.775 36.4236 114.296 35.3134 114.805 34.133C115.008 33.6608 115.351 33.163 115.762 32.8339C114.164 33.9969 112.308 33.7576 110.523 34.3024C110.833 34.2095 111.142 34.1165 111.381 34.0364C112.027 33.809 112.687 33.6518 113.334 33.4244C113.713 33.3186 114.051 33.1842 114.459 33.0369C114.557 32.9825 115.485 32.7037 115.402 32.6464C113.493 33.1053 111.625 33.5929 109.729 34.1219C111.246 33.6987 112.779 33.1639 114.27 32.6004C115.761 32.0369 117.143 31.276 118.622 30.6424C118.72 30.588 118.861 30.5623 118.988 30.4665C119.902 30.1175 120.842 29.9088 121.702 29.4611C121.999 29.298 122.225 29.1479 122.521 28.9848C122.62 28.9304 122.706 28.806 122.804 28.7516C122.578 28.9018 122.311 29.0234 122.043 29.145C121.466 29.3595 120.931 29.6026 120.342 29.747C119.723 29.9329 119.092 30.0487 118.446 30.2761C117.63 30.5707 116.882 31.0341 116.12 31.4274C115.359 31.8208 114.572 32.0739 113.756 32.3685C113.138 32.5544 112.491 32.7818 111.873 32.9677C111.774 33.022 111.663 33.0062 111.564 33.0606C110.328 33.4324 109.091 33.8042 107.855 34.1759C109.021 33.817 110.091 33.3307 111.271 33.0419C112.45 32.7531 113.616 32.3942 114.686 31.9079C115.996 31.3416 117.238 30.6063 118.547 30.04C119.758 29.528 120.911 29.0989 122.148 28.7272C123.314 28.3682 124.467 27.9392 125.486 27.1725C126.053 26.7061 126.371 26.068 126.618 25.4427C126.228 26.2754 124.937 26.5485 124.108 26.773C122.55 27.1676 120.966 27.422 119.366 27.7879C118.636 27.9581 117.935 28.0867 117.205 28.2568C118.33 27.8693 119.468 27.5519 120.647 27.2631C122.374 26.8012 124.076 26.1992 125.764 25.527C126.608 25.1909 127.523 24.842 128.287 24.2669C128.867 23.8707 129.411 23.0824 129.464 22.3841C129.362 22.6202 129.19 22.8691 128.977 23.0894C127.822 24.4972 126.248 25.0034 124.604 25.5225C123.31 25.9772 121.933 26.3747 120.614 26.6893C118.438 27.2698 116.261 27.8503 114.286 28.9373C114.895 28.4996 115.557 28.1606 116.233 27.8918C117.176 27.5013 118.202 27.1681 119.17 26.9179C120.209 26.6548 121.219 26.4333 122.287 26.1287C123.495 25.7984 124.664 25.2578 125.804 24.7586C125.903 24.7043 125.973 24.6914 126.03 24.6084C127.104 23.9404 128.094 23.2152 129.017 22.321C129.903 22.0136 130.345 21.4613 130.663 20.8232Z" fill="#326DA8"/>
<path d="M118.781 24.996C115.885 25.9984 113.11 27.2685 110.457 28.8062C103.415 32.8885 97.3697 38.4548 92.8568 45.2621C89.018 51.0035 85.2493 56.732 81.4519 62.502C81.3947 62.5849 81.3374 62.6679 81.2802 62.7509C80.8508 63.3732 80.4629 64.0242 80.0335 64.6466C79.6041 65.2689 79.2162 65.9199 78.7868 66.5422C78.3574 67.1646 77.9695 67.8156 77.5401 68.4379C77.1107 69.0603 76.7228 69.7112 76.2934 70.3336C75.8641 70.9559 75.4761 71.6069 75.0468 72.2293C74.6174 72.8516 74.2295 73.5026 73.8001 74.1249C73.3707 74.7473 72.9828 75.3983 72.5534 76.0206C72.124 76.643 71.6946 77.2653 71.3067 77.9163C70.8773 78.5386 70.4479 79.161 70.06 79.8119C69.6306 80.4343 69.2012 81.0566 68.8133 81.7076C68.6129 81.998 68.3839 82.33 68.1835 82.6204C68.069 82.7864 67.9832 82.9108 67.8686 83.0768C67.84 83.1183 65.1807 86.7951 65.1521 86.8366C65.1521 86.8366 66.0176 87.8012 66.1707 87.8456C66.2823 87.8614 65.8715 88.1904 65.913 88.219C65.913 88.219 69.1162 83.7539 69.1449 83.7124L69.1735 83.6709L69.2021 83.6294C69.2308 83.5879 69.2594 83.5464 69.288 83.5049C69.5456 83.1315 69.8033 82.7581 70.0609 82.3847C70.3185 82.0113 70.6048 81.5964 70.8624 81.223C71.1487 80.8081 71.4063 80.4347 71.6926 80.0198C71.9789 79.6049 72.2651 79.19 72.5099 78.7464C72.7962 78.3315 73.0824 77.9166 73.3558 77.4316C73.6421 77.0167 73.957 76.5603 74.2017 76.1168C74.5166 75.6604 74.8029 75.2455 75.0763 74.7605C75.3912 74.3041 75.6774 73.8892 75.9508 73.4042C76.2657 72.9478 76.552 72.5329 76.8254 72.0479C77.1403 71.5915 77.4265 71.1766 77.6999 70.6916C78.0148 70.2352 78.3011 69.8203 78.5745 69.3353C78.8894 68.8789 79.1756 68.464 79.449 67.979C79.7353 67.5641 80.0502 67.1077 80.2949 66.6642C80.5812 66.2493 80.8961 65.7929 81.1409 65.3494C81.4271 64.9345 81.7134 64.5196 81.9582 64.076C82.2444 63.6611 82.5307 63.2462 82.7755 62.8027C83.0617 62.3878 83.3194 62.0144 83.5641 61.5709C83.8218 61.1975 84.0794 60.8241 84.3242 60.3805C84.5818 60.0071 84.8394 59.6337 85.0556 59.2317C85.2846 58.8998 85.5422 58.5264 85.7297 58.1658C85.9588 57.8339 86.1878 57.502 86.3753 57.1414C86.6043 56.8095 86.8047 56.5191 86.9922 56.1585C87.1926 55.8681 87.393 55.5777 87.5933 55.2872C87.7651 55.0383 87.9655 54.7479 88.1372 54.4989C88.309 54.25 88.4808 54.0011 88.6525 53.7521C88.7956 53.5447 88.9388 53.3372 89.1105 53.0883C89.2537 52.8808 89.3682 52.7149 89.5113 52.5074C89.6258 52.3415 89.7403 52.1755 89.8262 52.051C89.9121 51.9266 89.9979 51.8021 90.0838 51.6776C90.1411 51.5946 90.1983 51.5117 90.2842 51.3872C90.3128 51.3457 90.3701 51.2627 90.3987 51.2212L90.4273 51.1797C96.6321 41.7429 103.708 32.9071 113.917 27.5191C117.09 25.8499 120.467 24.5055 123.921 23.5819C124.09 23.5146 124.301 23.476 124.428 23.3802C122.519 23.8391 120.623 24.3682 118.781 24.996Z" fill="#70462A"/>
<path d="M95.0223 43.6334C93.4951 45.5805 92.2298 47.7695 90.8686 49.8311C89.4501 51.9758 87.9902 54.0918 86.5589 56.1662C83.639 60.3982 80.732 64.7003 77.8951 68.9895C75.0582 73.2788 72.2342 77.6381 69.4388 81.9559C69.3816 82.0389 69.3529 82.0804 69.2957 82.1634C69.2384 82.2464 69.2098 82.2879 69.1525 82.3708C69.0667 82.4953 68.9522 82.6613 68.8663 82.7857C68.7804 82.9102 68.6659 83.0762 68.58 83.2006C68.5514 83.2421 68.5228 83.2836 68.4941 83.3251L63.6306 90.1967C63.6306 90.1967 64.0613 90.3713 64.1028 90.4L69.0078 83.557C69.0364 83.5155 69.0364 83.5155 69.065 83.474C69.0937 83.4326 69.0937 83.4326 69.1223 83.3911C69.1509 83.3496 69.1795 83.3081 69.2082 83.2666C69.2654 83.1836 69.3227 83.1006 69.3799 83.0176C69.4372 82.9347 69.4944 82.8517 69.5517 82.7687C69.6089 82.6857 69.6662 82.6028 69.7234 82.5198C69.7807 82.4368 69.8379 82.3538 69.8952 82.2708C69.9524 82.1879 70.0097 82.1049 70.0956 81.9804C70.1528 81.8974 70.2101 81.8144 70.296 81.69C70.3532 81.607 70.4105 81.524 70.4963 81.3995C70.5536 81.3166 70.6108 81.2336 70.6967 81.1091C70.754 81.0261 70.8112 80.9432 70.8971 80.8187C70.9544 80.7357 71.0402 80.6112 71.0975 80.5283C71.1548 80.4453 71.2406 80.3208 71.2979 80.2378C71.3551 80.1549 71.441 80.0304 71.4983 79.9474C71.5555 79.8644 71.6414 79.74 71.6986 79.657C71.7559 79.574 71.8418 79.4495 71.899 79.3665C71.9563 79.2836 72.0422 79.1591 72.0994 79.0761C72.1567 78.9931 72.2425 78.8687 72.2998 78.7857C72.357 78.7027 72.4429 78.5782 72.5002 78.4952C72.5574 78.4123 72.6433 78.2878 72.7006 78.2048C72.7578 78.1218 72.8437 77.9974 72.9009 77.9144C72.9582 77.8314 73.0441 77.7069 73.1013 77.624C73.1586 77.541 73.2445 77.4165 73.3017 77.3335C73.359 77.2506 73.4448 77.1261 73.5021 77.0431C73.5593 76.9601 73.6452 76.8357 73.7025 76.7527C73.7597 76.6697 73.8456 76.5452 73.9029 76.4622C73.9601 76.3793 74.046 76.2548 74.1032 76.1718C74.1605 76.0888 74.2464 75.9644 74.3036 75.8814C74.3609 75.7984 74.4468 75.6739 74.504 75.591C74.5613 75.508 74.6471 75.3835 74.7044 75.3005C74.7616 75.2176 74.8475 75.0931 74.9048 75.0101C74.962 74.9271 75.0479 74.8026 75.1052 74.7197C75.1624 74.6367 75.2483 74.5122 75.3055 74.4292C75.3628 74.3463 75.4487 74.2218 75.5059 74.1388C75.5632 74.0558 75.6491 73.9314 75.7063 73.8484C75.7636 73.7654 75.8494 73.6409 75.9067 73.5579C75.9639 73.475 76.0498 73.3505 76.1071 73.2675C76.1643 73.1845 76.2502 73.0601 76.3075 72.9771C76.3647 72.8941 76.4506 72.7696 76.5078 72.6867C76.5651 72.6037 76.651 72.4792 76.7082 72.3962C76.7655 72.3133 76.8514 72.1888 76.9086 72.1058C76.9659 72.0228 77.0517 71.8983 77.109 71.8154C77.1662 71.7324 77.2521 71.6079 77.3094 71.5249C77.3666 71.442 77.4525 71.3175 77.5098 71.2345C77.567 71.1515 77.6529 71.0271 77.7101 70.9441C77.7674 70.8611 77.8533 70.7366 77.9105 70.6537C77.9678 70.5707 78.0537 70.4462 78.1109 70.3632C78.1682 70.2802 78.254 70.1558 78.3113 70.0728C78.3685 69.9898 78.4544 69.8653 78.5117 69.7824C78.5689 69.6994 78.6548 69.5749 78.7121 69.4919C78.7693 69.409 78.8552 69.2845 78.9124 69.2015C78.9697 69.1185 79.0556 68.9941 79.1128 68.9111C79.1701 68.8281 79.256 68.7036 79.3132 68.6207C79.3705 68.5377 79.4563 68.4132 79.5136 68.3302C79.5708 68.2472 79.6567 68.1228 79.714 68.0398C79.7712 67.9568 79.8571 67.8323 79.9144 67.7494C79.9716 67.6664 80.0575 67.5419 80.1147 67.4589C80.172 67.376 80.2579 67.2515 80.3151 67.1685C80.3724 67.0855 80.4583 66.961 80.5155 66.8781C80.5728 66.7951 80.6586 66.6706 80.7159 66.5876C80.7731 66.5047 80.859 66.3802 80.9163 66.2972C80.9735 66.2142 81.0594 66.0898 81.1167 66.0068C81.1739 65.9238 81.2598 65.7993 81.317 65.7164C81.3743 65.6334 81.4602 65.5089 81.5174 65.4259C81.5747 65.3429 81.6605 65.2185 81.7178 65.1355C81.7751 65.0525 81.8609 64.928 81.9182 64.8451C81.9754 64.7621 82.0613 64.6376 82.1186 64.5546C82.1758 64.4717 82.2617 64.3472 82.3189 64.2642C82.3762 64.1812 82.4621 64.0568 82.5193 63.9738C82.5766 63.8908 82.6625 63.7663 82.7197 63.6833C82.777 63.6004 82.8628 63.4759 82.9201 63.3929C82.9774 63.3099 83.0632 63.1855 83.1205 63.1025C83.1777 63.0195 83.235 62.9365 83.3209 62.8121C83.3781 62.7291 83.4354 62.6461 83.5213 62.5216C83.5785 62.4386 83.6358 62.3557 83.7216 62.2312C83.7789 62.1482 83.8361 62.0652 83.922 61.9408C83.9793 61.8578 84.0365 61.7748 84.0938 61.6918C84.151 61.6088 84.2083 61.5259 84.2655 61.4429C84.3228 61.3599 84.38 61.2769 84.4373 61.194C84.4945 61.111 84.5518 61.028 84.609 60.945C84.6663 60.862 84.7235 60.7791 84.7808 60.6961C84.8381 60.6131 84.8953 60.5301 84.9526 60.4471C85.0098 60.3642 85.0671 60.2812 85.1243 60.1982C85.1816 60.1152 85.2388 60.0322 85.2961 59.9493C85.3533 59.8663 85.4106 59.7833 85.4678 59.7003C85.5251 59.6173 85.5823 59.5344 85.6396 59.4514C85.6968 59.3684 85.7541 59.2854 85.8113 59.2024C85.8686 59.1195 85.9258 59.0365 85.9831 58.9535C86.0404 58.8705 86.0976 58.7875 86.1549 58.7046C86.2121 58.6216 86.2694 58.5386 86.3266 58.4556C86.3839 58.3726 86.4411 58.2897 86.4984 58.2067C86.5556 58.1237 86.6129 58.0407 86.6701 57.9577C86.7274 57.8748 86.7846 57.7918 86.8133 57.7503C86.8705 57.6673 86.9278 57.5843 86.9564 57.5428C87.0136 57.4599 87.0709 57.3769 87.0995 57.3354C87.1568 57.2524 87.1854 57.2109 87.2427 57.1279C87.2999 57.045 87.3285 57.0035 87.3858 56.9205C87.443 56.8375 87.4717 56.796 87.5289 56.713C87.5862 56.6301 87.6148 56.5886 87.672 56.5056C87.7293 56.4226 87.7579 56.3811 87.8152 56.2981C87.8724 56.2152 87.9011 56.1737 87.9583 56.0907C88.0156 56.0077 88.0442 55.9662 88.1014 55.8832C88.1587 55.8003 88.1873 55.7588 88.2446 55.6758C88.2732 55.6343 88.3304 55.5513 88.3591 55.5098C88.3877 55.4683 88.4449 55.3854 88.4736 55.3439C88.5022 55.3024 88.5595 55.2194 88.5881 55.1779C88.6167 55.1364 88.674 55.0534 88.7026 55.012C88.7312 54.9705 88.7885 54.8875 88.8171 54.846C88.8457 54.8045 88.903 54.7215 88.9316 54.68C88.9602 54.6385 89.0175 54.5556 89.0461 54.5141C89.0747 54.4726 89.1034 54.4311 89.1606 54.3481C89.1892 54.3066 89.2179 54.2651 89.2751 54.1822C89.3037 54.1407 89.3324 54.0992 89.3896 54.0162C89.4182 53.9747 89.4469 53.9332 89.4755 53.8917C89.5041 53.8502 89.5327 53.8087 89.5614 53.7673C89.59 53.7258 89.6186 53.6843 89.6472 53.6428C89.6759 53.6013 89.7045 53.5598 89.7331 53.5183C89.7618 53.4768 89.7904 53.4353 89.819 53.3938C89.8476 53.3524 89.8763 53.3109 89.9049 53.2694C89.9335 53.2279 89.9621 53.1864 89.9908 53.1449C90.0194 53.1034 90.048 53.0619 90.0766 53.0204C90.1053 52.9789 90.1339 52.9375 90.1339 52.9375C90.1625 52.896 90.1911 52.8545 90.1911 52.8545C90.2198 52.813 90.2198 52.813 90.2484 52.7715C90.277 52.73 90.277 52.73 90.3057 52.6885C90.3343 52.647 90.3343 52.647 90.3629 52.6055C90.3915 52.564 90.3915 52.564 90.4202 52.5226C90.4488 52.4811 90.4488 52.4811 90.4774 52.4396C90.506 52.3981 90.506 52.3981 90.5347 52.3566L90.5633 52.3151L90.5919 52.2736L90.6205 52.2321L90.6492 52.1906L90.6778 52.1491C90.6778 52.1491 90.6778 52.1492 90.7064 52.1077C90.7064 52.1077 90.7064 52.1077 90.735 52.0662C93.7595 47.4164 97.0614 42.8969 100.817 38.874C98.4686 39.7034 96.6353 41.5618 95.0223 43.6334Z" fill="#70462A"/>
<path opacity="0.6" d="M118.474 134.113C116.861 134.264 111.618 128.165 111.618 128.165C111.618 128.165 112.375 129.425 110.711 132.449C109.098 135.474 97.807 136.936 97.807 136.936L96.698 134.062C89.0865 143.942 59.0439 129.879 59.0439 129.879C61.8667 124.787 70.6376 115.815 70.6376 115.815C68.5205 118.638 60.5562 123.83 56.0699 123.326C51.5837 122.822 47.8032 115.865 47.8032 115.865C50.0715 115.664 57.2293 107.044 57.2293 107.044C56.2716 108.052 50.8276 111.026 45.434 111.077C40.0405 111.228 36.764 102.255 36.764 102.255C42.208 102.255 53.2471 93.9383 53.2471 93.9383C32.9835 101.399 33.7396 89.3009 33.7396 89.3009C35.8567 89.3009 43.6194 87.083 44.5771 85.0163C44.8796 84.361 44.2243 82.1935 44.3755 81.3365C44.5267 80.0764 45.0308 78.8162 45.6861 77.7072C49.8699 70.7007 57.2797 68.6844 64.1855 73.5235C68.7221 76.7495 67.9156 80.2276 68.5205 85.1171C69.8815 96.1058 78.0978 104.02 86.667 110.22C101.537 120.956 117.97 117.075 117.97 117.075C126.892 126.451 118.474 134.113 118.474 134.113Z" fill="#87391E"/>
<path opacity="0.6" d="M118.877 133.709C117.264 133.86 112.022 127.761 112.022 127.761C112.022 127.761 112.778 129.021 111.114 132.046C109.501 135.07 98.21 136.532 98.21 136.532L97.1011 133.659C90.8506 143.539 61.3121 130.786 61.3121 130.786C62.1186 126.299 71.0406 115.361 71.0406 115.361C68.9739 118.184 60.9592 123.376 56.473 122.872C52.0372 122.368 48.2062 115.411 48.2062 115.411C50.4746 115.21 57.6324 106.59 57.6324 106.59C56.6746 107.598 51.2307 110.572 45.8371 110.623C40.4436 110.774 37.1671 101.802 37.1671 101.802C42.6111 101.802 53.6502 93.4843 53.6502 93.4843C33.3866 100.945 34.1427 88.8469 34.1427 88.8469C37.2175 88.8973 45.1818 84.5623 45.1818 84.5623C39.2338 83.2517 65.143 111.732 81.8278 123.829C96.6978 134.566 116.961 114.706 116.961 114.706C121.498 123.88 118.877 133.76 118.877 133.709Z" fill="#87391E"/>
<path opacity="0.6" d="M55.5655 86.4773C48.9118 82.1927 55.7671 78.1602 55.7671 78.1602C51.9362 82.6968 55.5655 86.4773 55.5655 86.4773Z" fill="#87391E"/>
<path opacity="0.6" d="M62.4716 93.0815C54.6585 93.888 57.3805 86.4277 57.3805 86.4277C57.3301 92.4262 62.4716 93.0815 62.4716 93.0815Z" fill="#87391E"/>
<path opacity="0.6" d="M63.5801 86.8813C55.7671 87.6878 58.489 80.2275 58.489 80.2275C58.4386 86.226 63.5801 86.8813 63.5801 86.8813Z" fill="#87391E"/>
<path opacity="0.6" d="M68.9737 96.1053C61.1606 96.9118 63.8826 89.502 63.8826 89.502C63.8322 95.45 68.9737 96.1053 68.9737 96.1053Z" fill="#87391E"/>
<path opacity="0.6" d="M64.7901 101.953C56.977 102.759 59.699 95.2988 59.699 95.2988C59.5982 101.247 64.7901 101.953 64.7901 101.953Z" fill="#87391E"/>
<path opacity="0.6" d="M70.8894 104.372C63.0763 105.179 65.7982 97.7188 65.7982 97.7188C65.7982 103.717 70.8894 104.372 70.8894 104.372Z" fill="#87391E"/>
<path opacity="0.6" d="M70.3853 111.429C62.5722 112.236 65.2942 104.775 65.2942 104.775C65.2438 110.774 70.3853 111.429 70.3853 111.429Z" fill="#87391E"/>
<path opacity="0.6" d="M78.0471 108.657C70.234 109.463 72.956 102.003 72.956 102.003C72.9055 108.001 78.0471 108.657 78.0471 108.657Z" fill="#87391E"/>
<path opacity="0.6" d="M88.2292 113.496C81.878 118.133 80.517 110.32 80.517 110.32C83.4406 115.563 88.2292 113.496 88.2292 113.496Z" fill="#87391E"/>
<path opacity="0.6" d="M96.1432 118.284C89.7919 122.921 88.4309 115.108 88.4309 115.108C91.3545 120.3 96.1432 118.284 96.1432 118.284Z" fill="#87391E"/>
<path opacity="0.6" d="M88.5823 121.46C82.231 126.097 80.87 118.284 80.87 118.284C83.7936 123.426 88.4815 121.46 88.5823 121.46Z" fill="#87391E"/>
<path d="M116.558 111.682C116.558 111.682 81.3235 141.724 75.2747 182.05C73.4096 183.512 71.3933 184.772 69.3267 185.931C68.2681 186.536 67.1592 186.687 66.5039 187.746C65.7982 188.855 65.7982 190.317 66.3526 191.476C67.7136 194.148 70.486 196.416 72.956 198.079C76.6861 200.65 80.265 203.422 84.0959 205.892C89.1366 209.169 94.7318 211.135 100.226 213.403C114.34 219.25 125.127 212.697 134.15 201.406C142.618 190.871 146.55 177.967 149.827 164.811C151.591 157.754 153.658 150.142 153.96 142.884C154.313 134.566 153.154 125.846 152.196 117.579L116.558 111.682Z" fill="#4E86C4"/>
<path opacity="0.7" d="M151.642 127.005C153.204 198.281 123.867 214.159 115.197 216.881C100.932 221.317 77.0391 209.874 69.9317 201.708C65.9495 197.071 63.3284 197.071 59.7495 196.264C58.3381 195.912 55.8177 187.998 62.0178 188.199C68.2179 188.401 72.8553 185.125 72.8553 185.125C82.0294 148.529 119.23 118.234 119.23 118.234L151.642 127.005Z" fill="#5D1224"/>
<path d="M151.591 125.342C153.154 196.617 123.817 212.496 115.147 215.218C100.882 219.653 76.9888 208.211 69.8814 200.045C65.8992 195.408 63.2781 195.408 59.6992 194.601C58.2878 194.248 56.3723 183.159 62.5724 183.36C69.7806 181.042 74.9221 177.765 74.9221 177.765C84.0962 141.17 119.23 116.672 119.23 116.672L151.591 125.342Z" fill="#4E86C4"/>
<path d="M138.334 137.086C142.821 138.901 148.668 143.034 147.912 148.428C147.206 153.771 145.795 159.114 143.274 163.953C141.006 168.187 147.004 174.388 144.686 178.723C139.947 187.292 134.957 196.919 128.455 204.178C124.926 208.16 120.188 212.142 113.837 214.058C112.375 215.217 102.747 216.679 100.58 216.074C79.2574 209.975 72.8053 202.868 72.8053 202.868C72.8053 202.868 68.5207 192.786 81.072 191.879C88.986 191.274 95.0852 182.352 99.017 176.353C101.89 171.968 104.007 167.179 106.78 162.743C109.451 158.257 111.266 153.267 114.139 148.882C115.853 146.311 118.02 144.194 119.835 141.774C121.095 139.96 122.456 138.75 124.473 137.792C126.489 136.834 128.656 136.229 130.874 136.028C133.294 135.776 135.814 136.028 138.334 137.086Z" fill="#3571AF"/>
<path d="M118.424 131.19C115.702 130.535 108.947 134.92 101.638 143.993C94.1778 153.218 89.2884 162.392 89.3388 166.374C89.3892 172.02 99.8738 165.265 110.106 152.411C119.986 139.86 121.498 131.795 118.424 131.19Z" fill="#1E2342"/>
<path d="M118.373 130.685C115.702 130.081 108.947 134.516 101.739 143.438C94.3291 152.562 89.49 161.686 89.5404 165.517C89.6412 171.061 99.9747 164.357 110.056 151.604C119.885 139.255 121.398 131.341 118.373 130.685Z" fill="#F6E822"/>
<path d="M104.209 145.606C104.008 145.303 103.201 145.908 102.294 147.017C101.437 148.076 100.782 149.286 100.882 149.638C100.983 150.042 101.84 149.437 102.798 148.328C103.705 147.118 104.36 145.959 104.209 145.606Z" fill="#263262"/>
<path d="M105.671 148.984C105.52 148.631 104.562 149.236 103.554 150.445C102.596 151.655 101.89 152.966 102.042 153.369C102.193 153.772 103.151 153.117 104.159 151.907C105.217 150.647 105.872 149.336 105.671 148.984Z" fill="#263262"/>
<path d="M110.056 148.529L109.502 147.319L112.728 143.539L113.786 142.279L113.938 141.522V141.472C114.139 140.061 114.341 138.75 113.182 137.49C111.921 136.129 110.157 136.835 110.107 136.935L109.603 137.137L108.847 138.095L106.125 141.27L105.621 140.615L102.646 145.253C102.596 145.303 102.546 145.404 102.495 145.454C101.487 146.664 98.0091 150.848 95.4383 155.183C93.4724 158.56 92.2627 161.988 92.1618 162.139L91.9602 162.593L92.1114 162.542C92.1114 162.542 92.3131 162.643 92.4643 162.643C92.6659 162.643 93.0188 162.643 93.3716 162.593C94.3293 162.391 95.3375 161.887 96.4464 161.181C99.9749 158.762 104.159 153.923 105.368 152.461C105.419 152.41 105.469 152.31 105.52 152.259L110.056 148.529ZM112.526 142.984L109.199 146.916L108.847 146.311L108.695 146.513L108.191 145.908L108.443 145.656C108.393 145.605 108.544 145.454 108.393 145.303L112.526 140.363C112.627 141.17 112.627 142.027 112.526 142.984ZM111.821 138.952C112.022 139.153 112.173 139.456 112.375 139.758L107.637 145.454C106.729 145.757 105.469 146.765 104.159 148.176C105.419 146.462 106.326 144.849 106.729 143.64L111.165 138.397C111.367 138.548 111.669 138.75 111.821 138.952ZM110.661 138.246L106.931 142.631C106.982 142.631 106.629 142.833 106.629 142.833L106.175 143.337L106.477 142.883C106.427 142.883 106.578 142.631 106.578 142.631L106.276 142.127L106.125 141.775L108.998 138.397C108.998 138.347 109.855 137.994 110.661 138.246ZM102.142 146.513C103.755 144.547 105.318 143.388 105.621 143.992C105.973 144.597 104.814 146.714 103.05 148.832C101.286 150.898 99.7229 152.007 99.5213 151.301C99.2692 150.596 100.479 148.479 102.142 146.513ZM95.3375 158.711C95.0854 156.544 97.8074 152.36 98.5131 151.352C98.2611 152.007 98.0595 152.562 98.1603 152.914C98.2611 153.469 98.9668 153.318 99.9245 152.612L99.0172 154.427L100.126 153.771C99.7229 154.628 99.37 155.334 99.2188 155.939C99.118 156.342 99.0676 156.594 99.118 156.897C99.2188 157.249 99.4709 157.401 99.9749 157.249C99.0172 158.056 95.6399 161.08 95.3375 158.711ZM100.479 155.132C100.277 154.275 101.538 151.957 103.352 149.789C105.217 147.723 106.881 146.513 107.234 147.168C107.637 147.874 106.377 150.293 104.461 152.562C102.546 154.83 100.731 155.939 100.479 155.132Z" fill="#263262"/>
<path d="M79.7621 165.214L81.7784 166.373C81.728 166.222 81.7784 165.869 81.9296 165.416C82.5849 165.97 83.593 166.726 84.8028 167.634C82.7361 171.263 80.4678 174.943 80.4678 175.044L80.367 175.195L80.4174 175.245C80.7702 175.85 81.4759 176.455 82.4841 177.009C84.2483 178.018 86.315 178.622 86.315 178.622H86.3654H86.4158C86.567 178.622 86.7183 178.572 88.8354 174.287C89.3394 173.38 89.7931 172.372 90.2972 171.414C90.8012 171.717 91.4061 172.069 91.9102 172.372C90.3476 173.128 88.8354 174.338 87.8776 176.354C85.9117 180.538 86.0126 185.075 92.0614 188.452L93.5736 189.157C100.127 191.527 103.554 188.553 105.47 184.369C106.276 182.655 106.327 181.042 106.075 179.58C109.553 180.992 135.613 191.527 139.646 192.787L141.712 188.452C141.712 188.452 114.694 177.362 104.21 172.17C104.562 172.221 104.814 172.069 105.016 171.817C105.419 171.162 105.419 170.708 105.419 170.557C105.419 170.356 105.218 170.053 104.613 169.65C104.462 169.549 104.411 169.549 104.361 169.499C105.167 168.491 106.579 166.978 106.881 166.676C106.931 166.676 106.931 166.626 106.931 166.626C106.931 166.575 106.881 166.424 106.679 166.323C106.226 166.021 105.167 165.567 103.907 165.164C102.445 164.66 101.185 164.76 100.832 165.063C100.832 165.063 100.782 165.113 100.731 165.214C100.731 165.214 100.731 165.265 100.782 165.265H100.832C100.782 165.869 100.379 166.928 100.227 167.482C99.5721 167.281 99.0176 167.18 98.7655 167.281L98.7151 167.331C98.6647 167.331 98.4127 167.533 98.1607 168.087C98.0094 168.339 98.0598 168.642 98.1102 168.843C96.4972 167.936 94.733 166.928 92.9687 165.869C95.0858 162.291 98.8664 157.804 98.9672 157.754L99.1184 157.552L98.8664 157.401C98.8159 157.099 98.7151 156.847 98.4127 156.544C98.6647 156.09 97.455 154.931 95.8419 154.024C94.1281 153.116 92.6159 152.663 92.3638 153.116H92.3134C91.9102 153.066 91.6582 153.066 91.4061 153.167L91.3557 153.116L91.2549 153.318C91.2549 153.368 89.0874 158.712 88.1297 161.282C87.9784 161.585 87.7768 161.938 87.6256 162.391C86.5166 161.585 85.3069 160.778 84.1475 160.022C84.3995 159.619 84.5003 159.367 84.5003 159.367L82.4337 158.056C81.98 158.712 79.7621 165.063 79.7621 165.214Z" fill="#5D1224"/>
<path d="M139.847 191.476C117.214 184.62 80.8206 163.5 80.8206 163.5L82.7864 158.056C105.52 174.186 143.376 185.679 143.376 185.679L139.847 191.476Z" fill="#263262"/>
<path d="M92.7668 168.288C88.2302 168.591 85.0042 164.306 85.0042 164.306L85.8107 162.542C90.2465 164.155 93.9262 166.222 93.9262 166.222L92.7668 168.288Z" fill="#5D1224"/>
<path d="M91.6077 152.41C91.6077 152.41 89.4402 157.753 88.4824 160.374C87.5247 163.046 80.7701 174.035 80.7701 174.035C81.8791 175.9 86.567 177.362 86.567 177.362C86.8694 177.311 90.4987 169.801 92.3134 166.07C94.128 162.34 98.9671 156.644 98.9671 156.644L91.6077 152.41Z" fill="white"/>
<path d="M80.5682 174.186L80.5178 174.136L80.6186 173.984C80.7194 173.833 87.3732 162.945 88.3309 160.324C89.2886 157.703 91.4057 152.41 91.4562 152.36L91.557 152.158L99.3701 156.544L99.2188 156.745C99.1684 156.796 94.2789 162.492 92.5651 166.171C91.7082 168.087 90.2968 170.96 89.1374 173.228C86.9195 177.513 86.8691 177.513 86.7179 177.563H86.6675H86.6171C86.6171 177.563 84.5504 176.958 82.7861 175.95C81.7276 175.396 80.9211 174.791 80.5682 174.186ZM92.0106 166.02C93.6237 162.693 97.757 157.753 98.6139 156.745L91.6578 152.864C91.3049 153.872 89.4903 158.257 88.6334 160.576C87.7764 163.097 81.7276 172.926 81.0219 174.136C81.3243 174.589 81.9292 175.093 82.887 175.597C84.2983 176.404 86.0626 176.908 86.5163 177.11C87.1211 176.202 90.448 169.549 92.0106 166.02Z" fill="#1E2F53"/>
<path d="M91.6579 152.461C91.8091 152.158 93.523 152.41 95.7409 153.67C97.858 154.93 98.9669 156.191 98.8157 156.493C98.6645 156.796 96.9507 156.543 94.7327 155.283C92.5148 154.023 91.4563 152.813 91.6579 152.461Z" fill="white"/>
<path d="M98.6141 156.393C98.3117 156.494 96.9003 156.292 94.8336 155.133C92.6661 153.973 91.8092 152.915 91.8092 152.562C92.1116 152.461 93.4222 152.663 95.5897 153.822C97.7068 155.032 98.5637 156.09 98.6141 156.393ZM91.4563 152.411C91.1539 152.915 92.5653 154.376 94.632 155.536C96.6986 156.695 98.6645 157.25 98.967 156.645C99.2694 156.141 97.858 154.679 95.7913 153.52C93.7246 152.31 91.7588 151.806 91.4563 152.411Z" fill="#1E2F53"/>
<path d="M92.8174 152.259C92.9686 152.058 94.1784 152.209 95.993 153.267C97.8077 154.326 98.5134 155.284 98.463 155.485C98.3117 155.737 97.102 155.636 95.2873 154.578C93.3718 153.469 92.6157 152.511 92.8174 152.259Z" fill="white"/>
<path d="M98.1603 155.385C97.8075 155.435 96.7489 155.183 95.3375 154.376C93.8253 153.57 93.1701 152.713 92.9684 152.41C93.3213 152.36 94.3798 152.612 95.7912 153.419C97.253 154.225 98.0091 155.032 98.1603 155.385ZM92.5147 152.158C92.2627 152.612 93.4725 153.771 95.0855 154.679C96.7994 155.586 98.3116 156.04 98.5636 155.586C98.8156 155.132 97.6059 153.973 95.9928 153.066C94.3798 152.158 92.8676 151.705 92.5147 152.158Z" fill="#1E2F53"/>
<path d="M94.0775 152.612C94.2287 152.612 94.884 152.713 95.9426 153.268C97.0011 153.872 97.4044 154.377 97.4548 154.528C97.3036 154.528 96.6483 154.427 95.5897 153.872C94.5312 153.318 94.1279 152.764 94.0775 152.612Z" fill="white"/>
<path d="M97.001 154.276C96.6481 154.226 96.1945 154.074 95.6904 153.722C95.1863 153.469 94.7831 153.167 94.531 152.915C94.8839 152.965 95.3375 153.117 95.8416 153.469C96.3457 153.772 96.7489 154.074 97.001 154.276ZM93.8757 152.562C93.7245 152.814 94.3798 153.52 95.4384 154.074C96.4969 154.679 97.4042 154.881 97.5554 154.629C97.7067 154.377 97.0514 153.671 95.9928 153.117C95.0351 152.512 94.027 152.31 93.8757 152.562Z" fill="#1E2F53"/>
<path d="M97.5554 156.342L97.9587 156.594L98.5636 155.535L98.1603 155.283L97.5554 156.342Z" fill="#1E2F53"/>
<path d="M91.9607 153.167L92.364 153.419L92.9688 152.36L92.5656 152.108L91.9607 153.167Z" fill="#1E2F53"/>
<path d="M93.2709 153.116L93.6741 153.267L94.0774 152.612L93.6741 152.461L93.2709 153.116Z" fill="#1E2F53"/>
<path d="M96.8497 155.082L97.253 155.233L97.6562 154.578L97.253 154.427L96.8497 155.082Z" fill="#1E2F53"/>
<path d="M94.3294 155.334L93.9261 157.3L95.0855 155.788L94.3294 155.334Z" fill="#1E2F53"/>
<path d="M85.4075 176.959L86.6676 175.497L86.0124 177.211L85.4075 176.959Z" fill="#1E2F53"/>
<path d="M82.0304 175.396L84.2987 173.077L82.7361 175.799L82.0304 175.396Z" fill="#1E2F53"/>
<path d="M86.8188 163.702L87.1213 163.399C89.6416 166.273 92.0612 166.222 92.0612 166.222L92.1116 166.625C91.9604 166.676 90.9018 166.625 89.3896 165.819C88.5831 165.315 87.6758 164.71 86.8188 163.702Z" fill="#1E2F53"/>
<path d="M92.162 168.49C87.6758 168.742 84.7522 164.609 84.7522 164.609L85.6595 162.593C90.0449 167.381 93.8759 166.323 93.8759 166.323L92.162 168.49Z" fill="#5D1224"/>
<path d="M92.666 168.44C88.1294 168.743 84.8025 164.307 84.8025 164.307L85.609 162.341C91.2546 167.734 94.0774 166.121 94.0774 166.121L92.666 168.44Z" fill="#263262"/>
<path d="M103.705 171.716C100.529 170.305 96.1945 168.439 96.1945 168.439L95.3375 170.052C103.05 176.101 103.957 172.926 103.957 172.926L103.705 171.716Z" fill="#5D1224"/>
<path d="M92.1619 187.393L93.6741 188.099C100.227 190.468 103.655 187.494 105.57 183.31C107.939 178.068 103.756 173.682 103.05 172.876C102.042 171.817 103.201 170.507 103.201 170.507L101.235 169.65L99.3701 168.642C99.3701 168.642 99.0677 170.456 97.6059 170.406C96.4969 170.355 90.4481 170.103 88.0285 175.346C86.113 179.479 86.2139 184.016 92.1619 187.393Z" fill="#212C50"/>
<path d="M92.3635 186.99L93.8253 187.595C100.126 189.863 103.403 187.041 105.217 183.008C107.486 177.967 103.453 173.733 102.747 172.977C101.689 171.767 102.999 170.255 102.999 170.255L99.5717 168.692C99.5717 168.692 98.8156 170.658 97.5554 170.608C96.5473 170.557 90.6497 170.356 88.3813 175.346C86.5667 179.429 86.6675 183.764 92.3635 186.99Z" fill="#FEFEFC"/>
<path d="M92.8173 186.486L94.1783 187.091C100.076 189.258 103.252 186.587 105.016 182.756C105.369 182.1 105.47 181.445 105.621 180.84L89.9945 173.783C89.5913 174.287 89.188 174.791 88.936 175.447C87.2222 179.328 87.323 183.411 92.8173 186.486Z" fill="#E53C1A"/>
<path d="M98.3619 176.203C102.697 178.219 105.923 180.286 105.621 180.941C105.268 181.596 101.638 180.538 97.3034 178.572C92.9684 176.556 89.7423 174.489 90.0448 173.834C90.3472 173.178 94.0773 174.237 98.3619 176.203Z" fill="#A32218"/>
<path d="M98.4127 171.969C92.6159 172.422 90.7004 177.11 90.7004 177.11L91.7086 177.564C93.8257 173.884 98.8664 172.826 98.8664 172.826L98.4127 171.969Z" fill="#FEFEFC"/>
<path d="M91.1033 185.175C88.0789 181.949 90.1456 178.018 90.1456 178.018L91.2545 178.522C89.3895 183.008 91.1033 185.175 91.1033 185.175Z" fill="#FEFEFC"/>
<path d="M99.0174 166.474C99.0174 166.474 98.8662 166.474 98.5134 167.179C98.0093 168.238 99.8239 169.145 101.135 169.75C102.445 170.355 104.461 171.262 104.965 170.557C105.47 169.851 105.369 169.448 105.369 169.448L99.0174 166.474Z" fill="#6AC2C3"/>
<path d="M98.3622 167.079C98.6142 166.474 98.7654 166.373 98.9166 166.323L99.0679 166.272L105.621 169.246V169.398C105.621 169.448 105.722 169.952 105.218 170.708C104.663 171.464 102.899 170.759 101.135 169.952C100.429 169.599 99.824 169.347 99.3703 169.045C98.4126 168.339 98.0597 167.734 98.3622 167.079ZM99.0175 166.676C99.0175 166.726 98.9166 166.877 98.7654 167.18C98.4126 167.835 99.3199 168.591 101.286 169.499C102.092 169.851 104.411 170.96 104.814 170.406C105.117 170.003 105.167 169.7 105.167 169.549L99.0175 166.676Z" fill="#103A5F"/>
<path d="M102.395 167.482C104.159 168.289 105.469 169.146 105.369 169.398C105.268 169.65 103.756 169.247 101.991 168.44C100.227 167.634 98.9166 166.777 99.0174 166.525C99.1686 166.222 100.731 166.625 102.395 167.482Z" fill="#6AC2C3"/>
<path d="M98.8662 166.373C98.9166 166.323 98.967 166.222 99.0679 166.172C99.6223 166.02 101.286 166.575 102.596 167.18C103.453 167.583 104.31 168.037 104.865 168.44C105.52 168.894 105.671 169.196 105.57 169.448C105.419 169.7 105.066 169.751 104.209 169.499C103.554 169.297 102.697 168.994 101.84 168.591C100.933 168.138 100.076 167.734 99.4711 167.331C98.9166 167.029 98.715 166.726 98.8662 166.373ZM104.562 168.843C104.058 168.44 103.201 168.037 102.344 167.583C100.782 166.877 99.7736 166.625 99.3703 166.625C99.5215 166.726 99.6223 166.877 99.8744 167.029C100.378 167.432 101.235 167.835 102.092 168.289C103.655 168.994 104.663 169.246 105.066 169.246C104.965 169.196 104.814 169.045 104.562 168.843Z" fill="#103A5F"/>
<path d="M101.891 167.835C101.034 167.432 100.681 166.827 100.63 166.676C100.731 166.222 101.235 164.811 101.235 163.903L106.83 165.617C106.226 166.121 104.713 167.684 104.209 168.591C103.856 168.541 102.848 168.339 101.991 167.885C101.941 167.885 101.891 167.835 101.891 167.835Z" fill="#FDC72D"/>
<path d="M101.235 164.004C101.336 164.306 100.63 166.625 100.63 166.625C100.681 167.028 101.84 167.684 101.84 167.684C102.697 166.071 102.395 164.306 102.395 164.306C102.243 164.105 101.235 164.004 101.235 164.004Z" fill="#FFDA6D"/>
<path d="M105.066 165.416C104.663 165.315 102.949 168.087 102.949 168.087C103.1 168.188 104.159 168.541 104.159 168.541C104.36 168.087 106.83 165.668 106.83 165.668C106.83 165.668 105.57 165.517 105.066 165.416Z" fill="#F6A61B"/>
<path d="M101.286 164.256C101.286 164.256 103.605 165.012 104.411 165.315C105.419 165.668 106.679 165.819 106.679 165.819C106.024 166.323 104.562 167.734 104.109 168.49C103.705 168.39 102.849 168.138 102.042 167.835C101.992 167.835 101.992 167.785 101.891 167.734C101.185 167.381 100.883 166.928 100.731 166.726C100.933 166.121 101.135 165.315 101.235 164.458L101.286 164.256ZM101.185 163.903C101.336 164.559 100.479 166.726 100.479 166.726C100.479 166.726 100.731 167.482 101.84 168.037C101.84 168.087 101.891 168.087 101.992 168.138C103.05 168.642 104.31 168.894 104.31 168.894C104.814 167.785 107.184 165.466 107.184 165.466L101.185 163.903Z" fill="#A32218"/>
<path d="M101.286 164.105C101.739 163.853 102.748 163.853 104.058 164.256C105.167 164.559 106.226 165.012 106.679 165.315C106.226 165.264 105.268 165.113 103.857 164.71C103.1 164.508 102.395 164.357 101.891 164.256C101.79 164.206 101.437 164.155 101.286 164.105Z" fill="#FDC72D"/>
<path d="M103.856 164.71C103.453 164.609 101.79 164.306 101.79 164.105C101.84 163.853 103.604 164.206 104.008 164.306C104.411 164.407 106.125 164.911 106.125 165.113C106.125 165.315 104.36 164.81 103.856 164.71ZM104.209 163.954C102.495 163.449 101.084 163.601 100.983 164.054C100.983 164.054 100.983 164.105 101.034 164.105C101.286 164.357 102.445 164.357 103.907 164.861C105.721 165.466 107.133 165.667 107.234 165.365C107.234 165.315 107.183 165.163 106.982 165.062C106.478 164.861 105.469 164.357 104.209 163.954Z" fill="#A32218"/>
<path d="M105.167 165.415L104.663 166.524L105.721 165.465L105.167 165.415Z" fill="#A32218"/>
<path d="M102.294 164.407C102.748 164.81 102.294 166.676 102.294 166.676C102.647 166.373 102.949 164.71 102.949 164.71L102.294 164.407Z" fill="#A32218"/>
<path d="M93.6238 175.345L92.7668 174.287L93.2709 173.833L94.0774 174.942L93.6238 175.345Z" fill="#FEFEFC"/>
<path d="M98.8661 167.23C100.429 168.692 103.252 169.549 103.252 169.549C100.53 169.348 98.9669 167.23 98.8661 167.23Z" fill="#FEFEFC"/>
<path d="M103.705 171.867C100.933 172.069 96.1945 168.591 96.1945 168.591L94.8335 170.053C102.546 176.001 104.209 173.228 104.209 173.228L103.705 171.867Z" fill="#5D1224"/>
<path d="M103.756 171.817C100.983 172.019 96.245 168.541 96.245 168.541L94.9344 169.902C102.647 175.85 104.31 173.078 104.31 173.078L103.756 171.817Z" fill="#263262"/>
<path d="M82.5844 157.148C82.0299 157.854 79.9128 164.205 79.9128 164.205L81.9291 165.365C81.7275 164.457 84.6511 158.459 84.6511 158.459L82.5844 157.148Z" fill="#FBBF3D"/>
<path d="M73.8132 184.016C75.8295 184.469 77.997 184.621 79.9124 185.629C81.7775 186.637 82.4328 188.754 84.3987 189.561C88.532 191.476 91.6573 191.728 96.1435 192.232C98.1598 192.434 108.04 194.097 109.35 191.678C107.435 195.257 102.747 197.474 99.4704 199.692C92.1614 204.632 82.4832 206.901 74.4181 202.364C73.0067 201.557 71.5953 200.65 70.4359 199.44C69.0245 197.928 68.7221 195.962 68.8229 193.946C68.9237 192.787 69.0245 191.627 69.4278 190.569C69.7302 189.762 69.9318 188.905 70.3855 188.25C70.8896 187.494 71.6961 186.788 72.3514 186.183C73.9644 184.57 75.8295 183.31 77.7953 182.201" fill="#4E86C4"/>
<path d="M59.2963 189.359C59.6995 190.014 59.9516 190.569 60.002 191.325C60.0524 192.333 60.002 193.392 59.3971 194.299C59.1451 194.602 58.7922 195.005 58.389 195.005C58.0865 195.055 57.7841 195.005 57.4312 195.055C56.7255 195.055 56.0702 195.106 55.3645 195.106C53.9027 195.257 52.3905 195.307 50.8783 195.358C48.0051 195.509 45.0311 195.66 42.1579 195.811C40.444 195.862 38.6294 195.962 36.9156 196.063C36.8652 196.063 36.5627 196.114 36.5627 196.114L34.0424 190.367C38.0749 189.914 42.0571 189.51 46.0896 189.208C48.9628 189.006 51.8864 188.805 54.7596 188.603C55.667 188.553 56.4735 188.502 57.3304 188.452C57.6329 188.401 57.8849 188.452 58.1369 188.401C58.2881 188.351 58.4898 188.452 58.6914 188.502C58.893 188.653 59.1955 189.006 59.2963 189.359Z" fill="#C76118"/>
<path d="M34.0423 190.216L39.335 220.41C34.5968 218.444 20.2307 216.831 17.2063 217.032C14.1819 217.133 14.8372 219.754 14.8372 219.754C12.5185 220.208 9.8469 221.115 11.1071 224.241C12.3672 227.366 19.7771 223.636 19.7771 223.636C18.5169 223.938 13.1234 224.543 14.8372 227.215C16.551 229.836 27.8422 226.61 37.5708 226.156C42.8131 225.904 50.0213 228.576 52.0376 229.533C54.0539 230.541 54.8604 228.777 54.8604 228.777C55.9693 224.241 44.2245 222.527 44.2245 222.527L40.1919 191.93L34.0423 190.216Z" fill="#5D1224"/>
<path d="M34.1431 190.267L39.335 219.956C34.5968 217.99 20.2307 216.377 17.2063 216.579C14.1819 216.68 14.8372 219.301 14.8372 219.301C12.5185 219.755 9.8469 220.662 11.1071 223.787C12.3672 226.913 19.7771 223.182 19.7771 223.182C18.5169 223.384 13.8291 224.644 15.5429 227.316C17.2567 229.937 27.8422 226.207 37.5708 225.703C42.8131 225.451 50.0213 228.122 52.0376 229.08C54.0539 230.088 54.8604 228.324 54.8604 228.324C55.9693 223.787 44.2245 222.073 44.2245 222.073L40.1919 191.476L34.1431 190.267Z" fill="#C76118"/>
<path d="M21.7429 223.687C17.5087 224.392 16.1477 227.719 16.1477 227.719C16.0973 227.316 15.8453 224.695 19.0713 223.485C22.2469 222.376 36.9658 222.628 36.9658 222.628C36.9658 222.628 25.9771 223.082 21.7429 223.687Z" fill="#5D1224"/>
<path d="M14.6859 218.696C25.1706 218.192 31.7235 219.754 31.7235 219.754C23.2551 218.645 14.7867 219.351 14.7867 219.351L14.6859 218.696Z" fill="#5D1224"/>
<path d="M34.7479 194.249L39.0325 194.047L34.6471 193.392L34.7479 194.249Z" fill="#E74715"/>
<path d="M35.8065 200.801L40.0911 200.6L35.7057 199.944L35.8065 200.801Z" fill="#E74715"/>
<path d="M37.2179 208.06L41.5025 207.858L37.1171 207.203L37.2179 208.06Z" fill="#E74715"/>
<path d="M38.4276 215.167L42.7122 214.966L38.3268 214.311L38.4276 215.167Z" fill="#E74715"/>
<path d="M31.4714 222.779C31.5218 224.644 32.3284 225.753 32.3284 225.753C31.7235 224.191 32.0763 222.83 32.0763 222.83L31.4714 222.779Z" fill="#E74715"/>
<path d="M26.7836 223.233C26.5316 225.148 27.5397 226.812 27.5397 226.812C27.0356 224.039 27.8926 223.132 27.8926 223.132L26.7836 223.233Z" fill="#E74715"/>
<path d="M21.6421 223.686C20.9868 226.207 22.1966 227.971 22.1966 227.971C21.4909 225.451 22.6502 223.535 22.6502 223.535L21.6421 223.686Z" fill="#E74715"/>
<path d="M27.7919 219.301C27.5399 220.46 27.9936 221.569 27.9936 221.569C27.8423 220.057 28.4976 219.351 28.4976 219.351L27.7919 219.301Z" fill="#E74715"/>
<path d="M22.8519 219.1C22.5999 220.511 23.0031 221.973 23.0031 221.973C22.8519 220.864 23.5576 219.15 23.5576 219.15L22.8519 219.1Z" fill="#E74715"/>
<path d="M16.3494 219.2C16.047 221.367 16.9039 222.829 16.9039 222.829C16.3494 220.662 17.2568 219.149 17.2568 219.149L16.3494 219.2Z" fill="#E74715"/>
<path d="M18.164 216.579C17.8112 217.234 18.0128 218.142 18.0128 218.142C18.2144 217.285 18.7689 216.63 18.7689 216.63L18.164 216.579Z" fill="#E74715"/>
<path d="M23.4569 217.032C23.104 217.688 23.3056 218.645 23.3056 218.645C23.356 218.192 24.0617 217.083 24.0617 217.083L23.4569 217.032Z" fill="#E74715"/>
<path d="M28.9007 217.688C28.4975 218.343 28.7999 219.2 28.7999 219.2C28.7495 218.444 29.304 217.738 29.304 217.738L28.9007 217.688Z" fill="#E74715"/>
<path d="M52.1384 224.442C51.2815 225.451 51.7856 227.265 51.7856 227.265C51.7856 225.955 52.9954 224.846 52.9954 224.846L52.1384 224.442Z" fill="#E74715"/>
<path d="M47.8538 222.829C47.1985 224.543 47.9546 226.055 47.9546 226.055C47.7025 224.19 49.0131 223.132 49.0131 223.132L47.8538 222.829Z" fill="#E74715"/>
<path d="M15.0891 220.057C10.6029 220.561 10.8045 222.98 10.8045 222.98C10.3004 219.553 14.7867 219.351 14.7867 219.351C23.2551 218.645 31.7234 219.754 31.7234 219.754C31.5722 219.654 19.4745 219.553 15.0891 220.057Z" fill="#F6A559"/>
<path d="M15.9964 216.276C13.8289 217.234 14.7363 219.25 14.7363 219.25C14.4842 217.032 16.0468 216.932 16.0468 216.932C18.8192 215.974 35.6048 218.897 35.6048 218.897C29.7576 217.284 18.2648 215.419 15.9964 216.276Z" fill="#F6A559"/>
<path d="M35.1513 190.569L39.2847 220.007L34.0928 190.317L35.1513 190.569Z" fill="#F6A559"/>
<path d="M70.6881 188.653C69.932 189.107 68.571 190.014 68.2686 190.821C66.7563 195.206 68.5206 198.231 68.319 198.583C68.2686 198.634 65.7482 197.122 65.1433 196.97C61.7156 196.164 61.262 196.164 59.4977 194.652C57.4815 192.887 57.4815 191.325 57.7335 188.603C57.9855 186.234 58.8929 184.419 61.1612 183.613C62.3709 183.159 63.8327 182.151 65.0929 181.949C66.8572 181.596 74.2166 178.521 74.9223 178.118C74.6198 178.925 74.3678 183.965 74.3174 185.125C71.5954 185.478 70.2848 189.712 70.184 189.611C69.68 189.006 70.0832 186.99 70.7385 188.653C70.8393 188.552 70.6881 188.502 70.6881 188.653Z" fill="#3571AF"/>
<path d="M72.3515 186.132C71.6458 185.78 70.6881 185.023 71.0913 184.217C71.545 183.31 73.158 182.755 74.0653 182.604C75.5271 182.352 76.9385 182.453 78.4507 182.805C79.7109 183.158 80.9207 183.41 82.0296 184.116C82.937 184.671 84.55 185.578 84.6508 186.687C83.6427 186.233 82.7857 185.679 81.6768 185.427C80.0134 184.973 78.0475 184.721 76.3336 184.923C75.2247 185.023 73.158 185.175 72.3515 185.88C72.3011 186.233 72.4019 186.284 72.3515 186.132Z" fill="#3571AF"/>
<mask id="mask0_2073_6095" style="mask-type:luminance" maskUnits="userSpaceOnUse" x="11" y="161" width="72" height="48">
<path d="M82.6345 187.141C82.7353 186.788 64.1855 168.894 64.1855 168.894C64.1855 168.894 25.8761 161.181 25.2713 161.282C24.6664 161.383 11.5101 173.38 11.5101 173.38L37.1673 208.362L34.0421 190.367L39.7885 189.611L57.7838 188.2L73.3092 198.835C73.3092 198.835 82.4328 187.544 82.6345 187.141Z" fill="white"/>
</mask>
<g mask="url(#mask0_2073_6095)">
<path d="M37.9738 196.013C36.4616 197.021 36.0583 198.281 36.0583 198.281C37.0161 197.021 38.2763 196.567 38.2763 196.567L37.9738 196.013Z" fill="#E74715"/>
<path d="M35.1516 192.484C33.4881 193.19 32.6312 194.904 32.6312 194.904C34.6475 193.089 35.8069 193.291 35.8069 193.291L35.1516 192.484Z" fill="#E74715"/>
<path d="M32.1775 188.603C29.7579 189.308 28.9514 191.224 28.9514 191.224C30.6653 189.308 32.7824 189.258 32.7824 189.258L32.1775 188.603Z" fill="#E74715"/>
<path d="M32.9838 181.898C31.1188 182.806 30.3627 184.268 30.3627 184.268C31.8749 182.705 33.5383 182.655 33.5383 182.655L32.9838 181.898Z" fill="#E74715"/>
<path d="M70.8898 195.811L56.423 178.924L59.6994 173.884C68.2686 184.318 75.0232 190.115 75.0232 190.115C76.8378 192.837 72.2004 197.575 70.8898 195.811Z" fill="#E1700D"/>
<path d="M59.5987 173.833L37.7725 193.794C36.966 188.855 30.7659 176.404 29.0521 174.035C27.3382 171.666 25.6244 173.581 25.6244 173.581C24.1122 172.019 21.9951 170.305 20.0796 172.926C18.1641 175.547 25.0195 179.63 25.0195 179.63C24.213 178.723 19.6259 177.463 18.3154 180.235C17.1056 183.007 26.8342 187.695 32.2781 195.357C35.2521 199.49 36.8148 206.699 37.0668 208.816C37.2684 210.983 39.1335 210.731 39.1335 210.731C43.4685 209.219 38.7302 198.835 38.7302 198.835L61.5646 179.68L59.5987 173.833Z" fill="#5D1224"/>
<path d="M59.6489 173.934L38.2259 193.542C37.4193 188.603 31.2193 176.152 29.5054 173.783C27.7916 171.414 26.0778 173.329 26.0778 173.329C24.5655 171.767 22.4484 170.053 20.533 172.674C18.6175 175.295 25.4729 179.378 25.4729 179.378C24.6664 178.471 20.0793 177.211 18.7687 179.983C17.559 182.755 27.2875 187.443 32.7315 195.105C35.7055 199.238 37.2681 206.447 37.5202 208.564C37.7218 210.731 39.5868 210.479 39.5868 210.479C43.9219 208.967 39.1836 198.583 39.1836 198.583L62.018 179.428L59.6489 173.934Z" fill="#E1700D"/>
<path d="M26.1786 181.193C23.4062 178.068 19.9785 178.723 19.9785 178.723C20.3314 178.471 22.3476 176.908 24.9688 178.925C27.4892 180.941 34.9494 193.039 34.9494 193.039C34.9494 193.039 28.9006 184.318 26.1786 181.193Z" fill="#5D1224"/>
<path d="M26.6829 172.876C32.4293 181.193 34.6472 187.292 34.6472 187.292C31.0683 179.883 26.1284 173.33 26.1284 173.33L26.6829 172.876Z" fill="#5D1224"/>
<path d="M56.8768 176.505L59.2964 179.882L57.4817 176.001L56.8768 176.505Z" fill="#E74715"/>
<path d="M52.1886 180.689L54.5073 184.066L52.6927 180.185L52.1886 180.689Z" fill="#E74715"/>
<path d="M46.9967 185.679L49.3154 189.056L47.5008 185.175L46.9967 185.679Z" fill="#E74715"/>
<path d="M41.8049 190.317L44.2245 193.694L42.4098 189.812L41.8049 190.317Z" fill="#E74715"/>
<path d="M31.9755 188.603C30.4633 189.611 30.0601 190.871 30.0601 190.871C31.0178 189.611 32.278 189.157 32.278 189.157L31.9755 188.603Z" fill="#E74715"/>
<path d="M29.2033 185.023C27.5399 185.729 26.683 187.443 26.683 187.443C28.6993 185.628 29.8586 185.83 29.8586 185.83L29.2033 185.023Z" fill="#E74715"/>
<path d="M26.1786 181.243C23.759 181.949 22.9525 183.864 22.9525 183.864C24.6664 181.949 26.7834 181.898 26.7834 181.898L26.1786 181.243Z" fill="#E74715"/>
<path d="M32.9333 183.864C31.8748 184.318 31.1691 185.175 31.1691 185.175C32.3788 184.268 33.2358 184.419 33.2358 184.419L32.9333 183.864Z" fill="#E74715"/>
<path d="M30.4634 179.731C29.2032 180.135 28.1951 181.294 28.1951 181.294C29.1024 180.538 30.8162 180.236 30.8162 180.236L30.4634 179.731Z" fill="#E74715"/>
<path d="M26.9855 174.489C25.1205 175.397 24.3644 176.858 24.3644 176.858C25.8766 175.296 27.54 175.245 27.54 175.245L26.9855 174.489Z" fill="#E74715"/>
<path d="M30.1104 174.59C29.5055 174.691 28.7998 175.296 28.7998 175.296C29.5559 175.044 30.4128 175.094 30.4128 175.094L30.1104 174.59Z" fill="#E74715"/>
<path d="M32.5806 179.076C31.8245 179.227 31.1188 179.832 31.1188 179.832C31.4716 179.58 32.7822 179.631 32.7822 179.631L32.5806 179.076Z" fill="#E74715"/>
<path d="M34.899 183.966C34.0925 183.966 33.5884 184.672 33.5884 184.672C34.0924 184.218 34.9998 184.319 34.9998 184.319L34.899 183.966Z" fill="#E74715"/>
<path d="M41.4521 206.346C40.1919 206.144 38.9318 207.556 38.9318 207.556C39.9399 206.85 41.5025 207.253 41.5025 207.253L41.4521 206.346Z" fill="#E74715"/>
<path d="M40.4942 201.91C38.8308 202.213 37.9235 203.624 37.9235 203.624C39.234 202.565 40.7967 203.019 40.7967 203.019L40.4942 201.91Z" fill="#E74715"/>
<path d="M25.7251 173.934C22.9527 170.507 21.1381 171.968 21.1381 171.968C23.608 169.751 26.1284 173.279 26.1284 173.279C31.1187 179.832 34.6472 187.292 34.6472 187.292C34.5967 187.141 28.4471 177.211 25.7251 173.934Z" fill="#F6A559"/>
<path d="M23.3057 179.731C20.8357 178.168 18.8195 179.933 18.8195 179.933C18.9707 179.277 20.0796 177.715 23.8098 179.378C27.5399 181.042 34.8489 192.837 34.8489 192.837C33.7399 191.526 27.1366 182.151 23.3057 179.731Z" fill="#F6A559"/>
<path d="M29.2032 172.775C27.2878 171.515 26.1284 173.279 26.1284 173.279C27.8423 171.868 28.7496 173.128 28.7496 173.128C30.9675 174.842 37.3188 190.014 37.3188 190.014C35.5545 184.419 31.1187 174.035 29.2032 172.775Z" fill="#F6A559"/>
<path d="M60.1029 174.892L38.2766 193.543L59.6996 173.935L60.1029 174.892Z" fill="#F6A559"/>
<path d="M59.6492 175.346L59.6996 173.935L75.1745 190.418L59.6492 175.346Z" fill="#F7A963"/>
</g>
<path d="M143.778 103.767C141.762 103.364 139.745 103.062 137.679 103.112C133.293 103.112 129.412 108.707 124.926 106.439C125.077 106.489 125.127 106.59 125.228 106.741C119.129 104.675 113.08 102.406 106.93 100.189C107.132 100.239 107.384 100.239 107.586 100.239C104.763 98.021 104.208 90.964 106.426 88.0908L102.293 93.4844C99.3694 81.4875 107.233 74.1281 107.233 74.1281C102.595 75.237 100.982 77.0517 100.982 77.0517C101.991 74.8337 103.1 72.7167 104.612 70.7004C108.796 64.7523 115.248 60.8206 122.657 61.3247C125.077 61.4759 127.144 62.6857 129.412 63.0385C131.932 63.4418 134.402 62.4336 137.023 63.0889C139.695 63.7946 142.871 64.3491 145.341 65.7101C148.768 67.6255 151.994 70.5491 155.019 73.0191C159.455 76.598 164.142 79.9753 168.477 83.6046C172.812 87.2339 180.626 92.7283 182.087 98.5251C185.112 110.421 164.999 108.102 158.446 107.245C153.557 106.54 148.718 104.776 143.778 103.767Z" fill="#D3742E"/>
<path d="M125.329 63.9964C125.329 63.9964 115.449 62.2321 107.283 70.7005C107.283 70.7005 109.4 69.9444 112.576 70.8517C112.576 70.8517 106.981 74.7331 105.267 85.4194C105.267 85.4194 108.14 83.3023 109.451 83.3527C109.451 83.3527 104.864 93.4341 111.82 104.423C111.82 104.423 106.023 96.0048 110.66 82.7478C110.66 82.7478 108.291 82.4454 106.88 83.2519C106.88 83.2519 108.594 75.0859 115.046 70.146C115.046 70.146 111.517 68.8354 110.106 68.9867C110.156 69.0875 117.112 63.8956 125.329 63.9964Z" fill="#F7B456"/>
<path d="M189.447 97.5674C189.447 97.5674 199.478 94.0893 207.946 79.8745C207.946 79.8745 210.063 85.4697 205.527 90.7624C205.527 90.7624 205.375 91.3673 208.45 89.4519C208.45 89.4519 206.888 103.062 192.522 108.102C192.522 108.102 200.032 124.334 189.951 132.651C189.951 132.651 189.497 129.727 186.574 127.358C186.574 127.358 185.666 136.734 173.821 141.371C173.821 141.371 174.274 137.238 173.619 135.272C173.821 135.776 172.51 137.49 172.208 137.943C170.947 139.657 169.385 140.766 167.368 141.17C163.084 142.077 158.547 141.018 154.263 140.161C147.609 138.7 140.754 135.978 134.906 132.55C123.061 125.695 112.223 117.68 107.737 104.272C104.864 95.8536 107.888 87.7884 112.173 80.5298C115.096 75.5899 118.927 70.0452 123.061 66.063C124.472 64.7524 126.236 64.1979 127.648 63.1394C128.958 62.0304 128.253 60.4174 128.404 58.8044C128.605 56.2336 129.21 53.6629 130.017 51.1929C132.285 44.64 137.074 39.4985 143.929 37.583C143.929 37.583 129.059 58.3507 143.022 74.6322C154.363 87.8388 177.248 102.659 189.447 97.5674Z" fill="#D5742E"/>
<path opacity="0.6" d="M185.566 124.535C185.566 124.535 184.406 121.713 182.743 120.1C182.743 120.1 181.836 134.415 174.627 140.212C174.627 140.262 184.356 137.238 185.566 124.535Z" fill="#C65217"/>
<path d="M177.299 106.288C177.299 106.288 183.952 126.098 163.235 129.627C163.134 129.627 180.373 125.896 177.299 106.288Z" fill="#5E1424"/>
<path d="M188.892 97.8194C188.892 97.8194 180.575 102.154 165.403 95.1478C153.305 89.5526 144.534 95.9543 144.534 95.9543C144.534 95.9543 148.365 86.7298 141.711 76.9509C135.158 67.1719 134.251 57.4937 138.082 50.3359C138.082 50.3359 132.134 66.7182 155.12 83.5542C177.299 99.7348 183.348 98.7771 188.892 97.8194Z" fill="#5E1424"/>
<path d="M143.828 37.4824C143.828 37.4824 133.495 48.3703 133.495 56.2843C133.495 56.2843 131.63 52.3021 132.084 50.8403C132.084 50.8403 127.9 61.6778 129.664 65.8616C129.664 65.8616 126.035 62.3835 129.967 51.0419C133.797 39.6499 143.828 37.4824 143.828 37.4824Z" fill="#C65217"/>
<path d="M207.946 79.9248C207.946 79.9248 210.063 85.0663 205.527 90.8127C205.527 90.8127 206.989 90.7623 208.45 89.5021C208.45 89.5021 206.737 103.062 192.522 108.153C192.522 108.153 190.556 106.842 189.85 106.086C189.85 106.086 202.956 102.558 206.233 92.0225C206.233 92.0225 204.67 92.0729 203.712 91.0648C203.813 91.0144 209.055 83.6549 207.946 79.9248Z" fill="#5E1424"/>
<path d="M192.572 108.203C192.572 108.203 200.234 124.182 190.001 132.752C190.001 132.752 188.691 129.274 186.624 127.459C186.624 127.459 185.717 137.238 173.871 141.472C173.871 141.472 174.476 138.448 173.669 135.373C173.669 135.373 173.216 139.153 167.721 141.27C167.721 141.27 171.855 139.506 173.165 133.407C173.165 133.407 175.988 134.818 174.728 140.313C174.728 140.313 184.305 137.288 185.616 124.636C185.616 124.636 189.9 128.265 190.556 130.836C190.556 130.836 196.806 117.932 189.951 106.137L192.572 108.203Z" fill="#5E1424"/>
<path d="M143.828 37.4824C143.828 37.4824 133.495 48.3199 133.495 56.2843C133.495 56.2843 131.781 52.9574 132.083 50.8403C132.083 50.8403 127.9 60.8713 129.664 65.8616C129.664 65.8616 129.009 60.1152 131.781 54.2176C131.781 54.2176 132.739 57.0404 134.049 58.3509C134.1 58.3005 133.797 49.5297 143.828 37.4824Z" fill="#F7B557"/>
<path d="M144.584 95.9539C144.584 95.9539 149.071 89.0482 141.762 76.9505C134.553 64.8528 135.511 57.695 137.88 50.9404C137.88 50.9404 130.269 58.6527 138.233 73.3212C146.399 88.2416 144.937 89.653 144.584 95.9539Z" fill="#F7B557"/>
<path d="M189.9 106.035C189.9 106.035 182.894 108.404 179.869 106.993C179.869 106.993 189.749 112.235 190.505 130.735C190.505 130.735 197.109 118.082 189.9 106.035Z" fill="#C65217"/>
<path d="M174.778 129.727C174.778 129.727 167.066 137.036 157.337 137.742C157.337 137.742 144.131 135.625 133.999 125.442C133.999 125.442 148.819 135.171 156.178 131.189C156.178 131.189 155.069 132.802 153.002 133.709C153.002 133.709 162.781 134.314 168.125 129.828C168.125 129.828 165.705 133.356 158.598 135.07C158.497 135.07 163.89 136.582 174.778 129.727Z" fill="#C65217"/>
<path d="M137.931 113.646C137.931 113.646 129.261 117.427 126.337 120.199C126.337 120.199 127.244 109.815 128.858 106.64L137.931 113.646Z" fill="#C55217"/>
<path d="M136.57 105.179C133.697 102.507 129.261 106.288 128.858 106.741C128.505 107.195 127.9 117.73 127.9 117.73C127.9 117.73 133.797 114.101 137.981 113.748C137.931 113.647 140.955 109.312 136.57 105.179Z" fill="#F0E526"/>
<path d="M129.11 102.759C129.11 102.759 127.144 106.892 124.321 105.783C124.22 105.783 126.841 105.38 129.11 102.759Z" fill="#5E1525"/>
<path d="M140.401 110.572C140.401 110.572 138.133 114.202 141.157 117.932C141.207 117.932 139.594 114.151 140.401 110.572Z" fill="#5E1525"/>
<path d="M131.227 112.185L136.519 105.179C136.519 105.179 140.653 108.052 138.132 113.345L131.227 112.185Z" fill="#F1980B"/>
<path d="M130.269 112.992L127.9 117.629C127.9 117.629 133.797 114 137.78 113.748C137.88 113.647 133.898 111.681 130.269 112.992Z" fill="#F1980B"/>
<path d="M139.947 113.848C139.947 113.848 132.89 114.806 130.269 113.395C128.152 112.235 128.202 110.37 127.043 104.926L127.648 104.473C127.648 104.473 128.606 108.455 131.983 110.874C135.663 113.445 139.998 113.143 139.998 113.143L139.947 113.848Z" fill="#5E1525"/>
<path d="M141.056 91.7709C141.056 91.7709 142.82 79.522 132.487 74.0276C123.565 69.2894 115.853 76.7496 114.34 79.5724L141.056 91.7709Z" fill="#C55217"/>
<path d="M139.594 96.9124C136.923 100.39 130.218 105.33 120.591 99.1303C112.576 93.8879 108.947 83.7057 116.457 77.1528C125.379 69.4405 135.965 77.6065 137.83 80.1772C138.687 81.4374 144.08 91.0147 139.594 96.9124Z" fill="#68311C"/>
<path d="M139.04 96.6098C136.368 100.088 129.916 104.07 121.952 99.483C113.987 94.896 109.854 84.613 117.465 78.06C126.387 70.3478 135.763 78.3625 137.527 80.9333C138.384 82.2438 143.526 90.7122 139.04 96.6098Z" fill="white"/>
<path fill-rule="evenodd" clip-rule="evenodd" d="M124.825 77.4052C121.901 76.8003 119.028 78.8166 118.423 81.841C117.919 84.8654 119.835 87.789 122.758 88.3435C125.682 88.9484 128.555 86.9321 129.16 83.9077C129.765 80.8832 127.799 78.01 124.825 77.4052Z" fill="#020203"/>
<path d="M124.018 81.5885C124.522 81.7397 124.926 82.1934 124.774 82.6974C124.623 83.2015 124.17 83.6048 123.665 83.4535C123.161 83.3023 122.758 82.8486 122.909 82.3446C123.061 81.8405 123.514 81.5381 124.018 81.5885Z" fill="white"/>
<path d="M153.053 97.8696C153.053 97.8696 164.999 94.5428 171.754 104.12C177.551 112.387 171.149 121.006 168.578 122.771L153.053 97.8696Z" fill="#C55217"/>
<path d="M148.063 100.037C144.988 103.061 140.905 110.37 148.264 119.192C154.464 126.501 164.999 128.769 170.594 120.502C177.147 110.723 167.721 101.146 164.898 99.7345C163.537 98.928 153.355 94.7946 148.063 100.037Z" fill="#68311C"/>
<path d="M148.415 100.44C145.34 103.464 142.165 110.471 147.659 117.78C153.204 125.089 163.94 127.861 169.485 119.544C176.038 109.765 166.914 101.398 164.092 100.037C162.731 99.3311 153.708 95.2481 148.415 100.44Z" fill="white"/>
<path fill-rule="evenodd" clip-rule="evenodd" d="M153.254 102.205C150.18 103.213 148.466 106.49 149.474 109.514C150.432 112.538 153.759 114.151 156.833 113.194C159.908 112.186 161.622 108.909 160.614 105.885C159.606 102.86 156.279 101.197 153.254 102.205Z" fill="#020203"/>
<path d="M155.573 106.489C155.372 105.985 154.817 105.683 154.313 105.834C153.809 106.036 153.406 106.59 153.658 107.094C153.859 107.598 154.414 107.901 154.918 107.749C155.422 107.548 155.724 107.044 155.573 106.489Z" fill="white"/>
<path d="M119.532 113.496C119.532 113.496 114.693 110.018 114.794 103.616C114.794 103.616 113.03 105.582 112.425 106.842C112.425 106.842 103.352 98.9788 107.031 86.5282C107.031 86.5282 104.158 88.7462 102.747 91.6194C102.747 91.6194 100.63 81.7396 107.586 73.8761C107.586 73.8761 104.662 73.2208 101.537 75.5899C101.537 75.5899 108.997 58.0483 128.706 63.1394C128.706 63.1394 109.703 53.4108 99.5208 78.3119C99.5208 78.3119 102.898 75.4891 105.62 74.985C105.62 74.985 98.1598 83.3022 101.789 94.5934C101.789 94.5934 103.856 91.5689 105.62 88.9982C105.62 88.9982 100.68 98.878 112.828 108.758L114.088 106.641C114.24 106.641 113.937 109.917 119.532 113.496Z" fill="#5E1525"/>
<path d="M58.2871 70.2969L82.1801 88.5947C78.1979 98.172 59.8497 86.1751 56.9765 83.1507L77.6938 99.1297C77.6938 99.1297 72.4515 103.162 65.8986 102.809C60.7571 102.507 54.8594 99.4826 49.1634 95.6516L71.1913 109.413C71.1913 109.413 55.0611 120.704 39.4349 104.826C39.4349 104.826 26.9843 94.4923 31.3193 89.0483C32.4787 87.4857 36.108 83.1003 37.0658 83.3019C37.0658 83.3019 36.4609 80.0759 40.0902 75.1864C42.2073 72.3132 45.9878 72.666 45.9878 72.666C45.9878 72.666 47.4496 67.2725 52.6415 67.2725C55.5147 67.3733 56.3212 68.6839 58.2871 70.2969Z" fill="#D5742E"/>
<path d="M54.6581 67.6758L84.1967 88.9475C84.1967 88.9475 78.9039 99.281 61.3623 86.0744L79.9121 98.8777C79.9121 98.8777 75.4259 110.875 56.1704 99.8859L73.1071 109.161C73.1071 109.161 60.2029 120.15 46.6434 110.572C46.6434 110.572 60.0517 116.823 70.2339 108.959L49.9703 96.559C49.9703 96.559 70.1835 108.052 77.543 99.2306L54.2045 81.6889C54.2045 81.6889 75.3754 95.7525 81.6763 88.998L54.6581 67.6758Z" fill="#5E1424"/>
<path d="M54.6584 67.6755C54.6584 67.6755 47.4502 65.8104 45.9884 72.7666C45.9884 72.7666 49.9706 78.513 54.3056 81.5878C54.3056 81.5878 47.6518 74.6821 47.6014 72.0609C47.6014 72.1113 48.5088 68.3308 54.6584 67.6755Z" fill="#F9C981"/>
<path d="M45.9881 72.7672C45.9881 72.7672 41.8547 72.4648 40.0905 75.2876C38.3262 78.1104 36.3099 81.3364 37.066 83.4031C37.066 83.4031 43.1149 91.4178 50.1215 96.509C50.1215 96.509 39.4856 85.9739 38.4774 81.9413C38.4774 81.9413 38.4774 75.9429 45.9881 72.7672Z" fill="#F9C981"/>
<path d="M37.0662 83.3525C37.0662 83.3525 35.6044 83.8566 33.4369 86.5282C31.2694 89.1998 28.3457 90.5608 32.4791 97.4161C36.6125 104.171 45.5345 110.22 48.0045 111.026C48.0045 111.026 33.5377 100.642 32.4791 91.7201C32.4791 91.7705 33.4369 87.5867 37.0662 83.3525Z" fill="#F9C981"/>
<path opacity="0.6" d="M65.0926 75.5391L82.1806 88.6449C82.1806 88.6449 77.039 96.7604 56.8258 82.9489C56.8258 82.8985 72.7544 88.2416 65.0926 75.5391Z" fill="#87391E"/>
<path d="M50.1217 96.5588C50.1217 96.5588 68.0162 109.11 78.8033 99.5833L55.9689 82.6465C55.9689 82.6465 69.73 94.2905 65.3446 97.1133C60.8584 99.8857 50.1217 96.5588 50.1217 96.5588Z" fill="#87391E"/>
<path d="M50.1217 96.5586C50.1217 96.5586 67.0585 107.245 70.3853 108.959C70.3853 108.959 59.4974 118.334 44.7281 109.312C44.7281 109.312 61.0096 107.043 50.1217 96.5586Z" fill="#87391E"/>
<path d="M147.256 151.957C147.256 151.957 156.732 178.673 170.04 186.99L168.124 189.863C168.124 189.863 159.001 183.865 152.851 171.868C146.651 159.921 145.593 153.419 145.593 153.419L147.256 151.957Z" fill="#4D85C3"/>
<path d="M116.961 150.848C116.961 150.848 125.833 151.402 125.631 141.522C125.581 141.573 124.472 149.789 116.961 150.848Z" fill="#E98640"/>
<path d="M108.341 160.324C108.341 160.324 117.213 160.879 117.011 150.999C116.961 150.999 115.751 159.316 108.341 160.324Z" fill="#E98640"/>
<path d="M115.449 158.51C115.449 158.51 124.32 159.064 124.119 149.185C124.018 149.235 122.909 157.502 115.449 158.51Z" fill="#E98640"/>
<path d="M182.591 145.605C182.591 145.605 158.446 134.818 136.973 144.798C136.923 144.698 169.838 174.791 182.591 145.605Z" fill="#853915"/>
<path d="M136.922 144.698C136.922 144.698 150.179 129.526 182.541 145.505C182.541 145.505 152.297 134.213 139.443 145.958L136.922 144.698Z" fill="#742E17"/>
<path d="M172.762 146.513C172.762 146.513 172.913 149.688 169.435 150.394C165.957 151.1 165.15 147.823 165.15 147.823C165.15 147.823 167.822 149.94 169.586 149.487C172.106 148.68 172.762 146.513 172.762 146.513Z" fill="#712D12"/>
<path d="M164.545 147.924C164.545 147.924 163.89 151.049 160.261 150.797C156.682 150.545 156.883 147.168 156.883 147.168C156.883 147.168 158.9 149.991 160.664 149.94C163.336 149.84 164.545 147.924 164.545 147.924Z" fill="#712D12"/>
<path d="M169.334 151.452C169.334 151.452 169.032 154.577 165.402 154.779C161.874 154.981 161.571 151.603 161.571 151.603C161.571 151.603 163.94 154.174 165.705 153.872C168.427 153.468 169.334 151.452 169.334 151.452Z" fill="#712D12"/>
<path d="M176.744 148.933C176.744 148.933 177.046 152.108 173.568 153.016C170.09 153.923 169.132 150.697 169.132 150.697C169.132 150.697 171.955 152.663 173.669 152.108C176.189 151.1 176.744 148.933 176.744 148.933Z" fill="#712D12"/>
<path d="M177.046 158.157C177.046 158.157 174.98 160.173 162.126 156.745C143.828 151.957 133.646 138.8 121.044 138.851C110.358 138.901 110.711 138.851 106.376 142.077C103.351 144.295 105.065 152.461 105.065 152.461C107.384 145.051 109.803 146.513 113.382 145.504C113.382 145.504 104.662 150.344 104.359 154.326L103.906 161.433C109.955 151.906 115.046 151.251 115.046 151.251C115.046 151.251 111.719 158.409 107.182 161.332C104.813 162.844 99.3691 164.911 99.3691 164.911C106.829 173.833 116.256 162.139 118.826 160.425C118.826 160.425 113.987 166.827 107.585 172.926C107.585 172.926 115.802 180.487 122.204 173.027C126.387 168.188 127.194 167.331 127.748 164.659C127.748 164.659 125.53 174.388 119.633 182.352C119.633 182.352 129.714 190.014 131.882 184.52C134.1 178.773 132.235 173.884 131.73 170.809C131.73 170.809 135.914 186.334 139.745 189.409C143.677 192.433 150.583 192.081 151.742 191.728L146.046 179.68C146.046 179.68 154.061 195.811 167.772 189.258C167.772 189.258 161.269 184.52 158.95 178.975C158.95 178.975 167.923 191.829 178.811 192.433L186.624 189.308L183.246 186.334C183.246 186.334 191.16 190.468 196.1 186.435C196.1 186.435 197.461 176.505 196.1 170.406C196.1 170.406 198.117 183.612 197.713 185.528C197.713 185.528 201.948 184.872 202.099 181.848C202.149 180.487 204.972 174.489 203.51 167.835C201.998 160.677 196.05 151.805 181.936 145.252C181.885 145.252 183.045 152.057 177.046 158.157Z" fill="url(#paint0_linear_2073_6095)"/>
<g opacity="0.6">
<path opacity="0.5" d="M194.79 153.67C194.79 153.67 195.546 159.719 191.161 160.173C191.161 160.173 188.187 168.44 181.432 170.557C174.677 172.573 176.795 166.877 176.795 166.877C176.795 166.877 170.342 168.893 166.159 169.297C170.947 166.423 175.182 163.046 175.182 163.046C159.908 171.01 151.44 166.726 151.44 166.726L152.801 170.355C145.693 170.456 140.35 163.349 139.897 162.794C140.149 163.046 141.61 165.264 139.544 166.222C133.293 169.448 124.371 152.813 124.371 152.813C118.423 163.752 106.779 172.775 106.779 172.775C117.163 181.142 123.313 172.119 127.345 165.97C127.345 165.97 125.127 172.523 123.918 174.942C123.01 176.807 119.431 182.352 119.431 182.352C132.991 192.585 132.688 181.495 131.63 173.833C132.487 176.555 133.596 178.723 134.15 180.789C138.082 195.559 150.734 191.576 150.734 191.576C148.516 187.695 144.887 178.874 143.324 174.085C150.986 197.323 166.864 189.107 166.864 189.107C159.757 184.721 155.321 172.472 155.321 172.472C155.22 172.422 155.422 172.523 155.321 172.472C156.733 179.076 166.411 191.375 177.904 192.181L185.717 189.056L182.339 186.082C182.339 186.082 190.102 190.316 195.193 186.183C195.193 186.183 196 176.354 195.647 173.228C195.848 175.043 196.907 183.713 196.756 185.276C196.756 185.276 201.091 184.721 201.091 181.142C201.343 177.916 209.962 169.75 194.79 153.67Z" fill="#F1924E"/>
</g>
<path d="M99.4701 165.012C99.4701 165.012 103.553 172.17 113.03 165.516L118.927 160.526L119.28 160.476L124.774 153.52C124.674 153.62 106.981 169.297 99.4701 165.012Z" fill="#A85424"/>
<path d="M104.864 145C104.864 145 107.586 135.12 124.774 139.304C134.251 141.623 140.905 146.563 154.262 153.418C167.671 160.324 175.887 156.947 181.835 145.706L184.355 146.462C184.355 146.462 183.549 164.457 164.747 160.374C148.617 156.947 135.612 142.278 122.607 140.514C110.912 138.951 109.551 142.782 104.864 145Z" fill="#762F14"/>
<path d="M125.077 153.116C125.077 153.116 134.049 169.902 140.249 166.524C140.249 166.524 142.013 165.668 140.602 163.097C140.602 163.097 146.6 170.859 153.506 170.658L152.095 167.432C152.095 167.432 159.303 171.565 175.887 163.298C175.887 163.298 161.168 170.557 151.339 165.92C151.339 165.92 151.389 168.944 152.095 169.851C152.095 169.851 144.786 168.39 139.644 160.778C139.644 160.778 141.963 166.726 138.586 165.869C135.158 164.76 131.68 162.643 125.077 153.116Z" fill="#EE8035"/>
<path d="M128.756 152.159C128.756 152.159 130.016 156.141 132.033 156.242C134.099 156.292 135.763 153.368 135.057 150.243C135.057 150.243 133.746 155.637 131.579 154.729C129.361 153.721 128.756 152.159 128.756 152.159Z" fill="#EE8035"/>
<path opacity="0.6" d="M134.705 171.868C134.705 171.868 135.965 175.85 137.981 175.951C140.048 176.001 141.711 173.077 141.005 169.952C141.005 169.952 139.695 175.346 137.527 174.438C135.41 173.481 134.705 171.868 134.705 171.868Z" fill="#87391E"/>
<path opacity="0.6" d="M145.542 174.337C145.542 174.337 146.802 178.319 148.818 178.42C150.885 178.471 152.548 175.547 151.843 172.422C151.843 172.422 150.532 177.815 148.365 176.908C146.197 176.001 145.542 174.337 145.542 174.337Z" fill="#87391E"/>
<path opacity="0.6" d="M176.845 175.043C176.845 175.043 178.054 179.076 180.121 179.126C182.188 179.177 183.851 176.253 183.146 173.128C183.146 173.128 181.835 178.521 179.668 177.614C177.5 176.656 176.845 175.043 176.845 175.043Z" fill="#87391E"/>
<path opacity="0.6" d="M184.506 174.69C184.506 174.69 185.767 178.672 187.783 178.773C189.85 178.823 191.513 175.9 190.807 172.774C190.807 172.774 189.497 178.168 187.329 177.261C185.212 176.353 184.506 174.69 184.506 174.69Z" fill="#87391E"/>
<path d="M136.317 154.023C136.317 154.023 136.317 157.199 139.342 157.754C142.366 158.308 144.534 154.578 144.584 154.275C144.584 154.275 141.308 157.451 139.291 156.594C137.376 155.687 136.317 154.023 136.317 154.023Z" fill="#EE8035"/>
<path d="M132.033 156.846C132.033 156.846 132.436 160.273 135.712 161.08C138.938 161.836 139.443 157.854 139.443 157.854C139.443 157.854 137.83 161.08 135.662 159.921C133.495 158.66 132.234 157.904 132.033 156.846Z" fill="#EE8035"/>
<path d="M148.516 159.014C148.516 159.014 148.314 162.24 151.439 163.046C154.565 163.802 158.396 160.223 158.396 160.223C158.396 160.223 155.17 162.542 152.044 161.786C148.919 160.98 148.516 159.014 148.516 159.014Z" fill="#EE8035"/>
<path d="M145.391 177.614C145.391 177.614 150.835 190.922 151.692 191.879C151.692 191.879 143.122 194.198 138.435 187.998C138.435 187.998 144.635 192.686 150.381 191.375C150.331 191.375 145.945 180.992 145.391 177.614Z" fill="#D5742E"/>
<path d="M131.983 171.313C131.983 171.313 134.856 183.915 130.47 186.083C126.186 188.301 119.582 182.504 119.582 182.504C119.582 182.504 127.9 187.847 130.067 185.327C132.184 182.857 131.831 172.07 131.983 171.313Z" fill="#D5742E"/>
<path d="M158.144 177.513C158.144 177.513 162.328 185.729 167.822 189.459C167.822 189.459 160.866 193.441 154.262 188.955C154.262 188.955 160.009 191.778 166.209 189.661C166.108 189.56 158.95 181.495 158.144 177.513Z" fill="#D5742E"/>
<path d="M178.861 192.535L186.573 189.41L183.196 186.436L185.112 189.107L178.861 192.535Z" fill="#D5742E"/>
<path d="M196.604 174.488C196.604 174.488 196.453 185.931 196.1 186.737C196.1 186.737 193.681 188.955 190.455 188.501C190.455 188.501 195.092 187.594 195.445 185.981C196.201 181.999 196.604 174.488 196.604 174.488Z" fill="#D5742E"/>
<path d="M190.404 188.401C190.404 188.401 179.768 188.199 170.846 175.749C170.846 175.648 178.558 189.258 190.404 188.401Z" fill="#5E1424"/>
<path d="M156.279 172.825C156.279 172.825 161.622 190.216 178.861 192.534C178.861 192.534 164.445 188.552 156.279 172.825Z" fill="#5E1424"/>
<path d="M143.526 174.287C143.526 174.287 150.936 197.978 167.822 189.359C167.822 189.359 158.043 193.391 151.541 185.982C145.845 179.429 143.526 174.287 143.526 174.287Z" fill="#5E1424"/>
<path d="M131.781 171.313C131.781 171.313 133.747 186.436 139.795 189.813C145.844 193.19 151.742 191.779 151.742 191.779C151.742 191.779 142.719 192.081 139.09 187.545C135.36 183.058 131.881 171.767 131.781 171.313Z" fill="#5E1424"/>
<path d="M127.446 166.121C127.446 166.121 124.774 174.388 119.633 182.604C119.633 182.604 123.363 185.427 125.228 185.427C125.228 185.427 121.296 183.007 121.195 182.201C121.145 182.1 127.648 170.557 127.446 166.121Z" fill="#5E1424"/>
<path d="M106.829 172.927C106.829 172.927 117.515 162.643 118.775 160.526C118.775 160.526 111.063 170.255 108.291 172.725C108.291 172.725 114.088 180.437 123.413 171.515C123.564 171.465 117.717 182 106.829 172.927Z" fill="#5E1424"/>
<path d="M175.837 153.57C175.837 153.57 184.305 146.513 168.981 140.363C168.981 140.363 178.911 143.539 184.305 146.513C184.305 146.513 178.206 153.167 175.837 153.57Z" fill="#762F14"/>
<path d="M107.989 147.219C107.989 147.219 106.577 147.924 105.065 152.612C105.065 152.612 105.922 151.1 107.333 149.991L107.989 147.219Z" fill="#5E1424"/>
<path d="M103.956 161.534C103.956 161.534 108.392 153.065 115.096 151.352C115.096 151.352 113.836 153.872 112.929 155.182C112.929 155.182 113.987 152.965 113.937 152.461C113.937 152.461 108.543 155.233 103.956 161.534Z" fill="#5E1424"/>
<path d="M163.688 242.841C163.487 242.639 163.335 242.538 163.234 242.437C163.386 242.387 163.487 242.437 163.487 242.437L167.57 242.538C167.57 242.538 167.569 245.815 166.965 248.89L163.839 249.192C163.839 249.142 165.251 244.504 163.688 242.841Z" fill="#E4B171"/>
<path d="M161.319 252.62C162.579 252.217 163.839 251.763 165.049 251.259C165.15 251.209 165.099 251.108 164.999 251.108C163.638 251.209 162.327 251.36 160.966 251.461C160.815 250.654 160.714 249.646 160.815 248.386C160.865 247.68 160.916 247.025 161.017 246.47C161.672 246.319 162.327 246.118 162.932 245.866C163.033 245.815 162.982 245.714 162.882 245.714C162.327 245.664 161.722 245.664 161.117 245.664C161.672 243.093 162.73 242.589 163.234 242.488C163.386 242.589 163.537 242.69 163.688 242.892C165.251 244.505 163.839 249.192 163.839 249.192L166.965 248.89C166.511 251.461 165.654 253.88 164.142 254.132C163.738 254.183 162.176 254.435 161.319 252.62Z" fill="#A07131"/>
<path opacity="0.3" d="M162.882 245.866C162.982 245.815 162.932 245.714 162.831 245.714C162.277 245.664 161.672 245.664 161.067 245.664C161.621 243.093 162.68 242.589 163.184 242.488C163.335 242.589 163.486 242.69 163.638 242.892C164.394 243.648 164.444 245.16 164.293 246.521C163.134 246.622 162.025 246.672 160.865 246.722C160.865 246.622 160.865 246.571 160.916 246.47C161.621 246.269 162.277 246.118 162.882 245.866Z" fill="#815C27"/>
<path d="M164.142 254.081C167.469 253.577 167.519 242.538 167.519 242.538C167.519 242.538 167.57 241.681 167.57 240.32C168.124 240.219 168.729 240.118 169.284 239.967C169.385 239.967 169.385 239.816 169.284 239.816C168.729 239.715 168.124 239.614 167.57 239.564C180.172 186.485 126.034 138.347 123.06 138.548C125.53 137.54 155.018 144.799 177.046 152.108C177.046 152.108 209.307 161.786 222.009 231.499C221.657 231.549 221.354 231.549 221.052 231.65C221.001 231.65 220.951 231.801 221.052 231.801C221.455 231.902 221.858 232.003 222.262 232.104C222.715 233.465 223.018 235.431 222.967 238.405C222.614 238.455 222.211 238.505 221.858 238.556C221.757 238.556 221.757 238.707 221.858 238.707C222.211 238.808 222.614 238.909 222.967 239.009C222.866 241.429 222.514 243.395 222.009 244.907C220.749 244.806 219.54 244.756 218.279 244.907C218.179 244.907 218.179 245.058 218.279 245.058C219.388 245.361 220.497 245.714 221.606 246.016C221.304 246.722 221.001 247.327 220.699 247.78C219.842 247.528 218.985 247.528 218.128 247.478C218.027 247.478 218.027 247.629 218.078 247.629C218.834 247.881 219.64 248.032 220.447 248.184C219.64 249.393 218.935 249.847 218.935 249.847C218.935 249.847 201.897 246.974 190.808 248.436C179.617 249.948 164.142 254.081 164.142 254.081Z" fill="#FEE3BD"/>
<path opacity="0.7" d="M164.142 254.081C167.469 253.577 167.519 242.538 167.519 242.538C167.519 242.538 167.57 241.681 167.57 240.32C168.124 240.219 168.729 240.118 169.284 239.967C169.384 239.967 169.384 239.816 169.284 239.816C168.729 239.715 168.124 239.614 167.57 239.564C167.57 238.808 167.519 237.9 167.519 236.993C170.393 236.993 173.266 236.892 176.089 236.792C190.102 236.287 217.322 238.808 222.866 239.816C222.715 241.883 222.362 243.596 221.959 244.957C220.699 244.857 219.489 244.806 218.229 244.957C218.128 244.957 218.128 245.109 218.229 245.109C219.338 245.411 220.447 245.764 221.556 246.066C221.253 246.772 220.951 247.377 220.648 247.831C219.791 247.579 218.935 247.579 218.078 247.528C217.977 247.528 217.977 247.679 218.027 247.679C218.783 247.931 219.59 248.083 220.396 248.234C219.59 249.444 218.884 249.897 218.884 249.897C218.884 249.897 201.847 247.024 190.757 248.486C179.617 249.948 164.142 254.081 164.142 254.081Z" fill="url(#paint1_linear_2073_6095)"/>
<path opacity="0.63" d="M123.06 138.498C123.06 138.498 153.758 166.272 162.227 195.811C167.217 216.075 170.04 233.112 167.368 243.345C170.947 221.619 170.241 204.985 157.488 178.572C146.449 156.645 126.992 140.968 123.06 138.498Z" fill="black"/>
<path d="M188.187 98.1217C188.187 98.1217 187.531 98.2729 186.271 98.4241C185.666 98.4745 184.86 98.4745 184.053 98.5754C183.146 98.5754 182.289 98.5753 181.18 98.5249C180.676 98.5249 180.172 98.4745 179.567 98.3737C179.265 98.3737 178.962 98.3233 178.66 98.3233C178.357 98.3233 178.055 98.2729 177.853 98.1721C177.248 98.1217 176.694 97.9705 176.089 97.8697C175.484 97.8192 174.93 97.668 174.224 97.416C173.569 97.2648 172.964 97.0631 172.308 96.9119C172.006 96.8615 171.653 96.7103 171.351 96.6095C171.048 96.4583 170.695 96.4078 170.393 96.307C169.133 95.8534 167.721 95.3493 166.411 94.8452C165.1 94.3916 163.739 93.8875 162.429 93.4338C161.118 92.9802 159.707 92.6777 158.396 92.4761C157.086 92.2745 155.674 92.2745 154.414 92.3249C153.154 92.4761 151.994 92.6777 150.936 93.081C150.432 93.2322 149.928 93.3834 149.474 93.5851C149.02 93.7867 148.567 93.9379 148.214 94.0891C147.407 94.442 146.752 94.8452 146.248 95.0973C145.139 95.7526 144.534 96.1054 144.534 96.1054C144.534 96.1054 145.189 95.9038 146.399 95.4501C147.004 95.2485 147.71 94.9965 148.516 94.7948C149.323 94.5932 150.281 94.2908 151.238 94.1395C152.246 93.9883 153.355 93.8371 154.464 93.8371C155.624 93.8875 156.833 93.9883 158.094 94.1899C158.396 94.2403 158.749 94.3412 159.051 94.3916C159.354 94.442 159.656 94.5428 160.009 94.5932C160.664 94.7948 161.269 94.946 161.925 95.1981C163.185 95.6517 164.495 96.1558 165.806 96.6095C167.117 97.0631 168.478 97.5672 169.788 98.0209C171.099 98.4745 172.51 98.8274 173.821 99.029C174.476 99.0794 175.131 99.3315 175.787 99.3819C176.442 99.4323 177.047 99.5331 177.702 99.5331C178.004 99.5331 178.307 99.5835 178.609 99.5835C178.912 99.5835 179.214 99.5835 179.517 99.5835C180.122 99.5835 180.676 99.5835 181.231 99.5331C181.735 99.5331 182.239 99.4827 182.793 99.3819C183.297 99.3315 183.751 99.2306 184.205 99.1802C185.011 99.029 185.818 98.8778 186.422 98.6762C187.027 98.525 187.531 98.3737 187.834 98.2225C188.035 98.1721 188.187 98.1217 188.187 98.1217Z" fill="#C65217"/>
<path d="M173.367 133.658C173.367 133.658 180.676 137.641 181.785 144.698C181.785 144.698 177.803 143.437 171.401 144.244C159.455 145.756 146.046 140.463 142.215 136.481C142.215 136.481 148.768 137.741 150.936 138.346C153.103 138.901 158.144 136.935 158.144 136.935C158.144 136.935 167.62 133.558 173.367 133.658Z" fill="#5D1224"/>
<path d="M173.367 132.903C173.367 132.903 180.575 136.986 181.633 144.043C181.633 144.043 177.752 142.682 171.401 143.488C159.454 145 146.55 139.405 142.618 136.431C142.618 136.431 148.818 136.986 150.936 137.54C153.103 138.095 158.144 136.129 158.144 136.129C158.144 136.129 167.671 132.802 173.367 132.903Z" fill="#E52F52"/>
<path d="M113.634 116.117C113.634 116.117 101.033 113.244 88.4309 108.607C88.4309 108.607 97.353 104.372 107.434 106.086L113.634 116.117Z" fill="#5D1224"/>
<path d="M113.937 115.663C113.937 115.663 103.906 111.984 88.4309 108.556C88.4309 108.556 97.6554 103.918 107.737 105.582L113.937 115.663Z" fill="#E62E51"/>
<path d="M136.822 64.1974L157.338 47.5127L169.234 51.7469L182.138 61.5763L193.883 76.7992L184.608 98.4238C184.608 98.4238 165.352 93.6352 153.658 84.0578C141.963 74.4805 136.721 67.5747 136.822 64.1974Z" fill="#5D1224"/>
<path d="M157.691 48.3193L137.376 64.752L144.383 74.6318L168.478 52.6039L157.691 48.3193Z" fill="#F28E42"/>
<path d="M169.284 53.209L145.442 75.5897C145.442 75.5897 156.229 87.8386 160.916 88.1411L180.878 62.4839L169.284 53.209Z" fill="#EB661D"/>
<path d="M181.785 63.1387L162.479 88.9471L183.65 97.9699L192.622 77.051L181.785 63.1387Z" fill="#E74715"/>
<path d="M163.739 87.2842L181.836 63.0889L192.673 77.0012L181.836 66.0629L163.739 87.2842Z" fill="#F7A963"/>
<path d="M180.878 62.4335L169.284 53.209L146.954 74.1783L169.586 54.7716L180.878 62.4335Z" fill="#F8B657"/>
<path d="M168.478 52.6033L157.691 48.3691L137.376 64.8018L157.993 49.9318L168.478 52.6033Z" fill="#FBCA82"/>
<defs>
<linearGradient id="paint0_linear_2073_6095" x1="179.819" y1="138.005" x2="124.522" y2="191.169" gradientUnits="userSpaceOnUse">
<stop offset="0.01" stop-color="#87391E"/>
<stop offset="1" stop-color="#C25E19"/>
</linearGradient>
<linearGradient id="paint1_linear_2073_6095" x1="193.457" y1="235.81" x2="193.476" y2="251.909" gradientUnits="userSpaceOnUse">
<stop offset="0.0512365" stop-color="#CCD8D4"/>
<stop offset="0.0573804" stop-color="#CCD8D2"/>
<stop offset="0.3859" stop-color="#C1B58B"/>
<stop offset="0.6573" stop-color="#B89C58"/>
<stop offset="0.8585" stop-color="#B28D39"/>
<stop offset="0.9671" stop-color="#B0882E"/>
</linearGradient>
</defs>
</svg>
