<svg width="355" height="274" viewBox="0 0 355 274" fill="none" xmlns="http://www.w3.org/2000/svg">
<g clip-path="url(#clip0_24_380)">
<mask id="mask0_24_380" style="mask-type:luminance" maskUnits="userSpaceOnUse" x="0" y="0" width="355" height="274">
<path d="M0 0H354.631V273.723H0" fill="white"/>
</mask>
<g mask="url(#mask0_24_380)">
<path opacity="0.7" d="M206.084 269.053C215.575 276.028 191.7 273.124 158.466 273.124C125.225 273.124 91.727 275.587 108.291 268.777C110.597 267.828 113.146 266.873 127.8 264.219C134.867 262.934 141.611 262.335 157.636 262.335C169.84 262.335 177.23 263.007 183.75 264.126C200.644 267.038 204.787 268.098 206.084 269.053Z" fill="#172C54" fill-opacity="0.6"/>
<path d="M140.597 138.396C140.597 138.396 109.385 139.674 108.048 154.256C105.367 183.474 107.178 246.461 107.178 246.461C107.178 246.461 139.682 229.218 202.396 248.128C202.396 248.128 230.664 143.692 180.53 130.13L140.597 138.396Z" fill="#80172C"/>
<path d="M132.055 222.045L155.831 254.859C155.831 254.859 168.971 240.823 173.416 224.93C173.416 224.93 168.859 216.414 167.232 215.972C165.605 215.531 135.783 216.756 133.932 214.642C132.088 212.528 132.055 222.045 132.055 222.045Z" fill="#5E001E"/>
<path d="M148.488 224.469C148.488 224.469 153.921 239.045 155.14 252.587C155.14 252.587 138.042 227.413 133.471 220.655L134.347 217.303C134.347 217.303 148.112 223.527 148.488 224.469Z" fill="#B04717"/>
<path d="M149.423 222.618C149.423 222.618 156.286 244.11 155.818 252.633C155.818 252.633 162.141 232.676 161.403 221.36L149.423 222.618Z" fill="#B04717"/>
<path d="M162.569 220.451C162.569 220.451 161.522 241.614 156.286 252.383C156.286 252.383 165.869 243.267 173.285 223.047C173.285 223.047 169.399 218.37 167.272 218.462C165.144 218.554 162.569 220.451 162.569 220.451Z" fill="#D8762E"/>
<path d="M155.054 223.244C155.054 223.244 158.064 231.616 156.312 247.753C156.312 247.753 159.105 232.024 156.062 222.704L155.054 223.244ZM149.199 225.912C149.199 225.912 146.4 232.511 146.419 236.147C146.419 236.147 147.737 230.99 149.772 226.919L149.199 225.912ZM137.317 226.327L139.622 225.635L138.252 229.08L137.317 226.327ZM151.102 232.571L150.055 242.128L151.912 234.606L151.102 232.571Z" fill="#5E001E"/>
<path d="M149.884 225.253C149.884 225.253 154.481 230.1 155.653 232.886C155.653 232.886 153.006 229.363 151.003 228.467L149.884 225.253ZM152.373 234.764C152.373 234.764 155.324 237.102 155.937 241.185C155.937 241.185 155.14 238.024 152.571 236.575L152.373 234.764ZM161.548 223.567C161.548 223.567 159.039 228.032 158.67 229.007L161.798 224.653L161.548 223.567ZM160.968 231.951L158.163 236.272L160.876 233.255L160.968 231.951ZM161.673 226.392C161.673 226.392 166.297 231.898 166.6 234.599C166.6 234.599 164.439 230.555 161.555 228.144L161.673 226.392ZM160.679 236.055C160.679 236.055 162.003 240.52 162.233 243.537C162.233 243.537 161.726 240.929 160.086 237.102L160.679 236.055ZM161.963 222.302C161.963 222.302 168.378 223.402 170.894 226.721C170.894 226.721 167.166 224.074 161.91 223.112L161.963 222.302ZM206.394 161.607C206.394 161.607 216.491 210.295 198.991 247.133C198.991 247.133 198.286 246.929 193.063 245.513C193.063 245.513 204.115 226.57 205.09 204.716C206.065 182.862 203.845 162.2 203.845 162.2L206.394 161.607Z" fill="#5E001E"/>
<path d="M204.971 153.987C204.971 153.987 215.549 195.614 197.97 250.065C197.97 250.065 206.585 250.302 210.642 240.824C210.642 240.824 221.213 177.237 208.805 148.349L204.971 153.987Z" fill="#FF4F73"/>
<path d="M115.912 183.264C115.912 183.264 118.494 201.574 120.074 203.913C120.074 203.913 118.849 210.486 120.331 213.397C121.813 216.308 124.105 218.857 124.105 218.857L124.599 233.078C124.599 233.078 125.468 235.311 125.962 235.258C126.456 235.205 125.047 241.146 125.047 241.146C125.047 241.146 134.623 239.829 135.111 239.809C135.111 239.809 134.749 234.454 135.447 234.777C136.27 235.159 143.449 223.639 143.936 222.427C143.936 222.427 160.086 227.736 170.15 220.754C170.15 220.754 173.996 230.917 176.301 230.99C176.301 230.99 177.869 239.328 178.396 242.279L187.109 244.084C187.109 244.084 186.161 238.037 185.944 236.417C185.239 231.049 184.35 223.27 183.902 221.966C183.454 220.669 186.174 206.527 188.499 199.994C190.824 193.46 192.457 175.623 192.78 173.838C192.78 173.838 197.094 181.551 206.407 185.036L199.676 157.049L100.809 164.927L101.969 184.864C101.969 184.864 104.136 186.965 106.388 187.044C106.395 187.038 112.237 184.173 115.912 183.264Z" fill="#5E001E"/>
<path d="M120.832 241.989C120.832 241.989 117.334 242.628 110.695 245.091C110.695 245.091 104.689 194.724 107.988 181.531L112.401 182.697C112.395 182.69 109.787 239.552 120.832 241.989Z" fill="#5E001E"/>
<path d="M99.6372 159.473C99.6372 159.473 98.1289 236.404 100.474 249.584C100.474 249.584 107.001 251.704 114.252 250.334C114.252 250.334 110.821 247.212 109.299 231.78C107.778 216.348 105.361 175.281 112.046 156.621L99.6372 159.473Z" fill="#F2244E"/>
<path d="M107.844 184.271C107.844 184.271 107.178 242.035 114.252 250.334C114.252 250.334 109.187 251.388 103.839 250.348C103.839 250.348 108.924 250.776 112.072 249.287C112.065 249.287 104.326 235.409 107.844 184.271Z" fill="#FF4F73"/>
<path d="M206.394 161.607C206.394 161.607 209.338 192.432 206.901 208.582C204.464 224.732 199.557 246.257 197.977 250.064C197.977 250.064 204.201 250.901 209.43 243.181C209.43 243.181 205.202 246.02 201.441 247.344C201.441 247.344 215.272 199.921 206.394 161.607Z" fill="#FF9EB2"/>
<path d="M194.921 137.922C194.921 137.922 199.406 154.599 219.171 156.529C241.308 158.689 258.188 145.167 258.188 145.167C263.352 137.79 264.643 111.082 271.374 117.82C277.677 124.123 273.014 134.378 265.427 140.695L288.894 124.406C295.348 125.684 296.185 135.854 278.112 142.025C278.112 142.025 289.236 137.283 292.76 142.638C297.232 149.435 296.448 150.529 296.448 150.529C296.448 150.529 293.346 148.862 282.492 150.779C282.492 150.779 291.614 149.89 297.008 154.902C297.008 154.902 296.553 161.858 295.269 163.063C291.317 166.758 289.111 164.11 285.192 163.063C285.192 163.063 297.08 169.162 298.51 171.645C298.51 171.645 289.236 175.222 287.372 175.057C281.043 174.504 277.051 170.17 271.203 166.04C271.203 166.04 272.599 173.351 277.809 174.925C277.809 174.925 268.516 185.8 257.951 167.14C257.951 167.14 260.915 181.742 265.341 185.688C265.341 185.688 256.252 190.568 251.984 186.597C247.716 182.625 245.358 176.328 245.345 174.833C245.345 174.833 244.97 187.012 246.662 188.783C246.662 188.783 238.621 191.688 234.642 188.908C230.671 186.129 227.918 176.17 228.241 172.383C228.241 172.383 228.919 185.444 227.424 190.819C227.424 190.819 193.116 181.637 193.972 168.484L191.008 170.005C191.008 170.005 182.907 160.744 183.757 157.109C184.607 153.479 186.135 152.992 186.135 152.992C186.135 152.992 177.533 154.23 176.308 152.953C176.314 152.946 184.692 141.973 194.921 137.922Z" fill="#5E001E"/>
<path d="M193.498 136.025C193.498 136.025 210.879 151.161 218.651 151.53C226.423 151.898 250.799 144.857 255.962 137.48C261.126 130.104 260.184 109.6 260.184 109.6C264.05 107.314 282.248 122.015 264.913 138.883C264.913 138.883 280.898 127.416 288.933 123.859C288.933 123.859 297.607 128.483 287.03 136.651C287.03 136.651 285.304 138.343 278.724 140.425C278.724 140.425 288.716 139.14 291.199 141.208C297.028 146.056 296.441 150.535 296.441 150.535C296.441 150.535 293.952 148.434 283.098 150.351C283.098 150.351 290.547 151.859 297.001 154.908C297.001 154.908 298.668 165.579 292.753 164.683C288.321 164.011 283.625 161.291 280.555 160.467C280.555 160.467 296.87 168.523 299.484 171.329C299.484 171.329 289.868 174.497 288.466 174.372C281.102 173.7 276.235 167.739 270.683 164.228C270.683 164.228 272.705 172.31 277.796 174.925C277.796 174.925 268.022 186.972 257.424 165.328C257.424 165.328 262.852 180.787 267.277 184.732C267.277 184.732 255.725 188.763 251.457 184.792C247.189 180.82 244.831 174.523 244.818 173.035C244.818 173.035 247.143 185.18 248.843 186.945C248.843 186.945 238.094 189.89 234.122 187.103C230.151 184.324 227.398 174.365 227.72 170.578C227.72 170.578 228.221 184.1 226.97 190.258C226.97 190.258 191.193 179.358 193.452 166.679L190.488 168.2C190.488 168.2 182.387 158.933 183.237 155.304C184.086 151.674 185.614 151.187 185.614 151.187C185.614 151.187 177.013 152.425 175.788 151.147C175.801 151.134 182.308 138.607 193.498 136.025Z" fill="#F5A142"/>
<path opacity="0.6" d="M188.348 137.837C188.348 137.837 198.892 152.795 218.658 154.724C240.794 156.885 248.783 150.779 255.014 143.6C260.915 136.802 260.224 115.838 260.224 115.838C267.613 111.392 272.5 132.574 264.913 138.89C264.913 138.89 274.628 131.724 288.933 123.867C288.933 123.867 297.844 128.879 287.03 136.658C287.03 136.658 285.429 138.416 278.724 140.432L289.921 140.353C293.873 142.236 296.441 150.535 296.441 150.535C296.441 150.535 292.753 148.678 283.098 150.351C283.098 150.351 293.227 152.795 297.001 154.909C297.001 154.909 299.418 166.02 291.199 163.952C287.201 162.944 284.474 161.515 280.555 160.468C280.555 160.468 289.763 164.163 291.199 166.646C291.199 166.646 282.722 169.037 281.813 169.057C274.707 169.175 270.683 164.235 270.683 164.235C270.683 164.235 274.015 173.417 276.558 175.617C276.558 175.617 268.503 185.872 257.424 165.329C257.424 165.329 260.388 179.931 264.814 183.876C264.814 183.876 255.725 188.757 251.457 184.785C247.189 180.814 244.831 174.517 244.818 173.028C244.818 173.028 244.443 185.207 246.142 186.979C246.142 186.979 238.094 189.883 234.122 187.104C230.151 184.324 227.398 174.366 227.72 170.578C227.72 170.578 228.326 184.166 226.969 190.259C226.969 190.259 192.556 180.129 193.452 166.679L190.488 168.201C190.488 168.201 182.387 158.933 183.237 155.304C184.086 151.675 185.614 151.187 185.614 151.187C185.614 151.187 177.013 152.426 175.788 151.148C175.801 151.135 174.464 138.917 188.348 137.837Z" fill="#87381D"/>
<path opacity="0.6" d="M255.034 143.665C261.304 137.204 260.243 115.903 260.243 115.903C267.633 111.457 272.52 132.639 264.933 138.956C264.933 138.956 274.648 131.79 288.953 123.932C288.953 123.932 297.864 128.944 287.049 136.723C287.049 136.723 285.449 138.482 278.744 140.497L289.941 140.418C293.893 142.302 296.461 150.601 296.461 150.601C296.461 150.601 292.773 148.743 283.117 150.416C283.117 150.416 293.247 152.86 297.021 154.974C297.021 154.974 299.438 166.086 291.219 164.018C287.221 163.01 284.494 161.581 280.575 160.533C280.575 160.533 289.789 164.228 291.219 166.712C291.219 166.712 282.742 169.102 281.833 169.122C274.727 169.241 270.702 164.301 270.702 164.301C270.702 164.301 274.035 173.482 276.577 175.682C276.584 175.676 243.178 155.877 255.034 143.665Z" fill="#87381D"/>
<path opacity="0.6" d="M190.916 136.651C190.916 136.651 193.083 167.278 212.842 169.208C234.978 171.369 269.22 166.784 270.689 163.675C270.689 163.675 274.022 172.857 276.564 175.057C276.564 175.057 268.509 185.312 257.431 164.775C257.431 164.775 260.395 179.378 264.821 183.323C264.821 183.323 255.732 188.204 251.464 184.232C247.196 180.26 244.838 173.964 244.825 172.475C244.825 172.475 244.449 184.654 246.149 186.425C246.149 186.425 238.1 189.33 234.129 186.55C230.157 183.771 227.404 173.812 227.727 170.025C227.727 170.025 227.075 185.273 224.546 189.488C224.546 189.488 191.476 178.62 193.465 166.132L190.501 167.654C190.501 167.654 182.4 158.386 183.25 154.757C184.099 151.128 185.627 150.641 185.627 150.641C185.627 150.641 177.026 151.879 175.801 150.601C175.801 150.581 180.688 140.695 190.916 136.651ZM266.757 150.786C266.757 150.786 269.372 158.959 260.948 157.669C260.948 157.669 266.54 157.234 266.757 150.786Z" fill="#87381D"/>
<path opacity="0.6" d="M259.433 156.331C259.433 156.331 256.351 164.341 250.594 158.057C250.594 158.057 255.225 161.219 259.433 156.331ZM262.983 150.535C262.983 150.535 259.901 158.544 254.144 152.261C254.144 152.261 258.775 155.422 262.983 150.535ZM252.024 154.151C252.024 154.151 248.941 162.16 243.185 155.877C243.178 155.877 247.815 159.038 252.024 154.151ZM251.266 161.884C251.266 161.884 248.184 169.893 242.427 163.609C242.427 163.609 247.058 166.771 251.266 161.884ZM244.502 159.44C244.502 159.44 241.42 167.449 235.663 161.166C235.663 161.166 240.294 164.327 244.502 159.44ZM239.879 165.579C239.879 165.579 236.796 173.588 231.033 167.305C231.033 167.305 235.67 170.466 239.879 165.579ZM235.703 157.787C235.703 157.787 232.621 165.796 226.864 159.513C226.864 159.513 231.494 162.681 235.703 157.787ZM223.61 159.144C223.61 159.144 216.912 164.512 215.101 156.18C215.101 156.18 217.512 161.245 223.61 159.144ZM213.79 157.306C213.79 157.306 207.092 162.674 205.287 154.342C205.281 154.342 207.691 159.414 213.79 157.306ZM217.67 165.315C217.67 165.315 210.971 170.683 209.167 162.351C209.167 162.345 211.571 167.416 217.67 165.315ZM272.105 133.957C272.105 133.957 288.979 123.313 288.933 123.86C288.887 124.406 295.763 130.881 290.804 140.056C290.804 140.056 273.607 142.954 277.941 139.634C287.319 132.442 275.392 133.166 272.105 133.957Z" fill="#87381D"/>
<path d="M285.12 153.888C285.12 153.888 273.699 160.712 263.721 156.681C263.721 156.681 280.944 163.287 292.892 158.406C292.892 158.406 297.192 155.423 297.015 154.909C296.837 154.395 289.519 151.648 288.643 151.273C287.761 150.891 285.12 153.888 285.12 153.888ZM260.52 152.551C260.52 152.551 282.637 145.576 285.699 138.508C285.699 138.508 290.079 139.529 290.389 140.708C290.389 140.708 281.366 153.585 260.52 152.551Z" fill="#5E001E"/>
<path d="M292.78 92.1704L264.612 197.301L268.315 198.293L296.482 93.1623L292.78 92.1704Z" fill="#5E001E"/>
<path d="M293.985 92.1704L265.817 197.301L269.52 198.293L297.688 93.1623L293.985 92.1704Z" fill="#FAC400"/>
<path d="M288.933 123.866C288.933 123.866 278.961 141.485 263.569 143.132C263.569 143.132 287.063 150.173 293.879 135.788C293.886 135.788 297.028 127.37 288.933 123.866Z" fill="#F5A142"/>
<path d="M293.55 127.957C293.55 127.957 297.212 135.762 289.394 141.228C281.576 146.695 268.647 144.726 263.569 143.125C263.569 143.125 282.755 146.564 288.61 139.674C294.479 132.791 293.55 127.957 293.55 127.957Z" fill="#FFCF66"/>
<path d="M296.448 150.535C296.448 150.535 273.001 159.875 260.52 152.551C260.52 152.551 284.053 148.928 290.389 140.708C290.389 140.708 296.323 143.25 296.448 150.535Z" fill="#F5A142"/>
<path d="M260.52 152.55C260.52 152.55 267.376 157.339 280.075 154.803C292.773 152.267 296.448 150.528 296.448 150.528C296.448 150.528 297.186 147.261 294.413 144.133C294.413 144.133 295.375 148.263 294.413 149.389C294.413 149.389 273.199 157.806 260.52 152.55Z" fill="#FFCF66"/>
<path d="M297.008 154.902C297.008 154.902 274.76 161.383 263.721 156.674C263.721 156.674 279.06 168.997 294.485 164.676C294.485 164.683 302.475 161.508 297.008 154.902Z" fill="#F5A142"/>
<path d="M263.721 156.674C263.721 156.674 274.621 165.078 284.817 165.454C295.012 165.829 299.491 164.518 298.832 158.393C298.832 158.393 297.337 163.945 287.359 163.945C279.192 163.952 268.838 160.165 263.721 156.674Z" fill="#FFCF66"/>
<path d="M292.18 152.024C292.18 152.024 296.929 153.815 297.877 156.108L291.087 156.358C291.087 156.358 292.984 154.981 292.272 153.98C291.554 152.979 289.71 152.742 289.71 152.742L292.18 152.024Z" fill="#F5A142"/>
<path d="M115.945 143.369C115.945 143.369 111.848 158.597 93.8083 160.356C73.6016 162.325 58.1897 149.982 58.1897 149.982C53.4806 143.251 52.3016 118.867 46.15 125.019C40.3936 130.776 44.6484 140.135 51.5771 145.898C51.5771 145.898 33.1883 132.495 26.3912 132.435C19.5942 132.37 8.25263 128.727 15.7083 136.96C19.5349 141.189 29.8358 141.834 38.9644 147.308C38.9644 147.308 13.9234 145.049 8.97712 152.347C3.5171 160.402 4.45894 160.738 4.45894 160.738C4.45894 160.738 25.0674 154.612 34.9731 156.364C34.9731 156.364 13.4097 162.608 8.20653 169.63C8.20653 169.63 12.9618 173.114 16.446 172.64C20.1738 172.139 27.6163 168.806 31.186 167.845C31.186 167.845 22.6832 171.882 21.3791 174.148C21.3791 174.148 29.8424 177.408 31.5483 177.263C37.3244 176.763 40.9732 172.804 46.3081 169.03C46.3081 169.03 45.037 175.709 40.2817 177.138C40.2817 177.138 48.7648 187.064 58.4071 170.031C58.4071 170.031 55.7001 183.363 51.6627 186.965C51.6627 186.965 59.9614 191.425 63.8539 187.795C67.753 184.173 69.9001 178.416 69.9133 177.059C69.9133 177.059 70.2558 188.177 68.708 189.798C68.708 189.798 76.0517 192.445 79.6742 189.91C83.3032 187.367 85.8126 178.278 85.5162 174.82C85.5162 174.82 84.8971 186.741 86.2604 191.648C86.2604 191.648 117.578 183.264 116.794 171.263L119.501 172.646C119.501 172.646 126.898 164.189 126.121 160.876C125.343 157.563 123.954 157.115 123.954 157.115C123.954 157.115 131.811 158.248 132.924 157.082C132.924 157.089 125.277 147.064 115.945 143.369Z" fill="#5E001E"/>
<path d="M117.242 141.644C117.242 141.644 101.376 155.462 94.2825 155.798C87.1825 156.134 64.934 149.706 60.2249 142.974C55.5091 136.243 56.3719 117.524 56.3719 117.524C52.8482 115.436 36.2311 128.859 52.0513 144.252C52.0513 144.252 20.9904 124.374 13.6533 121.133C13.6533 121.133 7.47542 129.3 17.1309 136.75C17.1309 136.75 30.31 140.188 39.4386 145.655C39.4386 145.655 18.02 140.307 7.6269 148.599C1.1526 153.763 0 161.522 0 161.522C0 161.522 25.5416 152.966 35.4473 154.711C35.4473 154.711 7.22514 158.512 4.01104 167.707C4.01104 167.707 8.93757 173.101 15.6226 171.803C18.9092 171.164 34.1959 164.907 37.7657 163.946C37.7657 163.946 22.8741 171.296 20.4833 173.865C20.4833 173.865 29.2562 176.756 30.5405 176.638C37.2651 176.025 41.7043 170.585 46.7757 167.377C46.7757 167.377 44.9315 174.754 40.2816 177.138C40.2816 177.138 49.206 188.131 58.8747 168.378C58.8747 168.378 53.9218 182.487 49.8844 186.09C49.8844 186.09 60.429 189.765 64.3281 186.142C68.2272 182.52 70.3743 176.77 70.3875 175.406C70.3875 175.406 68.2601 186.491 66.7123 188.105C66.7123 188.105 76.5259 190.792 80.1483 188.25C83.7774 185.714 86.2867 176.625 85.9903 173.16C85.9903 173.16 85.5359 185.503 86.6753 191.128C86.6753 191.128 119.33 181.176 117.269 169.603L119.976 170.993C119.976 170.993 127.372 162.536 126.595 159.223C125.818 155.91 124.428 155.462 124.428 155.462C124.428 155.462 132.279 156.595 133.398 155.429C133.392 155.436 127.458 143.995 117.242 141.644Z" fill="#F5A142"/>
<path opacity="0.6" d="M121.945 143.29C121.945 143.29 112.316 156.944 94.2759 158.709C74.0692 160.685 66.7782 155.106 61.0877 148.553C55.7001 142.348 56.3324 123.208 56.3324 123.208C49.588 119.144 45.1225 138.488 52.0513 144.252C52.0513 144.252 26.7139 128.299 13.6533 121.133C13.6533 121.133 7.26466 129.656 17.1309 136.749C17.1309 136.749 30.31 140.188 39.4386 145.654C39.4386 145.654 15.7807 144.561 9.4513 150.693C2.46327 157.464 0 161.521 0 161.521C0 161.521 25.5416 152.966 35.4473 154.711C35.4473 154.711 9.21419 160.685 4.01104 167.706C4.01104 167.706 8.46994 172.481 13.4821 172.001C17.2297 171.638 34.1893 164.907 37.7657 163.945C37.7657 163.945 23.5591 171.671 22.2484 173.937C22.2484 173.937 29.3945 176.611 30.2244 176.624C36.7119 176.73 41.4737 170.288 46.7757 167.377C46.7757 167.377 43.7328 175.755 41.4079 177.764C41.4079 177.764 48.7582 187.123 58.8747 168.378C58.8747 168.378 56.1677 181.709 52.1303 185.305C52.1303 185.305 60.429 189.765 64.3215 186.135C68.2206 182.513 70.3677 176.763 70.3809 175.399C70.3809 175.399 70.7234 186.517 69.1756 188.131C69.1756 188.131 76.5193 190.785 80.1483 188.243C83.7774 185.707 86.2867 176.618 85.9903 173.153C85.9903 173.153 85.4371 185.556 86.6753 191.121C86.6753 191.121 118.092 181.874 117.269 169.597L119.976 170.986C119.976 170.986 127.372 162.529 126.595 159.216C125.818 155.903 124.428 155.455 124.428 155.455C124.428 155.455 132.279 156.588 133.398 155.422C133.392 155.436 134.617 144.278 121.945 143.29Z" fill="#87381D"/>
<path opacity="0.6" d="M119.593 142.21C119.593 142.21 117.618 170.17 99.5778 171.928C79.3711 173.904 41.4737 169.788 46.7756 166.877C46.7756 166.877 43.7328 175.255 41.4078 177.264C41.4078 177.264 48.7581 186.623 58.8746 167.878C58.8746 167.878 56.1677 181.209 52.1303 184.805C52.1303 184.805 60.429 189.264 64.3215 185.635C68.2205 182.012 70.3677 176.262 70.3808 174.899C70.3808 174.899 70.7233 186.017 69.1756 187.631C69.1756 187.631 76.5192 190.279 80.1483 187.743C83.7773 185.2 86.2867 176.111 85.9903 172.653C85.9903 172.653 86.5897 186.577 88.8949 190.417C88.8949 190.417 119.08 180.491 117.269 169.096L119.975 170.479C119.975 170.479 127.372 162.022 126.595 158.709C125.817 155.396 124.428 154.948 124.428 154.948C124.428 154.948 132.279 156.081 133.398 154.915C133.392 154.929 128.933 145.905 119.593 142.21ZM50.3652 155.113C50.3652 155.113 47.9809 162.576 55.6671 161.397C55.6671 161.397 50.5628 161.001 50.3652 155.113Z" fill="#87381D"/>
<path opacity="0.6" d="M57.0503 160.178C57.0503 160.178 59.8626 167.489 65.1184 161.752C65.125 161.752 60.8966 164.637 57.0503 160.178ZM53.8098 154.882C53.8098 154.882 56.6222 162.193 61.878 156.457C61.8846 156.457 57.6562 159.348 53.8098 154.882ZM63.8144 158.189C63.8144 158.189 66.6267 165.5 71.8825 159.763C71.8891 159.763 67.6607 162.648 63.8144 158.189ZM64.5059 165.243C64.5059 165.243 67.3183 172.554 72.5741 166.817C72.5741 166.817 68.3457 169.709 64.5059 165.243ZM70.6838 163.017C70.6838 163.017 73.4962 170.328 78.752 164.591C78.752 164.591 74.5236 167.476 70.6838 163.017ZM74.9056 168.615C74.9056 168.615 77.718 175.926 82.9738 170.189C82.9738 170.189 78.7454 173.081 74.9056 168.615ZM78.7125 161.508C78.7125 161.508 81.5248 168.819 86.7807 163.083C86.7807 163.083 82.5523 165.967 78.7125 161.508ZM89.7577 162.747C89.7577 162.747 95.8763 167.647 97.5229 160.04C97.5229 160.04 95.3231 164.663 89.7577 162.747ZM98.7216 161.067C98.7216 161.067 104.84 165.967 106.487 158.36C106.48 158.36 104.287 162.99 98.7216 161.067ZM95.1782 168.372C95.1782 168.372 101.29 173.272 102.943 165.664C102.937 165.671 100.744 170.295 95.1782 168.372Z" fill="#87381D"/>
<path d="M134.755 139.108L189.737 142.098C196.455 155.297 192.339 164.248 192.609 170.005C192.609 170.005 188.222 194.356 185.786 207.726C183.349 221.097 186.385 225.253 183.987 229.6C183.987 229.6 179.621 229.989 177.474 229.561C175.327 229.132 174.813 222.302 170.966 219.799C170.966 219.799 155.067 226.248 143.568 221.09C143.568 221.09 138.206 228.757 135.697 231.339C135.697 231.339 127.833 230.41 127.556 229.337C127.28 228.263 124.744 213.568 122.873 208.846C121.003 204.117 116.979 196.18 115.602 190.285C115.602 190.278 102.93 137.342 134.755 139.108Z" fill="#4E87C3"/>
<path opacity="0.6" d="M152.663 140.945C152.663 140.945 140.946 152.228 142.158 190.45C143.014 217.593 171.454 220.148 170.598 219.806C170.598 219.806 154.698 226.254 143.199 221.097L133.616 230.983C133.616 230.983 128.419 230.654 128.143 229.58C127.866 228.507 124.224 213.641 122.511 208.853C120.68 203.722 116.985 196.187 115.615 190.292C115.602 190.278 100.625 125.888 152.663 140.945Z" fill="#2C4282"/>
<path opacity="0.7" d="M116.175 192.597C116.175 192.597 125.66 191.675 130.408 188.796C130.408 188.796 128.992 216.098 144.299 219.667C159.605 223.237 170.96 219.799 170.96 219.799C170.96 219.799 156.121 226.313 143.561 221.09L135.69 231.339C135.69 231.339 128.406 230.469 128.175 229.732C127.53 227.664 125.442 216.993 123.855 212.185C122.268 207.377 116.327 194.441 116.175 192.597Z" fill="#2C4282"/>
<path d="M191.193 159.552L192.609 170.012C191.298 185.839 184.593 201.449 184.969 224.614C184.995 226.089 185.101 227.005 183.981 229.607C183.981 229.607 182.163 229.686 180.609 229.62L183.981 229.607C184.047 228.138 181.564 210.216 182.881 200.448C184.198 190.68 192.122 163.372 191.193 159.552Z" fill="#80BAE3"/>
<path d="M171.941 169.406C172.797 179.753 163.59 189.929 152.973 189.718C144.18 189.547 135.493 182.717 134.637 172.376C133.787 162.035 143.37 155.356 152.136 154.632C160.903 153.914 171.092 159.065 171.941 169.406Z" fill="#0B1A45"/>
<path d="M173.061 169.313C173.91 179.661 164.709 189.837 154.092 189.626C145.293 189.455 136.612 182.625 135.756 172.284C134.9 161.943 144.49 155.264 153.256 154.54C162.029 153.822 172.211 158.972 173.061 169.313Z" fill="#FAEB00"/>
<path d="M150.911 173.226C150.904 173.783 150.676 174.314 150.277 174.703C149.878 175.092 149.341 175.307 148.784 175.3C148.227 175.293 147.695 175.065 147.306 174.666C146.917 174.267 146.703 173.73 146.709 173.173C146.717 172.616 146.945 172.085 147.344 171.696C147.743 171.307 148.279 171.092 148.836 171.098C149.113 171.101 149.386 171.158 149.64 171.267C149.894 171.375 150.124 171.533 150.316 171.73C150.509 171.928 150.661 172.162 150.763 172.419C150.865 172.675 150.916 172.95 150.911 173.226ZM161.719 173.364C161.712 173.921 161.484 174.453 161.085 174.842C160.686 175.231 160.149 175.445 159.592 175.439C159.035 175.431 158.503 175.203 158.114 174.804C157.726 174.405 157.511 173.868 157.517 173.311C157.525 172.754 157.753 172.223 158.152 171.834C158.551 171.445 159.087 171.23 159.645 171.237C160.804 171.25 161.732 172.205 161.719 173.364Z" fill="#11286B"/>
<path d="M168.134 168.042L164.901 167.944L164.947 164.413L164.96 163.261L163.926 162.839L163.853 162.806C161.779 161.996 159.822 161.225 154.33 161.153C148.112 161.074 144.674 162.582 144.536 162.641L143.521 163.076L143.508 164.137L143.462 167.674L140.307 167.68L143.199 172.146C143.199 172.212 143.205 172.271 143.205 172.337C143.186 173.654 143.383 178.225 146.551 181.854C148.909 184.555 153.236 186.333 153.421 186.406L154.027 186.649L154.639 186.419C154.856 186.346 155.1 186.241 155.403 186.109C155.818 185.931 156.457 185.635 157.181 185.26C159.091 184.258 160.587 183.178 161.627 182.045C164.881 178.502 165.19 173.937 165.21 172.62C165.21 172.567 165.171 172.515 165.171 172.462L168.134 168.042ZM163.847 164.4L163.801 168.089L162.003 168.069C162.009 168.069 162.009 168.233 162.016 168.247L159.717 168.339H159.724C159.704 168.339 159.724 168.082 159.704 168.082C159.401 168.075 159.394 167.924 158.848 167.963L158.914 163.175C160.56 163.458 162.2 163.899 163.847 164.4ZM154.29 162.813C155.304 162.826 156.167 162.865 157.267 162.925L157.195 168.536C155.535 169.294 154.56 170.591 154.211 172.139C153.895 170.539 152.788 169.182 151.148 168.392L151.214 162.885C152.321 162.832 153.289 162.806 154.29 162.813ZM149.574 163.096L149.515 167.746C149.515 167.72 148.995 168.049 148.995 168.049L149.014 168.629H149.028C148.995 168.629 148.942 168.161 148.909 168.154C148.81 168.154 148.705 167.924 148.606 167.924L146.525 167.917C146.531 167.904 146.545 167.917 146.551 167.917L145.115 167.878L145.161 164.176C145.161 164.17 146.821 163.491 149.574 163.096ZM144.964 173.154C144.97 172.647 145.076 172.147 145.276 171.681C145.476 171.216 145.765 170.794 146.128 170.441C146.491 170.087 146.919 169.809 147.39 169.621C147.86 169.433 148.363 169.34 148.87 169.347C150.997 169.373 152.696 171.125 152.67 173.252C152.643 175.38 150.898 177.086 148.771 177.053C146.637 177.026 144.931 175.281 144.964 173.154ZM154.171 182.717C148.481 182.645 146.498 178.956 146.064 177.988C146.854 178.443 147.77 178.713 148.744 178.726C150.332 178.746 151.774 178.087 152.795 177.026L154.251 178.35L155.686 177.211C156.706 178.251 158.096 178.845 159.552 178.864C160.521 178.877 161.43 178.634 162.226 178.205C161.765 179.154 159.796 182.783 154.171 182.717ZM159.566 177.191C159.06 177.185 158.561 177.079 158.096 176.88C157.631 176.68 157.21 176.391 156.857 176.029C156.505 175.667 156.226 175.239 156.039 174.769C155.852 174.3 155.759 173.798 155.765 173.292C155.774 172.529 156.009 171.786 156.441 171.157C156.872 170.528 157.48 170.041 158.188 169.758C158.896 169.475 159.673 169.408 160.419 169.566C161.165 169.725 161.847 170.101 162.38 170.647C162.912 171.193 163.27 171.885 163.409 172.635C163.548 173.385 163.461 174.159 163.16 174.86C162.859 175.56 162.357 176.156 161.717 176.571C161.077 176.986 160.328 177.202 159.566 177.191Z" fill="#11286B"/>
<path opacity="0.9" d="M187.847 194.816C184.37 196.397 181.353 197.649 177.816 198.663V192.122L176.532 188.599L174.971 184.317L171.908 192.122V200.118C168.029 200.929 164.183 201.456 160.448 201.759V201.041H149.805V202.094C148.237 202.068 146.703 202.009 145.221 201.923C145.24 201.673 145.267 201.456 145.293 201.278C145.721 198.669 146.426 193.262 146.433 193.209L146.466 192.985H146.36C146.248 192.814 145.998 192.663 145.642 192.531V192.498H145.596C145.596 192.004 144.127 191.609 142.31 191.609C140.498 191.609 139.023 192.004 139.023 192.498C139.023 192.504 139.03 192.504 139.03 192.504C138.648 192.643 138.378 192.807 138.266 192.979H137.949L137.996 193.216C138.009 193.268 138.872 197.668 139.095 201.409C137.185 201.205 135.387 200.962 133.708 200.711C133.701 200.533 133.662 200.441 133.622 200.382C133.612 200.342 133.594 200.304 133.57 200.27C133.418 200.053 132.931 199.835 132.318 199.644C132.443 199.157 132.727 198.129 133.03 197.629C133.056 197.635 133.089 197.642 133.109 197.642C133.161 197.642 133.194 197.622 133.207 197.589C133.227 197.537 133.221 197.477 133.207 197.411L133.221 197.398L133.201 197.392C133.062 196.944 132.18 196.246 130.784 195.804C129.611 195.435 128.564 195.218 128.044 195.218C127.846 195.218 127.728 195.251 127.708 195.317C127.701 195.337 127.708 195.363 127.721 195.389C127.787 195.771 128.129 197.721 128.149 198.933C128.063 198.926 127.965 198.926 127.886 198.926C127.227 198.926 126.898 199.019 126.799 199.229C126.766 199.269 126.713 199.335 126.661 199.44C123.926 198.85 121.194 198.242 118.467 197.616L120.246 203.715L123.229 204.406C123.229 204.406 124.329 207.278 124.125 210.282C123.835 214.583 124.593 219.694 124.593 219.694L127.53 220.234C134.011 220.866 136.487 217.402 137.245 213.114C137.64 210.887 137.021 209.063 136.105 207.647C136.981 207.792 137.903 207.924 138.865 208.049C138.799 209.234 138.733 210.453 138.681 211.559C138.463 216.137 138.542 216.216 138.621 216.308L138.661 216.354L138.72 216.367C138.74 216.374 140.755 216.829 142.626 216.829C143.745 216.829 144.608 216.664 145.181 216.348L145.287 216.288L145.28 216.163C145.28 216.097 145.148 212.383 145.102 208.622C146.591 208.707 148.152 208.76 149.792 208.773V209.985H160.435V208.352C164.775 207.983 168.609 207.403 171.895 206.758V213.601C171.895 213.884 172.705 214.128 173.838 214.22C174.154 214.247 174.497 214.26 174.846 214.26C175.182 214.26 175.504 214.247 175.807 214.227H175.834C176.98 214.135 177.803 213.891 177.803 213.608V205.414C182.749 204.097 186.918 202.635 186.918 202.635C187.834 199.269 187.847 194.816 187.847 194.816Z" fill="#5E001E"/>
<path d="M117.486 196.437C117.486 196.437 156.7 208.128 188.492 193.697C188.492 193.697 187.952 198.037 186.945 201.89C186.945 201.89 174.595 206.975 155.014 207.634C135.433 208.293 120.028 202.925 120.028 202.925L117.486 196.437Z" fill="#11286B"/>
<path d="M161.14 199.967H150.49V208.899H161.14V199.967Z" fill="#FFC13B"/>
<path d="M171.823 201.028C171.823 201.028 174.253 199.44 179.891 199.697V202.391C179.891 202.391 174.233 204.005 171.823 202.951V201.028Z" fill="#5E001E"/>
<path d="M172.593 191.049V212.521C172.593 212.804 173.403 213.048 174.536 213.14V191.227L172.593 191.049Z" fill="#A84A0A"/>
<path d="M176.532 213.134C177.678 213.042 178.501 212.804 178.501 212.515V191.042L176.532 191.22V213.134Z" fill="#EB6B15"/>
<path d="M176.505 190.443H174.536V191.227H176.505V190.443ZM176.505 213.14V191.227H174.536V213.14C174.852 213.166 175.188 213.18 175.544 213.18C175.886 213.173 176.209 213.16 176.505 213.14ZM176.532 190.443H176.505V191.227H176.532V190.443ZM176.505 213.14H176.532V191.227H176.505V213.14Z" fill="#BF540B"/>
<path d="M172.593 191.049L175.656 183.244L178.501 191.049C178.501 191.049 178.409 191.431 178.014 191.642C177.684 191.82 177.158 191.332 176.604 191.563C175.682 191.952 174.958 191.438 174.503 191.438C174.049 191.438 173.983 191.662 173.482 191.596C172.988 191.523 172.593 191.049 172.593 191.049Z" fill="#E39522"/>
<path d="M175.656 183.244L173.976 187.525C173.976 187.525 174.668 187.94 175.465 187.94C176.262 187.94 177.217 187.525 177.217 187.525L175.656 183.244Z" fill="#000A25"/>
<path d="M171.823 201.258C171.823 201.258 176.782 201.917 179.891 199.928V202.674C179.891 202.674 174.595 204.887 171.823 203.234V201.258Z" fill="#5E001E"/>
<path d="M171.276 200.817C171.276 200.817 177.276 201.436 180.385 199.447L179.897 202.681C179.897 202.681 174.24 204.294 171.829 203.241L171.276 200.817Z" fill="#11286B"/>
<path d="M126.786 201.759C126.786 201.759 125.824 204.637 134.979 204.103L135.177 202.391C135.177 202.391 130.849 201.502 127.602 200.916L126.786 201.759Z" fill="#5E001E"/>
<path d="M137.93 212.027C138.872 206.705 134.031 203.649 133.168 203.102C132.055 202.398 132.766 200.804 132.766 200.804L130.757 200.58L128.748 200.171C128.748 200.171 128.9 201.831 127.616 202.108C126.621 202.325 121.016 203.511 120.055 208.826C119.277 213.107 120.404 217.224 126.694 218.877L128.222 219.147C134.689 219.78 137.172 216.315 137.93 212.027Z" fill="#0A2456"/>
<path opacity="0.8" d="M137.541 211.928C138.443 206.843 133.813 203.919 132.99 203.399C131.93 202.72 132.45 200.803 132.45 200.803L128.959 200.204C128.959 200.204 129.19 202.075 127.675 202.444C126.733 202.674 121.365 203.781 120.45 208.865C119.705 212.962 120.779 216.888 126.792 218.475L128.248 218.739C134.446 219.338 136.817 216.025 137.541 211.928Z" fill="#FDFDFC"/>
<path d="M137.093 211.671C137.205 211.013 137.225 210.394 137.172 209.814L121.339 206.962C121.082 207.489 120.884 208.082 120.766 208.747C120.055 212.659 121.082 216.414 126.825 217.929L128.222 218.179C134.136 218.745 136.402 215.584 137.093 211.671Z" fill="#F33605"/>
<path d="M137.159 209.847C137.041 210.499 133.405 210.394 129.032 209.61C124.658 208.826 121.207 207.66 121.326 207.008C121.444 206.356 125.08 206.461 129.453 207.245C133.826 208.022 137.278 209.188 137.159 209.847Z" fill="#A11F02"/>
<path opacity="0.5" d="M130.856 204.373C130.856 204.373 134.195 207.838 133.879 211.876L134.867 212.053C134.867 212.053 135.908 207.397 131.673 203.972L130.856 204.373Z" fill="#FDFDFC"/>
<path d="M133.688 212.811L134.834 213.015C134.834 213.015 134.353 217.138 130.29 218.047C130.283 218.054 132.74 217.316 133.688 212.811Z" fill="#FDFDFC"/>
<path d="M127.668 198.261C127.668 198.261 127.359 198.564 127.332 199.348C127.306 200.138 129.374 200.534 130.698 200.771C132.028 201.008 133.938 201.219 134.123 200.198C134.261 199.447 134.11 199.42 134.11 199.42L127.668 198.261Z" fill="#4DDBD1"/>
<path d="M132.529 201.185C132.028 201.185 131.416 201.12 130.665 200.981C128.854 200.659 127.089 200.263 127.115 199.341C127.141 198.492 127.477 198.142 127.517 198.103L127.596 198.024L134.235 199.216L134.314 199.315C134.386 199.414 134.452 199.611 134.34 200.237C134.228 200.869 133.616 201.185 132.529 201.185ZM127.76 198.505C127.688 198.63 127.563 198.9 127.55 199.361C127.53 199.987 129.947 200.415 130.737 200.56C132.766 200.922 133.8 200.777 133.912 200.165C133.965 199.855 133.971 199.697 133.958 199.618L127.76 198.505Z" fill="#083A63"/>
<path d="M134.11 199.42C134.057 199.71 132.575 199.684 130.797 199.368C129.019 199.052 127.622 198.558 127.675 198.268C127.728 197.978 129.21 198.004 130.988 198.32C132.76 198.637 134.162 199.131 134.11 199.42Z" fill="#4DDBD1"/>
<path d="M133.207 199.836C132.568 199.836 131.673 199.743 130.757 199.579C129.888 199.421 129.078 199.216 128.478 199.006C127.714 198.736 127.411 198.498 127.458 198.222C127.51 197.952 127.84 197.84 128.571 197.84C129.209 197.84 130.105 197.932 131.027 198.097C132.331 198.334 133.965 198.762 134.268 199.197C134.34 199.302 134.34 199.394 134.327 199.454C134.274 199.724 133.938 199.836 133.207 199.836ZM127.991 198.321C128.307 198.512 129.249 198.861 130.836 199.144C131.732 199.302 132.595 199.394 133.214 199.394C133.51 199.394 133.688 199.375 133.794 199.355C133.477 199.157 132.536 198.815 130.948 198.525C130.053 198.367 129.19 198.275 128.571 198.275C128.274 198.281 128.096 198.301 127.991 198.321Z" fill="#083A63"/>
<path d="M131.067 198.893C130.191 198.735 129.295 198.406 128.985 198.287C129.058 197.313 128.742 195.264 128.551 194.619L133.767 196.292C133.326 196.977 132.931 198.34 132.806 198.735C132.654 198.821 132.107 199.058 131.212 198.92C131.166 198.906 131.113 198.9 131.067 198.893Z" fill="#FFC928"/>
<path d="M132.661 195.943C132.661 195.943 131.462 197.109 131.278 198.834C131.278 198.834 132.509 198.946 132.806 198.637C132.806 198.637 133.464 196.476 133.767 196.279C133.767 196.285 132.918 195.857 132.661 195.943Z" fill="#FFDA6B"/>
<path d="M128.551 194.612C128.551 194.612 129.17 197.794 129.104 198.274C129.104 198.274 130.099 198.551 130.257 198.531C130.257 198.531 130.428 195.482 130.033 195.33C129.638 195.185 128.551 194.612 128.551 194.612Z" fill="#FFA805"/>
<path d="M133.497 196.601C133.102 197.326 132.852 198.044 132.667 198.617C132.483 198.709 132.002 198.874 131.238 198.755C131.192 198.749 131.146 198.742 131.093 198.729C130.323 198.591 129.532 198.314 129.157 198.169C129.183 197.273 128.821 195.436 128.604 194.698C128.604 194.698 129.671 195.264 130.645 195.528C131.39 195.725 133.603 196.391 133.603 196.391M128.393 194.237C128.393 194.237 128.959 197.253 128.808 198.393C128.808 198.393 129.927 198.861 131.034 199.058C131.087 199.071 131.139 199.078 131.185 199.085C132.338 199.262 132.944 198.847 132.944 198.847C132.944 198.847 133.444 196.7 133.906 196.325L128.393 194.237Z" fill="#A11F02"/>
<path d="M133.655 196.318C133.497 196.266 133.26 196.167 133.03 196.068C132.588 195.884 131.976 195.627 131.258 195.396C129.927 194.975 129.111 194.579 128.768 194.355C129.295 194.369 130.316 194.593 131.403 194.935C132.667 195.337 133.451 195.93 133.655 196.318Z" fill="#FFC928"/>
<path d="M129.348 194.533C129.433 194.375 131.08 194.882 131.409 194.981C131.811 195.106 133.412 195.798 133.26 195.996C133.142 196.154 131.699 195.469 131.317 195.344C130.889 195.251 129.262 194.691 129.348 194.533ZM128.735 194.138C128.538 194.138 128.419 194.171 128.399 194.237C128.32 194.481 129.578 195.093 131.199 195.607C132.575 196.042 133.51 196.569 133.807 196.569C133.859 196.569 133.892 196.555 133.906 196.516C134.037 196.101 133.095 195.245 131.475 194.731C130.296 194.356 129.249 194.138 128.735 194.138ZM129.499 195.054L129.75 196.437L129.947 195.297L129.499 195.054Z" fill="#A11F02"/>
<path d="M132.048 195.917C132.048 195.917 131.376 197.333 131.541 197.794C131.541 197.794 132.206 196.101 132.727 196.035L132.048 195.917Z" fill="#A11F02"/>
<path d="M133.412 208.602L134.59 208.161L134.749 208.747L133.563 209.077L133.412 208.602ZM129.196 199.52C129.196 199.52 131.844 200.343 133.807 200.046C133.807 200.046 131.416 200.791 129.196 199.52Z" fill="#FDFDFC"/>
<path d="M126.535 201.818C126.535 201.818 126.305 204.868 135.46 204.334L135.183 202.556C135.183 202.556 129.644 202.694 127.609 201.087L126.535 201.818Z" fill="#5E001E"/>
<path d="M126.535 201.673C126.535 201.673 126.305 204.729 135.46 204.196L135.183 202.418C135.183 202.418 129.644 202.556 127.609 200.949L126.535 201.673Z" fill="#11286B"/>
<path d="M138.634 202.417C138.634 202.417 142.698 202.417 147.065 203.155L146.92 204.98C146.92 204.98 142.263 207.008 138.641 204.657L138.634 202.417Z" fill="#5E001E"/>
<path d="M138.878 192.109C138.878 192.109 140.274 199.111 139.998 203.043C139.721 206.975 139.306 214.919 139.458 215.077C139.458 215.077 143.93 216.098 145.78 215.077C145.78 215.077 145.346 202.806 145.78 200.171C146.215 197.537 146.92 192.109 146.92 192.109H138.878Z" fill="white"/>
<path d="M143.317 215.735C141.44 215.735 139.431 215.281 139.412 215.274L139.352 215.261L139.313 215.215C139.234 215.129 139.155 215.044 139.372 210.466C139.491 208.016 139.662 205.032 139.807 203.03C140.077 199.17 138.707 192.215 138.694 192.149L138.648 191.912H147.157L147.124 192.136C147.118 192.188 146.413 197.596 145.985 200.204C145.563 202.793 145.985 214.951 145.991 215.07L145.998 215.195L145.892 215.254C145.3 215.57 144.444 215.735 143.317 215.735ZM139.629 214.912C140.097 215.011 141.756 215.333 143.317 215.333C144.299 215.333 145.056 215.208 145.57 214.958C145.524 213.581 145.168 202.654 145.576 200.138C145.952 197.84 146.545 193.361 146.689 192.307H139.115C139.352 193.571 140.432 199.552 140.189 203.056C139.932 206.837 139.57 213.911 139.629 214.912Z" fill="#172C54"/>
<path d="M142.995 193.025C140.604 193.025 139.076 192.485 139.076 192.109C139.076 191.734 140.604 191.194 142.995 191.194C145.385 191.194 146.913 191.734 146.913 192.109C146.913 192.485 145.392 193.025 142.995 193.025Z" fill="white"/>
<path d="M142.994 191.398C145.3 191.398 146.512 191.879 146.703 192.116C146.518 192.346 145.3 192.827 142.994 192.827C140.689 192.827 139.477 192.346 139.286 192.116C139.477 191.879 140.696 191.398 142.994 191.398ZM142.994 190.996C140.722 190.996 138.878 191.497 138.878 192.109C138.878 192.722 140.722 193.222 142.994 193.222C145.267 193.222 147.111 192.722 147.111 192.109C147.117 191.497 145.273 190.996 142.994 190.996Z" fill="#172C54"/>
<path d="M142.994 192.116C140.999 192.116 139.912 191.662 139.912 191.424C139.912 191.194 140.999 190.733 142.994 190.733C144.99 190.733 146.077 191.187 146.077 191.424C146.083 191.662 144.99 192.116 142.994 192.116Z" fill="white"/>
<path d="M142.995 190.937C144.575 190.937 145.55 191.234 145.827 191.425C145.55 191.616 144.575 191.912 142.995 191.912C141.414 191.912 140.439 191.616 140.162 191.425C140.439 191.234 141.414 190.937 142.995 190.937ZM142.995 190.542C141.183 190.542 139.708 190.944 139.708 191.431C139.708 191.919 141.177 192.32 142.995 192.32C144.806 192.32 146.281 191.925 146.281 191.431C146.281 190.937 144.812 190.542 142.995 190.542Z" fill="#172C54"/>
<path d="M142.995 191.471C141.875 191.471 141.276 191.234 141.177 191.122C141.276 191.01 141.875 190.772 142.995 190.772C144.114 190.772 144.714 191.01 144.812 191.122C144.72 191.24 144.121 191.471 142.995 191.471Z" fill="white"/>
<path d="M142.995 190.976C143.587 190.976 144.042 191.049 144.332 191.128C144.042 191.207 143.587 191.279 142.995 191.279C142.402 191.279 141.941 191.207 141.657 191.128C141.947 191.042 142.402 190.976 142.995 190.976ZM142.995 190.575C141.875 190.575 140.973 190.818 140.973 191.121C140.973 191.424 141.881 191.668 142.995 191.668C144.114 191.668 145.023 191.424 145.023 191.121C145.023 190.818 144.114 190.575 142.995 190.575ZM140.202 191.431H139.8V192.557H140.202V191.431ZM146.327 191.431H145.925V192.557H146.327V191.431Z" fill="#172C54"/>
<path d="M145.227 191.122H144.826V191.866H145.227V191.122ZM141.328 191.122H140.926V191.866H141.328V191.122ZM142.514 193.216L142.757 195.021L143.383 193.216H142.514ZM140.07 215.202L140.353 213.509L140.676 215.307L140.07 215.202ZM143.344 215.531V212.561L144.167 215.531H143.344ZM142.586 204.196C140.933 204.196 140.024 203.656 139.965 203.623L140.169 203.28C140.189 203.294 142.138 204.426 145.53 203.261L145.662 203.636C144.457 204.058 143.423 204.196 142.586 204.196Z" fill="#172C54"/>
<path d="M138.648 202.575C138.648 202.575 141.282 205.236 147.157 203.293L146.927 205.388C146.927 205.388 142.573 207.449 138.951 205.098L138.648 202.575Z" fill="#5E001E"/>
<path d="M138.549 202.312C138.549 202.312 140.123 204.98 147.302 203.162L147.065 205.184C147.065 205.184 142.257 207.265 138.634 204.914L138.549 202.312Z" fill="#11286B"/>
<path d="M154.013 201.515C154.402 201.443 154.955 201.41 155.489 201.423C156.312 201.443 156.832 201.601 157.194 201.943C157.491 202.213 157.649 202.622 157.642 203.083C157.623 203.866 157.122 204.374 156.49 204.578V204.604C156.944 204.775 157.208 205.203 157.339 205.823C157.517 206.652 157.642 207.232 157.768 207.463L156.971 207.443C156.878 207.272 156.753 206.764 156.602 206.014C156.444 205.19 156.134 204.874 155.436 204.835L154.711 204.821L154.659 207.397L153.895 207.384L154.013 201.515ZM154.725 204.235L155.508 204.248C156.332 204.262 156.859 203.827 156.872 203.148C156.892 202.384 156.338 202.035 155.528 202.009C155.159 202.002 154.889 202.029 154.764 202.062L154.725 204.235Z" fill="#937031"/>
<path opacity="0.7" d="M170.966 219.799C170.966 219.799 174.339 217.013 177.296 213.772C177.296 213.772 174.569 226.669 182.44 229.435C182.44 229.435 179.654 230.127 177.474 229.56C177.474 229.56 176.92 229.369 176.229 228.513C175.597 227.736 175.55 225.905 173.002 221.848C171.889 220.089 171.302 220.063 170.966 219.799Z" fill="#2C4282"/>
<path d="M189.737 142.243C189.737 142.243 195.322 157.22 192.609 171.355L191.193 177.204C191.193 177.204 191.944 154.876 187.261 142.803L189.737 142.243Z" fill="#0B1A45"/>
<path d="M191.344 142.243C191.344 142.243 198.029 164.42 191.239 177.013C191.239 177.013 191.581 175.992 191.963 173.147C192.576 168.622 193.61 160.356 189.546 142.618L191.344 142.243Z" fill="#4E87C3"/>
<path d="M118.118 146.682C118.118 146.682 112.184 164.295 113.646 177.948C116.807 173.285 116.182 156.134 120.199 146.682H118.118Z" fill="#0B1A45"/>
<path d="M118.118 147.104L116.202 148.289C116.202 148.289 110.537 164.143 113.646 177.955C113.646 177.948 114.252 160.494 118.118 147.104Z" fill="#4E87C3"/>
<path d="M99.1036 154.329C99.1036 154.329 99.6503 154.421 102.858 152.3C109.49 147.914 124.928 142.605 142.896 149.58C143.166 149.685 143.271 148.862 143.548 148.954C143.548 148.954 137.956 137.118 134.294 135.485C130.632 133.845 108.436 136.71 99.1036 154.329Z" fill="#5E001E"/>
<path d="M99.1036 154.329C99.1036 154.329 109.279 150.417 127.635 149.811C134.59 149.58 146.498 155.291 153.48 150.687C153.724 150.529 155.041 146.814 152.4 148.803C152.4 148.803 137.311 137.435 133.649 135.801C129.987 134.155 108.436 136.71 99.1036 154.329Z" fill="#5E001E"/>
<path d="M99.1036 154.329C99.1036 154.329 109.721 150.298 124.481 148.941C133.095 148.151 148.138 154.85 153.269 150.634C153.493 150.45 152.42 149.712 152.696 149.804C152.696 149.804 137.311 136.776 133.649 135.143C129.987 133.509 108.436 136.71 99.1036 154.329Z" fill="#C4062D"/>
<path d="M122.788 136.064C122.788 136.064 114.95 138.409 109.365 142.559C100.994 148.776 99.1036 154.336 99.1036 154.336C99.1036 154.336 104.248 143.876 122.788 136.064Z" fill="#FF9EB2"/>
<path d="M255.778 60.0823C255.778 60.0823 248.289 55.3268 253.025 46.6128C253.025 46.6128 247.275 44.6171 248.599 39.7167C249.923 34.8098 253.262 34.981 253.262 34.981C253.262 34.981 248.948 30.6537 255.323 25.3383C255.323 25.3383 249.448 22.0582 257.095 14.2334C259.387 11.8886 263.128 11.6251 264.953 11.579L265.084 11.2497C265.084 11.2497 273.449 2.75308 279.897 8.60193L282.064 10.3342C282.064 10.3342 289.348 -0.204275 304.009 4.37337C304.009 4.37337 313.981 -1.06053 318.163 0.922023C322.345 2.91116 323.09 3.41832 323.136 8.83904C323.136 8.83904 329.208 5.92121 331.52 8.22649C333.832 10.5252 333.351 18.1919 337.744 20.0164C342.137 21.8343 345.055 22.5983 345.154 26.0826C345.259 29.5669 344.6 34.3553 344.6 34.3553C344.6 34.3553 347.511 36.2588 349.224 40.349C349.224 40.349 354.559 42.437 354.085 45.7632C353.617 49.0894 352.846 52.9754 352.846 52.9754C352.846 52.9754 351.681 57.2435 350.139 57.9022C350.139 57.9022 352.379 63.8366 350.265 66.6886C348.157 69.5406 347.749 70.3902 347.749 70.3902C347.749 70.3902 350.192 71.7998 345.852 76.3774L341.887 77.3786C341.887 77.3786 338.541 89.0763 326.113 82.0221C326.113 82.0221 326.488 83.1418 325.342 87.3638C325.342 87.3638 327.496 90.2355 323.478 96.4993C323.478 96.4993 322.806 103.633 318.545 106.01L316.464 109.554C316.464 109.554 315.166 108.625 314.923 108.197C314.923 108.197 312.94 110.166 310.029 111.345C310.029 111.345 306.9 113.993 304.431 112.834C304.431 112.834 297.311 117.892 290.231 115.725C285.199 114.191 281.221 111.569 281.221 111.569L279.943 111.773C279.943 111.773 278.362 111.997 277.756 110.884C277.15 109.771 276.992 107.874 276.992 107.874C276.992 107.874 275.194 107.98 273.462 105.786C271.73 103.6 271.315 103.073 271.315 103.073C271.315 103.073 270.538 103.758 270.037 103.046C269.537 102.335 268.806 100.708 268.806 100.708C268.806 100.708 264.867 97.5136 265.124 94.5628C265.124 94.5628 261.291 90.6834 261.989 85.6249C261.989 85.6249 260.698 84.5711 260.217 81.0341C260.217 81.0341 257.332 78.9593 258.156 76.0086C258.162 76.0217 253.176 64.9037 255.778 60.0823Z" fill="white"/>
<path d="M255.659 39.8746C257.365 41.4422 259.618 41.4093 261.64 40.5004C262.871 39.9405 262.055 38.0106 260.823 38.5705C259.427 39.2028 258.116 39.3016 256.937 38.2148C255.936 37.2927 254.671 38.9657 255.659 39.8746ZM265.888 37.3454C266.586 34.7767 268.555 33.2749 271.098 32.6953C272.145 32.4582 271.914 30.7918 270.854 31.0355C267.778 31.7337 265.183 33.5713 264.327 36.7197C264.05 37.7472 265.605 38.3861 265.888 37.3454ZM257.464 44.3469C260.415 45.3151 263.161 44.6696 265.209 42.2919C265.921 41.4686 264.577 40.4542 263.879 41.271C262.344 43.0493 260.309 43.517 258.096 42.7925C257.075 42.4566 256.437 44.011 257.464 44.3469Z" fill="#231F20"/>
<path d="M262.522 35.2248C264.129 32.1423 266.942 30.1071 270.439 29.8568C271.519 29.7778 271.275 28.1179 270.195 28.197C266.085 28.4934 262.838 31.0094 260.968 34.5925C260.467 35.5541 262.022 36.1799 262.522 35.2248ZM260.428 33.2357C261.172 29.6065 263.642 26.8336 267.31 26.03C268.358 25.7995 268.134 24.1331 267.067 24.3702C262.621 25.345 259.664 28.6251 258.761 33.0447C258.544 34.0985 260.217 34.2895 260.428 33.2357ZM257.582 33.6506C255.64 31.3783 256.581 29.1784 259.143 28.0126C260.125 27.5647 259.479 26.0168 258.491 26.4647C254.981 28.0652 253.585 31.5627 256.252 34.6781C256.95 35.4949 258.281 34.474 257.582 33.6506Z" fill="#231F20"/>
<path d="M255.323 25.3318C251.51 27.3275 250.166 31.6483 253.262 34.9745C253.993 35.7649 255.33 34.7439 254.592 33.947C252.281 31.4638 253.045 28.4143 255.982 26.873C256.93 26.379 256.285 24.8312 255.323 25.3318ZM251.8 34.7703C247.486 37.1217 246.3 42.7993 250.792 45.6842C251.694 46.2638 252.722 44.9333 251.813 44.3537C248.474 42.2065 249.139 38.1228 252.452 36.3181C253.4 35.8044 252.755 34.2499 251.8 34.7703Z" fill="#231F20"/>
<path d="M252.702 36.4433C250.687 38.5971 250.858 41.2778 252.985 43.2604C253.782 43.9981 254.79 42.661 254.006 41.9299C252.504 40.5335 252.695 38.9001 254.032 37.4708C254.777 36.6738 253.433 35.6595 252.702 36.4433ZM261.172 24.3241C261.514 22.1176 262.878 20.6422 265.104 20.2997C266.171 20.135 265.934 18.4752 264.86 18.6399C261.877 19.1009 259.96 21.1757 259.499 24.1331C259.341 25.2001 261.007 25.3977 261.172 24.3241Z" fill="#231F20"/>
<path d="M257.253 23.1913C257.951 19.7794 260.54 16.7431 264.228 16.7167C265.295 16.7101 265.506 15.0437 264.419 15.0503C259.756 15.0832 256.483 18.5939 255.587 23.0003C255.369 24.0541 257.042 24.2451 257.253 23.1913Z" fill="#231F20"/>
<path d="M254.533 22.0911C254.54 16.7626 258.485 12.9358 263.807 12.9226C264.873 12.9226 265.084 11.2496 263.998 11.2562C257.846 11.2694 252.873 15.577 252.867 21.8935C252.86 22.9605 254.533 23.1713 254.533 22.0911ZM266.658 11.2431C268.792 6.5271 274.924 5.45349 278.705 8.85215C279.515 9.57666 280.522 8.2396 279.726 7.52166C275.095 3.36556 267.646 4.97267 265.097 10.6173C264.656 11.5987 266.211 12.231 266.658 11.2431Z" fill="#231F20"/>
<path d="M268.272 15.0701C269.826 12.1259 272.922 11.1445 276.063 11.7044C277.13 11.8954 277.321 10.229 276.255 10.038C272.316 9.33321 268.608 10.8415 266.711 14.4378C266.217 15.3994 267.778 16.0186 268.272 15.0701Z" fill="#231F20"/>
<path d="M270.05 19.9242C270.518 15.8603 274.891 13.9239 278.56 15.0107C279.587 15.3136 280.226 13.7592 279.192 13.4562C274.496 12.0665 268.977 14.5101 268.384 19.7266C268.259 20.8068 269.925 21.0044 270.05 19.9242Z" fill="#231F20"/>
<path d="M273.956 21.9002C275.405 18.8638 278.29 17.2765 281.622 17.7309C282.696 17.8758 282.894 16.2094 281.82 16.0645C277.723 15.5047 274.167 17.5663 272.402 21.2745C271.934 22.2493 273.495 22.875 273.956 21.9002ZM281.86 20.5829C282.34 25.8192 277.644 31.3519 272.619 27.2814C271.776 26.5964 270.762 27.9335 271.598 28.6119C277.809 33.644 284.132 27.0179 283.519 20.3392C283.427 19.2656 281.761 19.5027 281.86 20.5829Z" fill="#231F20"/>
<path d="M276.162 32.4846C282.255 32.287 287.405 27.8477 286.246 21.4455C286.055 20.3851 284.389 20.6156 284.586 21.6892C285.6 27.268 281.095 30.6601 275.925 30.8248C274.845 30.8577 275.095 32.5175 276.162 32.4846ZM275.978 36.2784C272.836 36.7395 270.248 38.6562 269.378 41.7782C269.089 42.8057 270.643 43.4512 270.933 42.4105C271.651 39.8352 273.613 38.3203 276.222 37.9382C277.289 37.7802 277.051 36.1203 275.978 36.2784Z" fill="#231F20"/>
<path d="M268.601 39.9537C269.905 36.3903 273.561 34.6976 277.21 34.9545C278.283 35.0335 278.487 33.3671 277.401 33.2881C273.034 32.9785 268.614 35.0467 267.047 39.3214C266.678 40.3423 268.232 40.9746 268.601 39.9537ZM256.581 46.6719C260.81 50.176 266.5 48.1473 268.351 43.1745C268.726 42.1602 267.172 41.5278 266.797 42.5422C265.321 46.5139 261.007 48.1605 257.602 45.3415C256.772 44.6499 255.751 45.9869 256.581 46.6719Z" fill="#231F20"/>
<path d="M257.424 50.1828C261.521 52.9821 266.533 51.375 269.392 47.6075C270.05 46.7446 268.713 45.7237 268.061 46.5866C265.782 49.5834 261.784 51.1313 258.445 48.8523C257.556 48.2398 256.535 49.5768 257.424 50.1828ZM274.009 40.3293C271.934 41.785 270.966 43.9388 271.223 46.4548C271.335 47.535 272.994 47.2913 272.882 46.2111C272.685 44.2747 273.449 42.7598 275.029 41.6598C275.925 41.0407 274.891 39.7168 274.009 40.3293Z" fill="#231F20"/>
<path d="M271.117 48.7334C268.996 52.3231 265.051 54.1015 261.014 52.7315C259.993 52.3824 259.354 53.9368 260.382 54.2859C265.071 55.8864 269.932 54.0158 272.448 49.7544C272.994 48.8322 271.664 47.8047 271.117 48.7334Z" fill="#231F20"/>
<path d="M262.219 58.1653C264.86 58.8372 267.245 57.8887 269.043 55.9193C269.774 55.1224 268.437 54.108 267.712 54.8984C266.276 56.466 264.472 57.0193 262.417 56.499C261.37 56.2289 261.185 57.9019 262.219 58.1653Z" fill="#231F20"/>
<path d="M260.237 59.8387C263.24 62.8948 267.119 61.3404 269.55 58.3962C270.241 57.5597 268.904 56.5454 268.219 57.3753C266.579 59.3644 263.76 61.044 261.567 58.8177C260.816 58.0471 259.486 59.068 260.237 59.8387Z" fill="#231F20"/>
<path d="M263.444 66.0894C264.847 63.5272 267.732 63.2308 270.32 63.8631C271.368 64.12 271.552 62.447 270.518 62.1967C267.1 61.3602 263.648 62.2363 261.89 65.4571C261.37 66.4121 262.931 67.0313 263.444 66.0894Z" fill="#231F20"/>
<path d="M263.319 69.2966C264.577 67.8278 266.257 67.4195 268.061 68.1111C269.069 68.4931 269.701 66.9387 268.694 66.5566C266.171 65.595 263.741 66.2339 261.989 68.2823C261.284 69.099 262.621 70.12 263.319 69.2966ZM256.087 56.3146C253.756 62.7167 255.014 69.6326 257.51 75.7976C257.918 76.8053 259.46 76.1466 259.058 75.1455C256.733 69.4152 255.468 62.9209 257.642 56.9469C258.011 55.9326 256.456 55.2937 256.087 56.3146Z" fill="#231F20"/>
<path d="M255.257 51.3617C253.229 53.7592 252.491 56.8417 254.678 59.3973C255.383 60.2206 256.713 59.1931 256.008 58.3698C254.296 56.3741 255.034 54.2203 256.588 52.3826C257.293 51.5527 255.956 50.5384 255.257 51.3617Z" fill="#231F20"/>
<path d="M254.019 48.6812C250.423 51.4541 250.107 55.8276 253.407 58.9694C254.191 59.7136 255.205 58.3766 254.428 57.6389C251.898 55.2348 252.379 52.0667 255.04 50.0117C255.903 49.353 254.875 48.0225 254.019 48.6812Z" fill="#231F20"/>
<path d="M254.276 45.4338C248.842 48.1211 248.586 54.5166 252.557 58.6859C253.295 59.4631 254.632 58.4422 253.888 57.6584C250.733 54.3454 250.397 49.221 254.928 46.975C255.896 46.5008 255.244 44.953 254.276 45.4338ZM260.823 79.6443C257.668 76.3708 260.724 72.6823 264.551 72.3069C265.631 72.2015 265.387 70.5417 264.307 70.6471C259.282 71.141 255.462 76.4959 259.486 80.6718C260.243 81.4358 261.574 80.4215 260.823 79.6443Z" fill="#231F20"/>
<path d="M261.923 76.2523C259.525 79.0911 259.525 82.661 261.521 85.7172C262.114 86.6261 263.438 85.592 262.851 84.6897C261.251 82.2395 261.363 79.5127 263.253 77.2732C263.958 76.4433 262.621 75.429 261.923 76.2523Z" fill="#231F20"/>
<path d="M262.661 84.0374C260.724 87.8049 261.244 91.9807 264.571 94.7405C265.407 95.4321 266.421 94.095 265.591 93.41C262.805 91.1047 262.634 87.7522 264.215 84.6697C264.715 83.7015 263.155 83.0823 262.661 84.0374Z" fill="#231F20"/>
<path d="M265.861 88.8061C263.793 92.9161 264.129 97.5267 268.028 100.372C268.904 101.011 269.925 99.6739 269.049 99.0416C265.73 96.6178 265.684 92.8832 267.416 89.445C267.903 88.4702 266.342 87.8445 265.861 88.8061Z" fill="#231F20"/>
<path d="M268.226 93.476C267.416 96.8285 267.91 100.293 270.044 103.053C270.709 103.909 272.033 102.888 271.374 102.025C269.49 99.5817 269.187 96.6046 269.892 93.667C270.149 92.6197 268.476 92.4353 268.226 93.476Z" fill="#231F20"/>
<path d="M271.058 99.1535C270.531 102.256 271.703 105.2 274.206 107.097C275.069 107.755 276.09 106.418 275.227 105.766C273.166 104.199 272.296 101.887 272.724 99.3511C272.909 98.2774 271.236 98.0864 271.058 99.1535ZM265.96 76.555C266.961 74.8096 268.568 74.0653 270.518 74.6911C271.539 75.0204 272.178 73.466 271.15 73.1366C268.542 72.3001 266.013 73.1103 264.63 75.5341C264.096 76.4628 265.427 77.4969 265.96 76.555Z" fill="#231F20"/>
<path d="M264.775 81.4227C265.802 78.7354 268.358 77.7804 271.018 78.6696C272.039 79.0121 272.678 77.4576 271.651 77.1151C268.14 75.9361 264.59 77.2205 263.22 80.7904C262.832 81.7982 264.393 82.4305 264.775 81.4227ZM266.052 84.8938C267.475 82.549 269.978 81.9299 272.487 82.8849C273.495 83.267 274.127 81.7125 273.119 81.3305C269.971 80.1318 266.533 80.9024 264.722 83.8729C264.162 84.795 265.493 85.8225 266.052 84.8938Z" fill="#231F20"/>
<path d="M267.192 87.0807C268.97 85.5987 271.065 85.6975 273.093 86.5999C274.081 87.0412 274.713 85.4802 273.725 85.0454C271.17 83.906 268.384 83.906 266.164 85.7502C265.335 86.4484 266.355 87.7723 267.192 87.0807ZM270.716 89.8668C271.065 89.0566 271.697 88.7932 272.547 88.9183C273.614 89.0764 273.811 87.41 272.738 87.2519C271.15 87.0148 269.787 87.7591 269.155 89.2411C268.733 90.2291 270.287 90.8614 270.716 89.8668ZM274.779 89.0632C272.902 89.9129 271.783 91.3817 271.295 93.3642C271.038 94.4115 272.705 94.5959 272.961 93.5618C273.297 92.1918 274.154 91.1907 275.431 90.6111C276.419 90.1632 275.767 88.6154 274.779 89.0632ZM276.531 91.4607C275.003 92.8637 273.976 94.5432 273.442 96.5521C273.166 97.5796 274.72 98.2251 274.997 97.1844C275.451 95.4785 276.248 93.9966 277.559 92.7912C278.349 92.0667 277.328 90.7296 276.531 91.4607ZM276.426 97.0725C274.964 98.7059 274.075 100.682 273.923 102.875C273.851 103.949 275.517 104.153 275.589 103.073C275.721 101.15 276.479 99.5227 277.756 98.0934C278.487 97.2832 277.144 96.2755 276.426 97.0725ZM277.243 101.024C276.05 102.823 275.161 104.706 274.74 106.827C274.529 107.888 276.202 108.079 276.406 107.025C276.768 105.2 277.552 103.587 278.573 102.045C279.172 101.15 277.842 100.122 277.243 101.024ZM278.395 104.509C276.893 106.215 276.696 108.25 277.302 110.384C277.598 111.425 279.139 110.759 278.85 109.732C278.402 108.164 278.639 106.768 279.726 105.536C280.443 104.719 279.106 103.705 278.395 104.509Z" fill="#231F20"/>
<path d="M279.594 107.051C279.014 108.572 279.054 110.133 279.66 111.642C280.061 112.649 281.609 111.991 281.207 110.99C280.773 109.896 280.733 108.79 281.155 107.683C281.537 106.669 279.982 106.036 279.594 107.051ZM282.907 12.0334C285.245 7.9563 289.262 4.21515 294.255 4.43909C295.328 4.4852 295.533 2.8188 294.452 2.7727C288.867 2.529 284.237 6.37553 281.576 11.0125C281.043 11.9412 282.373 12.9687 282.907 12.0334Z" fill="#231F20"/>
<path d="M289.928 10.3537C292.378 6.35568 297.12 3.37856 301.908 4.70904C302.936 4.99226 303.581 3.44443 302.54 3.15462C297.047 1.62654 291.489 4.63 288.597 9.33938C288.031 10.2417 289.361 11.2692 289.928 10.3537Z" fill="#231F20"/>
<path d="M293.379 11.9609C293.84 10.5909 294.808 9.67535 296.244 9.37896C297.298 9.1616 297.067 7.49521 296 7.71915C294.011 8.1341 292.477 9.39213 291.825 11.3352C291.482 12.3561 293.036 12.9884 293.379 11.9609ZM300.123 8.06165C305.893 4.60372 322.872 -4.97311 321.476 8.64785C321.364 9.72146 323.03 9.91905 323.142 8.84545C324.776 -7.08739 306.084 2.54872 299.102 6.73117C298.167 7.28444 299.208 8.60833 300.123 8.06165Z" fill="#231F20"/>
<path d="M309.351 6.54694C312.552 4.70929 317.952 3.17463 319.493 7.79179C319.836 8.81929 321.377 8.16064 321.041 7.13973C319.197 1.62021 312.756 2.68723 308.705 5.00569C307.763 5.53261 308.409 7.08703 309.351 6.54694Z" fill="#231F20"/>
<path d="M312.973 8.77297C313.862 8.36461 314.909 8.00893 315.805 8.58855C316.694 9.16817 316.846 10.4986 316.859 11.4603C316.872 12.5273 318.538 12.7381 318.525 11.6579C318.505 9.99148 318.183 8.35143 316.826 7.26466C315.528 6.2174 313.691 6.59942 312.314 7.23831C311.34 7.67961 311.992 9.22744 312.973 8.77297ZM324.947 9.39869C326.949 8.58855 329.584 7.58081 331.204 9.56336C332.225 10.8148 332.481 12.7578 332.837 14.2793C333.469 16.96 334.22 19.8384 336.73 21.3467C337.645 21.8999 338.679 20.5695 337.75 20.0162C334.247 17.9019 334.694 12.8303 333.101 9.47115C331.362 5.80903 327.39 6.58624 324.295 7.85086C323.287 8.25922 323.946 9.80706 324.947 9.39869Z" fill="#231F20"/>
<path d="M328.991 11.6052C328.233 14.0752 328.668 16.5517 330.216 18.6199C330.868 19.4893 332.192 18.4618 331.546 17.5924C330.374 16.0248 329.966 14.1213 330.545 12.2309C330.868 11.21 329.314 10.5711 328.991 11.6052ZM325.895 12.9159C325.191 15.6559 325.836 18.2905 327.667 20.4509C328.365 21.2742 329.696 20.2533 328.997 19.4234C327.588 17.7636 326.896 15.702 327.45 13.5417C327.72 12.5142 326.165 11.8687 325.895 12.9159ZM340.095 23.1646C345.345 23.461 344.455 29.3493 343.29 32.9456C342.96 33.9665 344.508 34.6054 344.844 33.5779C346.352 28.9344 346.82 21.867 340.293 21.5048C339.213 21.4389 339.009 23.1053 340.095 23.1646Z" fill="#231F20"/>
<path d="M334.504 26.4054C339.239 23.9618 344.014 27.3934 343.441 32.6494C343.323 33.723 344.989 33.9206 345.107 32.847C345.806 26.4186 339.733 21.8277 333.852 24.8641C332.897 25.3515 333.542 26.8994 334.504 26.4054Z" fill="#231F20"/>
<path d="M335.788 29.4811C338.923 28.7302 342.249 29.8368 343.151 33.1959C343.428 34.23 345.094 33.9995 344.811 32.9522C343.678 28.75 339.674 26.8267 335.544 27.8147C334.504 28.0716 334.734 29.7314 335.788 29.4811Z" fill="#231F20"/>
<path d="M338.291 34.1181C342.862 33.2421 346.444 35.8109 347.36 40.3358C347.571 41.3897 349.237 41.1591 349.02 40.0921C347.933 34.7109 343.54 31.4045 338.047 32.4517C336.987 32.6559 337.224 34.3223 338.291 34.1181ZM287.728 19.6738C291.785 18.1985 297.62 16.4333 300.525 20.7738C301.131 21.6762 302.455 20.6421 301.855 19.7463C298.483 14.6944 291.871 16.3806 287.076 18.126C286.055 18.4949 286.714 20.0427 287.728 19.6738ZM300.867 16.9602C302.949 17.8625 304.055 19.6607 304.121 21.9067C304.154 22.9869 305.814 22.7366 305.781 21.663C305.702 18.8374 304.082 16.5189 301.5 15.4058C300.499 14.9711 299.873 16.5321 300.867 16.9602Z" fill="#231F20"/>
<path d="M305.267 17.0525C307.73 18.9889 307.375 22.0451 305.853 24.4755C305.28 25.3845 306.611 26.412 307.184 25.4964C309.199 22.2822 309.515 18.2578 306.288 15.7154C305.432 15.0502 304.417 16.3807 305.267 17.0525Z" fill="#231F20"/>
<path d="M295.605 23.3162C301.052 21.0768 298.78 30.1991 302.916 31.8721C307.79 33.8415 313.263 30.9368 317.195 28.1112C318.077 27.4789 317.043 26.155 316.167 26.7807C313.388 28.7764 310.352 30.2913 306.947 30.8249C302.402 31.5362 301.816 27.9136 301.144 24.6203C300.42 21.0768 298.095 20.4774 294.946 21.7684C293.952 22.1833 294.604 23.7312 295.605 23.3162Z" fill="#231F20"/>
<path d="M302.494 25.5031C304.674 33.1039 312.953 28.3682 316.819 24.9366C317.629 24.2187 316.602 22.8882 315.798 23.6062C312.775 26.2869 305.847 31.1346 304.042 24.8444C303.746 23.8103 302.204 24.4756 302.494 25.5031ZM309.601 34.3554C312.835 34.7769 315.792 33.5518 318.143 31.3651C318.927 30.634 317.913 29.2969 317.116 30.0346C315.067 31.9381 312.624 33.0578 309.792 32.689C308.725 32.5441 308.527 34.2105 309.601 34.3554ZM320.35 27.7227C318.683 32.2938 321.99 36.5553 326.679 36.8978C327.753 36.9768 327.957 35.3104 326.877 35.2314C323.32 34.9679 320.6 31.9447 321.904 28.355C322.273 27.3407 320.718 26.7084 320.35 27.7227Z" fill="#231F20"/>
<path d="M324.446 29.8434C325.447 33.8941 328.431 37.003 332.732 37.2401C333.805 37.2994 334.01 35.633 332.929 35.5737C329.412 35.3761 326.936 32.9588 326.106 29.6063C325.849 28.559 324.183 28.7896 324.446 29.8434ZM337.23 41.7782C342.374 42.6937 343.507 48.1079 340.971 52.1388C340.398 53.0478 341.729 54.0753 342.302 53.1597C345.542 48.0091 343.876 41.2579 337.421 40.1052C336.361 39.9208 336.17 41.5872 337.23 41.7782ZM345.424 44.7158C346.774 47.4558 345.99 49.9982 343.988 52.1586C343.25 52.9556 344.594 53.9633 345.318 53.1795C347.709 50.6042 348.559 47.2977 346.971 44.0637C346.491 43.0955 344.943 43.741 345.424 44.7158Z" fill="#231F20"/>
<path d="M346.155 42.2591C349.263 43.3525 350.317 46.4416 349.421 49.4714C349.118 50.4989 350.673 51.1378 350.976 50.1037C352.122 46.2374 350.811 42.1274 346.787 40.7047C345.766 40.3425 345.134 41.8969 346.155 42.2591Z" fill="#231F20"/>
<path d="M349.56 41.6728C352.715 43.2997 353.973 46.7312 352.148 49.8796C351.615 50.8083 352.945 51.8358 353.479 50.9005C355.869 46.7576 354.394 42.2919 350.185 40.1184C349.23 39.6244 348.605 41.1854 349.56 41.6728ZM346.754 53.3705C346.984 55.0105 346.471 56.1698 344.903 56.8021C343.896 57.2038 344.554 58.7517 345.555 58.3499C347.821 57.441 348.756 55.5045 348.414 53.1268C348.262 52.0598 346.602 52.2969 346.754 53.3705ZM351.193 53.2124C351.252 54.4902 350.64 55.5967 349.626 56.341C348.75 56.9799 349.777 58.3038 350.653 57.6715C352.188 56.5518 352.945 54.8524 352.859 52.9753C352.807 51.8885 351.147 52.1388 351.193 53.2124Z" fill="#231F20"/>
<path d="M349.514 59.1996C350.87 62.8024 349.606 66.5897 346.741 69.0531C345.918 69.7578 346.945 71.0883 347.768 70.3835C351.226 67.4196 352.695 62.8815 351.068 58.5475C350.679 57.5332 349.132 58.1919 349.514 59.1996ZM347.656 71.6943C346.938 74.263 345.088 76.0414 342.328 76.0545C341.261 76.0611 341.05 77.7275 342.137 77.7209C345.608 77.7012 348.275 75.6791 349.217 72.32C349.501 71.2991 347.946 70.6536 347.656 71.6943Z" fill="#231F20"/>
<path d="M346.813 59.1668C348.335 62.1505 347.222 65.042 344.488 66.7874C343.573 67.3736 344.607 68.6975 345.516 68.1179C348.848 65.9904 350.199 62.111 348.361 58.5147C347.867 57.5531 346.319 58.1986 346.813 59.1668ZM345.615 69.6591C344.422 72.4255 341.874 74.4146 338.765 73.5254C337.737 73.229 337.092 74.7835 338.133 75.0799C342.15 76.2325 345.582 73.9799 347.169 70.2914C347.597 69.2969 346.043 68.6646 345.615 69.6591ZM343.369 60.6027C343.54 62.9804 342.585 64.8576 340.543 66.0892C339.614 66.6491 340.655 67.973 341.571 67.4197C344.139 65.8653 345.252 63.3097 345.035 60.3655C344.949 59.2853 343.29 59.529 343.369 60.6027Z" fill="#231F20"/>
<path d="M338.719 57.0259C342.361 59.1929 339.779 63.1119 336.914 64.5939C335.959 65.0879 336.604 66.6357 337.566 66.1417C341.459 64.1328 344.574 58.5738 339.74 55.6955C338.824 55.1422 337.79 56.4727 338.719 57.0259ZM333.417 71.8391C335.188 71.457 336.749 70.7128 338.001 69.3823C338.745 68.5919 337.401 67.5776 336.67 68.3614C335.742 69.3559 334.49 69.896 333.18 70.1792C332.126 70.4032 332.356 72.063 333.417 71.8391ZM326.218 81.9889C330.618 82.147 334.536 79.6441 335.768 75.3299C336.064 74.3024 334.51 73.6569 334.214 74.6976C333.193 78.2609 330.117 80.4543 326.409 80.3225C325.335 80.283 325.131 81.9494 326.218 81.9889Z" fill="#231F20"/>
<path d="M329.406 83.4316C333.845 83.7346 337.54 81.1856 338.6 76.8385C338.857 75.7912 337.184 75.6068 336.934 76.6409C336.097 80.0725 333.048 82.0023 329.603 81.7652C328.523 81.6928 328.319 83.3592 329.406 83.4316Z" fill="#231F20"/>
<path d="M333.608 84.2353C337.665 84.3933 340.925 82.1737 341.834 78.1559C342.071 77.102 340.405 76.9176 340.168 77.9583C339.47 81.0342 336.868 82.6874 333.799 82.5689C332.732 82.5228 332.521 84.1891 333.608 84.2353ZM324.064 82.0222C325.322 83.0892 325.744 84.558 325.382 86.1519C325.144 87.2058 326.811 87.3902 327.048 86.3495C327.542 84.1826 326.765 82.121 325.085 80.6917C324.255 79.9869 323.241 81.324 324.064 82.0222Z" fill="#231F20"/>
<path d="M323.313 86.3098C325.375 89.0564 325.579 92.2838 323.906 95.2806C323.379 96.2225 324.94 96.8416 325.461 95.9129C327.41 92.4221 327.022 88.4636 324.637 85.2889C323.992 84.4128 322.668 85.4469 323.313 86.3098Z" fill="#231F20"/>
<path d="M321.561 94.3522C323.28 97.1317 321.851 100.438 320.244 102.908C319.658 103.81 320.988 104.838 321.575 103.929C323.656 100.735 325.052 96.8353 322.892 93.3247C322.325 92.4026 321.002 93.4432 321.561 94.3522ZM317.656 100.596C317.899 103.501 317.116 105.833 315.522 108.243C316.003 108.302 316.483 108.368 316.958 108.428C316.549 107.617 316.082 106.86 315.614 106.083C315.252 105.477 314.429 105.786 314.172 106.28C313.105 108.335 311.689 109.146 309.693 110.166L310.799 111.253C311.102 110.608 311.293 110.166 311.247 109.468C311.201 108.744 310.147 108.5 309.752 109.08C308.409 111.023 306.703 111.807 304.345 111.688C303.271 111.635 303.067 113.302 304.154 113.354C307.078 113.499 309.397 112.538 311.089 110.101C310.589 109.969 310.088 109.837 309.594 109.712C309.528 110.035 309.416 110.338 309.252 110.628C308.955 111.273 309.706 112.044 310.358 111.714C312.769 110.489 314.468 109.356 315.739 106.913L314.297 107.11C314.699 107.756 315.067 108.414 315.423 109.086C315.686 109.607 316.49 109.831 316.865 109.271C318.71 106.478 319.612 103.725 319.329 100.366C319.223 99.2723 317.564 99.516 317.656 100.596ZM284.52 51.7175C290.599 50.1763 296.461 50.5056 300.466 55.9197C301.111 56.7892 302.435 55.7617 301.796 54.8922C297.436 49.0104 290.995 48.3518 284.277 50.0577C283.243 50.3212 283.466 51.981 284.52 51.7175ZM295.243 78.0373C292.852 79.4007 291.166 82.773 294.386 84.5316C296.408 85.6316 298.029 86.6854 299.636 88.4441C299.965 88.8063 300.459 89.162 300.953 89.2608C303.113 89.6889 305.511 88.8129 307.539 88.0489C308.955 87.5154 309.515 86.4417 309.798 85.0586C310.068 83.7544 309.443 81.5348 309.489 80.257C309.568 78.2349 309.884 76.2129 310.114 74.204C310.622 69.7712 309.186 64.3242 313.862 61.9991C319.177 59.3645 324.67 62.1901 327.845 66.557C328.484 67.433 329.807 66.4055 329.175 65.5295C326.62 62.0189 322.984 59.2196 318.4 59.3842C315.759 59.4765 309.976 60.5435 309.192 63.8433C308.54 66.5899 308.777 69.6395 308.586 72.4585C308.376 75.5081 307.506 78.7223 307.77 81.7851C307.895 83.2539 308.679 85.4669 306.887 86.4944C305.32 87.3968 301.684 88.2004 300.275 86.6525C299.326 85.6184 299.53 85.6777 298.483 84.7227C298.062 84.479 297.634 84.2484 297.199 84.0311C295.243 83.5832 294.815 82.0946 295.895 79.572C296.823 79.0516 296.185 77.4972 295.243 78.0373ZM286.569 57.54C290.863 55.9988 296.461 57.3819 296.132 62.9805C296.066 64.0541 297.739 64.2583 297.798 63.1781C297.963 60.3722 296.725 57.8496 294.419 56.2491C291.936 54.53 288.558 55.0503 285.91 55.9988C284.896 56.361 285.554 57.9023 286.569 57.54Z" fill="#231F20"/>
<path d="M286.608 59.6673C290.527 58.0141 296.191 57.9416 296.343 63.4282C296.369 64.5084 298.035 64.2581 298.002 63.1845C297.825 56.5716 290.843 56.0579 285.956 58.1195C284.962 58.541 285.614 60.0888 286.608 59.6673Z" fill="#231F20"/>
<path d="M290.494 58.1852C289.809 60.0097 289.816 62.0647 291.377 63.4281C293.017 64.8574 295.394 63.9287 296.83 62.7233C297.66 62.0317 296.632 60.7013 295.803 61.3928C294.946 62.1042 293.669 62.888 292.562 62.2162C291.39 61.5114 291.64 59.8779 292.042 58.8175C292.43 57.8032 290.876 57.1709 290.494 58.1852Z" fill="#231F20"/>
<path d="M292.78 59.3249C292.437 59.9111 292.246 60.5039 292.621 61.1296C292.971 61.7158 293.735 61.7685 294.34 61.7356C294.795 61.7092 295.111 61.2086 295.052 60.7871C294.979 60.3063 294.558 60.0494 294.097 60.0757C294.018 60.0823 293.945 60.0757 293.873 60.0626C293.998 60.0757 293.741 59.9769 293.912 60.0955C294.024 60.1745 294.077 60.3194 294.077 60.4578C294.084 60.3392 294.044 60.4643 294.11 60.3524C294.34 59.9572 294.354 59.4764 293.952 59.1734C293.629 58.9231 293.01 58.9297 292.78 59.3249ZM288.419 65.312C290.27 66.8731 292.509 67.5251 294.913 67.4C295.994 67.3473 295.743 65.6809 294.67 65.7402C292.714 65.839 290.935 65.2396 289.44 63.9816C288.617 63.2834 287.596 64.6205 288.419 65.312ZM314.659 66.3461C318.98 65.4833 323.011 68.0125 323.287 72.5375C323.353 73.6177 325.013 73.374 324.947 72.2938C324.618 66.8928 319.592 63.6522 314.415 64.6797C313.362 64.8971 313.599 66.5635 314.659 66.3461Z" fill="#231F20"/>
<path d="M312.696 70.509C316.003 67.5384 322.069 67.2618 323.34 72.4059C323.597 73.4466 325.263 73.216 325 72.1688C323.445 65.872 316.049 65.2397 311.669 69.1785C310.872 69.903 311.893 71.2335 312.696 70.509Z" fill="#231F20"/>
<path d="M315.983 67.9138C315.285 69.9491 315.614 72.1556 317.728 73.137C319.823 74.1052 322.181 72.7352 323.313 70.9766C323.893 70.0742 322.569 69.0467 321.983 69.9557C321.239 71.1083 320.139 71.925 318.723 71.7011C317.175 71.4574 317.149 69.7054 317.544 68.5461C317.886 67.5252 316.332 66.8863 315.983 67.9138Z" fill="#231F20"/>
<path d="M318.005 68.9743C317.926 69.4617 317.965 70.015 318.393 70.3443C318.855 70.6934 319.434 70.5551 319.895 70.2916C320.29 70.0677 320.534 69.6527 320.343 69.1917C320.178 68.8097 319.638 68.5198 319.243 68.7438C319.171 68.7899 319.098 68.8294 319.019 68.8623C318.769 68.9875 319.125 68.8426 319.223 68.8953C319.342 68.9809 319.454 69.0731 319.572 69.1587C319.744 69.3366 319.619 69.5408 319.678 69.1653C319.842 68.0983 318.176 67.9073 318.005 68.9743ZM285.824 87.5023C285.232 87.8052 284.942 88.2926 284.692 88.892C284.283 89.8932 285.838 90.5255 286.246 89.5243C286.285 89.4189 286.364 89.1094 286.476 89.0501C286.885 88.8393 287.109 88.3914 286.924 87.9501C286.753 87.5484 286.233 87.2915 285.824 87.5023Z" fill="#231F20"/>
<path d="M285.712 90.084C289.15 94.5431 294.854 90.8348 298.549 94.5299C299.306 95.2873 300.643 94.2664 299.879 93.5024C298.286 91.9019 296.567 91.1642 294.314 91.039C291.535 90.8875 288.992 91.5857 287.043 89.0565C286.378 88.2002 285.054 89.2277 285.712 90.084Z" fill="#231F20"/>
<path d="M300.084 95.3136C303.891 94.1676 305.01 98.2776 308.343 98.8967C309.41 99.0943 309.594 97.4213 308.534 97.2303C306.828 96.9141 305.768 95.2016 304.424 94.24C302.896 93.1466 301.137 93.2586 299.425 93.7724C298.398 94.0819 299.056 95.6232 300.084 95.3136Z" fill="#231F20"/>
<path d="M287.794 91.9875C291.344 93.206 294.597 95.3203 297.739 97.3489C298.404 97.777 299.412 97.6782 300.169 97.7507C302.909 98.0142 305.642 98.3896 308.349 98.8968C309.41 99.0944 309.601 97.428 308.54 97.2304C305.577 96.6771 300.044 96.8352 298.101 95.5969C295.058 93.6539 291.857 91.612 288.426 90.4331C287.405 90.084 286.766 91.6384 287.794 91.9875ZM290.632 98.9626C293.86 101.637 298.009 103.027 302.158 102.032C303.199 101.782 302.975 100.115 301.915 100.372C298.167 101.268 294.564 100.043 291.653 97.6321C290.817 96.9406 289.803 98.2776 290.632 98.9626ZM291.028 106.102C294.103 103.494 298.286 105.483 300.564 108.177C301.263 109.001 302.593 107.98 301.895 107.15C299.03 103.771 293.807 101.545 290 104.765C289.177 105.47 290.198 106.801 291.028 106.102Z" fill="#231F20"/>
<path d="M330.394 41.4818C335.373 49.2013 333.028 57.3225 329.584 65.1209C326.284 72.6032 322.734 79.8945 319.691 87.4954C316.49 95.5112 312.887 103.698 306.446 109.666C302.856 112.992 298.048 115.271 293.109 115.172C288.479 115.08 284.395 112.063 280.99 109.231C280.154 108.539 279.139 109.876 279.969 110.561C287.306 116.654 294.913 118.775 303.548 113.855C311.419 109.369 315.897 100.589 319.388 92.6066C323.465 83.2734 327.515 73.9469 331.625 64.6269C335.182 56.565 336.73 48.2199 331.717 40.4478C331.131 39.5454 329.807 40.5795 330.394 41.4818Z" fill="#231F20"/>
<path d="M171.948 144.423C171.948 144.423 194.888 144.594 209.173 148.895C211.656 149.646 213.955 150.074 215.746 151.128C215.746 151.128 203.799 137.237 180.536 132.929L171.948 144.423Z" fill="#5E001E"/>
<path d="M153.269 151.036C162.76 157.385 196.778 142.645 215.753 151.523C215.753 151.523 205.162 136.908 181.9 132.6C181.9 132.607 146.189 146.307 153.269 151.036Z" fill="#5E001E"/>
<path d="M153.269 150.634C161.436 154.711 196.778 142.243 215.753 151.121C215.753 151.121 205.162 136.506 181.9 132.198C181.9 132.205 145.649 146.834 153.269 150.634Z" fill="#F2244E"/>
<path d="M119.982 50.835L112.177 85.2431C112.177 85.2431 119.35 94.2864 160.343 93.9768C201.336 93.6673 194.453 87.7591 194.453 87.7591L185.278 52.8768L168.912 48.2597L144.167 46.2837L119.982 50.835Z" fill="#8A2202"/>
<path d="M113.277 85.5591L121.141 51.8953L143.317 47.647L137.706 90.3475C137.706 90.3475 117.143 86.8435 113.277 85.5591Z" fill="#EB4403"/>
<path d="M144.259 47.6929L139.563 90.591C139.563 90.591 155.357 93.6208 169.399 90.0048L169.676 49.761L144.259 47.6929Z" fill="#FF6403"/>
<path d="M170.69 50.3936L171.092 89.7481C171.092 89.7481 188.73 87.7261 192.569 85.9609L184.165 53.509L170.69 50.3936Z" fill="#FF801F"/>
<path d="M184.165 53.5154L170.69 50.3934L171.098 89.7545L172.172 52.0597L184.165 53.5154ZM139.57 90.7095L144.259 47.6929L169.682 49.7676L146.116 49.6096L139.57 90.7095Z" fill="#FFB752"/>
<path d="M89.2177 54.9976C89.2177 54.9976 94.513 90.3146 134.011 90.2158C134.011 90.2158 143.475 93.509 156.417 93.9965C166.718 94.3851 190.271 87.8446 200.684 82.2131C215.7 74.0985 224.658 74.1315 226.943 75.6266C226.943 75.6266 207.138 83.1682 207.421 95.2742C207.711 107.38 214.396 115.087 204.668 129.353C204.668 129.353 206.157 126.119 201.929 117.642C201.929 117.642 205.268 132.758 187.761 143.87C187.761 143.87 188.19 138.39 187.61 136.315C187.61 136.315 178.771 150.219 149.028 150.621C130.105 150.878 125.666 140.03 125.666 140.03L126.852 146.076C126.852 146.076 114.891 141.255 113.857 130.097C113.857 130.097 110.676 134.477 111.855 139.575C111.855 139.575 94.3616 129.307 101.817 115.06C101.817 115.06 94.8555 119.658 94.3154 123.445C94.3154 123.445 83.9355 103.283 101.639 93.8647C101.639 93.8647 89.1057 87.7195 85.6084 76.5882C85.6084 76.5882 90.1924 82.2263 94.1771 83.3328C94.1771 83.3394 82.3153 67.1629 89.2177 54.9976Z" fill="#D8762E"/>
<path opacity="0.7" d="M141.954 139.747C141.954 139.747 140.959 142.566 144.707 145.325C144.707 145.325 144.503 143.745 145.965 142.44C145.965 142.44 147.177 147.611 153.098 148.987C153.098 148.987 147.012 146.287 146.703 141.182C146.703 141.182 144.641 141.867 144.108 143.817C144.108 143.817 142.468 142.803 141.954 139.747Z" fill="#87381D"/>
<path d="M111.413 85.5723C111.413 85.5723 152.163 92.2444 155.726 110.002C155.726 110.002 156.358 92.0205 193.992 85.7633C193.992 85.7633 165.401 91.2038 155.574 91.6121C140.604 92.2247 111.413 85.5723 111.413 85.5723ZM89.817 54.9976C89.817 54.9976 82.3482 66.6491 94.7765 83.3394C94.7765 83.3394 91.2792 82.2658 86.2078 76.5948C86.2078 76.5948 89.2836 90.8678 104.557 94.5629C104.557 94.5629 97.7601 91.0786 93.8083 86.1387L100.151 86.5998C100.151 86.5998 86.5766 67.3868 89.817 54.9976Z" fill="#5E001E"/>
<path d="M102.245 93.8779C102.245 93.8779 85.2988 101.92 94.9213 123.458C94.9213 123.458 95.8105 120.138 102.423 115.073C102.423 115.073 93.6765 127.772 112.461 139.589C112.461 139.589 111.308 134.873 114.463 130.11C114.463 130.11 114.726 140.741 127.457 146.089C127.457 146.089 126.232 142.763 126.43 140.86C126.43 140.86 132.015 151.8 154.764 150.595C154.764 150.595 134.064 151.635 125.686 137.909C125.686 137.909 124.527 139.523 124.909 143.534C124.909 143.534 115.312 138.192 115.925 127.937C115.925 127.937 111.163 129.61 110.985 136.131C110.985 136.131 96.6996 127.983 104.274 113.117C104.274 113.117 100.665 112.913 95.0135 120.652C95.0135 120.646 88.2363 104.153 102.245 93.8779Z" fill="#5E001E"/>
<path d="M109.418 84.2681C109.418 84.2681 109.602 84.3866 109.971 84.5579C110.32 84.7489 110.886 84.9531 111.578 85.2429C112.27 85.5261 113.146 85.8093 114.12 86.1782C115.115 86.5075 116.241 86.8763 117.46 87.2781C118.698 87.647 120.035 88.0356 121.444 88.4835C122.854 88.9182 124.369 89.3002 125.91 89.7612C126.68 89.9786 127.471 90.2091 128.268 90.4397C129.071 90.6504 129.881 90.8612 130.698 91.0917C132.331 91.5462 133.991 92.0007 135.651 92.4617C137.304 92.9228 139.01 93.4431 140.617 94.0623C142.237 94.6748 143.791 95.4125 145.234 96.2358C146.67 97.0723 148.007 97.9812 149.14 99.0022C150.312 99.977 151.273 101.07 152.084 102.118C152.887 103.178 153.526 104.206 153.994 105.174C154.119 105.411 154.237 105.641 154.349 105.859C154.448 106.089 154.534 106.313 154.619 106.531C154.784 106.959 154.942 107.354 155.08 107.71C155.317 108.434 155.443 109.02 155.561 109.409C155.667 109.797 155.719 110.008 155.719 110.008C155.719 110.008 155.634 109.811 155.462 109.442C155.291 109.073 155.067 108.526 154.744 107.848C154.56 107.519 154.362 107.156 154.145 106.761C154.033 106.564 153.921 106.359 153.809 106.149C153.671 105.944 153.533 105.74 153.388 105.523C152.841 104.647 152.11 103.731 151.28 102.789C151.063 102.559 150.839 102.328 150.615 102.091C150.503 101.973 150.384 101.854 150.272 101.736C150.147 101.624 150.022 101.518 149.89 101.406C149.383 100.958 148.876 100.478 148.283 100.063C147.157 99.1668 145.84 98.4028 144.463 97.6453C143.074 96.9076 141.552 96.3017 140.004 95.7155C138.437 95.1359 136.83 94.6682 135.157 94.2203C133.497 93.7395 131.837 93.2587 130.204 92.791C128.564 92.33 126.97 91.8162 125.429 91.3025C123.888 90.7953 122.399 90.3013 121.003 89.781C119.607 89.2607 118.296 88.7535 117.091 88.2727C115.892 87.7589 114.799 87.2781 113.844 86.8434C112.895 86.3692 112.065 85.9674 111.407 85.5854C110.748 85.2034 110.234 84.9004 109.905 84.6567C109.576 84.4196 109.418 84.2681 109.418 84.2681Z" fill="#FFB752"/>
<path d="M198.853 93.7066C198.853 93.7066 207.869 75.396 227.543 75.6331C227.543 75.6331 221.121 79.8617 215.661 84.0244C210.504 87.9566 207.356 92.7845 208.337 98.416C208.337 98.416 204.794 94.082 198.853 93.7066ZM155.726 109.995C155.726 109.995 155.732 109.804 155.792 109.455C155.811 109.277 155.858 109.06 155.91 108.81C155.97 108.559 156.022 108.263 156.134 107.947C156.24 107.631 156.338 107.275 156.477 106.886C156.635 106.511 156.799 106.109 156.984 105.681C157.162 105.246 157.425 104.825 157.662 104.35C157.787 104.12 157.919 103.883 158.051 103.639C158.202 103.409 158.36 103.178 158.518 102.934C158.848 102.46 159.151 101.933 159.546 101.452C159.941 100.972 160.356 100.478 160.778 99.9638C161.192 99.4435 161.713 99.0022 162.194 98.495C162.688 98.001 163.181 97.4873 163.761 97.0526C164.321 96.5981 164.894 96.137 165.474 95.6694C166.04 95.1886 166.699 94.8197 167.324 94.3916C167.963 93.9832 168.589 93.5419 169.254 93.1599C169.926 92.7977 170.604 92.4354 171.283 92.0731L172.303 91.5396L172.817 91.2762L173.344 91.0522C174.049 90.7558 174.747 90.4594 175.439 90.1696C176.137 89.8798 176.815 89.5637 177.513 89.3397C178.218 89.1158 178.91 88.8984 179.588 88.6745C180.951 88.2464 182.255 87.7919 183.546 87.5416C184.817 87.2452 186.029 86.9883 187.142 86.7512C188.249 86.4746 189.296 86.3955 190.205 86.2572C193.221 86.0135 194.717 85.2297 194.717 85.2297C194.552 85.3746 193.92 85.9608 192.648 86.3165C192.01 86.4878 191.239 86.6985 190.35 86.9422C189.467 87.1925 188.453 87.3967 187.386 87.7655C186.312 88.108 185.153 88.4835 183.922 88.8457C182.677 89.1817 181.432 89.7283 180.115 90.1828C179.456 90.4199 178.791 90.6702 178.113 90.9139C177.77 91.0259 177.454 91.1971 177.118 91.342C176.789 91.4869 176.453 91.6318 176.117 91.7833C175.445 92.0797 174.773 92.3695 174.095 92.6659L173.588 92.8899L173.1 93.1533L172.119 93.6803C171.46 94.0228 170.802 94.3653 170.15 94.7012C169.504 95.0568 168.905 95.4784 168.286 95.8538C167.976 96.0448 167.673 96.2424 167.37 96.4334C167.061 96.6179 166.751 96.8023 166.475 97.0262C165.902 97.4478 165.342 97.8693 164.782 98.2777C164.202 98.6663 163.728 99.1471 163.214 99.5752C162.72 100.023 162.194 100.412 161.765 100.879C161.324 101.334 160.903 101.782 160.488 102.21C160.06 102.631 159.737 103.106 159.368 103.527C159.19 103.744 159.019 103.949 158.854 104.159C158.703 104.377 158.558 104.588 158.413 104.798C158.13 105.22 157.827 105.595 157.603 105.99C157.379 106.386 157.162 106.748 156.964 107.09C156.78 107.44 156.628 107.762 156.483 108.059C156.213 108.651 156.009 109.132 155.904 109.462C155.772 109.811 155.726 109.995 155.726 109.995Z" fill="#C74E03"/>
<path d="M211.301 113.697C211.261 113.058 211.202 112.425 211.116 111.793C210.945 110.529 210.682 109.284 210.379 108.059C210.076 106.834 209.727 105.622 209.391 104.41C209.048 103.198 208.739 101.986 208.541 100.734C208.758 103.25 209.45 105.701 209.924 108.157C210.161 109.389 210.359 110.627 210.458 111.866C210.51 112.485 210.537 113.104 210.543 113.723C210.543 114.342 210.517 114.961 210.471 115.574L210.372 116.496L210.234 117.411C210.128 118.017 209.997 118.617 209.839 119.21C209.674 119.802 209.496 120.389 209.285 120.968C209.081 121.548 208.844 122.114 208.594 122.674C208.343 123.234 208.06 123.781 207.77 124.327C207.461 124.861 207.178 125.408 206.835 125.921C206.512 126.448 206.17 126.962 205.814 127.463C205.788 127.502 205.755 127.542 205.729 127.588C205.702 127.443 205.683 127.291 205.663 127.146C205.61 126.791 205.538 126.442 205.478 126.086C205.413 125.73 205.347 125.381 205.268 125.032C205.189 124.683 205.116 124.327 205.024 123.978L204.754 122.931C204.062 120.534 203.351 118.986 202.607 117.925C202.607 117.925 202.692 122.621 202.686 122.898C202.679 123.451 202.62 124.011 202.541 124.564C202.462 125.118 202.33 125.671 202.185 126.218C202.034 126.764 201.863 127.304 201.658 127.838C201.454 128.371 201.23 128.892 200.98 129.412C200.73 129.926 200.46 130.433 200.17 130.934C199.874 131.428 199.577 131.922 199.241 132.396C198.925 132.877 198.569 133.338 198.227 133.799C197.508 134.713 196.745 135.593 195.942 136.433C195.546 136.862 195.118 137.263 194.71 137.678L193.419 138.87C192.538 139.645 191.633 140.392 190.705 141.11L189.342 142.124C189.355 141.551 189.362 140.985 189.349 140.418C189.349 139.825 189.309 139.233 189.276 138.64C189.237 138.047 189.177 137.454 189.125 136.868L188.953 134.767L187.643 136.46C187.188 137.046 186.596 137.672 186.016 138.238C185.423 138.811 184.804 139.364 184.159 139.885C183.513 140.412 182.855 140.912 182.176 141.4C181.498 141.884 180.804 142.345 180.095 142.783C179.388 143.227 178.666 143.644 177.928 144.034C177.191 144.433 176.442 144.809 175.682 145.161L174.536 145.681L173.377 146.168C172.6 146.484 171.816 146.794 171.019 147.064C170.229 147.347 169.425 147.604 168.615 147.848C167.812 148.098 166.995 148.309 166.178 148.52C165.355 148.717 164.545 148.935 163.715 149.099L162.47 149.356L161.219 149.574C160.389 149.732 159.546 149.837 158.709 149.962C157.866 150.087 157.023 150.153 156.18 150.259L153.644 150.476L151.102 150.621L153.651 150.667C154.501 150.654 155.357 150.647 156.207 150.614C157.056 150.562 157.912 150.535 158.762 150.456C159.612 150.377 160.468 150.318 161.311 150.206L162.582 150.054L163.847 149.857C164.696 149.738 165.533 149.56 166.376 149.409C167.212 149.224 168.049 149.04 168.879 148.823C169.708 148.605 170.538 148.381 171.355 148.118C172.178 147.874 172.988 147.584 173.798 147.295L175.004 146.84L176.196 146.34C176.98 145.99 177.77 145.635 178.541 145.24C179.311 144.851 180.075 144.443 180.819 144.008C181.57 143.58 182.301 143.112 183.026 142.631C183.75 142.151 184.448 141.637 185.133 141.097C185.818 140.563 186.477 139.99 187.116 139.391C187.281 139.239 187.432 139.088 187.59 138.93C187.603 139.43 187.623 139.931 187.616 140.431C187.623 140.998 187.597 141.564 187.577 142.131C187.557 142.414 187.551 142.697 187.524 142.974C187.504 143.25 187.478 143.54 187.445 143.784L187.195 145.747L188.809 144.634L190.297 143.6L191.759 142.526C192.726 141.789 193.668 141.02 194.585 140.221L195.935 138.989C196.363 138.561 196.817 138.146 197.226 137.691C198.069 136.809 198.866 135.874 199.617 134.899C199.979 134.405 200.354 133.917 200.69 133.397C201.039 132.89 201.355 132.356 201.672 131.829C201.975 131.289 202.264 130.743 202.534 130.183C202.798 129.623 203.042 129.05 203.259 128.464C203.476 127.877 203.667 127.278 203.825 126.672C203.858 126.534 203.885 126.389 203.917 126.251L203.957 126.409C204.029 126.751 204.115 127.087 204.181 127.43C204.247 127.772 204.319 128.108 204.372 128.451C204.431 128.786 204.49 129.142 204.53 129.465L204.774 131.237L205.762 129.807C206.13 129.28 206.512 128.773 206.862 128.233C207.217 127.7 207.56 127.16 207.882 126.6C208.218 126.053 208.508 125.473 208.804 124.907C209.088 124.327 209.358 123.748 209.595 123.148C209.839 122.556 210.062 121.95 210.253 121.337C210.458 120.725 210.616 120.099 210.767 119.473C210.906 118.841 211.017 118.208 211.11 117.57L211.215 116.608L211.268 115.646C211.34 114.981 211.334 114.336 211.301 113.697Z" fill="#5E001E"/>
<path d="M195.652 114.276C195.731 124.005 187.906 131.955 178.185 132.034C168.457 132.113 160.507 124.294 160.428 114.566C160.349 104.838 168.167 96.8878 177.895 96.8088C187.616 96.7232 195.573 104.548 195.652 114.276Z" fill="#C74E03"/>
<path d="M194.756 113.361C194.829 122.575 187.419 130.11 178.205 130.189C168.991 130.262 161.456 122.852 161.377 113.637C161.304 104.423 168.714 96.8878 177.928 96.8087C187.142 96.7297 194.677 104.14 194.756 113.361Z" fill="#67301B"/>
<path d="M194.367 114.731C194.44 123.728 187.208 131.085 178.211 131.157C169.215 131.23 161.864 123.998 161.792 115.001C161.719 106.003 168.951 98.6528 177.948 98.5738C186.938 98.5013 194.295 105.74 194.367 114.731Z" fill="white"/>
<path d="M150.332 114.645C150.411 124.374 142.586 132.324 132.858 132.403C123.13 132.482 115.181 124.663 115.102 114.935C115.023 105.207 122.847 97.2569 132.568 97.1778C142.296 97.0988 150.246 104.917 150.332 114.645Z" fill="#C74E03"/>
<path d="M149.429 113.73C149.508 122.944 142.092 130.479 132.878 130.552C123.664 130.624 116.129 123.214 116.05 114C115.971 104.779 123.387 97.2503 132.601 97.1779C141.822 97.0988 149.357 104.509 149.429 113.73Z" fill="#67301B"/>
<path d="M149.041 115.106C149.113 124.103 141.881 131.461 132.885 131.533C123.888 131.605 116.537 124.373 116.465 115.376C116.393 106.379 123.624 99.0284 132.621 98.9494C141.618 98.8703 148.968 106.109 149.041 115.106Z" fill="white"/>
<path d="M147.117 114.296C147.15 118.406 143.844 121.772 139.728 121.805C135.611 121.838 132.246 118.531 132.213 114.415C132.18 110.298 135.486 106.933 139.603 106.9C143.719 106.873 147.085 110.18 147.117 114.296Z" fill="black"/>
<path d="M141.493 114.441C141.499 115.179 140.907 115.778 140.169 115.785C139.438 115.791 138.832 115.198 138.832 114.461C138.825 114.283 138.854 114.105 138.917 113.938C138.981 113.772 139.077 113.619 139.2 113.491C139.323 113.362 139.471 113.259 139.634 113.188C139.798 113.118 139.974 113.08 140.152 113.079C140.33 113.078 140.507 113.112 140.672 113.181C140.836 113.249 140.986 113.349 141.111 113.476C141.236 113.603 141.334 113.754 141.4 113.92C141.465 114.086 141.497 114.263 141.493 114.441Z" fill="white"/>
<path d="M180.754 114.171C180.787 118.281 177.48 121.647 173.364 121.68C169.247 121.712 165.882 118.406 165.849 114.289C165.809 110.173 169.122 106.807 173.239 106.774C177.355 106.741 180.714 110.054 180.754 114.171Z" fill="black"/>
<path d="M175.129 114.316C175.131 114.49 175.098 114.664 175.033 114.826C174.967 114.988 174.871 115.135 174.749 115.26C174.626 115.385 174.481 115.484 174.32 115.553C174.159 115.621 173.986 115.658 173.812 115.659C173.081 115.666 172.475 115.073 172.475 114.342C172.473 114.167 172.506 113.994 172.571 113.832C172.636 113.67 172.733 113.522 172.855 113.397C172.977 113.272 173.123 113.173 173.284 113.105C173.445 113.036 173.617 113 173.792 112.998C174.523 112.985 175.122 113.578 175.129 114.316Z" fill="white"/>
<path d="M193.715 85.7761C193.715 85.7761 202.962 81.5739 207.454 79.1698C211.946 76.7657 223.116 73.1629 227.542 75.6329C227.542 75.6329 214.732 76.0676 202.594 88.1078C202.594 88.1078 205.913 82.5553 212.473 78.9064C212.48 78.9129 198.991 85.8156 193.715 85.7761Z" fill="#FFB752"/>
<path d="M148.112 130.874C148.112 130.874 154.771 140.82 156.661 145.753C156.661 145.753 162.141 134.266 162.569 129.84L148.112 130.874Z" fill="#C74E03"/>
<path d="M156.325 122.878C162.075 122.892 162.457 129.09 162.562 129.84C162.668 130.585 156.654 142.967 156.654 142.967C156.654 142.967 152.334 134.122 148.105 130.875C148.112 130.875 147.921 122.859 156.325 122.878Z" fill="#FAEB00"/>
<path d="M163.715 126.448C163.715 126.448 163.28 132.185 167.146 132.705C167.146 132.705 164.466 130.716 163.715 126.448ZM147.921 126.178C147.921 126.178 147.908 131.533 142.112 133.384C142.105 133.384 146.327 130.519 147.921 126.178Z" fill="#5E001E"/>
<path d="M156.654 132.804L156.582 122.865C156.582 122.865 148.573 122.443 148.132 130.097L156.654 132.804ZM156.654 136.236V142.967C156.654 142.967 152.143 133.976 148.105 130.874C148.112 130.874 153.71 132.389 156.654 136.236Z" fill="#F09800"/>
<path d="M145.668 130.012C145.668 130.012 153.447 132.923 156.654 138.877C156.654 138.877 160.139 131.428 164.611 129.821C164.611 129.821 160.494 129.623 156.654 132.811C156.654 132.804 148.428 129.386 145.668 130.012ZM128.109 263.659C128.109 263.659 131.989 262.487 132.766 263.231C133.537 263.975 130.606 265.082 128.926 266.32L126.502 264.529L128.109 263.659Z" fill="#5E001E"/>
<path d="M128.109 263.198C128.109 263.198 131.989 262.026 132.766 262.77C133.537 263.514 130.606 264.621 128.926 265.859L126.502 264.067L128.109 263.198Z" fill="#CF5A00"/>
<path d="M184.508 263.659C184.508 263.659 180.628 262.487 179.851 263.231C179.081 263.975 182.012 265.082 183.691 266.32L186.115 264.528L184.508 263.659Z" fill="#5E001E"/>
<path d="M184.751 263.481C184.751 263.481 180.872 262.309 180.095 263.053C179.324 263.797 182.255 264.904 183.935 266.142L186.359 264.351L184.751 263.481Z" fill="#CF5A00"/>
<path d="M127.866 264.884L133.491 230.931L129.249 230.193L123.98 264.199L123.94 264.193C123.94 264.193 113.541 265.964 113.02 268.704C112.81 269.811 114.127 270.726 116.32 270.759C117.381 270.779 118.151 270.924 119.699 270.127C119.699 270.127 119.897 272.202 123.005 272.202C125.403 272.202 125.824 270.871 125.824 270.871C125.824 270.871 127.49 272.162 129.776 271.214C130.658 270.845 131.192 269.824 130.481 268.296C130.257 267.789 127.866 264.884 127.866 264.884Z" fill="#5E001E"/>
<path d="M128.399 264.416L134.024 230.463L129.782 229.725L124.513 263.731L124.474 263.725C124.474 263.725 114.074 265.497 113.554 268.237C113.343 269.343 114.66 270.259 116.854 270.292C117.914 270.311 118.685 270.456 120.232 269.659C120.232 269.659 120.43 271.734 123.539 271.734C125.936 271.734 126.358 270.404 126.358 270.404C126.358 270.404 128.024 271.695 130.309 270.746C131.192 270.384 131.725 269.363 131.014 267.828C130.79 267.321 128.399 264.416 128.399 264.416Z" fill="#E37003"/>
<path d="M120.232 269.659C120.232 269.659 120.226 267.137 122.38 265.971C122.38 265.971 119.159 265.971 118.48 270.259C118.48 270.265 120.081 270.015 120.232 269.659Z" fill="#CF5A00"/>
<path opacity="0.7" d="M116.123 266.063C116.123 266.063 119.33 264.772 122.202 265.978C122.202 265.978 123.71 265.78 125.455 266.373C125.455 266.373 126.733 264.087 127.161 263.725L132.759 230.246L129.782 229.732L124.474 263.732C124.474 263.725 117.611 265.075 116.123 266.063Z" fill="#CF5A00"/>
<path d="M116.123 266.063C116.123 266.063 118.289 266.807 118.777 268.118C118.777 268.118 118.164 265.905 116.959 265.661L116.893 265.675L116.123 266.063ZM118.678 265.095C118.678 265.095 119.659 265.648 119.976 266.965C119.976 266.965 119.91 265.372 119.403 264.897L118.678 265.095ZM120.812 264.522C120.812 264.522 121.484 265.187 121.378 266.03C121.378 266.03 121.747 264.759 121.326 264.39L120.812 264.522ZM126.852 267.334C126.852 267.334 127.899 265.582 129.769 265.661L130.053 265.977C130.053 265.977 128.755 265.951 126.852 267.334ZM130.744 266.893C130.744 266.893 127.866 267.38 127.346 268.342C127.346 268.342 129.815 267.229 131.001 267.334L130.744 266.893ZM128.696 264.654C128.696 264.654 127.122 264.779 126.509 265.661C126.509 265.661 128.366 265.003 129.249 265.141L128.696 264.654ZM121.53 267.334C121.53 267.334 124.711 265.938 126.509 268.125C126.503 268.118 124.151 266.788 121.53 267.334Z" fill="#EB4403"/>
<path d="M121.247 266.57C121.247 266.57 124.171 264.647 126.226 267.104C126.226 267.11 123.875 266.03 121.247 266.57ZM120.97 268.737C120.97 268.737 124.402 267.071 126.503 269.152C126.503 269.152 123.736 267.874 120.97 268.737ZM133.51 235.409L130.165 235.436L133.221 236.081L133.51 235.409ZM133.234 240.198L129.493 239.908L132.825 241.133L133.234 240.198ZM131.304 246.988L127.978 247.522L131.073 248.016L131.304 246.988ZM130.006 253.437L127.405 253.746L130.132 253.898L130.006 253.437Z" fill="#EB4403"/>
<path d="M128.399 264.416L135.098 230.72L134.031 230.463L127.879 264.469C127.984 264.463 128.294 264.423 128.399 264.416Z" fill="#FFA754"/>
<path d="M128.399 264.416C128.399 264.416 132.871 267.729 130.975 270.318C130.975 270.318 131.897 267.657 127.905 264.337L128.399 264.416ZM125.462 266.57C125.462 266.57 126.555 268.335 126.503 269.258C126.456 270.18 126.549 271.53 123.545 271.734C123.545 271.734 125.791 271.523 125.804 269.435C125.818 267.354 125.462 266.57 125.462 266.57Z" fill="#FFA754"/>
<path d="M125.462 266.373C125.462 266.373 126.852 269.001 126.081 270.746C126.081 270.746 127.899 268.335 125.462 266.373Z" fill="#CF5A00"/>
<path d="M184.284 264.884L177.869 230.772L182.901 230.199L188.17 264.206L188.209 264.199C188.209 264.199 198.609 265.971 199.129 268.711C199.34 269.817 198.023 270.733 195.83 270.766C194.769 270.785 193.999 270.93 192.451 270.133C192.451 270.133 192.253 272.208 189.145 272.208C186.747 272.208 186.326 270.878 186.326 270.878C186.326 270.878 184.659 272.169 182.374 271.22C181.491 270.851 180.958 269.83 181.669 268.302C181.893 267.789 184.284 264.884 184.284 264.884Z" fill="#5E001E"/>
<path d="M184.817 264.417L179.061 229.561L183.421 229.613L188.703 263.732L188.743 263.725C188.743 263.725 199.142 265.497 199.663 268.237C199.874 269.343 198.556 270.259 196.363 270.292C195.303 270.311 194.532 270.456 192.984 269.659C192.984 269.659 192.787 271.734 189.671 271.734C187.274 271.734 186.852 270.404 186.852 270.404C186.852 270.404 185.186 271.695 182.901 270.746C182.018 270.384 181.485 269.363 182.196 267.828C182.426 267.321 184.817 264.417 184.817 264.417Z" fill="#E37003"/>
<path d="M192.978 269.659C192.978 269.659 192.984 267.137 190.831 265.971C190.831 265.971 194.051 265.971 194.73 270.259C194.73 270.265 193.136 270.015 192.978 269.659Z" fill="#CF5A00"/>
<path opacity="0.7" d="M197.094 266.063C197.094 266.063 193.887 264.772 191.008 265.978C191.008 265.978 189.5 265.78 187.755 266.373C187.755 266.373 186.477 264.087 186.049 263.725L180.451 229.613L183.434 229.725L188.743 263.725C188.743 263.725 195.599 265.075 197.094 266.063Z" fill="#CF5A00"/>
<path d="M197.094 266.063C197.094 266.063 194.927 266.807 194.44 268.118C194.44 268.118 195.059 265.905 196.258 265.661L196.324 265.675L197.094 266.063ZM194.539 265.095C194.539 265.095 193.557 265.648 193.241 266.965C193.241 266.965 193.307 265.372 193.814 264.897L194.539 265.095ZM192.405 264.522C192.405 264.522 191.733 265.187 191.838 266.03C191.838 266.03 191.47 264.759 191.891 264.39L192.405 264.522ZM186.365 267.334C186.365 267.334 185.318 265.582 183.447 265.661L183.164 265.977C183.164 265.977 184.455 265.951 186.365 267.334ZM182.473 266.893C182.473 266.893 185.351 267.38 185.871 268.342C185.871 268.342 183.401 267.229 182.216 267.334L182.473 266.893ZM184.521 264.654C184.521 264.654 186.095 264.779 186.708 265.661C186.708 265.661 184.85 265.003 183.968 265.141L184.521 264.654ZM191.687 267.334C191.687 267.334 188.506 265.938 186.708 268.125C186.708 268.118 189.066 266.788 191.687 267.334Z" fill="#EB4403"/>
<path d="M191.97 266.57C191.97 266.57 189.046 264.647 186.991 267.104C186.991 267.11 189.342 266.03 191.97 266.57ZM192.247 268.737C192.247 268.737 188.809 267.071 186.714 269.152C186.714 269.152 189.48 267.874 192.247 268.737ZM179.706 235.409L183.052 235.436L179.996 236.081L179.706 235.409ZM179.983 240.198L183.724 239.908L180.391 241.133L179.983 240.198ZM181.913 246.988L185.239 247.522L182.143 248.016L181.913 246.988ZM183.21 253.437L185.812 253.746L183.085 253.898L183.21 253.437Z" fill="#EB4403"/>
<path d="M184.817 264.417L177.869 229.436L179.068 229.561L185.344 264.469C185.226 264.463 184.923 264.423 184.817 264.417Z" fill="#CF5A00"/>
<path d="M184.817 264.416C184.817 264.416 180.345 267.729 182.242 270.318C182.242 270.318 181.32 267.657 185.311 264.337L184.817 264.416Z" fill="#CF5A00"/>
<path d="M187.755 266.57C187.755 266.57 186.661 268.336 186.708 269.258C186.754 270.18 186.661 271.53 189.665 271.734C189.665 271.734 187.419 271.523 187.406 269.435C187.399 267.354 187.755 266.57 187.755 266.57Z" fill="#FFA754"/>
<path d="M187.755 266.373C187.755 266.373 186.365 269.001 187.136 270.746C187.136 270.746 185.311 268.335 187.755 266.373Z" fill="#CF5A00"/>
<path d="M188.743 263.725H188.361L182.433 229.587L183.421 229.613L188.743 263.725Z" fill="#FFA754"/>
<path d="M188.427 263.429C188.427 263.429 197.239 264.818 198.833 267.064C198.833 267.064 199.755 268.013 199.142 268.856C199.142 268.856 199.577 268.303 198.181 267.032C196.778 265.76 188.427 263.429 188.427 263.429Z" fill="#FFA754"/>
</g>
</g>
<defs>
<clipPath id="clip0_24_380">
<rect width="355" height="274" fill="white"/>
</clipPath>
</defs>
</svg>
