<svg width="416" height="396" viewBox="0 0 416 396" fill="none" xmlns="http://www.w3.org/2000/svg">
<path d="M220.758 207.01C220.758 207.01 220.025 310.808 235.705 340.088C235.705 340.088 261.79 325.595 275.858 329.255C289.927 332.915 316.451 343.895 334.33 334.818C352.208 325.595 388.111 318.86 398.663 323.984C398.663 323.984 410.24 197.201 393.973 153.281L220.758 207.01Z" fill="#80152E"/>
<path d="M216.947 210.816C216.947 210.816 210.353 314.761 217.534 340.381C217.534 340.381 222.223 346.237 240.101 344.919C240.101 344.919 215.628 260.739 223.835 210.963L216.947 210.816Z" fill="#E62E51"/>
<path d="M266.04 328.962L249.187 234.973L274.979 328.962H266.04Z" fill="#A6263B"/>
<path d="M146.313 163.968L153.64 145.668C153.64 145.668 140.891 153.72 137.081 152.842C136.934 152.842 138.4 161.626 146.313 163.968Z" fill="#F6A45F"/>
<path d="M193.061 202.471L200.388 184.171C200.388 184.171 185.44 191.345 180.751 190.173C180.604 190.173 183.242 199.397 193.061 202.471Z" fill="#F6A45F"/>
<path d="M137.374 158.551C136.055 160.308 133.417 160.747 131.365 159.429C129.314 158.112 128.728 155.623 130.047 153.866C131.365 152.109 134.003 151.67 136.055 153.134C138.106 154.305 138.693 156.794 137.374 158.551Z" fill="#253163"/>
<path d="M156.131 170.702C154.812 172.459 152.175 172.898 150.123 171.581C148.071 170.263 147.485 167.774 148.804 166.018C150.123 164.261 152.761 163.822 154.812 165.139C156.717 166.457 157.45 168.946 156.131 170.702Z" fill="#253163"/>
<path d="M95.4618 80.519C95.4618 80.519 103.815 73.3454 139.572 90.3279C139.572 90.3279 107.479 92.6703 117.15 101.894C117.15 101.894 88.7208 92.6703 95.4618 80.519Z" fill="#5D1023"/>
<path d="M90.626 103.358C90.626 103.358 89.3071 97.3553 101.324 97.7945C113.34 98.0873 128.874 100.576 128.874 100.576C128.874 100.576 131.658 105.846 119.349 107.75C119.349 107.603 94.7292 109.653 90.626 103.358Z" fill="#5D1023"/>
<path d="M216.361 175.826C216.361 175.826 211.086 176.266 195.112 158.405C172.544 133.078 170.932 105.261 151.735 92.0854C135.469 80.959 97.8066 76.2742 99.4186 63.9766C99.4186 63.9766 86.5227 73.639 100.884 83.155C115.099 92.6711 133.27 91.3534 138.399 91.9391C138.399 91.9391 118.176 98.0879 95.6084 80.5198C95.6084 80.5198 84.178 94.4279 100.444 99.6983C123.598 107.311 135.615 101.309 135.615 101.309C135.615 101.309 116.564 107.75 106.599 106.872C101.47 106.433 90.7725 103.358 90.7725 103.358C92.531 122.83 119.349 117.413 125.21 117.852C125.21 117.852 110.996 121.219 94.5826 122.39C94.5826 122.39 98.979 140.837 116.857 137.909C128.434 136.006 130.633 135.713 134.296 132.931C134.296 132.931 120.521 143.179 102.789 147.425C102.789 147.425 109.97 168.067 119.202 163.09C128.728 157.966 131.072 149.621 133.71 144.936C133.71 144.936 123.305 169.531 126.09 177.583C128.728 185.635 139.718 192.37 141.77 193.248L146.166 171.727C146.166 171.727 141.037 201.007 169.174 206.863C169.174 206.863 164.484 193.98 166.829 184.171C166.829 184.171 166.683 210.231 182.656 222.528L197.897 226.627L195.991 219.161C195.991 219.161 203.612 232.923 215.482 232.776C215.482 232.776 228.378 221.211 232.628 211.841C232.628 211.841 221.637 231.166 218.852 233.215C218.852 233.215 226.033 236.729 229.55 232.923C231.016 231.166 241.86 226.335 246.989 216.233C252.411 205.253 255.049 185.196 237.757 164.7C237.024 164.407 232.041 173.923 216.361 175.826Z" fill="#D7762E"/>
<g opacity="0.6">
<path opacity="0.6" d="M249.041 187.391C249.041 187.391 243.032 197.2 235.705 193.247C235.705 193.247 222.223 200.86 209.767 196.615C197.164 192.369 206.689 186.952 206.689 186.952C206.689 186.952 194.819 182.853 187.931 179.047C198.19 180.364 208.301 180.218 208.301 180.218C176.501 174.801 168.148 160.161 168.148 160.161L166.389 166.456C155.399 159.136 154.959 144.203 154.959 143.032C154.959 143.618 154.812 148.01 150.709 147.278C137.813 145.082 141.916 113.898 141.916 113.898C121.107 121.804 93.8499 121.511 93.8499 121.511C100.737 143.179 119.788 137.908 132.538 134.102C132.538 134.102 122.133 140.397 117.737 142.3C114.22 143.764 103.082 147.424 103.082 147.424C112.754 174.947 124.185 160.161 130.926 149.181C129.314 153.573 128.727 157.672 127.262 160.893C117.297 184.171 141.037 192.223 141.037 192.223C141.77 184.756 145.727 169.531 148.364 161.625C135.029 199.982 168.148 205.838 168.148 205.838C162.14 192.662 168.441 172.166 168.441 172.166C168.295 172.019 168.588 172.312 168.441 172.166C163.605 182.267 165.071 208.327 181.63 221.503L196.871 225.602L194.966 218.136C194.966 218.136 202.146 231.751 214.456 231.751C214.456 231.751 226.326 219.746 229.111 215.354C227.499 217.989 219.878 230.287 217.973 232.19C217.973 232.19 225.154 235.996 229.111 231.458C232.188 226.92 254.902 224.138 249.041 187.391Z" fill="#88391E"/>
</g>
<path d="M90.626 103.357C90.626 103.357 89.1605 116.973 110.703 118.144L124.917 117.851L125.504 118.144L141.33 114.923C141.477 114.923 97.6601 116.826 90.626 103.357Z" fill="#A85224"/>
<path d="M117.59 78.0303C117.59 78.0303 147.485 86.6679 156.864 96.3303C169.027 108.921 173.57 122.682 186.613 145.521C199.655 168.506 215.775 172.751 236.877 164.407L239.808 168.067C239.808 168.067 219.292 190.466 194.966 165.724C174.01 144.496 170.2 111.41 152.028 95.7447C144.994 89.4495 124.917 79.9335 117.59 78.0303Z" fill="#F3944D"/>
<path d="M142.503 114.631C142.503 114.631 138.253 145.961 151.296 148.01C151.296 148.01 154.959 148.742 155.545 143.765C155.545 143.765 156.425 160.308 166.976 167.189L168.295 161.479C168.295 161.479 174.743 174.362 208.888 180.95C208.888 180.95 178.699 174.948 168.588 158.697C168.588 158.697 165.364 162.65 165.51 164.553C165.51 164.553 155.985 155.037 156.278 139.665C156.278 139.665 153.494 149.767 149.244 145.082C145.287 140.397 142.356 133.956 142.503 114.631Z" fill="#EE8334"/>
<path d="M149.244 117.267C149.244 117.267 146.899 123.855 149.83 126.051C152.908 128.247 158.623 126.197 160.821 121.512C160.821 121.512 153.054 127.222 150.709 123.855C148.511 120.048 149.244 117.267 149.244 117.267Z" fill="#EE8334"/>
<path opacity="0.6" d="M137.081 149.328C137.081 149.328 134.736 155.916 137.667 158.112C140.744 160.308 146.459 158.259 148.658 153.574C148.658 153.574 140.891 159.283 138.546 155.916C136.348 152.11 137.081 149.328 137.081 149.328Z" fill="#88391E"/>
<path opacity="0.6" d="M150.856 163.821C150.856 163.821 148.511 170.409 151.442 172.605C154.519 174.801 160.235 172.752 162.433 168.067C162.433 168.067 154.666 173.777 152.321 170.409C150.123 166.603 150.856 163.821 150.856 163.821Z" fill="#88391E"/>
<path opacity="0.6" d="M197.897 197.493C197.897 197.493 195.552 204.081 198.483 206.277C201.56 208.473 207.275 206.424 209.474 201.739C209.474 201.739 201.707 207.448 199.362 204.081C197.017 200.275 197.897 197.493 197.897 197.493Z" fill="#88391E"/>
<path opacity="0.6" d="M209.913 205.106C209.913 205.106 207.569 211.694 210.5 213.89C213.577 216.086 219.292 214.037 221.49 209.352C221.49 209.352 213.723 215.062 211.379 211.694C209.181 207.888 209.913 205.106 209.913 205.106Z" fill="#88391E"/>
<path d="M158.623 127.661C158.623 127.661 155.252 131.907 159.355 135.713C163.459 139.666 170.786 137.031 171.226 136.738C171.226 136.738 162.873 137.47 160.674 134.249C158.476 130.882 158.623 127.661 158.623 127.661Z" fill="#EE8334"/>
<path d="M149.097 126.782C149.097 126.782 146.02 131.76 150.123 136.152C154.226 140.544 159.209 135.859 159.209 135.859C159.209 135.859 153.2 138.494 151.295 134.688C149.39 130.735 148.218 128.393 149.097 126.782Z" fill="#EE8334"/>
<path d="M171.958 146.985C171.958 146.985 168.148 150.938 172.105 155.33C176.062 159.722 185.587 158.99 185.587 158.99C185.587 158.99 178.113 158.551 174.303 154.305C170.346 149.913 171.958 146.985 171.958 146.985Z" fill="#EE8334"/>
<path d="M147.192 167.921C147.192 167.921 141.184 191.052 141.477 193.102C141.477 193.102 125.943 187.099 125.357 174.07C125.357 174.07 129.753 186.66 140.011 191.052C139.865 190.906 144.408 172.752 147.192 167.921Z" fill="#D7762E"/>
<path d="M133.417 145.521C133.417 145.521 124.185 164.846 115.245 163.236C106.306 161.626 102.496 147.278 102.496 147.278C102.496 147.278 109.384 162.943 115.392 161.918C121.4 160.894 132.538 146.546 133.417 145.521Z" fill="#D7762E"/>
<path d="M166.829 180.95C166.829 180.95 164.338 196.029 168.734 206.57C168.734 206.57 153.933 204.521 148.658 191.637C148.658 191.637 154.373 201.3 166.097 205.106C166.097 205.106 163.605 187.099 166.829 180.95Z" fill="#D7762E"/>
<path d="M182.07 222.382L197.31 226.481L195.405 219.015L195.552 224.431L182.07 222.382Z" fill="#D7762E"/>
<path d="M228.524 217.258C228.524 217.258 215.922 231.898 214.749 232.483C214.749 232.483 208.741 232.776 204.345 228.97C204.345 228.97 212.405 232.776 214.603 230.873C219.878 226.774 228.524 217.258 228.524 217.258Z" fill="#D7762E"/>
<path d="M204.198 228.97C204.198 228.97 188.225 217.55 187.932 192.077C188.078 191.93 185.147 217.697 204.198 228.97Z" fill="#5D1023"/>
<path d="M168.881 173.045C168.881 173.045 158.33 201.447 182.07 222.382C182.07 222.382 164.338 202.179 168.881 173.045Z" fill="#5D1023"/>
<path d="M147.925 161.626C147.925 161.626 133.71 200.276 168.734 206.717C168.734 206.717 149.537 201.74 147.632 185.343C146.02 170.703 147.925 161.626 147.925 161.626Z" fill="#5D1023"/>
<path d="M133.124 145.521C133.124 145.521 119.935 167.189 125.357 178.022C130.779 188.71 141.477 193.102 141.477 193.102C141.477 193.102 127.409 184.025 126.676 174.362C126.09 164.554 132.684 146.107 133.124 145.521Z" fill="#5D1023"/>
<path d="M132.245 134.103C132.245 134.103 119.349 142.008 102.643 147.279C102.643 147.279 105.28 154.891 108.065 156.795C108.065 156.795 104.694 149.621 105.427 148.303C105.427 148.45 127.848 140.105 132.245 134.103Z" fill="#5D1023"/>
<path d="M93.5569 121.512C93.5569 121.512 120.814 119.316 125.064 117.998C125.064 117.998 102.936 122.683 96.0481 122.829C96.0481 122.829 96.4878 138.933 120.375 137.03C120.521 136.884 100.298 144.643 93.5569 121.512Z" fill="#5D1023"/>
<path d="M95.3155 80.5195C95.3155 80.5195 91.2123 86.522 91.3588 90.6212C91.7984 97.6484 108.211 110.824 135.322 101.455C135.322 101.455 104.548 102.919 99.4188 91.7924C99.4188 91.7924 97.6602 88.4252 100.298 84.0331L95.3155 80.5195Z" fill="#88391E"/>
<path d="M99.2722 63.8301C99.2722 63.8301 94.1431 68.3685 94.1431 71.7357C94.1431 74.9565 92.9707 83.3013 114.806 89.3038C128.141 92.9638 138.106 91.7926 138.106 91.7926C138.106 91.7926 105.72 84.1797 99.7118 75.9813C97.3671 72.6141 97.5136 66.9045 99.2722 63.8301Z" fill="#88391E"/>
<path d="M108.504 388.84C79.6351 388.401 50.9124 386.936 22.0431 389.718C16.4744 390.304 9.87989 389.425 4.60429 391.328C-5.65383 395.135 3.72502 396.16 8.70754 395.574C18.526 394.403 28.9307 394.988 38.8957 394.842C58.9723 394.403 79.1955 393.964 99.2721 394.549C134.15 395.428 174.156 396.453 208.301 392.353C210.939 392.061 213.43 391.768 215.629 390.596C211.672 383.569 199.948 385.765 193.207 385.765C178.26 385.765 163.898 387.668 149.39 388.547C135.908 389.132 122.28 389.133 108.504 388.84Z" fill="#D4C0BB"/>
<path d="M273.367 390.45C272.928 392.06 273.367 393.524 275.272 394.403C280.108 396.745 297.987 393.964 304.288 393.671C322.166 392.792 341.51 392.353 358.216 388.986C361.734 388.254 373.897 385.472 373.75 382.984C373.604 379.616 346.933 377.42 341.803 377.274C319.675 376.103 299.012 375.956 280.401 383.569C277.47 384.594 274.1 387.668 273.367 390.45Z" fill="#D4C0BB"/>
<path d="M359.535 56.2181C359.535 56.2181 373.604 58.8533 374.19 84.1806C374.19 84.1806 370.233 78.1782 367.156 75.3966C367.156 75.3966 374.776 90.6222 370.233 109.654C370.233 109.654 369.354 104.53 366.862 98.9671C366.862 98.9671 369.793 110.972 358.07 131.322L360.708 133.078C360.708 133.078 368.768 118.292 368.035 109.947C368.035 109.947 371.845 115.51 371.698 117.267C371.698 117.267 377.853 95.5998 372.431 85.4982L376.241 90.183C376.241 90.183 377.56 60.3173 361.44 53.4365L359.535 56.2181Z" fill="#5D1023"/>
<path d="M245.67 9.07683L238.636 57.5354C238.636 57.5354 249.627 69.2474 306.486 64.2698C363.345 59.2922 353.234 51.8258 353.234 51.8258L336.674 4.53841L313.52 0H278.936L245.67 9.07683Z" fill="#5D1023"/>
<path d="M240.248 57.8284L247.429 10.3946L277.763 2.0498L274.686 61.7812C274.686 61.7812 245.817 59.146 240.248 57.8284Z" fill="#E84610"/>
<path d="M280.255 1.61035L277.324 61.9273C277.324 61.9273 298.719 65.0017 318.356 59.1457L314.693 2.04955L280.255 1.61035Z" fill="#EC661D"/>
<path d="M317.184 2.3418L321.434 58.9988C321.434 58.9988 345.174 52.4107 350.303 49.6291L335.062 5.70901L317.184 2.3418Z" fill="#F07F2B"/>
<path d="M238.929 46.8485C238.929 46.8485 227.938 32.3549 229.55 4.09961C229.55 4.09961 221.197 9.95563 222.663 21.9605C222.663 21.9605 222.37 22.9853 219.732 17.2756C219.732 17.2756 208.887 38.2109 224.568 58.9998C224.568 58.9998 198.336 74.9574 204.784 96.3319C204.784 96.3319 208.301 92.5255 214.603 92.0863C214.603 92.0863 206.982 106.287 219.292 124.148C219.292 124.148 222.663 117.853 225.447 115.657C225.447 115.657 217.68 134.103 238.636 149.622C238.636 149.622 284.065 179.634 321.287 164.262C321.287 164.262 348.251 156.063 359.535 131.029C359.535 131.029 369.354 114.778 366.716 98.8207C366.716 98.8207 369.94 106.287 370.086 109.508C370.086 109.508 374.922 91.3543 367.009 75.2502C367.009 75.2502 372.578 81.399 374.043 84.0342C374.043 84.0342 374.483 60.0246 359.828 55.4862C359.828 55.4862 381.077 27.3773 361.587 4.68521C361.587 4.68521 362.906 48.4589 327.295 58.2678C298.426 66.4662 251.678 65.8806 238.929 46.8485Z" fill="#D7762E"/>
<path d="M353.967 60.7559C353.967 60.7559 367.156 62.5127 372.578 79.4951C372.578 79.4951 368.181 69.2471 361.001 66.1727C361.001 66.1727 372.871 85.4975 370.673 106.14C370.673 106.14 367.742 73.4927 353.967 60.7559Z" fill="#F9B656"/>
<path opacity="0.6" d="M218.852 89.0116C218.852 89.0116 223.249 86.23 227.059 85.3516C227.059 85.3516 214.603 106.58 219.439 121.805C219.292 121.805 208.301 108.19 218.852 89.0116Z" fill="#C84F17"/>
<path d="M248.015 71.0039C248.015 71.0039 219.585 92.8176 245.817 117.706C245.817 117.706 224.861 95.7456 248.015 71.0039Z" fill="#5D1023"/>
<path d="M296.375 120.781C296.375 120.781 305.314 135.714 306.633 142.887C306.633 142.887 316.451 126.637 317.477 120.342L296.375 120.781Z" fill="#C84F17"/>
<path d="M239.662 47.7262C239.662 47.7262 247.282 61.9271 275.712 66.3191C298.28 69.8327 304.728 87.2543 304.728 87.2543C304.728 87.2543 308.098 70.5647 326.856 62.8055C345.614 55.0462 356.018 42.163 357.484 28.4014C357.484 28.4014 349.717 59.8775 300.624 62.0735C253.584 64.1231 246.696 54.4606 239.662 47.7262Z" fill="#5D1023"/>
<path d="M361.587 4.83105C361.587 4.83105 365.837 30.3047 358.216 41.4312C358.216 41.4312 364.664 37.4784 365.397 34.9895C365.397 34.9895 361.001 54.4608 354.553 58.7064C354.553 58.7064 363.052 57.2424 368.328 37.3319C373.897 17.4215 361.587 4.83105 361.587 4.83105Z" fill="#C84F17"/>
<path d="M229.55 4.09961C229.55 4.09961 221.49 9.37002 222.663 21.9605C222.663 21.9605 220.611 20.4965 219.732 17.2756C219.732 17.2756 209.18 38.2109 224.568 58.9998C224.568 58.9998 228.671 58.9998 230.283 58.5606C230.283 58.5606 215.042 41.1389 220.464 22.8389C220.464 22.8389 222.516 24.3029 224.861 23.8637C224.861 24.0101 224.421 8.34522 229.55 4.09961Z" fill="#5D1023"/>
<path d="M224.421 58.9997C224.421 58.9997 198.19 74.5181 204.638 96.3318C204.638 96.3318 209.767 92.6718 214.456 92.0862C214.456 92.0862 206.396 106.873 219.146 124.148C219.146 124.148 221.197 119.317 225.3 115.657C225.3 115.657 222.37 121.513 228.231 129.711C228.231 129.711 224.128 123.269 227.938 113.168C227.938 113.168 222.663 112.582 218.999 121.513C218.999 121.513 208.301 108.044 218.413 88.8654C218.413 88.8654 208.887 89.8902 205.37 92.9646C205.37 92.9646 208.741 68.6621 229.843 58.4141L224.421 58.9997Z" fill="#5D1023"/>
<path d="M361.587 4.83105C361.587 4.83105 365.983 30.1583 358.216 41.4312C358.216 41.4312 363.785 38.2104 365.397 34.9895C365.397 34.9895 361.733 53.1432 354.553 58.7064C354.553 58.7064 361.147 51.0936 362.613 40.1136C362.613 40.1136 358.509 43.188 355.432 43.7736C355.579 43.7736 364.371 31.6223 361.587 4.83105Z" fill="#F9B656"/>
<path d="M304.581 87.4014C304.581 87.4014 304.874 73.2006 326.709 62.9525C348.544 52.5581 353.967 41.5781 357.191 29.5732C357.191 29.5732 360.561 47.8733 335.355 61.0493C309.417 74.6646 310.003 78.0318 304.581 87.4014Z" fill="#F9B656"/>
<path d="M240.395 48.751C240.395 48.751 241.274 49.6294 242.886 50.947C243.619 51.5326 244.791 52.411 245.963 53.143C247.136 54.0214 248.454 54.8998 250.066 55.7782C250.799 56.2174 251.678 56.6566 252.558 57.0958C252.997 57.3886 253.437 57.535 253.877 57.8278C254.316 58.1206 254.756 58.267 255.196 58.4134C256.075 58.8526 257.101 59.2918 258.126 59.731C259.152 60.1702 260.031 60.463 261.204 60.9022C262.23 61.3414 263.255 61.6342 264.428 61.927C265.014 62.0734 265.454 62.2198 266.04 62.3662C266.626 62.5126 267.212 62.659 267.652 62.8054C269.85 63.391 272.341 63.9766 274.686 64.4158C277.031 65.0014 279.375 65.587 281.72 66.1726C284.065 66.7582 286.263 67.783 288.461 68.6614C290.659 69.6862 292.564 71.0038 294.323 72.175C296.081 73.639 297.4 74.9567 298.573 76.5671C299.159 77.2991 299.745 78.0311 300.185 78.6167C300.624 79.3487 301.064 79.9343 301.504 80.6663C302.236 81.9839 302.823 83.0087 303.409 84.0335C304.288 85.9367 304.874 87.1079 304.874 87.1079C304.874 87.1079 304.141 86.0831 302.969 84.4727C302.383 83.5943 301.504 82.5695 300.624 81.5447C299.745 80.3735 298.573 79.2023 297.4 77.8847C296.081 76.7135 294.763 75.3959 293.004 74.3711C291.392 73.3462 289.487 72.3214 287.435 71.443C286.849 71.2966 286.41 71.0038 285.97 70.8574C285.384 70.711 284.944 70.5646 284.358 70.2718C283.332 69.979 282.16 69.5398 280.987 69.247C278.789 68.6614 276.298 68.0758 273.953 67.4902C271.609 66.9046 269.264 66.319 266.919 65.7334C264.574 65.1478 262.23 64.2694 260.178 63.391C259.152 62.9518 257.98 62.5126 257.101 61.927C256.075 61.4878 255.196 60.9022 254.17 60.3166C253.73 60.0238 253.29 59.731 252.851 59.5846C252.411 59.2918 251.972 58.999 251.532 58.7062C250.653 58.1206 249.92 57.535 249.187 57.0958C248.454 56.6566 247.722 55.9246 247.136 55.4854C246.549 54.8998 245.963 54.3142 245.377 53.875C244.351 52.8502 243.472 51.8254 242.739 51.0934C242.007 50.215 241.567 49.6294 241.127 49.1902C240.541 49.0438 240.395 48.751 240.395 48.751Z" fill="#C84F17"/>
<path d="M230.283 58.5605C230.283 58.5605 238.05 68.6622 243.619 69.5406C243.619 69.5406 224.568 67.491 205.81 93.111C205.81 93.111 208.448 68.8086 230.283 58.5605Z" fill="#C84F17"/>
<path d="M236.438 116.974C236.438 116.974 241.567 133.663 254.756 143.911C254.756 143.911 287.142 166.164 298.866 149.914C298.866 149.914 268.385 149.621 261.79 137.03C261.79 137.03 261.79 140.398 263.842 143.619C263.842 143.619 249.334 135.127 246.11 123.708C246.11 123.708 246.256 131.028 254.609 140.251C254.609 140.105 245.377 137.03 236.438 116.974Z" fill="#C84F17"/>
<path d="M291.685 152.695C291.685 152.695 307.659 150.499 311.762 132.346C311.762 132.346 313.667 141.569 311.469 146.107C311.469 146.107 320.994 141.715 322.606 132.638C322.606 132.638 323.339 140.544 317.624 145.375C317.624 145.375 336.381 141.569 343.122 132.785C343.122 132.785 340.924 137.909 334.33 142.447C327.735 147.132 295.935 154.599 291.685 152.695Z" fill="#C84F17"/>
<path d="M298.719 99.9911C298.719 99.9911 302.09 116.095 269.117 117.12C247.722 117.852 246.403 101.748 246.403 101.748C245.963 87.4007 257.247 75.2495 271.755 74.8103C286.263 74.3711 298.28 85.6439 298.719 99.9911Z" fill="#CC5F22"/>
<path d="M297.987 105.555C297.987 105.555 286.849 101.749 277.47 101.749C262.523 101.602 248.308 107.166 248.308 107.166C243.619 90.476 258.126 75.3967 271.902 74.9575C285.53 74.3719 300.917 86.0839 297.987 105.555Z" fill="#68311C"/>
<path d="M297.987 105.555C297.987 105.555 291.099 97.9419 272.488 99.2595C254.902 100.577 248.308 106.872 248.308 106.872C247.868 93.5499 256.368 81.2523 271.902 80.0811C292.711 78.6171 297.694 92.2323 297.987 105.555Z" fill="white"/>
<path d="M270.436 92.9646C271.022 95.4534 270.729 97.9422 269.557 99.9918L255.635 103.945C253.29 102.627 251.678 100.431 250.946 97.6494C249.627 92.379 252.997 86.9622 258.273 85.6446C263.695 84.327 269.117 87.6942 270.436 92.9646Z" fill="#020203"/>
<path d="M262.083 94.1349C262.23 95.0134 261.643 96.0382 260.764 96.331C259.885 96.4774 258.859 96.0382 258.566 95.0133C258.42 94.1349 258.859 93.1101 259.885 92.8173C260.764 92.6709 261.79 93.2565 262.083 94.1349Z" fill="white"/>
<path d="M311.908 99.8449C311.908 99.8449 308.538 115.803 341.364 117.267C362.613 118.145 364.078 102.041 364.078 102.041C364.664 87.6937 353.527 75.396 339.019 74.8104C324.804 74.3712 312.494 85.4977 311.908 99.8449Z" fill="#CC5F22"/>
<path d="M312.641 105.408C312.641 105.408 324.804 101.894 333.743 101.748C350.156 101.455 362.32 107.311 362.32 107.311C367.302 90.6216 352.794 75.396 339.166 74.9568C325.537 74.3712 310.003 85.9368 312.641 105.408Z" fill="#68311C"/>
<path d="M312.641 105.409C312.641 105.409 319.675 97.7959 338.14 99.4063C355.725 100.87 362.32 107.312 362.32 107.312C362.906 93.9895 356.604 80.9599 339.166 80.2279C320.701 79.6423 313.081 92.0863 312.641 105.409Z" fill="white"/>
<path d="M316.012 98.0888C316.744 100.431 318.356 102.334 320.408 103.652L334.33 99.6992C335.502 97.3567 335.942 94.5751 335.062 91.9399C333.45 86.6695 327.735 83.8879 322.46 85.4983C317.184 87.2551 314.253 92.8183 316.012 98.0888Z" fill="#020203"/>
<path d="M323.485 95.1608C323.778 96.0392 324.804 96.6248 325.83 96.332C326.856 96.0392 327.295 95.0144 327.002 93.9896C326.709 93.1112 325.683 92.5256 324.658 92.8184C323.778 93.2576 323.192 94.2824 323.485 95.1608Z" fill="white"/>
<path d="M321.58 58.8524L317.184 2.3418L335.062 5.70901L319.675 5.26981L321.58 58.8524Z" fill="#F9B656"/>
<path d="M277.324 61.7809L280.401 1.61035L314.839 2.04955L283.186 4.53836L277.324 62.0737" fill="#F9B656"/>
<path d="M277.763 2.0498L247.429 10.3946L241.42 49.9227L250.653 13.3226L277.763 2.0498Z" fill="#C73517"/>
<path d="M293.883 120.634C293.883 120.634 304.581 137.763 306.486 146.254C306.486 146.254 317.477 126.929 318.356 119.316L293.883 120.634Z" fill="#C75017"/>
<path d="M306.633 107.165C314.986 105.994 318.21 117.999 318.356 119.317C318.503 120.634 306.779 139.959 306.779 139.959C306.779 139.959 300.771 126.49 293.737 120.781C293.883 120.634 293.737 109.215 306.633 107.165Z" fill="#F6E822"/>
<path d="M322.753 111.997C322.753 111.997 321.287 121.659 327.735 123.123C327.735 123.123 323.485 119.317 322.753 111.997Z" fill="#5D1224"/>
<path d="M293.151 112.144C293.151 112.144 292.858 121.22 283.039 124.295C282.892 124.295 290.22 119.61 293.151 112.144Z" fill="#5D1224"/>
<path d="M307.512 125.905L306.633 107.166C306.633 107.166 295.935 107.312 293.883 119.756L307.512 125.905Z" fill="#F19808"/>
<path d="M308.245 128.54L306.779 139.52C306.779 139.52 300.624 126.052 293.883 120.635C294.03 120.635 303.409 121.806 308.245 128.54Z" fill="#F19808"/>
<path d="M290.073 118.585C290.073 118.585 301.504 128.833 307.805 129.419C312.934 130.004 315.132 126.637 323.778 118.292L323.339 116.828C323.339 116.828 316.891 122.831 307.952 122.831C298.28 122.977 290.953 117.121 290.953 117.121L290.073 118.585Z" fill="#5D1224"/>
<path d="M320.554 137.616C319.822 137.177 319.089 136.738 318.503 136.592C318.503 136.445 319.236 136.884 320.554 137.616Z" fill="#F2934F"/>
<path d="M383.129 194.42C383.129 194.42 387.086 219.161 381.517 228.385C377.853 234.387 365.25 258.543 364.957 276.843L360.268 278.6C360.268 278.6 355.139 258.836 370.819 234.533C386.499 210.085 375.509 187.246 375.509 187.246L383.129 194.42Z" fill="#5D1224"/>
<path d="M403.645 237.755C403.645 237.755 404.964 312.419 399.542 337.453C399.542 337.453 393.534 338.478 385.62 339.503C385.62 339.503 401.154 241.854 399.395 221.943L403.645 237.755Z" fill="#E62E51"/>
<path d="M396.465 263.228C396.465 263.228 387.672 326.619 385.767 339.502L399.688 337.453L388.405 336.574L396.465 263.228Z" fill="#ED6F8C"/>
<path d="M412.584 183C412.584 183 400.568 152.549 373.603 142.887C373.603 142.887 365.837 184.025 376.241 196.323C381.956 203.204 399.835 188.564 412.584 183Z" fill="#853814"/>
<path d="M373.604 142.887C373.604 142.887 397.783 140.691 412.584 183C412.584 183 395.732 146.693 374.776 146.107L373.604 142.887Z" fill="#742E17"/>
<path d="M403.206 175.388C403.206 175.388 400.714 178.316 397.051 175.973C393.387 173.631 395.439 169.971 395.439 169.971C395.439 169.971 396.025 174.216 397.93 175.241C400.861 176.705 403.206 175.388 403.206 175.388Z" fill="#702D11"/>
<path d="M397.344 183.439C397.344 183.439 394.852 186.367 391.189 184.025C387.525 181.682 389.577 178.022 389.577 178.022C389.577 178.022 390.163 182.268 392.068 183.293C394.999 184.757 397.344 183.439 397.344 183.439Z" fill="#702D11"/>
<path d="M386.499 166.896C386.499 166.896 384.008 169.824 380.345 167.482C376.681 165.14 378.733 161.479 378.733 161.479C378.733 161.479 379.319 165.725 381.224 166.75C384.155 168.214 386.499 166.896 386.499 166.896Z" fill="#702D11"/>
<path d="M387.818 175.388C387.818 175.388 385.327 178.316 381.663 175.973C378 173.631 380.051 169.971 380.051 169.971C380.051 169.971 380.638 174.216 382.543 175.241C385.474 176.705 387.818 175.388 387.818 175.388Z" fill="#702D11"/>
<path d="M389.43 186.66C389.43 186.66 386.939 189.588 383.276 187.246C379.612 184.903 381.664 181.243 381.664 181.243C381.664 181.243 382.25 185.489 384.155 186.514C387.086 187.978 389.43 186.66 389.43 186.66Z" fill="#702D11"/>
<path d="M392.508 193.542C392.508 193.542 390.017 196.47 386.353 194.127C382.689 191.785 384.741 188.125 384.741 188.125C384.741 188.125 385.327 192.371 387.232 193.395C390.163 194.859 392.508 193.542 392.508 193.542Z" fill="#702D11"/>
<path d="M394.999 169.532C394.999 169.532 391.775 171.728 388.844 168.361C385.913 164.994 388.844 162.212 388.844 162.212C388.844 162.212 388.258 166.458 389.87 167.922C392.361 170.264 394.999 169.532 394.999 169.532Z" fill="#702D11"/>
<path d="M396.172 176.852C396.172 176.852 393.241 179.341 390.017 176.559C386.793 173.631 389.284 170.41 389.284 170.41C389.284 170.41 389.284 174.656 391.042 175.973C393.68 177.877 396.172 176.852 396.172 176.852Z" fill="#702D11"/>
<path d="M404.671 180.95C404.671 180.95 402.326 184.025 398.516 181.829C394.706 179.633 396.611 175.973 396.611 175.973C396.611 175.973 397.344 180.218 399.395 181.097C402.326 182.561 404.671 180.95 404.671 180.95Z" fill="#702D11"/>
<path d="M291.978 280.503L328.175 324.569C328.175 324.569 345.027 303.488 349.717 280.503C349.717 280.503 342.536 268.937 340.191 268.498C337.847 268.059 296.668 272.744 293.883 269.816C291.099 267.034 291.978 280.503 291.978 280.503Z" fill="#5D1224"/>
<path d="M314.986 282.406C314.986 282.406 323.925 302.463 326.856 321.495C326.856 321.495 300.624 287.53 293.737 278.6L294.616 273.769C294.763 273.622 314.399 281.089 314.986 282.406Z" fill="#AF4919"/>
<path d="M316.158 279.625C316.158 279.625 327.735 309.345 327.882 321.496C327.882 321.496 334.769 292.655 332.571 276.697L316.158 279.625Z" fill="#AF4919"/>
<path d="M334.183 275.233C334.183 275.233 334.769 305.245 328.614 321.056C328.614 321.056 340.924 307.295 349.424 277.868C349.424 277.868 343.562 271.573 340.631 272.012C337.553 272.305 334.183 275.233 334.183 275.233Z" fill="#D6742E"/>
<path d="M324.072 279.917C324.072 279.917 329.054 291.483 328.175 314.468C328.175 314.468 330.52 291.922 325.39 279.039L324.072 279.917Z" fill="#5D1224"/>
<path d="M316.158 284.31C316.158 284.31 312.934 293.826 313.227 299.096C313.227 299.096 314.546 291.63 317.037 285.774L316.158 284.31Z" fill="#5D1224"/>
<path d="M299.745 286.067L302.823 284.896L301.357 289.873L299.745 286.067Z" fill="#5D1224"/>
<path d="M319.382 293.532L318.942 307.147L320.847 296.314L319.382 293.532Z" fill="#5D1224"/>
<path d="M317.037 283.284C317.037 283.284 323.925 289.726 325.83 293.532C325.83 293.532 321.873 288.847 318.942 287.676L317.037 283.284Z" fill="#5D1224"/>
<path d="M321.434 296.461C321.434 296.461 325.83 299.389 327.002 305.245C327.002 305.245 325.537 300.853 321.873 299.096L321.434 296.461Z" fill="#5D1224"/>
<path d="M333.011 279.771C333.011 279.771 329.933 286.36 329.494 287.677L333.45 281.235L333.011 279.771Z" fill="#5D1224"/>
<path d="M333.011 291.629L329.64 298.071L333.011 293.532V291.629Z" fill="#5D1224"/>
<path d="M333.45 283.724C333.45 283.724 340.338 291.044 341.071 294.85C341.071 294.85 337.7 289.287 333.45 286.212V283.724Z" fill="#5D1224"/>
<path d="M333.011 297.485C333.011 297.485 335.209 303.634 335.942 307.88C335.942 307.88 334.916 304.22 332.278 298.949L333.011 297.485Z" fill="#5D1224"/>
<path d="M333.45 277.868C333.45 277.868 342.39 278.747 346.346 283.285C346.346 283.285 340.924 279.918 333.45 279.039V277.868Z" fill="#5D1224"/>
<path d="M294.763 275.379C294.763 275.379 308.245 281.089 323.192 279.186C338.14 277.282 341.217 274.208 341.217 274.208L342.536 275.379C342.536 275.379 333.157 284.895 311.908 281.235C295.642 278.454 294.03 277.429 294.03 277.429L294.763 275.379Z" fill="#5D1224"/>
<path d="M302.822 212.866V196.177C302.822 196.177 310.589 205.693 313.96 206.278C313.96 206.278 310.003 213.452 302.822 212.866Z" fill="#F29B53"/>
<path d="M356.165 174.509V156.502C356.165 156.502 363.492 167.628 366.569 168.214C366.423 168.068 364.078 176.266 356.165 174.509Z" fill="#F29B53"/>
<path d="M340.191 212.574V194.566C340.191 194.566 349.277 205.693 353.234 206.278C353.234 206.132 348.544 213.159 340.191 212.574Z" fill="#F6A35E"/>
<path d="M323.485 196.616V178.608C323.485 178.608 332.571 189.735 336.528 190.32C336.528 190.32 331.838 197.348 323.485 196.616Z" fill="#F29B53"/>
<path d="M289.927 196.176V178.169C289.927 178.169 299.012 189.295 302.969 189.881C302.823 189.881 298.133 196.762 289.927 196.176Z" fill="#F6A35E"/>
<path d="M320.115 226.774V208.767C320.115 208.767 329.201 219.893 333.157 220.479C333.157 220.479 328.468 227.506 320.115 226.774Z" fill="#F29B53"/>
<path d="M287.142 236.144V218.283C287.142 218.283 296.228 229.41 300.185 229.995C300.185 229.849 295.495 236.73 287.142 236.144Z" fill="#F29B53"/>
<path d="M267.359 217.99V200.129C267.359 200.129 276.444 211.255 280.401 211.841C280.401 211.841 276.737 220.625 267.359 217.99Z" fill="#F29B53"/>
<path d="M304.581 246.831V228.97C304.581 228.97 313.667 240.096 317.624 240.682C317.624 240.682 312.934 247.563 304.581 246.831Z" fill="#F29B53"/>
<path d="M335.795 248.441V230.58C335.795 230.58 344.881 241.707 348.837 242.292C348.837 242.292 344.148 249.173 335.795 248.441Z" fill="#F6A35E"/>
<path d="M317.037 262.788V245.952C317.037 245.952 324.218 256.054 328.175 256.493C328.175 256.493 324.365 263.081 317.037 262.788Z" fill="#F29B53"/>
<path d="M348.691 233.509V216.673C348.691 216.673 355.872 226.774 359.828 227.214C359.828 227.214 356.311 234.095 348.691 233.509Z" fill="#F29B53"/>
<path d="M351.182 273.036L367.302 308.758L313.227 351.068L309.124 349.604L351.475 308.465L345.174 271.865L351.182 273.036Z" fill="#5D1224"/>
<path d="M357.777 272.744L367.742 310.369L317.77 352.24L313.813 350.629L356.165 309.491L346.2 274.647L357.777 272.744Z" fill="#F4A75B"/>
<path d="M354.406 272.89L365.397 309.636L315.425 351.946L311.322 350.482L353.674 309.197L345.467 274.354L354.406 272.89Z" fill="#D46728"/>
<path d="M300.185 345.505C299.599 346.091 299.452 347.555 299.892 348.14C301.357 350.776 304.874 351.215 307.512 352.679C310.15 354.143 312.494 355.9 314.546 357.949C319.235 362.195 323.632 367.465 324.804 373.175C324.804 373.175 326.123 377.42 330.813 375.956C332.571 375.371 333.743 370.1 328.028 365.123C328.028 365.123 338.579 373.468 341.071 377.86C341.071 377.86 345.174 379.177 346.493 377.128C347.812 375.078 342.096 364.83 333.157 361.024C333.157 361.024 342.829 363.805 347.812 368.051C350.156 369.954 354.113 367.172 351.182 364.684C348.251 362.341 329.933 349.312 305.021 346.237C303.995 345.944 301.504 345.066 300.624 345.359C300.331 345.359 300.331 345.359 300.185 345.505Z" fill="#632731"/>
<path d="M333.011 360.878C333.011 360.878 327.442 357.95 322.899 355.754C322.899 355.754 335.649 361.464 338.286 362.928L333.011 360.878Z" fill="#632731"/>
<path d="M328.321 365.27C328.321 365.27 322.166 359.56 318.942 357.364C318.942 357.364 339.019 371.126 341.071 377.714C340.924 377.86 335.502 370.101 328.321 365.27Z" fill="#632731"/>
<path d="M333.304 354.143C333.304 354.143 331.399 356.192 332.131 357.803C332.131 357.803 332.718 355.753 334.183 354.582L333.304 354.143Z" fill="#632731"/>
<path d="M339.312 357.07C339.312 357.07 337.7 358.534 337.847 360.584C337.847 360.584 339.019 358.095 340.191 357.656L339.312 357.07Z" fill="#632731"/>
<path d="M344.734 360.146C344.734 360.146 342.829 361.463 342.976 362.927C342.976 362.927 344.295 360.877 345.613 360.585L344.734 360.146Z" fill="#632731"/>
<path d="M339.312 365.123C339.312 365.123 336.528 365.562 335.355 367.758C335.355 367.758 338.873 366.148 340.485 366.148L339.312 365.123Z" fill="#632731"/>
<path d="M344.148 370.54C344.148 370.54 341.657 371.272 340.631 373.175C340.631 373.175 342.976 371.858 345.027 371.858L344.148 370.54Z" fill="#632731"/>
<path d="M331.692 360.146C331.692 360.146 329.494 360.585 328.761 362.342C328.761 362.342 331.252 360.585 333.011 360.878L331.692 360.146Z" fill="#632731"/>
<path d="M331.985 371.418C331.985 371.418 328.468 370.101 326.416 370.979C326.416 370.979 327.882 369.661 331.692 370.686L331.985 371.418Z" fill="#632731"/>
<path d="M328.028 365.123C328.028 365.123 325.684 364.391 323.339 366.148C323.339 366.148 323.778 364.098 327.296 364.391L328.028 365.123Z" fill="#632731"/>
<path d="M325.537 362.634C325.537 362.634 322.459 361.756 321.287 362.781C321.287 362.781 322.313 361.463 324.951 362.195L325.537 362.634Z" fill="#632731"/>
<path d="M302.236 345.945C301.65 346.53 301.504 347.994 301.943 348.58C303.409 351.215 306.926 351.654 309.564 353.118C312.201 354.582 314.546 356.339 316.598 358.389C321.287 362.634 325.683 367.905 326.856 373.614C326.856 373.614 328.175 377.86 332.864 376.396C334.623 375.81 335.795 370.54 330.08 365.562C330.08 365.562 340.631 373.907 343.122 378.299C343.122 378.299 347.226 379.617 348.544 377.567C349.863 375.517 344.148 365.269 335.209 361.463C335.209 361.463 344.881 364.245 349.863 368.49C352.208 370.393 356.165 367.612 353.234 365.123C350.303 362.781 331.985 349.751 307.072 346.677C306.046 346.384 303.555 345.505 302.676 345.798C302.529 345.798 302.383 345.798 302.236 345.945Z" fill="#D46728"/>
<path d="M335.062 361.316C335.062 361.316 329.494 358.388 324.951 356.192C324.951 356.192 337.7 361.902 340.338 363.366L335.062 361.316Z" fill="#E74715"/>
<path d="M330.373 365.708C330.373 365.708 324.218 359.999 320.994 357.803C320.994 357.803 341.071 371.564 343.122 378.152C343.122 378.152 337.554 370.54 330.373 365.708Z" fill="#E74715"/>
<path d="M335.502 354.582C335.502 354.582 333.597 356.632 334.33 358.242C334.33 358.242 334.916 356.192 336.381 355.021L335.502 354.582Z" fill="#E74715"/>
<path d="M341.364 357.51C341.364 357.51 339.752 358.974 339.898 361.023C339.898 361.023 341.071 358.535 342.243 358.095L341.364 357.51Z" fill="#E74715"/>
<path d="M346.786 360.585C346.786 360.585 344.881 361.903 345.027 363.367C345.027 363.367 346.346 361.317 347.665 361.024L346.786 360.585Z" fill="#E74715"/>
<path d="M341.364 365.562C341.364 365.562 338.579 366.002 337.407 368.198C337.407 368.198 340.924 366.587 342.536 366.587L341.364 365.562Z" fill="#E74715"/>
<path d="M346.2 370.979C346.2 370.979 343.708 371.71 342.683 373.614C342.683 373.614 345.027 372.296 347.079 372.296L346.2 370.979Z" fill="#E74715"/>
<path d="M333.743 360.585C333.743 360.585 331.545 361.024 330.812 362.781C330.812 362.781 333.304 361.024 335.062 361.317L333.743 360.585Z" fill="#E74715"/>
<path d="M334.183 371.711C334.183 371.711 330.666 370.394 328.614 371.272C328.614 371.272 330.08 369.954 333.89 370.979L334.183 371.711Z" fill="#E74715"/>
<path d="M330.08 365.561C330.08 365.561 327.735 364.829 325.39 366.586C325.39 366.586 325.83 364.537 329.347 364.829L330.08 365.561Z" fill="#E74715"/>
<path d="M327.589 363.074C327.589 363.074 324.511 362.195 323.339 363.22C323.339 363.22 324.365 361.902 327.002 362.634L327.589 363.074Z" fill="#E74715"/>
<path d="M321.141 375.078C321.141 375.078 329.64 372.735 331.399 374.492C333.011 376.103 326.416 378.299 322.753 381.08L317.624 376.835L321.141 375.078Z" fill="#632731"/>
<path d="M321.287 374.052C321.287 374.052 329.787 371.71 331.545 373.467C333.157 375.077 326.563 377.273 322.899 380.055L317.77 375.809L321.287 374.052Z" fill="#D06127"/>
<path d="M320.554 377.712L299.892 288.262L291.685 286.358L310.443 375.955C310.443 375.955 289.34 379.03 288.022 385.032C287.582 387.375 290.22 389.571 295.056 389.717C297.4 389.863 299.012 390.303 302.529 388.546C302.529 388.546 302.823 393.231 309.564 393.377C314.839 393.523 315.865 390.595 315.865 390.595C315.865 390.595 319.382 393.524 324.511 391.767C326.563 391.035 327.589 388.839 326.416 385.325C325.537 384.3 320.554 377.712 320.554 377.712Z" fill="#632731"/>
<path d="M321.727 376.688L301.064 287.237L292.858 285.334L313.813 375.077C313.813 375.077 290.366 378.005 289.047 384.008C288.608 386.35 291.246 388.546 296.082 388.693C298.426 388.839 300.038 389.278 303.555 387.521C303.555 387.521 303.848 392.206 310.589 392.353C315.865 392.499 316.891 389.571 316.891 389.571C316.891 389.571 320.408 392.499 325.537 390.742C327.589 390.01 328.614 387.814 327.442 384.301C326.709 383.276 321.727 376.688 321.727 376.688Z" fill="#E57627"/>
<path d="M303.409 387.522C303.409 387.522 303.555 382.105 308.245 379.616C308.245 379.616 301.21 379.323 299.305 388.839C299.599 388.839 302.969 388.4 303.409 387.522Z" fill="#D06127"/>
<path d="M294.616 379.469C295.788 378.737 298.866 377.859 302.09 377.127C299.599 377.713 296.961 378.445 294.616 379.469Z" fill="#DE8D55"/>
<path d="M315.132 380.933C312.934 380.055 310.736 379.762 309.271 379.762C308.538 379.762 307.805 379.762 307.805 379.762C305.753 378.884 303.848 378.445 301.797 378.298C297.84 378.152 294.47 379.323 294.323 379.469C296.521 378.591 299.159 377.859 301.797 377.127C306.926 375.956 310.736 375.224 310.736 375.224L293.737 286.066L291.685 285.334L298.133 286.798L318.942 375.224C318.21 375.956 315.132 380.933 315.132 380.933Z" fill="#D46728"/>
<path d="M294.616 379.47C294.616 379.47 299.452 381.227 300.331 384.155C300.331 384.155 299.159 379.324 296.521 378.592H296.375L294.616 379.47Z" fill="#E64F29"/>
<path d="M300.331 377.566C300.331 377.566 302.529 378.884 302.969 381.665C302.969 381.665 302.823 378.298 301.943 376.98L300.331 377.566Z" fill="#E64F29"/>
<path d="M305.021 376.395C305.021 376.395 306.34 377.859 306.047 379.616C306.047 379.616 306.926 376.834 305.9 375.956L305.021 376.395Z" fill="#E64F29"/>
<path d="M318.063 382.984C318.063 382.984 320.408 379.177 324.658 379.616L325.244 380.202C325.244 380.202 322.46 380.202 318.063 382.984Z" fill="#E64F29"/>
<path d="M326.563 382.251C326.563 382.251 320.261 382.983 318.942 385.179C318.942 385.179 324.511 382.983 327.002 383.276L326.563 382.251Z" fill="#E64F29"/>
<path d="M322.313 377.273C322.313 377.273 318.942 377.42 317.477 379.323C317.477 379.323 321.58 378.005 323.485 378.298L322.313 377.273Z" fill="#E64F29"/>
<path d="M306.486 382.691C306.486 382.691 313.667 379.909 317.33 384.887C317.184 384.887 312.055 381.666 306.486 382.691Z" fill="#E64F29"/>
<path d="M305.9 380.934C305.9 380.934 312.494 376.981 316.744 382.544C316.744 382.544 311.615 380.056 305.9 380.934Z" fill="#E64F29"/>
<path d="M305.167 385.618C305.167 385.618 312.788 382.251 317.184 387.082C317.184 387.082 311.176 384.008 305.167 385.618Z" fill="#E64F29"/>
<path d="M305.167 298.071L297.987 297.778L304.581 299.389L305.167 298.071Z" fill="#E64F29"/>
<path d="M306.926 307.879L298.866 307.001L306.047 309.929L306.926 307.879Z" fill="#E64F29"/>
<path d="M309.71 322.52L302.383 323.544L309.124 324.862L309.71 322.52Z" fill="#E64F29"/>
<path d="M312.495 338.478L306.779 339.063L312.788 339.502L312.495 338.478Z" fill="#E64F29"/>
<path d="M322.753 376.395L302.383 287.823L301.064 287.237L320.554 376.834C320.701 376.834 322.459 376.395 322.753 376.395Z" fill="#F4A75B"/>
<path d="M322.46 375.956C322.46 375.956 331.399 384.301 327.002 389.718C327.002 389.718 329.201 384.008 320.554 376.395L322.46 375.956Z" fill="#F4A75B"/>
<path d="M315.132 381.373C315.132 381.373 317.477 385.326 317.184 387.229C316.891 389.279 317.184 392.207 310.589 392.499C310.589 392.499 315.425 392.207 315.865 387.668C315.865 382.983 315.132 381.373 315.132 381.373Z" fill="#F4A75B"/>
<path d="M315.132 380.934C315.132 380.934 317.917 386.936 316.158 390.596C316.012 390.45 320.261 385.326 315.132 380.934Z" fill="#D06127"/>
<path d="M377.56 144.204C377.707 143.472 377.707 142.74 378 142.154C378.586 140.983 379.172 139.812 379.612 138.641C379.758 138.201 378.586 138.348 378.733 137.909C375.509 134.981 374.776 131.76 373.897 130.003C373.897 130.003 370.087 138.494 365.544 144.057C362.759 147.571 355.139 160.601 313.52 170.263C288.168 176.119 258.42 169.531 255.635 167.628C256.075 169.238 256.661 174.509 256.368 174.362C249.92 171.141 245.67 168.36 242.153 165.139C240.541 168.945 235.412 170.702 230.43 172.752C238.05 189.588 240.101 189.734 255.489 229.262C258.859 236.143 276.298 266.302 278.35 269.523C280.255 272.597 287.289 284.895 289.34 289.14C290.513 291.775 303.848 289.872 303.848 289.872C306.779 288.408 307.365 278.014 307.365 278.014C322.46 283.431 334.037 278.307 335.355 276.989C335.355 276.989 345.907 285.48 350.303 284.455C354.699 283.431 361.587 277.867 361.587 277.867C354.699 270.108 364.957 254.882 372.285 229.262C375.509 217.843 376.241 209.059 376.388 205.399C376.241 205.399 384.008 155.037 377.414 144.789C377.414 144.35 377.56 144.204 377.56 144.204Z" fill="#4E86C4"/>
<path d="M307.658 278.015C307.658 278.015 306.926 288.263 304.141 289.873V294.851C304.141 294.851 305.46 292.362 306.926 290.019C308.391 287.677 309.564 278.6 309.564 278.6L307.658 278.015Z" fill="#5D1224"/>
<path d="M335.649 276.989C335.649 276.989 345.174 284.602 349.863 284.456V284.602L348.838 286.505C348.838 286.505 339.166 282.552 335.209 278.746L335.649 276.989Z" fill="#5D1224"/>
<path d="M239.955 172.166C239.955 172.166 252.997 187.684 254.316 225.163L246.256 223.26C250.653 214.183 245.377 185.342 236.438 172.166H239.955Z" fill="#263262"/>
<path d="M377.121 207.01C377.121 207.01 373.897 174.363 380.931 146.84L378.586 146.254L374.629 150.939C374.629 150.939 367.742 194.42 376.095 210.231L377.121 207.01Z" fill="#263262"/>
<path d="M344.295 196.176C346.493 212.427 333.45 229.409 317.33 230.141C303.995 230.727 290.073 220.772 287.875 204.521C285.677 188.271 299.599 176.705 312.934 174.802C326.123 172.752 342.096 179.926 344.295 196.176Z" fill="#1E2342"/>
<path d="M346.053 195.884C348.251 212.135 335.209 229.117 319.089 229.849C305.753 230.435 291.832 220.48 289.633 204.229C287.435 187.979 301.357 176.413 314.693 174.51C327.735 172.46 343.708 179.634 346.053 195.884Z" fill="#F6E822"/>
<path d="M312.641 204.229C312.787 206.132 311.322 207.596 309.564 207.742C307.805 207.889 306.34 206.425 306.193 204.521C306.046 202.618 307.512 201.154 309.27 201.008C311.029 201.008 312.494 202.325 312.641 204.229Z" fill="#263262"/>
<path d="M329.054 203.35C329.2 205.253 327.735 206.717 325.976 206.863C324.218 207.01 322.752 205.546 322.606 203.643C322.459 201.739 323.925 200.275 325.683 200.129C327.588 200.129 329.054 201.593 329.054 203.35Z" fill="#263262"/>
<path fill-rule="evenodd" clip-rule="evenodd" d="M338.286 194.419L333.304 194.566L333.011 189.002V187.099L331.399 186.514H331.252C328.028 185.489 324.951 184.464 316.744 184.903C307.219 185.489 302.236 188.124 301.943 188.27L300.478 189.002V190.613L300.771 196.176L295.935 196.469L300.771 203.203C300.771 203.35 300.771 203.496 300.771 203.496C300.917 205.546 301.65 212.719 306.779 218.136C310.589 222.089 317.33 224.578 317.624 224.578L318.649 224.871L319.529 224.431C319.675 224.431 319.968 224.285 320.261 224.139C320.408 223.992 320.554 223.992 320.701 223.846C320.848 223.846 320.994 223.699 321.141 223.553C321.727 223.26 322.46 222.821 323.339 222.235C326.123 220.479 328.321 218.575 329.787 216.672C334.33 210.816 334.476 203.496 334.33 201.446C334.33 201.446 334.33 201.447 334.33 201.3V201.154L338.286 194.419ZM331.545 189.002L331.838 194.858L329.054 195.005V194.419L325.537 193.834C325.537 193.834 325.537 193.98 325.537 194.126C325.537 194.273 325.537 194.419 325.537 194.419C325.39 194.419 325.244 194.419 325.097 194.566C324.951 194.566 324.658 194.712 324.365 194.858L324.071 187.538C325.977 187.831 327.882 188.27 329.933 188.71C330.373 188.71 330.959 188.856 331.545 189.002ZM317.184 187.538H316.744C315.425 187.538 314.106 187.685 312.641 187.831H312.055L312.494 196.615C315.132 197.64 316.891 199.69 317.477 202.179C317.917 199.69 319.236 197.64 321.727 196.176L321.287 187.246C319.822 187.392 318.649 187.392 317.184 187.538ZM309.71 188.417L310.003 195.737L309.124 195.883V196.469C309.124 196.469 309.124 196.322 308.977 196.322C308.977 196.176 308.977 196.176 308.831 196.176C308.684 196.176 308.684 196.176 308.538 196.03C308.538 196.03 308.391 195.883 308.245 195.883L305.021 196.176L302.823 196.322L302.529 190.466C303.116 190.466 305.46 189.295 309.71 188.417ZM309.124 198.372C305.9 198.519 303.409 201.3 303.555 204.667C303.702 208.035 306.486 210.67 309.71 210.523C312.934 210.377 315.425 207.595 315.279 204.228C315.132 200.715 312.348 198.079 309.124 198.372ZM318.503 218.868C309.857 219.307 306.486 213.744 305.753 212.28C306.926 212.866 308.391 213.305 309.857 213.159C312.348 213.012 314.4 211.841 315.865 210.084L318.21 211.987L320.261 210.084C321.873 211.548 323.925 212.427 326.27 212.28C327.735 212.28 329.054 211.695 330.226 210.963C329.787 212.573 327.002 218.429 318.503 218.868ZM320.115 203.789C320.261 207.156 323.046 209.791 326.27 209.645C329.494 209.499 331.985 206.717 331.838 203.35C331.692 199.982 328.907 197.347 325.683 197.494C322.46 197.64 319.822 200.422 320.115 203.789Z" fill="#263262"/>
<path d="M289.487 289.141C289.487 289.141 289.487 291.776 297.254 291.191C305.021 290.459 305.167 289.58 305.607 288.116C305.46 288.116 292.271 291.337 289.487 289.141Z" fill="#1A2039"/>
<path d="M361.88 277.428L361.733 277.721C361.733 277.721 354.406 283.87 349.717 284.455C349.717 284.455 347.958 284.455 347.079 283.87C347.079 283.87 358.07 280.063 361.001 276.403L361.88 277.428Z" fill="#1A2039"/>
<path d="M369.354 234.534C364.078 237.023 358.656 239.072 353.234 240.683V229.995L351.182 224.139L348.691 216.966L343.708 229.995V243.171C336.967 244.635 330.373 245.514 323.925 246.099V244.928H306.486V246.685C303.848 246.685 301.357 246.539 299.012 246.392C299.012 245.953 299.012 245.66 299.159 245.367C299.892 240.975 301.064 232.045 301.064 231.899V231.459H300.917C300.771 231.167 300.331 230.874 299.745 230.727C299.745 229.995 297.254 229.263 294.469 229.263C291.539 229.263 289.194 229.995 289.194 230.727C288.608 231.02 288.168 231.313 288.021 231.459H287.582V231.899C287.582 232.045 289.047 239.365 289.34 245.514C286.263 245.221 283.332 244.782 280.548 244.343C280.548 244.05 280.548 243.904 280.401 243.757C280.401 243.757 280.401 243.611 280.255 243.611C279.962 243.318 279.229 242.879 278.203 242.586C278.496 241.854 278.936 240.097 279.375 239.219H279.522C279.668 239.219 279.668 239.219 279.668 239.072C279.668 238.926 279.668 238.926 279.668 238.779C279.375 238.047 277.91 236.876 275.712 236.144C273.807 235.559 272.048 235.119 271.315 235.119C271.022 235.119 270.876 235.119 270.729 235.266C270.729 235.266 270.729 235.266 270.729 235.412C270.876 235.998 271.462 239.365 271.462 241.268C271.315 241.268 271.169 241.268 271.022 241.268C269.996 241.268 269.41 241.415 269.264 241.854C269.264 241.854 269.117 242 268.971 242.147C262.376 240.683 258.566 239.511 258.566 239.511L264.428 250.052C261.35 251.663 257.98 254.444 256.954 259.568C255.635 266.742 257.54 273.623 267.798 276.258L270.29 276.697C280.841 277.722 284.944 272.012 286.116 264.839C286.703 261.179 285.677 258.104 284.211 255.762C285.677 256.055 287.142 256.201 288.754 256.494C288.608 258.397 288.461 260.447 288.461 262.35C288.168 269.963 288.168 270.109 288.315 270.256H288.461C288.461 270.256 291.832 270.988 294.763 270.988C296.668 270.988 297.987 270.695 298.866 270.256L299.012 270.109V269.963C299.012 269.816 298.719 263.668 298.719 257.372C301.21 257.519 303.702 257.665 306.34 257.665V259.715H323.778V257.08C331.252 256.348 337.993 255.323 343.562 254.152V265.571C343.562 266.01 344.881 266.449 346.786 266.596C347.225 266.596 347.812 266.596 348.398 266.596C348.984 266.596 349.424 266.596 350.01 266.596C351.915 266.449 353.234 266.01 353.234 265.571V251.809C360.561 249.76 364.664 247.856 364.664 247.856C366.862 243.171 369.354 234.534 369.354 234.534Z" fill="#5D1224"/>
<path d="M260.324 237.9C260.324 237.9 319.528 256.933 371.405 232.923C371.405 232.923 368.767 241.56 366.569 246.392C366.569 246.392 347.812 255.029 315.718 256.054C283.772 257.079 266.186 248.881 266.186 248.881L260.324 237.9Z" fill="#263262"/>
<path d="M325.83 243.317H308.391V258.104H325.83V243.317Z" fill="#FBBF3D"/>
<path d="M289.047 247.416C289.047 247.416 295.642 247.416 302.823 248.587L302.529 251.662C302.529 251.662 294.909 255.029 289.047 251.076V247.416Z" fill="#5D1224"/>
<path d="M289.487 230.142C289.487 230.142 291.685 241.854 291.245 248.295C290.806 254.883 290.073 268.059 290.366 268.352C290.366 268.352 297.693 270.109 300.771 268.352C300.771 268.352 300.038 248.002 300.771 243.464C301.504 239.072 302.676 229.995 302.676 229.995L289.487 230.142Z" fill="white"/>
<path fill-rule="evenodd" clip-rule="evenodd" d="M290.366 268.791C290.366 268.791 293.737 269.523 296.668 269.523C298.426 269.523 299.892 269.23 300.917 268.791L301.064 268.645V268.498C301.064 268.498 301.064 268.352 301.064 268.206C300.917 265.424 300.478 247.856 301.064 243.903C301.797 239.658 302.969 230.581 302.969 230.434V229.995H289.047V230.434C289.047 230.434 289.047 230.581 289.047 230.874C289.34 232.923 291.246 242.878 290.806 248.588C290.513 251.955 290.366 256.933 290.073 261.032C289.634 268.498 289.78 268.791 289.927 268.938L290.366 268.791ZM296.668 268.791C294.176 268.791 291.392 268.206 290.659 268.059C290.513 266.449 291.099 254.59 291.539 248.295C291.978 242.439 290.22 232.484 289.78 230.434H302.09C302.09 230.581 302.09 230.874 301.943 231.02C301.65 233.509 300.771 239.95 300.185 243.318C299.599 247.124 300.038 262.057 300.185 266.742C300.185 267.327 300.185 267.62 300.185 267.913C299.599 268.645 298.28 268.791 296.668 268.791Z" fill="#1E2F53"/>
<path d="M296.081 231.752C292.271 231.752 289.633 230.874 289.633 230.142C289.633 229.556 292.125 228.531 296.081 228.531C300.038 228.531 302.529 229.41 302.529 230.142C302.529 230.874 300.038 231.752 296.081 231.752Z" fill="white"/>
<path fill-rule="evenodd" clip-rule="evenodd" d="M289.34 230.141C289.34 229.117 292.418 228.238 296.082 228.238C299.745 228.238 302.823 228.97 302.823 230.141C302.823 231.166 299.745 232.045 296.082 232.045C292.418 232.045 289.34 231.313 289.34 230.141ZM302.236 230.141C301.943 229.702 299.892 228.97 296.228 228.97C292.564 228.97 290.513 229.702 290.22 230.141C290.513 230.581 292.564 231.313 296.228 231.313C299.892 231.313 301.943 230.581 302.236 230.141Z" fill="#1E2F53"/>
<path d="M296.081 230.141C292.857 230.141 290.952 229.409 290.952 228.97C290.952 228.531 292.711 227.799 296.081 227.799C299.305 227.799 301.211 228.531 301.211 228.97C301.211 229.409 299.452 230.141 296.081 230.141Z" fill="white"/>
<path fill-rule="evenodd" clip-rule="evenodd" d="M290.806 229.116C290.806 228.384 293.151 227.652 296.081 227.652C299.012 227.652 301.504 228.384 301.357 229.116C301.357 229.848 299.012 230.58 296.081 230.58C293.151 230.58 290.806 229.848 290.806 229.116ZM300.771 229.116C300.331 228.824 298.719 228.384 296.228 228.384C293.737 228.384 292.125 228.824 291.685 229.116C292.125 229.409 293.737 229.848 296.228 229.848C298.719 229.848 300.331 229.409 300.771 229.116Z" fill="#1E2F53"/>
<path d="M296.081 229.117C294.176 229.117 293.297 228.677 293.151 228.531C293.297 228.385 294.323 227.945 296.081 227.945C297.986 227.945 298.866 228.385 299.012 228.531C299.012 228.824 297.986 229.117 296.081 229.117Z" fill="white"/>
<path fill-rule="evenodd" clip-rule="evenodd" d="M292.858 228.531C292.858 227.945 294.323 227.652 296.228 227.652C298.133 227.652 299.599 228.092 299.599 228.531C299.599 229.116 298.133 229.409 296.228 229.409C294.323 229.409 292.858 229.116 292.858 228.531ZM298.28 228.531C297.84 228.384 297.107 228.238 296.082 228.238C295.056 228.238 294.323 228.384 293.883 228.531C294.323 228.677 295.056 228.824 296.082 228.824C297.107 228.824 297.84 228.677 298.28 228.531Z" fill="#1E2F53"/>
<path d="M293.004 229.116H290.952V231.312H293.004V229.116Z" fill="#1E2F53"/>
<path d="M302.969 229.116H300.917V231.312H302.969V229.116Z" fill="#1E2F53"/>
<path d="M301.21 228.531H299.159V230.727H301.21V228.531Z" fill="#1E2F53"/>
<path d="M294.763 228.531H292.711V230.727H294.763V228.531Z" fill="#1E2F53"/>
<path d="M295.349 232.044L295.788 234.972L296.814 232.044H295.349Z" fill="#1E2F53"/>
<path d="M291.392 268.644L291.832 265.862L292.271 268.79L291.392 268.644Z" fill="#1E2F53"/>
<path d="M296.668 269.231V264.253L297.986 269.231H296.668Z" fill="#1E2F53"/>
<path d="M295.495 250.345C292.857 250.345 291.392 249.466 291.245 249.32L291.539 248.734C291.539 248.734 294.763 250.638 300.331 248.734L300.624 249.32C298.573 250.052 296.814 250.345 295.495 250.345Z" fill="#1E2F53"/>
<path d="M289.047 247.709C289.047 247.709 293.444 252.101 302.969 248.88L302.529 252.394C302.529 252.394 295.495 255.761 289.487 251.955L289.047 247.709Z" fill="#5D1224"/>
<path d="M288.901 247.124C288.901 247.124 291.539 251.662 303.262 248.588L302.822 251.955C302.822 251.955 294.909 255.469 289.047 251.516L288.901 247.124Z" fill="#263262"/>
<path d="M269.703 246.245C269.703 246.245 268.091 251.076 283.039 250.198L283.332 247.27C283.332 247.27 276.298 245.806 271.022 244.781L269.703 246.245Z" fill="#5D1224"/>
<path d="M344.295 244.928C344.295 244.928 348.251 242.293 357.484 242.732V247.27C357.484 247.27 348.251 249.906 344.295 248.149V244.928Z" fill="#5D1224"/>
<path d="M345.614 228.238V263.96C345.614 264.399 346.932 264.838 348.838 264.985V228.531L345.614 228.238Z" fill="#A94C17"/>
<path d="M352.062 264.985C353.967 264.838 355.285 264.399 355.285 263.96V228.238L352.062 228.531V264.985Z" fill="#EA6A16"/>
<path d="M351.915 227.214H348.691V229.41H351.915V227.214Z" fill="#BE5717"/>
<path d="M351.915 264.985V228.531H348.691V264.985C349.131 264.985 349.717 264.985 350.303 264.985C350.889 265.131 351.475 265.131 351.915 264.985Z" fill="#BE5717"/>
<path d="M353.967 227.214H351.915V229.41H353.967V227.214Z" fill="#BE5717"/>
<path d="M345.614 228.238L350.596 215.208L355.285 228.238C355.285 228.238 355.139 228.823 354.553 229.262C353.967 229.555 353.087 228.677 352.208 229.116C350.743 229.702 349.57 228.823 348.838 228.823C348.105 228.823 347.958 229.116 347.079 229.116C346.2 229.116 345.614 228.238 345.614 228.238Z" fill="#E19522"/>
<path d="M350.596 215.208L347.812 222.382C347.812 222.382 348.984 223.114 350.303 223.114C351.622 223.114 353.234 222.382 353.234 222.382L350.596 215.208Z" fill="#0E1222"/>
<path d="M344.295 245.22C344.295 245.22 352.355 246.245 357.484 243.024V247.563C357.484 247.563 348.838 251.223 344.295 248.441V245.22Z" fill="#5D1224"/>
<path d="M343.415 244.488C343.415 244.488 353.234 245.513 358.216 242.146L357.484 247.562C357.484 247.562 348.251 250.198 344.295 248.441L343.415 244.488Z" fill="#263262"/>
<path d="M287.875 263.374C289.34 254.59 281.574 249.466 280.108 248.588C278.35 247.417 279.375 244.782 279.375 244.782L276.151 244.489L272.927 243.757C272.927 243.757 273.22 246.538 271.022 246.978C269.41 247.27 260.178 249.32 258.713 258.104C257.394 265.278 259.299 272.159 269.557 274.794L272.048 275.233C282.599 276.258 286.556 270.402 287.875 263.374Z" fill="#212C50"/>
<g opacity="0.8">
<path d="M287.289 263.228C288.754 254.737 281.28 249.906 279.815 249.027C278.056 247.856 278.936 244.782 278.936 244.782L273.22 243.757C273.22 243.757 273.66 246.831 271.169 247.417C269.703 247.856 260.911 249.613 259.299 258.104C258.126 264.985 259.885 271.427 269.703 274.062L272.048 274.501C282.16 275.526 286.116 269.962 287.289 263.228Z" fill="#FEFEFC"/>
</g>
<path d="M286.556 262.788C286.702 261.764 286.849 260.739 286.702 259.714L260.764 254.883C260.324 255.761 260.031 256.786 259.738 257.811C258.566 264.399 260.178 270.548 269.703 273.036L271.901 273.476C281.72 274.5 285.384 269.23 286.556 262.788Z" fill="#E53C1A"/>
<path d="M286.556 259.714C286.409 260.739 280.401 260.592 273.22 259.274C266.04 257.957 260.471 256.054 260.618 254.882C260.764 253.858 266.772 254.004 273.953 255.322C281.134 256.639 286.849 258.689 286.556 259.714Z" fill="#A32218"/>
<g opacity="0.5">
<path d="M276.298 250.637C276.298 250.637 281.72 256.493 281.28 263.081L282.892 263.374C282.892 263.374 284.651 255.615 277.617 249.905L276.298 250.637Z" fill="#FEFEFC"/>
</g>
<path d="M280.987 264.691L282.892 264.984C282.892 264.984 282.16 271.865 275.419 273.329C275.419 273.329 279.375 272.158 280.987 264.691Z" fill="#FEFEFC"/>
<path d="M271.169 240.39C271.169 240.39 270.729 240.975 270.583 242.293C270.583 243.61 273.953 244.196 276.151 244.635C278.35 245.074 281.427 245.367 281.72 243.61C282.013 242.293 281.72 242.293 281.72 242.293L271.169 240.39Z" fill="#6AC2C3"/>
<path fill-rule="evenodd" clip-rule="evenodd" d="M276.005 244.928C277.177 245.221 278.203 245.221 279.082 245.221C280.841 245.221 281.867 244.635 282.013 243.61C282.16 242.585 282.013 242.293 282.013 242L281.867 241.853L271.022 239.804L270.876 239.95C270.876 239.95 270.29 240.536 270.143 242C270.143 243.757 272.927 244.489 276.005 244.928ZM271.169 240.829L281.28 242.585C281.28 242.732 281.28 243.025 281.28 243.464C281.134 244.489 279.375 244.781 276.151 244.196C274.833 243.903 270.876 243.171 270.876 242.146C270.876 241.561 271.169 241.121 271.169 240.829Z" fill="#103A5F"/>
<path d="M281.573 242.439C281.573 242.878 279.082 242.878 276.151 242.292C273.22 241.707 271.022 240.975 271.022 240.389C271.169 239.95 273.513 239.95 276.444 240.536C279.375 240.975 281.72 241.853 281.573 242.439Z" fill="#6AC2C3"/>
<path fill-rule="evenodd" clip-rule="evenodd" d="M276.151 242.585C277.617 242.878 279.082 243.024 280.108 243.024C281.28 243.024 281.867 242.878 281.867 242.292C281.867 242.292 281.867 242 281.72 241.853C281.28 241.121 278.496 240.389 276.444 239.95C274.979 239.657 273.514 239.511 272.488 239.511C271.315 239.511 270.729 239.657 270.729 240.096C270.729 240.536 271.169 240.975 272.488 241.414C273.367 242 274.686 242.292 276.151 242.585ZM276.298 241.853C273.66 241.414 272.195 240.828 271.609 240.536C271.609 240.536 271.755 240.536 271.902 240.536C272.048 240.536 272.341 240.536 272.634 240.536C273.66 240.536 275.126 240.682 276.591 240.975C279.229 241.414 280.694 242 281.28 242.292C281.28 242.292 281.134 242.292 280.987 242.292C280.841 242.292 280.548 242.292 280.255 242.292C279.229 242.292 277.763 242.146 276.298 241.853Z" fill="#103A5F"/>
<path d="M276.591 241.56C275.126 241.268 273.66 240.828 273.221 240.536C273.367 238.925 272.781 235.558 272.488 234.387L280.987 237.168C280.255 238.34 279.668 240.536 279.375 241.268C279.082 241.414 278.203 241.853 276.738 241.56C276.884 241.56 276.738 241.56 276.591 241.56Z" fill="#FDC72D"/>
<path d="M279.229 236.583C279.229 236.583 277.324 238.486 277.031 241.414C277.031 241.414 279.082 241.56 279.522 241.121C279.522 241.121 280.548 237.461 281.134 237.168C281.134 237.168 279.668 236.436 279.229 236.583Z" fill="#FFDA6D"/>
<path d="M272.488 234.387C272.488 234.387 273.514 239.657 273.367 240.536C273.367 240.536 274.979 240.975 275.272 240.975C275.272 240.975 275.565 235.997 274.979 235.704C274.393 235.265 272.488 234.387 272.488 234.387Z" fill="#F6A61B"/>
<path fill-rule="evenodd" clip-rule="evenodd" d="M272.927 240.682C273.221 238.778 272.195 233.801 272.195 233.801L281.134 237.314C280.401 237.9 279.522 241.56 279.522 241.56C279.522 241.56 278.496 242.292 276.591 241.999C276.591 241.999 276.591 241.999 276.444 241.999H276.298C274.833 241.56 272.927 240.682 272.927 240.682ZM279.229 240.974C279.522 240.096 279.962 238.925 280.548 237.607L280.841 237.168C280.841 237.168 277.177 236.143 276.005 235.704C274.393 235.265 272.634 234.386 272.634 234.386C272.927 235.704 273.66 238.632 273.514 240.242C274.1 240.535 275.419 240.974 276.738 241.121C276.738 241.121 276.884 241.121 277.031 241.121C278.203 241.414 279.082 241.121 279.229 240.974Z" fill="#A32218"/>
<path d="M280.841 237.168C280.548 237.168 280.255 236.875 279.815 236.729C279.082 236.436 278.056 235.997 276.884 235.704C274.686 234.972 273.367 234.386 272.781 233.947C273.66 233.947 275.272 234.386 277.031 234.972C279.229 235.558 280.548 236.582 280.841 237.168Z" fill="#FDC72D"/>
<path fill-rule="evenodd" clip-rule="evenodd" d="M272.195 233.802C272.195 233.655 272.488 233.655 272.781 233.655C273.66 233.655 275.419 233.948 277.324 234.68C279.962 235.558 281.427 237.022 281.28 237.608C281.28 237.608 281.28 237.608 281.134 237.608C280.841 237.608 280.401 237.462 279.668 237.022C278.936 236.73 278.056 236.29 276.884 235.998C274.246 235.266 272.195 234.094 272.195 233.802ZM277.031 234.973C276.298 234.68 273.953 233.948 273.807 234.241C273.66 234.534 276.298 235.412 277.031 235.558C277.177 235.558 277.47 235.705 277.763 235.851C278.643 236.29 280.108 236.876 280.255 236.583C280.548 236.29 277.91 235.119 277.177 234.826C277.177 234.973 277.177 234.973 277.031 234.973Z" fill="#A32218"/>
<path d="M274.1 235.119L274.393 237.462L274.686 235.558L274.1 235.119Z" fill="#A32218"/>
<path d="M278.35 236.583C278.35 236.583 277.324 238.925 277.47 239.657C277.47 239.657 278.496 236.876 279.375 236.729L278.35 236.583Z" fill="#A32218"/>
<path d="M280.548 257.665L282.453 256.933L282.746 257.957L280.841 258.543L280.548 257.665Z" fill="#FEFEFC"/>
<path d="M273.66 242.585C273.66 242.585 278.056 243.903 281.134 243.463C281.134 243.463 277.177 244.635 273.66 242.585Z" fill="#FEFEFC"/>
<path d="M269.264 246.392C269.264 246.392 268.824 251.516 283.772 250.638L283.332 247.71C283.332 247.71 274.246 248.002 271.022 245.221L269.264 246.392Z" fill="#5D1224"/>
<path d="M269.264 246.099C269.264 246.099 268.824 251.223 283.772 250.345L283.332 247.417C283.332 247.417 274.246 247.709 271.022 244.928L269.264 246.099Z" fill="#263262"/>
<path fill-rule="evenodd" clip-rule="evenodd" d="M316.451 246.099C315.572 246.099 314.693 246.099 314.106 246.245L313.96 255.615H315.132V251.515H316.305C317.33 251.515 317.917 252.101 318.063 253.419C318.356 254.59 318.503 255.468 318.649 255.761H319.822C319.675 255.468 319.529 254.736 319.236 253.711C319.236 253.565 319.089 253.419 319.089 253.126C318.796 252.101 318.503 251.515 317.77 251.223C318.796 250.93 319.529 250.198 319.529 248.88C319.529 248.148 319.236 247.563 318.796 246.977C318.503 246.391 317.624 246.099 316.451 246.099ZM316.451 250.637H315.279L315.425 247.123C315.572 247.123 316.012 246.977 316.598 246.977C317.77 246.977 318.649 247.563 318.649 248.88C318.503 250.051 317.624 250.637 316.451 250.637Z" fill="#937130"/>
<path d="M233.653 172.166C233.653 172.166 249.041 204.081 243.912 222.967L248.308 223.992C248.308 223.992 251.532 210.816 246.403 194.858C241.42 178.9 236.438 172.312 236.438 172.312L233.653 172.166Z" fill="#4E86C4"/>
<path d="M378.879 148.742C378.879 148.742 372.431 191.93 377.121 207.01L378.879 205.106C378.879 205.106 375.509 173.484 382.543 149.621L378.879 148.742Z" fill="#4E86C4"/>
<path d="M380.051 204.814C380.051 204.814 379.172 166.457 383.129 148.157L379.905 147.132C379.905 147.132 373.75 183.439 378.586 206.717L380.051 204.814Z" fill="#4E86C4"/>
<path d="M381.37 147.132C381.37 147.132 374.629 187.393 379.465 207.742L378.586 210.963C378.586 210.963 372.578 189.442 378.879 146.547L381.37 147.132Z" fill="#263262"/>
<path d="M317.77 167.921C317.77 167.921 348.691 171.435 379.612 147.279C379.612 147.279 384.155 143.912 374.776 129.564C374.776 129.564 368.621 145.961 353.527 155.185C338.579 164.261 317.77 167.921 317.77 167.921Z" fill="#5D1224"/>
<path d="M302.236 172.752C302.236 172.752 348.398 169.239 379.319 145.522C379.319 145.522 386.206 147.132 393.68 150.207C393.68 150.207 375.362 131.321 365.837 117.267C365.837 117.267 359.682 132.199 343.122 148.157C327.442 161.626 302.236 172.752 302.236 172.752Z" fill="#E62E51"/>
<path d="M366.569 118.877C366.569 118.877 386.353 144.058 395.292 151.378C395.292 151.378 389.87 148.743 379.026 145.668L366.569 118.877Z" fill="#ED6F8C"/>
<path opacity="0.8" d="M242.446 165.871C242.446 165.871 249.187 171.874 257.247 175.534C257.247 175.534 256.954 170.41 256.075 168.36C256.075 168.36 257.54 169.824 261.79 169.971C261.79 169.971 281.573 173.923 308.245 166.75C332.864 160.308 349.277 146.4 365.837 117.12L367.302 119.17C367.302 119.17 358.363 142.301 338.726 154.159C327.588 160.894 312.641 171.727 312.641 171.727C312.641 171.727 305.607 173.777 298.719 174.07C291.832 174.363 262.669 174.363 257.394 169.824C257.394 169.824 258.273 171.727 258.419 173.923C258.419 174.802 258.419 175.68 258.273 176.559C258.273 176.559 246.842 173.923 241.127 166.896L242.446 165.871Z" fill="#5D1224"/>
<path opacity="0.8" d="M242.886 162.358L222.809 169.825L230.723 172.606C249.92 172.753 302.383 175.827 318.649 163.969C318.649 163.969 288.608 173.924 256.661 164.554C256.661 164.554 257.833 167.482 256.808 167.482C253.584 167.775 245.524 165.14 242.886 162.358Z" fill="#5D1224"/>
<path d="M214.749 168.8C215.335 170.264 227.792 170.996 229.404 171.288C248.308 170.703 300.917 175.095 318.649 163.09C315.718 164.993 310.736 165.579 307.512 166.311C299.159 168.214 272.927 164.408 268.824 162.651C259.592 158.991 255.489 157.966 243.325 151.964C238.489 149.621 234.533 145.815 230.283 141.13C228.964 148.157 214.016 167.043 214.749 168.8Z" fill="#E62E51"/>
<path d="M387.965 199.251C387.965 199.251 385.181 207.596 375.509 196.616C361.733 181.244 360.415 162.944 348.838 155.331C339.019 148.889 316.451 147.864 317.33 139.666C317.33 139.666 309.857 146.693 318.356 152.256C327.002 157.673 337.7 155.916 340.778 155.916C340.778 155.916 328.761 161.04 315.132 150.792C315.132 150.792 308.538 160.601 318.356 163.236C332.278 166.896 339.312 162.358 339.312 162.358C339.312 162.358 328.028 167.628 322.02 167.628C318.942 167.628 312.641 166.164 312.641 166.164C313.96 178.901 329.933 173.924 333.304 173.777C333.304 173.777 324.951 176.705 315.132 178.462C315.132 178.462 318.063 190.467 328.614 187.539C335.502 185.636 336.821 185.343 339.019 183.293C339.019 183.293 330.959 190.906 320.554 194.566C320.554 194.566 325.097 207.742 330.519 203.936C336.088 199.983 337.407 194.42 338.872 191.199C338.872 191.199 333.597 204.521 331.838 215.794C331.838 215.794 337.554 218.576 340.924 215.941C344.295 213.305 346.786 205.546 346.786 205.546C346.786 205.546 343.855 227.799 360.561 230.141C360.561 230.141 357.63 221.943 358.803 215.355C358.803 215.355 359.096 232.63 368.768 239.804L377.853 241.707L376.534 236.876C376.534 236.876 381.077 244.342 388.111 243.757C388.111 243.757 382.396 235.705 384.741 229.263C384.741 229.263 384.887 233.362 386.353 237.315C387.379 239.95 387.672 241.561 389.577 244.342C389.577 244.342 393.534 244.635 396.318 243.025C398.37 241.854 403.645 239.072 406.576 232.191C409.654 224.725 425.334 196.177 404.378 165.432C404.378 165.14 409.947 193.688 387.965 199.251Z" fill="#D6742E"/>
<g opacity="0.6">
<path d="M408.481 211.402C408.481 211.402 393.68 223.114 394.852 215.794C394.852 215.794 391.482 223.26 384.008 221.211C376.534 219.161 383.275 213.744 383.275 213.744C383.275 213.744 372.578 219.308 373.75 214.769C375.215 208.62 384.155 209.206 384.155 209.206C365.104 207.596 359.682 198.665 359.682 198.665L358.802 202.911C352.208 198.811 351.475 189.003 351.475 188.271C351.475 188.71 351.475 191.491 348.984 191.345C341.217 190.759 342.976 169.824 342.976 169.824C330.812 176.412 314.546 178.023 314.546 178.023C319.089 191.931 330.373 187.246 337.847 183.879C337.847 183.879 331.838 188.71 329.2 190.174C327.149 191.345 320.554 194.419 320.554 194.419C327.002 211.988 333.45 201.447 337.114 193.687C336.235 196.762 333.743 210.67 332.131 215.355C332.131 215.355 338.14 217.258 341.071 215.501C345.174 213.012 346.493 206.132 347.958 200.715C340.924 226.774 360.708 228.531 360.708 228.531C356.751 220.186 359.975 206.278 359.975 206.278C359.828 206.278 359.975 206.424 359.975 206.278C357.337 213.305 358.802 230.434 368.914 237.9L378 239.657L376.681 234.972C376.681 234.972 379.758 239.511 382.836 241.56C384.594 242.732 386.353 242.439 388.991 242.146C388.991 242.146 381.81 233.655 385.474 227.799C385.034 228.677 386.646 235.558 390.603 242.732C390.603 242.732 392.215 242.732 395.878 241.853C398.37 241.707 409.653 235.997 408.481 211.402Z" fill="#87391E"/>
</g>
<path d="M312.641 166.018C312.641 166.018 311.908 175.094 324.804 174.655L333.304 173.63L333.743 173.777L343.122 170.702C343.122 170.849 317.037 174.509 312.641 166.018Z" fill="#A85424"/>
<path d="M342.829 169.678C342.829 169.678 338.726 188.124 346.2 191.052C346.786 191.345 350.449 192.37 350.743 189.149C350.743 189.149 352.648 203.935 357.044 202.618C357.923 202.325 359.242 198.811 359.242 198.811C359.242 198.811 363.345 206.863 384.301 209.352C384.301 209.352 365.837 207.156 359.535 196.908C359.535 196.908 357.63 199.69 357.777 201.007C357.777 201.007 351.915 195.298 351.915 185.196C351.915 185.196 350.303 192.077 347.665 189.149C344.881 186.367 342.976 182.415 342.829 169.678Z" fill="#EE8235"/>
<path d="M346.932 172.752C346.932 172.752 345.614 177.144 347.372 178.462C349.277 179.779 352.648 178.022 353.82 174.802C353.82 174.802 349.277 179.047 347.812 176.851C346.493 174.655 346.932 172.752 346.932 172.752Z" fill="#EE8235"/>
<path opacity="0.6" d="M340.191 194.566C340.191 194.566 338.872 198.958 340.631 200.276C342.536 201.594 345.907 199.837 347.079 196.616C347.079 196.616 342.536 200.862 341.071 198.666C339.752 196.47 340.191 194.566 340.191 194.566Z" fill="#87391E"/>
<path opacity="0.6" d="M348.398 203.35C348.398 203.35 347.079 207.742 348.838 209.059C350.743 210.377 354.113 208.62 355.285 205.399C355.285 205.399 350.743 209.645 349.277 207.449C348.105 205.253 348.398 203.35 348.398 203.35Z" fill="#87391E"/>
<path opacity="0.6" d="M376.974 222.968C376.974 222.968 375.655 227.36 377.414 228.677C379.319 229.995 382.689 228.238 383.862 225.017C383.862 225.017 379.319 229.263 377.853 227.067C376.534 224.871 376.974 222.968 376.974 222.968Z" fill="#87391E"/>
<path opacity="0.6" d="M390.749 232.776C390.749 232.776 389.43 237.168 391.189 238.486C393.094 239.804 396.464 238.047 397.637 234.826C397.637 234.826 393.094 239.072 391.628 236.876C390.456 234.68 390.749 232.776 390.749 232.776Z" fill="#87391E"/>
<path opacity="0.6" d="M392.215 225.018C392.215 225.018 390.896 229.41 392.654 230.727C394.559 232.045 397.93 230.288 399.102 227.067C399.102 227.067 394.559 231.313 393.094 229.117C391.775 226.921 392.215 225.018 392.215 225.018Z" fill="#87391E"/>
<path opacity="0.6" d="M398.663 221.211C398.663 221.211 397.344 225.603 399.102 226.921C401.007 228.238 404.378 226.481 405.55 223.261C405.55 223.261 401.008 227.506 399.542 225.31C398.37 223.114 398.663 221.211 398.663 221.211Z" fill="#87391E"/>
<path opacity="0.6" d="M399.688 228.092C399.688 228.092 398.37 232.484 400.128 233.801C402.033 235.119 405.404 233.362 406.576 230.141C406.576 230.141 402.033 234.387 400.568 232.191C399.249 229.995 399.688 228.092 399.688 228.092Z" fill="#87391E"/>
<path opacity="0.6" d="M362.759 210.377C362.759 210.377 361.44 214.769 363.199 216.087C365.104 217.404 368.474 215.647 369.647 212.427C369.647 212.427 365.104 216.672 363.638 214.476C362.32 212.28 362.759 210.377 362.759 210.377Z" fill="#87391E"/>
<path d="M352.648 179.048C352.648 179.048 350.743 181.976 353.087 184.318C355.579 186.661 359.828 184.611 360.122 184.318C360.122 184.318 355.139 185.343 353.82 183.293C352.648 181.244 352.648 179.048 352.648 179.048Z" fill="#EE8235"/>
<path d="M346.932 179.048C346.932 179.048 345.174 182.561 347.665 185.197C350.156 187.832 353.087 184.465 353.087 184.465C353.087 184.465 349.57 186.514 348.251 184.172C347.225 181.683 346.493 180.219 346.932 179.048Z" fill="#EE8235"/>
<path d="M360.854 191.199C360.854 191.199 358.656 194.127 361.001 196.762C363.345 199.398 369.207 198.373 369.207 198.373C369.207 198.373 364.811 198.519 362.466 195.884C359.975 193.102 360.854 191.199 360.854 191.199Z" fill="#EE8235"/>
<path d="M391.628 208.474C391.628 208.474 392.801 211.841 396.318 211.255C399.835 210.67 401.887 205.106 401.887 205.106C401.887 205.106 399.688 209.059 396.318 209.645C392.801 210.23 391.628 208.474 391.628 208.474Z" fill="#EE8235"/>
<path d="M396.758 202.325C396.758 202.325 397.93 205.839 401.447 205.107C404.964 204.375 407.016 198.958 407.016 198.958C407.016 198.958 404.818 202.911 401.447 203.496C397.93 204.228 396.758 202.325 396.758 202.325Z" fill="#EE8235"/>
<path d="M401.887 205.253C401.887 205.253 403.059 208.62 406.576 208.035C410.093 207.303 412.145 201.886 412.145 201.886C412.145 201.886 409.947 205.839 406.576 206.424C403.059 207.01 401.887 205.253 401.887 205.253Z" fill="#EE8235"/>
<path d="M396.904 212.72C396.904 212.72 398.076 216.233 401.593 215.501C405.111 214.769 407.162 209.353 407.162 209.353C407.162 209.353 404.964 213.305 401.593 213.891C398.076 214.477 396.904 212.72 396.904 212.72Z" fill="#EE8235"/>
<path d="M381.81 206.717C381.81 206.717 382.982 210.23 386.499 209.498C390.017 208.766 392.068 203.35 392.068 203.35C392.068 203.35 389.87 207.302 386.499 207.888C382.982 208.62 381.81 206.717 381.81 206.717Z" fill="#EE8235"/>
<path d="M382.836 214.184C382.836 214.184 384.008 217.697 387.525 216.965C391.042 216.233 393.094 210.816 393.094 210.816C393.094 210.816 390.896 214.769 387.525 215.355C384.008 215.94 382.836 214.184 382.836 214.184Z" fill="#EE8235"/>
<path d="M338.726 191.491C338.726 191.491 333.45 204.814 328.175 204.228C322.899 203.642 320.408 194.419 320.408 194.419C320.408 194.419 324.804 204.374 328.321 203.35C331.692 202.178 338.14 192.077 338.726 191.491Z" fill="#D6742E"/>
<path d="M358.949 212.72C358.949 212.72 357.777 222.821 360.415 229.556C360.415 229.556 351.475 228.97 348.251 220.772C348.251 220.772 351.768 226.921 358.803 228.677C358.949 228.677 357.337 216.965 358.949 212.72Z" fill="#D6742E"/>
<path d="M367.888 240.242L376.974 241.999L375.655 237.168L375.802 240.828L367.888 240.242Z" fill="#D6742E"/>
<path d="M383.276 243.025C383.276 243.025 373.604 236.437 373.164 219.454C373.164 219.454 371.699 236.583 383.276 243.025Z" fill="#5D1224"/>
<path d="M359.389 208.474C359.389 208.474 353.38 227.798 367.888 240.243C367.888 240.243 357.044 227.945 359.389 208.474Z" fill="#5D1224"/>
<path d="M347.665 201.447C347.665 201.447 339.752 227.653 360.561 229.995C360.561 229.995 348.984 227.799 347.665 217.112C346.639 207.596 347.665 201.447 347.665 201.447Z" fill="#5D1224"/>
<path d="M337.7 184.172C337.7 184.172 330.08 190.028 320.261 194.566C320.261 194.566 321.873 199.398 323.632 200.569C323.632 200.569 321.434 196.03 321.873 195.152C321.873 195.152 335.209 188.417 337.7 184.172Z" fill="#5D1224"/>
<path d="M314.253 178.169C314.253 178.169 330.519 175.241 333.011 174.069C333.011 174.069 319.822 178.315 315.865 178.901C315.865 178.901 316.305 189.441 330.519 186.953C330.519 186.953 318.503 193.101 314.253 178.169Z" fill="#5D1224"/>
<path d="M314.4 151.524C314.4 151.524 312.055 155.77 312.201 158.405C312.495 162.944 322.46 170.849 338.579 163.09C338.579 163.09 320.261 165.725 317.037 158.698C317.037 158.698 315.865 156.648 317.477 153.574L314.4 151.524Z" fill="#87391E"/>
<path d="M316.158 140.837C316.158 140.837 313.227 144.351 313.374 146.4C313.52 148.45 313.227 154.159 326.416 156.209C334.476 157.527 340.338 155.916 340.338 155.916C340.338 155.916 320.848 153.574 316.891 148.743C315.279 146.693 315.132 143.033 316.158 140.837Z" fill="#87391E"/>
<path d="M379.026 145.522C379.319 146.108 386.939 150.06 397.051 159.869C405.404 167.921 405.843 183.147 395.439 191.638C387.672 197.933 376.388 201.447 369.647 189.442C361.587 174.948 358.802 166.164 351.182 158.552C346.493 153.72 333.743 150.207 329.2 149.036C334.476 150.5 344.441 155.038 348.398 158.405C359.389 167.775 360.268 191.492 374.776 202.179C383.275 208.328 402.033 194.273 402.912 193.102C413.317 181.097 405.111 161.772 394.999 151.085C393.827 150.06 379.026 145.376 379.026 145.522Z" fill="#F2934F"/>
<path d="M338.433 191.199C338.433 191.199 332.278 205.4 331.399 215.502C331.399 215.502 337.993 219.454 341.95 214.184C341.95 214.184 337.554 217.405 332.718 214.77C332.718 214.77 335.795 196.177 338.433 191.199Z" fill="#5D1224"/>
<path d="M13.3969 179.193H35.3786H50.4727H66.7391V373.467H59.8516V392.938H45.3436V382.69C45.3436 377.566 41.0938 373.32 35.9648 373.32H35.3786H27.9048C22.7758 373.32 18.526 377.566 18.526 382.69V392.938H4.01807V188.563C4.01807 183.439 8.12131 179.193 13.3969 179.193Z" fill="#DF152C"/>
<path d="M196.285 179.193H174.303H159.209H142.942V373.467H149.83V392.938H164.338V382.69C164.338 377.566 168.588 373.32 173.717 373.32H174.303H181.777C186.906 373.32 205.663 188.417 205.663 188.417C205.663 183.439 201.56 179.193 196.285 179.193Z" fill="#A91921"/>
<path d="M62.7824 179.193H197.31C202.439 179.193 206.689 183.439 206.689 188.563V392.938H192.181V382.69C192.181 377.566 187.932 373.32 182.802 373.32H77.2903C72.1613 373.32 67.9115 377.566 67.9115 382.69V392.938H53.4036V188.563C53.4036 183.439 57.5068 179.193 62.7824 179.193Z" fill="#E7344C"/>
<path d="M188.664 194.127H71.4287V261.032H188.664V194.127Z" fill="#A91921"/>
<path d="M79.9283 238.486H179.872L188.518 255.322V261.178H179.872H79.9283H71.4287V255.322L79.9283 238.486Z" fill="#DE384B"/>
<path d="M188.664 255.322H71.4287V261.032H188.664V255.322Z" fill="#EA4F6A"/>
<path d="M188.518 194.127L179.872 238.486H79.9283L71.4287 194.127H188.518Z" fill="#DF152C"/>
<path d="M98.2462 213.159H161.7C165.217 213.159 168.001 215.941 168.001 219.454H91.9448C91.9448 215.941 94.7292 213.159 98.2462 213.159Z" fill="#E7344C"/>
<path d="M167.269 346.09H169.467C169.467 346.09 170.2 345.944 170.493 345.651C170.786 345.358 170.786 344.626 170.786 344.626C170.786 344.626 170.786 341.552 172.105 341.113C173.424 340.673 175.329 344.041 177.234 345.358C178.699 346.383 179.725 346.09 179.725 346.09H184.854C184.854 346.09 187.492 345.944 186.173 343.894C186.026 343.748 185.44 342.43 182.363 339.502C179.139 336.574 179.579 337.013 183.389 332.036C185.733 328.961 186.613 327.058 186.32 326.326C186.026 325.594 184.268 325.741 184.268 325.741H178.553C178.553 325.741 178.113 325.741 177.82 325.887C177.527 326.033 177.38 326.473 177.38 326.473C177.38 326.473 176.501 328.815 175.329 330.865C172.837 335.11 171.812 335.403 171.372 335.11C170.346 334.525 170.639 332.621 170.639 331.304C170.639 327.205 171.225 325.448 169.467 325.009C168.881 324.862 168.441 324.716 166.829 324.716C164.778 324.716 163.019 324.716 162.14 325.155C161.554 325.448 160.967 326.18 161.26 326.18C161.7 326.18 162.433 326.473 162.872 327.058C163.459 327.79 163.459 329.693 163.459 329.693C163.459 329.693 163.752 334.525 162.726 335.257C161.993 335.696 160.967 334.817 158.623 330.865C157.45 328.815 156.571 326.619 156.571 326.619C156.571 326.619 156.424 326.18 156.131 326.033C155.838 325.741 155.252 325.741 155.252 325.741H149.83C149.83 325.741 148.951 325.741 148.658 326.18C148.365 326.473 148.658 327.205 148.658 327.205C148.658 327.205 152.907 337.013 157.743 341.991C162.286 346.383 167.269 346.09 167.269 346.09Z" fill="white"/>
<path d="M167.855 288.848C169.174 288.848 170.346 287.823 170.346 286.359C170.346 285.041 169.32 283.87 167.855 283.87C166.536 283.87 165.364 284.895 165.364 286.359C165.364 287.823 166.536 288.848 167.855 288.848Z" fill="white"/>
<path d="M167.708 275.672C158.916 275.672 151.882 282.699 151.882 291.483C151.882 300.267 158.916 307.294 167.708 307.294C176.501 307.294 183.535 300.267 183.535 291.483C183.535 282.699 176.355 275.672 167.708 275.672ZM167.855 281.528C170.493 281.528 172.691 283.724 172.691 286.359C172.691 288.994 170.493 291.19 167.855 291.19C165.217 291.19 163.019 288.994 163.019 286.359C163.019 283.724 165.071 281.528 167.855 281.528ZM174.303 292.947C172.837 294.411 170.932 295.29 168.881 295.582L172.398 299.096C172.837 299.535 172.837 300.267 172.398 300.853C172.105 301.146 171.812 301.146 171.519 301.146C171.225 301.146 170.932 300.999 170.639 300.853L167.855 298.071L165.071 300.853C164.631 301.292 163.898 301.292 163.312 300.853C162.872 300.414 162.872 299.682 163.312 299.096L166.829 295.582C164.778 295.29 162.872 294.558 161.407 292.947C160.967 292.508 160.967 291.63 161.407 291.19C161.847 290.751 162.726 290.751 163.166 291.19C165.803 293.826 170.053 293.826 172.691 291.19C173.131 290.751 174.01 290.751 174.449 291.19C174.743 291.63 174.743 292.362 174.303 292.947Z" fill="white"/>
<path d="M73.6268 320.47H70.1097C66.7392 320.47 63.8083 323.105 63.8083 328.083C63.8083 331.157 65.2737 333.353 67.765 334.524L63.0756 343.015C62.929 343.308 63.0756 343.455 63.3686 343.455H65.5668C65.7134 343.455 65.8599 343.455 66.0064 343.308L70.2562 334.963H71.7217V343.308C71.7217 343.455 71.8682 343.455 71.8682 343.455H73.7733C73.9199 343.455 74.0664 343.308 74.0664 343.162V320.763C73.9199 320.47 73.7733 320.47 73.6268 320.47ZM71.5751 332.914H70.2562C68.2046 332.914 66.2995 331.45 66.2995 327.79C66.2995 323.983 68.2046 322.373 69.9632 322.373H71.5751V332.914Z" fill="white"/>
<path d="M85.0573 328.082H83.1522C83.0056 328.082 82.8591 328.228 82.8591 328.228V334.084H79.342V328.228C79.342 328.082 79.342 328.082 79.1955 328.082H77.2904C77.1439 328.082 76.9973 328.228 76.9973 328.228V343.161C76.9973 343.308 76.9973 343.454 77.1439 343.454H79.0489C79.1955 343.454 79.1955 343.308 79.1955 343.161V335.988H82.7126V343.161C82.7126 343.308 82.8591 343.454 83.0056 343.454H84.9107C85.0573 343.454 85.0573 343.308 85.0573 343.161V328.228C85.3504 328.082 85.2038 328.082 85.0573 328.082Z" fill="white"/>
<path d="M128.434 342.43L128.141 341.405C128.141 341.259 128.141 341.259 127.995 341.259C127.848 341.259 126.969 341.552 125.797 341.552C123.452 341.552 122.28 339.356 122.28 335.696C122.28 332.621 123.159 329.547 124.771 329.547C125.21 329.547 125.65 329.693 126.529 330.425C126.676 330.572 126.676 330.572 126.822 330.572C126.969 330.572 126.969 330.572 127.116 330.425L127.995 329.108C127.995 328.961 128.141 328.961 128.141 328.815C128.141 328.668 127.995 328.668 127.848 328.522C126.529 327.936 125.797 327.79 125.064 327.79C122.133 327.79 119.935 331.157 119.935 336.574C119.935 341.259 122.133 343.894 125.064 343.894C126.383 343.894 127.702 343.308 128.288 342.869C128.434 342.723 128.434 342.576 128.434 342.43Z" fill="white"/>
<path d="M115.099 334.963L118.762 328.228C118.762 328.082 118.762 328.082 118.616 328.082H116.857C116.271 328.082 116.125 328.228 115.978 328.668L113.194 334.377C113.047 334.67 112.901 334.963 112.754 334.963V328.228C112.754 328.082 112.754 328.082 112.608 328.082H110.556C110.409 328.082 110.409 328.228 110.409 328.228V343.161C110.409 343.308 110.409 343.308 110.556 343.308H112.608C112.754 343.308 112.754 343.161 112.754 343.161V335.402C112.901 335.402 112.901 335.548 112.901 335.695L116.418 342.868C116.564 343.308 116.857 343.308 117.297 343.308H119.349C119.495 343.308 119.495 343.161 119.495 343.161L115.099 334.963Z" fill="white"/>
<path d="M97.6602 341.404H97.2206C96.7809 341.404 96.6344 341.258 96.6344 340.819V328.228C96.6344 328.082 96.6344 328.082 96.4879 328.082H90.333C90.1864 328.082 90.0399 328.228 90.0399 328.228V329.4C90.0399 333.06 89.8934 337.891 87.8417 341.551H87.109C86.9625 341.551 86.8159 341.697 86.8159 341.844C86.8159 341.844 86.8159 345.504 86.8159 346.382C86.8159 346.528 86.9625 346.528 86.9625 346.528H88.4279C88.721 346.528 88.8675 346.236 88.8675 346.089V343.6H95.462V346.382C95.462 346.528 95.6086 346.528 95.6086 346.528H97.2206C97.3671 346.528 97.5137 346.382 97.5137 346.089V341.697C97.8068 341.551 97.8068 341.404 97.6602 341.404ZM94.2897 341.404H89.8934C91.5053 338.769 92.0915 335.695 92.2381 332.035C92.2381 331.303 92.3846 330.424 92.3846 329.839H94.2897V341.404Z" fill="white"/>
<path d="M103.815 327.644C100.444 327.644 98.979 331.743 98.979 336.281C98.979 340.966 101.031 343.601 104.108 343.601C105.574 343.601 106.892 343.016 107.625 342.576C107.772 342.576 107.772 342.43 107.772 342.284L107.479 341.259C107.479 341.112 107.332 341.112 107.185 341.112C107.039 341.112 106.16 341.405 104.987 341.405C102.643 341.405 101.47 339.356 101.47 336.72C101.47 336.281 101.47 335.988 101.47 335.988C101.47 335.988 102.643 336.135 103.375 336.135H107.772V334.817C107.918 330.279 106.306 327.644 103.815 327.644ZM103.522 334.378C102.789 334.378 101.763 334.524 101.763 334.524C101.763 334.524 101.763 334.085 101.763 333.646C102.056 331.011 102.643 329.693 103.815 329.693C104.841 329.693 105.427 331.011 105.574 333.353C105.574 333.792 105.574 334.378 105.574 334.378H103.522Z" fill="white"/>
<path d="M128.581 281.528H126.529V295.583H128.581V281.528Z" fill="white"/>
<path fill-rule="evenodd" clip-rule="evenodd" d="M93.5568 295.583H91.5051V285.627H93.5568V286.359C93.9964 285.92 94.8756 285.334 96.048 285.334C97.5135 285.334 98.6858 285.92 99.4185 286.945C100.298 285.92 101.617 285.334 102.936 285.334C105.573 285.334 107.332 287.091 107.332 289.726V295.583H105.28V289.726C105.28 288.409 104.255 287.384 102.936 287.384C101.617 287.384 100.591 288.409 100.591 289.726V295.583H98.5393V289.726C98.5393 288.409 97.5135 287.384 96.1945 287.384C94.8756 287.384 93.8498 288.409 93.8498 289.726V295.583H93.5568ZM114.513 287.53C116.271 287.53 117.737 288.848 117.737 290.751C117.737 292.654 116.271 293.972 114.513 293.972C112.754 293.972 111.289 292.654 111.289 290.751C111.289 288.848 112.608 287.53 114.513 287.53ZM119.788 295.583H117.737V294.558C117.004 295.436 115.685 295.875 114.513 295.875C111.582 295.875 109.237 293.533 109.237 290.605C109.237 287.677 111.582 285.334 114.513 285.334C115.685 285.334 117.004 285.774 117.737 286.652V285.627H119.788V295.583ZM123.159 281.089C123.891 281.089 124.624 281.674 124.624 282.553C124.624 283.285 124.038 284.017 123.159 284.017C122.426 284.017 121.693 283.431 121.693 282.553C121.693 281.821 122.279 281.089 123.159 281.089ZM124.185 295.583H122.133V285.627H124.185V295.583Z" fill="white"/>
<path d="M74.2128 279.479C68.058 279.479 63.0754 284.456 63.0754 290.459C63.0754 296.461 68.058 301.439 74.2128 301.439C76.411 301.439 78.6092 300.707 80.5142 299.535L79.0488 297.779C77.5834 298.657 75.9714 299.096 74.2128 299.096C69.3769 299.096 65.4202 295.143 65.4202 290.312C65.4202 285.481 69.3769 281.528 74.2128 281.528C79.0488 281.528 83.0055 285.481 83.0055 290.312C83.0055 290.898 83.0055 291.63 82.859 292.215C82.5659 293.387 81.8332 293.679 81.1004 293.679C80.5142 293.679 79.7815 293.24 79.7815 292.215V290.459C79.7815 287.384 77.2903 284.895 74.2128 284.895C71.1354 284.895 68.6441 287.384 68.6441 290.459C68.6441 293.533 71.1354 296.022 74.2128 296.022C74.9456 296.022 75.6783 295.875 76.411 295.583C77.1437 295.29 77.7299 294.851 78.3161 294.411C78.9023 295.436 79.9281 296.022 81.1004 296.022C81.9797 296.168 82.859 295.875 83.5917 295.29C84.3244 294.851 84.764 294.119 85.0571 293.24C85.0571 293.094 85.2037 292.801 85.2037 292.801C85.3502 292.069 85.4968 291.483 85.4968 290.605C85.3502 284.456 80.2212 279.479 74.2128 279.479ZM77.4368 290.459C77.4368 292.215 75.9714 293.826 74.0663 293.826C72.1612 293.826 70.6958 292.362 70.6958 290.459C70.6958 288.555 72.1612 287.091 74.0663 287.091C75.9714 287.091 77.4368 288.555 77.4368 290.459Z" fill="white"/>
<path d="M128.581 281.528H126.529V295.583H128.581V281.528Z" fill="white"/>
<path fill-rule="evenodd" clip-rule="evenodd" d="M93.5568 295.583H91.5051V285.627H93.5568V286.359C93.9964 285.92 94.8756 285.334 96.048 285.334C97.5135 285.334 98.6858 285.92 99.4185 286.945C100.298 285.92 101.617 285.334 102.936 285.334C105.573 285.334 107.332 287.091 107.332 289.726V295.583H105.28V289.726C105.28 288.409 104.255 287.384 102.936 287.384C101.617 287.384 100.591 288.409 100.591 289.726V295.583H98.5393V289.726C98.5393 288.409 97.5135 287.384 96.1945 287.384C94.8756 287.384 93.8498 288.409 93.8498 289.726V295.583H93.5568ZM114.513 287.53C116.271 287.53 117.737 288.848 117.737 290.751C117.737 292.654 116.271 293.972 114.513 293.972C112.754 293.972 111.289 292.654 111.289 290.751C111.289 288.848 112.608 287.53 114.513 287.53ZM119.788 295.583H117.737V294.558C117.004 295.436 115.685 295.875 114.513 295.875C111.582 295.875 109.237 293.533 109.237 290.605C109.237 287.677 111.582 285.334 114.513 285.334C115.685 285.334 117.004 285.774 117.737 286.652V285.627H119.788V295.583ZM123.159 281.089C123.891 281.089 124.624 281.674 124.624 282.553C124.624 283.285 124.038 284.017 123.159 284.017C122.426 284.017 121.693 283.431 121.693 282.553C121.693 281.821 122.279 281.089 123.159 281.089ZM124.185 295.583H122.133V285.627H124.185V295.583Z" fill="white"/>
<path d="M74.2128 279.479C68.058 279.479 63.0754 284.456 63.0754 290.459C63.0754 296.461 68.058 301.439 74.2128 301.439C76.411 301.439 78.6092 300.707 80.5142 299.535L79.0488 297.779C77.5834 298.657 75.9714 299.096 74.2128 299.096C69.3769 299.096 65.4202 295.143 65.4202 290.312C65.4202 285.481 69.3769 281.528 74.2128 281.528C79.0488 281.528 83.0055 285.481 83.0055 290.312C83.0055 290.898 83.0055 291.63 82.859 292.215C82.5659 293.387 81.8332 293.679 81.1004 293.679C80.5142 293.679 79.7815 293.24 79.7815 292.215V290.459C79.7815 287.384 77.2903 284.895 74.2128 284.895C71.1354 284.895 68.6441 287.384 68.6441 290.459C68.6441 293.533 71.1354 296.022 74.2128 296.022C74.9456 296.022 75.6783 295.875 76.411 295.583C77.1437 295.29 77.7299 294.851 78.3161 294.411C78.9023 295.436 79.9281 296.022 81.1004 296.022C81.9797 296.168 82.859 295.875 83.5917 295.29C84.3244 294.851 84.764 294.119 85.0571 293.24C85.0571 293.094 85.2037 292.801 85.2037 292.801C85.3502 292.069 85.4968 291.483 85.4968 290.605C85.3502 284.456 80.2212 279.479 74.2128 279.479ZM77.4368 290.459C77.4368 292.215 75.9714 293.826 74.0663 293.826C72.1612 293.826 70.6958 292.362 70.6958 290.459C70.6958 288.555 72.1612 287.091 74.0663 287.091C75.9714 287.091 77.4368 288.555 77.4368 290.459Z" fill="white"/>
<mask id="mask0_2011_18677" style="mask-type:luminance" maskUnits="userSpaceOnUse" x="69" y="186" width="134" height="53">
<path d="M202.293 186.222H69.6702V238.047H202.293V186.222Z" fill="white"/>
</mask>
<g mask="url(#mask0_2011_18677)">
<path d="M136.825 188.817L116.491 220.313L171.05 255.465L191.383 223.968L136.825 188.817Z" fill="#D3C286"/>
<path d="M159.062 214.331L116.418 220.333L171.079 255.47L159.062 214.331Z" fill="#E7DD98"/>
<path d="M153.933 222.09L191.449 223.994L136.788 188.857L153.933 222.09Z" fill="#F1F4D0"/>
</g>
<mask id="mask1_2011_18677" style="mask-type:luminance" maskUnits="userSpaceOnUse" x="69" y="186" width="134" height="53">
<path d="M202.293 186.222H69.6702V238.047H202.293V186.222Z" fill="white"/>
</mask>
<g mask="url(#mask1_2011_18677)">
<path d="M95.5037 201.743L74.5776 232.851L128.461 269.027L149.387 237.92L95.5037 201.743Z" fill="#D3C286"/>
<path d="M117.297 227.653L74.6528 232.924L128.581 269.085L117.297 227.653Z" fill="#E7DD98"/>
<path d="M112.022 235.412L149.391 237.901L95.6086 201.74L112.022 235.412Z" fill="#F1F4D0"/>
</g>
<path d="M79.9282 238.486L180.604 238.047" stroke="#432918" stroke-miterlimit="10"/>
</svg>
