<?xml version="1.0" encoding="UTF-8"?> <svg xmlns="http://www.w3.org/2000/svg" fill="none" viewBox="0 0 36100 35200"> <g clip-path="url(#a)"> <path d="M31290 34478c1441 1059-2184 618-7230 618-5047 0-10133 374-7618-660 350-144 737-289 2962-692 1073-195 2097-286 4530-286 1853 0 2975 102 3965 272 2565 442 3194 603 3391 748Z" fill="#1C2E53" opacity=".7"></path> <path d="M21347 14641s-4739 194-4942 2408c-407 4436-132 13999-132 13999s4935-2618 14457 253c0 0 4292-15856-3320-17915l-6063 1255Z" fill="#80172D"></path> <path d="m20050 27341 3610 4982s1995-2131 2670-4544c0 0-692-1293-939-1360-247-67-4775 119-5056-202-280-321-285 1124-285 1124Z" fill="#5D1023"></path> <path d="M22545 27709s825 2213 1010 4269c0 0-2596-3822-3290-4848l133-509s2090 945 2147 1088Z" fill="#B04818"></path> <path d="M22687 27428s1042 3263 971 4557c0 0 960-3030 848-4748l-1819 191Z" fill="#B04818"></path> <path d="M24683 27099s-159 3213-954 4848c0 0 1455-1384 2581-4454 0 0-590-710-913-696-323 14-714 302-714 302Z" fill="#D7762E"></path> <path d="M23542 27523s457 1271 191 3721c0 0 424-2388-38-3803l-153 82Zm-889 405s-425 1002-422 1554c0 0 200-783 509-1401l-87-153Zm-1804 63 350-105-208 523-142-418Zm2093 948-159 1451 282-1142-123-309Z" fill="#5D1023"></path> <path d="M22757 27828s698 736 876 1159c0 0-402-535-706-671l-170-488Zm378 1444s448 355 541 975c0 0-121-480-511-700l-30-275Zm1393-1700s-381 678-437 826l475-661-38-165Zm-88 1273-426 656 412-458 14-198Zm107-844s702 836 748 1246c0 0-328-614-766-980l18-266Zm-151 1467s201 678 236 1136c0 0-77-396-326-977l90-159Zm195-2088s974 167 1356 671c0 0-566-402-1364-548l8-123Zm6746-9215s1533 7392-1124 12985c0 0-107-31-900-246 0 0 1678-2876 1826-6194 148-3318-189-6455-189-6455l387-90Z" fill="#5D1023"></path> <path d="M31121 17008s1606 6320-1063 14587c0 0 1308 36 1924-1403 0 0 1605-9654-279-14040l-582 856Z" fill="#EA5174"></path> <path d="M17599 21453s392 2780 632 3135c0 0-186 998 39 1440s573 829 573 829l75 2159s132 339 207 331c75-8-139 894-139 894s1454-200 1528-203c0 0-55-813 51-764 125 58 1215-1691 1289-1875 0 0 2452 806 3980-254 0 0 584 1543 934 1554 0 0 238 1266 318 1714l1323 274s-144-918-177-1164c-107-815-242-1996-310-2194-68-197 345-2344 698-3336 353-992 601-3700 650-3971 0 0 655 1171 2069 1700l-1022-4249-15011 1196 176 3027s329 319 671 331c1-1 888-436 1446-574Z" fill="#5D1023"></path> <path d="M18346 30369s-531 97-1539 471c0 0-912-7647-411-9650l670 177c-1-1-397 8632 1280 9002Z" fill="#5D1023"></path> <path d="M15128 17841s-229 11680 127 13681c0 0 991 322 2092 114 0 0-521-474-752-2817-231-2343-598-8578 417-11411l-1884 433Z" fill="#E72D50"></path> <path d="M16374 21606s-101 8770 973 10030c0 0-769 160-1581 2 0 0 772 65 1250-161-1 0-1176-2107-642-9871Z" fill="#EA5174"></path> <path d="M31337 18165s447 4680 77 7132c-370 2452-1115 5720-1355 6298 0 0 945 127 1739-1045 0 0-642 431-1213 632 0 0 2100-7200 752-13017Z" fill="#F29BB1"></path> <path d="M17604 15396s-622 2312-3361 2579C11175 18274 8835 16400 8835 16400c-715-1022-894-4724-1828-3790-874 874-228 2295 824 3170 0 0-2792-2035-3824-2044-1032-10-2754-563-1622 687 581 642 2145 740 3531 1571 0 0-3802-343-4553 765-829 1223-686 1274-686 1274s3129-930 4633-664c0 0-3274 948-4064 2014 0 0 722 529 1251 457 566-76 1696-582 2238-728 0 0-1291 613-1489 957 0 0 1285 495 1544 473 877-76 1431-677 2241-1250 0 0-193 1014-915 1231 0 0 1288 1507 2752-1079 0 0-411 2024-1024 2571 0 0 1260 677 1851 126 592-550 918-1424 920-1630 0 0 52 1688-183 1934 0 0 1115 402 1665 17 551-386 932-1766 887-2291 0 0-94 1810 113 2555 0 0 4755-1273 4636-3095l411 210s1123-1284 1005-1787c-118-503-329-571-329-571s1193 172 1362-5c0 1-1161-1521-2578-2082Z" fill="#5D1023"></path> <path d="M17801 15134s-2409 2098-3486 2149c-1078 51-4456-925-5171-1947-716-1022-585-3864-585-3864-535-317-3058 1721-656 4058 0 0-4716-3018-5830-3510 0 0-938 1240 528 2371 0 0 2001 522 3387 1352 0 0-3252-812-4830 447C175 16974 0 18152 0 18152s3878-1299 5382-1034c0 0-4285 577-4773 1973 0 0 748 819 1763 622 499-97 2820-1047 3362-1193 0 0-2261 1116-2624 1506 0 0 1332 439 1527 421 1021-93 1695-919 2465-1406 0 0-280 1120-986 1482 0 0 1355 1669 2823-1330 0 0-752 2142-1365 2689 0 0 1601 558 2193 8 592-550 918-1423 920-1630 0 0-323 1683-558 1928 0 0 1490 408 2040 22 551-385 932-1765 887-2291 0 0-69 1874 104 2728 0 0 4958-1511 4645-3268l411 211s1123-1284 1005-1787c-118-503-329-571-329-571s1192 172 1362-5c-1 1-902-1736-2453-2093Z" fill="#F6A243"></path> <path d="M18515 15384s-1462 2073-4201 2341c-3068 300-4175-547-5039-1542-818-942-722-3848-722-3848-1024-617-1702 2320-650 3195 0 0-3847-2422-5830-3510 0 0-970 1294 528 2371 0 0 2001 522 3387 1352 0 0-3592-166-4553 765C374 17536 0 18152 0 18152s3878-1299 5382-1034c0 0-3983 907-4773 1973 0 0 677 725 1438 652 569-55 3144-1077 3687-1223 0 0-2157 1173-2356 1517 0 0 1085 406 1211 408 985 16 1708-962 2513-1404 0 0-462 1272-815 1577 0 0 1116 1421 2652-1425 0 0-411 2024-1024 2570 0 0 1260 677 1851 126 592-550 918-1423 920-1630 0 0 52 1688-183 1933 0 0 1115 403 1666 17 551-385 932-1765 887-2291 0 0-84 1883 104 2728 0 0 4770-1404 4645-3268l411 211s1123-1284 1005-1787c-118-503-329-571-329-571s1192 172 1362-5c-1 2 185-1692-1739-1842Z" fill="#88391E" opacity=".6"></path> <path d="M18158 15220s-300 4245-3039 4512c-3068 300-8822-325-8017-767 0 0-462 1272-815 1577 0 0 1116 1421 2652-1425 0 0-411 2024-1024 2570 0 0 1260 677 1851 126 592-550 918-1423 920-1630 0 0 52 1688-183 1933 0 0 1115 402 1666 17 551-386 932-1766 887-2291 0 0 91 2114 441 2697 0 0 4583-1507 4308-3237l411 210s1123-1284 1005-1787c-118-503-329-571-329-571s1192 172 1362-5c-1 2-678-1368-2096-1929ZM7647 17179s-362 1133 805 954c0 0-775-60-805-954Z" fill="#88391E" opacity=".6"></path> <path d="M8662 17948s427 1110 1225 239c1 0-641 438-1225-239Zm-492-804s427 1110 1225 239c1 0-641 439-1225-239Zm1519 502s427 1110 1225 239c1 0-641 438-1225-239Zm105 1071s427 1110 1225 239c0 0-642 439-1225-239Zm938-338s427 1110 1225 239c0 0-642 438-1225-239Zm641 850s427 1110 1225 239c0 0-642 439-1225-239Zm578-1079s427 1110 1225 239c0 0-642 438-1225-239Zm1677 188s929 744 1179-411c0 0-334 702-1179 411Zm1361-255s929 744 1179-411c-1 0-334 703-1179 411Zm-538 1109s928 744 1179-411c-1 1-334 703-1179 411Z" fill="#88391E" opacity=".6"></path> <path d="m20460 14749 8348 454c1020 2004 395 3363 436 4237 0 0-666 3697-1036 5727-370 2030 91 2661-273 3321 0 0-663 59-989-6-326-65-404-1102-988-1482 0 0-2414 979-4160 196 0 0-814 1164-1195 1556 0 0-1194-141-1236-304-42-163-427-2394-711-3111-284-718-895-1923-1104-2818 0-1-1924-8038 2908-7770Z" fill="#4F88C4"></path> <path d="M23179 15028s-1779 1713-1595 7516c130 4121 4448 4509 4318 4457 0 0-2414 979-4160 196l-1455 1501s-789-50-831-213c-42-163-595-2420-855-3147-278-779-839-1923-1047-2818-2-2-2276-9778 5625-7492Z" fill="#2C4383" opacity=".6"></path> <path d="M17639 22870s1440-140 2161-577c0 0-215 4145 2109 4687 2324 542 4048 20 4048 20s-2253 989-4160 196l-1195 1556s-1106-132-1141-244c-98-314-415-1934-656-2664-241-730-1143-2694-1166-2974Z" fill="#2C4383" opacity=".7"></path> <path d="m29029 17853 215 1588c-199 2403-1217 4773-1160 8290 4 224 20 363-150 758 0 0-276 12-512 2l512-2c10-223-367-2944-167-4427 200-1483 1403-5629 1262-6209Z" fill="#81BAE4"></path> <path d="M26106 19349c130 1571-1268 3116-2880 3084-1335-26-2654-1063-2784-2633-129-1570 1326-2584 2657-2694 1331-109 2878 673 3007 2243Z" fill="#1E2342"></path> <path d="M26276 19335c129 1571-1268 3116-2880 3084-1336-26-2654-1063-2784-2633-130-1570 1326-2584 2657-2694 1332-109 2878 673 3007 2243Z" fill="#F8E91C"></path> <path d="M22913 19929a319.3 319.3 0 01-323 315 319.3 319.3 0 01-315-323 319.3 319.3 0 01 323-315 318 318 0 01 315 323Zm1641 21a319.3 319.3 0 01-323 315 319.3 319.3 0 01-315-323 319.3 319.3 0 01 323-315c176 2 317 147 315 323Z" fill="#253163"></path> <path d="m25528 19142-491-15 7-536 2-175-157-64-11-5c-315-123-612-240-1446-251-944-12-1466 217-1487 226l-154 66-2 161-7 537-479 1 439 678c0 10 1 19 1 29-3 200 27 894 508 1445 358 410 1015 680 1043 691l92 37 93-35c33-11 70-27 116-47 63-27 160-72 270-129 290-152 517-316 675-488 494-538 541-1231 544-1431 0-8-6-16-6-24l450-671Zm-651-553-7 560-273-3c1 0 1 25 2 27l-349 14h1c-3 0 0-39-3-39-46-1-47-24-130-18l10-727c250 43 499 110 749 186Zm-1451-241c154 2 285 8 452 17l-11 852c-252 115-400 312-453 547-48-243-216-449-465-569l10-836c168-8 315-12 467-11Zm-716 43-9 706c0-4-79 46-79 46l3 88h2c-5 0-13-71-18-72-15 0-31-35-46-35l-316-1c1-2 3 0 4 0l-218-6 7-562c0-1 252-104 670-164Zm-700 1527a585.4 585.4 0 01 593-578c323 4 581 270 577 593-4 323-269 582-592 577-324-4-583-269-578-592Zm1398 1452c-864-11-1165-571-1231-718 120 69 259 110 407 112 241 3 460-97 615-258l221 201 218-173a837.8 837.8 0 00 587 251c147 2 285-35 406-100-70 144-369 695-1223 685Zm819-839a584.3 584.3 0 01-577-592 585.2 585.2 0 11 577 592Z" fill="#253163"></path> <path d="M28521 23207c-528 240-986 430-1523 584v-993l-195-535-237-650-465 1185v1214c-589 123-1173 203-1740 249v-109h-1616v160c-238-4-471-13-696-26 3-38 7-71 11-98 65-396 172-1217 173-1225l5-34h-16c-17-26-55-49-109-69v-5h-7c0-75-223-135-499-135-275 0-499 60-499 135 0 1 1 1 1 1-58 21-99 46-116 72h-48l7 36c2 8 133 676 167 1244-290-31-563-68-818-106-1-27-7-41-13-50a51.5 51.5 0 00-8-17c-23-33-97-66-190-95 19-74 62-230 108-306 4 1 9 2 12 2 8 0 13-3 15-8 3-8 2-17 0-27l2-2-3-1c-21-68-155-174-367-241-178-56-337-89-416-89-30 0-48 5-51 15-1 3 0 7 2 11 10 58 62 354 65 538-13-1-28-1-40-1-100 0-150 14-165 46-5 6-13 16-21 32a97402 97402 0 01-1244-277l270 926 453 105s167 436 136 892c-44 653 71 1429 71 1429l446 82c984 96 1360-430 1475-1081 60-338-34-615-173-830 133 22 273 42 419 61-10 180-20 365-28 533-33 695-21 707-9 721l6 7 9 2c3 1 309 70 593 70 170 0 301-25 388-73l16-9-1-19c0-10-20-574-27-1145 226 13 463 21 712 23v184h1616v-248c659-56 1241-144 1740-242v1039c0 43 123 80 295 94 48 4 100 6 153 6 51 0 100-2 146-5h4c174-14 299-51 299-94v-1244c751-200 1384-422 1384-422 139-511 141-1187 141-1187Z" fill="#5D1023" opacity=".9"></path> <path d="M17838 23453s5954 1775 10781-416c0 0-82 659-235 1244 0 0-1875 772-4848 872-2973 100-5312-715-5312-715l-386-985Z" fill="#253163"></path> <path d="M24466 23989h-1617v1356h1617v-1356Z" fill="#FCC03D"></path> <path d="M26088 24150s369-241 1225-202v409s-859 245-1225 85v-292Z" fill="#5D1023"></path> <path d="M26205 22635v3260c0 43 123 80 295 94v-3327l-295-27Z" fill="#A94B17"></path> <path d="M26803 25988c174-14 299-50 299-94v-3260l-299 27v3327Z" fill="#EB6B17"></path> <path d="M26799 22543H26500v119h299v-119Zm0 3446v-3327H26500v3327c48 4 99 6 153 6 52-1 101-3 146-6Zm4-3446h-4v119h4v-119Zm-4 3446h4v-3327h-4v3327Z" fill="#BF5617"></path> <path d="m26205 22635 465-1185 432 1185s-14 58-74 90c-50 27-130-47-214-12-140 59-250-19-319-19s-79 34-155 24c-75-11-135-83-135-83Z" fill="#E29522"></path> <path d="m26670 21450-255 650s105 63 226 63c121 0 266-63 266-63l-237-650Z" fill="#0E1223"></path> <path d="M26088 24185s753 100 1225-202V24400s-804 336-1225 85v-300Z" fill="#5D1023"></path> <path d="M26005 24118s911 94 1383-208l-74 491s-859 245-1225 85l-84-368Z" fill="#253163"></path> <path d="M19250 24261s-146 437 1244 356l30-260s-657-135-1150-224l-124 128Z" fill="#5D1023"></path> <path d="M20942 25820c143-808-592-1272-723-1355-169-107-61-349-61-349l-305-34-305-62s23 252-172 294c-151 33-1002 213-1148 1020-118 650 53 1275 1008 1526l232 41c982 96 1359-430 1474-1081Z" fill="#202B51"></path> <path d="M20883 25805c137-772-566-1216-691-1295-161-103-82-394-82-394l-530-91s35 284-195 340c-143 35-958 203-1097 975-113 622 50 1218 963 1459l221 40c941 91 1301-412 1411-1034Z" fill="#FEFFFD" opacity=".8"></path> <path d="M20815 25766c17-100 20-194 12-282l-2404-433c-39 80-69 170-87 271-108 594 48 1164 920 1394l212 38c898 86 1242-394 1347-988Z" fill="#E73C17"></path> <path d="M20825 25489c-18 99-570 83-1234-36s-1188-296-1170-395c18-99 570-83 1234 36 664 118 1188 295 1170 395Z" fill="#A22216"></path> <path d="M19868 24658s507 526 459 1139l150 27s158-707-485-1227l-124 61Z" fill="#FEFFFD" opacity=".5"></path> <path d="m20298 25939 174 31s-73 626-690 764c-1 1 372-111 516-795Z" fill="#FEFFFD"></path> <path d="M19384 23730s-47 46-51 165c-4 120 310 180 511 216 202 36 492 68 520-87 21-114-2-118-2-118l-978-176Z" fill="#69C3C3"></path> <path d="M20122 24174c-76 0-169-10-283-31-275-49-543-109-539-249 4-129 55-182 61-188l12-12 1008 181 12 15c11 15 21 45 4 140-17 96-110 144-275 144Zm-724-407c-11 19-30 60-32 130-3 95 364 160 484 182 308 55 465 33 482-60 8-47 9-71 7-83l-941-169Z" fill="#133A61"></path> <path d="M20362 23906c-8 44-233 40-503-8-270-48-482-123-474-167 8-44 233-40 503 8 269 48 482 123 474 167Z" fill="#69C3C3"></path> <path d="M20225 23969c-97 0-233-14-372-39-132-24-255-55-346-87-116-41-162-77-155-119 8-41 58-58 169-58 97 0 233 14 373 39 198 36 446 101 492 167 11 16 11 30 9 39-8 41-59 58-170 58Zm-792-230c48 29 191 82 432 125 136 24 267 38 361 38 45 0 72-3 88-6-48-30-191-82-432-126-136-24-267-38-361-38-45 1-72 4-88 7Z" fill="#133A61"></path> <path d="M19900 23826c-133-24-269-74-316-92 11-148-37-459-66-557l792 254c-67 104-127 311-146 371-23 13-106 49-242 28-7-2-15-3-22-4Z" fill="#FEC82B"></path> <path d="M20142 23378s-182 177-210 439c0 0 187 17 232-30 0 0 100-328 146-358 0 1-129-64-168-51Z" fill="#FFDA6C"></path> <path d="M19518 23176s94 483 84 556c0 0 151 42 175 39 0 0 26-463-34-486-60-22-225-109-225-109Z" fill="#F7A719"></path> <path d="M20269 23478c-60 110-98 219-126 306-28 14-101 39-217 21-7-1-14-2-22-4-117-21-237-63-294-85 4-136-51-415-84-527 0 0 162 86 310 126 113 30 449 131 449 131m-791-327s86 458 63 631c0 0 170 71 338 101 8 2 16 3 23 4 175 27 267-36 267-36s76-326 146-383l-837-317Z" fill="#A22216"></path> <path d="M20293 23435c-24-8-60-23-95-38-67-28-160-67-269-102-202-64-326-124-378-158 80 2 235 36 400 88 192 61 311 151 342 210Z" fill="#FEC82B"></path> <path d="M19639 23164c13-24 263 53 313 68 61 19 304 124 281 154-18 24-237-80-295-99-65-14-312-99-299-123Zm-93-60c-30 0-48 5-51 15-12 37 179 130 425 208 209 66 351 146 396 146 8 0 13-2 15-8 20-63-123-193-369-271-179-57-338-90-416-90Zm116 139 38 210 30-173-68-37Z" fill="#A22216"></path> <path d="M20049 23374s-102 215-77 285c0 0 101-257 180-267l-103-18Z" fill="#A22216"></path> <path d="m20256 25300 179-67 24 89-180 50-23-72Zm-640-1379s402 125 700 80c0 0-363 113-700-80Z" fill="#FEFFFD"></path> <path d="M19212 24270s-35 463 1355 382l-42-270s-841 21-1150-223l-163 111Z" fill="#5D1023"></path> <path d="M19212 24248s-35 464 1355 383l-42-270s-841 21-1150-223l-163 110Z" fill="#253163"></path> <path d="M21049 24361s617 0 1280 112l-22 277s-707 308-1257-49l-1-340Z" fill="#5D1023"></path> <path d="M21086 22796s212 1063 170 1660c-42 597-105 1803-82 1827 0 0 679 155 960 0 0 0-66-1863 0-2263s173-1224 173-1224h-1221Z" fill="#fff"></path> <path d="M21760 26383c-285 0-590-69-593-70l-9-2-6-7c-12-13-24-26 9-721 18-372 44-825 66-1129 41-586-167-1642-169-1652l-7-36h1292l-5 34c-1 8-108 829-173 1225-64 393 0 2239 1 2257l1 19-16 9c-90 48-220 73-391 73Zm-560-125c71 15 323 64 560 64 149 0 264-19 342-57-7-209-61-1868 1-2250 57-349 147-1029 169-1189h-1150c36 192 200 1100 163 1632-39 574-94 1648-85 1800Z" fill="#1C2E53"></path> <path d="M21711 22935c-363 0-595-82-595-139s232-139 595-139c363 0 595 82 595 139s-231 139-595 139Z" fill="#fff"></path> <path d="M21711 22688c350 0 534 73 563 109-28 35-213 108-563 108s-534-73-563-108c29-36 214-109 563-109Zm0-61c-345 0-625 76-625 169 0 93 280 169 625 169s625-76 625-169c1-93-279-169-625-169Z" fill="#1C2E53"></path> <path d="M21711 22797c-303 0-468-69-468-105 0-35 165-105 468-105s468 69 468 105c1 36-165 105-468 105Z" fill="#fff"></path> <path d="M21711 22618c240 0 388 45 430 74-42 29-190 74-430 74s-388-45-430-74c42-29 190-74 430-74Zm0-60c-275 0-499 61-499 135 0 74 223 135 499 135 275 0 499-60 499-135 0-75-223-135-499-135Z" fill="#1C2E53"></path> <path d="M21711 22699c-170 0-261-36-276-53 15-17 106-53 276-53 170 0 261 36 276 53-14 18-105 53-276 53Z" fill="#fff"></path> <path d="M21711 22624c90 0 159 11 203 23-44 12-113 23-203 23-90 0-160-11-203-23 44-13 113-23 203-23Zm0-61c-170 0-307 37-307 83 0 46 138 83 307 83 170 0 308-37 308-83 0-46-138-83-308-83Zm-424 130h-61v171h61v-171Zm930 0h-61v171h61v-171Z" fill="#1C2E53"></path> <path d="M22050 22646h-61v113h61v-113Zm-592 0h-61v113h61v-113Zm180 318 37 274 95-274h-132Zm-371 3338 43-257 49 273-92-16Zm497 50v-451l125 451h-125Zm-115-1721c-251 0-389-82-398-87l31-52c3 2 299 174 814-3l20 57c-183 64-340 85-467 85Z" fill="#1C2E53"></path> <path d="M21051 24385s400 404 1292 109l-35 318s-661 313-1211-44l-46-383Z" fill="#5D1023"></path> <path d="M21036 24345s239 405 1329 129l-36 307s-730 316-1280-41l-13-395Z" fill="#253163"></path> <path d="M23384 24224c59-11 143-16 224-14 125 3 204 27 259 79 45 41 69 103 68 173-3 119-79 196-175 227v4c69 26 109 91 129 185 27 126 46 214 65 249l-121-3c-14-26-33-103-56-217-24-125-71-173-177-179l-110-2-8 391-116-2 18-891Zm108 413 119 2c125 2 205-64 207-167 3-116-81-169-204-173-56-1-97 3-116 8l-6 330Z" fill="#937031"></path> <path d="M25958 27000s512-423 961-915c0 0-414 1958 781 2378 0 0-423 105-754 19 0 0-84-29-189-159-96-118-103-396-490-1012-169-267-258-271-309-311Z" fill="#2C4383" opacity=".7"></path> <path d="M28808 15225s848 2274 436 4420l-215 888s114-3390-597-5223l376-85Z" fill="#1E2342"></path> <path d="m23962 14377-102 16524 582 4 102-16524-582-4Z" fill="#5D1023"></path> <path d="m24139 14331-102 16524 582 4 102-16524-582-4Z" fill="#FAC401"></path> <path d="M25123 23912c95-437 304-475 1595-437 1291 38 1614-437 1671-1367 304 418 1101 608 1481 816 380 209 816 513 816 513l-133-1025c740 114 1747 1215 1747 1215s114-702-418-1671c1310-114 1709 570 2183 1462 285-1500-285-3019-421-3284-136-266-528-702-319-646 209 57 434 374 738 469 304 95 591 120 591 120s-2126-1804-2563-2031c-437-228-532-285-304-399 228-114 1082 247 1082 0s-2658-1687-2658-1687l-286-97c2390 315 3951 1300 5165 3146 1225 1909 981 3364 981 3364s-404-369-1174-1053c842 2734-825 3747-1537 4003 228-627 33-1948-338-2376 684 1823-884 2324-884 2324s-238-1183-817-2106c-85 1596-472 1702-472 1702l-852-1588 21 925s-70 33-1239-594c-1482 741-3002 488-3002 488s-42-102 556 468c-332 133-601 5-977-96-471-352-305-224-233-558Z" fill="#5D1023"></path> <path d="M25123 23647c95-437 304-475 1595-437 1291 38 1614-437 1671-1367 304 418 1101 608 1481 816 380 209 816 513 816 513l-133-1025c740 114 1747 1215 1747 1215s114-702-418-1671c1310-114 1709 570 2183 1462 285-1500-285-3019-421-3284-136-266-528-702-319-646 209 57 434 374 738 469 304 95 591 120 591 120s-2126-1804-2563-2031c-437-228-532-285-304-399 228-114 1082 247 1082 0s-2658-1687-2658-1687l-286-97c2390 315 3785 1374 4999 3221 1225 1909 1083 3334 1083 3334s-541-513-1311-1197c798 2906-484 3846-1197 4103 228-627-228-2080-598-2507 684 1823-712 2507-712 2507s-228-1254-940-2137c-85 1596-399 1681-399 1681l-912-1596v1054l-1168-627c-1482 741-2992 399-2992 399s142 199 741 769c-332 133-703 187-1079 86-472-352-389-708-317-1041Z" fill="#87391E"></path> <path d="M23718 20590c1063 0 5696 589 6246 762 551 173 2108 271 2240-192 132-463 267-217 627-19 351 193 627 263 813 171-298-2017-1323-2017-1422-2282-99-265 265-66 331-265 66-198-1653-1422-2096-1653-442-231-219-231-21-562s-1091-855-1091-855l-336-98c-11-13-22-28-32-40l-8-43c336 16 653 45 956 84l286 97s2658 1440 2658 1687c0 247-854-114-1082 0-228 114-133 171 304 399 437 228 2563 2031 2563 2031s-288-25-591-120c-304-95-529-412-738-469-209-57 183 380 319 646 136 266 706 1785 421 3284-475-892-873-1576-2183-1462 532 968 418 1671 418 1671s-1006-1101-1747-1215l133 1025s-437-304-816-513c-380-209-1177-399-1481-816-57 930-380 1405-1671 1367-1291-38-1500 0-1595 437-73 334-155 690 318 1042-269-72-540-223-802-485-1539-114-1710-712-1567-1311-741-570-370-1425-370-1425s-279-369-278-784c218-109 610-94 1294-94Z" fill="#A04C21"></path> <path d="M22701 20073c166-151 737-256 1488-328 1979-113 4506-172 8137 58-362-473-2560-3246-3316-4205l336 98s1290 524 1091 855c-198 331-421 331 21 562s2162 1455 2096 1653c-66 198-430 0-331 265 99 265 1124 265 1422 2282-186 92-462 23-813-171-360-198-494-444-627 19-132 463-1690 365-2240 192-551-173-5183-762-6246-762-684 0-1076-15-1295 95 0-207 69-424 277-613Z" fill="#C26B34"></path> <path d="M23937 19771c2084-202 5842-143 5842-143l-761-4031c719 912 2942 3725 3309 4205-2548-185-6174-292-8390-31Z" fill="#F6A243"></path> <path d="M25562 22044s-1111 251-1130 1192c-8 397-37 763 603 1279-516-688-470-870-444-1266 33-491 243-914 971-1205Zm-1405-1350s-1475 811-1532 898c-57 87-9 815 522 1285 209-70 309-118 309-118s-258-21-434-386c-212-439-145-586-4-782 142-194 1139-897 1139-897Zm273-947s-1733-122-1881 787c-63 410 136 841 136 841l157-92s-280-410-118-799c162-389 698-612 1706-737Z" fill="#E89E47"></path> <path d="M24157 20694s-1555 585-1612 680c-57 95-169 1062 362 1574 209-76 309-129 309-129s-258-23-434-421c-212-479-145-640-4-853 141-213 1379-851 1379-851Z" fill="#5D1023"></path> <path d="M24290 19747s-1733-122-1881 787c-63 410 136 841 136 841l157-92s-280-410-118-799c161-389 699-612 1706-737Z" fill="#5D1023"></path> <path d="m24396 21967-1364 982s-52 976 1142 1200c-531-250-1016-697-938-1166 568-454 1160-1016 1160-1016Z" fill="#E89E47"></path> <path d="m24396 21960-1489 988s90 1023 995 1141c-531-250-904-672-825-1141 594-421 1319-988 1319-988Zm1410 1881c-188-54-336-119-510-192 197 331 567 528 1000 480-158-127-318-126-464-274-18 5-39-14-26-14Zm-244-1797s-1251 183-1270 1125c-8 397-4 754 635 1270-516-688-503-861-476-1257 32-491 383-847 1111-1138Z" fill="#5D1023"></path> <path d="M24290 19747c334-36 668-57 1003-83 335-20 670-36 1005-52 670-30 1341-42 2011-46 671-5 1344 15 2013 60 335 22 669 46 1003 73 334 32 668 61 1001 103l-2010-53c-670-15-1337-31-2007-22l-4019 20Z" fill="#E89E47"></path> <path d="m29052 15225-273 57c526 2296 490 3548 410 4293l180 5c419-1906-317-4355-317-4355Z" fill="#4F88C4"></path> <path d="M17934 15899s-901 2674-679 4747c480-708 385-3312 995-4747h-316Z" fill="#1E2342"></path> <path d="m17934 15963-291 180s-860 2407-388 4504c0-1 92-2651 679-4684Z" fill="#4F88C4"></path> <path d="M15047 17060s83 14 570-308c1007-666 3351-1472 6079-413 41 16 57-109 99-95 0 0-849-1797-1405-2045-556-249-3926 186-5343 2861Z" fill="#5D1023"></path> <path d="M15047 17060s1545-594 4332-686c1056-35 2864 832 3924 133 37-24 237-588-164-286 0 0-2291-1726-2847-1974-556-250-3828 138-5245 2813Z" fill="#5D1023"></path> <path d="M15047 17060s1612-612 3853-818c1308-120 3592 897 4371 257 34-28-129-140-87-126 0 0-2336-1978-2892-2226-556-248-3828 238-5245 2913Z" fill="#C51530"></path> <path d="M18643 14287s-1190 356-2038 986c-1271 944-1558 1788-1558 1788s781-1588 3596-2774Z" fill="#F29BB1"></path> <path d="M26107 15556s3483 26 5652 679c377 114 726 179 998 339 0 0-1814-2109-5346-2763l-1304 1745Z" fill="#5D1023"></path> <path d="M23271 16560c1441 964 6606-1274 9487 74 0 0-1608-2219-5140-2873 0 1-5422 2081-4347 2799Z" fill="#5D1023"></path> <path d="M23271 16499c1240 619 6606-1274 9487 74 0 0-1608-2219-5140-2873 0 1-5504 2222-4347 2799Z" fill="#E72D50"></path> <path d="m18217 1347-1185 5224s1089 1373 7313 1326c6224-47 5179-944 5179-944l-1393-5296-2485-701-3757-300-3672 691Z" fill="#8A2412"></path> <path d="m17199 6619 1194-5111 3367-645-852 6483s-3122-532-3709-727Z" fill="#E84610"></path> <path d="m21903 870-713 6513s2398 460 4530-89l42-6110-3859-314Z" fill="#EC661D"></path> <path d="m25916 1280 61 5975s2678-307 3261-575l-1276-4927-2046-473Z" fill="#F07F2B"></path> <path d="m27962 1754-2046-474 62 5976 163-5723 1821 221Zm-6771 5647 712-6531 3860 315-3578-24-994 6240Z" fill="#F9B656"></path> <path d="M13546 1979s804 5362 6801 5347c0 0 1437 500 3402 574 1564 59 5140-934 6721-1789 2280-1232 3640-1227 3987-1000 0 0-3007 1145-2964 2983 44 1838 1059 3008-418 5174 0 0 226-491-416-1778 0 0 507 2295-2151 3982 0 0 65-832-23-1147 0 0-1342 2111-5858 2172-2873 39-3547-1608-3547-1608l180 918s-1816-732-1973-2426c0 0-483 665-304 1439 0 0-2656-1559-1524-3722 0 0-1057 698-1139 1273 0 0-1576-3061 1112-4491 0 0-1903-933-2434-2623 0 0 696 856 1301 1024 0 1-1801-2455-753-4302Z" fill="#D7762E"></path> <path d="M21553 14846s-151 428 418 847c0 0-31-240 191-438 0 0 184 785 1083 994 0 0-924-410-971-1185 0 0-313 104-394 400 0 0-249-154-327-618Z" fill="#88391E" opacity=".7"></path> <path d="M16916 6621s6187 1013 6728 3709c0 0 96-2730 5810-3680 0 0-4341 826-5833 888-2273 93-6705-917-6705-917Zm-3279-4642s-1134 1769 753 4303c0 0-531-163-1301-1024 0 0 467 2167 2786 2728 0 0-1032-529-1632-1279l963 70s-2061-2917-1569-4798Z" fill="#5D1023"></path> <path d="M15524 7882s-2573 1221-1112 4491c0 0 135-504 1139-1273 0 0-1328 1928 1524 3722 0 0-175-716 304-1439 0 0 40 1614 1973 2426 0 0-186-505-156-794 0 0 848 1661 4302 1478 0 0-3143 158-4415-1926 0 0-176 245-118 854 0 0-1457-811-1364-2368 0 0-723 254-750 1244 0 0-2169-1237-1019-3494 0 0-548-31-1406 1144 0-1-1029-2505 1098-4065Z" fill="#5D1023"></path> <path d="M16613 6423s28 18 84 44c53 29 139 60 244 104 105 43 238 86 386 142 151 50 322 106 507 167 188 56 391 115 605 183 214 66 444 124 678 194 117 33 237 68 358 103 122 32 245 64 369 99 248 69 500 138 752 208 251 70 510 149 754 243 246 93 482 205 701 330 218 127 421 265 593 420 178 148 324 314 447 473 122 161 219 317 290 464 19 36 37 71 54 104 15 35 28 69 41 102 25 65 49 125 70 179 36 110 55 199 73 258 16 59 24 91 24 91s-13-30-39-86-60-139-109-242c-28-50-58-105-91-165-17-30-34-61-51-93-21-31-42-62-64-95-83-133-194-272-320-415-33-35-67-70-101-106-17-18-35-36-52-54-19-17-38-33-58-50-77-68-154-141-244-204-171-136-371-252-580-367-211-112-442-204-677-293-238-88-482-159-736-227-252-73-504-146-752-217-249-70-491-148-725-226-234-77-460-152-672-231s-411-156-594-229c-182-78-348-151-493-217-144-72-270-133-370-191-100-58-178-104-228-141-50-36-74-59-74-59Z" fill="#F9B656"></path> <path d="M30192 7856s1369-2780 4356-2744c0 0-975 642-1804 1274-783 597-1261 1330-1112 2185 0 0-538-658-1440-715Zm-6548 2473s1-29 10-82c3-27 10-60 18-98 9-38 17-83 34-131 16-48 31-102 52-161 24-57 49-118 77-183 27-66 67-130 103-202 19-35 39-71 59-108 23-35 47-70 71-107 50-72 96-152 156-225 60-73 123-148 187-226 63-79 142-146 215-223 75-75 150-153 238-219 85-69 172-139 260-210 86-73 186-129 281-194 97-62 192-129 293-187 102-55 205-110 308-165l155-81 78-40 80-34c107-45 213-90 318-134 106-44 209-92 315-126 107-34 212-67 315-101 207-65 405-134 601-172 193-45 377-84 546-120 168-42 327-54 465-75 458-37 685-156 685-156-25 22-121 111-314 165-97 26-214 58-349 95-134 38-288 69-450 125-163 52-339 109-526 164-189 51-378 134-578 203-100 36-201 74-304 111-52 17-100 43-151 65-50 22-101 44-152 67-102 45-204 89-307 134l-77 34-74 40-149 80c-100 52-200 104-299 155-98 54-189 118-283 175-47 29-93 59-139 88-47 28-94 56-136 90-87 64-172 128-257 190-88 59-160 132-238 197-75 68-155 127-220 198-67 69-131 137-194 202-65 64-114 136-170 200-27 33-53 64-78 96-23 33-45 65-67 97-43 64-89 121-123 181-34 60-67 115-97 167-28 53-51 102-73 147-41 90-72 163-88 213-20 53-27 81-27 81Z" fill="#C84F17"></path> <path d="M32082 10891c-6-97-15-193-28-289-26-192-66-381-112-567-46-186-99-370-150-554-52-184-99-368-129-558 33 382 138 754 210 1127 36 187 66 375 81 563 8 94 12 188 13 282 0 94-4 188-11 281l-15 140-21 139c-16 92-36 183-60 273-25 90-52 179-84 267-31 88-67 174-105 259-38 85-81 168-125 251-47 81-90 164-142 242-49 80-101 158-155 234-4 6-9 12-13 19-4-22-7-45-10-67-8-54-19-107-28-161-10-54-20-107-32-160s-23-107-37-160l-41-159c-105-364-213-599-326-760 0 0 13 713 12 755-1 84-10 169-22 253-12 84-32 168-54 251-23 83-49 165-80 246-31 81-65 160-103 239-38 78-79 155-123 231-45 75-90 150-141 222-48 73-102 143-154 213a5460.3 5460.3 0 01-347 400c-60 65-125 126-187 189l-196 181a8447.6 8447.6 0 01-412 340l-207 154c2-87 3-173 1-259 0-90-6-180-11-270-6-90-15-180-23-269l-26-319-199 257c-69 89-159 184-247 270-90 87-184 171-282 250-98 80-198 156-301 230a5583 5583 0 01-316 210 5105 5105 0 01-329 190 6027 6027 0 01-341 171l-174 79-176 74c-118 48-237 95-358 136-120 43-242 82-365 119-122 38-246 70-370 102-125 30-248 63-374 88l-189 39-190 33c-126 24-254 40-381 59-128 19-256 29-384 45l-385 33-386 22 387 7c129-2 259-3 388-8 129-8 259-12 388-24s259-21 387-38l193-23 192-30c129-18 256-45 384-68 127-28 254-56 380-89 126-33 252-67 376-107 125-37 248-81 371-125l183-69 181-76c119-53 239-107 356-167 117-59 233-121 346-187 114-65 225-136 335-209 110-73 216-151 320-233 104-81 204-168 301-259 25-23 48-46 72-70 2 76 5 152 4 228 1 86-3 172-6 258-3 43-4 86-8 128-3 42-7 86-12 123l-38 298 245-169 226-157 222-163a8396 8396 0 00 429-350l205-187c65-65 134-128 196-197 128-134 249-276 363-424 55-75 112-149 163-228 53-77 101-158 149-238 46-82 90-165 131-250 40-85 77-172 110-261 33-89 62-180 86-272 5-21 9-43 14-64l6 24c11 52 24 103 34 155 10 52 21 103 29 155 9 51 18 105 24 154l37 269 150-217c56-80 114-157 167-239 54-81 106-163 155-248 51-83 95-171 140-257 43-88 84-176 120-267 37-90 71-182 100-275 31-93 55-188 78-283 21-96 38-192 52-289l16-146 8-146c11-101 10-199 5-296Z" fill="#5D1023"></path> <path d="M29706 10979c12 1477-1176 2684-2652 2696-1477 12-2684-1175-2696-2652-12-1477 1175-2684 2652-2696 1476-13 2684 1175 2696 2652Z" fill="#C84F17"></path> <path d="M29570 10840c11 1399-1114 2543-2513 2555-1399 11-2543-1114-2555-2513-11-1399 1114-2543 2513-2555 1399-12 2543 1113 2555 2513Z" fill="#68311C"></path> <path d="M29511 11048c11 1366-1087 2483-2453 2494-1366 11-2482-1087-2493-2453-11-1366 1087-2482 2453-2494 1365-11 2482 1088 2493 2453Z" fill="#fff"></path> <path d="M22825 11035c12 1477-1176 2684-2653 2696-1477 12-2684-1175-2696-2652-12-1477 1176-2684 2652-2696 1477-12 2684 1175 2697 2652Z" fill="#C84F17"></path> <path d="M22688 10896c12 1399-1114 2543-2513 2554-1399 11-2543-1114-2555-2513-12-1400 1114-2543 2513-2554 1400-12 2544 1113 2555 2513Z" fill="#68311C"></path> <path d="M22629 11105c11 1366-1087 2483-2453 2494-1366 11-2482-1087-2493-2453-11-1366 1087-2482 2453-2494 1366-12 2482 1087 2493 2453Z" fill="#fff"></path> <path d="M22337 10982c5 624-497 1135-1122 1140-625 5-1136-497-1141-1122-5-625 497-1136 1122-1141 625-4 1136 498 1141 1123Z" fill="#020203"></path> <path d="M21483 11004c1 112-89 203-201 204-111 1-203-89-203-201a202.1 202.1 0 11 404-3Z" fill="#fff"></path> <path d="M27444 10963c5 624-497 1135-1122 1140-625 5-1136-497-1141-1122-6-625 497-1136 1122-1141 625-5 1135 498 1141 1123Z" fill="#020203"></path> <path d="M26590 10985a202 202 0 01-200 204c-111 1-203-89-203-200a202 202 0 01 200-204c111-2 202 88 203 200Z" fill="#fff"></path> <path d="M29412 6652s1404-638 2086-1003c682-365 2378-912 3050-537 0 0-1945 66-3788 1894 0 0 504-843 1500-1397 1 1-2047 1049-2848 1043Z" fill="#F9B656"></path> <path d="M22488 13499s1011 1510 1298 2259c0 0 832-1744 897-2416l-2195 157Z" fill="#C84F17"></path> <path d="M23735 12285c873 2 931 943 947 1057 16 113-897 1993-897 1993s-656-1343-1298-1836c1 0-28-1217 1248-1214Z" fill="#F8E91C"></path> <path d="M24857 12827s-66 871 521 950c0 0-407-302-521-950Zm-2398-41s-2 813-882 1094c-1 0 640-435 882-1094Z" fill="#5D1023"></path> <path d="m23785 13792-11-1509s-1216-64-1283 1098l1294 411Zm0 521v1022s-685-1365-1298-1836c1 0 851 230 1298 814Z" fill="#F19907"></path> <path d="M22117 13368s1181 442 1668 1346c0 0 529-1131 1208-1375 0 0-625-30-1208 454 0-1-1249-520-1668-425Z" fill="#5D1023"></path> <path d="M17188 11218s-1283-411-921-1873c0 0-921-72-915-843 6-772 503-875 503-875s-800-470-67-1496c0 0-989-256-166-1699 247-432 786-615 1052-692l7-53s903-1569 2074-958L19140 2900s666-1828 2995-1718c0 0 1256-1181 1947-1050 691 132 820 178 1034 972 0 0 780-662 1208-412 428 249 652 1394 1367 1493 715 98 1173 99 1321 607 149 508 236 1236 236 1236s501 168 909 703c0 0 864 102 922 609 59 507 95 1107 95 1107s-7 672-209 828c0 0 557 786 356 1286-200 500-227 640-227 640s413 113-49 952l-544 299s-42 1847-2139 1288c0 0 98 150 92 814 0 0 427 339 77 1413 0 0 175 1074-360 1586l-170 600s-226-87-278-140c0 0-216 365-598 650 0 0-358 509-765 434 0 0-852 1016-1975 970-798-32-1483-265-1483-265l-180 79s-224 94-355-47c-131-141-228-413-228-413s-260 85-599-171c-338-255-420-316-420-316s-88 130-189 45c-101-85-271-296-271-296s-701-318-777-761c0 0-712-423-804-1193 0 0-230-105-436-606 0 0-503-194-496-659 3 4-1156-1438-959-2246Z" fill="#fff"></path> <path d="M16395 8254c311 165 640 73 903-138 159-130-35-382-194-252-181 146-370 211-584 97-183-97-305 197-125 293ZM17800 7490c4-404 236-700 587-883 145-75 47-311-100-234-425 221-736 590-741 1086 0 160 253 195 254 31Zm-968 1352c471 29 849-171 1059-599 73-148-163-246-235-99-157 320-438 467-791 445-163-10-197 243-33 253Z" fill="#231F20"></path> <path d="M17225 7307c118-514 453-921 957-1092 156-53 56-288-100-234-592 201-973 696-1110 1294-37 160 216 192 253 32Zm-384-211c-30-562 226-1064 734-1323 145-74 48-310-100-234-616 314-924 909-887 1593 9 163 262 127 253-36Zm-402 170c-373-259-319-619 13-888 127-103-27-306-155-202-454 370-525 937-14 1292 134 93 290-108 156-202Z" fill="#231F20"></path> <path d="M15787 6131c-484 440-515 1126 67 1496 138 88 295-113 156-202-435-276-440-753-67-1092 121-110-34-313-156-202Zm-155 1521c-543 511-500 1391 271 1642 155 51 255-184 99-235-573-187-632-813-215-1205 120-111-35-315-155-202Z" fill="#231F20"></path> <path d="M15829 7863c-213 394-85 781 303 990 145 78 242-157 99-235-274-147-309-395-167-656 78-144-158-242-235-99Zm779-2105c-34-337 109-606 423-742 150-65 52-300-100-234-421 182-622 561-577 1013 19 162 271 127 254-37Z" fill="#231F20"></path> <path d="M15989 5742c-28-528 235-1073 776-1219 156-42 123-295-36-252-684 184-1030 825-992 1507 8 163 261 127 252-36Z" fill="#231F20"></path> <path d="M15547 5685c-204-783 229-1497 1010-1703 157-41 123-295-36-252-903 238-1468 1062-1227 1990 41 157 294 124 253-35Zm1365-2059c132-775 992-1168 1678-814 147 75 244-160 99-235-840-433-1872 89-2030 1016-28 162 225 195 253 33Z" fill="#231F20"></path> <path d="M17296 4126c115-492 532-755 1015-794 164-13 128-265-36-252-606 48-1092 412-1233 1013-36 160 217 191 254 33Z" fill="#231F20"></path> <path d="M17743 4771c-87-615 481-1067 1061-1048 163 5 197-248 33-253-743-24-1460 547-1347 1336 24 163 276 128 253-35Z" fill="#231F20"></path> <path d="M18393 4911c96-502 459-846 966-907 163-20 128-272-35-252-623 75-1067 514-1184 1127-31 161 222 193 253 32Zm1110-497c272 751-206 1744-1100 1339-150-68-248 167-99 235 1106 501 1780-715 1434-1673-55-154-291-55-235 99Z" fill="#231F20"></path> <path d="M19123 6381c887-263 1474-1113 1058-2009-69-148-305-51-234 100 363 781-168 1452-922 1674-158 47-57 281 98 235Zm119 565c-444 188-750 569-758 1061-3 162 250 197 253 33 7-406 237-704 605-860 150-64 51-299-100-234Z" fill="#231F20"></path> <path d="M18299 7769c55-573 527-962 1073-1065 161-30 127-282-36-252-653 122-1223 596-1289 1284-15 164 237 197 252 33Zm-1508 1448c756 352 1514-164 1595-966 16-163-236-197-253-33-64 640-635 1048-1243 764-148-69-247 166-99 235Z" fill="#231F20"></path> <path d="M17050 9700c709 254 1384-175 1659-838 64-152-172-251-235-99-220 528-748 909-1326 702-153-55-252 181-98 235Zm2058-2084c-249 293-308 647-174 1007 58 154 292 55 234-100-103-277-49-529 141-751 108-125-95-279-201-156Z" fill="#231F20"></path> <path d="M19006 8962c-174 609-685 1021-1331 975-163-12-198 241-33 253 750 55 1393-406 1599-1129 44-157-191-256-235-99Z" fill="#231F20"></path> <path d="M18061 10689c414-3 728-234 916-592 77-145-159-243-235-99-151 285-395 436-716 438-164 1-127 254 35 253Z" fill="#231F20"></path> <path d="M17834 11011c558 334 1069-44 1313-569 69-149-166-247-235-99-165 355-514 710-922 467-140-85-296 116-156 201Z" fill="#231F20"></path> <path d="M18545 11806c108-430 520-584 925-591 164-2 127-255-35-252-534 8-1008 270-1142 810-40 160 213 191 252 33Z" fill="#231F20"></path> <path d="M18650 12282c128-264 359-389 651-356 163 17 196-235 33-253-407-44-740 143-919 511-72 147 164 246 235 98Zm-1561-1630c-97 1030 354 1998 957 2807 99 132 300-24 202-155-561-752-997-1658-907-2619 16-162-237-197-252-33Z" fill="#231F20"></path> <path d="M16777 9957c-206 430-196 911 223 1203 135 94 291-108 156-202-328-227-302-572-145-902 72-149-163-247-234-99Z" fill="#231F20"></path> <path d="M16492 9611c-422 545-300 1200 305 1535 144 79 241-156 99-235-464-256-515-740-203-1144 102-130-100-286-201-156Z" fill="#231F20"></path> <path d="M16405 9124c-695 603-487 1553 256 2013 138 86 295-115 156-202-591-366-837-1105-257-1609 124-108-31-310-155-202Zm2275 4774c-589-360-282-1019 266-1221 155-57 55-291-100-234-719 265-1075 1199-323 1658 141 82 297-118 157-203Z" fill="#231F20"></path> <path d="M18712 13357c-243 509-106 1033 304 1406 122 111 277-92 156-202-329-298-417-703-226-1105 72-149-164-247-234-99Z" fill="#231F20"></path> <path d="M19119 14472c-140 628 97 1221 691 1499 149 69 247-166 99-235-498-232-652-718-538-1231 37-161-216-192-252-33Z" fill="#231F20"></path> <path d="M19772 15050c-146 683 80 1347 762 1616 153 60 252-175 99-235-581-229-731-775-608-1347 34-162-219-194-253-34Z" fill="#231F20"></path> <path d="M20299 15645c10 524 215 1014 635 1337 131 100 286-101 156-202-371-287-529-712-539-1171-3-163-256-126-252 36Z" fill="#231F20"></path> <path d="M20933 16370c42 476 327 863 767 1046 152 64 251-172 99-235-363-151-579-457-614-846-14-164-267-128-252 35Zm-1617-3123c80-295 288-466 598-449 163 9 197-244 33-253-415-23-756 193-866 602-42 158 193 258 235 100Z" fill="#231F20"></path> <path d="M19329 14007c48-434 387-673 812-644 163 11 197-242 33-253-561-38-1033 287-1097 863-19 164 235 197 252 34Zm321 461c119-399 463-586 868-542 163 17 196-235 33-253-508-55-984 190-1136 696-47 157 188 257 235 99Z" fill="#231F20"></path> <path d="M19901 14745c204-286 516-352 848-297 162 27 195-227 33-253-419-69-828 38-1084 394-94 135 107 290 203 156Zm625 274c20-132 103-195 233-210 163-18 128-270-36-252-242 26-414 188-450 430-25 162 228 195 253 32Zm566-274c-243 197-351 456-347 766 2 164 254 127 252-35-3-214 84-394 250-528 128-104-27-306-155-203Zm349 285c-171 265-257 551-258 866-1 162 252 197 253 33 1-268 61-516 208-744 88-135-114-293-203-155Zm200 829c-152 296-207 620-145 948 31 160 283 127 252-35-54-288-6-556 127-815 77-146-159-243-234-98Zm272 549c-106 310-164 621-145 948 10 164 263 128 252-35-17-282 36-549 127-815 54-154-181-254-234-98Zm303 467c-155 308-106 615 65 905 83 141 284-15 202-155-126-213-145-427-32-650 74-147-161-245-235-100Z" fill="#231F20"></path> <path d="M22490 17203c-27 246 39 474 186 672 98 133 300-24 202-155-106-144-154-305-135-484 17-164-235-197-253-33ZM19329 3118c187-689 634-1392 1375-1551 159-34 125-287-35-252-830 179-1362 921-1575 1705-42 156 192 256 235 98Z" fill="#231F20"></path> <path d="M20296 2602c206-681 789-1301 1543-1289 162 2 197-250 33-253-866-14-1567 641-1811 1444-48 155 187 254 235 98Z" fill="#231F20"></path> <path d="M20864 2706c15-219 122-391 322-489 146-72 49-308-100-234-276 137-453 381-475 691-10 163 243 196 253 32Zm841-832c715-729 2841-2788 3159-734 25 162 277 127 252-35-372-2403-2748-270-3613 612-115 118 89 273 202 157Z" fill="#231F20"></path> <path d="M23003 1297c400-393 1134-826 1538-207 90 138 291-18 202-155-483-740-1388-336-1894 160-118 114 36 318 154 202Z" fill="#231F20"></path> <path d="M23620 1485c115-94 255-187 409-136 153 51 226 241 265 381 43 156 296 123 252-35-67-244-177-473-418-580-231-104-486 23-664 169-126 103 30 306 156 201Zm1783-367c263-196 611-445 925-216 198 145 310 420 421 630 196 370 417 763 843 889 156 46 257-189 99-235-596-176-725-938-1088-1370-396-471-950-205-1356 100-131 98 25 300 156 202Z" fill="#231F20"></path> <path d="M26082 1286c-16 392 142 739 449 983 129 103 284-99 156-202-232-185-365-449-353-749 9-162-244-196-252-32Zm-404 312c2 430 198 792 550 1039 134 94 290-107 156-202-271-190-451-466-453-805-1-161-254-196-253-32Zm2479 960c782-158 878 741 845 1314-9 163 243 197 253 33 43-740-159-1796-1132-1599-162 32-128 285 34 252Z" fill="#231F20"></path> <path d="M27460 3249c602-541 1435-220 1553 574 24 162 276 127 252-35-144-971-1212-1412-1960-741-121 109 33 311 155 202Z" fill="#231F20"></path> <path d="M27767 3651c432-231 963-196 1224 263 80 141 316 43 234-100-328-574-990-703-1558-399-143 79-45 314 100 236Z" fill="#231F20"></path> <path d="M28312 4236c638-304 1263-64 1571 565 71 147 307 49 234-100-366-749-1138-1066-1905-701-147 72-48 307 100 236Zm-7982-180c539-372 1329-856 1922-330 124 109 278-93 156-202-689-613-1596-111-2233 329-136 94 21 296 155 203Zm1826-903c340 53 572 274 668 602 46 157 281 57 234-100-120-412-447-690-869-755-163-25-195 228-33 253Z" fill="#231F20"></path> <path d="M22806 2997c436 190 501 652 371 1068-49 156 186 255 235 99 173-550 65-1153-507-1402-151-65-249 169-99 235Z" fill="#231F20"></path> <path d="M21627 4288c714-538 731 889 1402 976 792 102 1484-535 1953-1101 105-127-97-282-202-156-332 400-720 739-1199 948-640 279-865-231-1091-689-242-493-607-492-1020-181-129 100 26 303 157 203Z" fill="#231F20"></path> <path d="M22723 4345c612 1033 1646 19 2083-633 91-137-111-293-201-156-341 510-1173 1488-1679 633-84-141-285 16-203 156Zm1384 1028c491-62 879-356 1140-767 87-137-113-295-202-156-228 358-544 617-974 671-162 19-127 271 36 252Zm1324-1387c-69 735 580 1234 1282 1105 161-30 127-282-35-252-533 98-1048-242-994-819 15-164-237-198-253-34Z" fill="#231F20"></path> <path d="M26115 4140c303 557 860 899 1501 768 160-33 126-285-35-252-524 106-981-154-1231-615-79-144-315-46-235 99Zm2336 1262c791-63 1165 689 947 1378-49 156 186 255 235 99 278-881-226-1809-1218-1730-163 14-127 266 36 253Zm1316 117c304 351 286 754 75 1148-78 145 158 242 235 99 252-470 250-988-107-1402-108-124-311 31-203 155Z" fill="#231F20"></path> <path d="M29780 5130c499 41 772 455 757 934-5 163 248 197 253 33 20-612-330-1165-976-1220-165-13-198 239-34 253Z" fill="#231F20"></path> <path d="M30258 4913c526 118 842 574 695 1106-43 157 192 257 235 99 192-700-196-1300-898-1457-159-36-191 218-32 252Zm37 1826c97 232 66 422-140 575-133 98 24 300 155 202 298-220 361-541 219-877-63-150-298-51-234 100Zm646-193c58 185 10 371-110 520-104 127 98 283 202 156 182-223 228-502 144-775-50-158-284-57-236 99Z" fill="#231F20"></path> <path d="M30924 7490c338 477 297 1082-29 1554-94 135 108 291 202 156 394-568 436-1291 30-1865-96-135-298 21-203 155Zm207 1906c-7 405-210 737-615 845-156 42-123 295 36 252 509-136 823-536 833-1065 1-160-252-196-254-32Z" fill="#231F20"></path> <path d="M30526 7589c338 380 286 847-49 1209-112 121 91 276 202 156 408-440 457-1062 49-1520-109-123-312 31-202 155Zm227 1587c-69 452-367 842-858 831-162-4-197 249-33 253 634 15 1052-448 1144-1050 24-163-229-197-253-34Zm-678-1244c116 343 48 655-204 914-115 118 89 272 202 156 318-327 383-745 238-1169-54-155-289-56-236 99Z" fill="#231F20"></path> <path d="M29255 7585c618 178 389 853 25 1181-121 109 33 312 155 202 495-445 739-1381-82-1618-155-46-256 189-98 235Zm-211 2379c246-124 446-293 579-537 79-145-157-242-235-99-98 182-261 309-443 401-145 74-48 309 99 235Zm-667 1768c652-146 1132-664 1147-1345 4-162-249-197-253-33-13 563-381 1003-931 1126-159 35-125 288 37 252Z" fill="#231F20"></path> <path d="M28900 11821c664-126 1109-642 1098-1321-2-164-255-127-252 35 9 536-365 937-880 1034-162 31-128 283 34 252Z" fill="#231F20"></path> <path d="M29548 11778c602-133 996-584 975-1209-6-164-257-127-252 35 16 479-303 821-759 922-158 34-125 287 36 252Zm-1487 41c226 108 344 308 352 556 6 164 257 127 252-35-11-337-204-610-506-756-148-71-245 164-98 235Z" fill="#231F20"></path> <path d="M28116 12478c408 324 562 791 431 1295-41 159 212 190 253 33 152-588-57-1154-529-1529-128-104-283 99-155 201Z" fill="#231F20"></path> <path d="M28167 13726c359 342 276 883 135 1307-51 155 183 255 235 99 183-549 239-1176-214-1608-118-113-273 90-156 202Zm-334 1068c147 417 122 790-20 1205 73-10 146-19 218-28-91-103-189-197-287-293-76-75-186 2-204 84-78 343-255 516-509 743l204 117c20-106 31-179-3-279-35-105-199-100-235 0-123 337-343 518-694 591-160 33-126 286 36 252 435-91 739-321 894-744h-235c3 50-2 99-15 148-19 106 121 191 204 117 307-272 513-504 606-912l-204 84c84 79 163 162 241 247 59 66 185 68 219-28 164-481 191-920 20-1403-56-156-291-57-236 99Zm-6744-5908c834-460 1708-636 2504 5 128 103 283-99 156-202-866-697-1838-546-2759-38-142 79-45 314 99 235Zm2586 3454c-299 292-417 852 124 987 339 84 618 177 921 373 62 41 148 74 225 69 334-20 652-241 921-431 188-133 229-312 217-526-10-202-188-504-230-693-66-300-97-609-140-913-96-671-516-1416 82-1937 680-591 1595-387 2229 133 127 104 283-98 156-202-510-418-1152-689-1819-489-384 115-1193 494-1181 1008 10 428 162 867 242 1289 86 456 82 962 238 1401 75 211 275 506 51 726-196 193-699 450-965 277-179-115-147-115-337-215-71-20-143-37-215-52-305 9-425-193-363-605 115-111-39-315-156-200Zm-2061-2678c572-391 1447-403 1614 432 32 160 285 126 252-35-84-418-362-742-762-888-431-157-907 49-1260 290-135 92 21 293 156 201Z" fill="#231F20"></path> <path d="M21701 9973c512-393 1341-621 1574 179 45 158 281 57 234-100-280-965-1325-772-1964-282-129 101 26 303 156 203Z" fill="#231F20"></path> <path d="M22215 9606c-31 294 49 596 331 736 296 147 609-81 774-313 95-133-107-289-202-156-98 137-256 302-444 245-199-59-225-308-207-479 18-163-235-196-252-33Z" fill="#231F20"></path> <path d="M22595 9686c-28 99-33 194 46 271 74 73 188 51 276 23 66-21 93-107 68-167-29-68-101-89-168-68-11 4-22 6-33 7 19-3-23-8 7 3 19 7 33 27 38 47-4-18-5 2 1-17 19-67 2-138-68-167-58-24-149 1-167 68Zm-411 1047c332 158 686 168 1034 57 157-49 56-284-100-234-284 90-568 70-836-58-147-71-246 165-98 235Zm3894-855c602-293 1291-76 1505 578 51 156 286 57 234-100-256-781-1118-1064-1839-714-146 72-47 308 100 236Z" fill="#231F20"></path> <path d="M25950 10564c372-563 1252-837 1636-130 78 143 314 45 235-99-470-865-1581-674-2073 72-90 138 111 295 202 157Z" fill="#231F20"></path> <path d="M26333 10057c-24 326 109 637 457 700 345 62 639-230 738-532 51-155-183-255-235-99-65 198-195 360-412 382-237 24-308-233-294-418 10-163-242-197-254-33Z" fill="#231F20"></path> <path d="M26670 10135c7 75 34 154 110 186 81 34 161-9 219-65 49-48 69-118 24-179-39-50-129-72-179-24-9 10-18 18-28 26-32 28 15-7 31-3 21 8 41 17 61 25 32 20 21 54 16-3-17-162-269-126-254 37Zm-4016 3957c-75 67-99 150-113 248-22 163 231 196 253 33 2-17 1-66 16-79 52-47 68-121 24-179-41-52-128-70-180-23Z" fill="#231F20"></path> <path d="M22737 14476c676 523 1372-241 2056 160 140 82 298-119 156-202-296-174-576-216-912-148-414 84-761 285-1144-12-130-101-285 101-156 202Z" fill="#231F20"></path> <path d="M25049 14692c515-314 837 246 1351 209 164-12 127-265-36-252-263 19-484-192-719-281-266-102-520-18-752 123-139 85 17 286 156 201Z" fill="#231F20"></path> <path d="M23116 14675c568 43 1127 228 1667 406 114 37 258-16 372-34 413-66 829-116 1246-146 163-12 127-264-36-252-457 33-1263 268-1596 161-522-169-1070-346-1619-387-164-12-198 241-34 252Zm685 916c577 269 1240 314 1811 8 143-77 46-313-100-234-516 275-1092 234-1613-9-149-69-247 166-98 235Zm332 1034c352-501 1042-370 1481-61 134 94 290-107 156-202-551-386-1403-513-1839 106-94 135 107 291 202 157Z" fill="#231F20"></path> <path d="M27435 5621c1028 943 995 2226 788 3503-198 1226-439 2433-594 3666-163 1300-377 2641-1095 3765-400 626-1018 1146-1748 1321-684 164-1399-122-2008-407-149-69-247 166-99 235 1312 613 2511 633 3590-421 984-961 1305-2423 1511-3729 241-1527 478-3053 724-4580 213-1321 120-2606-915-3555-120-111-275 92-154 202Z" fill="#231F20"></path> <path d="M19451 33659s589-178 707-65c117 113-328 281-583 469l-368-272 244-132Z" fill="#5D1023"></path> <path d="M19451 33589s589-178 707-65c117 113-328 281-583 469l-368-272 244-132Z" fill="#CF5C15"></path> <path d="M28014 33659s-589-178-707-65c-117 113 328 281 583 469l368-272-244-132Z" fill="#5D1023"></path> <path d="M28051 33632s-589-178-707-65c-117 113 328 281 583 469l368-272-244-132Z" fill="#CF5C15"></path> <path d="m19414 33845 854-5155-644-112-800 5163-6-1s-1579 269-1658 685c-32 168 168 307 501 312 161 3 278 25 513-96 0 0 30 315 502 315 364 0 428-202 428-202s253 196 600 52c134-56 215-211 107-443-34-77-397-518-397-518Z" fill="#5D1023"></path> <path d="m19495 33774 854-5155-644-112-800 5163-6-1s-1579 269-1658 685c-32 168 168 307 501 312 161 3 278 25 513-96 0 0 30 315 502 315 364 0 428-202 428-202s253 196 600 52c134-55 215-210 107-443-34-77-397-518-397-518Z" fill="#E3700C"></path> <path d="M18255 34570s-1-383 326-560c0 0-489 0-592 651 0 1 243-37 266-91Z" fill="#CF5C15"></path> <path d="M17631 34024s487-196 923-13c0 0 229-30 494 60 0 0 194-347 259-402l850-5083-452-78-806 5162c0-1-1042 204-1268 354Z" fill="#CF5C15" opacity=".7"></path> <path d="M17631 34024s329 113 403 312c0 0-93-336-276-373l-10 2-117 59Zm388-147s149 84 197 284c0 0-10-242-87-314l-110 30Zm324-87s102 101 86 229c0 0 56-193-8-249l-78 20Zm917 427s159-266 443-254l43 48s-197-4-486 206Zm591-67s-437 74-516 220c0 0 375-169 555-153l-39-67Zm-311-340s-239 19-332 153c0 0 282-100 416-79l-84-74Zm-1088 407s483-212 756 120c-1-1-358-203-756-120Z" fill="#E84610"></path> <path d="M18409 34101s444-292 756 81c0 1-357-163-756-81Zm-42 329s521-253 840 63c0 0-420-194-840-63Zm1904-5060-508 4 464 98 44-102Zm-42 727-568-44 506 186 62-142Zm-293 1031-505 81 470 75 35-156Zm-197 979-395 47 414 23-19-70Z" fill="#E84610"></path> <path d="m19495 33774 1017-5116-162-39-934 5163c16-1 63-7 79-8Z" fill="#F6A557"></path> <path d="M19495 33774s679 503 391 896c0 0 140-404-466-908l75 12Zm-446 327s166 268 158 408c-7 140 7 345-449 376 0 0 341-32 343-349 2-316-52-435-52-435Z" fill="#F6A557"></path> <path d="M19049 34071s211 399 94 664c0 0 276-366-94-664Z" fill="#CF5C15"></path> <path d="m27980 33845-974-5179 764-87 800 5163 6-1s1579 269 1658 685c32 168-168 307-501 312-161 3-278 25-513-96 0 0-30 315-502 315-364 0-428-202-428-202s-253 196-600 52c-134-56-215-211-107-443 34-78 397-519 397-519Z" fill="#5D1023"></path> <path d="m28061 33774-874-5292 662 8 802 5180 6-1s1579 269 1658 685c32 168-168 307-501 312-161 3-278 25-513-96 0 0-30 315-503 315-364 0-428-202-428-202s-253 196-600 52c-134-55-215-210-107-443 35-77 398-518 398-518Z" fill="#E3700C"></path> <path d="M29300 34570s1-383-326-560c0 0 489 0 592 651 0 1-242-37-266-91Z" fill="#CF5C15"></path> <path d="M29925 34024s-487-196-924-13c0 0-229-30-494 60 0 0-194-347-259-402l-850-5179 453 17 806 5162s1041 205 1268 355Z" fill="#CF5C15" opacity=".7"></path> <path d="M29925 34024s-329 113-403 312c0 0 94-336 276-373l10 2 117 59Zm-388-147s-149 84-197 284c0 0 10-242 87-314l110 30Zm-324-87s-102 101-86 229c0 0-56-193 8-249l78 20Zm-917 427s-159-266-443-254l-43 48s196-4 486 206Zm-591-67s437 74 516 220c0 0-375-169-555-153l39-67Zm311-340s239 19 332 153c0 0-282-100-416-79l84-74Zm1088 407s-483-212-756 120c0-1 358-203 756-120Z" fill="#E84610"></path> <path d="M29147 34101s-444-292-756 81c0 1 357-163 756-81Zm42 329s-522-253-840 63c0 0 420-194 840-63Zm-1904-5060 508 4-464 98-44-102Zm42 727 568-44-506 186-62-142Zm293 1031 505 81-470 75-35-156Zm197 979 395 47-414 23 19-70Z" fill="#E84610"></path> <path d="m28061 33774-1055-5311 182 19 953 5300c-18-1-64-7-80-8Z" fill="#CF5C15"></path> <path d="M28061 33774s-679 503-391 896c0 0-140-404 466-908l-75 12Z" fill="#CF5C15"></path> <path d="M28507 34101s-166 268-159 408c7 140-7 345 449 376 0 0-341-32-343-349-1-316 53-435 53-435Z" fill="#F6A557"></path> <path d="M28507 34071s-211 399-94 664c0 0-277-366 94-664Z" fill="#CF5C15"></path> <path d="M28657 33669h-58l-900-5183 150 4 808 5179Z" fill="#F6A557"></path> <path d="M28609 33624s1338 211 1580 552c0 0 140 144 47 272 0 0 66-84-146-277-213-193-1481-547-1481-547Z" fill="#F6A557"></path> <path d="M25863 19997c-598 1147-1364 94-1364 94 809 551 1365-94 1364-94Zm-497 1195c-631 1130-1366 54-1366 54 793 575 1366-54 1366-54Zm2830 153c-597 1148-1364 95-1364 95 809 551 1364-95 1364-95Zm-1316 667c-552 1171-1360 149-1360 149 830 518 1360-149 1360-149Zm1274-1891c-627 1132-1366 59-1366 59 795 573 1366-59 1366-59Zm2100 87c-633 1129-1367 52-1367 52 792 576 1367-52 1367-52Zm2477-441c-274 1265-1291 450-1291 450 926 320 1292-450 1291-450Zm-1105 883c-492 1197-1350 216-1350 216 856 477 1350-217 1350-216Z" fill="#88391E" opacity=".6"></path> </g> <defs> <clipPath id="a"> <path d="M0 0h36091v35187H0" fill="#fff"></path> </clipPath> </defs> </svg> 