<svg width="286" height="365" viewBox="0 0 286 365" fill="none" xmlns="http://www.w3.org/2000/svg">
<mask id="mask0_2013_52856" style="mask-type:luminance" maskUnits="userSpaceOnUse" x="0" y="0" width="285" height="363">
<path d="M0 0H284.253V362.814H0V0Z" fill="white"/>
</mask>
<g mask="url(#mask0_2013_52856)">
<path d="M5.67634 155.18C5.67634 155.18 3.71145 154.306 3.92977 153.213C3.92977 152.12 5.02137 151.465 5.02137 151.465C5.02137 151.465 2.83817 150.153 3.05649 148.842C3.27481 147.531 5.23969 146.875 5.23969 146.875C5.23969 146.875 3.71145 145.126 3.92977 144.252C4.14809 143.378 7.4229 142.941 7.64122 142.941C7.64122 142.941 1.52824 140.755 0.873282 138.569C0 136.384 -0.218321 135.291 0.218321 135.291C0.654962 135.291 6.11298 138.132 6.98626 138.132L20.7405 139.225C24.2336 139.444 27.7267 144.252 27.2901 150.153V154.525H26.8534C26.8534 154.525 26.1985 157.584 23.5786 158.459C21.1771 159.551 6.76794 158.896 5.67634 157.803C4.58473 156.71 5.23969 155.399 5.67634 155.18Z" fill="#F7B693"/>
<path d="M7.64131 142.941L14.1909 142.285C14.1909 142.285 6.98635 142.285 3.2749 140.755C3.2749 140.755 6.76803 142.941 7.64131 142.941ZM5.23979 146.875L10.4795 146.219C10.4795 146.219 5.02147 146.438 4.36651 145.563L5.23979 146.875ZM5.23979 151.246L12.0077 150.809C12.0077 150.809 3.92986 150.809 3.2749 149.497C3.2749 149.497 3.92986 150.809 5.02147 151.464L5.23979 151.246ZM3.92986 152.994C3.92986 152.994 3.49322 154.524 5.67643 155.18L11.3528 154.743L5.23979 154.524C4.36651 154.087 3.92986 153.432 3.92986 152.994Z" fill="#D8A471"/>
<path d="M75.1023 139.662L46.939 116.494C46.939 116.494 59.3832 114.964 75.3206 111.249C91.0397 107.533 75.3206 139.662 75.3206 139.662H75.1023ZM160.684 94.8564L189.066 105.347L157.409 127.204H143.218L160.684 94.8564Z" fill="#4E6171"/>
<path d="M105.667 211.132C105.231 208.51 105.012 208.51 103.047 206.98C94.0157 199.657 84.2048 193.353 73.7925 188.183C74.8841 185.342 76.6306 181.845 76.4123 179.441C75.1819 162.495 74.7448 145.502 75.1024 128.516C75.1024 128.516 63.7497 133.98 61.3482 140.099C58.51 146.656 56.9818 154.087 55.0169 161.081C53.4887 166.764 51.7421 171.135 50.6505 177.911C49.1222 181.845 49.1222 181.845 48.9039 183.593C47.986 188.467 48.596 193.506 50.6505 198.019C54.5803 206.105 64.4047 214.629 72.0459 218.782C78.5955 222.498 85.8001 223.809 93.223 224.028H101.738C104.576 224.028 104.794 224.465 105.667 221.842C106.541 218.564 106.104 214.411 105.667 211.132Z" fill="#414142"/>
<path opacity="0.3" d="M284.253 354.072C284.253 358.881 231.638 362.815 166.797 362.815C101.737 362.815 48.9038 358.881 48.9038 354.072C48.9038 349.264 101.737 345.111 166.797 345.111C231.638 345.111 284.253 349.045 284.253 353.854V354.072Z" fill="#151626"/>
<path d="M200.418 359.318L148.895 356.258C148.895 356.258 147.585 332.872 137.542 316.917L168.98 300.743C168.98 300.743 168.544 330.031 172.037 342.27C172.037 342.27 193.869 335.058 200.418 359.318Z" fill="#272729"/>
<path d="M144.092 320.413C144.092 320.413 152.824 343.799 153.479 352.979L187.974 356.039L154.571 351.449C154.571 351.449 152.824 332.215 144.092 320.413Z" fill="#5E5E5E"/>
<path d="M83.6169 318.665L96.0612 341.395C96.0612 341.395 74.2291 340.084 77.0673 355.165H124.443C124.443 355.165 119.64 325.003 109.16 311.452L83.6169 318.665Z" fill="#272729"/>
<path d="M91.9129 324.566C91.9129 324.566 101.082 340.959 101.737 342.707C101.737 342.707 81.8702 342.707 80.7786 351.668C80.7786 351.668 86.0183 344.237 107.414 345.548L92.1312 324.566H91.9129Z" fill="#5E5E5E"/>
<path d="M127.717 298.994V239.982C127.717 233.207 127.281 225.776 131.866 220.093C135.577 215.722 141.908 213.099 146.056 209.165C152.388 203.264 157.627 195.395 160.684 187.309C159.374 192.117 159.592 197.144 160.029 201.734C161.121 210.258 162.212 218.345 165.487 226.213C175.311 248.725 171.6 274.952 171.6 298.994C171.6 311.234 170.29 313.201 149.986 319.539C138.634 323.255 127.717 311.234 127.717 298.994Z" fill="#414142"/>
<path d="M129.246 264.024H108.724C97.8075 264.024 89.0747 255.282 89.0747 244.354V233.426C89.0747 222.497 97.8075 213.755 108.724 213.755H129.246C140.162 213.755 148.895 222.497 148.895 233.426V244.354C148.895 255.282 140.162 264.024 129.246 264.024Z" fill="#414142"/>
<path d="M116.802 301.18V294.623L118.985 242.168C119.203 235.393 120.076 227.961 115.71 222.06C112.217 217.689 106.104 214.629 101.956 210.476C96.0611 204.575 91.0397 196.488 88.2016 188.62C89.5115 192.991 89.0748 198.018 88.2016 202.827C86.8916 211.132 85.8 219.219 81.8703 226.869C71.1725 248.943 73.7924 275.39 72.9191 299.65C72.4825 311.671 79.687 322.818 94.0962 318.665C107.195 314.949 116.147 313.201 116.802 301.18Z" fill="#414142"/>
<path d="M159.811 220.312C161.121 218.782 161.121 216.596 161.557 212.662C161.994 206.324 163.74 199.985 164.614 193.647C165.705 184.249 166.579 174.632 167.889 165.234C170.072 150.372 174.438 126.111 157.409 119.117C145.183 113.872 129.901 112.997 116.801 111.686C105.449 110.593 93.0046 111.249 84.7084 119.991C71.6091 134.417 73.7923 159.114 75.9755 176.818C77.9404 190.587 83.1801 204.138 94.7511 212.444C100.427 216.815 107.195 219 113.963 220.53C125.753 223.153 142.345 227.087 154.353 223.153C157.191 222.279 158.719 221.405 159.811 220.312Z" fill="#414142"/>
<path d="M120.513 213.536C120.513 213.536 101.519 218.563 96.061 231.677L114.182 236.048C114.182 236.048 116.365 219.656 124.443 216.377L120.513 213.755V213.536Z" fill="#272729"/>
<path d="M78.1588 165.452C78.1588 165.452 80.3421 197.581 91.2581 202.608C91.2581 202.608 80.5604 183.374 78.1588 165.452ZM77.9405 273.641C77.9405 273.641 71.3909 305.114 80.7787 312.982C80.7787 312.982 75.539 291.781 77.9405 273.641Z" fill="white"/>
<path d="M75.3206 128.516C75.3206 128.516 65.4962 131.138 63.313 136.821C63.313 136.821 68.771 132.887 70.9542 134.635C73.1374 136.821 75.7573 166.764 77.0672 180.096C77.0672 180.096 72.7008 147.531 90.8214 148.405C90.8214 148.405 78.5954 129.608 74.884 128.516H75.3206Z" fill="#323234"/>
<path d="M84.2717 30.1623C84.2717 30.1623 63.3129 50.7072 70.5175 88.0815C77.7221 125.237 81.4336 151.902 99.7725 152.339C118.111 152.558 162.431 104.255 162.867 70.5965C163.085 36.9378 99.5542 20.5456 84.2717 30.1623Z" fill="#F7B693"/>
<path d="M113.09 117.15C113.09 117.15 107.195 130.701 99.9909 130.701C92.7863 130.701 90.8214 122.833 89.5115 115.62C89.5115 115.62 98.026 128.515 113.09 117.369V117.15Z" fill="#0A0A0D"/>
<path d="M105.012 136.821C105.012 136.821 96.9343 131.794 90.8213 135.291C90.8213 135.291 100.864 134.854 105.012 137.039V136.821Z" fill="#CD5753"/>
<path d="M71.3908 28.4131C71.3908 28.4131 58.2916 28.6316 57.8549 46.9909C57.8549 46.9909 52.6152 50.9251 52.8335 57.4819C52.8335 64.0388 55.89 65.5688 55.89 65.5688C55.89 65.5688 50.6503 70.8143 55.2351 78.6825C59.6015 86.7694 66.5877 84.5838 66.5877 84.5838C66.5877 84.5838 65.4961 94.8562 60.6931 95.949C60.6931 95.949 65.7145 104.254 70.2992 104.036C70.2992 104.036 63.5313 112.341 71.3908 120.21C71.3908 120.21 69.2076 132.668 78.8137 137.257C78.8137 137.257 80.1236 155.835 93.2229 154.742L96.2793 138.787C96.2793 138.787 93.6595 146 90.8213 144.033C88.5359 142.156 86.6592 139.83 85.3074 137.199C83.9555 134.567 83.1572 131.686 82.9618 128.733C82.7435 121.521 66.5877 66.8802 78.5954 47.8652L71.3908 28.4131Z" fill="#272729"/>
<path d="M123.57 52.0182C123.57 52.0182 114.837 61.1978 105.449 52.0182C105.449 52.0182 89.5116 54.2038 84.0535 41.5272C84.0535 41.5272 77.9406 46.117 82.307 52.0182C82.307 52.0182 52.8337 42.62 68.1161 21.4194C74.6658 12.8954 79.9055 13.9882 82.9619 15.7368C82.9619 15.7368 84.0536 -1.09259 107.414 0.000226263C130.774 1.09304 128.591 8.74274 128.591 8.74274C128.591 8.74274 138.634 5.02717 143.437 8.52418C146.372 10.7866 148.513 13.9248 149.55 17.4853C149.55 17.4853 154.789 14.2068 158.719 18.3595C162.431 22.7308 162.212 25.7906 162.212 25.7906C162.212 25.7906 166.579 22.9493 170.072 27.9763C173.347 32.7847 174.438 40.4344 173.565 42.1829C172.692 44.1499 178.805 45.2427 177.276 57.4823C175.53 69.7218 167.889 66.6619 165.487 65.7877C162.867 64.6948 149.768 65.7877 152.388 54.6409C152.388 54.6409 148.895 61.1978 144.965 59.4493C144.965 59.4493 148.021 62.2906 149.986 60.105C149.986 60.105 145.838 65.3505 141.69 62.9463C137.324 60.3236 136.887 55.7338 136.887 55.7338C135.141 55.5152 128.591 49.614 129.246 45.6799C129.246 45.6799 116.365 39.5601 110.034 40.4344C110.034 40.4344 107.85 52.2368 123.57 51.7996V52.0182Z" fill="#272729"/>
<path d="M110.689 107.752C110.689 107.752 112.217 110.375 110.689 111.249C108.942 112.342 105.012 111.249 103.921 111.904C102.829 112.56 98.6809 114.746 96.2794 113.872C94.0962 112.779 91.913 109.5 91.4763 108.845C91.0397 108.407 90.8214 103.818 92.568 102.943C92.568 102.943 91.258 106.659 92.1313 108.189C93.0046 109.719 95.8428 112.56 98.026 112.123C100.209 111.686 102.392 109.937 104.576 109.937C106.54 110.156 111.78 109.937 110.689 107.752Z" fill="#A43734"/>
<path d="M118.112 10.9287C115.515 10.4109 112.891 10.046 110.252 9.83589C107.717 9.49106 105.146 9.49106 102.611 9.83589C99.9909 10.4916 97.8077 11.3658 95.6245 12.8958C93.4413 14.4257 92.3497 16.6113 90.8215 19.0155C91.4764 16.3928 92.3497 13.5515 94.5329 11.5844C96.597 9.53049 99.2855 8.22319 102.174 7.86882C104.928 7.40997 107.744 7.48417 110.47 8.08738C113.308 8.74307 115.928 9.61732 118.112 10.9287ZM113.09 22.5125C110.034 22.5125 107.196 23.3868 104.576 24.9167C102.181 26.424 100.224 28.5343 98.8993 31.0365C97.3711 33.4407 96.7161 36.5006 97.1528 39.1233C97.3124 40.5768 97.7618 41.9834 98.4743 43.2599C99.1868 44.5363 100.148 45.6566 101.301 46.5544L99.1176 45.4616L97.5894 43.9317C97.1528 43.276 96.4978 42.6203 96.2795 41.7461L95.4062 39.5604C94.7512 36.282 95.4062 33.0036 96.9344 29.9437C98.5135 27.0746 100.959 24.7794 103.921 23.3868C106.759 22.0754 110.034 21.8568 113.09 22.5125ZM82.9619 20.764L79.4688 22.294C78.376 22.7365 77.3479 23.3246 76.4123 24.0425C75.5195 24.7646 74.7776 25.6558 74.2291 26.6652C73.7925 27.758 73.7925 28.8509 73.5741 30.1622C72.981 28.9088 72.8308 27.4907 73.1481 26.1406C73.4654 24.7905 74.2315 23.5883 75.3207 22.7311C76.4122 21.9417 77.6512 21.3801 78.9639 21.0797C80.2766 20.7793 81.6362 20.7463 82.9619 20.9826V20.764Z" fill="white"/>
<path d="M67.8978 38.249C67.8978 38.249 58.0734 47.8658 65.7146 54.2041C65.7146 54.2041 60.4749 47.8658 67.8978 38.249ZM56.7635 52.4556C56.7635 52.4556 53.052 65.1323 64.4047 65.7879C64.4047 65.7879 54.7986 64.258 56.7635 52.6742V52.4556ZM59.3833 69.0664C59.3833 69.0664 54.3619 74.5305 59.3833 79.5574C64.623 84.8029 71.1726 81.743 72.0459 76.4975C72.0459 76.4975 65.9329 85.6772 60.2566 78.9017C56.3268 74.3119 59.3833 69.0664 59.3833 69.0664ZM70.736 86.3329C70.736 86.3329 68.9894 96.1682 62.8764 97.261C62.8764 97.261 70.5176 98.5724 70.5176 86.3329H70.736ZM74.2291 105.348C74.2291 105.348 68.9894 112.998 75.3207 117.15C75.3207 117.15 71.8276 112.998 74.2291 105.348ZM75.3207 122.833C75.3207 122.833 73.1375 133.542 82.9619 133.98C82.9619 133.98 74.0108 132.45 75.3207 123.051V122.833ZM84.2718 140.755C84.2718 140.755 82.0886 152.776 93.0047 152.339C93.0047 152.339 82.9619 151.465 84.2718 140.755ZM96.4978 149.498C96.4978 149.498 94.3146 157.584 103.702 155.836C103.702 155.836 95.4062 156.273 96.4978 149.279V149.498ZM109.597 149.498C109.597 149.498 110.252 142.504 118.985 144.689C118.985 144.689 112.435 143.815 109.379 149.498H109.597Z" fill="#FAFAFA"/>
<path d="M170.945 43.2754C170.945 43.2754 185.791 35.1886 186.228 52.6736V53.5479C186.228 53.5479 191.467 55.7335 189.721 63.6018C187.974 71.2515 184.918 70.5958 184.918 70.5958C184.918 70.5958 190.157 82.3982 179.023 88.518H177.495C177.495 88.518 176.185 90.7036 174.657 91.1407C174.657 91.1407 180.333 96.6048 176.185 102.069C171.818 107.314 168.107 107.096 161.994 105.784C161.994 105.784 165.05 102.069 164.614 99.6647C164.614 99.6647 160.684 104.473 157.191 104.473C157.191 104.473 159.374 110.811 156.099 114.964C156.099 114.964 159.592 125.455 156.099 129.608C156.099 129.608 155.663 127.859 153.916 127.422C153.916 127.422 146.93 139.006 138.852 142.066C138.852 142.066 139.507 139.443 138.852 137.695C138.852 137.695 134.922 144.251 130.774 145.563C130.774 145.563 130.119 153.65 116.365 152.557C116.365 152.557 98.8993 161.737 93.0046 154.743C93.0046 154.743 94.5329 142.94 96.2794 138.787C96.2794 138.787 94.7512 146.437 98.681 146.874C104.139 147.311 105.449 147.311 106.541 146.219C107.414 145.126 112.217 141.41 114.4 140.317C114.4 140.317 118.766 131.575 125.316 129.389C125.316 129.389 125.316 125.455 130.556 122.177C135.577 118.898 136.887 119.991 136.887 119.991C136.887 119.991 138.852 115.183 141.472 114.964C141.472 114.964 140.162 111.248 142.563 107.533C144.747 104.036 146.93 102.943 146.93 102.943C146.93 102.943 145.838 96.1677 148.24 91.5778C150.423 86.988 152.606 84.5838 152.606 84.5838C152.606 84.5838 149.55 69.2844 156.973 64.2575C164.832 59.2305 170.945 43.2754 170.945 43.2754Z" fill="#272729"/>
<path d="M115.273 87.6437C115.273 87.6437 124.006 74.0928 132.521 87.6437C132.521 87.6437 125.316 94.8563 115.273 87.6437Z" fill="#1E1E1C"/>
<path d="M115.273 87.4254C115.273 87.4254 124.006 77.3715 132.521 87.4254C132.521 87.4254 125.316 92.8895 115.273 87.4254Z" fill="white"/>
<path d="M134.049 85.0215C124.879 70.5964 115.273 85.0215 115.273 85.0215C115.273 85.0215 124.879 73.2191 134.049 85.0215ZM98.0259 86.3329C91.4763 70.8149 79.9053 83.4916 79.9053 83.4916C79.9053 83.4916 90.8213 73.4377 98.0259 86.3329Z" fill="#A43734"/>
<path d="M98.026 88.5178C98.026 88.5178 90.8214 73.6556 80.5603 86.3322C80.5603 86.3322 87.1099 94.6376 98.026 88.5178Z" fill="#272729"/>
<path d="M98.0258 88.2995C98.0258 88.2995 90.3846 77.3714 80.9968 86.3324C80.9968 86.3324 87.5465 92.4522 98.0258 88.2995ZM91.4762 117.806L92.3495 121.74C92.3495 121.74 94.9693 125.237 99.9907 125.237C105.012 125.237 109.597 122.614 109.597 122.614L109.815 119.335C109.815 119.335 99.9907 125.892 91.4762 117.806Z" fill="white"/>
<path d="M130.992 86.7696C130.992 87.8624 129.901 88.9552 128.809 88.9552C127.718 88.9552 126.626 87.8624 126.626 86.7696C126.626 85.4582 127.499 84.584 128.809 84.584C129.901 84.584 130.992 85.4582 130.992 86.7696ZM95.4062 86.7696C95.4062 87.8624 94.3146 88.9552 93.223 88.9552C92.644 88.9552 92.0887 88.725 91.6792 88.3151C91.2698 87.9052 91.0398 87.3493 91.0398 86.7696C91.0398 86.1899 91.2698 85.634 91.6792 85.2241C92.0887 84.8143 92.644 84.584 93.223 84.584C94.3146 84.584 95.4062 85.4582 95.4062 86.7696Z" fill="#0A0A0D"/>
<path d="M113.09 71.6885C113.09 71.6885 110.034 78.9011 114.182 78.4639C118.548 78.0268 133.176 66.8801 141.035 80.431C141.035 80.431 137.76 65.1316 114.4 76.934C113.09 77.5897 112.217 76.0597 113.09 71.6885ZM97.8077 74.3112C97.8077 74.3112 100.428 79.3382 97.1527 77.5897C94.5329 76.2783 81.8703 71.0328 75.7573 73.6555C75.7573 73.6555 81.4337 68.8472 92.1314 74.7484C99.9909 79.1196 97.8077 74.3112 97.8077 74.3112Z" fill="#272729"/>
<path d="M66.5878 135.509C66.5878 135.509 61.3481 146.218 60.4749 155.179C60.4749 155.179 60.4749 144.251 66.5878 135.509Z" fill="white"/>
<path d="M50.2136 177.692C48.5082 182.072 47.7636 186.768 48.0304 191.461C48.2763 196.387 50.0293 201.118 53.0518 205.012C56.1083 208.728 60.0381 211.569 63.9678 213.755L74.8839 220.093C76.8488 220.967 78.377 222.06 80.3419 222.279C82.0885 222.934 95.6243 226.65 97.3709 226.65C96.061 226.65 59.6014 210.913 53.2701 196.925C49.122 187.527 57.6365 158.021 58.9465 147.312L56.3266 156.928L51.5236 173.976L50.2136 177.692Z" fill="#272729"/>
<path d="M73.5739 188.183C73.1373 187.527 70.2991 187.309 69.2075 187.09C67.6793 186.653 65.9327 186.435 64.6228 187.09C65.0594 185.56 67.2426 184.249 68.3343 182.938C69.6442 180.971 71.3907 179.441 72.919 177.474C74.2289 175.725 75.1022 173.539 75.5388 171.791L76.4121 168.294C78.1587 175.725 76.4121 181.408 73.7923 187.965L73.5739 188.183Z" fill="#323234"/>
<path d="M203.038 191.461C200.855 178.785 198.453 165.889 195.179 153.431C191.686 139.662 184.918 115.839 165.269 113.216C141.908 110.375 141.69 139.881 105.667 143.815C76.4123 147.093 45.8474 132.449 16.3741 138.788C15.2825 139.225 14.8458 166.545 14.6275 168.949C13.7542 183.375 13.9726 197.581 14.1909 212.006C14.4092 233.644 15.2825 255.282 15.9374 276.919V305.988C15.9374 312.327 13.0993 322.381 15.9374 328.282L39.5161 323.036C46.0657 323.036 52.1787 325.659 57.855 327.845C69.2077 332.434 78.1588 335.713 90.6031 337.024C103.702 338.336 115.273 336.369 128.154 334.401C144.092 332.216 160.029 336.15 175.966 336.15C192.995 336.15 208.933 334.401 224.87 328.937C230.328 326.97 218.321 274.297 218.102 267.74C216.792 250.473 211.553 233.863 208.278 217.47L203.038 191.243V191.461Z" fill="#889BB2"/>
<path d="M177.495 174.851C191.467 195.614 223.342 300.524 223.56 300.743C221.377 286.318 218.102 271.237 217.666 267.958C216.356 250.473 211.334 233.863 208.06 217.252L203.038 191.461C200.855 178.785 198.453 165.889 195.179 153.431C191.686 139.662 184.918 115.839 165.269 113.216C141.908 110.375 141.69 139.881 105.667 143.815C89.2931 145.563 72.7008 141.848 56.1084 139.443C84.4901 148.404 114.618 156.491 128.591 154.087C152.388 150.372 163.522 153.869 177.495 174.632V174.851Z" fill="#6E849B"/>
<path d="M188.847 148.186C187.756 144.033 186.227 140.099 184.263 136.602C182.384 132.855 179.7 129.571 176.403 126.985C173.333 124.313 169.559 122.583 165.532 122.002C161.506 121.42 157.397 122.012 153.698 123.707C150.205 125.674 147.148 128.297 144.092 131.357L139.725 135.728C135.162 140.36 129.751 144.071 123.788 146.656C120.076 148.623 115.71 149.497 111.344 149.497C119.612 147.984 127.355 144.372 133.831 139.006C139.944 133.542 144.747 125.893 152.824 121.74C156.895 119.917 161.401 119.298 165.811 119.956C170.221 120.614 174.351 122.523 177.713 125.455C184.263 131.575 187.537 139.881 188.847 148.186Z" fill="white"/>
<path d="M20.7406 138.788V138.132C19.2123 138.132 17.9024 138.569 16.3741 138.788C15.0642 139.225 14.6276 166.545 14.4093 168.949C13.536 183.374 13.7543 197.581 13.9726 212.006C14.1909 233.644 15.0642 255.282 15.5009 276.919C15.9375 286.536 15.9375 296.371 15.7192 305.988C15.7192 312.326 12.881 322.38 15.7192 328.063C24.3982 326.118 33.1352 324.441 41.9177 323.036C8.73292 291.344 20.5222 138.788 20.5222 138.788H20.7406Z" fill="#6E849B"/>
<path d="M25.7617 164.797L30.1281 176.381C35.1495 188.402 40.1709 199.986 44.7556 212.007C45.8472 215.285 46.5022 220.093 49.3404 222.061C48.0304 221.186 48.0304 215.504 47.8121 214.192C44.9942 201.074 40.8994 188.263 35.5862 175.944C31.2197 165.89 26.1984 156.273 22.4869 146.001C21.3953 143.596 20.9587 141.192 20.3037 138.788C20.7404 147.749 22.9236 156.273 25.7617 164.797Z" fill="#6E849B"/>
<path d="M20.0855 164.578L22.2687 176.817C25.1069 189.494 27.9451 201.734 30.1283 214.629C30.5649 217.907 30.3466 222.716 32.9665 225.12C31.8749 224.246 32.9665 218.563 32.9665 217.252C32.5205 203.853 30.7656 190.53 27.7268 177.473C25.3252 166.545 22.0504 156.273 20.3039 145.563L19.2123 138.132C18.1207 146.874 18.7756 155.617 20.0855 164.359V164.578ZM34.713 241.731C38.3744 252.357 42.9015 262.664 48.2489 272.548C53.7069 282.165 60.2565 291.126 67.8978 298.338C75.7573 305.551 85.3634 310.797 95.6245 313.638C106.104 316.698 117.238 317.135 128.591 316.698C117.608 320.906 105.722 322.186 94.0962 320.413C82.1571 318.419 71.0701 312.945 62.2214 304.677C45.4885 287.913 35.735 265.416 34.9313 241.731H34.713Z" fill="#6E849B"/>
</g>
</svg>
