<svg width="631" height="438" viewBox="0 0 631 438" fill="none" xmlns="http://www.w3.org/2000/svg">
<path fill-rule="evenodd" clip-rule="evenodd" d="M30.1244 62.341C30.1244 64.1868 30.2047 66.0138 30.362 67.8188C12.6955 73.8849 7.62939e-06 90.6289 7.62939e-06 110.335C7.62939e-06 135.158 20.1452 155.281 44.9955 155.281C46.0234 155.281 47.0431 155.247 48.0538 155.179C53.3467 159.866 60.3076 162.711 67.9331 162.711H308.029C310.806 172.92 334.033 178.666 334.033 178.666C330.016 174.542 324.884 164.735 331.578 162.172L327.01 162.193C340.915 159.58 351.435 147.374 351.435 132.711V73.4639C351.435 58.5932 340.615 46.2495 326.418 43.8759C322.146 38.2069 315.941 33.9401 308.488 32.182C299.965 30.1718 291.434 31.8246 284.549 36.1181C279.208 17.252 261.844 3.42819 241.247 3.42819C220.266 3.42819 202.639 17.7729 197.659 37.1798C193.349 24.9171 181.656 16.125 167.908 16.125C158.352 16.125 149.789 20.3725 144.008 27.0807C132.759 10.7255 113.9 0 92.5335 0C58.0659 0 30.1244 27.911 30.1244 62.341Z" fill="white"/>
<path d="M76.728 66.9414V57.2454H71.512V66.9414H70.184V56.0294H78.056V66.9414H76.728ZM79.8104 63.1014C79.8104 60.7334 81.6024 59.0214 83.9064 59.0214C86.2904 59.0214 88.0024 60.7814 88.0024 63.1014C88.0024 65.3574 86.2744 67.2134 83.9064 67.2134C81.5864 67.2134 79.8104 65.4214 79.8104 63.1014ZM81.1224 63.1014C81.1224 64.8294 82.4344 66.0614 83.9064 66.0614C85.5224 66.0614 86.6904 64.7814 86.6904 63.1014C86.6904 61.4854 85.5864 60.1574 83.9064 60.1574C82.2744 60.1574 81.1224 61.4054 81.1224 63.1014ZM97.1861 59.0214C99.3781 59.0214 100.386 60.3654 100.642 61.2454H99.2341C98.9301 60.6054 98.2581 60.1254 97.1861 60.1254C95.7301 60.1254 94.4661 61.1174 94.4661 63.1014C94.4661 64.8294 95.6501 66.0934 97.2661 66.0934C98.4661 66.0934 99.0421 65.4694 99.3461 64.8294H100.754C100.354 65.9654 99.3301 67.2134 97.2501 67.2134C94.8821 67.2134 93.1541 65.5174 93.1541 63.0854C93.1541 60.8454 94.7221 59.0214 97.1861 59.0214ZM108.146 59.2774L103.922 70.7014H102.706L104.098 66.9414L101.282 59.2774H102.578L104.194 63.7414C104.338 64.1094 104.626 64.9414 104.706 65.3574H104.738C104.914 64.8134 105.074 64.3014 105.266 63.7414L106.866 59.2774H108.146ZM114.354 59.2774V60.4134H112.194V66.9414H110.93V60.4134H108.738V59.2774H114.354ZM115.62 66.9414V59.2774H116.884V62.7494C116.884 63.3254 116.868 64.4774 116.836 65.1014H116.868C117.076 64.7174 117.444 64.2214 117.94 63.5814L121.22 59.2774H122.356V66.9414H121.092V63.4694C121.092 62.8934 121.108 61.7414 121.14 61.1174H121.108C120.9 61.5014 120.532 61.9974 120.036 62.6374L116.756 66.9414H115.62ZM124.413 66.9414V65.1814H126.173V66.1414C126.173 67.6294 125.661 68.5574 125.309 69.1014H124.429C124.813 68.5094 124.989 67.7734 125.069 66.9414H124.413ZM138.949 59.2774V66.9414H137.685V60.4134H133.477V66.9414H132.213V59.2774H138.949ZM141.151 66.9414V59.2774H142.415V62.7494C142.415 63.3254 142.399 64.4774 142.367 65.1014H142.399C142.607 64.7174 142.975 64.2214 143.471 63.5814L146.751 59.2774H147.887V66.9414H146.623V63.4694C146.623 62.8934 146.639 61.7414 146.671 61.1174H146.639C146.431 61.5014 146.063 61.9974 145.567 62.6374L142.287 66.9414H141.151ZM161.08 66.9414H150.088V59.2774H151.352V65.8054H154.952V59.2774H156.216V65.8054H159.816V59.2774H161.08V66.9414ZM163.292 66.9414V59.2774H164.556V62.7494C164.556 63.3254 164.539 64.4774 164.508 65.1014H164.539C164.748 64.7174 165.116 64.2214 165.612 63.5814L168.892 59.2774H170.028V66.9414H168.764V63.4694C168.764 62.8934 168.78 61.7414 168.812 61.1174H168.78C168.572 61.5014 168.204 61.9974 167.708 62.6374L164.428 66.9414H163.292ZM176.901 59.2774V60.4134H174.741V66.9414H173.477V60.4134H171.285V59.2774H176.901ZM181.212 59.0214C183.996 59.0374 185.004 61.3254 185.004 63.0054C185.004 63.1494 184.988 63.3894 184.972 63.4694H178.716C178.716 64.8614 179.996 66.0934 181.436 66.0934C182.348 66.0934 182.908 65.7574 183.404 65.1654H184.86C184.348 66.1254 183.276 67.2134 181.468 67.2134C179.036 67.2134 177.404 65.3894 177.404 63.0054C177.404 60.8934 178.892 59.0214 181.212 59.0214ZM181.212 60.1254C179.756 60.1254 178.844 61.2454 178.732 62.4134H183.676C183.548 61.2134 182.604 60.1254 181.212 60.1254ZM190.682 66.9414V59.2774H193.578C195.13 59.2774 196.106 59.9494 196.106 61.2134C196.106 61.8374 195.77 62.4934 194.89 62.7654C196.218 63.0214 196.714 63.8214 196.714 64.6534C196.714 66.0134 195.69 66.9414 193.914 66.9414H190.682ZM193.802 63.4694H191.898V65.8854H193.994C195.002 65.8854 195.45 65.2934 195.45 64.6694C195.45 63.9014 194.954 63.4694 193.802 63.4694ZM193.498 60.3334H191.898V62.4134H193.322C194.346 62.4134 194.858 62.0294 194.858 61.3414C194.858 60.6534 194.33 60.3334 193.498 60.3334ZM201.199 63.4694H199.759V65.8854H201.199C202.143 65.8854 202.527 65.2934 202.527 64.6694C202.527 63.9014 202.095 63.4694 201.199 63.4694ZM199.759 62.4134H201.215C202.847 62.4134 203.791 63.2774 203.791 64.6534C203.791 66.0134 202.879 66.9414 201.263 66.9414H198.495V59.2774H199.759V62.4134ZM205.199 66.9414V59.2774H206.463V66.9414H205.199ZM216.171 59.0214C218.363 59.0214 219.371 60.3654 219.627 61.2454H218.219C217.915 60.6054 217.243 60.1254 216.171 60.1254C214.715 60.1254 213.451 61.1174 213.451 63.1014C213.451 64.8294 214.635 66.0934 216.251 66.0934C217.451 66.0934 218.027 65.4694 218.331 64.8294H219.739C219.339 65.9654 218.315 67.2134 216.235 67.2134C213.867 67.2134 212.139 65.5174 212.139 63.0854C212.139 60.8454 213.707 59.0214 216.171 59.0214ZM228.858 59.2774V66.9414H227.594V65.9174H227.562C227.002 66.5894 226.058 67.2134 224.762 67.2134C222.682 67.2134 220.826 65.5974 220.826 63.1014C220.826 60.7334 222.554 59.0214 224.842 59.0214C226.234 59.0214 227.05 59.7574 227.578 60.3814H227.594V59.2774H228.858ZM222.138 63.1014C222.138 64.5734 223.05 66.0934 224.938 66.0934C226.378 66.0934 227.706 64.8774 227.706 63.1494C227.706 61.3254 226.474 60.1254 224.97 60.1254C223.05 60.1254 222.138 61.6294 222.138 63.1014ZM239.089 59.2774L240.465 66.9414H239.281L238.561 62.6374C238.465 62.0774 238.353 61.3894 238.289 60.8614H238.241C238.113 61.4374 237.937 62.0614 237.697 62.6374L235.937 66.9414H234.945L233.185 62.5414C232.961 61.9814 232.753 61.3894 232.625 60.8614H232.577C232.513 61.3734 232.449 61.9334 232.353 62.5254L231.601 66.9414H230.433L231.841 59.2774H233.073L235.025 64.1254C235.185 64.5094 235.329 64.9894 235.425 65.3734H235.473C235.585 64.9734 235.729 64.5094 235.889 64.1254L237.889 59.2774H239.089ZM242.026 66.9414V59.2774H243.29V62.7494C243.29 63.3254 243.274 64.4774 243.242 65.1014H243.274C243.482 64.7174 243.85 64.2214 244.346 63.5814L247.626 59.2774H248.762V66.9414H247.498V63.4694C247.498 62.8934 247.514 61.7414 247.546 61.1174H247.514C247.306 61.5014 246.938 61.9974 246.442 62.6374L243.162 66.9414H242.026ZM250.819 66.9414V65.1814H252.579V66.1414C252.579 67.6294 252.067 68.5574 251.715 69.1014H250.835C251.219 68.5094 251.395 67.7734 251.475 66.9414H250.819ZM80.168 75.0294L81.368 85.9414H80.072L79.448 79.5734C79.368 78.7094 79.256 77.4454 79.192 76.6774H79.144C78.888 77.5254 78.504 78.7094 78.216 79.5894L76.088 85.9414H74.936L72.808 79.4134C72.536 78.5814 72.152 77.5254 71.928 76.6774H71.864C71.8 77.5574 71.72 78.5334 71.624 79.3974L70.952 85.9414H69.672L70.936 75.0294H72.552L74.92 82.0534C75.112 82.6134 75.368 83.4614 75.512 84.0534H75.576C75.72 83.4614 75.992 82.6134 76.184 82.0534L78.568 75.0294H80.168ZM85.8549 82.4694H84.4149V84.8854H85.8549C86.7989 84.8854 87.1829 84.2934 87.1829 83.6694C87.1829 82.9014 86.7509 82.4694 85.8549 82.4694ZM84.4149 81.4134H85.8709C87.5029 81.4134 88.4469 82.2774 88.4469 83.6534C88.4469 85.0134 87.5349 85.9414 85.9189 85.9414H83.1509V78.2774H84.4149V81.4134ZM89.8549 85.9414V78.2774H91.1189V85.9414H89.8549ZM103.931 82.3574H97.4668V81.0774H103.931V82.3574ZM110.276 85.9414V78.2774H113.172C114.724 78.2774 115.7 78.9494 115.7 80.2134C115.7 80.8374 115.364 81.4934 114.484 81.7654C115.812 82.0214 116.308 82.8214 116.308 83.6534C116.308 85.0134 115.284 85.9414 113.508 85.9414H110.276ZM113.396 82.4694H111.492V84.8854H113.588C114.596 84.8854 115.044 84.2934 115.044 83.6694C115.044 82.9014 114.548 82.4694 113.396 82.4694ZM113.092 79.3334H111.492V81.4134H112.916C113.94 81.4134 114.452 81.0294 114.452 80.3414C114.452 79.6534 113.924 79.3334 113.092 79.3334ZM125.592 78.2774V85.9414H124.328V84.9174H124.296C123.736 85.5894 122.792 86.2134 121.496 86.2134C119.416 86.2134 117.56 84.5974 117.56 82.1014C117.56 79.7334 119.288 78.0214 121.576 78.0214C122.968 78.0214 123.784 78.7574 124.312 79.3814H124.328V78.2774H125.592ZM118.872 82.1014C118.872 83.5734 119.784 85.0934 121.672 85.0934C123.112 85.0934 124.44 83.8774 124.44 82.1494C124.44 80.3254 123.208 79.1254 121.704 79.1254C119.784 79.1254 118.872 80.6294 118.872 82.1014ZM138.799 85.9414H127.807V78.2774H129.071V84.8054H132.671V78.2774H133.935V84.8054H137.535V78.2774H138.799V85.9414ZM141.01 85.9414V78.2774H142.274V81.7494C142.274 82.3254 142.258 83.4774 142.226 84.1014H142.258C142.466 83.7174 142.834 83.2214 143.33 82.5814L146.61 78.2774H147.746V85.9414H146.482V82.4694C146.482 81.8934 146.498 80.7414 146.53 80.1174H146.498C146.29 80.5014 145.922 80.9974 145.426 81.6374L142.146 85.9414H141.01ZM149.212 85.9414L152.044 82.0054L149.388 78.2774H150.86L152.22 80.1974C152.46 80.5494 152.588 80.7894 152.732 80.9974H152.764C152.94 80.7414 153.116 80.5014 153.292 80.2454L154.62 78.2774H156.076L153.404 81.9734L156.252 85.9414H154.764L153.276 83.8134C153.084 83.5414 152.908 83.2854 152.716 83.0134H152.668C152.476 83.2854 152.284 83.5574 152.092 83.8294L150.652 85.9414H149.212ZM167.745 78.2774V85.9414H166.481V82.1174H166.449C165.825 83.0294 165.025 83.3334 164.273 83.3334C163.009 83.3334 161.537 82.5014 161.537 79.9894V78.2774H162.801V79.8934C162.801 81.3654 163.473 82.1814 164.513 82.1814C165.713 82.1814 166.481 81.3174 166.481 79.6214V78.2774H167.745ZM175.724 78.2774L171.5 89.7014H170.284L171.676 85.9414L168.86 78.2774H170.156L171.772 82.7414C171.916 83.1094 172.204 83.9414 172.284 84.3574H172.316C172.492 83.8134 172.652 83.3014 172.844 82.7414L174.444 78.2774H175.724ZM176.854 85.9414V78.2774H179.75C181.302 78.2774 182.278 78.9494 182.278 80.2134C182.278 80.8374 181.942 81.4934 181.062 81.7654C182.39 82.0214 182.886 82.8214 182.886 83.6534C182.886 85.0134 181.862 85.9414 180.086 85.9414H176.854ZM179.974 82.4694H178.07V84.8854H180.166C181.174 84.8854 181.622 84.2934 181.622 83.6694C181.622 82.9014 181.126 82.4694 179.974 82.4694ZM179.67 79.3334H178.07V81.4134H179.494C180.518 81.4134 181.03 81.0294 181.03 80.3414C181.03 79.6534 180.502 79.3334 179.67 79.3334ZM188.171 78.0214C190.363 78.0214 191.371 79.3654 191.627 80.2454H190.219C189.915 79.6054 189.243 79.1254 188.171 79.1254C186.715 79.1254 185.451 80.1174 185.451 82.1014C185.451 83.8294 186.635 85.0934 188.251 85.0934C189.451 85.0934 190.027 84.4694 190.331 83.8294H191.739C191.339 84.9654 190.315 86.2134 188.235 86.2134C185.867 86.2134 184.139 84.5174 184.139 82.0854C184.139 79.8454 185.707 78.0214 188.171 78.0214ZM198.026 78.2774V79.4134H195.866V85.9414H194.602V79.4134H192.41V78.2774H198.026ZM199.292 85.9414V78.2774H202.188C203.74 78.2774 204.716 78.9494 204.716 80.2134C204.716 80.8374 204.38 81.4934 203.5 81.7654C204.828 82.0214 205.324 82.8214 205.324 83.6534C205.324 85.0134 204.3 85.9414 202.524 85.9414H199.292ZM202.411 82.4694H200.508V84.8854H202.604C203.612 84.8854 204.06 84.2934 204.06 83.6694C204.06 82.9014 203.564 82.4694 202.411 82.4694ZM202.108 79.3334H200.508V81.4134H201.932C202.956 81.4134 203.468 81.0294 203.468 80.3414C203.468 79.6534 202.94 79.3334 202.108 79.3334ZM213.968 81.9734L216.048 78.6134L217.36 79.3174L215.984 81.9734L217.36 84.6294L216.048 85.3494L213.968 81.9734ZM210.736 81.9734L212.816 78.6134L214.128 79.3174L212.752 81.9734L214.128 84.6294L212.816 85.3494L210.736 81.9734ZM226.415 78.2774V85.9414H224.255V80.1174H221.183V85.9414H219.023V78.2774H226.415ZM228.414 89.7014V78.2774H230.494V79.1894H230.558C231.038 78.6134 231.742 78.0694 233.022 78.0694C234.638 78.0694 236.542 79.4134 236.542 82.1494C236.542 84.5974 234.846 86.1974 232.894 86.1974C231.806 86.1974 231.054 85.7014 230.59 85.0934H230.526V89.7014H228.414ZM234.35 82.1494C234.35 80.9974 233.71 79.9414 232.366 79.9414C231.326 79.9414 230.462 80.8214 230.462 82.1494C230.462 83.4614 231.326 84.3574 232.382 84.3574C233.694 84.3574 234.35 83.2374 234.35 82.1494ZM237.511 82.1014C237.511 79.7334 239.271 78.0214 241.607 78.0214C244.023 78.0214 245.703 79.7814 245.703 82.1014C245.703 84.3574 244.007 86.2134 241.607 86.2134C239.255 86.2134 237.511 84.4214 237.511 82.1014ZM239.687 82.1174C239.687 83.3814 240.519 84.2934 241.607 84.2934C242.775 84.2934 243.511 83.3494 243.511 82.1174C243.511 80.9334 242.823 79.9414 241.607 79.9414C240.407 79.9414 239.687 80.8694 239.687 82.1174ZM247.164 85.9414V78.2774H250.604C252.316 78.2774 253.212 78.9494 253.212 80.1174C253.212 80.8374 252.844 81.5094 251.884 81.7654C253.228 82.0214 253.724 82.8214 253.724 83.6534C253.724 85.0134 252.732 85.9414 250.892 85.9414H247.164ZM250.412 82.6134H249.212V84.5494H250.54C251.372 84.5494 251.66 84.1174 251.66 83.5734C251.66 83.0454 251.292 82.6134 250.412 82.6134ZM250.156 79.6694H249.212V81.2694H250.044C250.812 81.2694 251.164 80.9334 251.164 80.4374C251.164 79.9414 250.796 79.6694 250.156 79.6694ZM254.808 82.1014C254.808 79.7334 256.568 78.0214 258.904 78.0214C261.32 78.0214 263 79.7814 263 82.1014C263 84.3574 261.304 86.2134 258.904 86.2134C256.552 86.2134 254.808 84.4214 254.808 82.1014ZM256.984 82.1174C256.984 83.3814 257.816 84.2934 258.904 84.2934C260.072 84.2934 260.808 83.3494 260.808 82.1174C260.808 80.9334 260.12 79.9414 258.904 79.9414C257.704 79.9414 256.984 80.8694 256.984 82.1174ZM263.568 88.4214V84.1014H263.728C264.624 84.1014 265.36 83.4134 265.616 80.9334L265.872 78.2774H272.128V84.1014H273.264V88.4214H271.152V85.9414H265.68V88.4214H263.568ZM269.968 84.1014V80.1174H267.648L267.536 81.2694C267.36 82.9974 267.104 83.5894 266.64 84.1014H269.968ZM282.04 78.2774V85.9414H279.88V82.8374H276.808V85.9414H274.648V78.2774H276.808V81.0294H279.88V78.2774H282.04ZM284.023 85.9414V78.2774H286.087V80.8374C286.087 81.4134 286.071 82.5814 286.039 83.2054H286.071C286.279 82.8214 286.663 82.2454 287.111 81.6054L289.511 78.2774H291.415V85.9414H289.351V83.3974C289.351 82.8214 289.367 81.6374 289.399 81.0134H289.367C289.159 81.3974 288.727 82.0694 288.327 82.6134L285.943 85.9414H284.023ZM293.398 85.9414V78.2774H295.558V81.6054L298.502 78.2774H300.998L297.718 81.9414L301.078 85.9414H298.502L295.558 82.3414V85.9414H293.398ZM302.148 85.9414V78.2774H304.212V80.8374C304.212 81.4134 304.196 82.5814 304.164 83.2054H304.196C304.404 82.8214 304.788 82.2454 305.236 81.6054L307.636 78.2774H309.54V85.9414H307.476V83.3974C307.476 82.8214 307.492 81.6374 307.524 81.0134H307.492C307.284 81.3974 306.852 82.0694 306.452 82.6134L304.068 85.9414H302.148ZM314.611 81.9734L312.531 85.3494L311.203 84.6294L312.579 81.9734L311.203 79.3334L312.531 78.6134L314.611 81.9734ZM317.843 81.9734L315.763 85.3494L314.435 84.6294L315.811 81.9734L314.435 79.3334L315.763 78.6134L317.843 81.9734ZM319.523 80.3094V78.5494H321.283V80.3094H319.523ZM319.523 85.9414V84.1814H321.283V85.9414H319.523ZM76.52 104.941V96.0134H72.312V104.941H70.088V94.0294H78.744V104.941H76.52ZM80.8361 108.701V97.2774H82.9161V98.1894H82.9801C83.4601 97.6134 84.1641 97.0694 85.4441 97.0694C87.0601 97.0694 88.9641 98.4134 88.9641 101.149C88.9641 103.597 87.2681 105.197 85.3161 105.197C84.2281 105.197 83.4761 104.701 83.0121 104.093H82.9481V108.701H80.8361ZM86.7721 101.149C86.7721 99.9974 86.1321 98.9414 84.7881 98.9414C83.7481 98.9414 82.8841 99.8214 82.8841 101.149C82.8841 102.461 83.7481 103.357 84.8041 103.357C86.1161 103.357 86.7721 102.237 86.7721 101.149ZM90.4451 104.941V97.2774H92.5091V99.8374C92.5091 100.413 92.4931 101.581 92.4611 102.205H92.4931C92.7011 101.821 93.0851 101.245 93.5331 100.605L95.9331 97.2774H97.8371V104.941H95.7731V102.397C95.7731 101.821 95.7891 100.637 95.8211 100.013H95.7891C95.5811 100.397 95.1491 101.069 94.7491 101.613L92.3651 104.941H90.4451ZM103.388 97.0214C105.58 97.0214 106.764 98.5414 107.004 99.8214H104.86C104.668 99.2294 104.14 98.8454 103.372 98.8454C102.204 98.8454 101.5 99.7574 101.5 101.101C101.5 102.365 102.204 103.373 103.436 103.373C104.268 103.373 104.748 102.877 104.956 102.317H107.148C106.716 103.885 105.548 105.213 103.404 105.213C101.132 105.213 99.3081 103.597 99.3081 101.085C99.3081 98.8454 100.86 97.0214 103.388 97.0214ZM115.193 97.2774L111.001 108.701H108.953L110.361 104.877L107.577 97.2774H109.817L110.921 100.605C111.097 101.165 111.321 101.869 111.433 102.493H111.497C111.641 101.757 111.785 101.277 111.993 100.605L113.065 97.2774H115.193ZM121.852 97.2774V99.1174H119.852V104.941H117.692V99.1174H115.66V97.2774H121.852ZM126.466 97.0214C128.658 97.0214 129.842 98.5414 130.082 99.8214H127.938C127.746 99.2294 127.218 98.8454 126.45 98.8454C125.282 98.8454 124.578 99.7574 124.578 101.101C124.578 102.365 125.282 103.373 126.514 103.373C127.346 103.373 127.826 102.877 128.034 102.317H130.226C129.794 103.885 128.626 105.213 126.482 105.213C124.21 105.213 122.386 103.597 122.386 101.085C122.386 98.8454 123.938 97.0214 126.466 97.0214ZM137.009 97.2774V99.1174H135.009V104.941H132.849V99.1174H130.817V97.2774H137.009ZM138.195 104.941V97.2774H141.635C143.347 97.2774 144.243 97.9494 144.243 99.1174C144.243 99.8374 143.875 100.509 142.915 100.765C144.259 101.021 144.755 101.821 144.755 102.653C144.755 104.013 143.763 104.941 141.923 104.941H138.195ZM141.443 101.613H140.243V103.549H141.571C142.403 103.549 142.691 103.117 142.691 102.573C142.691 102.045 142.323 101.613 141.443 101.613ZM141.187 98.6694H140.243V100.269H141.075C141.843 100.269 142.195 99.9334 142.195 99.4374C142.195 98.9414 141.827 98.6694 141.187 98.6694ZM152.943 97.2774L148.751 108.701H146.703L148.111 104.877L145.327 97.2774H147.567L148.671 100.605C148.847 101.165 149.071 101.869 149.183 102.493H149.247C149.391 101.757 149.535 101.277 149.743 100.605L150.815 97.2774H152.943ZM157.244 97.0214C159.772 97.0214 161.148 98.9094 161.148 101.053C161.148 101.229 161.148 101.421 161.116 101.629H155.42C155.42 102.685 156.316 103.597 157.404 103.597C158.108 103.597 158.604 103.293 158.94 102.797H161.036C160.54 104.093 159.404 105.213 157.388 105.213C155.1 105.213 153.308 103.549 153.308 101.053C153.308 98.8614 154.748 97.0214 157.244 97.0214ZM157.228 98.5254C156.172 98.5254 155.516 99.3094 155.436 100.157H159.02C158.924 99.2614 158.236 98.5254 157.228 98.5254ZM171.048 97.2774L172.424 104.941H170.424L169.88 101.645C169.8 101.165 169.688 100.493 169.656 99.9654H169.608C169.496 100.525 169.368 101.053 169.176 101.645L168.072 104.941H166.424L165.304 101.597C165.112 101.037 164.952 100.525 164.84 99.9654H164.792C164.744 100.477 164.664 100.989 164.568 101.581L164.024 104.941H162.04L163.464 97.2774H165.64L166.856 100.877C166.984 101.261 167.144 101.885 167.24 102.317H167.288C167.384 101.869 167.56 101.213 167.688 100.829L168.872 97.2774H171.048ZM185.197 97.2774V104.941H183.037V101.837H179.965V104.941H177.805V97.2774H179.965V100.029H183.037V97.2774H185.197ZM190.604 97.0214C193.132 97.0214 194.508 98.9094 194.508 101.053C194.508 101.229 194.508 101.421 194.476 101.629H188.78C188.78 102.685 189.676 103.597 190.764 103.597C191.468 103.597 191.964 103.293 192.3 102.797H194.396C193.9 104.093 192.764 105.213 190.748 105.213C188.46 105.213 186.668 103.549 186.668 101.053C186.668 98.8614 188.108 97.0214 190.604 97.0214ZM190.588 98.5254C189.532 98.5254 188.876 99.3094 188.796 100.157H192.38C192.284 99.2614 191.596 98.5254 190.588 98.5254ZM195.351 102.765H197.319C197.383 103.277 197.815 103.661 198.567 103.661C199.367 103.661 199.815 103.261 199.815 102.717C199.815 102.077 199.287 101.725 198.599 101.725H197.895V100.285H198.695C199.303 100.285 199.687 99.9654 199.687 99.4054C199.687 98.9414 199.287 98.5734 198.615 98.5734C198.039 98.5734 197.575 98.8454 197.479 99.3414H195.559C195.719 97.9334 196.871 97.0214 198.679 97.0214C200.599 97.0214 201.671 97.9334 201.671 99.1494C201.671 100.125 201.143 100.749 200.231 100.973C201.175 101.165 201.847 101.821 201.847 102.765C201.847 104.109 200.887 105.213 198.487 105.213C196.727 105.213 195.559 104.333 195.351 102.765ZM203.383 108.701V97.2774H205.463V98.1894H205.527C206.007 97.6134 206.711 97.0694 207.991 97.0694C209.607 97.0694 211.511 98.4134 211.511 101.149C211.511 103.597 209.815 105.197 207.863 105.197C206.775 105.197 206.023 104.701 205.559 104.093H205.495V108.701H203.383ZM209.319 101.149C209.319 99.9974 208.679 98.9414 207.335 98.9414C206.295 98.9414 205.431 99.8214 205.431 101.149C205.431 102.461 206.295 103.357 207.351 103.357C208.663 103.357 209.319 102.237 209.319 101.149ZM212.992 104.941V97.2774H215.056V99.8374C215.056 100.413 215.04 101.581 215.008 102.205H215.04C215.248 101.821 215.632 101.245 216.08 100.605L218.48 97.2774H220.384V104.941H218.32V102.397C218.32 101.821 218.336 100.637 218.368 100.013H218.336C218.128 100.397 217.696 101.069 217.296 101.613L214.912 104.941H212.992ZM230.751 97.2774L232.127 104.941H230.127L229.583 101.645C229.503 101.165 229.391 100.493 229.359 99.9654H229.311C229.199 100.525 229.071 101.053 228.879 101.645L227.775 104.941H226.127L225.007 101.597C224.815 101.037 224.655 100.525 224.543 99.9654H224.495C224.447 100.477 224.367 100.989 224.271 101.581L223.727 104.941H221.743L223.167 97.2774H225.343L226.559 100.877C226.687 101.261 226.847 101.885 226.943 102.317H226.991C227.087 101.869 227.263 101.213 227.391 100.829L228.575 97.2774H230.751ZM232.996 101.101C232.996 98.7334 234.756 97.0214 237.092 97.0214C239.508 97.0214 241.188 98.7814 241.188 101.101C241.188 103.357 239.492 105.213 237.092 105.213C234.74 105.213 232.996 103.421 232.996 101.101ZM235.172 101.117C235.172 102.381 236.004 103.293 237.092 103.293C238.26 103.293 238.996 102.349 238.996 101.117C238.996 99.9334 238.308 98.9414 237.092 98.9414C235.892 98.9414 235.172 99.8694 235.172 101.117ZM250.264 97.0214C252.456 97.0214 253.464 98.3654 253.72 99.2454H252.312C252.008 98.6054 251.336 98.1254 250.264 98.1254C248.808 98.1254 247.544 99.1174 247.544 101.101C247.544 102.829 248.728 104.093 250.344 104.093C251.544 104.093 252.12 103.469 252.424 102.829H253.832C253.432 103.965 252.408 105.213 250.328 105.213C247.96 105.213 246.232 103.517 246.232 101.085C246.232 98.8454 247.8 97.0214 250.264 97.0214ZM259.448 104.941V97.2774H262.344C263.896 97.2774 264.872 97.9494 264.872 99.2134C264.872 99.8374 264.536 100.493 263.656 100.765C264.984 101.021 265.48 101.821 265.48 102.653C265.48 104.013 264.456 104.941 262.68 104.941H259.448ZM262.568 101.469H260.664V103.885H262.76C263.768 103.885 264.216 103.293 264.216 102.669C264.216 101.901 263.72 101.469 262.568 101.469ZM262.264 98.3334H260.664V100.413H262.088C263.112 100.413 263.624 100.029 263.624 99.3414C263.624 98.6534 263.096 98.3334 262.264 98.3334ZM274.764 97.2774V104.941H273.5V103.917H273.468C272.908 104.589 271.964 105.213 270.668 105.213C268.588 105.213 266.732 103.597 266.732 101.101C266.732 98.7334 268.46 97.0214 270.748 97.0214C272.14 97.0214 272.956 97.7574 273.484 98.3814H273.5V97.2774H274.764ZM268.044 101.101C268.044 102.573 268.956 104.093 270.844 104.093C272.284 104.093 273.612 102.877 273.612 101.149C273.612 99.3254 272.38 98.1254 270.876 98.1254C268.956 98.1254 268.044 99.6294 268.044 101.101ZM284.995 97.2774L286.371 104.941H285.187L284.467 100.637C284.371 100.077 284.259 99.3894 284.195 98.8614H284.147C284.019 99.4374 283.843 100.061 283.603 100.637L281.843 104.941H280.851L279.091 100.541C278.867 99.9814 278.659 99.3894 278.531 98.8614H278.483C278.419 99.3734 278.355 99.9334 278.259 100.525L277.507 104.941H276.339L277.747 97.2774H278.979L280.931 102.125C281.091 102.509 281.235 102.989 281.331 103.373H281.379C281.491 102.973 281.635 102.509 281.795 102.125L283.795 97.2774H284.995ZM287.932 104.941V97.2774H289.196V100.749C289.196 101.325 289.18 102.477 289.148 103.101H289.18C289.388 102.717 289.756 102.221 290.252 101.581L293.532 97.2774H294.668V104.941H293.404V101.469C293.404 100.893 293.42 99.7414 293.452 99.1174H293.42C293.212 99.5014 292.844 99.9974 292.348 100.637L289.068 104.941H287.932ZM296.726 104.941V103.181H298.486V104.141C298.486 105.629 297.974 106.557 297.622 107.101H296.742C297.126 106.509 297.302 105.773 297.382 104.941H296.726ZM70.184 123.941V113.029H72.6C74.856 113.029 76.168 114.117 76.168 115.813C76.168 117.077 75.336 117.797 74.392 118.133V118.165C76.104 118.341 76.952 119.541 76.952 120.933C76.952 122.997 75.336 123.941 73.32 123.941H70.184ZM75.576 120.837C75.576 119.637 74.728 118.901 73.192 118.901H71.512V122.725H73.416C74.888 122.725 75.576 121.957 75.576 120.837ZM74.808 115.925C74.808 114.741 73.848 114.245 72.6 114.245H71.512V117.685H72.696C74.008 117.685 74.808 116.965 74.808 115.925ZM82.0246 116.021C84.8086 116.037 85.8166 118.325 85.8166 120.005C85.8166 120.149 85.8006 120.389 85.7846 120.469H79.5286C79.5286 121.861 80.8086 123.093 82.2486 123.093C83.1606 123.093 83.7206 122.757 84.2166 122.165H85.6726C85.1606 123.125 84.0886 124.213 82.2806 124.213C79.8486 124.213 78.2166 122.389 78.2166 120.005C78.2166 117.893 79.7046 116.021 82.0246 116.021ZM82.0246 117.125C80.5686 117.125 79.6566 118.245 79.5446 119.413H84.4886C84.3606 118.213 83.4166 117.125 82.0246 117.125ZM86.6306 126.421V122.805H86.8226C87.6546 122.805 88.4386 122.101 88.6946 119.381L88.9826 116.277H94.2946V122.805H95.4786V126.421H94.2146V123.941H87.8946V126.421H86.6306ZM93.0306 122.805V117.413H90.0866L89.9266 119.253C89.7506 121.189 89.4626 122.133 88.8706 122.805H93.0306ZM100.183 116.021C102.967 116.037 103.975 118.325 103.975 120.005C103.975 120.149 103.959 120.389 103.943 120.469H97.6868C97.6868 121.861 98.9668 123.093 100.407 123.093C101.319 123.093 101.879 122.757 102.375 122.165H103.831C103.319 123.125 102.247 124.213 100.439 124.213C98.0068 124.213 96.3748 122.389 96.3748 120.005C96.3748 117.893 97.8628 116.021 100.183 116.021ZM100.183 117.125C98.7268 117.125 97.8148 118.245 97.7028 119.413H102.647C102.519 118.213 101.575 117.125 100.183 117.125ZM98.0388 114.405V112.997H99.5108V114.405H98.0388ZM100.823 114.405V112.997H102.295V114.405H100.823ZM113.589 116.277L114.965 123.941H113.781L113.061 119.637C112.965 119.077 112.853 118.389 112.789 117.861H112.741C112.613 118.437 112.437 119.061 112.197 119.637L110.437 123.941H109.445L107.685 119.541C107.461 118.981 107.253 118.389 107.125 117.861H107.077C107.013 118.373 106.949 118.933 106.853 119.525L106.101 123.941H104.933L106.341 116.277H107.573L109.525 121.125C109.685 121.509 109.829 121.989 109.925 122.373H109.973C110.085 121.973 110.229 121.509 110.389 121.125L112.389 116.277H113.589ZM120.526 127.701V116.277H121.79V117.365H121.822C122.334 116.757 123.15 116.021 124.702 116.021C127.15 116.021 128.558 118.021 128.558 120.101C128.558 122.421 126.894 124.213 124.654 124.213C123.342 124.213 122.382 123.589 121.822 122.917H121.79V127.701H120.526ZM127.246 120.101C127.246 118.613 126.318 117.125 124.43 117.125C122.894 117.125 121.678 118.325 121.678 120.149C121.678 121.893 122.99 123.093 124.462 123.093C126.318 123.093 127.246 121.573 127.246 120.101ZM137.749 116.277V123.941H136.485V122.917H136.453C135.893 123.589 134.949 124.213 133.653 124.213C131.573 124.213 129.717 122.597 129.717 120.101C129.717 117.733 131.445 116.021 133.733 116.021C135.125 116.021 135.941 116.757 136.469 117.381H136.485V116.277H137.749ZM131.029 120.101C131.029 121.573 131.941 123.093 133.829 123.093C135.269 123.093 136.597 121.877 136.597 120.149C136.597 118.325 135.365 117.125 133.861 117.125C131.941 117.125 131.029 118.629 131.029 120.101ZM140.795 120.101C140.795 121.829 142.107 123.061 143.579 123.061C145.195 123.061 146.363 121.781 146.363 120.101C146.363 118.485 145.307 117.157 143.627 117.157C141.995 117.157 140.795 118.405 140.795 120.101ZM144.235 114.277C142.331 114.613 141.131 115.605 140.827 117.413H140.875C141.419 116.629 142.603 116.021 143.707 116.021C146.091 116.021 147.675 117.781 147.675 120.101C147.675 122.357 145.947 124.213 143.579 124.213C141.323 124.213 139.531 122.645 139.531 119.461C139.531 114.805 141.659 113.509 144.235 113.061C144.763 112.965 145.691 112.661 146.219 112.309L146.763 113.381C145.755 113.957 145.083 114.133 144.235 114.277ZM148.826 120.101C148.826 117.733 150.618 116.021 152.922 116.021C155.306 116.021 157.018 117.781 157.018 120.101C157.018 122.357 155.29 124.213 152.922 124.213C150.602 124.213 148.826 122.421 148.826 120.101ZM150.138 120.101C150.138 121.829 151.45 123.061 152.922 123.061C154.538 123.061 155.706 121.781 155.706 120.101C155.706 118.485 154.602 117.157 152.922 117.157C151.29 117.157 150.138 118.405 150.138 120.101ZM163.135 116.277V117.413H160.975V123.941H159.711V117.413H157.519V116.277H163.135ZM170.583 116.277L166.359 127.701H165.143L166.535 123.941L163.719 116.277H165.015L166.631 120.741C166.775 121.109 167.063 121.941 167.143 122.357H167.175C167.351 121.813 167.511 121.301 167.703 120.741L169.303 116.277H170.583ZM179.217 116.021C181.409 116.021 182.417 117.365 182.673 118.245H181.265C180.961 117.605 180.289 117.125 179.217 117.125C177.761 117.125 176.497 118.117 176.497 120.101C176.497 121.829 177.681 123.093 179.297 123.093C180.497 123.093 181.073 122.469 181.377 121.829H182.785C182.385 122.965 181.361 124.213 179.281 124.213C176.913 124.213 175.185 122.517 175.185 120.085C175.185 117.845 176.753 116.021 179.217 116.021ZM183.873 120.101C183.873 117.733 185.665 116.021 187.969 116.021C190.353 116.021 192.065 117.781 192.065 120.101C192.065 122.357 190.337 124.213 187.969 124.213C185.649 124.213 183.873 122.421 183.873 120.101ZM185.185 120.101C185.185 121.829 186.497 123.061 187.969 123.061C189.585 123.061 190.753 121.781 190.753 120.101C190.753 118.485 189.649 117.157 187.969 117.157C186.337 117.157 185.185 118.405 185.185 120.101ZM201.249 116.021C203.441 116.021 204.449 117.365 204.705 118.245H203.297C202.993 117.605 202.321 117.125 201.249 117.125C199.793 117.125 198.529 118.117 198.529 120.101C198.529 121.829 199.713 123.093 201.329 123.093C202.529 123.093 203.105 122.469 203.409 121.829H204.817C204.417 122.965 203.393 124.213 201.313 124.213C198.945 124.213 197.217 122.517 197.217 120.085C197.217 117.845 198.785 116.021 201.249 116.021ZM206.976 121.653L207.424 116.277H213.2V123.941H211.936V117.413H208.608L208.224 121.653C208.064 123.365 207.552 124.037 206.176 124.037C205.936 124.037 205.712 124.005 205.504 123.957V122.933C205.616 122.965 205.888 122.997 206.048 122.997C206.656 122.997 206.896 122.581 206.976 121.653ZM214.873 120.101C214.873 117.733 216.665 116.021 218.969 116.021C221.353 116.021 223.065 117.781 223.065 120.101C223.065 122.357 221.337 124.213 218.969 124.213C216.649 124.213 214.873 122.421 214.873 120.101ZM216.185 120.101C216.185 121.829 217.497 123.061 218.969 123.061C220.585 123.061 221.753 121.781 221.753 120.101C221.753 118.485 220.649 117.157 218.969 117.157C217.337 117.157 216.185 118.405 216.185 120.101ZM224.745 123.941V116.277H227.641C229.193 116.277 230.169 116.949 230.169 118.213C230.169 118.837 229.833 119.493 228.953 119.765C230.281 120.021 230.777 120.821 230.777 121.653C230.777 123.013 229.753 123.941 227.977 123.941H224.745ZM227.865 120.469H225.961V122.885H228.057C229.065 122.885 229.513 122.293 229.513 121.669C229.513 120.901 229.017 120.469 227.865 120.469ZM227.561 117.333H225.961V119.413H227.385C228.409 119.413 228.921 119.029 228.921 118.341C228.921 117.653 228.393 117.333 227.561 117.333ZM240.061 116.277V123.941H238.797V122.917H238.765C238.205 123.589 237.261 124.213 235.965 124.213C233.885 124.213 232.029 122.597 232.029 120.101C232.029 117.733 233.757 116.021 236.045 116.021C237.437 116.021 238.253 116.757 238.781 117.381H238.797V116.277H240.061ZM233.341 120.101C233.341 121.573 234.253 123.093 236.141 123.093C237.581 123.093 238.909 121.877 238.909 120.149C238.909 118.325 237.677 117.125 236.173 117.125C234.253 117.125 233.341 118.629 233.341 120.101ZM250.292 116.277L251.668 123.941H250.484L249.764 119.637C249.668 119.077 249.556 118.389 249.492 117.861H249.444C249.316 118.437 249.14 119.061 248.9 119.637L247.14 123.941H246.148L244.388 119.541C244.164 118.981 243.956 118.389 243.828 117.861H243.78C243.716 118.373 243.652 118.933 243.556 119.525L242.804 123.941H241.636L243.044 116.277H244.276L246.228 121.125C246.388 121.509 246.532 121.989 246.628 122.373H246.676C246.788 121.973 246.932 121.509 247.092 121.125L249.092 116.277H250.292ZM253.229 123.941V116.277H254.493V119.749C254.493 120.325 254.477 121.477 254.445 122.101H254.477C254.685 121.717 255.053 121.221 255.549 120.581L258.829 116.277H259.965V123.941H258.701V120.469C258.701 119.893 258.717 118.741 258.749 118.117H258.717C258.509 118.501 258.141 118.997 257.645 119.637L254.365 123.941H253.229ZM262.023 123.941V122.181H263.783V123.141C263.783 124.629 263.271 125.557 262.919 126.101H262.039C262.423 125.509 262.599 124.773 262.679 123.941H262.023ZM69.112 142.941L73.56 132.029H74.744L79.064 142.941H77.608L76.488 139.997H71.656L70.52 142.941H69.112ZM73.288 135.757L72.104 138.813H76.04L74.888 135.741C74.664 135.149 74.328 134.173 74.136 133.533H74.072C73.864 134.205 73.528 135.133 73.288 135.757ZM84.2759 142.941V135.277H87.1719C88.7239 135.277 89.6999 135.949 89.6999 137.213C89.6999 137.837 89.3639 138.493 88.4839 138.765C89.8119 139.021 90.3079 139.821 90.3079 140.653C90.3079 142.013 89.2839 142.941 87.5079 142.941H84.2759ZM87.3959 139.469H85.4919V141.885H87.5879C88.5959 141.885 89.0439 141.293 89.0439 140.669C89.0439 139.901 88.5479 139.469 87.3959 139.469ZM87.0919 136.333H85.4919V138.413H86.9159C87.9399 138.413 88.4519 138.029 88.4519 137.341C88.4519 136.653 87.9239 136.333 87.0919 136.333ZM94.7924 139.469H93.3524V141.885H94.7924C95.7364 141.885 96.1204 141.293 96.1204 140.669C96.1204 139.901 95.6884 139.469 94.7924 139.469ZM93.3524 138.413H94.8084C96.4404 138.413 97.3844 139.277 97.3844 140.653C97.3844 142.013 96.4724 142.941 94.8564 142.941H92.0884V135.277H93.3524V138.413ZM98.7924 142.941V135.277H100.056V142.941H98.7924ZM105.68 137.789C105.008 138.461 104.752 139.005 104.752 139.917H103.584C103.584 138.749 103.728 138.077 104.48 137.213C105.376 136.189 106 135.709 106 134.685C106 133.677 105.344 132.861 104.144 132.861C103.152 132.861 102.32 133.581 102.32 134.781H100.928C100.976 132.941 102.384 131.677 104.192 131.677C106.32 131.677 107.376 133.069 107.376 134.557C107.376 136.109 106.4 137.069 105.68 137.789ZM103.456 142.941V141.533H104.864V142.941H103.456ZM119.337 139.357H112.873V138.077H119.337V139.357ZM125.57 142.941V135.277H129.01C130.722 135.277 131.618 135.949 131.618 137.117C131.618 137.837 131.25 138.509 130.29 138.765C131.634 139.021 132.13 139.821 132.13 140.653C132.13 142.013 131.138 142.941 129.298 142.941H125.57ZM128.818 139.613H127.618V141.549H128.946C129.778 141.549 130.066 141.117 130.066 140.573C130.066 140.045 129.698 139.613 128.818 139.613ZM128.562 136.669H127.618V138.269H128.45C129.218 138.269 129.57 137.933 129.57 137.437C129.57 136.941 129.202 136.669 128.562 136.669ZM136.766 139.597H135.886V141.373H136.766C137.502 141.373 137.806 140.957 137.806 140.477C137.806 139.917 137.486 139.597 136.766 139.597ZM135.886 138.029H137.038C138.878 138.029 139.966 138.845 139.966 140.477C139.966 141.981 138.91 142.941 137.118 142.941H133.726V135.277H135.886V138.029ZM141.23 142.941V135.277H143.39V142.941H141.23ZM148.615 145.421V141.101H148.775C149.671 141.101 150.407 140.413 150.663 137.933L150.919 135.277H157.175V141.101H158.311V145.421H156.199V142.941H150.727V145.421H148.615ZM155.015 141.101V137.117H152.695L152.583 138.269C152.407 139.997 152.151 140.589 151.687 141.101H155.015ZM167.202 135.277V142.941H165.122V141.981H165.058C164.562 142.637 163.81 143.197 162.562 143.197C161.074 143.197 159.074 141.997 159.074 139.101C159.074 136.637 160.77 135.069 162.722 135.069C163.922 135.069 164.642 135.661 165.058 136.269H165.122V135.277H167.202ZM161.266 139.117C161.266 140.237 161.89 141.325 163.234 141.325C164.258 141.325 165.154 140.429 165.154 139.133C165.154 137.789 164.322 136.909 163.25 136.909C161.906 136.909 161.266 138.013 161.266 139.117ZM169.227 146.701V135.277H171.307V136.189H171.371C171.851 135.613 172.555 135.069 173.835 135.069C175.451 135.069 177.355 136.413 177.355 139.149C177.355 141.597 175.659 143.197 173.707 143.197C172.619 143.197 171.867 142.701 171.403 142.093H171.339V146.701H169.227ZM175.163 139.149C175.163 137.997 174.523 136.941 173.179 136.941C172.139 136.941 171.275 137.821 171.275 139.149C171.275 140.461 172.139 141.357 173.195 141.357C174.507 141.357 175.163 140.237 175.163 139.149ZM178.836 142.941V135.277H180.9V137.837C180.9 138.413 180.884 139.581 180.852 140.205H180.884C181.092 139.821 181.476 139.245 181.924 138.605L184.324 135.277H186.228V142.941H184.164V140.397C184.164 139.821 184.18 138.637 184.212 138.013H184.18C183.972 138.397 183.54 139.069 183.14 139.613L180.756 142.941H178.836ZM193.587 135.277V137.117H191.587V142.941H189.427V137.117H187.395V135.277H193.587ZM198.057 135.021C200.585 135.021 201.961 136.909 201.961 139.053C201.961 139.229 201.961 139.421 201.929 139.629H196.233C196.233 140.685 197.129 141.597 198.217 141.597C198.921 141.597 199.417 141.293 199.753 140.797H201.849C201.353 142.093 200.217 143.213 198.201 143.213C195.913 143.213 194.121 141.549 194.121 139.053C194.121 136.861 195.561 135.021 198.057 135.021ZM198.041 136.525C196.985 136.525 196.329 137.309 196.249 138.157H199.833C199.737 137.261 199.049 136.525 198.041 136.525ZM211.044 135.021C213.236 135.021 214.42 136.541 214.66 137.821H212.516C212.324 137.229 211.796 136.845 211.028 136.845C209.86 136.845 209.156 137.757 209.156 139.101C209.156 140.365 209.86 141.373 211.092 141.373C211.924 141.373 212.404 140.877 212.612 140.317H214.804C214.372 141.885 213.204 143.213 211.06 143.213C208.788 143.213 206.964 141.597 206.964 139.085C206.964 136.845 208.516 135.021 211.044 135.021ZM221.587 135.277V137.117H219.587V142.941H217.427V137.117H215.395V135.277H221.587ZM222.773 142.941V135.277H224.837V137.837C224.837 138.413 224.821 139.581 224.789 140.205H224.821C225.029 139.821 225.413 139.245 225.861 138.605L228.261 135.277H230.165V142.941H228.101V140.397C228.101 139.821 228.117 138.637 228.149 138.013H228.117C227.909 138.397 227.477 139.069 227.077 139.613L224.693 142.941H222.773ZM231.236 142.941L234.02 139.069L231.396 135.277H233.812L234.788 136.845C234.948 137.085 235.092 137.437 235.204 137.661H235.252C235.364 137.421 235.492 137.149 235.636 136.893L236.564 135.277H238.964L236.34 139.037L239.076 142.941H236.58L235.572 141.293C235.38 140.957 235.252 140.669 235.172 140.461H235.108C234.98 140.749 234.836 141.021 234.676 141.309L233.668 142.941H231.236ZM240.226 142.941V135.277H242.29V137.837C242.29 138.413 242.274 139.581 242.242 140.205H242.274C242.482 139.821 242.866 139.245 243.314 138.605L245.714 135.277H247.618V142.941H245.554V140.397C245.554 139.821 245.57 138.637 245.602 138.013H245.57C245.362 138.397 244.93 139.069 244.53 139.613L242.146 142.941H240.226ZM249.681 142.941V140.877H251.953V142.941H249.681ZM249.633 132.029H252.001L251.777 139.565H249.857L249.633 132.029Z" fill="#29383D"/>
<mask id="mask0_4301_10984" style="mask-type:luminance" maskUnits="userSpaceOnUse" x="345" y="73" width="285" height="363">
<path d="M345 73H629.253V435.814H345V73Z" fill="white"/>
</mask>
<g mask="url(#mask0_4301_10984)">
<path d="M350.676 228.18C350.676 228.18 348.711 227.306 348.93 226.213C348.93 225.12 350.021 224.465 350.021 224.465C350.021 224.465 347.838 223.153 348.056 221.842C348.275 220.531 350.24 219.875 350.24 219.875C350.24 219.875 348.711 218.126 348.93 217.252C349.148 216.378 352.423 215.941 352.641 215.941C352.641 215.941 346.528 213.755 345.873 211.569C345 209.384 344.782 208.291 345.218 208.291C345.655 208.291 351.113 211.132 351.986 211.132L365.74 212.225C369.234 212.444 372.727 217.252 372.29 223.153V227.525H371.853C371.853 227.525 371.198 230.584 368.579 231.459C366.177 232.551 351.768 231.896 350.676 230.803C349.585 229.71 350.24 228.399 350.676 228.18Z" fill="#F7B693"/>
<path d="M352.641 215.941L359.191 215.285C359.191 215.285 351.986 215.285 348.275 213.755C348.275 213.755 351.768 215.941 352.641 215.941ZM350.24 219.875L355.479 219.219C355.479 219.219 350.021 219.438 349.367 218.563L350.24 219.875ZM350.24 224.246L357.008 223.809C357.008 223.809 348.93 223.809 348.275 222.497C348.275 222.497 348.93 223.809 350.021 224.464L350.24 224.246ZM348.93 225.994C348.93 225.994 348.493 227.524 350.676 228.18L356.353 227.743L350.24 227.524C349.367 227.087 348.93 226.432 348.93 225.994Z" fill="#D8A471"/>
<path d="M420.102 212.662L391.939 189.494C391.939 189.494 404.383 187.964 420.321 184.249C436.04 180.533 420.321 212.662 420.321 212.662H420.102ZM505.684 167.856L534.066 178.347L502.409 200.204H488.218L505.684 167.856Z" fill="#4E6171"/>
<path d="M450.667 284.132C450.231 281.51 450.012 281.51 448.047 279.98C439.016 272.657 429.205 266.353 418.792 261.183C419.884 258.342 421.631 254.845 421.412 252.441C420.182 235.495 419.745 218.502 420.102 201.516C420.102 201.516 408.75 206.98 406.348 213.099C403.51 219.656 401.982 227.087 400.017 234.081C398.489 239.764 396.742 244.135 395.65 250.911C394.122 254.845 394.122 254.845 393.904 256.593C392.986 261.467 393.596 266.506 395.65 271.019C399.58 279.105 409.405 287.629 417.046 291.782C423.596 295.498 430.8 296.809 438.223 297.028H446.738C449.576 297.028 449.794 297.465 450.667 294.842C451.541 291.564 451.104 287.411 450.667 284.132Z" fill="#414142"/>
<path opacity="0.3" d="M629.253 427.072C629.253 431.881 576.638 435.815 511.797 435.815C446.737 435.815 393.904 431.881 393.904 427.072C393.904 422.264 446.737 418.111 511.797 418.111C576.638 418.111 629.253 422.045 629.253 426.854V427.072Z" fill="#151626"/>
<path d="M545.418 432.318L493.895 429.258C493.895 429.258 492.585 405.872 482.542 389.917L513.98 373.743C513.98 373.743 513.544 403.031 517.037 415.27C517.037 415.27 538.869 408.058 545.418 432.318Z" fill="#272729"/>
<path d="M489.092 393.413C489.092 393.413 497.824 416.799 498.479 425.979L532.974 429.039L499.571 424.449C499.571 424.449 497.824 405.215 489.092 393.413Z" fill="#5E5E5E"/>
<path d="M428.617 391.665L441.061 414.395C441.061 414.395 419.229 413.084 422.067 428.165H469.443C469.443 428.165 464.64 398.003 454.16 384.452L428.617 391.665Z" fill="#272729"/>
<path d="M436.913 397.566C436.913 397.566 446.082 413.959 446.737 415.707C446.737 415.707 426.87 415.707 425.779 424.668C425.779 424.668 431.018 417.237 452.414 418.548L437.131 397.566H436.913Z" fill="#5E5E5E"/>
<path d="M472.717 371.994V312.982C472.717 306.207 472.281 298.776 476.866 293.093C480.577 288.722 486.908 286.099 491.056 282.165C497.388 276.264 502.627 268.395 505.684 260.309C504.374 265.117 504.592 270.144 505.029 274.734C506.121 283.258 507.212 291.345 510.487 299.213C520.311 321.725 516.6 347.952 516.6 371.994C516.6 384.234 515.29 386.201 494.986 392.539C483.634 396.255 472.717 384.234 472.717 371.994Z" fill="#414142"/>
<path d="M474.246 337.024H453.724C442.808 337.024 434.075 328.282 434.075 317.354V306.426C434.075 295.497 442.808 286.755 453.724 286.755H474.246C485.162 286.755 493.895 295.497 493.895 306.426V317.354C493.895 328.282 485.162 337.024 474.246 337.024Z" fill="#414142"/>
<path d="M461.802 374.18V367.623L463.985 315.168C464.203 308.393 465.076 300.961 460.71 295.06C457.217 290.689 451.104 287.629 446.956 283.476C441.061 277.575 436.04 269.488 433.202 261.62C434.511 265.991 434.075 271.018 433.202 275.827C431.892 284.132 430.8 292.219 426.87 299.869C416.173 321.943 418.792 348.39 417.919 372.65C417.482 384.671 424.687 395.818 439.096 391.665C452.195 387.949 461.147 386.201 461.802 374.18Z" fill="#414142"/>
<path d="M504.811 293.312C506.121 291.782 506.121 289.596 506.557 285.662C506.994 279.324 508.74 272.985 509.614 266.647C510.705 257.249 511.579 247.632 512.889 238.234C515.072 223.372 519.438 199.111 502.409 192.117C490.183 186.872 474.901 185.997 461.801 184.686C450.449 183.593 438.005 184.249 429.708 192.991C416.609 207.417 418.792 232.114 420.976 249.818C422.94 263.587 428.18 277.138 439.751 285.444C445.427 289.815 452.195 292 458.963 293.53C470.753 296.153 487.345 300.087 499.353 296.153C502.191 295.279 503.719 294.405 504.811 293.312Z" fill="#414142"/>
<path d="M465.513 286.536C465.513 286.536 446.519 291.563 441.061 304.677L459.182 309.048C459.182 309.048 461.365 292.656 469.443 289.377L465.513 286.755V286.536Z" fill="#272729"/>
<path d="M423.159 238.452C423.159 238.452 425.342 270.581 436.258 275.608C436.258 275.608 425.56 256.374 423.159 238.452ZM422.941 346.641C422.941 346.641 416.391 378.114 425.779 385.982C425.779 385.982 420.539 364.781 422.941 346.641Z" fill="white"/>
<path d="M420.321 201.516C420.321 201.516 410.496 204.138 408.313 209.821C408.313 209.821 413.771 205.887 415.954 207.635C418.137 209.821 420.757 239.764 422.067 253.096C422.067 253.096 417.701 220.531 435.821 221.405C435.821 221.405 423.595 202.608 419.884 201.516H420.321Z" fill="#323234"/>
<path d="M429.272 103.162C429.272 103.162 408.313 123.707 415.518 161.081C422.722 198.237 426.434 224.902 444.772 225.339C463.111 225.558 507.431 177.255 507.867 143.596C508.085 109.938 444.554 93.5456 429.272 103.162Z" fill="#F7B693"/>
<path d="M458.09 190.15C458.09 190.15 452.195 203.701 444.991 203.701C437.786 203.701 435.821 195.833 434.511 188.62C434.511 188.62 443.026 201.515 458.09 190.369V190.15Z" fill="#0A0A0D"/>
<path d="M450.012 209.821C450.012 209.821 441.934 204.794 435.821 208.291C435.821 208.291 445.864 207.854 450.012 210.039V209.821Z" fill="#CD5753"/>
<path d="M416.391 101.413C416.391 101.413 403.292 101.632 402.855 119.991C402.855 119.991 397.615 123.925 397.834 130.482C397.834 137.039 400.89 138.569 400.89 138.569C400.89 138.569 395.65 143.814 400.235 151.683C404.601 159.769 411.588 157.584 411.588 157.584C411.588 157.584 410.496 167.856 405.693 168.949C405.693 168.949 410.714 177.254 415.299 177.036C415.299 177.036 408.531 185.341 416.391 193.21C416.391 193.21 414.208 205.668 423.814 210.257C423.814 210.257 425.124 228.835 438.223 227.742L441.279 211.787C441.279 211.787 438.659 219 435.821 217.033C433.536 215.156 431.659 212.83 430.307 210.199C428.956 207.567 428.157 204.686 427.962 201.733C427.743 194.521 411.588 139.88 423.595 120.865L416.391 101.413Z" fill="#272729"/>
<path d="M468.57 125.018C468.57 125.018 459.837 134.198 450.449 125.018C450.449 125.018 434.512 127.204 429.054 114.527C429.054 114.527 422.941 119.117 427.307 125.018C427.307 125.018 397.834 115.62 413.116 94.4194C419.666 85.8954 424.905 86.9882 427.962 88.7368C427.962 88.7368 429.054 71.9074 452.414 73.0002C475.774 74.093 473.591 81.7427 473.591 81.7427C473.591 81.7427 483.634 78.0272 488.437 81.5242C491.372 83.7866 493.513 86.9248 494.55 90.4853C494.55 90.4853 499.789 87.2068 503.719 91.3595C507.431 95.7308 507.212 98.7906 507.212 98.7906C507.212 98.7906 511.579 95.9493 515.072 100.976C518.347 105.785 519.438 113.434 518.565 115.183C517.692 117.15 523.805 118.243 522.276 130.482C520.53 142.722 512.889 139.662 510.487 138.788C507.867 137.695 494.768 138.788 497.388 127.641C497.388 127.641 493.895 134.198 489.965 132.449C489.965 132.449 493.021 135.291 494.986 133.105C494.986 133.105 490.838 138.351 486.69 135.946C482.324 133.324 481.887 128.734 481.887 128.734C480.141 128.515 473.591 122.614 474.246 118.68C474.246 118.68 461.365 112.56 455.034 113.434C455.034 113.434 452.85 125.237 468.57 124.8V125.018Z" fill="#272729"/>
<path d="M455.689 180.752C455.689 180.752 457.217 183.375 455.689 184.249C453.942 185.342 450.012 184.249 448.921 184.904C447.829 185.56 443.681 187.746 441.279 186.872C439.096 185.779 436.913 182.5 436.476 181.845C436.04 181.407 435.821 176.818 437.568 175.943C437.568 175.943 436.258 179.659 437.131 181.189C438.005 182.719 440.843 185.56 443.026 185.123C445.209 184.686 447.392 182.937 449.576 182.937C451.54 183.156 456.78 182.937 455.689 180.752Z" fill="#A43734"/>
<path d="M463.112 83.9287C460.515 83.4109 457.891 83.046 455.252 82.8359C452.717 82.4911 450.146 82.4911 447.611 82.8359C444.991 83.4916 442.808 84.3658 440.625 85.8958C438.441 87.4257 437.35 89.6113 435.821 92.0155C436.476 89.3928 437.35 86.5515 439.533 84.5844C441.597 82.5305 444.285 81.2232 447.174 80.8688C449.928 80.41 452.744 80.4842 455.47 81.0874C458.308 81.7431 460.928 82.6173 463.112 83.9287ZM458.09 95.5125C455.034 95.5125 452.196 96.3868 449.576 97.9167C447.181 99.424 445.224 101.534 443.899 104.036C442.371 106.441 441.716 109.501 442.153 112.123C442.312 113.577 442.762 114.983 443.474 116.26C444.187 117.536 445.148 118.657 446.301 119.554L444.118 118.462L442.589 116.932C442.153 116.276 441.498 115.62 441.279 114.746L440.406 112.56C439.751 109.282 440.406 106.004 441.934 102.944C443.514 100.075 445.959 97.7794 448.921 96.3868C451.759 95.0754 455.034 94.8568 458.09 95.5125ZM427.962 93.764L424.469 95.294C423.376 95.7365 422.348 96.3246 421.412 97.0425C420.519 97.7646 419.778 98.6558 419.229 99.6652C418.792 100.758 418.792 101.851 418.574 103.162C417.981 101.909 417.831 100.491 418.148 99.1406C418.465 97.7905 419.231 96.5883 420.321 95.7311C421.412 94.9417 422.651 94.3801 423.964 94.0797C425.277 93.7793 426.636 93.7463 427.962 93.9826V93.764Z" fill="white"/>
<path d="M412.898 111.249C412.898 111.249 403.073 120.866 410.715 127.204C410.715 127.204 405.475 120.866 412.898 111.249ZM401.763 125.456C401.763 125.456 398.052 138.132 409.405 138.788C409.405 138.788 399.799 137.258 401.763 125.674V125.456ZM404.383 142.066C404.383 142.066 399.362 147.53 404.383 152.557C409.623 157.803 416.173 154.743 417.046 149.498C417.046 149.498 410.933 158.677 405.257 151.902C401.327 147.312 404.383 142.066 404.383 142.066ZM415.736 159.333C415.736 159.333 413.989 169.168 407.876 170.261C407.876 170.261 415.518 171.572 415.518 159.333H415.736ZM419.229 178.348C419.229 178.348 413.989 185.998 420.321 190.15C420.321 190.15 416.828 185.998 419.229 178.348ZM420.321 195.833C420.321 195.833 418.137 206.542 427.962 206.98C427.962 206.98 419.011 205.45 420.321 196.051V195.833ZM429.272 213.755C429.272 213.755 427.089 225.776 438.005 225.339C438.005 225.339 427.962 224.465 429.272 213.755ZM441.498 222.498C441.498 222.498 439.315 230.584 448.702 228.836C448.702 228.836 440.406 229.273 441.498 222.279V222.498ZM454.597 222.498C454.597 222.498 455.252 215.504 463.985 217.689C463.985 217.689 457.435 216.815 454.379 222.498H454.597Z" fill="#FAFAFA"/>
<path d="M515.945 116.275C515.945 116.275 530.791 108.189 531.228 125.674V126.548C531.228 126.548 536.467 128.734 534.721 136.602C532.974 144.251 529.918 143.596 529.918 143.596C529.918 143.596 535.157 155.398 524.023 161.518H522.495C522.495 161.518 521.185 163.704 519.657 164.141C519.657 164.141 525.333 169.605 521.185 175.069C516.818 180.314 513.107 180.096 506.994 178.784C506.994 178.784 510.05 175.069 509.614 172.665C509.614 172.665 505.684 177.473 502.191 177.473C502.191 177.473 504.374 183.811 501.099 187.964C501.099 187.964 504.592 198.455 501.099 202.608C501.099 202.608 500.663 200.859 498.916 200.422C498.916 200.422 491.93 212.006 483.852 215.066C483.852 215.066 484.507 212.443 483.852 210.695C483.852 210.695 479.922 217.251 475.774 218.563C475.774 218.563 475.119 226.65 461.365 225.557C461.365 225.557 443.899 234.737 438.005 227.743C438.005 227.743 439.533 215.94 441.279 211.787C441.279 211.787 439.751 219.437 443.681 219.874C449.139 220.311 450.449 220.311 451.541 219.219C452.414 218.126 457.217 214.41 459.4 213.317C459.4 213.317 463.766 204.575 470.316 202.389C470.316 202.389 470.316 198.455 475.556 195.177C480.577 191.898 481.887 192.991 481.887 192.991C481.887 192.991 483.852 188.183 486.472 187.964C486.472 187.964 485.162 184.248 487.563 180.533C489.747 177.036 491.93 175.943 491.93 175.943C491.93 175.943 490.838 169.168 493.24 164.578C495.423 159.988 497.606 157.584 497.606 157.584C497.606 157.584 494.55 142.284 501.973 137.257C509.832 132.231 515.945 116.275 515.945 116.275Z" fill="#272729"/>
<path d="M460.273 160.644C460.273 160.644 469.006 147.093 477.521 160.644C477.521 160.644 470.316 167.856 460.273 160.644Z" fill="#1E1E1C"/>
<path d="M460.273 160.425C460.273 160.425 469.006 150.372 477.521 160.425C477.521 160.425 470.316 165.889 460.273 160.425Z" fill="white"/>
<path d="M479.049 158.022C469.879 143.596 460.273 158.022 460.273 158.022C460.273 158.022 469.879 146.219 479.049 158.022ZM443.026 159.333C436.476 143.815 424.905 156.492 424.905 156.492C424.905 156.492 435.821 146.438 443.026 159.333Z" fill="#A43734"/>
<path d="M443.026 161.518C443.026 161.518 435.821 146.656 425.56 159.332C425.56 159.332 432.11 167.638 443.026 161.518Z" fill="#272729"/>
<path d="M443.026 161.3C443.026 161.3 435.385 150.371 425.997 159.332C425.997 159.332 432.546 165.452 443.026 161.3ZM436.476 190.806L437.349 194.74C437.349 194.74 439.969 198.237 444.991 198.237C450.012 198.237 454.597 195.614 454.597 195.614L454.815 192.335C454.815 192.335 444.991 198.892 436.476 190.806Z" fill="white"/>
<path d="M475.992 159.77C475.992 160.862 474.901 161.955 473.809 161.955C472.718 161.955 471.626 160.862 471.626 159.77C471.626 158.458 472.499 157.584 473.809 157.584C474.901 157.584 475.992 158.458 475.992 159.77ZM440.406 159.77C440.406 160.862 439.315 161.955 438.223 161.955C437.644 161.955 437.089 161.725 436.679 161.315C436.27 160.905 436.04 160.349 436.04 159.77C436.04 159.19 436.27 158.634 436.679 158.224C437.089 157.814 437.644 157.584 438.223 157.584C439.315 157.584 440.406 158.458 440.406 159.77Z" fill="#0A0A0D"/>
<path d="M458.09 144.688C458.09 144.688 455.034 151.901 459.182 151.464C463.548 151.027 478.176 139.88 486.035 153.431C486.035 153.431 482.76 138.132 459.4 149.934C458.09 150.59 457.217 149.06 458.09 144.688ZM442.808 147.311C442.808 147.311 445.428 152.338 442.153 150.59C439.533 149.278 426.87 144.033 420.757 146.656C420.757 146.656 426.434 141.847 437.131 147.748C444.991 152.12 442.808 147.311 442.808 147.311Z" fill="#272729"/>
<path d="M411.588 208.509C411.588 208.509 406.348 219.218 405.475 228.179C405.475 228.179 405.475 217.251 411.588 208.509Z" fill="white"/>
<path d="M395.214 250.692C393.508 255.072 392.764 259.768 393.03 264.461C393.276 269.387 395.029 274.118 398.052 278.012C401.108 281.728 405.038 284.569 408.968 286.755L419.884 293.093C421.849 293.967 423.377 295.06 425.342 295.279C427.088 295.934 440.624 299.65 442.371 299.65C441.061 299.65 404.601 283.913 398.27 269.925C394.122 260.527 402.637 231.021 403.946 220.312L401.327 229.928L396.524 246.976L395.214 250.692Z" fill="#272729"/>
<path d="M418.574 261.183C418.137 260.527 415.299 260.309 414.208 260.09C412.679 259.653 410.933 259.435 409.623 260.09C410.059 258.56 412.243 257.249 413.334 255.938C414.644 253.971 416.391 252.441 417.919 250.474C419.229 248.725 420.102 246.539 420.539 244.791L421.412 241.294C423.159 248.725 421.412 254.408 418.792 260.965L418.574 261.183Z" fill="#323234"/>
<path d="M548.038 264.461C545.855 251.785 543.453 238.889 540.179 226.431C536.686 212.662 529.918 188.839 510.269 186.216C486.908 183.375 486.69 212.881 450.667 216.815C421.412 220.093 390.847 205.449 361.374 211.788C360.282 212.225 359.846 239.545 359.628 241.949C358.754 256.375 358.973 270.581 359.191 285.006C359.409 306.644 360.282 328.282 360.937 349.919V378.988C360.937 385.327 358.099 395.381 360.937 401.282L384.516 396.036C391.066 396.036 397.179 398.659 402.855 400.845C414.208 405.434 423.159 408.713 435.603 410.024C448.702 411.336 460.273 409.369 473.154 407.401C489.092 405.216 505.029 409.15 520.966 409.15C537.995 409.15 553.933 407.401 569.87 401.937C575.328 399.97 563.321 347.297 563.102 340.74C561.792 323.473 556.553 306.863 553.278 290.47L548.038 264.243V264.461Z" fill="#889BB2"/>
<path d="M522.495 247.851C536.467 268.614 568.342 373.524 568.56 373.743C566.377 359.318 563.102 344.237 562.666 340.958C561.356 323.473 556.334 306.863 553.06 290.252L548.038 264.461C545.855 251.785 543.453 238.889 540.179 226.431C536.686 212.662 529.918 188.839 510.269 186.216C486.908 183.375 486.69 212.881 450.667 216.815C434.293 218.563 417.701 214.848 401.108 212.443C429.49 221.404 459.618 229.491 473.591 227.087C497.388 223.372 508.522 226.869 522.495 247.632V247.851Z" fill="#6E849B"/>
<path d="M533.847 221.186C532.756 217.033 531.227 213.099 529.263 209.602C527.384 205.855 524.7 202.571 521.403 199.985C518.333 197.313 514.559 195.583 510.532 195.002C506.506 194.42 502.397 195.012 498.698 196.707C495.205 198.674 492.148 201.297 489.092 204.357L484.725 208.728C480.162 213.36 474.751 217.071 468.788 219.656C465.076 221.623 460.71 222.497 456.344 222.497C464.612 220.984 472.355 217.372 478.831 212.006C484.944 206.542 489.747 198.893 497.824 194.74C501.895 192.917 506.401 192.298 510.811 192.956C515.221 193.614 519.351 195.523 522.713 198.455C529.263 204.575 532.537 212.881 533.847 221.186Z" fill="white"/>
<path d="M365.741 211.788V211.132C364.212 211.132 362.902 211.569 361.374 211.788C360.064 212.225 359.628 239.545 359.409 241.949C358.536 256.374 358.754 270.581 358.973 285.006C359.191 306.644 360.064 328.282 360.501 349.919C360.938 359.536 360.938 369.371 360.719 378.988C360.719 385.326 357.881 395.38 360.719 401.063C369.398 399.118 378.135 397.441 386.918 396.036C353.733 364.344 365.522 211.788 365.522 211.788H365.741Z" fill="#6E849B"/>
<path d="M370.762 237.797L375.128 249.381C380.15 261.402 385.171 272.986 389.756 285.007C390.847 288.285 391.502 293.093 394.34 295.061C393.03 294.186 393.03 288.504 392.812 287.192C389.994 274.074 385.899 261.263 380.586 248.944C376.22 238.89 371.198 229.273 367.487 219.001C366.395 216.596 365.959 214.192 365.304 211.788C365.74 220.749 367.924 229.273 370.762 237.797Z" fill="#6E849B"/>
<path d="M365.086 237.578L367.269 249.817C370.107 262.494 372.945 274.734 375.128 287.629C375.565 290.907 375.347 295.716 377.966 298.12C376.875 297.246 377.966 291.563 377.966 290.252C377.52 276.853 375.766 263.53 372.727 250.473C370.325 239.545 367.05 229.273 365.304 218.563L364.212 211.132C363.121 219.874 363.776 228.617 365.086 237.359V237.578ZM379.713 314.731C383.374 325.357 387.902 335.664 393.249 345.548C398.707 355.165 405.257 364.126 412.898 371.338C420.757 378.551 430.363 383.797 440.624 386.638C451.104 389.698 462.238 390.135 473.591 389.698C462.608 393.906 450.722 395.186 439.096 393.413C427.157 391.419 416.07 385.945 407.221 377.677C390.489 360.913 380.735 338.416 379.931 314.731H379.713Z" fill="#6E849B"/>
</g>
</svg>
