<svg width="254" height="324" viewBox="0 0 254 324" fill="none" xmlns="http://www.w3.org/2000/svg">
<mask id="mask0_2225_16918" style="mask-type:luminance" maskUnits="userSpaceOnUse" x="0" y="0" width="253" height="323">
<path d="M0 0H252.449V322.06H0V0Z" fill="white"/>
</mask>
<g mask="url(#mask0_2225_16918)">
<path d="M5.04122 137.749C5.04122 137.749 3.29618 136.973 3.49008 136.003C3.49008 135.033 4.45954 134.451 4.45954 134.451C4.45954 134.451 2.52061 133.287 2.7145 132.122C2.9084 130.958 4.65344 130.376 4.65344 130.376C4.65344 130.376 3.29618 128.824 3.49008 128.048C3.68397 127.272 6.59237 126.884 6.78626 126.884C6.78626 126.884 1.35725 124.944 0.775572 123.004C0 121.064 -0.193893 120.094 0.193893 120.094C0.581679 120.094 5.42901 122.616 6.20458 122.616L18.4198 123.586C21.5221 123.78 24.6244 128.048 24.2366 133.287V137.167H23.8489C23.8489 137.167 23.2672 139.883 20.9405 140.659C18.8076 141.629 6.01069 141.047 5.04122 140.077C4.07176 139.107 4.65343 137.943 5.04122 137.749Z" fill="#F7B693"/>
<path d="M6.78631 126.884L12.6031 126.302C12.6031 126.302 6.20463 126.302 2.90845 124.944C2.90845 124.944 6.01074 126.884 6.78631 126.884ZM4.65349 130.377L9.30692 129.795C9.30692 129.795 4.45959 129.989 3.87791 129.213L4.65349 130.377ZM4.65349 134.257L10.6642 133.869C10.6642 133.869 3.49013 133.869 2.90845 132.705C2.90845 132.705 3.49013 133.869 4.45959 134.451L4.65349 134.257ZM3.49013 135.809C3.49013 135.809 3.10234 137.167 5.04127 137.749L10.0825 137.361L4.65349 137.167C3.87791 136.779 3.49013 136.197 3.49013 135.809Z" fill="#D8A471"/>
<path d="M66.6992 123.974L41.687 103.408C41.687 103.408 52.7389 102.05 66.8931 98.7521C80.8534 95.4539 66.8931 123.974 66.8931 123.974H66.6992ZM142.705 84.2012L167.911 93.5137L139.797 112.915H127.194L142.705 84.2012Z" fill="#4E6171"/>
<path d="M93.8443 187.416C93.4565 185.087 93.2626 185.087 91.5176 183.729C83.4964 177.229 74.7832 171.633 65.5359 167.044C66.5054 164.522 68.0565 161.418 67.8626 159.284C66.7699 144.242 66.3817 129.157 66.6993 114.079C66.6993 114.079 56.6168 118.929 54.484 124.362C51.9634 130.182 50.6061 136.778 48.8611 142.987C47.5039 148.031 45.9527 151.911 44.9832 157.926C43.626 161.418 43.626 161.418 43.4321 162.97C42.6169 167.296 43.1587 171.769 44.9832 175.775C48.4733 182.953 57.1985 190.52 63.9848 194.206C69.8016 197.504 76.2 198.668 82.7924 198.862H90.3542C92.8749 198.862 93.0687 199.25 93.8443 196.922C94.6199 194.012 94.2321 190.326 93.8443 187.416Z" fill="#414142"/>
<path opacity="0.3" d="M252.449 314.3C252.449 318.568 205.721 322.061 148.134 322.061C90.3541 322.061 43.432 318.568 43.432 314.3C43.432 310.032 90.3541 306.346 148.134 306.346C205.721 306.346 252.449 309.838 252.449 314.106V314.3Z" fill="#151626"/>
<path d="M177.994 318.956L132.235 316.24C132.235 316.24 131.072 295.481 122.153 281.318L150.073 266.961C150.073 266.961 149.686 292.959 152.788 303.823C152.788 303.823 172.177 297.421 177.994 318.956Z" fill="#272729"/>
<path d="M127.969 284.422C127.969 284.422 135.725 305.181 136.307 313.33L166.942 316.046L137.276 311.972C137.276 311.972 135.725 294.899 127.969 284.422Z" fill="#5E5E5E"/>
<path d="M74.2611 282.87L85.313 303.047C85.313 303.047 65.9237 301.883 68.4443 315.27H110.519C110.519 315.27 106.253 288.497 96.9466 276.468L74.2611 282.87Z" fill="#272729"/>
<path d="M81.629 288.108C81.629 288.108 89.7725 302.659 90.3542 304.211C90.3542 304.211 72.7099 304.211 71.7405 312.166C71.7405 312.166 76.3939 305.569 95.3954 306.734L81.8229 288.108H81.629Z" fill="#5E5E5E"/>
<path d="M113.428 265.409V213.025C113.428 207.011 113.04 200.415 117.112 195.37C120.408 191.49 126.031 189.162 129.715 185.67C135.337 180.431 139.991 173.447 142.705 166.269C141.542 170.537 141.736 174.999 142.124 179.073C143.093 186.64 144.063 193.818 146.971 200.803C155.696 220.786 152.4 244.067 152.4 265.409C152.4 276.273 151.237 278.019 133.205 283.646C123.122 286.944 113.428 276.273 113.428 265.409Z" fill="#414142"/>
<path d="M114.785 234.367H96.5588C86.8641 234.367 79.1084 226.606 79.1084 216.906V207.205C79.1084 197.505 86.8641 189.744 96.5588 189.744H114.785C124.479 189.744 132.235 197.505 132.235 207.205V216.906C132.235 226.606 124.479 234.367 114.785 234.367Z" fill="#414142"/>
<path d="M103.733 267.349V261.528L105.672 214.966C105.866 208.951 106.641 202.355 102.763 197.116C99.661 193.236 94.232 190.52 90.5481 186.834C85.313 181.595 80.8534 174.417 78.3328 167.433C79.4962 171.313 79.1084 175.775 78.3328 180.043C77.1694 187.416 76.2 194.594 72.7099 201.385C63.2091 220.98 65.5359 244.455 64.7603 265.991C64.3725 276.661 70.771 286.556 83.5679 282.87C95.2015 279.572 103.151 278.019 103.733 267.349Z" fill="#414142"/>
<path d="M141.93 195.564C143.093 194.206 143.093 192.266 143.481 188.774C143.869 183.147 145.42 177.521 146.195 171.895C147.165 163.552 147.94 155.016 149.104 146.673C151.043 133.48 154.921 111.945 139.797 105.737C128.939 101.08 115.366 100.304 103.733 99.1402C93.6504 98.1701 82.5985 98.7522 75.2306 106.513C63.597 119.317 65.5359 141.241 67.4748 156.956C69.2199 169.179 73.8733 181.207 84.1497 188.58C89.1909 192.46 95.2016 194.4 101.212 195.758C111.682 198.086 126.418 201.579 137.082 198.086C139.603 197.31 140.96 196.534 141.93 195.564Z" fill="#414142"/>
<path d="M107.029 189.55C107.029 189.55 90.1603 194.012 85.313 205.653L101.406 209.533C101.406 209.533 103.345 194.982 110.519 192.072L107.029 189.744V189.55Z" fill="#272729"/>
<path d="M69.4137 146.867C69.4137 146.867 71.3526 175.387 81.0473 179.849C81.0473 179.849 71.5465 162.776 69.4137 146.867ZM69.2198 242.903C69.2198 242.903 63.403 270.841 71.7404 277.825C71.7404 277.825 67.087 259.006 69.2198 242.903Z" fill="white"/>
<path d="M66.8931 114.079C66.8931 114.079 58.1679 116.407 56.229 121.452C56.229 121.452 61.0763 117.959 63.0153 119.511C64.9542 121.452 67.2809 148.031 68.4443 159.866C68.4443 159.866 64.5664 130.958 80.6595 131.734C80.6595 131.734 69.8015 115.049 66.5053 114.079H66.8931Z" fill="#323234"/>
<path d="M74.8428 26.7742C74.8428 26.7742 56.2291 45.0113 62.6275 78.1874C69.026 111.169 72.3222 134.839 88.6092 135.227C104.896 135.421 144.257 92.5443 144.644 62.6664C144.838 32.7886 88.4153 18.2377 74.8428 26.7742Z" fill="#F7B693"/>
<path d="M100.437 103.991C100.437 103.991 95.2016 116.02 88.8031 116.02C82.4046 116.02 80.6596 109.035 79.4962 102.633C79.4962 102.633 87.058 114.08 100.437 104.185V103.991Z" fill="#0A0A0D"/>
<path d="M93.2626 121.451C93.2626 121.451 86.0886 116.989 80.6595 120.093C80.6595 120.093 89.5786 119.705 93.2626 121.645V121.451Z" fill="#CD5753"/>
<path d="M63.4031 25.2217C63.4031 25.2217 51.7695 25.4157 51.3817 41.7127C51.3817 41.7127 46.7283 45.2049 46.9222 51.0253C46.9222 56.8456 49.6367 58.2037 49.6367 58.2037C49.6367 58.2037 44.9832 62.86 49.055 69.8444C52.9328 77.0229 59.1374 75.0828 59.1374 75.0828C59.1374 75.0828 58.168 84.2013 53.9023 85.1714C53.9023 85.1714 58.3618 92.5438 62.4336 92.3498C62.4336 92.3498 56.4229 99.7223 63.4031 106.707C63.4031 106.707 61.4641 117.765 69.9954 121.84C69.9954 121.84 71.1588 138.331 82.7924 137.361L85.5069 123.198C85.5069 123.198 83.1802 129.6 80.6596 127.854C78.6298 126.188 76.9632 124.124 75.7626 121.788C74.562 119.452 73.853 116.894 73.6794 114.273C73.4855 107.871 59.1374 59.3678 69.8015 42.4887L63.4031 25.2217Z" fill="#272729"/>
<path d="M109.744 46.1752C109.744 46.1752 101.988 54.3237 93.6504 46.1752C93.6504 46.1752 79.4962 48.1153 74.6489 36.8626C74.6489 36.8626 69.2199 40.9369 73.0977 46.1752C73.0977 46.1752 46.9222 37.8327 60.4947 19.0135C66.3115 11.4471 70.9649 12.4171 73.6794 13.9692C73.6794 13.9692 74.6489 -0.969704 95.3954 0.000356026C116.142 0.970416 114.203 7.76084 114.203 7.76084C114.203 7.76084 123.122 4.46263 127.388 7.56682C129.995 9.57511 131.896 12.3608 132.817 15.5213C132.817 15.5213 137.47 12.6111 140.96 16.2974C144.257 20.1776 144.063 22.8938 144.063 22.8938C144.063 22.8938 147.94 20.3716 151.043 24.8339C153.951 29.1022 154.921 35.8926 154.145 37.4447C153.369 39.1908 158.798 40.1608 157.441 51.0255C155.89 61.8902 149.104 59.174 146.971 58.398C144.644 57.4279 133.011 58.398 135.337 48.5033C135.337 48.5033 132.235 54.3237 128.745 52.7716C128.745 52.7716 131.46 55.2938 133.205 53.3536C133.205 53.3536 129.521 58.0099 125.837 55.8758C121.959 53.5477 121.571 49.4734 121.571 49.4734C120.02 49.2794 114.203 44.0411 114.785 40.5489C114.785 40.5489 103.345 35.1165 97.7222 35.8926C97.7222 35.8926 95.7832 46.3692 109.744 45.9812V46.1752Z" fill="#272729"/>
<path d="M98.3038 95.6481C98.3038 95.6481 99.6611 97.9763 98.3038 98.7523C96.7527 99.7224 93.2626 98.7523 92.2931 99.3344C91.3237 99.9164 87.6397 101.857 85.5069 101.08C83.568 100.11 81.629 97.2002 81.2412 96.6182C80.8535 96.2302 80.6596 92.1559 82.2107 91.3799C82.2107 91.3799 81.0473 94.6781 81.8229 96.0362C82.5985 97.3943 85.1191 99.9164 87.058 99.5284C88.997 99.1404 90.9359 97.5883 92.8748 97.5883C94.6199 97.7823 99.2733 97.5883 98.3038 95.6481Z" fill="#A43734"/>
<path d="M104.896 9.70109C102.59 9.24142 100.26 8.91751 97.9161 8.73103C95.6643 8.42494 93.3815 8.42494 91.1298 8.73103C88.8031 9.31307 86.8642 10.0891 84.9252 11.4472C82.9863 12.8053 82.0168 14.7454 80.6596 16.8795C81.2413 14.5514 82.0168 12.0292 83.9558 10.2831C85.7889 8.45994 88.1766 7.29949 90.742 6.98492C93.1878 6.57762 95.689 6.64348 98.11 7.17894C100.631 7.76097 102.957 8.53702 104.896 9.70109ZM100.437 19.9837C97.7222 19.9837 95.2016 20.7598 92.8748 22.1179C90.7481 23.4558 89.0098 25.329 87.8336 27.5502C86.4764 29.6843 85.8947 32.4005 86.2825 34.7286C86.4243 36.0188 86.8234 37.2675 87.4562 38.4005C88.089 39.5336 88.9426 40.5281 89.9664 41.325L88.0275 40.355L86.6703 38.9969C86.2825 38.4149 85.7008 37.8328 85.5069 37.0568L84.7313 35.1167C84.1497 32.2065 84.7313 29.2963 86.0886 26.5801C87.491 24.0334 89.6629 21.996 92.2932 20.7598C94.8138 19.5957 97.7222 19.4017 100.437 19.9837ZM73.6794 18.4316L70.5771 19.7897C69.6066 20.1825 68.6936 20.7046 67.8626 21.3418C67.0697 21.9828 66.4108 22.7739 65.9237 23.67C65.5359 24.64 65.5359 25.6101 65.342 26.7741C64.8152 25.6615 64.6818 24.4027 64.9637 23.2043C65.2455 22.0058 65.9258 20.9386 66.8932 20.1777C67.8626 19.477 68.9629 18.9785 70.1287 18.7119C71.2945 18.4452 72.502 18.4159 73.6794 18.6256V18.4316Z" fill="white"/>
<path d="M60.3007 33.9521C60.3007 33.9521 51.5755 42.4887 58.3618 48.115C58.3618 48.115 53.7084 42.4887 60.3007 33.9521ZM50.4122 46.5629C50.4122 46.5629 47.116 57.8156 57.1984 58.3977C57.1984 58.3977 48.6671 57.0396 50.4122 46.7569V46.5629ZM52.7389 61.3078C52.7389 61.3078 48.2793 66.1581 52.7389 70.6204C57.3923 75.2767 63.2091 72.5605 63.9847 67.9042C63.9847 67.9042 58.5557 76.0527 53.5145 70.0384C50.0244 65.9641 52.7389 61.3078 52.7389 61.3078ZM62.8213 76.6348C62.8213 76.6348 61.2702 85.3653 55.8412 86.3354C55.8412 86.3354 62.6274 87.4995 62.6274 76.6348H62.8213ZM65.9236 93.5138C65.9236 93.5138 61.2702 100.304 66.8931 103.99C66.8931 103.99 63.7908 100.304 65.9236 93.5138ZM66.8931 109.035C66.8931 109.035 64.9542 118.541 73.6793 118.929C73.6793 118.929 65.7297 117.571 66.8931 109.229V109.035ZM74.8427 124.944C74.8427 124.944 72.9038 135.614 82.5984 135.226C82.5984 135.226 73.6793 134.45 74.8427 124.944ZM85.7007 132.704C85.7007 132.704 83.7618 139.883 92.0992 138.331C92.0992 138.331 84.7313 138.719 85.7007 132.51V132.704ZM97.3343 132.704C97.3343 132.704 97.916 126.496 105.672 128.436C105.672 128.436 99.8549 127.66 97.1404 132.704H97.3343Z" fill="#FAFAFA"/>
<path d="M151.818 38.4143C151.818 38.4143 165.003 31.2359 165.391 46.7568V47.5329C165.391 47.5329 170.044 49.473 168.493 56.4574C166.942 63.2479 164.228 62.6658 164.228 62.6658C164.228 62.6658 168.881 73.1425 158.992 78.5748H157.635C157.635 78.5748 156.472 80.5149 155.115 80.903C155.115 80.903 160.156 85.7533 156.472 90.6036C152.594 95.2598 149.298 95.0658 143.869 93.9018C143.869 93.9018 146.583 90.6035 146.195 88.4694C146.195 88.4694 142.705 92.7377 139.603 92.7377C139.603 92.7377 141.542 98.364 138.634 102.05C138.634 102.05 141.736 111.363 138.634 115.049C138.634 115.049 138.246 113.497 136.695 113.109C136.695 113.109 130.49 123.392 123.316 126.108C123.316 126.108 123.898 123.78 123.316 122.227C123.316 122.227 119.826 128.048 116.142 129.212C116.142 129.212 115.56 136.39 103.345 135.42C103.345 135.42 87.8336 143.569 82.5985 137.36C82.5985 137.36 83.9558 126.884 85.5069 123.198C85.5069 123.198 84.1497 129.988 87.6397 130.376C92.4871 130.764 93.6504 130.764 94.6199 129.794C95.3955 128.824 99.6611 125.526 101.6 124.556C101.6 124.556 105.478 116.795 111.295 114.855C111.295 114.855 111.295 111.363 115.948 108.453C120.408 105.542 121.571 106.513 121.571 106.513C121.571 106.513 123.316 102.244 125.643 102.05C125.643 102.05 124.479 98.7521 126.612 95.4538C128.551 92.3497 130.49 91.3796 130.49 91.3796C130.49 91.3796 129.521 85.3652 131.653 81.291C133.592 77.2167 135.531 75.0826 135.531 75.0826C135.531 75.0826 132.817 61.5018 139.409 57.0395C146.389 52.5772 151.818 38.4143 151.818 38.4143Z" fill="#272729"/>
<path d="M102.376 77.7992C102.376 77.7992 110.131 65.7705 117.693 77.7992C117.693 77.7992 111.295 84.2016 102.376 77.7992Z" fill="#1E1E1C"/>
<path d="M102.376 77.6051C102.376 77.6051 110.131 68.6806 117.693 77.6051C117.693 77.6051 111.295 82.4554 102.376 77.6051Z" fill="white"/>
<path d="M119.05 75.4713C110.907 62.6665 102.376 75.4713 102.376 75.4713C102.376 75.4713 110.907 64.9946 119.05 75.4713ZM87.058 76.6354C81.2412 62.8605 70.9648 74.1132 70.9648 74.1132C70.9648 74.1132 80.6595 65.1887 87.058 76.6354Z" fill="#A43734"/>
<path d="M87.0581 78.5753C87.0581 78.5753 80.6596 65.3825 71.5466 76.6352C71.5466 76.6352 77.3634 84.0077 87.0581 78.5753Z" fill="#272729"/>
<path d="M87.058 78.3813C87.058 78.3813 80.2717 68.6807 71.9343 76.6352C71.9343 76.6352 77.7511 82.0675 87.058 78.3813ZM81.2412 104.573L82.0168 108.065C82.0168 108.065 84.3435 111.169 88.803 111.169C93.2626 111.169 97.3343 108.841 97.3343 108.841L97.5282 105.931C97.5282 105.931 88.803 111.751 81.2412 104.573Z" fill="white"/>
<path d="M116.336 77.0231C116.336 77.9932 115.366 78.9632 114.397 78.9632C113.427 78.9632 112.458 77.9932 112.458 77.0231C112.458 75.8591 113.234 75.083 114.397 75.083C115.366 75.083 116.336 75.8591 116.336 77.0231ZM84.7313 77.0231C84.7313 77.9932 83.7618 78.9632 82.7923 78.9632C82.2781 78.9632 81.7849 78.7588 81.4213 78.395C81.0577 78.0312 80.8534 77.5377 80.8534 77.0231C80.8534 76.5086 81.0577 76.0151 81.4213 75.6513C81.7849 75.2874 82.2781 75.083 82.7923 75.083C83.7618 75.083 84.7313 75.8591 84.7313 77.0231Z" fill="#0A0A0D"/>
<path d="M100.437 63.6367C100.437 63.6367 97.7221 70.0391 101.406 69.6511C105.284 69.2631 118.275 59.3685 125.255 71.3972C125.255 71.3972 122.347 57.8164 101.6 68.293C100.437 68.875 99.661 67.517 100.437 63.6367ZM86.8641 65.9649C86.8641 65.9649 89.1908 70.4271 86.2824 68.875C83.9557 67.711 72.7099 63.0547 67.2809 65.3828C67.2809 65.3828 72.3221 61.1146 81.8229 66.3529C88.803 70.2331 86.8641 65.9649 86.8641 65.9649Z" fill="#272729"/>
<path d="M59.1374 120.288C59.1374 120.288 54.4839 129.795 53.7084 137.749C53.7084 137.749 53.7084 128.049 59.1374 120.288Z" fill="white"/>
<path d="M44.5954 157.732C43.0808 161.62 42.4195 165.789 42.6565 169.955C42.8748 174.327 44.4317 178.527 47.116 181.984C49.8305 185.282 53.3206 187.804 56.8107 189.744L66.5053 195.371C68.2504 196.147 69.6076 197.117 71.3527 197.311C72.9038 197.893 84.9252 201.191 86.4763 201.191C85.313 201.191 52.9328 187.222 47.3099 174.805C43.6259 166.463 51.1878 140.271 52.3511 130.765L50.0244 139.301L45.7588 154.434L44.5954 157.732Z" fill="#272729"/>
<path d="M65.342 167.045C64.9542 166.463 62.4336 166.269 61.4641 166.075C60.1068 165.687 58.5557 165.493 57.3923 166.075C57.7801 164.717 59.719 163.553 60.6885 162.388C61.8519 160.642 63.403 159.284 64.7603 157.538C65.9236 155.986 66.6992 154.046 67.087 152.494L67.8626 149.39C69.4137 155.986 67.8626 161.03 65.5358 166.851L65.342 167.045Z" fill="#323234"/>
<path d="M180.321 169.955C178.382 158.703 176.249 147.256 173.341 136.197C170.238 123.974 164.228 102.827 146.777 100.499C126.031 97.9768 125.837 124.168 93.8443 127.661C67.8627 130.571 40.7176 117.572 14.542 123.198C13.5726 123.586 13.1848 147.838 12.9909 149.972C12.2153 162.777 12.4092 175.388 12.6031 188.192C12.797 207.4 13.5726 226.607 14.1543 245.814V271.617C14.1543 277.244 11.6336 286.168 14.1543 291.407L35.0947 286.75C40.9115 286.75 46.3405 289.079 51.3817 291.019C61.4642 295.093 69.4138 298.003 80.4657 299.167C92.0993 300.331 102.376 298.585 113.815 296.839C127.97 294.899 142.124 298.391 156.278 298.391C171.402 298.391 185.556 296.839 199.71 291.989C204.557 290.243 193.893 243.486 193.699 237.665C192.536 222.338 187.883 207.594 184.974 193.043L180.321 169.761V169.955Z" fill="#889BB2"/>
<path d="M157.635 155.21C170.044 173.641 198.353 266.767 198.547 266.961C196.608 254.156 193.699 240.77 193.311 237.859C192.148 222.338 187.689 207.594 184.78 192.849L180.321 169.955C178.382 158.703 176.249 147.256 173.34 136.197C170.238 123.974 164.228 102.827 146.777 100.499C126.031 97.9768 125.837 124.168 93.8443 127.661C79.3023 129.213 64.5664 125.914 49.8306 123.78C75.0367 131.735 101.794 138.913 114.203 136.779C135.337 133.481 145.226 136.585 157.635 155.016V155.21Z" fill="#6E849B"/>
<path d="M167.718 131.541C166.748 127.855 165.391 124.362 163.646 121.258C161.977 117.932 159.593 115.017 156.666 112.722C153.939 110.35 150.587 108.814 147.011 108.298C143.435 107.782 139.786 108.307 136.501 109.812C133.398 111.558 130.684 113.886 127.969 116.602L124.092 120.482C120.039 124.594 115.234 127.888 109.937 130.183C106.641 131.929 102.763 132.705 98.8855 132.705C106.229 131.362 113.105 128.155 118.856 123.392C124.285 118.542 128.551 111.752 135.725 108.065C139.34 106.447 143.342 105.897 147.259 106.482C151.176 107.066 154.843 108.76 157.829 111.364C163.646 116.796 166.554 124.168 167.718 131.541Z" fill="white"/>
<path d="M18.4198 123.198V122.616C17.0626 122.616 15.8992 123.004 14.542 123.198C13.3786 123.586 12.9908 147.838 12.7969 149.972C12.0214 162.777 12.2152 175.387 12.4091 188.192C12.603 207.399 13.3786 226.607 13.7664 245.814C14.1542 254.35 14.1542 263.081 13.9603 271.617C13.9603 277.244 11.4397 286.168 13.9603 291.213C21.6682 289.486 29.4276 287.998 37.2275 286.75C7.75571 258.619 18.2259 123.198 18.2259 123.198H18.4198Z" fill="#6E849B"/>
<path d="M22.8794 146.286L26.7573 156.568C31.2168 167.239 35.6764 177.522 39.7481 188.192C40.7176 191.102 41.2993 195.371 43.8199 197.117C42.6565 196.341 42.6565 191.296 42.4626 190.132C39.9601 178.487 36.3234 167.116 31.6046 156.18C27.7268 147.256 23.2672 138.719 19.971 129.601C19.0016 127.467 18.6138 125.332 18.0321 123.198C18.4199 131.153 20.3588 138.719 22.8794 146.286Z" fill="#6E849B"/>
<path d="M17.8382 146.092L19.7771 156.956C22.2977 168.209 24.8183 179.074 26.7572 190.52C27.145 193.431 26.9511 197.699 29.2779 199.833C28.3084 199.057 29.2779 194.013 29.2779 192.849C28.8818 180.955 27.3232 169.128 24.6244 157.538C22.4916 147.838 19.5832 138.719 18.032 129.213L17.0626 122.616C16.0931 130.377 16.6748 138.137 17.8382 145.898V146.092ZM30.829 214.578C34.0807 224.01 38.1013 233.16 42.8504 241.934C47.6977 250.47 53.5145 258.425 60.3007 264.827C67.2809 271.229 75.8122 275.886 84.9252 278.408C94.232 281.124 104.121 281.512 114.203 281.124C104.449 284.859 93.8928 285.996 83.5679 284.422C72.9646 282.652 63.1182 277.793 55.2595 270.453C40.3988 255.573 31.7366 235.603 31.0229 214.578H30.829Z" fill="#6E849B"/>
</g>
</svg>
