<svg width="104" height="66" viewBox="0 0 104 66" fill="none" xmlns="http://www.w3.org/2000/svg">
<g filter="url(#filter0_f_4001_760)">
<path d="M49.0272 56.5002C39.4232 56.7269 19.1383 55.618 11.3544 55.0396L9.69674 52.729L10.2274 49.3293L9.48335 46.9124C9.73471 46.4196 10.2183 45.2692 10.1417 44.6106C10.0651 43.9519 8.98336 42.6127 8.45207 42.0254L9.82253 41.8661L11.7137 42.2025C11.3682 41.2227 10.6518 39.0437 10.5497 38.1654C10.4476 37.2872 11.4487 35.2793 11.9621 34.3851L11.218 31.9682C11.2746 31.1271 11.2963 29.4556 10.9308 29.4981C10.5654 29.5406 10.0238 27.0074 9.79877 25.7355C14.3334 25.5791 27.7012 25.6008 35.6311 26.904C43.561 28.2071 80.9831 27.3788 97.2182 26.9745L97.5055 29.4445L99.227 32.3041L98.7971 34.5794C99.0787 35.0102 99.661 36.0366 99.7376 36.6953C99.8142 37.3539 99.1538 39.6375 98.814 40.6969L99.6269 41.715C100.268 41.9187 100.929 42.5649 98.4479 43.5211C95.9663 44.4773 81.9827 44.6013 76.7858 44.3711L77.0411 46.5667L76.8396 48.8155L78.0404 51.1793L77.414 53.7555L78.5511 55.5704C72.7115 55.7859 58.6313 56.2735 49.0272 56.5002Z" fill="url(#paint0_linear_4001_760)"/>
</g>
<path d="M47.6286 53.1594C38.098 54.4893 17.6887 55.4441 9.83007 55.632L7.77137 53.1174L7.70171 49.0883L6.53476 46.3483C6.69848 45.7449 6.97785 44.3479 6.78557 43.5872C6.59329 42.8264 5.27957 41.3825 4.64675 40.7556L5.98439 40.4175L7.92813 40.6006C7.41142 39.4948 6.31392 37.0294 6.05754 36.0151C5.80116 35.0008 6.44536 32.5449 6.79951 31.4438L5.63256 28.7037C5.54083 27.7153 5.2682 25.7609 4.9115 25.851C4.55479 25.9412 3.56922 23.0429 3.12102 21.5825C7.61231 20.8969 20.9373 19.4397 29.069 20.0821C37.2007 20.7244 74.3464 15.6067 90.4537 13.3339L91.1748 16.1866L93.3938 19.3351L93.3659 22.0399C93.7224 22.5118 94.4834 23.6459 94.6756 24.4066C94.8679 25.1673 94.6118 27.9074 94.4597 29.1823L95.449 30.2811C96.1236 30.4478 96.8967 31.1292 94.592 32.521C92.2874 33.9129 78.3744 35.6086 73.1551 35.9162L73.796 38.452L73.9911 41.1004L75.6039 43.7277L75.4333 46.8058L76.8858 48.7992C71.1045 49.6985 57.1592 51.8295 47.6286 53.1594Z" fill="#FAF2B4"/>
<path d="M16.442 36.771C16.1111 36.7889 15.9083 36.7539 15.8334 36.6661C15.7691 36.5771 15.7306 36.4796 15.718 36.3737C15.7521 36.2085 15.7921 36.048 15.838 35.8922C15.8945 35.7351 15.9286 35.5699 15.9402 35.3967C15.9556 35.2552 15.9723 35.1243 15.9902 35.004C16.0082 34.8837 16.0301 34.7522 16.0561 34.6095C16.1106 34.3452 16.1688 34.0214 16.2307 33.6381C16.3031 33.2535 16.3808 32.8683 16.4639 32.4825C16.5469 32.0966 16.6216 31.7762 16.6879 31.5213C16.7437 31.2676 16.788 31.0529 16.8208 30.8771C16.8642 30.7001 16.9083 30.5283 16.9529 30.3619C16.9976 30.1954 17.0438 29.9966 17.0915 29.7654C17.1281 29.6214 17.16 29.4833 17.1872 29.3512C17.2132 29.2084 17.2392 29.0657 17.2652 28.923C17.3018 28.779 17.3337 28.6409 17.361 28.5087C17.3976 28.3648 17.4289 28.2214 17.4549 28.0787C17.5424 27.8212 17.6153 27.5762 17.6736 27.3437C17.7425 27.1099 17.7983 26.8562 17.8409 26.5826C17.872 26.4822 17.8585 26.414 17.8005 26.378C17.7531 26.3406 17.7212 26.2531 17.7048 26.1154C17.6791 25.9896 17.7002 25.8958 17.7681 25.834C17.8452 25.7604 17.9493 25.7319 18.0802 25.7485C18.2322 25.7627 18.4419 25.7646 18.7092 25.7543C18.9871 25.7428 19.2373 25.7238 19.4598 25.6973C19.6915 25.659 19.8174 25.6333 19.8373 25.6202C19.8877 25.5927 20.0587 25.5402 20.3503 25.4625C20.6405 25.3743 20.9937 25.2732 21.4099 25.1593C21.826 25.0454 22.2533 24.9355 22.6919 24.8297C23.1411 24.7225 23.5379 24.627 23.8824 24.5431C23.9964 24.5081 24.1076 24.4948 24.2161 24.5034C24.3351 24.5108 24.4488 24.5187 24.5573 24.5273C24.6975 24.5321 24.844 24.5899 24.9968 24.7006C25.1496 24.8114 25.2155 24.9593 25.1946 25.1444C25.1661 25.2659 25.0836 25.3402 24.9471 25.3672C24.8095 25.3835 24.6216 25.3844 24.3835 25.3697C24.3623 25.3722 24.3462 25.4171 24.3351 25.5044C24.324 25.5916 24.3094 25.6954 24.2915 25.8157C24.2842 25.9347 24.2616 26.0609 24.2237 26.1943C24.169 26.276 24.1119 26.4279 24.0523 26.6498C24.0034 26.8704 23.9516 27.1129 23.8971 27.3772C23.8426 27.6415 23.8015 27.8827 23.7737 28.1008C23.7459 28.319 23.7371 28.4704 23.7471 28.5551C23.6265 28.8058 23.5508 29.0726 23.52 29.3555C23.4998 29.6372 23.4618 29.9049 23.4061 30.1586C23.4005 30.2022 23.3758 30.3556 23.3318 30.6186C23.2972 30.8698 23.2531 31.1758 23.1993 31.5367C23.1455 31.8975 23.0918 32.2584 23.038 32.6193C22.983 32.9696 22.9381 33.2703 22.9036 33.5215C22.869 33.7726 22.8536 33.9141 22.8573 33.9459C22.8719 34.159 22.8713 34.3793 22.8553 34.6067C22.85 34.8329 22.8546 35.0526 22.8692 35.2657C22.8849 35.3068 22.8946 35.3433 22.8984 35.375C22.9009 35.3962 22.8822 35.4199 22.8424 35.4461C22.7664 35.5304 22.6278 35.5844 22.4266 35.6084C22.2241 35.6217 22.0926 35.5997 22.0321 35.5425C21.9796 35.4628 21.9337 35.393 21.8944 35.3333C21.8538 35.2629 21.8338 35.1847 21.8343 35.0987C21.8202 34.7996 21.822 34.4986 21.8397 34.1958C21.8574 33.8929 21.8711 33.6012 21.8807 33.3208C21.9009 33.0391 21.9349 32.7826 21.9826 32.5514C22.0303 32.3201 22.0688 32.192 22.098 32.1671L22.2658 31.0031C22.3445 30.6715 22.3891 30.4138 22.3994 30.2299C22.4085 30.0355 22.4183 29.8464 22.4286 29.6625C22.4496 29.4774 22.496 29.2356 22.568 28.937C22.6424 28.6596 22.6957 28.3847 22.7277 28.1124C22.7691 27.8282 22.8112 27.5493 22.8538 27.2756C22.8977 27.0126 22.9454 26.7814 22.9969 26.5819C23.0471 26.3718 23.0846 26.1901 23.1094 26.0368C23.1447 25.8822 23.1508 25.7526 23.1276 25.6479C22.8971 25.6968 22.6831 25.7491 22.4856 25.8048C22.2987 25.8593 22.1013 25.915 21.8932 25.9719C21.6945 26.017 21.4493 26.0784 21.1578 26.156C20.9802 26.1986 20.7463 26.264 20.456 26.3523C20.1645 26.4299 19.8941 26.505 19.645 26.5776C19.4051 26.6383 19.2534 26.6725 19.1899 26.68C19.117 26.6994 19.056 26.7282 19.0068 26.7663C18.9576 26.8043 18.9362 26.8499 18.9425 26.9028C18.8214 27.2395 18.7062 27.5808 18.5969 27.9268C18.4864 28.2622 18.3905 28.5851 18.3093 28.8955C18.2374 29.1941 18.1881 29.4577 18.1616 29.6865C18.1455 29.7313 18.1157 29.8423 18.0723 30.0193C18.0289 30.1964 17.9781 30.4011 17.9198 30.6336C17.8615 30.8661 17.8072 31.0874 17.757 31.2975C17.7068 31.5076 17.6674 31.6734 17.6389 31.7949C17.6197 31.9046 17.6123 31.9324 17.6166 31.8781C17.5181 32.4054 17.4336 32.8237 17.3629 33.1329C17.3016 33.4302 17.2492 33.6674 17.2058 33.8444C17.1624 34.0214 17.1271 34.176 17.0998 34.3081C17.0726 34.4403 17.0485 34.5989 17.0275 34.784C16.9841 34.961 16.9519 35.1421 16.931 35.3272C16.91 35.5123 16.8891 35.6974 16.8681 35.8825C16.8638 35.9367 16.8548 35.9969 16.8412 36.0629C16.8382 36.1278 16.8327 36.2627 16.8249 36.4677C16.7926 36.5575 16.7472 36.6273 16.6887 36.6773C16.642 36.7365 16.5598 36.7678 16.442 36.771ZM26.6739 34.9423C26.5362 34.9586 26.4218 34.9454 26.3308 34.9025C26.2504 34.8583 26.1462 34.7955 26.0184 34.7141C25.792 34.5261 25.625 34.3419 25.5176 34.1613C25.409 33.9701 25.3598 33.7826 25.3702 33.5988C25.3919 33.5103 25.393 33.4296 25.3736 33.3567C25.3636 33.2719 25.3585 33.2296 25.3585 33.2296C25.2993 33.1829 25.2796 33.153 25.2995 33.1399C25.3182 33.1162 25.3356 33.0819 25.3517 33.037C25.4153 33.0295 25.4295 32.9687 25.3945 32.8547C25.3632 32.7725 25.3836 32.5821 25.4555 32.2835C25.5274 31.9849 25.6277 31.6991 25.7564 31.426C25.8073 31.3125 25.8863 31.1635 25.9932 30.9789C26.0989 30.7837 26.2159 30.5926 26.344 30.4055C26.4815 30.2065 26.6075 30.0465 26.722 29.9255C26.9603 29.6716 27.1738 29.4797 27.3625 29.3499C27.5511 29.22 27.7588 29.1148 27.9856 29.0341C28.2123 28.9534 28.368 28.9081 28.4528 28.898C28.5481 28.8866 28.6853 28.9563 28.8643 29.1069C29.1205 29.1838 29.3104 29.2901 29.4339 29.4258C29.5681 29.5603 29.668 29.7686 29.7338 30.0508C29.8034 30.3648 29.8203 30.7334 29.7847 31.1565C29.7584 31.5678 29.5693 32.1006 29.2174 32.7547C28.998 33.1675 28.7884 33.4824 28.5886 33.6995C28.3876 33.906 28.1442 34.1176 27.8584 34.3342C27.6536 34.5089 27.4656 34.644 27.2943 34.7396C27.1218 34.8246 26.915 34.8921 26.6739 34.9423ZM27.9989 33.0768C28.2191 32.7606 28.3883 32.4665 28.5064 32.1947C28.635 31.9216 28.7449 31.5809 28.836 31.1726C28.8645 31.0511 28.874 30.9049 28.8644 30.7342C28.8536 30.5529 28.8288 30.3893 28.79 30.2436C28.7605 30.086 28.7127 30.0003 28.6467 29.9867C28.5107 29.9277 28.3546 29.9247 28.1783 29.9779C28.0008 30.0205 27.8168 30.1444 27.6264 30.3497C27.3308 30.6641 27.0857 31.0424 26.8912 31.4844C26.6954 31.9159 26.5119 32.405 26.3406 32.9517C26.227 33.3519 26.2265 33.6635 26.3389 33.8864C26.4607 34.0975 26.6661 34.1537 26.9551 34.0549C27.2535 33.9442 27.6014 33.6182 27.9989 33.0768ZM32.9182 34.2643C32.6173 34.3538 32.3347 34.3713 32.0704 34.3168C31.8049 34.2517 31.5801 34.1226 31.396 33.9297C31.2213 33.7249 31.1138 33.453 31.0735 33.1141C31.0039 32.8001 30.9975 32.4302 31.0543 32.0046C31.1099 31.5683 31.2131 31.1263 31.364 30.6787C31.5255 30.2299 31.7097 29.8374 31.9168 29.5012C32.0985 29.2218 32.2826 28.9636 32.4692 28.7266C32.6559 28.4896 32.8296 28.3239 32.9902 28.2296C33.1309 28.1484 33.2642 28.095 33.3901 28.0693C33.5253 28.0317 33.6352 28.0079 33.72 27.9978C33.8945 28.0201 34.084 28.0781 34.2885 28.1719C34.5023 28.2539 34.6168 28.3585 34.6319 28.4856C34.6319 28.4856 34.6444 28.5002 34.6694 28.5295C34.7037 28.5469 34.7208 28.5556 34.7208 28.5556C34.7844 28.548 34.8455 28.6106 34.9042 28.7432C34.9736 28.8746 35.0242 29.0297 35.0562 29.2085C35.087 29.3768 35.0775 29.5229 35.0278 29.647C35.0094 29.8533 34.956 30.0368 34.8677 30.1977C34.7794 30.3586 34.6929 30.4441 34.6082 30.4542C34.5658 30.4592 34.5241 30.4695 34.4829 30.4852C34.4512 30.4889 34.4384 30.5173 34.4447 30.5703C34.451 30.6232 34.4218 30.6482 34.357 30.6451C34.3027 30.6409 34.2407 30.616 34.1708 30.5706C34.0997 30.5146 34.0433 30.4461 34.0014 30.3652C33.9951 30.3122 34.0056 30.2197 34.0329 30.0875C34.0601 29.9554 34.083 29.7862 34.1014 29.5799C34.1297 29.2757 34.1017 29.0857 34.0175 29.0098C33.932 28.9233 33.7884 28.935 33.5866 29.0449C33.3395 29.2247 33.1098 29.4614 32.8977 29.7552C32.6961 30.0477 32.5199 30.4178 32.369 30.8654C32.2169 31.3024 32.0986 31.8428 32.014 32.4866C31.9794 32.7378 31.9781 32.9528 32.0101 33.1316C32.0527 33.3092 32.0905 33.4013 32.1235 33.4081C32.2769 33.4329 32.4794 33.4196 32.7311 33.3681C32.9815 33.3061 33.1612 33.2364 33.2701 33.159C33.4295 33.0542 33.607 32.9203 33.8024 32.7574C33.9967 32.5839 34.1663 32.4295 34.3113 32.2941C34.3605 32.256 34.4177 32.1955 34.4831 32.1125C34.5484 32.0296 34.6209 31.9619 34.7006 31.9094C34.7702 31.7722 34.8356 31.6893 34.8966 31.6605C34.9576 31.6318 35.0517 31.6099 35.1788 31.5948C35.2661 31.6059 35.3493 31.6282 35.4285 31.6618C35.5076 31.6953 35.5603 31.732 35.5866 31.7719C35.6234 31.8104 35.6119 31.8494 35.5521 31.8887C35.5098 31.8938 35.4852 31.9128 35.4784 31.9459C35.4809 31.967 35.4821 31.9776 35.4821 31.9776C35.5084 32.0175 35.4714 32.1132 35.3713 32.2647C35.2804 32.4044 35.1597 32.5638 35.0092 32.7428C34.8586 32.9218 34.7108 33.0791 34.5657 33.2145C34.43 33.338 34.3304 33.4036 34.2669 33.4111C34.161 33.4237 34.1118 33.4618 34.1193 33.5253C34.1218 33.5465 34.0487 33.6089 33.8999 33.7126C33.7617 33.8149 33.597 33.9204 33.4058 34.0291C33.2252 34.1365 33.0627 34.2149 32.9182 34.2643ZM44.2845 32.7679C44.1705 32.803 44.0546 32.8221 43.9368 32.8254C43.8191 32.8287 43.7028 32.7995 43.5881 32.738C43.5356 32.6583 43.4713 32.5692 43.3952 32.4709C43.3284 32.3606 43.3111 32.2606 43.3434 32.1709C43.3813 32.0375 43.3863 31.8543 43.3586 31.6212C43.3415 31.3869 43.3606 31.186 43.4159 31.0183C43.4239 30.9958 43.4273 30.9793 43.4261 30.9687C43.4341 30.9463 43.4369 30.9245 43.4344 30.9033C43.4324 30.7961 43.4431 30.6605 43.4666 30.4966C43.4994 30.3209 43.5208 30.184 43.5306 30.0862C43.5387 30.0638 43.5439 29.9718 43.5462 29.8104C43.5485 29.649 43.5495 29.477 43.5493 29.2945C43.5491 29.1119 43.5445 28.9835 43.5357 28.9094C43.5294 28.8564 43.5403 28.8121 43.5683 28.7766C43.6056 28.7292 43.5993 28.6762 43.5494 28.6177C43.3988 28.7967 43.2128 29.0391 42.9913 29.3447C42.7804 29.649 42.5808 29.9574 42.3923 30.2699C42.2026 30.5717 42.0562 30.8308 41.953 31.0472C41.9369 31.0921 41.9148 31.1323 41.8868 31.1678C41.8588 31.2034 41.8361 31.2383 41.8187 31.2726C41.7839 31.3412 41.7379 31.4057 41.6806 31.4663C41.6234 31.5268 41.5839 31.6013 41.5622 31.6898C41.4035 31.8913 41.2754 32.0784 41.1778 32.2511C41.0907 32.4226 40.9567 32.605 40.7756 32.7984C40.6416 32.8466 40.5133 32.8511 40.3905 32.812C40.2782 32.7716 40.1614 32.7372 40.0398 32.7087C40.0123 32.6582 39.9796 32.6084 39.9415 32.5592C39.9022 32.4994 39.8687 32.4443 39.8413 32.3939C39.8441 32.1465 39.8565 31.8443 39.8785 31.4872C39.8992 31.1195 39.91 30.7583 39.9108 30.4038C39.9222 30.0479 39.906 29.776 39.8621 29.5878C39.8452 29.5361 39.8349 29.4944 39.8311 29.4626C39.8273 29.4308 39.8388 29.3919 39.8656 29.3457C39.863 29.3245 39.8605 29.3033 39.858 29.2822C39.8661 29.2597 39.8695 29.2432 39.8682 29.2326C39.809 29.1859 39.7921 29.1342 39.8176 29.0775C39.843 29.0208 39.8367 28.9678 39.7987 28.9186C39.7868 28.9093 39.7697 28.9006 39.7472 28.8925C39.7354 28.8832 39.7182 28.8745 39.6958 28.8664C39.5056 29.2542 39.2917 29.6234 39.0541 29.9739C38.8258 30.3126 38.6047 30.6665 38.3908 31.0356C38.2477 31.2782 38.1144 31.5573 37.9908 31.8727C37.8778 32.1869 37.7267 32.452 37.5375 32.6678C37.4722 32.7508 37.4081 32.8443 37.3453 32.9485C37.2918 33.0407 37.2212 33.1243 37.1334 33.1992C37.121 33.2759 37.0856 33.3392 37.0271 33.3891C36.9779 33.4272 36.9109 33.4512 36.8262 33.4613C36.6673 33.4802 36.5021 33.4461 36.3307 33.3591C36.1592 33.2721 36.06 33.1603 36.033 33.0239C36.0242 32.9498 36.0472 32.8718 36.1019 32.7901C36.11 32.7677 36.1127 32.7459 36.1102 32.7247C36.1183 32.7023 36.127 32.6851 36.1363 32.6733C36.3275 32.5646 36.5105 32.3871 36.6853 32.1407C36.8707 31.8931 37.0436 31.6309 37.204 31.354C37.3632 31.0665 37.5122 30.8286 37.6509 30.6402C37.7816 30.4743 37.8798 30.3069 37.9457 30.1379C38.0103 29.9584 38.0967 29.7816 38.2049 29.6076C38.3398 29.3875 38.4729 29.1514 38.6041 28.8995C38.7458 28.6464 38.8829 28.3991 39.0154 28.1578C39.1584 27.9152 39.3046 27.6991 39.4539 27.5095C39.5331 27.543 39.6116 27.5713 39.6896 27.5942C39.7781 27.6159 39.87 27.6211 39.9653 27.6098C40.0258 27.6671 40.0811 27.7249 40.131 27.7835C40.1902 27.8301 40.2548 27.8762 40.3246 27.9216C40.488 28.031 40.6088 28.1885 40.687 28.3941C40.7651 28.5996 40.8187 28.8242 40.8476 29.0678C40.8892 29.4174 40.8943 29.7766 40.863 30.1456C40.841 30.5026 40.8286 30.8049 40.8258 31.0523C40.827 31.0629 40.8283 31.0735 40.8295 31.0841C40.8401 31.0828 40.8461 31.0875 40.8473 31.0981C41.0564 30.8691 41.2353 30.6115 41.3838 30.3253C41.5324 30.0391 41.6935 29.7675 41.867 29.5106C42.1861 29.0322 42.4237 28.6817 42.5799 28.4591C42.7466 28.2351 42.8726 28.0752 42.9578 27.9791C43.0431 27.883 43.1284 27.7869 43.2136 27.6909C43.2815 27.6291 43.358 27.5502 43.4433 27.4541C43.5378 27.3462 43.6598 27.1974 43.8091 27.0078C43.8939 26.9977 43.9733 26.9883 44.0474 26.9795C44.1322 26.9694 44.2116 26.9599 44.2858 26.9511C44.3768 26.994 44.4454 27.0288 44.4915 27.0556C44.5364 27.0717 44.6078 27.0847 44.7056 27.0945C44.7225 27.1463 44.7532 27.2232 44.7975 27.3253C44.8419 27.4275 44.8566 27.5063 44.8418 27.5617C44.8294 27.6384 44.8276 27.7138 44.8364 27.788C44.8452 27.8621 44.8276 27.9394 44.7834 28.0198C44.7138 28.157 44.6595 28.3783 44.6207 28.6837C44.5911 28.9772 44.5669 29.2701 44.5479 29.5624C44.5383 29.8429 44.5351 30.042 44.5383 30.1597C44.5199 30.366 44.4939 30.5088 44.4604 30.5879C44.4255 30.6565 44.402 30.7292 44.3896 30.8058C44.3772 30.8825 44.382 30.9678 44.4039 31.0619C44.4246 31.1454 44.4234 31.2261 44.4005 31.304C44.3911 31.3159 44.3818 31.3277 44.3725 31.3396C44.3725 31.3396 44.3678 31.3455 44.3585 31.3573C44.3711 31.4633 44.3843 31.5745 44.3981 31.691C44.4213 31.7957 44.4115 31.8935 44.3686 31.9845C44.3986 32.0562 44.4133 32.135 44.4128 32.221C44.4123 32.307 44.433 32.3904 44.4748 32.4714C44.4375 32.5188 44.4055 32.5656 44.3787 32.6117C44.352 32.6579 44.3206 32.7099 44.2845 32.7679ZM47.6987 32.072C47.4813 32.1408 47.3402 32.1737 47.2754 32.1707C47.2199 32.1558 47.1276 32.1023 46.9985 32.0102C46.819 31.9456 46.6634 31.8567 46.5318 31.7435C46.4107 31.629 46.3155 31.506 46.2462 31.3746C46.1862 31.2314 46.1558 31.1114 46.1551 31.0148C46.1428 30.6403 46.1856 30.2324 46.2835 29.7911C46.3814 29.3498 46.513 28.9206 46.6783 28.5035C46.8435 28.0864 47.0316 27.7257 47.2425 27.4213C47.4627 27.1051 47.6843 26.8908 47.9072 26.7784C48.109 26.6684 48.3064 26.6127 48.4996 26.6113C48.6928 26.6098 48.8425 26.694 48.9486 26.864C49.144 27.1523 49.1302 27.3527 48.9073 27.4651C48.8755 27.4689 48.8403 27.4892 48.8017 27.526C48.7619 27.5522 48.7445 27.5865 48.7495 27.6289C48.7944 27.645 48.9115 27.6365 49.1009 27.6032C49.2891 27.5593 49.4759 27.5049 49.6616 27.4399C49.8565 27.363 49.9826 27.2943 50.0399 27.2338C50.0997 27.1944 50.1454 27.1729 50.1772 27.1691C50.209 27.1653 50.2897 27.1665 50.4193 27.1725C50.6057 27.2041 50.7033 27.2569 50.7121 27.3311C50.7171 27.3735 50.738 27.4139 50.7748 27.4525C50.8104 27.4805 50.8494 27.492 50.8917 27.487C50.9671 27.4887 50.9622 27.5377 50.877 27.6337C50.8023 27.7285 50.6679 27.8627 50.4736 28.0362C50.2875 28.1872 50.1705 28.287 50.1226 28.3357C50.084 28.3725 50.0875 28.4473 50.1331 28.56C50.2418 28.7512 50.2748 28.9836 50.2321 29.2572C50.1895 29.5308 50.0892 29.8167 49.9312 30.1147C49.7733 30.4128 49.5712 30.7 49.3247 30.9764C49.0876 31.2409 48.8256 31.4761 48.5386 31.6821C48.2609 31.8763 47.9809 32.0062 47.6987 32.072ZM47.3455 31.405C47.3879 31.4 47.4595 31.37 47.5604 31.315C47.66 31.2495 47.7397 31.197 47.7995 31.1577C47.8368 31.1103 47.8841 31.0563 47.9414 30.9958C48.0079 30.9235 48.0618 30.8795 48.1029 30.8638C48.1453 30.8588 48.1963 30.8366 48.2561 30.7973C48.3146 30.7474 48.3952 30.6572 48.4979 30.5268C48.5993 30.3859 48.7308 30.1823 48.8925 29.916C49.0767 29.6578 49.2156 29.4264 49.3095 29.2219C49.4021 29.0068 49.4118 28.8177 49.3387 28.6545C49.3231 28.6134 49.2882 28.5907 49.2339 28.5864C49.1903 28.5808 49.1289 28.5613 49.0497 28.5277C48.9438 28.5403 48.84 28.5258 48.7384 28.4842C48.6461 28.4307 48.536 28.3632 48.4082 28.2817L48.1162 27.9942L47.8782 28.2964C47.7289 28.486 47.5791 28.7616 47.4287 29.1233C47.2877 29.473 47.1744 29.8302 47.0888 30.1949C47.002 30.5489 46.96 30.8278 46.9627 31.0316C46.971 31.1918 47.0101 31.2945 47.08 31.3399C47.1498 31.3853 47.2383 31.407 47.3455 31.405ZM52.3576 31.3409C52.2323 31.2806 52.115 31.1978 52.0058 31.0926C51.8954 30.9769 51.8288 30.8237 51.8062 30.633C51.7936 30.5271 51.7934 30.3445 51.8055 30.0853C51.8176 29.826 51.8419 29.5331 51.8783 29.2065C51.9146 28.8799 51.9535 28.5745 51.9949 28.2903C52.0782 28.0871 52.1455 27.8857 52.197 27.6863C52.2485 27.4868 52.2717 27.3659 52.2667 27.3235C52.2727 27.1939 52.2816 27.0424 52.2932 26.8692C52.3154 26.6947 52.3396 26.5361 52.3655 26.3933C52.3915 26.2506 52.4139 26.1674 52.4325 26.1437C52.4792 26.0844 52.539 26.0451 52.6119 26.0257C52.6835 25.9957 52.7589 25.9974 52.8381 26.031C52.9266 26.0527 52.9983 26.114 53.0533 26.2149C53.1849 26.3281 53.2614 26.4748 53.2828 26.6549C53.303 26.8243 53.275 27.0855 53.1987 27.4383C53.1286 27.6614 53.0629 27.9217 53.0015 28.219C52.9402 28.5163 52.887 28.7912 52.8418 29.0436C52.8059 29.2842 52.7877 29.4475 52.7872 29.5335L52.4808 29.6666C52.6407 29.4757 52.7894 29.2808 52.9269 29.0818C53.0631 28.8723 53.162 28.7102 53.2235 28.5954C53.3746 28.3304 53.5043 28.1109 53.6125 27.9369C53.7301 27.7511 53.8809 27.529 54.065 27.2708C54.2479 27.002 54.4368 26.8292 54.6318 26.7523C54.8361 26.6635 54.9965 26.6122 55.113 26.5984C55.351 26.6131 55.5509 26.7128 55.7125 26.8977C55.8835 27.0707 56.0128 27.3454 56.1005 27.7217C56.1181 27.8699 56.123 28.0466 56.1152 28.2516C56.1179 28.4554 56.1193 28.5573 56.1193 28.5573C56.1193 28.5573 56.1908 28.436 56.3338 28.1934C56.4874 27.9496 56.6968 27.6776 56.9619 27.3776C57.1455 27.2053 57.3314 27.0973 57.5195 27.0535C57.7064 26.999 57.8834 27.0424 58.0506 27.1837C58.3436 27.2992 58.5508 27.5055 58.672 27.8026C58.792 28.0891 58.8586 28.4679 58.8716 28.939C58.8726 29.2182 58.8918 29.4254 58.9294 29.5605C58.9657 29.6851 59.0126 29.8085 59.07 29.9305C59.1598 29.9628 59.1864 30.051 59.1498 30.195C59.112 30.3284 59.056 30.3995 58.9818 30.4083C58.8759 30.4209 58.7516 30.4142 58.6088 30.3882C58.4767 30.3609 58.352 30.3059 58.2347 30.2232C58.1268 30.1286 58.0622 29.9913 58.0408 29.8112L57.9236 28.8261C57.8959 28.5931 57.8627 28.4037 57.8239 28.2579C57.7956 28.1109 57.7585 28.024 57.7123 27.9973C57.5882 27.9476 57.427 28.0366 57.2284 28.2643C57.0299 28.492 56.8237 28.7904 56.6098 29.1596C56.3959 29.5288 56.1991 29.9066 56.0195 30.2932C55.8573 30.6455 55.7529 30.8513 55.7062 30.9105C55.6689 30.9579 55.5875 30.9515 55.4622 30.8912C55.2204 30.8447 55.0601 30.7617 54.9815 30.6422C54.9121 30.5108 54.8886 30.3578 54.9108 30.1833C54.9423 29.997 54.9769 29.7458 55.0146 29.4298C55.0628 29.1126 55.107 28.8065 55.1471 28.5117C55.186 28.2063 55.2085 27.9888 55.2145 27.8592C55.1621 27.7795 55.0848 27.7619 54.9827 27.8062C54.8898 27.8387 54.7949 27.8984 54.6978 27.9851C54.5808 28.085 54.4461 28.2621 54.2937 28.5165C54.1413 28.771 53.9881 29.0631 53.834 29.3929C53.7308 29.6093 53.6223 29.8263 53.5085 30.0439C53.3935 30.2509 53.2865 30.4355 53.1877 30.5977C53.0888 30.7598 53.0014 30.883 52.9255 30.9672C52.8049 31.2179 52.7194 31.3569 52.6689 31.3844C52.6185 31.4119 52.5147 31.3974 52.3576 31.3409ZM60.3974 34.7838C60.3551 34.7888 60.3021 34.7951 60.2385 34.8026C60.1762 34.8208 60.113 34.7853 60.0487 34.6963C60 34.6484 59.9641 34.5721 59.9409 34.4674C59.9283 34.3615 59.9321 34.1677 59.9523 33.886C59.9839 33.6997 60.0048 33.5146 60.0152 33.3307C60.0268 33.1575 60.0276 33.0285 60.0175 32.9437C60.0125 32.9014 60.013 32.8154 60.0191 32.6857C60.037 32.5655 60.0428 32.4788 60.0365 32.4259C60.0794 32.3348 60.1079 32.2133 60.1221 32.0612C60.1362 31.9092 60.1364 31.7749 60.1225 31.6584C60.1074 31.5312 60.1571 31.4072 60.2716 31.2861C60.2615 31.2014 60.2648 31.0936 60.2815 30.9627C60.3088 30.8306 60.3199 30.7433 60.3148 30.701C60.329 30.5489 60.367 30.2812 60.4288 29.8979C60.5 29.5027 60.5867 29.0574 60.6889 28.5618C60.8017 28.065 60.9105 27.5795 61.0152 27.1051C61.1199 26.6308 61.217 26.2272 61.3063 25.8943C61.3981 25.5826 61.4526 25.3183 61.4698 25.1014C61.4963 24.8727 61.5033 24.7054 61.4907 24.5995C61.4857 24.5571 61.4925 24.5241 61.5111 24.5003C61.5286 24.4661 61.5693 24.4021 61.6334 24.3086C61.7267 24.1901 61.8129 24.1476 61.8921 24.1811C61.9819 24.2134 62.0901 24.265 62.2167 24.3359C62.3178 24.4635 62.3899 24.5731 62.433 24.6647C62.4867 24.755 62.5062 24.9191 62.4916 25.1572C62.5104 25.3161 62.5003 25.4569 62.4612 25.5797C62.4221 25.7025 62.3852 25.7982 62.3503 25.8668C62.3143 25.9248 62.3062 25.9473 62.3261 25.9342C62.7365 25.6813 63.1052 25.53 63.4323 25.4804C63.7687 25.4189 64.0563 25.4438 64.2951 25.555C64.5433 25.6544 64.7395 25.8137 64.8837 26.0329C65.0279 26.2521 65.1183 26.5153 65.1548 26.8224C65.1699 26.9495 65.1617 27.1063 65.1301 27.2926C65.0973 27.4684 65.0473 27.6355 64.9802 27.7938C64.9225 27.9403 64.8656 28.0491 64.8096 28.1203C64.7672 28.1253 64.7293 28.1674 64.6957 28.2466C64.6609 28.3152 64.6273 28.3944 64.595 28.4841C64.5229 28.6001 64.3997 28.7383 64.2254 28.8987C64.0604 29.0472 63.893 29.1745 63.723 29.2807C63.5517 29.3762 63.4218 29.4131 63.3333 29.3914C63.3333 29.3914 63.3181 29.3986 63.2876 29.413C63.2664 29.4155 63.2589 29.4432 63.2652 29.4962C63.2677 29.5174 63.1887 29.5751 63.028 29.6694C62.8661 29.7531 62.6777 29.84 62.4628 29.93C62.2467 30.0094 62.0539 30.0591 61.8844 30.0793C61.662 30.1057 61.4981 30.0823 61.3927 30.0089C61.374 30.0326 61.3513 30.0675 61.3245 30.1136C61.3084 30.1585 61.3022 30.1969 61.306 30.2286C61.3136 30.2922 61.3016 30.4171 61.27 30.6035C61.2478 30.778 61.2143 30.9485 61.1697 31.1149C61.125 31.2814 61.0762 31.3677 61.0232 31.374C61.0232 31.374 61.0145 31.3912 60.9971 31.4255C60.9797 31.4598 60.9954 31.5009 61.044 31.5488C61.044 31.5488 61.0457 31.6077 61.0489 31.7254C61.064 31.8526 61.0501 31.9616 61.0072 32.0527C61.0173 32.1374 61.0165 32.2664 61.0049 32.4396C60.9933 32.6129 60.9713 32.7444 60.939 32.8342C60.9542 32.9613 60.9474 33.0856 60.9189 33.2072C60.9023 33.338 60.8728 33.406 60.8304 33.411C60.7893 33.4267 60.7704 33.4934 60.7736 33.6111C60.7781 33.7395 60.7835 33.8302 60.7898 33.8831C60.8107 34.1492 60.7823 34.362 60.7046 34.5217C60.6269 34.6813 60.5245 34.7686 60.3974 34.7838ZM61.689 29.2486C61.7737 29.2385 61.9441 29.1806 62.2001 29.075C62.456 28.9694 62.7154 28.8472 62.9782 28.7086C63.2504 28.5581 63.4484 28.4164 63.5722 28.2835C63.8186 28.0071 63.9977 27.7065 64.1095 27.3817C64.2306 27.0451 64.1841 26.7445 63.9701 26.4799C63.8677 26.3417 63.7072 26.3017 63.4885 26.3599C63.2686 26.4075 63.0351 26.5212 62.7879 26.701C62.5407 26.8808 62.3138 27.0957 62.1073 27.3459C61.9965 27.4987 61.9002 27.682 61.8182 27.8958C61.7362 28.1097 61.6701 28.3216 61.6199 28.5317C61.5802 28.7405 61.5633 28.9144 61.5691 29.0534C61.5749 29.1923 61.6148 29.2574 61.689 29.2486ZM67.6653 29.9237C67.2321 29.8034 66.9343 29.6024 66.7719 29.321C66.6189 29.0277 66.5417 28.5588 66.5403 27.9145C66.5224 27.5836 66.5072 27.3652 66.4946 27.2593C66.482 27.1534 66.4112 27.0544 66.282 26.9623C66.2452 26.9237 66.1801 26.8724 66.0865 26.8083C66.0035 26.743 65.9642 26.6832 65.9685 26.629C65.9491 26.5561 65.9449 26.476 65.9561 26.3888C65.9659 26.2909 65.992 26.2395 66.0344 26.2345C66.0768 26.2294 66.1179 26.2138 66.1577 26.1876C66.2082 26.1601 66.2558 26.1544 66.3007 26.1706C66.3431 26.1655 66.3914 26.1652 66.4456 26.1695C66.4998 26.1738 66.5294 26.1971 66.5345 26.2395C66.5857 26.3086 66.6558 26.311 66.7448 26.2467C66.8326 26.1718 66.9168 26.0221 66.9976 25.7977C67.0833 25.6156 67.2009 25.4298 67.3502 25.2402C67.5101 25.0493 67.6666 24.8749 67.8197 24.7171C67.9822 24.5474 68.1179 24.4238 68.2268 24.3464C68.2773 24.3189 68.3536 24.283 68.4557 24.2386C68.5578 24.1943 68.6659 24.1546 68.7799 24.1195C68.9045 24.0832 69.0098 24.0654 69.0958 24.0659C69.2877 24.0538 69.4529 24.0879 69.5913 24.1681C69.7403 24.247 69.8807 24.3431 70.0123 24.4564C70.1613 24.5354 70.2612 24.6524 70.3118 24.8075C70.3731 24.9613 70.4038 25.1295 70.4041 25.3121C70.4043 25.4947 70.3761 25.6646 70.3196 25.8217C70.3004 25.9314 70.2255 26.0692 70.0949 26.2351C69.9642 26.401 69.8117 26.5641 69.6374 26.7245C69.4632 26.8849 69.3003 27.0063 69.149 27.0887C69.0151 27.1369 68.8382 27.1848 68.6183 27.2324C68.4089 27.2788 68.209 27.3133 68.0183 27.3359C67.837 27.3468 67.7126 27.3401 67.6453 27.3158C67.5661 27.2823 67.5148 27.3475 67.4913 27.5114C67.4679 27.6753 67.4631 27.9068 67.4772 28.2059C67.4837 28.4415 67.5039 28.6109 67.5377 28.7143C67.5714 28.8177 67.6014 28.8894 67.6277 28.9292C67.7106 28.9945 67.8226 29.0779 67.9635 29.1793C68.1138 29.2689 68.3064 29.2621 68.5412 29.159C68.7361 29.0821 68.9157 28.9211 69.0799 28.676C69.2547 28.4296 69.4187 28.2275 69.5718 28.0697C69.6053 27.9905 69.6692 27.9399 69.7632 27.918C69.8666 27.8842 69.9785 27.8763 70.0988 27.8942C70.2241 27.9545 70.2825 28.0389 70.2739 28.1473C70.2746 28.2439 70.2393 28.3985 70.1679 28.6111C70.1449 28.689 70.0821 28.7932 69.9794 28.9235C69.8861 29.042 69.7775 29.1677 69.6537 29.3006C69.5392 29.4216 69.4327 29.5202 69.3344 29.5964C69.0368 29.8036 68.7509 29.9289 68.4768 29.9723C68.2014 30.005 67.9309 29.9888 67.6653 29.9237ZM68.2193 26.587C68.446 26.5063 68.627 26.4472 68.7621 26.4096C68.8973 26.3721 69.0228 26.2981 69.1386 26.1877C69.2531 26.0666 69.3887 25.8518 69.5453 25.5431C69.5738 25.4216 69.5706 25.3038 69.5355 25.1898C69.5111 25.0746 69.4752 24.9983 69.4278 24.9609C69.3198 24.8663 69.1996 24.8484 69.0669 24.9072C68.9436 24.9541 68.8287 25.0268 68.7222 25.1254C68.6519 25.166 68.5501 25.2586 68.4169 25.4034C68.2931 25.5363 68.1718 25.6903 68.053 25.8656C67.9329 26.0302 67.838 26.1812 67.7684 26.3183C67.6988 26.4555 67.6864 26.5322 67.7313 26.5483C67.7152 26.5932 67.7766 26.6128 67.9155 26.607C68.0651 26.5999 68.1663 26.5933 68.2193 26.587ZM72.1402 29.1822C72.1034 29.1436 72.0653 29.0945 72.026 29.0347C71.9973 28.9736 71.9804 28.9219 71.9753 28.8796C71.9728 28.8584 71.9644 28.8325 71.95 28.802C71.9462 28.7702 71.9232 28.7569 71.8808 28.7619C71.8452 28.7339 71.8519 28.6096 71.9009 28.3889C71.9592 28.1564 72.0349 27.8896 72.128 27.5885C72.2317 27.2862 72.3366 26.9944 72.4429 26.7132C72.5584 26.4202 72.6544 26.1886 72.7308 26.0184C72.78 25.9803 72.8068 25.9342 72.811 25.8799C72.8247 25.8139 72.8209 25.7821 72.7997 25.7846C72.7997 25.7846 72.8205 25.7338 72.8622 25.6322C72.9131 25.5187 72.9526 25.4442 72.9806 25.4086C73.0477 25.2503 73.0936 25.0944 73.1184 24.9411C73.1418 24.7772 73.1367 24.6435 73.1029 24.5401C73.0542 24.4922 73.0047 24.482 72.9542 24.5094C72.9038 24.5369 72.8786 24.5507 72.8786 24.5507C72.8375 24.5663 72.7764 24.595 72.6955 24.6369C72.6239 24.6669 72.5588 24.7068 72.5003 24.7568C72.2768 24.9552 72.1221 25.0542 72.0361 25.0536C71.9488 25.0425 71.8371 24.9162 71.701 24.6746C71.6448 24.5631 71.6188 24.4802 71.6231 24.426C71.6274 24.3718 71.6628 24.3085 71.7294 24.2361C71.8053 24.1519 71.8791 24.0948 71.9507 24.0648C72.0211 24.0242 72.0756 23.9855 72.1142 23.9487C72.2219 23.8607 72.3109 23.7964 72.3813 23.7558C72.4622 23.714 72.5233 23.6852 72.5644 23.6696C72.8297 23.5521 73.0608 23.5085 73.2578 23.5388C73.4547 23.5691 73.6141 23.6898 73.7359 23.9009C73.9056 24.0633 74.0043 24.2611 74.032 24.4941C74.0584 24.7165 74.0151 24.9849 73.9021 25.2991L73.7716 25.5563C73.7312 25.6685 73.7269 25.7227 73.7587 25.7189C73.801 25.7139 73.8443 25.6712 73.8884 25.5907C73.9152 25.5446 73.9712 25.4735 74.0564 25.3774C74.1417 25.2813 74.2002 25.2314 74.232 25.2276C74.232 25.2276 74.2419 25.2211 74.2619 25.2079C74.2924 25.1936 74.3032 25.1493 74.2944 25.0752C74.3224 25.0396 74.3504 25.0041 74.3784 24.9685C74.417 24.9317 74.4363 24.9133 74.4363 24.9133C74.4787 24.9083 74.5524 24.8511 74.6576 24.742C74.7721 24.6209 74.9059 24.4815 75.059 24.3236C75.1655 24.2251 75.2664 24.1701 75.3617 24.1588C75.5965 24.0557 75.8019 24.1118 75.9779 24.3272C76.1645 24.5413 76.2798 24.8338 76.3239 25.2045L76.0922 26.1021L76.5811 25.335C76.6346 25.2427 76.6893 25.161 76.7453 25.0899C76.8119 25.0176 76.8691 24.957 76.9171 24.9084C76.9294 24.8317 76.9562 24.7856 76.9973 24.7699C77.0384 24.7543 77.0589 24.7465 77.0589 24.7465C77.0589 24.7465 77.0695 24.7452 77.0907 24.7427C77.1106 24.7296 77.1187 24.7072 77.1149 24.6754C77.1629 24.6267 77.2167 24.5827 77.2765 24.5434C77.335 24.4935 77.3723 24.4461 77.3885 24.4012C77.5597 24.3056 77.7226 24.2755 77.8772 24.3108C78.0306 24.3356 78.1734 24.4529 78.3058 24.6627C78.395 24.781 78.4506 24.8872 78.4725 24.9812C78.4945 25.0753 78.5168 25.2177 78.5394 25.4083C78.5371 25.5697 78.5311 25.6994 78.5212 25.7972C78.5207 25.8832 78.5208 25.9745 78.5216 26.0711C78.5223 26.1677 78.5221 26.302 78.5211 26.474C78.4888 26.5637 78.473 26.6569 78.4738 26.7535C78.4851 26.8488 78.4958 26.9389 78.5059 27.0236C78.5223 27.1613 78.5389 27.256 78.5558 27.3077C78.5714 27.3488 78.6163 27.3649 78.6904 27.3561C78.835 27.3067 79.0274 27.2087 79.2677 27.0619C79.5174 26.9033 79.6989 26.7582 79.8122 26.6266C79.9534 26.4594 80.0823 26.3689 80.1988 26.3551C80.3247 26.3294 80.411 26.3782 80.4579 26.5015C80.4841 26.5413 80.4584 26.6411 80.3807 26.8007C80.3136 26.9591 80.23 27.114 80.1298 27.2656C80.0403 27.4159 79.969 27.4942 79.9161 27.5004C79.8843 27.5042 79.851 27.5404 79.8162 27.609C79.7801 27.667 79.7375 27.715 79.6883 27.7531C79.623 27.8361 79.557 27.9137 79.4904 27.9861C79.4344 28.0572 79.3641 28.0978 79.2793 28.1079C79.2369 28.1129 79.1859 28.1351 79.1261 28.1744C79.0757 28.2019 79.0134 28.2201 78.9392 28.2289C78.8371 28.2732 78.671 28.2769 78.441 28.2398C78.2216 28.2014 78.0663 28.0695 77.975 27.844C77.9188 27.7325 77.8597 27.5516 77.7977 27.3011C77.7345 27.0401 77.7083 26.7747 77.7192 26.5049C77.7389 26.3092 77.7446 26.1312 77.7363 25.9711C77.728 25.811 77.7359 25.6972 77.7601 25.6299C77.7564 25.5981 77.7475 25.524 77.7337 25.4075C77.7186 25.2804 77.6951 25.2187 77.6634 25.2225C77.621 25.2275 77.5298 25.3189 77.3898 25.4967C77.2592 25.6626 77.1018 25.8747 76.9176 26.1329C76.7441 26.3898 76.5718 26.6574 76.4008 26.9355C76.2297 27.2136 76.0926 27.4609 75.9895 27.6773C75.908 27.8051 75.8403 27.9582 75.7863 28.1365C75.7323 28.3147 75.6906 28.4164 75.6614 28.4413C75.5973 28.5349 75.5085 28.5562 75.3951 28.5052C75.2922 28.453 75.1902 28.3631 75.0891 28.2355C75.0497 28.1757 75.0223 28.1252 75.0066 28.0841C74.9897 28.0324 74.9816 27.9636 74.9821 27.8776C74.9919 27.7797 75.0126 27.6376 75.0442 27.4513C75.0863 27.2637 75.1408 26.9994 75.2077 26.6584C75.2814 26.2844 75.3436 25.9494 75.3944 25.6534C75.4544 25.3454 75.4845 25.1915 75.4845 25.1915C75.4794 25.1491 75.405 25.2009 75.2613 25.3469C75.1162 25.4823 74.9485 25.6527 74.7581 25.8579C74.6766 25.9858 74.5385 26.1794 74.3438 26.4389C74.149 26.6984 73.9369 26.9921 73.7074 27.3202C73.4778 27.6482 73.2608 27.9909 73.0562 28.3483C72.8006 28.819 72.615 29.1097 72.4992 29.2201C72.394 29.3293 72.2744 29.3167 72.1402 29.1822ZM82.7344 28.261C82.5718 28.2481 82.4216 28.2499 82.2839 28.2663C82.1568 28.2814 82.0331 28.28 81.9128 28.262C81.8018 28.2323 81.6977 28.1695 81.6004 28.0736C81.4713 27.9815 81.3714 27.8645 81.3008 27.7225C81.229 27.5699 81.1817 27.3983 81.1591 27.2077C81.1175 26.8581 81.1292 26.4593 81.194 26.0112C81.2683 25.5512 81.3643 25.094 81.4821 24.6395C81.6 24.1851 81.7169 23.7684 81.833 23.3894C81.949 23.0104 82.0322 22.7158 82.0824 22.5058C82.0474 22.3918 82.0769 22.3238 82.171 22.3019C82.2756 22.2787 82.3934 22.2754 82.5243 22.2921C82.6539 22.2982 82.7412 22.3093 82.786 22.3254C82.8584 22.392 82.9314 22.4639 83.005 22.5411C83.0774 22.6077 83.1245 22.688 83.1465 22.7821C83.1802 22.8855 83.1664 22.9945 83.1048 23.1093C83.0538 23.2227 83.001 23.3203 82.9463 23.402C82.8542 23.5311 82.7638 23.7191 82.6749 23.966C82.5861 24.2129 82.5017 24.4968 82.4217 24.8179C82.3511 25.127 82.2916 25.4402 82.2434 25.7575C82.1952 26.0747 82.1604 26.3689 82.1389 26.64C82.1267 26.8992 82.1354 27.1077 82.1649 27.2653C82.4728 27.3254 82.7725 27.3166 83.0641 27.239C83.3556 27.1613 83.6091 27.0345 83.8245 26.8585C84.0492 26.6707 84.2132 26.4686 84.3163 26.2522C84.4369 26.0016 84.4594 25.7841 84.3838 25.5997C84.3175 25.4035 84.1295 25.313 83.8198 25.3284C83.6597 25.3367 83.512 25.3596 83.3768 25.3972C83.2416 25.4347 83.1012 25.4729 82.9554 25.5117C82.8712 25.4358 82.8094 25.3679 82.7701 25.3082C82.7307 25.2484 82.702 25.1874 82.6838 25.1251C82.6569 24.9886 82.6966 24.8711 82.8031 24.7725C82.9188 24.6621 83.0536 24.5762 83.2075 24.515C83.3719 24.4525 83.5189 24.4242 83.6486 24.4303C83.8642 24.4369 84.0842 24.4806 84.3087 24.5613C84.5437 24.6408 84.7389 24.7465 84.8942 24.8784C84.989 24.9531 85.0698 25.0455 85.1366 25.1557C85.2128 25.2541 85.2631 25.3609 85.2875 25.4761C85.3614 25.7359 85.3844 25.9749 85.3566 26.193C85.3276 26.4005 85.2596 26.5966 85.1526 26.7812C84.9841 27.0805 84.704 27.3448 84.3124 27.5739C83.9313 27.8019 83.5748 28.0107 83.2429 28.2006C83.1369 28.2132 83.0516 28.218 82.9868 28.2149C82.9313 28.2 82.8472 28.2154 82.7344 28.261ZM17.9871 48.9538C17.8575 48.9477 17.7499 48.9014 17.6645 48.8149C17.5883 48.7166 17.487 48.6319 17.3604 48.5611C17.3465 48.4445 17.351 48.256 17.3737 47.9955C17.4058 47.7232 17.4491 47.4549 17.5036 47.1906C17.5568 46.9157 17.603 46.7168 17.6421 46.594C17.6517 46.3136 17.6891 46.0406 17.7542 45.7751C17.8299 45.5083 17.885 45.2493 17.9196 44.9981C17.9474 44.78 17.9711 44.5731 17.9908 44.3774C18.0211 44.1804 18.0521 43.9888 18.0836 43.8024C18.1202 43.6584 18.1353 43.5599 18.1291 43.507C18.1215 43.4434 18.1264 43.3945 18.1438 43.3602C18.1706 43.314 18.2437 43.2516 18.3633 43.173C18.4848 43.2015 18.5939 43.2154 18.6905 43.2146C18.7964 43.202 18.8886 43.1642 18.967 43.1012C18.9763 43.0893 19.0558 43.0799 19.2053 43.0729C19.3642 43.054 19.539 43.0332 19.7296 43.0105C19.9203 42.9879 20.0627 42.9656 20.1567 42.9436C20.3038 42.9154 20.4486 42.9143 20.5914 42.9403C20.7341 42.9663 20.8849 42.9698 21.0438 42.951C21.2539 43.0012 21.4493 43.0639 21.6301 43.1391C21.8109 43.2142 21.9572 43.315 22.0689 43.4414C22.1899 43.5559 22.2571 43.7144 22.2704 43.9169C22.2681 44.0783 22.277 44.2437 22.2972 44.4132C22.3173 44.5827 22.2939 44.7466 22.2268 44.905C22.2288 45.0121 22.1966 45.1932 22.1302 45.4482C22.0626 45.6925 21.9969 45.9528 21.933 46.2289C21.8785 46.4932 21.8507 46.7113 21.8497 46.8833C21.8479 46.9587 21.8249 47.0366 21.7808 47.1171C21.746 47.1857 21.7389 47.2617 21.7596 47.3452C21.7828 47.4498 21.7826 47.5841 21.7591 47.7481C21.745 47.9001 21.7059 48.0229 21.6418 48.1165C21.5591 48.2337 21.4476 48.29 21.3074 48.2851C21.1659 48.2697 21.0366 48.2207 20.9193 48.1379C20.8114 48.0433 20.7552 47.9319 20.7506 47.8035C20.7355 47.6764 20.7226 47.5222 20.7117 47.3409C20.7103 47.1477 20.7066 46.9816 20.7009 46.8427C20.7662 46.7597 20.7951 46.6864 20.7875 46.6229C20.7893 46.5475 20.7911 46.4721 20.7928 46.3967C20.8617 46.1629 20.9237 45.8709 20.9787 45.5206C21.0431 45.1585 21.0881 44.8148 21.1139 44.4894C21.1397 44.1641 21.1232 43.9351 21.0645 43.8025C20.895 43.8226 20.6738 43.8597 20.4009 43.9136C20.1268 43.9569 19.8745 44.003 19.644 44.0519C19.4228 44.089 19.3016 44.1087 19.2804 44.1113C19.2393 44.1269 19.2054 44.1578 19.1787 44.2039C19.1507 44.2395 19.1386 44.2731 19.1423 44.3049C19.1315 44.5748 19.0882 44.8431 19.0125 45.1099C18.9355 45.3661 18.8863 45.6297 18.8648 45.9008C18.863 45.9762 18.8411 46.1078 18.7989 46.2954C18.7555 46.4724 18.7041 46.6719 18.6445 46.8938C18.5943 47.1039 18.5494 47.3133 18.5097 47.5221C18.4689 47.7203 18.4553 47.8777 18.4692 47.9942C18.4356 48.0734 18.4139 48.1619 18.4041 48.2597C18.3942 48.3576 18.3981 48.4806 18.4158 48.6289C18.4152 48.7149 18.3798 48.7782 18.3094 48.8188C18.2391 48.8594 18.1316 48.9044 17.9871 48.9538ZM24.1369 51.3969C24.0199 51.4967 23.8869 51.5071 23.7378 51.4282C23.5994 51.348 23.4871 51.2163 23.4008 51.0332C23.3146 50.8501 23.296 50.6482 23.345 50.4276C23.3586 50.3615 23.3778 50.2518 23.4025 50.0985C23.4285 49.9557 23.4405 49.8308 23.4385 49.7236C23.4403 49.6482 23.4569 49.5173 23.4885 49.331C23.5213 49.1552 23.5594 48.9788 23.6028 48.8018C23.6568 48.6235 23.7006 48.4947 23.7341 48.4156C23.7851 48.3021 23.813 48.1752 23.8178 48.035C23.8332 47.8935 23.8365 47.7857 23.8277 47.7116C23.84 47.6349 23.8565 47.547 23.8769 47.4479C23.9079 47.3476 23.9415 47.2684 23.9776 47.2104C23.9887 47.1231 24.0097 47.0293 24.0408 46.929C24.0705 46.818 24.1075 46.7223 24.1517 46.6419C24.164 46.5652 24.1692 46.4733 24.1672 46.3661C24.1758 46.2577 24.2006 46.1956 24.2418 46.18C24.2473 46.1364 24.2476 46.0934 24.2425 46.051C24.2481 46.0074 24.2623 45.9466 24.2853 45.8687C24.2926 45.7496 24.3202 45.5745 24.3679 45.3433C24.4155 45.112 24.4766 44.8577 24.5511 44.5803C24.631 44.2593 24.6494 43.9617 24.606 43.6876C24.572 43.4016 24.4718 43.2362 24.3054 43.1916C24.2156 43.1593 24.1557 43.1073 24.1257 43.0357C24.0945 42.9535 24.095 42.8675 24.1273 42.7777C24.1596 42.6879 24.2162 42.6221 24.2972 42.5803C24.3875 42.5266 24.4862 42.4987 24.5934 42.4967C24.7111 42.4935 24.8143 42.5027 24.9028 42.5244C24.9901 42.5355 25.0296 42.5523 25.0216 42.5747C25.0279 42.6277 25.0581 42.6563 25.1123 42.6606C25.1297 42.6263 25.1765 42.6583 25.2527 42.7567C25.3381 42.8432 25.4202 42.9462 25.4989 43.0658C25.5775 43.1853 25.62 43.2716 25.6263 43.3246C25.6102 43.3694 25.6027 43.3972 25.604 43.4078C25.604 43.4078 25.6252 43.4053 25.6675 43.4002C25.6675 43.4002 25.7227 43.3668 25.8329 43.3C25.9418 43.2226 26.0555 43.1393 26.1737 43.05C26.3014 42.9489 26.3838 42.8746 26.4212 42.8272C26.4212 42.8272 26.4464 42.8135 26.4968 42.786C26.5566 42.7467 26.6052 42.7033 26.6425 42.6559C26.8443 42.546 27.0701 42.503 27.32 42.527C27.5805 42.5498 27.7931 42.6212 27.9578 42.7412C28.2011 42.9808 28.3372 43.2225 28.3662 43.4661C28.4058 43.7084 28.3734 44.0238 28.2692 44.4121C28.2543 44.4676 28.2174 44.5633 28.1583 44.6992C28.1086 44.8233 28.0583 44.9421 28.0073 45.0556C27.9551 45.1584 27.929 45.2099 27.929 45.2099C27.7307 45.6202 27.4825 45.9719 27.1844 46.2652C26.8863 46.5584 26.5791 46.8205 26.2628 47.0515C26.1657 47.1382 26.0614 47.2097 25.9499 47.2659C25.8478 47.3103 25.755 47.3428 25.6715 47.3635C25.5867 47.3735 25.5272 47.3699 25.4929 47.3525C25.3663 47.2816 25.239 47.1141 25.1109 46.8501C25.0744 46.9941 25.0378 47.138 25.0012 47.282C24.9739 47.4142 24.9575 47.5021 24.952 47.5457C24.9502 47.6211 24.9471 47.6859 24.9428 47.7401C24.9373 47.7838 24.9152 47.824 24.8766 47.8608C24.8766 47.8608 24.8739 47.8826 24.8683 47.9262C24.8627 47.9699 24.8332 48.0378 24.7797 48.1301C24.7103 48.4499 24.6465 48.726 24.5882 48.9585C24.5312 49.2016 24.4856 49.4058 24.4516 49.5709C24.4187 49.7467 24.394 49.9 24.3773 50.0309C24.3902 50.3194 24.3653 50.607 24.3027 50.8938C24.2414 51.1911 24.1861 51.3588 24.1369 51.3969ZM25.4893 46.644C25.5291 46.6177 25.6122 46.5488 25.7386 46.4371C25.8743 46.3135 26.024 46.1722 26.1877 46.0131C26.3501 45.8434 26.4979 45.6862 26.6311 45.5414C26.7748 45.3954 26.8694 45.2875 26.9148 45.2177C26.9882 45.1123 27.0557 45.0022 27.1173 44.8875C27.1776 44.7621 27.2207 44.6281 27.2467 44.4854C27.2684 44.3969 27.2941 44.2971 27.3239 44.1862C27.3537 44.0752 27.3788 43.9702 27.3992 43.8711C27.4315 43.7813 27.4374 43.6947 27.4167 43.6112C27.4054 43.5159 27.3641 43.4402 27.293 43.3842C27.2494 43.3787 27.1261 43.4255 26.923 43.5249C26.7188 43.6136 26.499 43.7525 26.2636 43.9416C26.0271 44.1201 25.8279 44.3425 25.6662 44.6088C25.4778 44.9213 25.3489 45.2374 25.2795 45.5571C25.2207 45.8756 25.2092 46.1402 25.2449 46.3507C25.2913 46.5601 25.3727 46.6578 25.4893 46.644ZM33.5409 47.4269C33.4224 47.3335 33.2994 47.2031 33.1721 47.0357C33.0435 46.8576 32.933 46.6505 32.8404 46.4145C32.8092 46.3323 32.7847 46.217 32.7671 46.0687C32.7601 45.9192 32.7475 45.8132 32.7293 45.7509C32.7064 45.8289 32.6629 45.9146 32.5988 46.0082C32.5441 46.0899 32.4881 46.161 32.4308 46.2215C32.3935 46.2689 32.3082 46.365 32.175 46.5097C32.0406 46.6438 31.9036 46.7568 31.7642 46.8486C31.4411 47.1126 31.1643 47.269 30.9338 47.3179C30.7139 47.3655 30.4882 47.2742 30.2567 47.0439C30.0708 46.9264 29.9308 46.7873 29.8365 46.6266C29.7528 46.4647 29.7251 46.2317 29.7534 45.9275C29.7305 45.5543 29.7406 45.1879 29.7838 44.8282C29.8257 44.458 29.9438 43.9606 30.1381 43.336C30.3089 42.8753 30.4406 42.5373 30.5332 42.3222C30.6245 42.0966 30.6835 41.9606 30.7103 41.9145C30.8629 41.8426 30.9959 41.8322 31.1094 41.8831C31.2216 41.9235 31.2971 42.0166 31.3359 42.1624C31.4121 42.2607 31.4229 42.442 31.3684 42.7063C31.3244 42.9694 31.2292 43.2976 31.0826 43.691C30.9771 44.0687 30.8823 44.4452 30.798 44.8205C30.7243 45.1944 30.6919 45.5098 30.701 45.7665C30.71 46.0232 30.7918 46.1693 30.9464 46.2046C31.0481 46.2462 31.2103 46.2108 31.4333 46.0984C31.6668 45.9847 31.9117 45.7407 32.168 45.3665C32.4349 44.9911 32.6704 44.4421 32.8745 43.7196C32.9341 43.4977 32.9756 43.3048 32.9991 43.1408C33.0213 42.9663 33.0257 42.7778 33.0124 42.5753C32.9761 42.4507 32.9682 42.3389 32.9886 42.2398C33.0184 42.1288 33.0924 42.0287 33.2107 41.9395C33.2468 41.8815 33.2994 41.8269 33.3685 41.7757C33.4363 41.7139 33.484 41.7082 33.5115 41.7587L33.7638 41.7126C33.8049 41.6969 33.8345 41.7203 33.8527 41.7826C33.8802 41.833 33.9229 41.8763 33.9809 41.9123C34.1087 41.9938 34.1651 42.1966 34.1499 42.5206C34.1347 42.8447 34.0393 43.3072 33.8637 43.9081C33.7141 44.3663 33.6154 44.7111 33.5677 44.9423C33.5306 45.1723 33.5194 45.3938 33.534 45.6069C33.5566 45.7976 33.6151 45.9733 33.7094 46.1339C33.8037 46.2946 33.9385 46.4343 34.1137 46.5531C34.239 46.6134 34.3127 46.6906 34.3346 46.7847C34.3671 46.8775 34.3856 46.9881 34.3902 47.1164C34.3803 47.2143 34.3262 47.3013 34.2278 47.3774C34.1388 47.4417 34.0307 47.4814 33.9036 47.4965C33.7765 47.5116 33.6556 47.4884 33.5409 47.4269ZM41.8863 46.048C41.852 46.0305 41.7794 46.007 41.6684 45.9772C41.5668 45.9356 41.5048 45.9107 41.4823 45.9026C41.4006 45.8479 41.3488 45.7735 41.3269 45.6794C41.305 45.5853 41.2871 45.4801 41.2732 45.3635C41.27 45.2458 41.2449 45.1252 41.198 45.0019C41.2121 44.8498 41.2238 44.6766 41.2329 44.4821C41.242 44.2877 41.2767 44.1278 41.337 44.0025C41.3579 43.8174 41.3963 43.598 41.4521 43.3443C41.5172 43.0788 41.5723 42.8198 41.6175 42.5673C41.672 42.3031 41.6992 42.0796 41.6989 41.897C41.5421 42.0231 41.4076 42.1573 41.2956 42.2995C41.1836 42.4417 41.0928 42.5814 41.0232 42.7186C40.9884 42.7872 40.947 42.8458 40.8991 42.8944C40.8499 42.9325 40.802 42.9812 40.7553 43.0404C40.6446 43.1932 40.5398 43.3507 40.4409 43.5129C40.342 43.675 40.2438 43.8424 40.1462 44.0152C39.987 44.3026 39.7988 44.5721 39.5816 44.8235C39.3645 45.0749 39.1579 45.325 38.9619 45.5739C38.8885 45.6793 38.8007 45.7542 38.6986 45.7986C38.6058 45.8311 38.5092 45.8318 38.4088 45.8008C38.2754 45.7629 38.1619 45.712 38.0684 45.6479C37.9854 45.5826 37.8934 45.4861 37.7923 45.3585C37.7565 45.1479 37.7593 44.9005 37.8007 44.6163C37.8527 44.3308 37.9147 44.0388 37.9866 43.7402C38.0691 43.4404 38.1382 43.1636 38.194 42.9099C38.2485 42.6456 38.267 42.4393 38.2493 42.2911C38.2375 42.2817 38.221 42.2783 38.1998 42.2808C38.1892 42.2821 38.1746 42.2946 38.1559 42.3183C37.747 42.7643 37.4042 43.224 37.1275 43.6973C36.8614 44.1694 36.5947 44.7274 36.3276 45.3715C36.2617 45.5404 36.2009 45.7518 36.1451 46.0055C36.0987 46.2473 36.0083 46.4353 35.8738 46.5694C35.8632 46.5707 35.8526 46.5719 35.8421 46.5732C35.8408 46.5626 35.8349 46.558 35.8243 46.5592C35.8112 46.5393 35.7953 46.5412 35.7766 46.5649C35.7579 46.5886 35.7281 46.6082 35.687 46.6239C35.634 46.6302 35.5779 46.61 35.5186 46.5633C35.4357 46.498 35.3474 46.4333 35.2539 46.3692C35.1709 46.3039 35.1072 46.2202 35.0629 46.118C35.074 46.0308 35.0916 45.9535 35.1159 45.8861C35.1388 45.8082 35.187 45.7166 35.2604 45.6112C35.2796 45.5015 35.3106 45.4011 35.3535 45.3101C35.407 45.2178 35.4486 45.1161 35.4784 45.0052C35.5516 44.7172 35.6833 44.3793 35.8735 43.9914C36.0637 43.6036 36.2916 43.2167 36.5572 42.8306C36.8228 42.4445 37.1041 42.0996 37.4009 41.7958C37.6978 41.4919 37.9836 41.2753 38.2582 41.146C38.2688 41.1447 38.2741 41.1441 38.2741 41.1441C38.2847 41.1429 38.2953 41.1416 38.3059 41.1403C38.4156 41.1595 38.5153 41.1853 38.6051 41.2175C38.6936 41.2393 38.788 41.2656 38.8884 41.2967C38.9371 41.3446 38.9929 41.4078 39.056 41.4862C39.1177 41.554 39.1643 41.6291 39.1955 41.7113C39.253 41.8334 39.2691 42.0141 39.2438 42.2534C39.2186 42.4927 39.1827 42.7333 39.1363 42.9751C39.0899 43.217 39.0483 43.4099 39.0118 43.5539C39.0062 43.5975 38.9798 43.6919 38.9327 43.8372C38.8855 43.9825 38.861 44.0928 38.8592 44.1682C38.8605 44.1788 38.8617 44.1894 38.863 44.2C38.8643 44.2106 38.8708 44.2205 38.8827 44.2298C39.0332 44.0508 39.1779 43.8671 39.3166 43.6788C39.466 43.4891 39.5994 43.3014 39.7169 43.1156C40 42.6952 40.2876 42.2689 40.58 41.8367C40.8817 41.3927 41.2346 41.0177 41.6386 40.7119C41.7382 40.6463 41.8613 40.6424 42.0078 40.7002C42.1649 40.7567 42.2856 40.8229 42.3698 40.8989C42.4976 40.9803 42.5763 41.0999 42.6058 41.2575C42.6522 41.4668 42.6603 41.7613 42.6302 42.1408C42.5989 42.5097 42.5464 42.8812 42.4727 43.2552C42.4096 43.6279 42.343 43.9259 42.2728 44.149C42.2579 44.2045 42.2471 44.2488 42.2403 44.2818C42.2335 44.3148 42.2285 44.3638 42.2255 44.4286C42.2237 44.504 42.2114 44.5806 42.1884 44.6586C42.176 44.7352 42.163 44.8066 42.1494 44.8727C42.134 45.0141 42.1451 45.1525 42.1826 45.2877C42.2308 45.4216 42.2683 45.5567 42.2953 45.6932C42.2965 45.7038 42.2825 45.7216 42.2533 45.7465C42.1948 45.7964 42.1363 45.8464 42.0777 45.8963C42.0286 45.9344 41.9753 45.9837 41.9181 46.0442C41.9075 46.0454 41.9022 46.0461 41.9022 46.0461C41.9022 46.0461 41.8969 46.0467 41.8863 46.048ZM45.4442 46.0922C44.9781 46.1476 44.576 46.0182 44.2379 45.7039C43.8985 45.379 43.7026 44.9512 43.6502 44.4203C43.6261 44.0365 43.6518 43.6199 43.7272 43.1705C43.812 42.7093 43.9417 42.2642 44.1163 41.8352C44.2896 41.3957 44.4904 41.0066 44.7187 40.6679C44.947 40.3293 45.1966 40.0794 45.4674 39.9183C45.5671 39.8527 45.6732 39.7972 45.786 39.7515C45.9093 39.7046 46.0345 39.6736 46.1616 39.6585C46.2781 39.6447 46.4025 39.6514 46.5346 39.6786C46.6655 39.6953 46.7758 39.7198 46.8656 39.7521C47.0545 39.8048 47.2029 39.8785 47.3108 39.9731C47.4187 40.0676 47.523 40.2217 47.6236 40.4354C47.6793 40.6328 47.7122 40.7739 47.7222 40.8587C47.7323 40.9434 47.7209 41.0737 47.6881 41.2494C47.6064 41.6459 47.4812 41.9937 47.3127 42.293C47.1442 42.5924 46.9018 42.8575 46.5855 43.0885C46.5071 43.1515 46.4115 43.2058 46.2988 43.2515C46.1954 43.2852 46.0854 43.3091 45.9689 43.3229C45.7571 43.3481 45.5461 43.3356 45.336 43.2854C45.1353 43.2233 44.9672 43.1197 44.8318 42.9747L44.7055 42.8608L44.673 42.9936C44.601 43.2922 44.5478 43.5671 44.5132 43.8182C44.4892 44.0681 44.4892 44.2937 44.5131 44.495C44.5282 44.6221 44.5533 44.7426 44.5883 44.8566C44.6339 44.9694 44.6883 45.0649 44.7513 45.1434C44.8012 45.2019 44.8757 45.2414 44.9749 45.2618C45.0833 45.2704 45.1958 45.2678 45.3123 45.2539C45.3864 45.2451 45.4606 45.2363 45.5347 45.2275C45.6182 45.2068 45.6951 45.1762 45.7655 45.1356C45.938 45.0506 46.0728 44.9648 46.1699 44.878C46.2776 44.7901 46.3847 44.6968 46.4911 44.5982L46.5509 44.5588L46.535 44.5607C46.6545 44.4821 46.7582 44.4053 46.846 44.3304C46.9443 44.2543 46.9935 44.2162 46.9935 44.2162C47.0359 44.2111 47.0751 44.1796 47.1112 44.1216C47.1909 44.0692 47.2987 44.0725 47.4346 44.1315C47.5811 44.1893 47.6613 44.2764 47.6752 44.3929C47.6709 44.4472 47.6333 44.5376 47.5624 44.6642C47.4902 44.7802 47.4069 44.8921 47.3123 45C47.2283 45.1067 47.1552 45.1691 47.0929 45.1872C47.0835 45.1991 47.049 45.2247 46.9892 45.264C46.9282 45.2928 46.8883 45.319 46.8697 45.3427L46.8855 45.3408C46.8053 45.4792 46.7175 45.5541 46.6222 45.5655L46.4951 45.5806C46.4616 45.6597 46.3339 45.7609 46.1122 45.8839C45.8893 45.9963 45.6666 46.0658 45.4442 46.0922ZM45.7436 42.5118C45.9342 42.4892 46.0921 42.4167 46.2172 42.2944C46.3516 42.1603 46.4636 42.018 46.5532 41.8677C46.731 41.5566 46.8201 41.2667 46.8204 40.9981C46.83 40.7177 46.7756 40.5308 46.6571 40.4375C46.5897 40.4133 46.5296 40.4043 46.4766 40.4106C46.433 40.405 46.3448 40.4316 46.2122 40.4904C46.1194 40.5229 45.9964 40.6181 45.8433 40.7759C45.6902 40.9338 45.539 41.1075 45.3897 41.2971C45.2509 41.4855 45.1461 41.643 45.0753 41.7695L44.9084 42.1277C44.9893 42.0859 45.0669 42.0606 45.141 42.0518C45.2245 42.0311 45.2728 42.0307 45.2859 42.0506C45.2972 42.146 45.3238 42.2341 45.3657 42.3151C45.4169 42.3842 45.4715 42.4368 45.5295 42.4728C45.5981 42.5076 45.6694 42.5206 45.7436 42.5118ZM48.8835 49.2442C48.8411 49.2493 48.7881 49.2556 48.7246 49.2631C48.6623 49.2813 48.599 49.2458 48.5347 49.1568C48.486 49.1089 48.4501 49.0326 48.4269 48.9279C48.4143 48.822 48.4182 48.6282 48.4384 48.3465C48.4699 48.1601 48.4909 47.975 48.5013 47.7912C48.5129 47.6179 48.5137 47.4889 48.5036 47.4042C48.4985 47.3618 48.4991 47.2758 48.5051 47.1462C48.5231 47.0259 48.5289 46.9393 48.5226 46.8863C48.5655 46.7953 48.594 46.6738 48.6081 46.5217C48.6223 46.3696 48.6224 46.2353 48.6086 46.1188C48.5935 45.9917 48.6432 45.8676 48.7577 45.7466C48.7476 45.6619 48.7509 45.5541 48.7676 45.4232C48.7948 45.291 48.8059 45.2038 48.8009 45.1614C48.815 45.0093 48.853 44.7417 48.9149 44.3583C48.986 43.9632 49.0727 43.5178 49.175 43.0223C49.2878 42.5255 49.3965 42.0399 49.5013 41.5656C49.606 41.0912 49.703 40.6876 49.7923 40.3547C49.8842 40.0431 49.9387 39.7788 49.9559 39.5619C49.9824 39.3332 49.9894 39.1658 49.9768 39.0599C49.9717 39.0176 49.9785 38.9845 49.9972 38.9608C50.0146 38.9265 50.0553 38.8626 50.1194 38.769C50.2127 38.6505 50.299 38.6081 50.3782 38.6416C50.468 38.6739 50.5761 38.7255 50.7027 38.7964C50.8038 38.924 50.8759 39.0336 50.919 39.1251C50.9728 39.2154 50.9923 39.3796 50.9776 39.6177C50.9965 39.7765 50.9864 39.9174 50.9473 40.0402C50.9082 40.163 50.8712 40.2587 50.8364 40.3273C50.8003 40.3853 50.7923 40.4077 50.8122 40.3946C51.2225 40.1417 51.5912 39.9905 51.9183 39.9409C52.2548 39.8794 52.5424 39.9043 52.7812 40.0155C53.0293 40.1149 53.2255 40.2742 53.3697 40.4934C53.5139 40.7125 53.6043 40.9757 53.6408 41.2829C53.6559 41.41 53.6477 41.5667 53.6162 41.7531C53.5834 41.9289 53.5334 42.0959 53.4663 42.2543C53.4085 42.4008 53.3516 42.5096 53.2956 42.5807C53.2533 42.5858 53.2153 42.6279 53.1818 42.707C53.1469 42.7756 53.1134 42.8548 53.0811 42.9446C53.009 43.0606 52.8857 43.1988 52.7115 43.3591C52.5465 43.5076 52.379 43.635 52.209 43.7411C52.0378 43.8367 51.9079 43.8736 51.8194 43.8519C51.8194 43.8519 51.8041 43.8591 51.7736 43.8734C51.7524 43.876 51.745 43.9037 51.7513 43.9567C51.7538 43.9779 51.6747 44.0356 51.5141 44.1299C51.3522 44.2136 51.1638 44.3004 50.9489 44.3904C50.7327 44.4698 50.5399 44.5196 50.3705 44.5398C50.148 44.5662 49.9841 44.5427 49.8787 44.4693C49.86 44.493 49.8373 44.528 49.8106 44.5741C49.7945 44.619 49.7883 44.6573 49.792 44.6891C49.7996 44.7526 49.7876 44.8776 49.7561 45.064C49.7338 45.2385 49.7004 45.409 49.6557 45.5754C49.6111 45.7418 49.5623 45.8282 49.5093 45.8345C49.5093 45.8345 49.5006 45.8516 49.4832 45.8859C49.4658 45.9202 49.4814 45.9613 49.5301 46.0093C49.5301 46.0093 49.5317 46.0681 49.535 46.1859C49.5501 46.313 49.5362 46.4221 49.4933 46.5131C49.5034 46.5979 49.5026 46.7269 49.491 46.9001C49.4793 47.0734 49.4574 47.2049 49.4251 47.2946C49.4402 47.4217 49.4335 47.5461 49.405 47.6676C49.3883 47.7985 49.3588 47.8665 49.3164 47.8715C49.2753 47.8871 49.2564 47.9538 49.2597 48.0716C49.2642 48.2 49.2696 48.2906 49.2759 48.3436C49.2968 48.6097 49.2684 48.8225 49.1907 48.9821C49.113 49.1417 49.0106 49.2291 48.8835 49.2442ZM50.175 43.709C50.2598 43.699 50.4301 43.6411 50.6861 43.5355C50.9421 43.4298 51.2015 43.3077 51.4643 43.169C51.7364 43.0185 51.9344 42.8768 52.0583 42.7439C52.3047 42.4676 52.4838 42.167 52.5956 41.8422C52.7167 41.5056 52.6702 41.2049 52.4561 40.9404C52.3537 40.8021 52.1932 40.7621 51.9746 40.8204C51.7547 40.868 51.5211 40.9817 51.2739 41.1615C51.0268 41.3412 50.7999 41.5562 50.5933 41.8063C50.4826 41.9591 50.3862 42.1425 50.3042 42.3563C50.2222 42.5702 50.1561 42.7821 50.1059 42.9922C50.0663 43.201 50.0494 43.3749 50.0551 43.5138C50.0609 43.6528 50.1009 43.7178 50.175 43.709ZM57.2202 44.4343C56.8714 44.5725 56.6228 44.6504 56.4745 44.668C56.3263 44.6856 56.1586 44.6304 55.9715 44.5022C55.9122 44.4556 55.8741 44.4064 55.8572 44.3547C55.8391 44.2924 55.8082 44.2585 55.7646 44.2529C55.7452 44.18 55.7435 44.1212 55.7597 44.0763C55.7852 44.0195 55.8483 43.9637 55.9492 43.9087C56.1194 43.9852 56.3238 43.9877 56.5624 43.9164C56.801 43.845 57.0286 43.7267 57.2453 43.5613C57.4713 43.384 57.6411 43.1866 57.7549 42.969C57.9365 42.6896 58.0724 42.4317 58.1624 42.1954C58.2512 41.9486 58.2902 41.7345 58.2794 41.5531C58.2668 41.4472 58.2421 41.375 58.2053 41.3364C58.1778 41.2859 58.1154 41.2128 58.0181 41.1169C57.835 41.2032 57.669 41.2981 57.5202 41.4017C57.382 41.5041 57.2709 41.6086 57.1869 41.7153C56.9006 42.0178 56.6775 42.2646 56.5176 42.4555C56.3683 42.6451 56.2402 42.8322 56.1332 43.0168C56.0368 43.2001 55.9156 43.4454 55.7696 43.7528C55.6974 43.8688 55.6274 43.9577 55.5596 44.0195C55.5023 44.08 55.4366 44.1147 55.3625 44.1235C55.4194 44.3316 55.3604 44.4675 55.1854 44.5313C54.9461 44.506 54.7684 44.4573 54.6524 44.3852C54.5352 44.3024 54.482 44.1261 54.4929 43.8563C54.5176 43.703 54.5392 43.5232 54.5576 43.3169C54.5748 43.1 54.6017 42.9196 54.6383 42.7756C54.8119 42.0675 54.9625 41.4373 55.0902 40.885C55.2285 40.3315 55.3586 39.9347 55.4804 39.6946L55.7223 38.7474C55.9036 38.7366 56.0457 38.7573 56.1486 38.8095C56.2502 38.8511 56.3772 38.9703 56.5295 39.1671C56.5358 39.22 56.5011 39.3799 56.4254 39.6467C56.359 39.9017 56.2759 40.1962 56.176 40.5303C56.0866 40.8632 56.0001 41.1743 55.9163 41.4635C55.8419 41.7409 55.7898 41.9351 55.76 42.046C55.7315 42.1676 55.7607 42.1426 55.8478 41.9711C55.9454 41.7984 56.1227 41.5732 56.3797 41.2956C56.5011 41.1416 56.6554 40.9943 56.8428 40.8539C57.029 40.7028 57.1871 40.5874 57.3172 40.5074C57.458 40.4262 57.5754 40.3747 57.6694 40.3528C57.7635 40.3308 57.8311 40.3121 57.8722 40.2964C58.137 40.2649 58.357 40.3086 58.5323 40.4274C58.7063 40.5356 58.8351 40.6707 58.9188 40.8326C59.0131 40.9933 59.0666 41.1266 59.0792 41.2325C59.1311 41.3982 59.1718 41.5598 59.2013 41.7175C59.2401 41.8632 59.2484 42.0234 59.2262 42.1979C59.2045 42.2864 59.1601 42.4098 59.093 42.5682C59.0258 42.7266 58.9435 42.8921 58.8459 43.0648C58.7576 43.2257 58.6449 43.3626 58.508 43.4756C58.424 43.5823 58.3089 43.698 58.1626 43.8228C58.0163 43.9476 57.8588 44.0684 57.69 44.1851C57.5306 44.29 57.374 44.3731 57.2202 44.4343ZM60.5551 44.2957C60.3619 44.2971 60.1961 44.2578 60.0577 44.1776C59.9286 44.0855 59.8256 43.942 59.7487 43.747C59.7273 43.567 59.729 43.4003 59.7537 43.2469C59.7878 43.0818 59.8119 42.9231 59.826 42.7711C59.85 42.5212 59.8952 42.2687 59.9616 42.0138C60.0279 41.7588 60.0837 41.5051 60.1289 41.2527C60.1748 41.0969 60.2108 40.9476 60.2368 40.8048C60.2628 40.6621 60.2888 40.5194 60.3148 40.3766C60.3476 40.2009 60.381 40.0304 60.4151 39.8652C60.4492 39.7 60.4832 39.5348 60.5173 39.3697C60.5433 39.2269 60.5581 39.0802 60.5616 38.9294C60.5758 38.7773 60.5846 38.6259 60.5882 38.475C60.6896 38.3341 60.8104 38.266 60.9506 38.2708C61.1014 38.2744 61.296 38.3748 61.5342 38.572C61.6023 38.6928 61.6426 38.8062 61.6552 38.9121C61.6666 39.0075 61.6521 39.1112 61.6117 39.2234C61.5807 39.3238 61.5394 39.4737 61.4879 39.6732C61.447 39.8714 61.4009 40.0703 61.3494 40.2697C61.3072 40.4574 61.2759 40.6007 61.2555 40.6998C61.2482 40.8189 61.2126 41.0164 61.1487 41.2926C61.0955 41.5674 61.0382 41.8535 60.9769 42.1509C60.9143 42.4376 60.8719 42.6682 60.8496 42.8427C60.805 43.0092 60.7756 43.1684 60.7614 43.3205C60.7473 43.4725 60.7376 43.6617 60.7322 43.8879C60.7647 43.9807 60.7583 44.062 60.7129 44.1319C60.6768 44.1899 60.6242 44.2445 60.5551 44.2957Z" fill="#365863"/>
<defs>
<filter id="filter0_f_4001_760" x="5.45207" y="22.6688" width="97.7645" height="36.8615" filterUnits="userSpaceOnUse" color-interpolation-filters="sRGB">
<feFlood flood-opacity="0" result="BackgroundImageFix"/>
<feBlend mode="normal" in="SourceGraphic" in2="BackgroundImageFix" result="shape"/>
<feGaussianBlur stdDeviation="1.5" result="effect1_foregroundBlur_4001_760"/>
</filter>
<linearGradient id="paint0_linear_4001_760" x1="6.88802" y1="42.5145" x2="90.831" y2="29.4118" gradientUnits="userSpaceOnUse">
<stop stop-color="#868261" stop-opacity="0.5"/>
<stop offset="1" stop-color="#868261" stop-opacity="0"/>
</linearGradient>
</defs>
</svg>
