<svg width="595" height="846" viewBox="0 0 595 846" fill="none" xmlns="http://www.w3.org/2000/svg">
<path d="M497.669 657.486C502.752 653.185 507.444 648.884 507.835 641.649C508.031 638.13 508.422 634.806 508.813 631.287C509.008 628.941 508.813 626.595 508.813 624.053C512.528 624.64 515.851 626.008 519.175 627.768C525.432 630.896 530.124 635.393 534.816 640.281C535.207 640.867 535.794 641.454 535.989 642.04C538.531 648.688 539.313 655.531 538.336 662.57C536.381 678.602 532.275 693.852 525.236 708.32C516.633 726.308 503.338 740.189 485.742 749.378C474.207 755.439 462.085 756.026 449.767 752.116C445.075 750.551 440.774 748.205 437.45 744.491C436.863 743.904 436.277 743.317 435.69 742.926C430.607 739.016 428.261 733.933 428.261 727.676C428.261 723.766 428.652 719.856 429.434 716.141C430.216 712.035 432.366 708.32 435.495 705.192C439.209 701.282 443.706 698.544 448.594 696.198C453.678 693.852 458.956 694.243 464.235 695.807C465.604 696.198 466.973 697.176 468.146 698.349C468.537 698.74 468.732 699.913 468.537 700.5C468.146 702.259 466.582 703.432 464.235 703.237C461.889 703.041 459.347 702.846 457.001 702.064C452.895 700.891 449.376 701.673 445.857 703.823C439.796 707.538 435.495 712.817 432.953 719.269C431.389 723.375 431.389 727.481 433.539 731.391C437.254 738.234 442.338 743.513 449.963 745.468C452.504 746.055 455.242 746.25 457.783 746.055C460.521 746.055 463.062 745.468 465.604 745.077C472.838 743.904 478.899 740.189 483.787 734.91C491.608 726.699 496.886 717.118 499.037 705.974C501.383 693.657 503.143 681.339 505.294 669.022C505.685 666.871 505.88 664.916 506.076 662.765C505.88 662.57 505.685 662.57 505.489 662.374C505.098 662.961 504.316 663.352 504.12 663.938C502.556 666.48 500.992 668.631 497.864 669.413C497.082 669.608 496.3 670.39 495.713 671.172C493.563 673.323 491.021 674.692 488.284 675.083C478.703 676.451 469.905 674.301 462.867 667.262C462.085 666.48 461.303 665.502 460.912 664.525C459.739 661.396 458.565 658.268 457.783 654.945C457.001 652.012 456.024 649.079 456.024 646.342C456.219 641.649 454.46 637.348 454.655 632.656C454.851 629.723 455.242 626.986 455.437 624.053C455.633 622.489 455.437 620.925 455.437 619.556C455.437 617.601 455.633 615.646 455.828 613.886C456.024 612.127 456.415 610.367 455.046 608.803C454.655 609.194 454.46 609.585 454.264 609.976C453.287 616.819 450.354 623.076 448.594 629.723C446.248 638.521 443.315 646.928 439.405 655.14C439.014 656.118 438.427 657.291 438.232 658.268C437.841 661.201 436.081 663.352 434.126 665.307C432.366 666.871 430.411 668.631 428.652 670.195C426.696 671.954 424.35 672.932 421.809 672.932C418.68 672.932 415.357 673.127 412.228 672.932C410.273 672.736 408.122 672.15 406.558 670.977C401.279 667.458 397.369 662.57 396.392 655.922C396.001 653.185 395.023 650.252 394.632 647.515C394.241 645.364 394.241 643.018 394.045 640.867C393.85 639.694 393.654 638.717 393.459 637.544C393.459 637.348 393.068 636.957 393.068 636.762C394.241 633.633 391.895 631.092 392.09 628.159C392.09 625.226 391.895 622.489 391.699 619.556C391.504 617.601 391.308 615.646 391.113 613.495C388.375 614.473 388.18 616.623 387.789 618.579C386.42 627.768 384.465 636.957 381.923 645.755C380.75 649.666 379.186 653.38 378.013 657.291C376.058 664.134 371.561 669.022 366.087 673.323C365.109 674.105 363.741 674.692 362.372 674.887C359.635 675.474 356.897 675.669 354.16 676.06C345.167 676.842 339.888 671.954 336.564 664.134C336.368 663.938 336.368 663.547 336.368 663.352C336.759 660.028 335.195 657.486 334.218 654.554C331.676 647.124 330.112 639.303 328.939 631.483C326.984 619.752 325.615 608.021 324.051 596.29C322.878 587.101 321.118 577.911 318.381 568.918C318.381 568.722 317.99 568.331 317.99 568.136C317.99 566.963 318.185 565.79 317.794 565.007C315.644 561.097 313.689 557.187 310.951 553.863C308.801 551.126 305.672 549.366 302.935 547.216C301.371 546.042 299.416 545.456 299.025 543.305C300.198 542.132 301.567 542.328 302.935 542.523C309.387 544.087 315.839 545.651 322.291 547.216C324.051 547.607 325.615 548.584 327.179 549.562C330.894 551.908 334.609 554.45 338.128 556.991C339.497 557.969 340.083 559.924 341.452 560.511C343.407 561.293 343.602 563.052 344.58 564.421C344.971 565.008 345.167 565.594 345.558 565.985C347.122 568.527 348.686 571.068 347.904 574.392C351.228 574.783 352.401 576.934 353.183 579.671C354.16 583.581 355.333 587.296 356.311 591.207C356.702 592.771 357.484 594.335 356.702 595.899C356.506 596.29 356.702 597.268 357.093 597.659C358.462 599.223 358.462 600.982 358.853 602.742C359.244 604.893 359.83 607.043 360.221 609.389C361.981 619.165 363.545 629.137 365.305 638.912C365.696 641.65 366.478 644.582 368.042 647.124C369.606 646.342 369.997 644.973 370.584 643.605C371.757 640.281 373.125 636.957 374.298 633.438C376.645 626.986 378.991 620.534 381.141 614.082C384.074 604.893 387.007 595.508 389.157 586.123C390.331 580.844 389.744 575.174 390.135 569.7C390.135 569.309 389.94 569.113 389.94 568.722C388.766 564.421 387.789 559.924 386.616 555.623C386.029 553.081 385.052 550.735 384.074 548.389C383.097 546.042 381.532 544.283 379.186 543.11C378.013 542.523 377.036 541.741 376.254 540.959C375.08 539.786 375.08 538.613 376.449 537.635C377.427 537.049 378.6 536.462 379.773 536.267C392.09 534.507 403.43 537.049 413.597 544.283C416.53 546.238 417.898 549.366 419.071 552.69C420.44 556.405 421.613 560.315 422.786 564.03C423.177 565.399 423.373 566.767 423.373 568.331C423.373 570.677 423.764 572.828 424.741 574.783C426.501 578.889 426.892 583.386 427.087 588.078C427.283 592.575 427.674 597.268 427.674 601.764C427.674 605.479 427.479 608.998 427.87 612.713C428.456 617.21 428.847 621.707 429.238 626.204C429.434 627.768 429.238 629.528 429.238 631.092C429.238 633.438 429.434 635.589 430.411 637.739C431.975 637.348 432.366 635.98 432.757 634.806C438.232 621.316 443.511 607.825 447.03 593.748C449.963 582.017 454.264 570.482 459.152 559.338C459.543 558.36 459.934 557.187 460.521 556.209C461.694 553.668 461.889 551.321 460.325 548.975C460.13 548.584 459.934 547.998 459.739 547.607C458.956 543.305 457.001 539.591 454.655 535.876C453.091 533.53 455.242 529.815 458.565 529.424C460.325 529.228 462.28 529.228 464.04 529.619C473.816 531.965 482.223 537.049 489.261 544.087C492.585 547.411 494.345 551.517 495.322 556.014C496.691 562.661 497.082 569.309 496.886 576.152C496.495 582.408 496.3 588.665 495.909 594.921C495.713 597.659 494.931 600.2 494.736 602.742C494.149 610.172 493.367 617.601 493.172 625.031C492.781 633.438 493.758 641.845 494.931 650.057C494.345 652.989 495.127 655.336 497.669 657.486Z" fill="white" fill-opacity="0.15"/>
<path d="M568.836 477.417C570.791 477.221 571.769 476.048 572.551 474.875C573.529 473.311 574.115 471.551 574.897 469.792C581.74 453.368 587.215 436.358 590.538 418.958C592.689 407.618 594.058 396.082 592.885 384.547C592.298 378.877 591.516 373.402 587.41 368.906C589.952 366.168 592.689 364.8 596.404 365.191C601.292 365.973 605.984 367.146 610.09 370.079C611.85 371.447 613.805 372.816 615.564 373.989C621.625 378.095 625.536 384.156 628.273 390.803C629.837 394.714 630.228 398.819 629.837 402.925C628.273 419.153 626.318 435.185 624.754 451.413C624.167 457.474 623.972 463.731 623.776 469.792C623.581 473.311 623.776 476.83 623.776 480.154C623.776 481.131 623.972 482.304 624.363 483.087C625.145 484.455 626.318 484.455 627.1 483.087C627.295 482.696 627.491 482.109 627.686 481.718C632.183 469.791 636.093 457.865 639.222 445.548C639.613 443.983 640.004 442.419 640.786 440.855C642.154 437.727 646.847 436.358 649.78 438.118C650.953 438.705 650.757 439.682 650.366 440.855C649.193 443.983 648.215 447.307 647.042 450.435C644.11 459.038 641.177 467.641 638.244 476.243C636.289 481.718 633.943 486.997 630.815 492.08C627.491 497.359 622.603 500.878 617.324 503.811C616.933 504.007 616.542 504.202 616.151 504.202C610.872 504.398 605.398 504.789 600.51 502.247C598.555 501.269 596.599 500.096 594.84 498.728C590.538 495.208 587.41 491.103 586.628 485.237C585.846 479.958 585.26 474.875 585.455 469.596C585.455 468.618 585.455 467.641 585.064 466.468C584.673 467.054 584.086 467.641 583.891 468.227C582.131 472.138 580.372 476.048 578.612 479.958C576.07 485.433 573.138 490.712 568.445 494.817C565.903 496.968 563.362 498.923 560.429 500.487C553.195 504.202 546.547 502.247 542.051 495.404C537.749 488.952 534.621 481.913 532.861 474.484C531.688 469.596 531.102 464.513 530.32 459.429C530.124 457.865 529.929 456.496 529.147 454.737C528.756 455.714 528.365 456.692 527.974 457.67C523.672 470.965 517.22 483.282 508.617 494.426C507.053 496.382 505.294 498.337 503.339 499.901C500.406 502.443 496.691 503.225 492.976 502.443C486.915 501.269 482.223 498.141 479.095 492.862C477.922 490.712 476.749 488.561 475.771 486.41C475.38 485.824 475.184 485.042 475.184 484.455C475.38 482.891 474.989 481.718 474.011 480.545C473.425 479.958 473.425 478.785 473.62 478.003C474.011 476.243 474.598 474.484 475.38 472.724C476.749 470.183 476.162 467.836 475.575 465.295C475.38 464.904 475.184 464.317 474.989 464.317C472.643 463.731 473.229 462.166 473.816 460.798C474.989 457.474 474.793 453.955 474.598 450.435C474.402 449.067 473.425 447.698 472.643 446.33C473.034 444.766 474.011 443.006 474.011 441.246C474.011 439.487 473.229 437.727 472.838 435.967C472.643 434.208 472.447 432.448 472.838 430.884C473.425 428.147 473.425 425.41 472.643 422.672C472.252 421.695 472.252 420.522 472.056 419.349C471.665 409.964 470.297 400.775 467.95 391.781C466.973 387.675 465.018 383.765 463.453 379.854C462.867 378.681 461.889 377.508 460.716 376.726C457.393 374.576 454.069 372.425 450.549 370.274C449.963 369.883 449.376 369.492 448.399 368.906C451.136 367.928 453.287 367.733 455.633 367.928C462.476 368.319 468.928 370.274 474.989 373.207C475.966 373.598 476.944 374.38 477.726 375.162C480.854 377.704 483.787 380.441 486.915 382.787C488.479 383.96 489.653 385.133 489.848 387.284C490.044 389.435 491.021 390.803 493.563 390.412C493.954 391.976 494.54 393.345 494.931 394.714C495.127 395.105 495.322 395.496 495.714 395.887C497.278 397.06 497.669 398.428 496.887 400.188C496.3 401.361 496.887 401.948 497.473 402.925C499.624 405.271 499.428 405.271 497.864 408.204C497.473 408.791 497.473 409.964 497.864 410.355C498.255 410.941 499.233 410.941 500.21 411.332C499.819 412.31 500.015 413.483 500.797 414.852C502.361 417.784 502.752 421.304 502.361 424.627C502.166 425.996 502.361 427.169 503.534 428.147C505.294 429.906 505.294 430.297 503.143 431.862C502.752 432.253 502.361 432.448 501.383 433.035C502.752 433.23 503.73 433.23 504.707 433.426C506.271 435.967 502.948 435.772 502.557 437.531C503.534 437.923 504.316 438.314 505.489 438.9C505.098 439.487 504.707 440.073 504.316 440.855C505.88 441.833 505.685 443.397 505.88 444.961C506.467 453.173 505.294 461.58 506.858 469.792C507.249 471.551 507.053 473.702 509.204 475.266C509.791 474.484 510.377 473.897 510.964 473.311C518.784 460.798 524.845 447.698 527.387 433.035C528.56 426.192 528.56 419.153 527.974 412.31C526.996 401.752 526.214 391.194 525.236 380.637C524.845 377.117 524.063 373.598 521.717 370.665C519.762 368.319 520.739 366.364 523.868 366.168C527.191 365.973 530.711 365.777 533.839 366.559C542.051 368.515 549.676 372.229 556.519 376.922C560.429 379.463 562.384 383.569 562.58 388.066C562.775 393.149 562.384 398.233 562.58 403.316C562.775 412.701 562.971 421.89 563.362 431.275C563.557 437.336 563.557 443.397 563.948 449.262C564.339 458.452 565.708 467.445 567.859 476.243C568.25 476.635 568.641 477.026 568.836 477.417ZM478.508 402.143C475.966 401.948 474.793 402.534 474.598 403.707C474.402 404.685 475.38 405.858 476.357 405.858C477.531 405.858 478.313 404.685 478.508 402.143ZM471.47 392.172C472.447 392.563 473.034 392.758 473.62 392.954C474.207 393.149 474.793 393.345 475.575 393.541C475.966 392.172 476.162 391.194 474.989 390.412C474.011 390.021 472.447 390.803 471.47 392.172Z" fill="white" fill-opacity="0.15"/>
<path d="M215.149 408.204C214.758 409.182 214.171 410.159 213.78 411.137C211.238 417.589 208.306 423.845 204.982 429.906C198.921 440.66 194.229 452 189.927 463.34C186.213 473.506 182.498 483.673 178.783 493.84C177.805 496.577 176.437 499.119 174.091 500.879C169.203 504.593 163.533 503.42 160.796 497.75C159.818 495.6 159.231 493.253 158.84 491.103C156.69 479.567 155.712 467.836 155.126 456.106C154.344 442.028 153.757 427.951 151.411 414.07C150.238 406.836 148.674 399.602 145.936 392.759C144.177 388.653 142.026 384.742 138.898 381.419C134.401 376.726 128.927 373.598 122.279 373.012C120.715 372.816 118.955 372.621 117.978 370.665C122.083 368.515 126.385 367.342 130.882 366.951C140.853 365.973 150.042 367.928 158.449 373.403C161.187 375.162 163.728 377.117 165.683 380.05C166.074 380.637 166.661 381.223 167.052 381.614C172.917 387.675 176.437 394.909 178.392 402.925C180.738 412.506 182.498 422.281 183.28 432.253C183.671 436.554 184.062 441.051 183.866 445.352C183.671 447.307 184.062 449.067 184.062 451.022C184.257 451.022 184.453 451.218 184.648 451.218C185.039 450.631 185.626 450.24 185.821 449.654C194.424 431.08 203.418 412.701 210.456 393.541C213.194 385.916 216.713 378.681 219.646 371.252C220.232 369.883 220.623 368.515 221.21 367.146C222.383 364.409 223.165 361.672 221.796 358.739C225.316 357.175 228.639 357.37 231.963 358.348C234.7 359.325 237.242 360.499 239.784 361.867C244.867 364.604 249.168 368.319 253.274 372.425C255.425 374.576 256.989 376.922 257.185 380.246C257.185 381.223 257.576 382.201 257.771 383.178C258.749 385.72 258.944 388.262 258.162 390.999C256.207 398.82 254.056 406.64 252.297 414.461C249.168 429.124 246.236 443.593 243.498 458.256C242.716 461.971 242.716 465.881 242.13 469.792C242.13 470.574 242.13 471.356 241.739 471.942C239.979 474.679 240.566 478.003 239.784 481.132C239.588 481.914 239.393 482.891 239.588 483.478C239.979 485.237 239.979 486.801 239.393 488.561C239.197 488.952 239.197 489.539 239.197 490.125C239.393 492.667 240.957 493.449 243.107 492.276L243.303 492.08C248.191 487.388 253.274 482.5 254.838 475.462C255.229 473.897 255.034 472.333 255.229 470.378C255.816 470.378 256.403 470.183 256.989 470.183C259.14 470.965 261.681 471.356 263.637 472.529C267.547 474.875 271.457 477.417 274.976 480.349C279.082 483.673 280.06 488.561 280.451 493.644C280.842 498.728 280.06 503.811 278.496 508.699C273.412 524.731 267.938 540.764 259.531 555.623C251.906 569.113 241.543 580.062 228.248 588.274C222.578 591.793 216.322 593.748 209.674 593.944C202.049 594.139 195.011 591.989 188.95 587.101C188.168 586.514 187.581 585.732 186.995 584.755C183.28 578.107 181.911 570.873 184.648 563.639C190.905 547.216 202.636 536.658 219.255 531.574C220.819 530.988 222.578 530.988 224.338 530.792C224.925 530.792 225.902 531.379 226.098 531.965C226.293 532.552 225.707 533.53 225.12 533.921C223.165 535.094 221.014 536.071 218.864 537.244C216.908 538.222 214.953 539.395 212.998 540.568C203.613 545.456 197.552 553.277 193.447 562.661C192.273 565.399 191.296 568.527 190.905 571.46C189.732 578.498 194.229 583.19 201.267 582.995C207.524 582.799 213.194 580.844 218.473 577.912C220.037 576.934 221.601 575.565 222.774 574.197C226.88 568.918 230.986 563.639 234.7 558.165C239.002 551.713 241.152 544.478 242.716 537.049C244.867 525.905 247.213 514.565 249.364 503.42C249.95 500.879 250.146 498.141 250.537 495.404C248.582 495.209 247.995 496.773 247.213 497.555C244.281 501.27 240.37 503.42 235.873 504.398C231.963 505.375 228.444 504.593 225.12 502.247C221.601 499.901 219.255 496.577 217.299 493.058C213.78 486.41 212.412 479.176 212.216 471.747C211.825 451.804 212.998 432.057 214.758 412.31C214.953 410.941 215.149 409.768 215.344 408.4C215.54 408.4 215.344 408.4 215.149 408.204Z" fill="white" fill-opacity="0.15"/>
<path d="M262.855 193.919C264.028 193.528 264.615 193.137 265.397 193.137C267.547 193.333 269.698 193.333 271.653 194.115C275.759 195.484 279.865 197.243 283.971 199.003C290.814 202.131 295.506 207.41 298.439 214.057C301.372 220.509 303.131 227.353 304.109 234.391C304.5 237.128 304.891 239.866 305.868 242.798C306.064 242.016 306.455 241.43 306.65 240.648C308.215 235.76 309.779 230.676 311.343 225.788C314.276 216.599 319.163 208.583 324.638 200.762C327.18 197.048 330.308 194.115 333.827 191.378C341.843 185.121 353.379 183.948 361.395 189.032C363.154 190.009 364.718 191.182 365.501 193.333C365.892 194.31 367.26 195.288 368.433 195.875C374.885 198.807 377.818 204.086 378.991 210.538C379.187 211.125 379.187 211.711 379.382 212.298C382.119 218.75 381.924 225.397 381.337 232.24C381.337 233.414 381.142 234.587 380.946 236.346C383.488 235.564 385.639 234.782 387.789 234.196C389.94 233.609 391.895 233.805 393.459 235.955C391.504 237.91 389.353 238.888 386.812 239.866C384.661 240.648 382.51 241.625 380.36 242.603C379.187 243.189 378.6 244.167 378.405 245.535C377.622 252.574 375.081 259.026 373.126 265.674C371.562 271.343 369.411 276.818 367.456 282.097C365.305 287.962 362.568 293.828 358.266 298.716C356.311 300.866 354.943 303.408 352.988 305.559C348.1 310.642 342.625 314.357 335.587 315.725C335 315.921 334.414 315.921 334.023 316.117C331.09 318.658 327.375 318.463 323.856 318.854C322.683 319.049 321.314 318.658 320.141 318.072C317.99 317.094 315.84 316.116 313.884 314.748C313.102 314.357 312.516 313.379 312.125 312.402C311.147 309.469 311.147 306.341 311.734 303.212C313.493 293.828 317.599 285.421 322.878 277.404C328.353 269.193 335 262.154 343.016 256.68C345.558 254.92 347.122 252.77 347.904 249.837C349.859 241.625 352.01 233.609 353.965 225.397C356.116 216.795 355.138 208.388 352.597 199.98C351.423 196.266 349.468 195.093 345.558 195.875C340.279 197.048 335.978 199.394 332.849 204.086C328.548 210.147 325.42 216.404 322.487 223.247C316.622 236.346 313.102 250.032 310.17 263.914C309.583 267.042 308.997 270.366 308.019 273.494C305.673 280.924 305.673 288.353 306.064 295.978C306.259 301.062 306.846 305.95 307.041 311.033C307.237 316.703 307.041 322.568 307.237 328.238C307.628 342.316 307.824 356.197 308.41 370.274C308.997 387.089 311.343 403.512 317.599 419.153C318.381 421.108 319.163 422.868 319.75 425.018C320.336 426.778 320.923 428.733 320.923 430.688C320.923 434.794 322.292 438.314 325.224 440.855C329.135 444.179 333.436 447.112 337.737 450.24C338.519 450.827 339.497 451.413 340.475 452C338.91 455.128 337.542 455.91 334.609 455.128C333.436 454.737 332.263 454.541 331.09 453.955C324.051 451.022 316.817 448.285 309.779 445.352C308.019 444.57 306.455 443.201 305.282 441.833C302.349 439.096 300.003 435.772 296.875 433.23C295.311 431.862 294.724 430.297 293.942 428.733C292.573 425.605 290.814 422.477 289.445 419.349C288.859 417.98 288.663 416.22 288.272 414.656C288.076 414.07 288.076 413.483 287.685 412.897C287.099 411.528 286.121 410.159 285.535 408.595C282.602 399.21 281.038 389.435 279.669 379.854C278.105 367.928 277.714 355.806 277.519 343.684C277.323 331.562 277.128 319.636 276.932 307.514C276.737 297.347 276.346 286.985 276.15 276.818C276.15 275.645 275.955 274.667 275.759 273.494C275.563 271.539 275.172 269.388 275.172 267.433C275.172 257.853 275.368 248.468 274.977 238.888C274.586 231.067 273.804 223.442 272.826 215.622C272.044 209.17 269.307 203.304 266.374 197.439C266.179 196.657 264.615 195.679 262.855 193.919ZM343.994 264.109C343.016 264.891 342.625 265.087 342.234 265.283C338.91 268.802 335.391 272.126 332.263 275.645C328.157 280.142 325.615 285.616 323.465 291.286C322.487 293.828 322.878 296.565 324.051 299.107C324.833 300.866 326.202 301.062 327.375 299.693C327.962 299.107 328.548 298.325 328.939 297.543C329.917 295.783 330.699 294.023 331.676 292.459C335.978 284.443 340.084 276.231 343.016 267.629C343.407 266.651 343.603 265.674 343.994 264.109Z" fill="white" fill-opacity="0.15"/>
<path d="M579.394 327.847C578.416 327.065 577.83 326.283 577.048 325.892C575.679 325.11 574.31 324.524 574.701 322.568C574.701 322.373 574.701 322.177 574.506 321.982C572.16 320.418 573.137 318.267 573.333 316.116C575.679 299.498 576.461 282.683 576.657 266.065C577.048 248.077 577.048 230.285 577.048 212.298C577.048 211.125 577.048 210.147 577.048 208.974C576.852 208.779 576.657 208.779 576.461 208.583C575.874 209.17 575.092 209.561 574.506 210.147C570.009 215.231 566.294 220.901 563.166 226.961C556.127 240.257 552.608 254.725 548.502 269.193C547.916 271.148 548.111 273.299 548.111 275.254C548.502 282.683 549.284 290.113 549.675 297.543C550.066 305.754 550.262 313.966 550.653 321.982C550.653 323.546 550.653 324.915 548.698 325.11C548.502 325.11 548.111 325.306 547.916 325.501C545.179 329.411 541.268 327.847 537.749 327.652C536.967 327.652 536.38 327.065 535.598 327.261C532.47 327.847 529.928 326.283 527.191 325.11C526.214 324.719 525.823 323.937 525.432 322.96C522.694 317.681 524.454 312.206 524.258 306.732C523.867 298.129 524.454 289.331 524.063 280.728C523.281 266.26 521.717 251.987 518.98 237.91C517.611 231.458 516.242 225.006 514.678 218.554C512.528 209.561 507.444 202.327 500.015 196.852C498.646 195.875 497.473 194.897 496.104 193.724C495.909 193.528 495.713 193.137 495.518 192.746C497.473 191.182 499.623 191.378 501.774 191.573C506.858 192.355 511.745 193.919 516.242 196.266C520.739 198.612 524.649 201.74 528.169 205.259C528.755 205.846 529.342 206.628 529.733 207.41C531.884 210.929 533.839 214.448 535.989 217.968C538.14 221.292 539.704 224.811 540.486 228.721C542.05 235.564 543.419 242.212 545.179 249.837C545.765 248.664 545.961 248.077 546.156 247.491C548.698 238.497 552.217 229.699 556.323 221.292C559.647 214.253 563.948 207.997 569.422 202.522C570.4 201.545 571.182 200.371 571.769 199.003C573.724 195.092 578.025 193.137 582.326 194.506C583.304 194.897 584.477 195.288 585.259 196.07C589.365 199.198 593.471 202.522 597.381 206.041C598.554 207.019 599.336 208.779 599.727 210.343C600.509 214.449 601.291 218.75 601.487 223.051C601.878 229.503 601.878 235.955 602.269 242.407C602.269 242.994 602.465 243.776 602.66 244.949C603.442 243.971 603.833 243.58 604.029 242.994C606.179 239.083 608.134 234.978 610.676 231.263C615.955 223.833 621.234 216.599 626.904 209.756C630.228 205.65 635.116 203.109 639.612 200.176C641.763 198.807 643.718 197.634 645.869 196.461C646.651 196.07 647.824 195.875 648.802 195.484C649.584 195.288 650.17 195.288 650.952 195.092C652.321 194.701 653.494 193.724 655.058 194.506C657.209 195.484 658.968 196.657 660.337 198.612C662.488 201.74 664.638 204.868 666.789 207.997C668.549 210.343 669.722 213.08 669.331 216.013C668.744 220.314 668.158 224.811 666.985 228.917C661.706 246.904 656.036 264.696 650.757 282.683C648.02 291.482 646.26 300.475 646.064 309.86C646.064 311.033 645.673 312.011 645.673 313.184C645.673 314.748 645.478 316.312 647.042 317.681C647.824 316.703 648.606 315.725 649.388 314.748C655.645 306.145 660.533 296.565 665.42 287.18C666.594 284.834 667.767 282.488 670.113 280.728C670.895 281.315 671.872 281.706 672.655 282.292C675.001 284.052 675.392 285.421 674.414 288.158C674.219 288.549 674.023 289.135 673.828 289.526C669.331 299.693 664.247 309.469 657.013 317.876C654.276 321.2 651.734 324.719 648.802 327.652C646.455 329.998 643.523 331.562 640.59 333.126C637.657 334.69 635.507 333.517 633.356 332.149C631.987 331.367 630.814 330.389 629.446 329.607C625.926 327.652 623.971 324.524 623.189 320.613C623.189 320.418 623.189 320.418 623.189 320.222C620.647 317.29 621.038 313.575 621.038 310.055C621.038 306.536 621.234 302.821 621.43 299.302C621.625 294.414 622.994 289.722 623.776 284.834C624.753 279.555 625.731 274.081 627.295 268.997C632.183 253.552 637.266 238.106 642.154 222.66C643.523 218.163 644.696 213.666 645.869 208.974C646.064 207.801 645.869 206.628 645.869 205.259C644.891 205.455 644.5 205.455 643.914 205.65C639.417 207.801 635.311 210.343 632.183 214.253C623.58 224.615 615.369 235.369 609.308 247.491C608.134 249.837 606.961 252.183 605.788 254.725C604.029 258.439 603.051 262.154 602.856 266.456C602.66 279.36 601.682 292.459 600.9 305.363C600.509 310.642 600.118 315.725 599.727 321.004C599.532 322.568 598.945 323.937 598.359 325.306C596.795 328.238 595.622 328.629 592.298 328.043C590.734 327.847 589.17 327.847 587.605 327.847C587.41 327.847 587.214 328.043 587.019 328.043C584.477 329.803 584.282 329.998 582.131 328.043C581.349 327.065 580.567 327.261 579.394 327.847Z" fill="white" fill-opacity="0.15"/>
<path d="M197.161 154.816C200.875 152.275 203.417 149.342 205.372 146.018C210.847 137.416 216.321 129.008 220.036 119.428C221.991 114.54 225.119 112.585 230.203 112.781C230.007 113.758 230.007 114.931 229.616 115.909C227.466 120.406 225.51 124.707 223.164 129.204C221.209 132.919 218.863 136.243 217.299 140.153C216.321 142.695 214.757 145.041 212.997 147.191C209.283 152.47 205.568 157.749 201.266 162.637C193.641 171.631 182.106 170.653 174.676 164.201C172.526 162.246 171.353 159.509 171.353 156.576C171.353 155.794 171.157 155.012 170.766 154.23C167.638 148.364 166.66 141.912 166.465 135.265C166.074 125.88 167.051 116.691 168.615 107.502C169.006 104.765 169.593 102.027 169.593 99.2901C169.202 99.8766 168.811 100.463 168.615 101.245C164.314 111.412 160.013 121.774 155.516 131.941C154.147 135.265 152.388 138.393 151.019 141.717C150.433 143.086 149.65 144.454 149.259 146.018C147.695 151.688 144.567 156.772 141.243 161.464C139.875 163.419 138.115 164.983 135.769 165.765C135.182 165.961 134.596 166.156 134.205 166.547C131.859 168.894 128.926 168.894 125.798 168.503C122.474 168.111 119.15 167.329 116.608 164.788C115.631 164.006 115.435 162.246 115.044 161.073C114.458 158.922 114.262 156.576 113.48 154.621C110.352 148.169 109.374 141.13 108.983 134.092C107.81 115.909 106.051 97.726 103.9 79.7386C103.509 75.8283 102.727 72.1135 102.14 68.2032C102.14 67.8121 102.14 67.6166 101.945 67.2256C99.5985 61.1646 97.2524 55.2992 94.7107 49.4337C93.3421 46.1099 90.6048 43.7638 87.6721 41.8086C86.3035 40.831 84.7394 39.8534 83.5663 38.6804C82.9798 38.2893 82.5887 37.5073 81.8067 36.7252C82.5887 36.3342 83.1753 35.9432 83.7618 35.9432C86.499 35.5521 89.2362 34.9656 91.9735 34.9656C99.2075 34.9656 106.246 35.7476 112.698 39.0714C116.999 41.222 120.323 44.5458 123.06 48.4561C131.272 59.796 135.573 72.5045 138.115 85.995C139.679 94.0112 141.048 101.832 142.221 109.848C143.198 116.495 143.589 122.947 144.176 129.595C144.176 130.377 144.567 131.355 145.349 132.332C145.74 131.55 146.327 130.964 146.718 130.182C154.929 114.54 162.359 98.7035 167.442 81.6937C170.18 72.5045 174.09 63.7063 177.414 54.7126C178 53.344 178.196 52.1709 178 50.6068C177.805 47.4786 178.782 44.5458 180.737 42.0041C184.257 37.3117 189.145 35.3566 195.01 36.3342C200.289 37.1162 205.372 38.4849 210.26 40.831C214.562 42.7862 217.299 46.3055 217.885 50.9978C218.081 53.1485 217.885 55.2992 217.299 57.4498C215.148 66.248 214.757 75.4372 212.02 84.2354C210.26 89.7099 209.283 95.5753 207.914 101.245C206.154 109.457 204.395 117.669 202.831 125.685C202.44 127.64 202.635 129.79 202.049 131.746C200.875 136.438 199.311 141.13 197.943 145.823C197.161 148.364 196.77 150.711 196.183 153.252C196.183 153.448 196.77 154.034 197.161 154.816Z" fill="white" fill-opacity="0.15"/>
<path d="M333.045 151.688C334.218 149.733 335.586 147.778 336.759 145.823C341.843 136.633 346.144 127.249 349.859 117.473C351.228 113.758 353.574 111.412 357.484 110.825C359.83 110.434 360.612 111.216 360.026 113.563C359.83 114.54 359.439 115.322 359.048 116.104C353.769 127.249 348.686 138.393 343.016 149.342C340.279 154.621 337.737 159.9 334.022 164.592C333.631 165.179 333.24 165.961 332.654 166.156C328.157 168.307 323.66 171.044 318.185 170.653C315.253 170.458 312.32 169.676 309.778 167.916C308.019 166.547 306.65 165.374 306.259 162.832C306.063 160.877 304.695 159.118 304.108 157.163C303.326 153.643 302.74 149.928 301.958 146.409C301.567 144.454 300.98 142.499 302.349 140.544C302.544 140.348 302.544 139.957 302.544 139.566C301.762 132.919 303.913 126.467 304.304 119.819C304.499 117.473 304.499 115.127 304.695 112.781C304.695 112.194 304.304 111.607 304.108 110.434C303.326 111.216 302.935 111.412 302.74 111.998C299.22 119.233 295.701 126.271 292.573 133.701C289.836 139.762 287.294 146.018 284.948 152.47C283.384 156.576 281.233 160.291 278.887 163.81C278.3 164.592 277.518 165.57 276.736 165.961C273.217 167.525 269.698 169.48 265.983 170.458C261.29 171.826 257.185 170.067 254.252 165.961C250.342 160.682 248.191 154.621 247.213 148.169C247.018 147.191 247.213 145.823 247.8 145.041C248.777 143.672 248.973 142.303 248.777 140.739C247.8 130.572 247.018 120.601 246.04 110.434C245.454 104.178 244.476 97.9214 243.694 91.6649C243.499 90.1008 242.717 88.5367 242.326 86.9725C242.13 86.5815 241.739 86.1905 241.739 85.7995C242.326 80.325 239.979 75.2416 239.002 69.9627C238.024 64.6838 236.656 59.6004 235.287 54.517C234.896 53.3439 234.505 52.1708 233.723 51.1933C230.595 47.283 228.248 42.9816 224.143 40.2444C223.947 40.0489 223.752 39.8534 223.556 39.4623C225.316 38.2892 227.271 38.4847 229.226 38.6803C236.46 39.2668 243.499 40.4399 250.146 43.1771C253.861 44.7412 257.185 47.0874 258.749 50.9977C259.14 51.7798 259.726 52.5619 260.313 53.1484C264.223 57.2542 267.156 61.7511 268.525 67.421C269.502 71.1358 270.675 74.6551 271.848 78.1743C272.044 78.7609 272.239 79.5429 272.63 80.1295C274.977 83.8443 276.15 88.1456 276.932 92.447C278.3 100.268 279.864 107.893 281.038 115.713C281.624 119.037 281.624 122.361 282.015 125.685C282.211 127.64 282.602 129.399 283.384 131.55C283.97 130.572 284.752 129.79 285.143 128.617C290.031 117.864 295.115 107.111 299.807 96.1618C306.846 80.325 313.493 64.2928 320.336 48.2605C320.923 46.8919 321.314 45.5233 321.509 44.1547C321.705 42.3951 322.291 41.4175 324.051 41.4175C328.157 41.222 332.263 41.222 336.173 43.1771C340.474 45.3278 344.775 47.4785 348.49 50.6067C349.468 51.3888 350.445 52.3663 351.228 53.5394C353.378 56.2766 353.769 59.0139 352.01 62.3376C350.641 64.8793 350.25 67.812 349.468 70.5493C347.317 78.9564 345.167 87.3636 343.211 95.7707C341.452 103.2 339.692 110.63 337.932 118.059C337.15 120.992 336.759 123.729 336.759 126.858C336.759 129.008 336.173 130.963 335.782 133.114C335.782 133.505 335.586 133.701 335.586 133.896C334.609 139.371 333.436 144.65 332.458 150.124C332.458 150.515 332.458 151.102 332.458 151.688C332.458 151.493 332.849 151.493 333.045 151.688Z" fill="white" fill-opacity="0.15"/>
<path d="M235.091 314.943C236.069 313.575 236.655 312.793 237.046 312.011C239.783 306.732 242.521 301.453 245.258 296.174C249.168 288.94 251.71 281.119 253.665 273.103C254.056 271.93 254.056 270.561 254.252 269.193C256.793 267.824 257.966 267.824 259.921 269.584C262.463 271.93 263.441 274.863 262.463 278.382C260.704 284.052 257.575 288.94 255.034 294.219C252.687 299.107 250.341 303.799 247.799 308.491C245.258 312.988 242.521 317.485 239.979 321.982C239.783 322.373 239.392 322.569 239.392 322.96C237.828 327.847 234.309 331.171 231.181 335.081C226.684 340.36 218.472 338.21 215.735 334.495C215.148 333.517 214.366 332.735 213.975 331.562C210.456 324.133 207.914 316.508 207.328 308.1C206.741 297.347 207.914 286.594 209.479 276.036C211.825 260.395 215.735 245.144 220.427 230.09C222.774 222.66 225.511 215.231 228.052 207.801C228.835 205.65 229.421 203.304 230.008 200.958C228.444 200.762 227.857 201.74 227.27 202.327C223.36 206.628 220.036 211.125 217.104 216.208C215.148 219.532 213.193 222.856 211.043 226.179C208.305 230.481 206.155 235.173 204.786 240.061C204.004 242.994 202.635 245.731 201.462 248.664C198.725 256.289 195.988 263.914 193.642 271.539C191.882 277.013 191.882 282.879 192.273 288.549C192.86 296.565 193.446 304.581 193.642 312.793C193.837 316.899 193.446 321.004 193.446 325.11C193.446 327.065 193.642 329.216 193.837 331.171C194.033 332.931 193.446 334.104 191.687 334.886C191.296 335.082 190.905 335.277 190.709 335.473C184.453 340.165 177.805 339.774 170.962 337.623C167.443 336.45 165.879 334.69 165.683 330.976C165.488 328.434 165.488 325.892 165.488 323.351C165.488 315.139 165.488 306.732 165.488 298.52C165.488 298.129 165.488 297.934 165.488 297.543C163.923 289.917 164.51 282.292 163.923 274.667C163.141 267.042 162.75 259.417 161.968 251.792C160.795 240.257 159.231 228.917 155.321 217.968C154.93 216.795 153.952 215.817 153.366 214.644C152.779 213.862 152.193 213.08 151.802 212.102C150.433 209.17 149.26 206.237 147.891 203.109C150.824 202.718 153.366 203.304 155.907 204.477C160.991 206.823 166.074 209.17 170.571 212.689C174.286 215.622 177.414 218.75 179.369 223.051C179.565 223.442 179.76 223.833 180.151 224.029C183.084 226.571 184.453 229.894 185.43 233.414C187.581 240.843 189.536 248.273 189.927 255.898C189.927 256.68 190.318 257.462 190.514 258.831C191.1 257.462 191.491 256.875 191.687 256.093C195.792 242.798 201.462 230.09 207.914 217.772C211.825 210.343 216.322 203.5 221.796 197.243C224.729 193.919 228.052 191.182 231.376 188.25C233.136 186.685 235.287 185.903 237.633 187.272C238.024 187.467 238.415 187.663 238.806 187.467C241.934 186.685 244.085 188.641 246.235 190.4C250.537 193.919 254.056 197.83 255.62 203.304C256.598 206.237 256.793 208.974 255.816 211.907C252.687 221.487 249.364 230.872 246.626 240.452C243.889 249.837 241.739 259.222 239.588 268.606C237.046 278.969 235.678 289.526 234.896 300.084C234.504 304.19 234.896 308.296 234.896 312.402C234.309 313.184 234.7 313.77 235.091 314.943Z" fill="white" fill-opacity="0.15"/>
<path d="M82.5894 370.274C87.2817 366.364 91.9741 364.213 98.0351 365.386C108.006 367.537 115.436 373.403 121.301 381.419C124.234 385.524 124.43 390.021 123.257 394.518C122.474 398.037 121.497 401.361 118.564 403.903C116.609 405.663 115.631 408.4 113.872 410.55C112.503 412.115 110.744 413.483 109.179 414.852C108.397 415.634 107.42 416.22 106.638 417.002C104.683 418.762 102.532 420.326 100.577 422.086C99.7947 422.672 99.4037 423.454 98.6216 424.041C96.4709 426.192 94.3203 428.342 92.1696 430.493C91.5831 431.08 90.9965 431.666 90.41 432.253C89.4324 433.426 88.8459 434.599 87.6728 435.576C86.4997 436.554 86.1086 437.727 86.6952 439.096C87.0862 440.073 87.4772 441.246 88.0638 442.224C93.1472 453.368 99.2082 463.926 106.247 473.897C107.42 475.461 108.788 476.83 110.353 478.003C111.917 479.176 113.285 478.785 114.263 477.221C115.24 475.461 116.022 473.702 116.414 471.747C118.564 462.558 120.519 453.173 122.474 443.788C122.67 442.81 122.866 441.833 123.061 440.855C123.648 438.314 123.452 435.772 121.497 433.621C120.91 433.035 120.91 432.253 120.519 431.471C121.106 431.08 121.497 430.884 121.888 430.884C125.407 431.275 128.731 432.253 131.273 434.794C132.641 436.163 133.228 437.923 133.032 439.878C132.641 443.397 132.446 446.916 131.664 450.436C129.318 461.775 125.407 472.529 119.737 482.5C117.196 486.801 114.458 491.103 110.744 494.426C108.788 496.186 106.442 497.946 104.096 499.119C99.2082 501.661 94.1248 501.661 89.0414 499.119C81.8073 495.404 75.7463 490.321 71.2495 483.478C68.5123 479.372 65.9706 475.266 63.2334 471.16C62.4513 469.987 61.6692 468.814 60.8872 467.445C58.541 463.926 57.9544 463.731 55.4127 466.859C50.7204 472.333 46.419 478.199 42.7042 484.455C38.9895 490.712 36.2522 497.555 35.0792 504.789C34.6881 507.135 34.4926 509.481 34.8836 511.827C35.6657 518.279 40.7491 521.212 47.0056 519.648C54.0441 517.888 59.5186 513.978 64.7975 509.286C64.993 509.09 65.1885 509.09 65.1885 508.895C65.9706 508.113 66.9481 507.33 68.1212 508.113C69.2943 508.895 68.7078 510.068 68.3167 510.85C67.5347 513.196 66.5571 515.347 65.5795 517.693C64.2109 520.626 62.8423 523.558 61.6692 526.686C60.1051 530.597 56.9769 532.747 53.2621 533.53C41.3356 535.876 31.7554 531.379 23.7393 522.972C19.4379 518.67 19.0469 513 20.0245 507.135C21.002 499.901 23.9348 493.449 26.8675 486.801C32.3419 474.679 40.3581 464.317 49.3518 454.737C52.48 451.413 53.0666 448.676 50.9159 444.766C48.7652 440.855 47.2011 436.554 45.637 432.448C45.2459 431.275 45.2459 430.102 45.0504 428.538C44.4639 427.756 43.6818 426.778 43.0953 425.41C39.967 416.807 37.0343 408.204 33.9061 399.797C32.1464 395.105 30.1913 390.803 27.2585 386.698C25.4989 384.351 23.7393 382.201 21.5886 380.246C17.4828 376.531 12.7904 375.749 7.51149 377.117C3.7967 378.095 3.01464 377.899 0.668457 373.989C1.45052 372.229 3.40567 372.034 4.96979 371.447C16.1142 367.733 26.8675 369.297 37.2298 373.989C52.2845 380.832 63.6244 391.585 71.2495 406.445C72.6181 409.182 74.1822 412.115 75.7463 414.852C76.1374 415.634 76.9194 416.611 77.506 417.589C78.288 416.807 78.8746 416.22 79.2656 415.634C85.5221 406.445 91.192 396.864 95.1023 386.307C95.6889 384.547 96.2754 382.787 96.471 381.028C97.0575 378.29 95.8844 376.531 93.3427 375.358C90.9965 374.185 88.6503 373.207 86.3042 372.034C84.9355 371.838 83.958 371.056 82.5894 370.274Z" fill="white" fill-opacity="0.15"/>
<path d="M433.54 58.8184C427.674 62.5332 415.748 81.6937 414.77 89.1233C416.334 89.1233 417.898 89.3188 419.462 89.3188C422.786 89.3188 426.305 89.3188 429.434 90.6874C437.059 94.0111 443.706 98.508 447.812 106.133C450.94 111.999 452.505 118.451 450.745 125.098C449.963 127.835 450.745 130.573 450.549 133.31C450.354 139.762 450.549 146.409 449.376 152.861C448.985 154.816 448.985 156.772 448.985 158.727C448.985 159.9 449.376 161.268 450.745 161.268C451.527 161.464 452.896 160.877 453.287 160.291C454.655 158.531 456.024 156.772 456.806 154.621C459.543 147.582 460.912 140.153 460.325 132.332C460.325 131.746 460.325 131.159 460.325 130.377C463.453 129.595 465.995 130.964 468.146 132.723C468.732 133.31 468.928 134.678 468.928 135.656C468.537 140.739 468.146 145.823 467.364 150.906C465.409 162.246 457.979 169.48 447.812 173.977C446.053 174.759 443.511 174.954 441.556 174.563C428.456 172.608 420.636 165.179 418.289 152.666C416.725 144.454 416.53 136.242 416.725 128.031C416.921 121.97 416.725 115.909 416.334 110.043C416.139 107.306 415.161 104.764 413.401 102.809C411.446 100.659 410.078 100.854 408.905 103.591C407.145 107.502 405.776 111.412 406.754 115.713C406.949 116.495 406.754 117.473 406.754 118.451C406.558 121.383 406.363 124.316 406.167 127.249C405.581 134.874 404.994 142.303 404.603 149.929C404.603 150.711 404.603 151.493 404.799 152.275C405.776 157.749 402.844 161.855 399.52 165.765C399.324 165.961 398.933 166.156 398.738 166.156C395.61 166.547 392.677 167.525 389.549 167.329C386.811 167.329 384.074 166.352 381.532 165.374C380.75 164.983 380.164 163.81 379.773 162.833C378.991 160.682 378.209 158.336 377.622 156.185C377.231 154.816 377.036 153.448 377.036 151.884C377.036 138.198 377.036 124.707 377.036 111.021C377.036 105.938 376.84 101.05 376.84 95.9663C377.036 83.0623 375.276 70.3538 373.516 57.4498C373.125 54.126 372.343 50.9978 371.757 47.8695C370.975 44.3502 369.02 42.0041 365.5 41.0265C363.35 40.4399 362.959 40.0489 361.394 38.0938C366.673 35.5521 372.148 33.7924 378.209 35.3566C384.465 36.9207 390.331 38.6803 395.61 42.7861C399.129 45.3278 400.693 49.0426 401.671 52.7574C402.062 54.7126 403.235 56.4722 403.626 58.4274C404.212 61.5556 404.994 64.8794 405.581 68.0076C406.167 71.3314 406.558 74.8506 407.145 78.7609C407.732 77.9789 408.318 77.5879 408.514 77.0013C409.1 76.2193 409.491 75.2417 409.882 74.2641C415.161 62.9242 423.177 53.9305 433.149 46.6964C435.104 45.3278 437.059 43.7637 439.209 42.5906C441.751 40.831 444.097 39.0713 445.466 36.1386C446.248 34.1834 448.203 33.5969 450.158 33.7924C452.113 33.9879 454.069 34.379 455.828 34.9655C459.543 36.3341 463.453 37.7027 466.973 39.4624C469.514 40.831 472.056 42.5906 474.207 44.3503C476.357 46.1099 476.748 48.6516 475.38 51.1933C474.793 52.1709 474.011 53.344 473.229 54.126C469.71 58.0363 466.386 62.1421 462.671 65.6614C459.934 68.3986 456.61 70.3538 452.505 71.1359C451.527 71.3314 450.549 71.9179 449.767 72.3089C445.857 74.6551 441.947 74.2641 438.232 71.9179C437.059 71.1358 435.886 69.5717 435.495 68.0076C434.908 65.6614 434.713 62.9242 434.322 60.3825C433.735 60.3825 433.54 59.796 433.54 58.8184Z" fill="white" fill-opacity="0.15"/>
<path d="M444.488 457.474C449.181 459.038 451.331 461.58 451.527 466.272C451.722 469.792 451.331 473.311 449.572 476.439C448.008 479.567 446.444 482.696 444.684 485.628C438.427 496.577 428.847 502.834 416.53 504.789C412.619 505.375 408.905 504.789 405.385 503.225C402.648 502.052 399.911 500.879 397.369 499.314C396.001 498.532 394.632 496.968 393.85 495.6C389.94 489.148 388.375 482.109 388.18 474.484C388.18 472.333 387.593 470.183 387.593 468.032C387.593 465.295 387.984 462.558 388.375 459.82C388.962 455.128 389.744 450.436 390.331 445.939C390.331 445.548 390.331 445.157 390.331 444.766C388.767 443.984 387.398 444.961 386.42 445.548C383.488 447.307 380.359 448.676 376.84 449.263C371.366 450.24 366.087 449.263 361.003 446.916C359.83 446.33 358.657 445.157 357.68 444.179C356.702 443.202 356.115 442.224 355.138 440.855C355.724 440.66 356.311 440.66 357.289 440.269C355.724 437.923 354.16 435.772 352.792 433.426C351.423 431.08 350.25 428.538 348.881 425.801C350.641 425.41 351.032 424.628 350.837 423.259C349.859 418.958 349.272 414.656 348.49 410.355C348.49 409.964 348.099 409.182 348.49 408.986C349.663 407.618 349.468 406.249 348.49 404.685C348.295 404.49 348.295 404.294 348.295 404.099C349.859 400.579 346.34 398.624 346.34 395.496C345.362 395.691 344.58 395.887 343.798 396.082C343.602 395.3 343.211 394.518 343.211 393.736C342.038 385.329 337.15 379.855 329.33 376.922C327.961 376.335 326.397 376.335 324.833 375.944C323.269 375.553 321.705 375.358 319.554 374.771C321.9 371.643 324.442 370.274 327.57 369.883C334.609 369.297 341.452 370.47 347.904 373.598C349.272 374.38 350.446 375.162 352.01 375.749C353.965 376.726 355.138 378.095 355.92 380.246C356.115 381.028 356.702 382.005 357.289 382.592C358.071 383.374 358.266 383.96 358.266 385.329C357.875 387.284 359.048 388.066 361.003 387.871C361.394 387.871 361.785 387.871 361.981 388.066C362.763 388.457 363.545 388.848 364.132 389.239C364.523 389.435 365.109 389.63 365.305 390.021C365.696 390.999 366.478 391.586 367.455 391.977C367.846 392.172 368.042 393.345 368.237 393.932C366.869 394.127 365.891 394.323 364.523 394.518C365.5 396.082 366.673 396.473 368.042 396.278C369.997 396.082 370.779 397.06 371.366 398.624C372.148 400.775 373.321 402.73 374.103 404.685C374.689 406.445 374.689 408.204 375.08 409.768C375.862 410.16 376.645 410.551 377.622 410.942C376.645 411.724 375.862 412.31 375.08 413.092C375.667 413.483 375.862 413.679 376.058 413.679C378.6 414.265 378.6 414.265 378.795 416.612C379.186 421.499 380.164 426.387 383.292 430.493C385.052 432.839 386.616 433.23 388.962 431.666C390.135 430.884 391.308 429.711 392.286 428.538C393.459 426.778 394.827 425.019 395.61 423.064C399.52 413.874 404.212 405.076 407.731 395.496C410.273 388.262 413.792 381.419 416.921 374.38C417.312 373.403 418.094 372.425 418.68 371.643C419.071 371.056 419.462 370.47 419.462 369.688C419.462 368.319 419.462 366.951 420.831 366.169C422.395 365.191 423.764 364.018 425.914 364.213C427.674 364.409 429.434 364.409 431.389 364.604C431.193 366.56 432.171 367.537 433.539 368.515C438.427 372.034 442.142 376.726 445.27 381.81C447.03 384.547 447.617 387.48 447.812 390.608C448.008 392.172 447.421 393.541 446.052 394.323C442.533 396.473 440.969 399.993 439.209 403.512C435.104 412.506 432.366 422.086 428.847 431.275C427.87 433.817 427.479 436.554 426.892 439.291C425.523 445.939 423.764 452.586 422.786 459.429C422.004 464.708 421.222 469.987 421.418 475.266C421.613 479.567 422.786 483.673 423.959 487.779C424.546 490.125 426.305 490.516 428.261 488.952C430.216 487.388 432.171 485.628 433.539 483.478C435.69 480.154 437.645 476.439 439.405 472.724C440.969 469.205 442.142 465.686 443.511 462.167C443.511 461.384 443.902 459.429 444.488 457.474Z" fill="white" fill-opacity="0.15"/>
<path d="M468.341 196.657C470.296 194.115 472.251 191.573 474.206 189.032C476.553 186.294 477.726 186.099 480.267 188.445C481.44 189.618 482.809 190.4 484.373 190.791C484.764 190.791 485.155 190.987 485.546 191.182C490.043 194.702 494.931 197.83 497.473 203.304C498.059 204.673 497.668 205.846 496.886 207.019C495.322 209.365 493.758 211.711 492.194 213.862C484.96 224.224 480.072 235.369 478.312 247.882C478.117 249.446 477.726 250.814 477.726 252.379C477.335 254.92 475.575 256.484 473.033 256.289C472.056 256.289 471.078 256.093 470.296 256.484C465.408 258.635 462.084 255.898 458.761 253.161C457.979 252.574 457.588 251.792 456.61 250.814C456.415 251.597 456.415 252.183 456.219 252.965C454.655 252.183 453.286 251.205 451.527 250.228C451.918 234.782 456.219 220.119 462.867 206.041C463.062 205.455 463.453 204.868 463.649 204.282C463.649 204.282 463.649 204.086 463.844 203.5C462.867 203.5 461.889 203.109 461.107 203.304C455.632 204.673 450.549 206.824 446.248 210.343C443.902 212.102 442.142 214.449 440.382 216.795C433.539 225.984 430.02 236.542 428.26 247.686C427.087 255.702 425.914 263.914 426.305 272.126C426.696 278.773 427.283 285.421 428.456 291.873C429.433 298.129 432.757 303.604 437.254 308.1C440.382 311.229 443.706 314.357 447.225 317.29C451.722 321.2 456.61 321.004 460.911 317.094C466.19 312.206 469.905 306.145 471.86 299.302C473.033 294.805 474.011 290.309 474.988 285.812C475.184 284.639 475.38 283.661 475.771 282.488C476.553 280.142 478.117 278.382 480.658 277.796C482.809 277.209 483.787 277.991 483.396 280.337C482.418 285.03 481.44 289.722 480.072 294.414C479.094 297.934 477.921 301.453 476.748 304.972C475.575 308.687 473.62 312.206 471.274 315.139C468.732 318.267 466.386 321.395 463.649 324.328C456.023 331.758 446.639 334.104 436.276 332.54C428.847 331.367 422.395 328.434 416.529 323.546C413.597 321.2 411.446 317.876 408.513 315.53C405.581 313.184 403.821 309.665 402.452 306.145C400.888 302.626 399.715 298.911 398.346 295.196C397.955 294.219 397.564 293.046 397.369 292.068C397.173 291.482 396.782 290.7 397.173 290.309C398.542 288.549 397.564 287.18 396.782 285.421C396.196 284.443 396.391 283.074 396.196 281.901C395.805 276.622 395.805 271.148 394.827 266.065C393.85 260.59 394.241 255.311 395.609 250.032C396.196 247.882 397.173 246.122 397.76 243.971C398.542 241.625 400.302 239.475 398.738 236.933C398.542 236.542 398.738 235.955 398.933 235.564C399.715 233.414 400.497 231.263 401.279 229.308C401.475 228.917 401.475 228.33 401.866 228.33C404.994 226.766 405.776 223.442 407.34 220.901C415.552 206.628 426.696 196.461 443.902 193.92C451.722 192.746 459.152 192.746 466.386 195.875C466.777 196.266 467.559 196.461 468.341 196.657ZM428.847 201.936C425.523 202.131 417.507 208.779 416.529 212.298C420.831 208.779 424.937 205.259 428.847 201.936Z" fill="white" fill-opacity="0.15"/>
<path d="M546.743 560.12C544.592 560.12 542.832 560.12 541.268 560.12C530.515 560.511 521.717 556.796 515.069 548.193C512.723 545.065 510.377 541.937 508.031 538.809C507.835 538.417 507.64 537.831 507.249 537.244C508.813 536.267 510.572 536.462 511.941 536.853C520.544 539.2 528.951 538.418 537.553 537.049C542.441 536.267 547.525 535.68 552.413 536.462C558.083 537.44 562.384 540.568 565.317 545.456C567.858 549.757 569.031 554.45 570.204 559.338C570.986 562.466 571.769 565.399 572.551 568.527C572.942 570.873 573.333 573.415 573.528 575.761C574.115 581.04 574.506 586.123 574.897 591.402C574.897 592.184 575.092 592.966 575.874 593.748C576.461 592.771 577.048 591.989 577.634 591.011C581.349 584.95 586.041 579.671 591.907 575.565C599.336 570.286 605.006 570.287 612.436 575.37C617.91 579.085 621.82 583.973 625.34 589.447C626.317 591.011 626.904 592.771 627.295 594.53C628.859 603.72 629.837 612.909 628.077 622.294C626.708 629.332 624.362 635.784 619.67 641.454C618.888 642.432 618.301 643.409 617.715 644.582C614.586 650.252 610.676 655.14 605.984 659.441C603.051 662.179 600.118 664.916 597.186 667.458C593.862 670.39 590.343 672.932 586.041 674.301C583.304 675.278 580.762 675.669 577.83 675.278C576.265 675.083 574.506 674.887 572.942 674.692C572.355 674.692 571.769 674.496 571.378 674.692C569.227 677.038 567.663 675.278 566.294 673.91C565.121 672.541 563.752 671.759 562.188 670.977C561.015 670.39 559.842 669.217 558.865 668.435C557.887 667.653 556.909 666.675 555.932 665.698C555.736 665.502 555.15 665.111 555.15 664.916C552.804 658.464 550.066 652.207 548.307 645.56C545.179 634.024 544.787 622.098 545.178 610.172C545.57 600.005 546.352 590.034 546.743 579.867C546.938 576.152 547.329 572.242 546.156 568.527C545.765 567.549 545.961 566.376 546.156 565.203C546.352 564.03 546.547 562.27 546.743 560.12ZM576.656 626.204C576.656 629.528 576.852 632.851 577.243 636.371C577.83 643.996 580.176 651.23 583.695 657.877C585.259 660.81 589.169 661.201 591.32 658.855C592.102 657.877 592.884 656.9 593.471 655.922C596.599 650.839 598.359 645.169 599.336 639.303C601.096 627.377 602.66 615.451 604.224 603.524C604.811 599.027 605.202 594.53 605.788 590.229C606.179 587.101 605.788 583.973 604.42 581.04C602.855 578.107 600.705 576.934 597.577 578.107C595.817 578.694 594.057 579.671 592.493 581.04C585.064 587.101 580.176 595.117 576.852 604.111C576.265 605.87 575.874 607.825 575.874 609.781C575.874 614.082 576.265 618.579 576.461 622.88C576.852 623.858 576.656 625.031 576.656 626.204Z" fill="white" fill-opacity="0.15"/>
<path d="M58.7364 280.728C56.5857 282.488 58.1499 284.247 58.1499 285.812C58.1499 287.571 58.5409 289.526 58.7364 291.286C58.9319 293.046 60.105 294.61 59.1274 296.565C58.7364 295.978 58.3454 295.587 58.1499 295.001C57.3678 290.699 56.3902 286.398 55.8037 282.097C55.6082 281.315 56.3902 280.337 56.9768 279.555C57.5633 278.773 59.1274 278.382 58.5409 277.013C57.7588 275.449 56.5857 276.818 55.6082 276.427C55.6082 276.427 55.4126 276.427 55.0216 276.036C55.2171 274.081 55.4126 271.93 55.6082 269.779C56.3902 269.779 56.9768 269.975 57.7588 269.975C58.1499 266.26 58.5409 266.456 55.6082 265.478C55.2171 262.35 55.0216 259.026 57.5633 256.289C57.3678 259.026 57.1723 261.763 56.7812 264.305C56.9768 264.305 57.1723 264.5 57.5633 264.5C57.9543 263.914 58.5409 263.523 58.5409 262.936C58.7364 255.898 60.496 249.055 61.8646 242.016C61.8646 241.625 61.8646 241.234 61.6691 240.452C59.3229 242.994 60.105 246.904 57.3678 248.664C57.1723 248.664 56.9768 248.468 56.5857 248.468C57.1723 246.318 57.7588 243.971 58.5409 241.821C60.3005 237.324 62.6467 232.827 64.2108 228.33C65.5794 224.42 67.7301 221.292 70.4673 218.163C76.1373 211.516 82.1982 205.259 89.0413 199.785C91.583 197.634 94.3202 196.07 97.6439 195.093C100.381 194.31 102.727 192.746 105.465 191.573C107.029 190.987 108.397 190.4 109.961 190.009C111.526 189.618 113.285 189.423 114.654 188.836C117.587 187.858 120.324 188.249 123.256 189.227C128.34 190.791 130.099 194.701 131.859 199.003C132.641 200.762 133.619 202.522 134.792 204.086C136.551 206.237 136.747 207.801 135.183 209.952C134.596 210.929 134.01 211.907 133.619 212.689C134.596 215.035 135.574 217.186 136.747 219.336C137.725 221.096 139.484 222.465 140.462 224.224C142.417 227.744 144.372 231.263 144.959 235.369C145.154 237.128 145.936 238.692 146.327 240.452C147.305 243.189 147.5 245.731 147.5 248.664C147.305 251.987 147.5 255.507 147.5 258.83C147.5 260.395 147.109 261.763 146.914 263.327C146.523 266.456 146.132 269.584 145.936 272.712C145.741 275.449 145.545 277.991 144.763 280.533C143.786 283.074 143.981 286.007 143.199 288.549C141.048 296.956 138.898 305.559 134.205 312.793C130.882 318.072 126.58 322.568 122.474 327.261C120.715 329.216 118.173 330.389 115.631 331.171C112.308 332.149 108.984 333.126 105.66 334.104C100.381 335.668 95.1022 334.886 90.0188 332.931C81.4162 329.607 74.7687 323.546 68.9032 316.507C69.0987 316.116 69.2942 315.921 69.4897 315.725C69.6853 315.53 69.6853 315.334 69.8808 315.334C69.8808 315.139 69.8808 315.139 69.8808 314.943C62.8422 305.95 61.6691 294.805 58.9319 284.247C58.3454 283.465 58.7364 282.292 58.7364 280.728ZM116.218 217.772C114.849 218.554 113.676 219.141 112.503 219.727C110.743 220.901 108.788 221.878 107.224 223.442C104.878 225.788 102.727 228.526 100.577 231.067C96.4708 236.151 93.1471 241.821 90.6054 247.882C87.8682 254.529 87.0861 261.763 84.7399 268.411C84.5444 268.802 84.7399 269.193 84.7399 269.584C84.9354 272.517 84.9354 275.449 85.131 278.382C85.522 283.27 84.3489 288.353 87.2816 292.655C87.4771 292.85 87.4771 293.046 87.4771 293.241C88.2592 298.325 90.2144 303.017 92.5605 307.709C95.4933 313.575 99.9901 317.876 105.465 321.395C108.788 323.351 110.939 323.155 113.872 320.613C114.458 320.027 115.045 319.44 115.631 318.854C119.542 314.552 122.083 309.469 124.038 303.995C128.731 291.091 130.491 277.6 132.837 264.305C134.01 257.266 133.032 250.032 132.446 242.994C132.055 238.888 131.077 234.782 129.708 230.676C127.753 224.615 122.865 221.292 117.587 218.163C117.195 217.968 116.609 217.968 116.218 217.772ZM61.2781 276.036C61.2781 273.885 61.2781 272.321 61.2781 270.757C60.3005 272.517 60.496 274.081 61.2781 276.036ZM62.2557 286.594C62.0602 286.594 62.0602 286.594 61.8646 286.594C61.8646 286.985 61.8646 287.571 61.8646 287.962C62.0602 288.549 62.2557 289.135 62.4512 289.526C62.6467 289.526 62.8422 289.526 63.0377 289.331C62.6467 288.549 62.4512 287.571 62.2557 286.594Z" fill="white" fill-opacity="0.15"/>
<path d="M582.13 769.712C583.108 768.93 584.281 767.952 585.454 766.975C586.236 767.952 586.627 768.93 587.409 769.126C588.191 769.517 589.169 769.126 590.146 768.93C592.297 768.539 594.448 767.757 596.794 768.539C596.598 768.93 596.403 769.517 596.207 769.908C597.967 770.299 599.727 770.69 601.486 771.276C603.05 771.863 604.615 773.036 606.57 772.254C605.592 771.472 604.615 770.885 603.442 770.103C603.442 769.908 603.442 769.712 603.637 769.517C604.81 769.517 605.983 769.321 607.156 769.517C613.022 770.494 613.022 770.494 618.692 768.344C616.737 767.17 614.781 766.975 612.631 766.975C610.676 766.975 608.72 767.952 606.57 766.388C607.547 765.997 608.329 765.411 609.307 765.215C611.653 764.824 614.195 764.629 616.541 764.433C619.669 764.042 620.451 763.456 620.842 760.327C621.233 757.199 621.429 754.266 621.82 751.138C621.82 750.747 621.82 750.161 621.624 749.77C620.647 748.401 620.842 747.032 621.624 745.859C620.06 744.295 619.474 742.34 619.278 740.189C619.278 739.016 619.083 737.843 618.692 736.865C615.955 730.413 613.413 723.766 609.502 717.705C606.374 713.013 602.659 709.689 596.598 709.689C594.252 709.689 591.711 709.102 589.364 708.711C584.281 707.929 580.175 709.493 577.047 713.795C576.069 715.359 574.896 716.727 573.919 718.292C571.768 721.224 570.399 724.353 570.008 727.872C569.813 729.24 569.617 730.609 569.226 731.978C568.053 735.692 565.512 737.452 561.601 737.061C559.842 736.866 558.082 736.67 556.518 736.279C553.781 735.692 553.194 735.106 553.781 732.173C554.563 728.849 555.149 725.33 556.518 722.202C563.165 708.516 574.114 700.891 589.364 700.304C596.012 700.109 602.659 699.913 609.111 701.477C612.826 702.455 616.346 703.628 619.865 704.997C621.038 705.388 621.82 706.756 622.993 707.734C624.362 706.952 625.535 707.734 626.317 709.298C627.099 710.666 627.294 712.035 627.881 713.795C628.663 713.599 629.641 713.404 630.618 713.013C632.378 715.554 635.897 716.336 636.875 720.051C636.484 720.442 635.897 720.833 635.506 721.224C636.288 722.788 636.288 722.788 639.221 722.397C639.221 724.744 640.785 726.308 642.349 727.872C643.718 729.24 644.109 731 643.327 732.955C644.109 733.151 644.891 733.346 645.673 733.542C645.673 734.324 645.673 735.106 645.673 735.888C645.673 737.061 645.868 738.039 647.237 738.43C647.628 738.43 648.215 738.821 648.41 739.212C649.583 741.753 650.561 744.491 651.734 747.032C652.125 747.814 652.125 748.596 652.516 749.379C653.884 751.92 654.667 754.462 654.667 757.199C654.862 760.327 654.667 763.26 654.862 766.388C655.058 769.321 655.449 772.058 655.449 774.991C655.058 781.638 654.667 788.482 653.102 795.129C649.779 808.815 642.74 820.155 632.573 829.735C622.993 838.533 611.653 843.226 598.945 844.399C595.816 844.79 592.688 844.79 589.364 844.985C585.259 845.181 581.348 844.399 577.829 842.835C569.031 838.924 561.992 833.059 556.713 825.043C555.54 823.283 554.563 821.328 553.976 819.178C552.999 816.245 553.781 813.508 556.322 811.552C557.691 810.575 559.06 809.402 560.624 808.815C563.752 807.251 565.903 808.033 567.662 810.966C568.64 812.53 569.422 814.485 570.204 816.245C571.377 818.591 572.355 820.937 573.723 823.088C576.265 827.389 580.175 829.54 585.063 829.931C599.922 831.299 608.525 823.87 613.804 812.921C616.541 807.056 617.91 800.995 618.692 794.543C619.083 792.196 619.278 789.655 619.669 787.308C620.06 784.18 619.669 783.203 616.932 782.03C611.262 779.683 605.397 778.119 599.14 777.533C589.364 776.555 579.784 776.555 570.204 778.51C568.249 778.901 566.098 778.901 564.338 777.728C562.97 776.946 562.774 775.969 563.752 774.796C564.338 774.013 565.316 773.231 566.098 772.84C569.422 771.472 572.746 770.103 576.069 769.126C577.633 769.321 579.784 769.712 582.13 769.712Z" fill="white" fill-opacity="0.15"/>
<path d="M331.285 0.945881C333.631 1.53243 334.609 3.09655 334.609 4.85619C334.609 7.00686 334.413 9.35304 333.435 11.3082C326.592 26.3629 315.253 36.1386 298.829 39.6579C287.685 42.0041 277.323 39.2669 267.938 33.0104C267.547 32.8149 267.156 32.6194 266.96 32.2283C266.765 29.6866 264.614 29.4911 262.854 28.7091C260.899 27.927 259.14 26.5584 257.576 25.1898C255.425 23.2346 253.079 21.866 250.146 21.2795C249.755 21.2795 249.364 20.8885 248.777 20.6929C253.079 15.2185 255.816 8.96201 261.29 4.46516C265.983 0.359342 270.871 -0.618217 276.541 2.31451C276.932 2.51003 277.323 2.70552 277.714 2.90103C282.21 3.6831 284.948 7.20239 288.076 10.1351C288.662 10.7217 289.249 11.5037 290.031 12.0903C296.483 16.3916 303.522 19.7153 311.538 19.5198C314.862 19.5198 317.794 18.5423 320.336 16.1961C324.833 11.8947 328.939 7.20237 331.285 0.945881Z" fill="white" fill-opacity="0.15"/>
<path d="M61.8647 304.777C61.0827 302.821 60.4961 300.866 59.7141 299.107C59.9096 299.107 60.1051 298.911 60.3006 298.911C61.8647 300.475 62.2557 302.626 62.6468 304.581C62.4513 304.581 62.2557 304.777 61.8647 304.777Z" fill="white" fill-opacity="0.15"/>
</svg>
