<svg width="569" height="688" viewBox="0 0 569 688" fill="none" xmlns="http://www.w3.org/2000/svg">
<path d="M368.421 474.748C368.014 474.487 367.439 474.262 367.366 473.928C366.484 471.493 365.304 469.299 363.956 467.141C363.439 466.378 363.351 465.171 362.928 464.037C361.344 465.609 359.892 466.978 358.308 468.55C356.725 470.122 355.272 471.49 353.689 473.062C352.403 474.394 351.154 475.893 349.832 477.058C348.212 478.463 347.575 480.354 347.511 482.47C347.744 489.951 347.978 497.433 347.709 505.023C347.498 512.076 347.956 518.983 347.578 526.072C347.2 533.162 347.157 540.178 346.408 547.173C345.429 556.321 343.911 565.411 342.765 574.595C341.922 581.961 339.966 589.045 337.806 595.998C337.582 596.572 337.561 597.277 337.503 597.816C337.351 598.725 337.403 599.764 336.917 600.746C334.711 605.082 334.193 609.925 332.729 614.449C330.779 619.955 328.421 625.199 326.1 630.611C324.192 634.706 321.229 637.981 317.989 640.791C315.178 643.157 312.09 645.058 309.002 646.959C307.142 648.066 304.895 648.206 302.706 647.809C300.517 647.411 298.329 647.014 296.14 646.616C293.987 646.386 292.823 645.063 292.384 643.057C290.866 636.908 290.183 630.576 289.834 624.171C289.278 613.607 289.594 603.028 290.616 592.469C291.077 588.165 291.538 583.86 292.573 579.78C296.648 561.548 302.242 543.86 310.062 526.736C312.158 521.899 314.829 517.287 317.5 512.675C319.685 509.044 320.59 505.168 320.549 500.973C320.25 485.974 320.118 470.938 319.986 455.902C320.034 452.914 319.878 449.795 319.925 446.807C319.91 445.934 319.691 444.931 319.675 444.058C319.508 444.095 319.305 443.964 319.137 444.001C318.913 444.576 318.651 444.983 318.594 445.521C316.673 458.378 314.381 471.14 313.704 484.075C313.499 489.55 312.385 494.874 309.139 499.261C305.633 504.056 301.405 507.958 295.663 509.738C288.62 511.977 281.986 508.872 279.245 501.939C278.582 500.507 278.718 498.726 276.827 498.088C276.352 495.915 275.914 493.908 275.606 491.698C275.351 490.528 275.262 489.321 274.839 488.187C273.665 484.415 272.49 480.643 271.148 476.907C270.12 473.804 268.924 470.737 267.729 467.67C267.619 467.168 267.212 466.907 267.269 466.369C267.484 463.344 266.064 460.851 265.109 458.082C264.19 455.48 263.438 452.842 262.52 450.24C262.133 449.273 261.877 448.103 261.193 447.377C259.679 445.255 259 442.951 258.619 440.407C258.473 439.738 258.291 438.902 257.847 438.473C255.277 435.531 253.972 431.963 252.165 428.504C249.273 422.479 245.748 416.768 240.827 411.888C239.255 410.304 237.385 408.961 235.683 407.581C235.239 407.153 234.664 406.928 234.22 406.499C233.296 405.475 233.745 404.326 234.916 404.07C235.417 403.961 235.919 403.851 236.493 404.076C240.26 404.479 244.027 404.882 247.699 405.657C252.819 406.64 257.358 408.977 261.411 412.295C265.501 415.781 269.126 419.543 272.024 423.99C273.685 426.78 275.513 429.534 277.508 432.251C282.845 439.843 286.286 448.376 290.191 456.631C293.966 465.09 297.072 473.696 300.179 482.301C301.061 484.736 302.314 487.265 304.105 489.851C304.649 488.331 305.135 487.349 305.251 486.273C307.156 472.544 309.061 458.815 310.762 444.955C312.066 433.284 312.999 421.519 313.969 409.921C314.105 408.14 314.409 406.322 314.749 404.671C315.993 399.144 315.53 393.815 314.027 388.538C313.954 388.204 313.713 387.906 313.64 387.571C312.575 384.301 313.265 383.449 316.697 383.926C317.774 384.041 318.756 384.527 319.868 384.809C324.152 385.975 328.472 387.309 332.379 389.958C334.62 391.396 337.122 392.426 339.363 393.863C342.659 396.121 344.022 399.151 344.026 403.179C344.155 408.581 345.121 413.8 345.417 419.166C345.838 425.905 346.26 432.645 346.383 439.625C346.721 449.185 346.854 458.615 347.154 468.009C347.097 468.547 347.243 469.216 347.389 469.884C349.098 469.686 350.216 468.391 351.24 467.467C352.729 466.265 354.015 464.933 355.3 463.602C357.945 461.272 360.714 460.317 363.842 462.611C363.973 462.407 364.271 462.167 364.271 462.167C363.091 459.973 363.415 457.449 362.606 455.349C362.256 454.55 362.037 453.546 361.353 452.82C361.259 453.191 361.165 453.562 361.107 454.1C360.903 453.969 360.7 453.839 360.7 453.839C360.554 453.17 360.575 452.465 360.429 451.796C360.267 450.255 360.941 448.531 359.442 447.282C359.239 447.151 359.463 446.576 359.594 446.373C359.563 444.628 360.034 442.773 359.501 441.138C359.005 439.67 358.88 438.296 358.719 436.755C358.573 436.086 358.63 435.548 358.855 434.973C360.649 426.348 362.407 417.556 364.034 408.968C365.148 403.644 367.652 399.068 370.359 394.623C370.62 394.216 371.216 393.735 371.681 393.458C374.341 392.002 376.593 390.283 378.568 388.1C380.282 386.324 382.55 385.479 385.167 385.432C389.028 385.465 393.056 385.46 396.88 385.325C398.625 385.295 400.072 385.504 401.498 386.419C403.535 387.725 405.442 389.235 407.348 390.746C407.996 391.305 408.513 392.068 408.863 392.867C409.599 394.633 410.205 396.603 411.108 398.333C413.447 403.427 413.409 408.865 413.408 414.471C413.329 415.715 413.083 416.994 412.634 418.144C411.285 421.591 409.9 424.872 408.347 428.189C406.925 431.302 403.916 431.96 401.147 432.915C399.679 433.411 398.274 431.791 398.41 430.01C398.598 429.268 398.823 428.693 399.178 427.915C400.47 425.005 401.761 422.096 403.015 419.019C403.653 417.128 404.124 415.273 404.595 413.419C405.123 411.026 405.818 408.597 405.976 406.11C406.112 404.329 406.175 402.213 405.476 400.614C404.98 399.146 404.724 397.976 404.73 396.398C404.464 392.777 402.929 391.361 399.366 391.089C398.828 391.031 398.122 391.01 397.548 390.785C394.936 389.254 392.428 389.802 390.139 391.353C387.553 393.144 384.836 395.139 382.897 397.489C381.517 399.192 381.193 401.715 380.795 403.904C380.324 405.759 380.057 407.744 379.79 409.729C379.235 414.405 378.346 419.154 378.496 423.85C378.735 429.754 379.141 435.621 378.915 441.801C379.453 441.859 379.787 441.786 380.289 441.676C380.325 441.843 380.566 442.141 380.602 442.308C379.953 447.355 381.55 452.261 382.777 457.073C384.792 464.691 390.213 469.462 397.48 472.254C398.832 472.834 399.93 472.244 400.99 471.486C405.27 468.625 408.662 464.906 410.925 460.032C414.835 451.47 417.596 442.459 419.077 433.202C419.474 431.013 419.705 428.861 420.066 426.505C421.243 419.065 420.508 411.694 418.938 404.505C418.098 400.659 417.425 396.777 416.752 392.895C415.881 387.305 413.839 381.971 411.166 376.949C407.698 370.7 402.292 366.801 395.768 364.198C393.469 363.299 390.909 362.807 388.48 362.112C387.368 361.829 386.182 361.212 385.033 360.763C385.205 359.148 385.895 358.297 386.993 357.707C392.312 354.793 398.054 353.013 404.213 353.945C405.122 354.096 406.031 354.248 406.809 354.604C410.774 356.715 414.906 358.79 418.609 361.31C421.905 363.567 424.773 366.269 427.64 368.971C429.212 370.554 430.69 372.508 431.965 374.332C436.435 380.362 439.808 386.982 441.583 394.302C441.656 394.636 441.933 395.101 442.544 395.493C442.941 393.305 443.375 391.283 443.773 389.094C444.453 385.792 445.17 382.658 446.388 379.414C449.347 372.111 454.708 367.787 461.678 365.213C465.246 363.908 468.867 363.642 472.518 365.122C474.242 365.796 475.93 366.303 477.486 367.014C481.268 368.29 484.601 370.715 487.897 372.973C488.101 373.103 488.304 373.234 488.304 373.234C489.333 376.337 492.671 377.185 494.426 379.604C496.013 382.06 497.899 384.275 499.82 386.658C499.857 386.825 500.061 386.956 500.264 387.087C502.009 387.056 503.499 385.855 505.097 385.155C506.696 384.455 508.201 384.127 509.867 385.339C508.728 387.34 507.515 389.006 505.138 389.35C504.469 389.496 504.004 389.773 503.372 390.086C501.977 390.917 501.716 391.324 502.415 392.923C508.514 405.604 507.502 418.612 504.95 431.782C504.003 437.069 502.518 442.298 499.883 447.078C498.482 449.486 497.009 451.559 494.276 452.682C493.774 452.792 493.142 453.105 493.048 453.476C491.553 456.255 489.061 457.675 486.234 459.169C484.17 460.145 482.179 461.456 480.152 462.599C479.055 463.189 477.848 463.278 476.531 462.865C472.284 461.866 468.037 460.867 463.79 459.868C462.95 456.023 462.146 452.345 461.343 448.666C460.685 445.657 460.864 442.465 461.58 439.331C464.765 425.847 469.988 413.671 479.916 403.794C480.512 403.314 480.904 402.702 481.333 402.259C482.19 401.371 482.545 400.592 481.882 399.161C481.182 397.562 481.115 395.65 481.048 393.738C481.147 391.789 480.338 389.689 479.602 387.922C479.033 386.12 477.832 384.631 477.263 382.828C476.234 379.725 474.015 377.582 471.795 375.44C471.147 374.88 470.034 374.598 469.162 374.613C463.687 374.408 459.298 376.768 455.535 380.393C452.63 383.13 450.78 386.687 449.504 390.469C447.873 395.03 447.187 399.909 446.836 404.716C446.411 409.187 446.154 413.623 446.268 418.152C446.439 422.144 447.52 426.287 448.062 430.373C448.406 432.75 448.75 435.127 448.927 437.541C449.485 442.499 449.876 447.493 450.433 452.451C450.934 457.947 451.434 463.444 452.137 469.07C452.68 473.156 452.924 477.482 454.637 481.312C455.336 482.91 455.404 484.823 455.769 486.494C457.246 494.054 458.889 501.578 459.53 509.321C459.597 511.233 459.832 513.108 460.067 514.984C460.207 517.23 460.348 519.477 462.123 521.191C462.567 521.62 462.917 522.419 462.896 523.124C463.089 526.41 464.545 529.07 465.704 531.97C468.169 538.438 470.502 545.11 473.468 551.469C474.831 554.499 477.16 557.144 479.155 559.861C480.429 561.684 481.907 563.639 483.48 565.222C487.439 568.911 490.589 570.501 495.485 566.453C496.248 565.936 496.77 565.121 497.329 564.473C496.094 572.451 490.754 576.07 485.927 576.424C482.474 576.653 479.02 576.882 475.703 575.329C472.788 575.616 470.662 573.102 467.841 573.018C466.969 573.033 466.081 572.176 465.433 571.617C464.174 570.666 462.915 569.715 461.62 568.597C461.416 568.466 461.213 568.335 460.972 568.037C460.215 566.977 459.777 564.97 458.868 564.819C457.755 564.536 456.439 564.123 455.551 563.266C453.979 561.683 452.109 560.34 451.764 557.962C451.728 557.795 451.618 557.294 451.451 557.33C449.451 556.191 449.347 554.112 448.945 552.272C448.579 550.601 448.084 549.132 445.895 548.735C444.782 548.452 444.046 546.686 444.459 545.37C444.741 544.257 444.355 543.291 443.969 542.324C442.152 536.415 440.299 530.338 438.315 524.466C437.929 523.499 437.375 522.569 436.989 521.602C436.749 521.305 436.639 520.803 436.733 520.432C437.246 517.167 435.883 514.137 435.059 511.164C434.636 510.03 434.547 508.823 434.422 507.449C434.005 504.737 433.922 501.953 433.338 499.278C432.717 496.436 431.761 493.667 431.177 490.992C430.504 487.11 430.5 483.082 429.529 479.44C428.412 475.13 428.001 470.84 427.255 466.624C427.181 466.29 427.145 466.123 427.072 465.788C427.162 461.389 425.878 457.115 425.43 452.659C425.32 452.157 425.174 451.489 425.435 451.081C426.988 447.764 424.92 444.713 425.433 441.448C425.229 441.317 424.894 441.39 424.691 441.259C424.299 441.87 423.572 442.555 423.384 443.296C422.877 444.984 422.704 446.598 422.364 448.249C422.018 451.477 421.673 454.706 420.047 457.689C418.908 459.689 418.547 462.045 417.611 464.177C416.414 466.715 415.253 469.421 413.853 471.829C412.619 474.201 410.978 476.311 409.337 478.421C406.557 482.532 402.408 485.19 398.15 487.347C396.587 488.214 394.712 488.448 393.076 488.981C392.742 489.054 392.408 489.127 392.037 489.033C388.364 488.259 384.692 487.484 380.983 486.543C380.423 487.191 380.068 487.969 379.247 489.024C377.921 486.161 377.097 483.188 373.628 482.545C373.497 482.748 373.069 483.192 372.473 483.673C372.436 483.506 372.196 483.208 372.363 483.171C373.335 481.207 373.095 480.909 370.609 480.752C370.374 478.876 369.398 476.812 368.421 474.748C368.959 474.806 369.497 474.864 370.203 474.885C370.193 472.435 369.289 470.705 367.681 468.954C367.988 471.164 368.186 472.873 368.421 474.748ZM319.864 521.091C319.697 521.128 319.494 520.997 319.326 521.034C319.196 521.238 319.065 521.441 318.934 521.645C307.058 546.661 297.982 572.467 295.248 600.041C294.845 603.807 293.94 607.684 293.907 611.544C293.964 616.612 294.558 621.737 295.116 626.695C295.548 630.279 296.483 633.754 297.25 637.265C297.724 639.438 298.503 639.794 300.655 640.024C302.437 640.16 303.832 639.33 305.06 638.536C308.707 635.988 310.965 632.692 312.335 628.539C314.4 621.957 315.927 615.317 315.804 608.337C315.82 603.604 316.877 598.819 317.228 594.012C317.852 585.643 318.142 577.347 318.431 569.051C318.968 553.869 319.337 538.724 319.874 523.542C320.026 522.633 319.88 521.964 319.864 521.091ZM483.854 408.189C483.484 408.095 483.28 407.964 482.945 408.037C480.745 410.795 478.211 413.626 476.251 416.682C473.544 421.127 471.04 425.703 468.871 430.206C466.701 434.708 466.517 439.478 467.577 444.327C467.723 444.995 468.24 445.758 468.611 445.852C470.094 446.229 471.411 446.642 472.936 445.608C474.462 444.574 476.024 443.707 476.699 441.983C477.932 439.612 479.203 437.407 480.102 435.109C482.386 429.53 483.187 423.574 483.821 417.655C484.37 414.557 483.88 411.511 483.854 408.189Z" fill="#B1E1FC" fill-opacity="0.15"/>
<path d="M115.129 213.382C116.356 212.588 117.156 212.239 117.919 211.722C121.174 209.784 124.466 208.014 127.758 206.244C128.855 205.654 130.323 205.158 131.53 205.069C133.573 204.798 134.801 204.004 135.162 201.648C134.122 201.7 133.119 201.919 131.745 202.044C130.936 199.944 130.33 197.974 130.749 195.08C132.582 196.256 134.175 197.134 135.805 198.18C135.607 196.471 135.315 195.134 135.19 193.76C135.989 193.41 136.658 193.264 137.457 192.914C137.536 191.67 137.615 190.427 137.824 188.98C138.733 189.132 139.438 189.153 139.977 189.21C140.05 189.545 140.086 189.712 140.123 189.879C138.947 191.713 138.883 193.828 139.322 195.835C140.966 203.358 142.442 210.918 146.223 217.8C146.849 219.064 146.974 220.438 147.507 222.074C147.674 222.037 148.045 222.131 148.379 222.058C148.714 221.985 149.011 221.745 149.142 221.541C149.069 221.207 149.2 221.003 148.996 220.872C147.168 218.119 146.641 214.905 146.486 211.786C146.507 211.081 146.324 210.245 145.974 209.446C143.687 205.391 142.701 200.877 143.256 196.201C142.644 195.809 142.164 195.214 141.553 194.822C141.684 194.618 141.61 194.284 141.61 194.284C142.431 193.229 142.713 192.116 142.792 190.872C142.782 188.422 142.736 185.805 142.726 183.355C142.805 182.111 143.051 180.831 143.333 179.719C143.783 178.569 143.135 178.01 142.189 177.691C140.591 178.391 141.677 180.956 139.299 181.301C139.321 180.595 139.211 180.094 139.436 179.519C140.231 175.141 141.23 170.894 142.062 166.684C142.308 165.404 142.219 164.197 142.298 162.953C142.507 161.506 142.716 160.059 143.093 158.576C141.573 158.032 140.904 158.178 140.157 159.568C138.437 162.921 136.754 166.442 135.238 169.926C134.527 171.483 133.816 173.039 133.272 174.56C132.692 175.913 132.483 177.36 132.143 179.01C130.826 178.597 130.774 177.558 131.093 176.612C132.761 172.219 134.261 167.862 136.133 163.6C137.387 160.523 139.42 157.802 141.73 155.545C143.183 154.177 144.505 153.012 145.31 151.085C146.282 149.12 148.237 147.642 149.747 145.736C150.567 144.681 151.315 143.291 152.135 142.236C153.123 141.145 154.074 139.886 155.302 139.092C157.424 137.577 159.582 136.23 161.943 135.014C168.36 131.51 175.178 129.845 182.596 131.728C185.767 132.611 188.938 133.495 191.79 135.324C196.272 138.199 198.559 142.253 199.822 147.233C201.377 153.549 201.522 159.824 198.809 165.847C198.678 166.05 198.584 166.421 198.62 166.588C195.927 177.512 189.75 186.919 185.092 196.871C184.867 197.445 184.439 197.889 184.01 198.333C182.928 199.796 181.606 200.96 180.728 202.553C177.89 207.202 174.128 210.827 170.365 214.452C168.615 216.061 166.901 217.836 165.187 219.612C163.64 221.351 163.378 221.759 165.154 223.473C170.759 229.08 177.147 233.465 185.406 233.587C188.933 233.693 191.796 232.366 194.164 229.572C198.208 224.835 201.067 219.48 202.704 213.342C204.869 204.811 206.293 196.092 205.767 187.274C205.736 185.529 206.076 183.878 206.27 181.558C208.636 184.37 209.126 187.415 209.413 190.331C210.069 198.946 210.02 207.54 207.818 215.903C207.593 216.478 207.572 217.183 207.515 217.721C207.043 225.182 203.828 231.314 198.817 236.438C191.365 244.022 182.346 248.445 171.302 248.405C165.529 248.44 160.227 246.621 155.599 243.077C151.619 240.093 147.937 236.869 144.385 233.441C141.444 230.405 141.496 231.444 143.106 227.589C142.939 227.626 142.568 227.532 142.401 227.568C141.936 227.845 141.821 228.921 140.97 228.231C140.729 227.933 140.583 227.265 140.51 226.93C140.668 224.444 140.323 222.066 138.678 220.149C138.438 219.851 138.459 219.146 138.349 218.644C138.094 217.474 138.094 217.474 136.093 216.334C136.072 217.039 136.051 217.745 136.197 218.414C135.993 218.283 135.622 218.189 135.586 218.022C134.813 216.088 134.077 214.322 133.472 212.353C134.59 211.057 136.392 210.488 135.285 208.628C134.951 208.701 134.747 208.57 134.617 208.774C133.775 210.535 132.103 210.9 130.504 211.6C128.106 212.649 125.985 214.163 123.863 215.678C122.039 216.952 120.42 218.357 118.632 219.799C117.143 221 116.599 222.52 117.001 224.359C117.857 229.077 117.84 233.81 118.863 238.491C119.703 242.337 119.911 246.495 120.249 250.45C120.911 257.488 121.609 264.692 122.438 271.693C122.563 273.067 122.725 274.608 122.682 276.019C122.869 280.883 122.852 285.616 123.039 290.48C123.076 290.647 123.076 290.647 123.112 290.814C121.873 294.764 122.953 298.907 122.456 303.044C122.089 306.978 122.094 311.006 121.763 315.107C121.454 318.503 121.182 322.066 120.705 325.498C120.229 328.93 119.418 332.436 118.738 335.737C118.738 335.737 118.775 335.905 118.608 335.941C115.706 342.706 114.9 350.239 112.573 357.229C112.254 358.174 111.768 359.156 111.282 360.138C111.021 360.546 110.759 360.953 110.665 361.324C110.45 364.349 108.715 366.83 107.351 369.405C105.987 371.981 104.215 374.295 102.48 376.776C101.565 378.202 101.022 379.722 99.8667 380.85C92.5244 388.935 83.6944 392.616 72.6192 390.832C70.8012 390.528 69.3752 389.614 67.9126 388.532C60.8767 383.588 57.5611 376.43 54.8047 368.624C50.7642 356.544 50.6786 344.126 52.0035 331.75C54.4862 307.034 62.8093 284.195 75.3219 262.894C78.8709 256.688 83.1981 250.838 87.191 245.061C88.5342 243.191 89.0414 241.503 88.5665 239.33C86.6671 230.636 84.7312 221.775 82.8317 213.081C82.0647 209.57 80.796 206.169 79.8617 202.695C79.7887 202.36 79.5485 202.062 79.1986 201.263C78.8221 202.747 78.6703 203.656 78.5186 204.565C77.5393 213.712 74.2039 222.499 72.6865 231.589C72.4406 232.868 71.7873 233.887 71.3377 235.036C70.0831 238.113 68.8284 241.19 67.5373 244.1C67.1818 244.878 66.8629 245.823 66.1 246.34C63.6231 248.633 61.1827 251.093 58.2253 252.79C51.9184 256.796 45.2365 256.679 38.5293 253.24C36.9361 252.362 35.3064 251.316 33.8439 250.235C32.7523 249.247 31.5876 247.925 31.1282 246.624C30.34 243.818 29.254 241.253 28.168 238.687C27.4318 236.921 26.5285 235.192 27.2239 232.763C27.7677 231.243 26.8278 229.346 25.198 228.301C24.1429 227.48 23.5894 226.55 23.5009 225.343C23.0682 221.759 22.8392 218.306 22.2393 214.758C21.8951 212.381 21.18 209.91 20.5591 207.068C19.9999 207.715 19.7386 208.123 19.1794 208.77C19.1274 207.731 18.7411 206.764 18.7256 205.892C18.7636 200.453 18.6344 195.051 20.0829 189.655C20.2712 188.913 20.1251 188.244 20.3134 187.502C20.371 186.964 20.6899 186.019 21.0243 185.946C22.1946 185.69 21.8813 185.058 21.9024 184.353C21.9235 183.647 21.8715 182.608 22.2635 181.997C23.6277 179.421 23.8427 176.396 25.0032 173.69C29.3628 163.98 35.8481 156.782 47.2478 156.043C51.7408 155.762 56.3279 155.11 60.7844 154.662C62.66 154.428 64.2743 154.6 65.9981 155.275C67.3511 155.855 68.5579 155.767 69.3419 154.544C71.7669 151.212 75.1683 149.943 79.0501 149.27C85.8472 148.311 92.435 148.798 98.3793 152.755C99.8053 153.669 100.766 154.861 101.132 156.533C102.833 163.518 104.534 170.503 106.032 177.358C107.989 185.514 109.779 193.706 111.569 201.898C112.263 205.075 112.957 208.251 113.614 211.261C114.56 211.58 114.909 212.379 115.129 213.382ZM91.0925 249.288C90.8888 249.158 90.5544 249.231 90.3507 249.1C89.6609 249.951 88.8038 250.839 88.114 251.691C84.6803 256.82 81.2465 261.949 78.2203 267.34C66.3975 287.79 58.3568 309.516 57.6401 333.496C57.4026 342.832 57.6667 352.058 60.6788 361.034C61.2844 363.004 62.428 365.031 63.0335 367.001C64.85 372.91 68.715 376.971 73.3793 380.681C75.2858 382.191 77.4747 382.589 80.0191 382.208C82.1926 381.734 84.1258 380.961 85.7457 379.556C89.414 376.302 93.1554 373.383 94.8077 368.117C97.4743 359.477 99.77 350.742 100.582 341.631C101.966 323.111 100.398 304.71 97.2529 286.304C96.0896 279.377 95.0936 272.412 93.8938 265.317C93.2996 260.192 92.1307 254.842 91.0925 249.288ZM71.4985 158.803C65.866 161.084 60.6987 163.089 55.6043 165.428C52.1088 167.068 49.5377 169.732 49.2806 174.167C49.2595 174.872 48.7369 175.687 48.5486 176.429C48.3969 177.338 48.4123 178.21 48.2606 179.119C48.2184 180.53 48.38 182.071 47.9669 183.388C47.0466 186.391 46.8316 189.416 47.1548 192.499C47.4624 194.709 47.232 196.861 47.7069 199.034C48.5104 202.713 47.8459 206.887 50.2848 210.032C50.5251 210.33 50.431 210.701 50.504 211.035C51.2711 214.546 51.9075 218.261 52.8417 221.736C54.1258 226.009 55.5406 230.08 56.9553 234.15C57.5243 235.952 58.5949 237.645 60.5014 239.155C61.024 238.341 61.7504 237.656 62.1058 236.878C63.8466 232.819 65.9948 229.022 67.3646 224.869C70.8728 214.468 72.025 203.706 72.1009 192.829C72.25 182.286 72.0646 171.817 71.9157 161.514C72.0675 160.605 71.7542 159.973 71.4985 158.803ZM161.564 168.554C160.649 169.98 159.494 171.108 159.118 172.592C158.119 176.839 157.12 181.086 156.659 185.391C156.067 189.899 155.476 194.407 156.833 199.016C157.402 200.818 158.138 202.584 157.5 204.475C157.406 204.846 157.683 205.311 157.923 205.609C158.273 206.408 158.623 207.208 158.973 208.007C159.49 208.77 159.876 209.737 160.618 209.925C161.731 210.207 162.217 209.225 162.906 208.374C163.037 208.17 163.298 207.763 163.393 207.392C165.337 203.464 167.208 199.201 169.357 195.404C175.409 184.622 177.178 172.675 178.576 160.633C179.037 156.328 178.422 151.908 178.177 147.582C178.125 146.543 177.535 145.445 177.003 143.81C175.79 145.476 174.672 146.772 173.888 147.994C172.581 150.031 171.515 152.366 170.041 154.44C168.212 157.292 166.55 160.107 163.425 161.841C165.159 164.966 161.371 165.268 160.77 167.326C160.879 167.827 161.12 168.125 161.564 168.554ZM20.8121 198.604C21.7885 200.668 22.4881 202.267 23.1512 203.699C23.428 204.164 23.2397 204.906 23.6472 205.167C25.475 207.921 25.9653 210.966 26.6228 213.976C26.9515 215.481 27.7088 216.541 29.2289 217.085C30.1435 215.659 29.1826 214.468 29.0575 213.094C28.969 211.887 28.5096 210.586 28.2539 209.415C27.9617 208.078 27.8367 206.704 27.5445 205.366C27.2888 204.196 27.0331 203.026 26.8139 202.023C26.9811 201.986 27.3155 201.913 27.4827 201.876C28.1613 204.181 29.007 206.448 29.6856 208.752C29.8528 208.716 30.1871 208.643 30.3543 208.606C29.9005 205.727 29.4468 202.849 28.993 199.97C31.668 199.386 31.7987 199.182 32.0867 196.491C32.223 194.71 32.5265 192.892 32.6628 191.11C32.7204 190.572 32.6108 190.071 32.334 189.606C31.3576 187.542 31.1904 187.578 32.7738 186.006C34.0594 184.674 35.5599 180.318 35.5501 177.867C34.693 178.755 34.1339 179.403 33.5747 180.051C33.1462 180.495 32.6236 181.31 32.1585 181.586C30.356 182.155 29.9064 183.305 29.7701 185.086C29.5396 187.238 29.3724 187.275 26.8492 186.95C26.7607 185.744 26.8394 184.5 26.7508 183.293C24.1952 186.83 24.0688 191.061 22.6989 195.214C22.3126 194.248 22.1664 193.579 21.8166 192.779C21.3249 195.339 21.0579 197.324 20.8121 198.604ZM41.1216 229.026C41.456 228.953 41.6232 228.916 41.9576 228.843C41.8115 228.174 41.8326 227.469 41.6499 226.633C40.8042 224.366 40.4965 222.156 40.6904 219.836C40.7171 217.553 40.4095 215.343 39.9346 213.17C39.2617 209.288 38.385 205.275 38.7152 201.174C38.9513 197.444 38.8164 193.62 38.7181 189.963C38.7603 188.552 38.2643 187.084 38.0663 185.376C36.7077 186.373 36.5924 187.449 36.4407 188.358C36.1948 189.638 35.9855 191.085 35.9068 192.329C35.5766 196.43 34.9486 200.771 35.1565 204.929C35.3742 211.538 36.595 217.928 38.3174 224.208C38.552 226.084 39.4919 227.98 41.1216 229.026Z" fill="#B1E1FC" fill-opacity="0.15"/>
<path d="M128.365 285.988C130.899 283.157 134.06 281.591 137.367 280.693C140.675 279.795 144.295 279.53 147.676 278.966C149.718 278.695 151.777 279.297 153.479 280.676C153.923 281.105 154.905 281.591 155.407 281.481C158.714 280.584 160.767 282.763 163.044 284.367C164.063 285.02 164.951 285.877 166.006 286.698C167.301 287.816 168.727 288.731 169.892 290.053C175.882 296.627 180.645 303.994 184.049 312.359C185.318 315.761 186.754 319.126 188.022 322.527C189.385 325.557 190.952 328.719 191.98 331.822C194.131 337.658 195.947 343.567 198.062 349.236C199.899 354.44 202.035 359.404 204.17 364.368C205.293 367.1 207.142 369.149 209.623 370.884C211.185 370.017 211.395 368.57 211.437 367.159C211.825 362.52 212.38 357.845 212.6 353.242C212.669 349.548 212.403 345.928 212.138 342.307C211.836 338.52 212.756 335.516 216.346 333.505C216.638 334.843 216.894 336.013 217.186 337.351C217.855 337.205 218.56 337.226 219.062 337.116C222.238 336.422 225.43 336.601 228.638 337.652C231.067 338.347 231.417 339.146 231.594 341.56C231.692 345.217 231.623 348.911 231.889 352.531C232.05 354.073 232.713 355.504 233.005 356.842C233.846 360.687 235.281 364.052 237.72 367.198C240.159 370.343 243.571 371.525 247.112 372.503C247.651 372.56 248.581 372.007 248.842 371.599C249.72 370.006 250.431 368.449 251.105 366.726C255.294 353.023 257.497 339.054 258.049 324.745C258.26 317.692 258.601 310.435 258.608 303.252C258.577 301.507 258.008 299.704 257.81 297.996C257.591 296.993 256.834 295.932 258.062 295.138C258.36 294.898 258.213 294.229 258.104 293.728C257.885 292.724 257.368 291.962 257.149 290.958C256.726 289.825 256.507 288.822 256.36 288.153C254.773 285.697 253.258 283.575 251.744 281.454C250.506 279.798 249.305 278.308 248.104 276.819C247.623 276.223 247.012 275.831 246.322 276.683C243.236 272.978 239.031 270.568 235.275 267.01C236.576 266.55 237.376 266.2 238.044 266.054C242.632 265.402 247.051 264.787 251.675 264.302C252.882 264.214 254.162 264.46 255.442 264.706C258.205 265.328 260.802 265.987 263.434 266.813C263.973 266.871 264.547 267.096 264.824 267.561C265.597 269.494 267.451 269.964 269.065 270.137C270.345 270.383 270.993 270.942 271.379 271.909C272.189 274.009 273.688 275.258 275.615 276.063C277.914 276.963 279.392 278.917 280.368 280.981C282.969 285.668 285.736 290.318 287.872 295.282C290.743 302.011 293.317 308.981 295.891 315.951C296.7 318.052 297.379 320.356 298.057 322.66C298.59 324.295 298.788 326.004 299.153 327.676C299.299 328.344 299.409 328.846 299.555 329.515C300.933 333.418 302.348 337.488 303.893 341.354C304.003 341.856 304.483 342.451 304.927 342.88C306.061 342.457 306.009 341.417 306.198 340.676C307.129 334.516 308.228 328.321 308.956 322.031C309.956 312.178 310.585 302.231 311.419 292.414C311.691 288.851 310.794 285.544 310.026 282.033C309.129 278.726 308.064 275.455 307.035 272.352C305.475 267.613 302.743 263.13 299.526 259.629C299.061 259.905 298.727 259.978 298.094 260.292C296.966 259.137 295.838 257.982 294.506 256.696C293.378 255.542 292.286 254.554 290.955 253.268C293.134 251.216 295.641 250.668 297.982 250.156C305.098 248.251 312.224 248.797 318.952 251.531C321.084 252.466 322.954 253.809 324.432 255.764C326.87 258.909 329.273 261.888 331.712 265.034C332.192 265.629 332.709 266.392 333.023 267.024C337.053 276.654 340.583 286.393 343.109 296.351C344.518 301.999 345.796 307.851 348.208 313.28C349.221 315.511 349.565 317.888 350.244 320.192C351.455 324.131 352.666 328.071 353.71 332.047C354.148 334.053 354.419 336.096 354.691 338.139C354.91 339.142 355.129 340.145 355.479 340.944C356.011 342.58 357.437 343.494 358.978 343.333C360.389 343.375 361.006 342.189 361.288 341.076C363.703 335.294 364.839 329.265 365.232 323.048C365.374 319.689 365.552 316.497 365.527 313.174C365.611 310.353 366.234 307.59 368.042 305.443C368.732 304.592 369.793 303.834 371.078 302.502C371.501 303.636 372.018 304.399 371.997 305.104C372.028 306.849 372.022 308.427 371.886 310.208C371.095 318.614 369.729 326.795 368.4 335.143C368.002 337.332 367.735 339.317 367.505 341.47C367.029 344.902 365.236 347.921 363.37 350.606C360.553 354.55 356.425 356.503 351.802 356.987C351.133 357.133 350.428 357.112 349.723 357.091C345.527 357.132 341.855 356.358 338.841 352.987C334.219 347.866 329.43 342.782 326.798 336.35C324.094 329.584 321.724 322.744 319.354 315.905C318.581 313.972 317.939 311.835 316.889 309.437C315.525 312.012 315.295 314.164 315.268 316.447C315.194 321.719 314.952 327.027 315.045 332.261C315.089 340.485 312.742 348.179 309.819 355.649C308.601 358.893 306.161 361.354 303.684 363.646C301.17 365.772 297.994 366.466 294.708 366.658C294.17 366.601 293.428 366.413 292.853 366.188C287.703 363.459 283.576 359.807 279.842 355.542C279.398 355.114 279.179 354.111 279.44 353.703C279.723 352.591 279.373 351.791 278.856 351.028C277.435 348.536 276.182 346.007 274.929 343.478C274.856 343.144 274.652 343.013 274.579 342.679C274.539 338.484 272.157 334.8 271.15 330.991C270.435 328.52 269.422 326.289 268.707 323.817C268.101 321.848 267.271 320.453 264.821 320.462C264.016 322.39 263.952 324.506 264.187 326.381C264.541 331.209 264.357 335.979 263.635 340.691C263.577 341.229 263.52 341.767 263.462 342.305C263.841 350.455 261.457 357.983 259.48 365.772C258.821 368.368 257.421 370.776 255.983 373.017C254.06 376.24 246.045 380.443 242.555 380.505C238.563 380.677 234.912 379.197 231.558 377.477C226.073 374.822 222.339 370.558 220.69 364.612C219.865 361.639 218.204 358.849 216.544 356.059C216.35 358.379 216.119 360.531 215.926 362.85C215.668 367.286 215.244 371.758 213.911 376.078C213.404 377.765 212.896 379.453 212.222 381.177C209.509 387.199 204.932 390.302 198.286 390.352C195.836 390.362 193.313 390.037 190.622 389.749C190.999 388.266 190.612 387.299 189.296 386.886C187.98 386.473 186.925 385.652 186.465 384.351C186.465 384.351 186.429 384.184 186.261 384.221C183.409 382.392 181.879 379.398 179.884 376.68C178.647 375.024 176.735 375.091 174.974 374.25C175.032 373.712 174.922 373.21 174.98 372.672C175.022 371.262 175.231 369.814 173.936 368.696C173.732 368.565 173.492 368.268 173.623 368.064C173.947 365.541 172.244 364.161 171.007 362.505C170.213 361.277 169.623 360.179 169.963 358.529C170.339 357.045 169.473 355.483 170.351 353.889C170.612 353.482 170.356 352.312 169.912 351.883C168.748 350.561 167.416 349.276 166.418 347.917C165.974 347.488 165.828 346.82 165.515 346.187C165.682 346.151 165.813 345.947 165.98 345.911C166.424 346.339 166.904 346.935 167.385 347.531C167.516 347.327 167.813 347.087 167.944 346.883L168.075 346.679C167.323 344.041 166.608 341.569 165.689 338.967C165.507 338.132 165.157 337.332 164.938 336.329C164.232 336.308 163.564 336.454 162.858 336.433C163.068 334.986 164.39 333.821 163.69 332.222C162.954 330.456 161.13 331.731 159.892 330.074C159.568 332.597 159.264 334.415 159.295 336.16C159.7 347.633 159.566 359.048 158.727 370.442C158.303 374.914 157.879 379.386 157.454 383.858C156.742 391.021 152.326 395.664 146.208 398.927C143.381 400.421 140.393 400.373 137.352 399.286C134.312 398.198 131.7 396.667 129.444 394.357C125.783 390.427 123.052 385.944 122.05 380.558C121.085 375.338 121.123 369.9 122.608 364.671C123.115 362.983 123.972 362.095 125.644 361.73C128.319 361.146 130.9 360.932 133.533 361.758C134.849 362.171 135.366 362.934 135.491 364.308C135.542 370.954 137.301 377.401 139.525 383.571C140.553 386.675 142.475 389.058 144.993 390.96C147.307 392.732 147.975 392.586 149.136 389.88C150.26 387.007 151.143 383.836 151.526 380.774C152.081 376.099 152.134 371.533 152.522 366.893C153.9 349.951 153.032 333.149 153 316.165C153.063 314.049 152.959 311.97 152.855 309.891C152.876 309.185 152.396 308.59 152.083 307.957C150.589 305.131 149.096 302.304 147.566 299.31C147.529 299.143 147.493 298.976 147.289 298.845C145.382 297.335 144.537 295.067 142.965 293.484C141.356 291.733 139.376 289.888 137.151 289.324C133.886 288.811 131.557 286.167 128.365 285.988Z" fill="#B1E1FC" fill-opacity="0.15"/>
<path d="M280.617 143.419C281.051 141.397 281.689 139.506 281.92 137.354C283.124 127.631 286.015 118.416 291.038 110.137C293.876 105.488 297.362 101.398 301.532 98.0351C303.486 96.5571 305.921 95.6748 308.188 94.8291C317.724 91.1693 326.625 93.4285 335.072 98.4147C337.072 99.5541 338.645 101.138 340.347 102.517C342.254 104.027 344.16 105.538 346.197 106.844C349.457 108.935 351.953 111.543 353.927 114.965C354.204 115.43 354.481 115.895 354.961 116.491C355.39 116.047 355.855 115.77 355.949 115.399C358.249 110.693 360.382 106.023 362.514 101.353C363.544 98.8505 363.665 96.1965 362.616 93.7983C361.493 91.0656 360.167 88.2024 358.877 85.5063C357.274 82.1779 354.516 79.9778 351.032 78.4618C350.457 78.237 349.679 77.8816 348.937 77.6933C347.01 76.8883 346.827 76.0523 348.447 74.6474C350.83 72.7254 353.599 71.7701 356.624 71.9851C361.895 72.0596 366.732 74.1558 371.345 76.8266C378.125 80.6004 382.355 86.3326 384.835 93.6734C387.774 102.315 389.005 111.155 390.272 120.162C390.924 124.749 391.575 129.337 392.395 133.887C392.541 134.556 392.65 135.057 393.334 135.784C393.523 135.042 393.748 134.467 393.769 133.762C395.48 122.353 398.711 111.487 402.852 100.773C404.969 95.2302 407.828 89.876 411.298 84.9138C412.119 83.8587 412.736 82.6729 413.352 81.4872C414.644 78.5775 416.619 76.3943 419.206 74.603C421.923 72.608 424.473 70.6495 427.19 68.6545C427.786 68.174 428.418 67.8607 429.087 67.7146C431.929 67.0937 434.771 66.4727 437.78 65.8152C440.79 65.1577 443.851 65.5399 446.724 66.6639C453.693 69.6958 459.376 74.0596 462.19 81.3274C463.495 84.8959 463.316 88.088 461.597 91.4416C460.849 92.831 460.138 94.3877 458.983 95.5159C457.233 97.1245 454.965 97.9703 452.646 97.7764C450.29 97.4153 449.015 95.5917 448.373 93.4547C447.951 92.3209 447.825 90.9469 448.071 89.667C448.302 87.5146 448.699 85.3257 449.097 83.1368C449.871 79.4643 448.843 76.3608 446.608 73.3458C443.782 69.2335 435.334 69.853 433.055 73.8543C430.646 78.0592 428.942 82.2853 427.922 87.2377C426.562 93.8409 427.783 100.231 428.131 106.636C428.37 112.539 429.517 118.595 430.425 124.352C430.931 128.27 431.64 132.32 432.146 136.238C433.252 143.704 435.528 150.914 438.77 157.738C440.373 161.066 442.572 163.914 445.105 166.689C450.986 172.761 457.178 169.832 460.335 164.237C461.96 161.255 462.974 157.88 463.989 154.505C465.286 150.018 466.081 145.64 465.967 141.111C465.957 138.66 467.17 136.994 469.03 135.887C470.425 135.057 471.167 135.245 471.663 136.713C472.049 137.68 472.268 138.683 472.117 139.592C471.106 146.994 470.467 154.491 469.122 161.967C468.081 167.625 464.836 172.012 460.164 175.485C456.554 178.201 452.87 180.582 448.319 181.401C439.85 182.726 432.323 180.342 426.238 174.139C420.393 168.234 416.54 161.018 413.914 153.009C410.756 143.364 409.604 133.28 408.786 123.124C408.448 119.169 408.146 115.381 407.436 111.332C407.175 111.74 406.95 112.314 406.689 112.722C401.926 126.199 398.312 140.127 396.146 154.263C395.973 155.877 396.004 157.622 396.202 159.331C397.135 168.411 398.7 177.178 400.803 186.002C401.424 188.844 402.342 191.446 403.298 194.215C404.493 197.282 406.285 199.869 409.602 201.421C409.079 202.236 408.724 203.015 408.332 203.626C406.989 205.496 406.32 205.642 404.225 204.873C399.461 203.112 394.922 200.775 391.035 197.42C389.333 196.04 387.797 194.624 386.261 193.208C384.762 191.959 383.728 190.433 383.494 188.558C383.348 187.889 382.831 187.126 382.517 186.494C381.577 184.597 380.303 182.773 379.698 180.804C378.304 176.028 377.281 171.347 376.389 166.462C374.913 158.902 373.436 151.342 372.127 143.745C371.381 139.529 370.802 135.276 370.223 131.024C369.952 128.981 369.347 127.011 368.908 125.005C368.726 124.169 368.747 123.464 368.564 122.628C367.943 119.786 367.322 116.943 366.592 113.6C365.938 114.618 365.546 115.229 365.358 115.971C363.9 118.917 362.478 122.031 360.983 124.81C360.235 126.199 360.36 127.573 360.653 128.911C361.602 133.257 362.719 137.568 363.502 141.951C365.155 151.925 365.602 161.987 364.304 172.08C361.801 191.896 350.655 205.016 332.806 213.12C330.241 214.206 327.769 214.921 324.948 214.837C324.243 214.816 323.37 214.831 322.571 215.181C321.139 215.844 320.157 215.358 319.233 214.334C312.093 207.31 310.653 199.917 313.618 191.037C316.132 183.305 320 176.154 324.239 169.097C328.906 161.596 334.018 154.524 339.333 147.582C341.271 145.232 341.8 142.839 341.142 139.83C340.339 136.152 339.535 132.473 338.731 128.795C338.585 128.126 338.439 127.458 338.126 126.825C334.549 120.075 330.674 113.564 325.869 107.607C322.062 103.009 317.036 101.654 311.352 102.896C308.008 103.627 305.087 105.491 302.61 107.784C299.407 110.761 297.019 114.261 295.074 118.189C291.374 125.304 289.157 132.795 288.256 140.699C288.141 141.775 288.062 143.018 287.612 144.168C287.011 146.226 285.616 147.056 283.871 147.087C281.813 146.486 281.165 145.927 280.617 143.419ZM341.676 156.704C340.95 157.389 340.521 157.833 340.223 158.073C337.798 161.405 335.17 164.607 332.912 167.903C331.177 170.384 329.442 172.865 327.91 175.477C326.415 178.256 325.291 181.129 324 184.039C321.737 188.913 320.048 194.011 319.472 199.392C319.336 201.173 319.534 202.882 319.935 204.721C320.337 206.56 321.45 206.842 323.012 205.976C326.565 203.798 329.675 201.192 331.452 197.3C334.876 189.72 337.762 182.083 339.665 173.96C340.795 169.509 341.219 165.037 341.811 160.529C341.926 159.452 341.67 158.282 341.676 156.704Z" fill="#B1E1FC" fill-opacity="0.15"/>
<path d="M184.258 534.603C183.276 534.117 182.628 533.558 181.887 533.37C180.57 532.957 179.29 532.711 179.259 530.966C179.223 530.799 179.186 530.631 178.983 530.501C176.684 529.602 177.118 527.58 176.884 525.704C175.785 511.055 173.313 496.531 170.375 482.283C167.349 466.829 164.025 451.615 160.664 436.233C160.445 435.23 160.263 434.394 160.043 433.391C159.84 433.26 159.673 433.297 159.469 433.166C159.077 433.777 158.481 434.258 158.089 434.869C155.194 440.056 153.076 445.598 151.534 451.366C147.999 464.05 147.692 477.079 146.884 490.218C146.748 491.999 147.317 493.802 147.682 495.474C149.405 501.754 151.461 507.961 153.184 514.241C155.052 521.19 156.754 528.175 158.586 534.957C158.878 536.295 159.134 537.465 157.498 537.997C157.331 538.034 157.033 538.274 156.903 538.478C155.292 542.333 151.657 541.726 148.611 542.216C147.942 542.362 147.331 541.97 146.698 542.284C144.133 543.37 141.667 542.507 139.108 542.015C138.199 541.864 137.718 541.268 137.201 540.505C133.874 536.502 134.356 531.492 133.166 526.848C131.225 519.564 130.082 511.931 128.141 504.648C124.769 492.422 120.765 480.51 115.794 468.983C113.419 463.722 111.043 458.46 108.5 453.235C104.981 445.947 99.2824 440.71 91.9065 437.417C90.5535 436.837 89.3678 436.22 87.9783 435.473C87.7746 435.342 87.5343 435.044 87.2941 434.746C88.6738 433.043 90.5493 432.809 92.4249 432.574C96.9179 432.293 101.39 432.718 105.674 433.884C109.957 435.05 113.885 436.994 117.552 439.346C118.163 439.738 118.811 440.297 119.292 440.893C121.788 443.501 124.118 446.145 126.614 448.752C129.074 451.193 131.069 453.91 132.468 457.108C135.084 462.667 137.497 468.096 140.426 474.287C140.708 473.175 140.766 472.637 140.824 472.098C141.317 463.933 142.682 455.752 144.623 447.796C146.15 441.156 148.659 435.002 152.318 429.298C152.971 428.28 153.421 427.131 153.666 425.851C154.608 422.142 157.921 419.666 161.855 420.033C162.764 420.185 163.84 420.3 164.655 420.822C168.75 422.73 172.882 424.805 176.883 427.084C178.069 427.701 179.066 429.06 179.693 430.324C181.129 433.689 182.601 437.221 183.572 440.863C185.112 446.307 186.317 451.824 187.857 457.268C187.967 457.77 188.28 458.402 188.666 459.369C189.152 458.387 189.414 457.979 189.471 457.441C190.58 453.695 191.485 449.819 192.964 446.168C196.09 438.828 199.253 431.656 202.823 424.745C204.898 420.613 208.603 417.527 211.9 414.179C213.483 412.607 214.936 411.238 216.556 409.833C217.152 409.353 218.118 408.967 218.881 408.45C219.513 408.136 220.015 408.027 220.647 407.713C221.745 407.123 222.565 406.068 224.049 406.445C226.07 406.879 227.794 407.553 229.33 408.969C231.753 411.243 234.177 413.516 236.6 415.789C238.543 417.467 240.058 419.588 240.271 422.169C240.573 425.957 240.912 429.912 240.676 433.642C239.522 450.009 237.998 466.283 236.844 482.65C236.147 490.685 236.323 498.705 237.909 506.766C238.128 507.769 237.976 508.678 238.196 509.681C238.488 511.019 238.613 512.393 240.206 513.271C240.692 512.289 241.178 511.307 241.664 510.325C245.407 501.8 247.797 492.694 250.224 483.756C250.788 481.531 251.353 479.305 253.031 477.362C253.809 477.718 254.718 477.869 255.496 478.225C257.831 479.291 258.421 480.388 258.097 482.912C258.003 483.283 257.945 483.821 257.851 484.192C255.905 493.726 253.385 503.035 248.769 511.575C247.05 514.929 245.534 518.413 243.574 521.469C242.006 523.914 239.79 525.799 237.574 527.684C235.359 529.57 233.301 528.968 231.206 528.2C229.889 527.787 228.704 527.17 227.387 526.757C224.013 525.743 221.756 523.433 220.357 520.235C220.32 520.068 220.32 520.068 220.284 519.901C217.563 517.868 217.203 514.618 216.545 511.609C215.888 508.599 215.361 505.386 214.871 502.34C214.125 498.124 214.418 493.856 214.174 489.53C214.024 484.833 213.837 479.969 214.225 475.33C215.519 461.209 216.98 447.052 218.274 432.931C218.604 428.83 218.767 424.765 218.894 420.533C218.842 419.494 218.455 418.527 218.2 417.357C217.4 417.707 217.066 417.78 216.601 418.057C213.157 420.736 210.121 423.676 208.177 427.604C202.756 438.073 197.744 448.802 194.825 460.3C194.261 462.526 193.696 464.751 193.168 467.144C192.357 470.649 192.215 474.008 192.851 477.723C195.095 488.794 196.706 500.178 198.448 511.359C199.1 515.946 199.716 520.366 200.367 524.953C200.492 526.327 200.247 527.607 200.001 528.887C199.211 531.687 198.281 532.24 195.329 532.36C193.955 532.485 192.618 532.777 191.28 533.069C191.113 533.106 190.982 533.309 190.815 533.346C188.97 535.325 188.84 535.529 186.635 534.259C185.784 533.569 185.152 533.883 184.258 534.603Z" fill="#B1E1FC" fill-opacity="0.15"/>
<path d="M501.836 206.67C501.252 203.995 502.449 201.456 503.478 198.954C505.538 193.95 507.634 189.112 509.861 184.071C511.638 180.18 513.583 176.252 515.564 172.49C518.423 167.136 521.486 161.913 524.345 156.559C526.232 153.168 528.563 150.207 531.061 147.209C532.832 144.895 534.531 142.246 536.506 140.063C536.935 139.619 537.05 138.543 536.867 137.707C535.829 132.153 534.457 126.673 531.616 121.688C528.148 115.439 522.779 111.707 515.58 110.828C513.224 110.466 511.494 111.37 509.613 113.182C503.839 118.823 497.417 123.905 489.224 125.694C488.556 125.841 487.887 125.987 487.182 125.966C485.233 125.866 484.105 124.711 483.667 122.705C482.921 118.488 484.546 115.506 487.822 112.863C492.327 109.427 497.014 106.826 502.698 105.584C503.868 105.329 505.133 104.702 505.99 103.814C514.727 94.8983 522.744 85.0891 528.927 74.1039C529.544 72.9181 530.161 71.7323 530.574 70.4159C531.081 68.7286 530.433 68.1694 528.761 68.5347C527.09 68.8999 525.324 69.6361 523.688 70.1686C522.22 70.6645 520.548 71.0298 519.08 71.5257C517.779 71.9851 516.515 72.6117 515.046 73.1076C513.28 73.8438 511.514 74.58 509.879 75.1125C508.28 75.8121 506.645 76.3446 505.213 77.0077C502.183 78.3705 499.189 79.9004 496.122 81.096C490.118 83.2835 484.105 83.0207 477.894 81.0495C476.207 80.5423 474.389 80.2388 472.738 79.8988C472.184 78.9687 471.631 78.0386 470.874 76.9779C469.943 77.5315 469.478 77.8082 468.715 78.3252C467.697 77.6719 466.511 77.0551 465.754 75.9944C463.832 73.6116 461.873 71.0616 460.119 68.6423C459.638 68.0466 459.288 67.2472 458.975 66.615C458.145 65.2198 457.482 63.7882 456.819 62.3566C456.265 61.4265 455.508 60.3658 456.328 59.3107C456.663 59.2376 456.83 59.2011 456.866 59.3683C462.978 63.2881 469.775 62.3286 476.42 62.278C478.871 62.2682 481.342 61.5531 483.886 61.1724C484.221 61.0994 484.686 60.8226 484.889 60.9532C486.927 62.2599 488.714 60.8184 490.312 60.1188C496.279 57.7641 502.173 55.0751 508.176 52.8877C513.38 51.05 518.824 49.5103 524.394 49.3445C526.677 49.3712 528.96 49.398 531.279 49.5919C531.817 49.6495 532.355 49.7071 532.763 49.9684C537.135 52.3414 540.948 55.362 542.749 60.3988C543.172 61.5325 543.558 62.4991 544.148 63.5964C546.232 67.5204 545.321 72.9744 542.562 76.38C539.636 79.8221 536.913 83.3948 534.153 86.8004C532.607 88.5397 531.06 90.279 529.717 92.1489C528.039 94.092 526.398 96.2022 524.59 98.3489C523.9 99.2003 523.007 99.921 522.15 100.809C521.721 101.253 521.423 101.493 520.697 102.177C533.997 104.527 545.134 109.801 553.971 119.782C556.485 117.656 558.998 115.53 561.344 113.441C563.727 111.519 566.037 109.263 568.66 107.639C570.353 106.568 572.563 106.261 574.439 106.026C575.107 105.88 575.922 106.402 577.202 106.648C575.88 107.813 575.154 108.497 574.391 109.014C567.901 112.184 562.926 117.475 557.231 121.872C556.207 122.797 555.851 123.575 556.478 124.839C559.574 130.994 561.072 137.849 563.034 144.427C564.042 148.236 564.417 152.358 565.09 156.24C566.18 162.833 566.434 169.609 566.317 176.291C566.337 181.192 566.728 186.186 566.544 190.956C566.223 197.507 565.568 204.132 564.746 210.792C563.961 217.62 562.434 224.26 560.572 230.973C558.355 238.464 554.989 245.506 551.382 252.249C549.663 255.603 547.739 258.826 545.408 261.787C543.767 263.898 541.312 265.485 539.023 267.036C537.664 268.034 536.029 268.566 535.391 270.457C535.297 270.828 534.999 271.068 534.665 271.141C532.768 272.081 531.556 273.748 530.583 275.712C530.097 276.694 529.371 277.378 528.164 277.467C527.459 277.445 526.863 277.926 526.267 278.406C523.049 280.511 520.07 282.913 516.575 284.553C513.246 286.156 509.772 287.09 505.974 284.942C503.53 283.374 500.657 282.25 498.249 280.849C497.434 280.327 496.749 279.6 496.363 278.634C494.374 274.339 492.719 269.971 492.198 265.18C491.567 259.888 490.9 254.428 491.141 249.12C491.471 245.019 491.671 241.122 492.372 237.115C492.906 233.145 493.978 229.232 495.087 225.486C496.666 219.886 498.281 214.453 500.064 208.984C499.955 208.482 500.848 207.761 501.836 206.67ZM537.514 143.872C536.954 144.52 536.489 144.796 536.228 145.204C534.028 147.962 531.661 150.756 529.664 153.645C528.06 155.922 526.455 158.199 525.425 160.702C523.627 165.299 521.661 169.932 518.881 174.043C515.709 178.765 513.649 183.769 511.626 188.941C510.502 191.814 509.582 194.818 508.625 197.654C506.45 203.735 504.275 209.816 502.1 215.896C498.613 225.592 496.777 235.627 495.849 245.814C495.043 253.348 495.574 260.589 498.017 267.762C499.322 271.331 500.497 275.103 504.947 276.233C505.151 276.363 505.391 276.661 505.559 276.625C506.635 276.74 507.58 277.059 508.656 277.174C510.401 277.143 511.76 276.146 513.045 274.814C518.449 269.079 522.426 262.429 525.996 255.518C531.976 244.403 535.286 232.293 538.058 220.127C538.189 219.923 538.283 219.552 538.246 219.385C537.343 217.655 538.185 215.895 538.525 214.244C539.116 209.736 539.744 205.394 540.168 200.923C540.435 198.937 540.164 196.895 540.395 194.742C540.589 192.423 541.117 190.03 541.107 187.58C541.01 178.317 540.95 169.221 540.853 159.959C540.77 157.174 540.316 154.295 539.732 151.62C539.461 149.577 538.688 147.644 538.25 145.638C538.104 144.969 537.863 144.671 537.514 143.872Z" fill="#B1E1FC" fill-opacity="0.15"/>
<path d="M426.407 287.962C425.064 289.832 423.946 291.127 423.031 292.553C419.336 298.09 414.716 302.603 409.172 306.091C407.312 307.198 407.182 307.402 407.824 309.539C410.501 318.588 413.31 327.434 415.988 336.483C416.484 337.951 416.645 339.492 416.937 340.83C415.782 341.958 414.591 342.919 413.4 343.88C409.005 347.818 404.308 347.968 399.477 344.294C398.86 345.48 397.893 345.866 396.577 345.453C394.519 344.852 392.293 344.287 391.615 341.983C390.623 339.047 390.002 336.204 389.177 333.232C386.959 325.483 384.871 317.531 382.616 309.616C381.974 307.479 380.94 305.953 378.845 305.185C376.14 304.024 374.123 302.012 372.369 299.593C370.65 297.341 370.27 294.796 370.892 292.033C371.138 290.753 371.791 289.734 373.056 289.108C374.879 287.834 375.047 287.797 374.237 285.697C372.823 281.627 371.408 277.556 369.695 273.727C366.197 265.732 362.401 257.978 358.605 250.225C357.628 248.161 356.354 246.337 355.247 244.477C354.176 242.784 353.142 241.258 351.178 240.286C350.771 240.025 350.494 239.56 350.217 239.095C351.707 237.893 353.117 237.935 354.695 237.941C361.951 238.283 368.345 241.09 373.73 245.694C379.116 250.298 383.607 255.623 387.336 261.464C393.075 270.896 397.847 280.714 401.392 291.325C402.42 294.429 403.914 297.255 405.146 300.49C406.207 299.732 406.97 299.215 407.732 298.698C413.319 293.799 417.479 287.986 420.213 281.257C421.467 278.181 422.518 274.973 423.736 271.729C425.498 266.965 426.351 262.049 426.593 256.741C426.782 250.394 427.677 244.067 428.034 237.683C428.197 233.619 428.157 229.424 428.152 225.396C428.137 224.523 427.751 223.556 427.364 222.59C426.868 221.122 427.057 220.38 428.525 219.884C432.13 218.746 435.845 218.11 439.344 220.498C441.418 221.972 443.716 222.871 445.754 224.178C446.772 224.831 447.493 225.724 448.475 226.211C450.512 227.517 451.489 229.581 451.629 231.828C452.025 235.244 452.589 238.625 452.447 241.984C451.806 255.086 451.5 268.116 452.437 281.224C452.842 287.091 453.954 292.979 454.861 298.737C455.586 303.658 456.609 308.339 457.501 313.224C457.903 315.063 458.472 316.866 459.077 318.836C460.567 317.635 460.776 316.187 461.058 315.075C463.145 307.787 464.322 300.348 465.165 292.982C466.024 286.488 466.678 279.864 467.5 273.203C467.746 271.923 467.956 270.476 468.201 269.196C468.636 267.175 470.052 265.639 471.818 264.903C472.45 264.59 473.286 264.407 473.861 264.632C474.268 264.893 474.32 265.933 474.262 266.471C473.723 272.019 473.016 277.604 472.309 283.188C471.315 291.463 470.691 299.833 469.492 307.977C468.618 313.598 467.003 319.031 465.554 324.427C464.294 329.082 460.72 331.965 457.036 334.346C455.808 335.14 453.969 335.542 452.428 335.703C446.117 335.681 441.076 333.454 437.922 327.837C437.055 326.275 436.188 324.712 435.321 323.15C434.454 321.588 433.791 320.156 433.927 318.375C434.043 317.299 433.453 316.201 433.197 315.031C432.007 310.386 430.854 305.909 429.664 301.264C428.75 297.084 427.634 292.774 426.407 287.962Z" fill="#B1E1FC" fill-opacity="0.15"/>
<path d="M280.785 143.382C280.633 144.291 280.278 145.07 280.293 145.942C278.329 165.815 269.287 182.154 254.483 195.373C250.219 199.108 250.249 200.853 254.543 204.469C258.873 208.252 263.987 210.814 269.493 212.764C273.108 214.076 276.081 213.251 278.819 210.551C280.998 208.498 282.529 205.887 283.319 203.087C285.949 194.279 287.67 185.32 287.944 176.151C287.929 175.279 287.469 173.978 288.807 173.685C290.144 173.393 290.902 174.454 291.121 175.457C291.69 177.26 292.092 179.099 291.992 181.047C292.121 186.449 291.916 191.924 291.711 197.4C291.642 201.093 290.664 204.635 288.741 207.858C288.087 208.876 287.638 210.026 287.021 211.211C283.879 217.678 278.649 221.799 271.977 224.133C265.806 226.357 259.547 227.374 253.017 226.348C242.516 224.788 234.295 219.228 227.772 211.019C226.57 209.529 226.613 208.119 227.862 206.62C227.621 206.322 227.418 206.191 227.214 206.06C224.785 205.365 224.508 204.9 225.036 202.507C225.13 202.136 225.225 201.766 225.319 201.395C225.586 199.409 224.698 198.552 222.211 198.395C221.146 195.124 219.58 191.963 219.278 188.175C219.758 188.771 220.239 189.367 220.756 190.13C220.84 187.309 220.563 186.844 218.192 185.61C216.839 185.03 215.387 180.793 216.004 179.607C216.788 178.384 218.031 178.463 219.479 178.672C219.892 177.356 220.545 176.337 222.399 176.808C222.369 175.063 222.17 173.355 222.213 171.944C222.234 171.239 222.683 170.09 223.185 169.98C225.526 169.469 225.16 167.797 225.166 166.219C225.26 165.848 224.983 165.383 224.837 164.714C224.278 165.362 223.813 165.639 223.087 166.323C222.904 165.487 222.387 164.724 222.445 164.186C222.973 161.794 223.705 159.532 224.567 157.066C224.938 157.16 225.309 157.254 225.847 157.312C227.044 154.773 228.038 152.104 229.235 149.565C229.329 149.194 229.386 148.656 229.146 148.358C228.3 146.091 228.3 146.091 229.571 143.886C229.847 144.351 229.957 144.853 230.437 145.448C230.829 144.837 231.425 144.357 231.352 144.022C230.673 141.718 231.442 139.624 232.785 137.754C232.916 137.55 232.806 137.048 232.733 136.714C231.286 136.505 230.189 137.095 229.295 137.815C229.745 136.666 230.121 135.183 230.775 134.164C232.51 131.683 234.449 129.332 236.184 126.851C236.445 126.444 236.67 125.869 236.764 125.498C235.092 125.864 233.587 126.192 232.876 127.749C232.427 128.898 231.46 129.285 230.29 129.54C229.12 129.796 228.117 130.015 227.113 130.234C226.533 131.587 226.084 132.737 225.67 134.053C225.257 135.369 225.179 136.613 224.802 138.096C224.504 138.337 223.945 138.984 223.219 139.668C224.347 140.823 225.219 140.808 226.411 139.847C227.304 139.126 228.198 138.405 229.128 137.852C229.551 138.986 228.788 139.503 228.025 140.02C227.132 140.74 226.238 141.461 225.214 142.386C224.435 142.03 223.526 141.878 222.581 141.56C222.058 142.374 221.703 143.153 221.311 143.764C219.864 143.555 220.016 142.646 220.334 141.7C223.069 134.972 225.876 128.578 231.258 123.548C231.687 123.104 232.115 122.66 232.805 121.809C231.802 122.028 231.3 122.138 230.595 122.117C230.653 121.578 230.579 121.244 230.877 121.004C233.652 118.471 236.354 115.603 239.332 113.201C245.159 108.6 251.883 107.306 258.742 109.836C270.568 114.259 277.703 122.86 279.272 135.655C280.394 138.388 280.441 141.005 280.785 143.382ZM256.397 127.165C255.801 127.645 255.467 127.718 255.336 127.922C253.637 130.57 251.939 133.219 250.407 135.83C249.529 137.424 249.022 139.111 248.311 140.668C247.375 142.799 246.57 144.726 245.635 146.858C244.38 149.935 244.442 153.424 242.409 156.146C242.278 156.35 242.424 157.018 242.497 157.353C242.57 157.687 242.68 158.189 242.586 158.559C242.471 159.636 242.188 160.748 242.11 161.992C242.046 164.108 242.114 166.02 241.883 168.172C241.71 169.786 241.538 171.401 241.939 173.24C242.195 174.41 241.782 175.726 241.703 176.97C241.646 177.508 241.625 178.213 241.734 178.715C242.267 180.35 242.799 181.986 243.295 183.454C243.645 184.253 243.399 185.533 244.715 185.946C245.144 185.502 245.572 185.058 245.797 184.484C247.329 181.872 248.86 179.26 250.188 176.518C253.815 169.069 255.589 161.149 257.565 153.36C259.767 144.996 258.515 136.862 256.893 128.633C256.987 128.262 256.746 127.964 256.397 127.165ZM226.461 188.183C225.95 185.842 225.402 183.334 224.89 180.993C224.064 183.626 225.448 185.952 226.461 188.183Z" fill="#B1E1FC" fill-opacity="0.15"/>
<path d="M245.227 89.6666C244.314 85.4869 243.735 81.2341 244.029 76.9659C244.201 75.3516 244.374 73.7374 244.751 72.2538C245.823 68.341 248.075 66.6228 252.139 66.7858C253.717 66.7914 255.201 67.1679 256.684 67.5445C260.059 68.5589 263.434 69.5733 266.845 70.7549C267.79 71.0738 268.773 71.5599 269.755 72.046C273.886 74.1212 274.638 76.7596 271.748 80.3689C266.825 86.6995 261.902 93.0302 256.812 99.3973C254.612 102.155 251.456 102.144 248.96 99.5364C247.351 97.7858 246.338 95.5547 245.79 93.0469C245.702 91.8401 245.446 90.6697 245.227 89.6666Z" fill="#B1E1FC" fill-opacity="0.15"/>
<path d="M240.515 83.3388C241.136 86.1811 241 87.9625 240.158 89.7229C239.578 91.0759 238.627 92.3347 238.047 93.6876C236.683 96.2629 235.318 98.8381 233.991 101.581C233.599 102.192 233.41 102.934 233.018 103.545C231.45 105.989 229.146 106.668 226.571 105.304C224.607 104.331 223.166 102.544 222.226 100.648C220.623 97.3193 219.15 93.7872 217.882 90.3859C217.072 88.2855 216.263 86.1851 215.621 84.0481C215.585 83.881 215.548 83.7138 215.512 83.5466C213.637 78.1755 215.728 74.916 221.407 75.2518C225.842 75.509 230.22 76.3042 234.634 77.2666C238.103 77.9101 239.8 80.8675 240.515 83.3388Z" fill="#B1E1FC" fill-opacity="0.15"/>
<path d="M217.179 162.534C217.717 162.592 218.589 162.576 219.127 162.634C219.085 164.044 219.006 165.288 218.928 166.531C218.776 167.44 218.457 168.386 217.898 169.033C216.91 170.125 216.795 171.201 217.087 172.539C217.212 173.913 217.504 175.25 217.426 176.493C217.42 178.071 216.955 178.348 214.912 178.619C214.881 176.874 214.015 175.312 214.82 173.384C215.081 172.977 214.731 172.177 214.621 171.676C214.22 169.837 214.022 168.128 215.809 166.687C216.666 165.799 216.671 164.221 217.179 162.534Z" fill="#B1E1FC" fill-opacity="0.15"/>
<path d="M139.054 182.58C141.092 183.887 141.092 183.887 141.086 185.465C139.712 185.59 138.542 185.845 137.168 185.971C136.128 186.022 135.25 187.616 133.584 186.403C135.538 184.925 138.745 185.976 139.054 182.58Z" fill="#B1E1FC" fill-opacity="0.15"/>
</svg>
