<svg width="851" height="845" viewBox="0 0 851 845" fill="none" xmlns="http://www.w3.org/2000/svg">
<path d="M497 657.172C502.083 652.871 506.776 648.569 507.167 641.335C507.362 637.816 507.753 634.492 508.144 630.973C508.34 628.627 508.144 626.28 508.144 623.739C511.859 624.325 515.183 625.694 518.507 627.454C524.763 630.582 529.456 635.079 534.148 639.967C534.539 640.553 535.125 641.14 535.321 641.726C537.863 648.374 538.645 655.217 537.667 662.255C535.712 678.288 531.606 693.538 524.568 708.006C515.965 725.993 502.67 739.875 485.074 749.064C473.538 755.125 461.416 755.712 449.099 751.801C444.406 750.237 440.105 747.891 436.781 744.176C436.195 743.59 435.608 743.003 435.022 742.612C429.938 738.702 427.592 733.618 427.592 727.362C427.592 723.452 427.983 719.541 428.765 715.827C429.547 711.721 431.698 708.006 434.826 704.878C438.541 700.967 443.038 698.23 447.926 695.884C453.009 693.538 458.288 693.929 463.567 695.493C464.935 695.884 466.304 696.862 467.477 698.035C467.868 698.426 468.064 699.599 467.868 700.185C467.477 701.945 465.913 703.118 463.567 702.922C461.221 702.727 458.679 702.531 456.333 701.749C452.227 700.576 448.708 701.358 445.188 703.509C439.127 707.224 434.826 712.503 432.284 718.955C430.72 723.061 430.72 727.166 432.871 731.077C436.586 737.92 441.669 743.199 449.294 745.154C451.836 745.74 454.573 745.936 457.115 745.74C459.852 745.74 462.394 745.154 464.935 744.763C472.17 743.59 478.231 739.875 483.118 734.596C490.939 726.384 496.218 716.804 498.369 705.66C500.715 693.342 502.474 681.025 504.625 668.707C505.016 666.557 505.212 664.601 505.407 662.451C505.212 662.255 505.016 662.255 504.821 662.06C504.43 662.646 503.647 663.037 503.452 663.624C501.888 666.166 500.324 668.316 497.195 669.098C496.413 669.294 495.631 670.076 495.045 670.858C492.894 673.009 490.352 674.377 487.615 674.768C478.035 676.137 469.237 673.986 462.198 666.948C461.416 666.166 460.634 665.188 460.243 664.21C459.07 661.082 457.897 657.954 457.115 654.63C456.333 651.697 455.355 648.765 455.355 646.028C455.551 641.335 453.791 637.034 453.987 632.341C454.182 629.409 454.573 626.672 454.769 623.739C454.964 622.175 454.769 620.611 454.769 619.242C454.769 617.287 454.964 615.332 455.16 613.572C455.355 611.812 455.746 610.053 454.378 608.489C453.987 608.88 453.791 609.271 453.596 609.662C452.618 616.505 449.685 622.761 447.926 629.409C445.579 638.207 442.647 646.614 438.736 654.826C438.345 655.803 437.759 656.976 437.563 657.954C437.172 660.887 435.413 663.037 433.457 664.993C431.698 666.557 429.743 668.316 427.983 669.88C426.028 671.64 423.682 672.618 421.14 672.618C418.012 672.618 414.688 672.813 411.56 672.618C409.605 672.422 407.454 671.836 405.89 670.662C400.611 667.143 396.701 662.255 395.723 655.608C395.332 652.871 394.354 649.938 393.963 647.201C393.572 645.05 393.572 642.704 393.377 640.553C393.181 639.38 392.986 638.402 392.79 637.229C392.79 637.034 392.399 636.643 392.399 636.447C393.572 633.319 391.226 630.777 391.422 627.845C391.422 624.912 391.226 622.175 391.031 619.242C390.835 617.287 390.64 615.332 390.444 613.181C387.707 614.159 387.511 616.309 387.12 618.264C385.752 627.454 383.797 636.643 381.255 645.441C380.082 649.351 378.518 653.066 377.345 656.976C375.389 663.819 370.893 668.707 365.418 673.009C364.441 673.791 363.072 674.377 361.703 674.573C358.966 675.159 356.229 675.355 353.492 675.746C344.498 676.528 339.219 671.64 335.895 663.819C335.7 663.624 335.7 663.233 335.7 663.037C336.091 659.714 334.527 657.172 333.549 654.239C331.007 646.81 329.443 638.989 328.27 631.168C326.315 619.437 324.947 607.707 323.382 595.976C322.209 586.786 320.45 577.597 317.712 568.603C317.712 568.408 317.321 568.017 317.321 567.821C317.321 566.648 317.517 565.475 317.126 564.693C314.975 560.783 313.02 556.873 310.283 553.549C308.132 550.812 305.004 549.052 302.267 546.901C300.703 545.728 298.747 545.142 298.356 542.991C299.53 541.818 300.898 542.013 302.267 542.209C308.719 543.773 315.171 545.337 321.623 546.901C323.382 547.292 324.947 548.27 326.511 549.247C330.225 551.594 333.94 554.135 337.46 556.677C338.828 557.655 339.415 559.61 340.783 560.196C342.738 560.978 342.934 562.738 343.911 564.107C344.303 564.693 344.498 565.28 344.889 565.671C346.453 568.212 348.017 570.754 347.235 574.078C350.559 574.469 351.732 576.62 352.514 579.357C353.492 583.267 354.665 586.982 355.642 590.892C356.033 592.456 356.816 594.02 356.033 595.585C355.838 595.976 356.033 596.953 356.424 597.344C357.793 598.908 357.793 600.668 358.184 602.428C358.575 604.578 359.162 606.729 359.553 609.075C361.312 618.851 362.876 628.822 364.636 638.598C365.027 641.335 365.809 644.268 367.373 646.81C368.937 646.028 369.328 644.659 369.915 643.29C371.088 639.967 372.457 636.643 373.63 633.123C375.976 626.671 378.322 620.219 380.473 613.767C383.406 604.578 386.338 595.194 388.489 585.809C389.662 580.53 389.076 574.86 389.467 569.386C389.467 568.994 389.271 568.799 389.271 568.408C388.098 564.107 387.12 559.61 385.947 555.308C385.361 552.767 384.383 550.421 383.406 548.074C382.428 545.728 380.864 543.969 378.518 542.795C377.345 542.209 376.367 541.427 375.585 540.645C374.412 539.472 374.412 538.299 375.78 537.321C376.758 536.734 377.931 536.148 379.104 535.952C391.422 534.193 402.762 536.734 412.928 543.969C415.861 545.924 417.23 549.052 418.403 552.376C419.771 556.09 420.945 560.001 422.118 563.716C422.509 565.084 422.704 566.453 422.704 568.017C422.704 570.363 423.095 572.514 424.073 574.469C425.832 578.575 426.223 583.072 426.419 587.764C426.614 592.261 427.005 596.953 427.005 601.45C427.005 605.165 426.81 608.684 427.201 612.399C427.788 616.896 428.179 621.393 428.57 625.889C428.765 627.454 428.57 629.213 428.57 630.777C428.57 633.124 428.765 635.274 429.743 637.425C431.307 637.034 431.698 635.665 432.089 634.492C437.563 621.002 442.842 607.511 446.362 593.434C449.294 581.703 453.596 570.168 458.483 559.023C458.874 558.046 459.266 556.873 459.852 555.895C461.025 553.353 461.221 551.007 459.657 548.661C459.461 548.27 459.266 547.683 459.07 547.292C458.288 542.991 456.333 539.276 453.987 535.561C452.422 533.215 454.573 529.5 457.897 529.109C459.657 528.914 461.612 528.914 463.371 529.305C473.147 531.651 481.554 536.734 488.593 543.773C491.917 547.097 493.676 551.203 494.654 555.699C496.022 562.347 496.413 568.995 496.218 575.838C495.827 582.094 495.631 588.351 495.24 594.607C495.045 597.344 494.263 599.886 494.067 602.428C493.481 609.857 492.699 617.287 492.503 624.716C492.112 633.124 493.09 641.531 494.263 649.742C493.676 652.675 494.458 655.021 497 657.172Z" fill="white" fill-opacity="0.15"/>
<path d="M568.168 477.102C570.123 476.907 571.101 475.733 571.883 474.56C572.86 472.996 573.447 471.237 574.229 469.477C581.072 453.054 586.546 436.044 589.87 418.643C592.021 407.303 593.389 395.768 592.216 384.232C591.63 378.562 590.848 373.088 586.742 368.591C589.284 365.854 592.021 364.485 595.736 364.876C600.623 365.658 605.316 366.831 609.422 369.764C611.181 371.133 613.136 372.501 614.896 373.674C620.957 377.78 624.867 383.841 627.605 390.489C629.169 394.399 629.56 398.505 629.169 402.611C627.605 418.838 625.649 434.871 624.085 451.098C623.499 457.159 623.303 463.416 623.108 469.477C622.912 472.996 623.108 476.515 623.108 479.839C623.108 480.817 623.303 481.99 623.694 482.772C624.476 484.141 625.649 484.141 626.431 482.772C626.627 482.381 626.822 481.794 627.018 481.403C631.515 469.477 635.425 457.55 638.553 445.233C638.944 443.669 639.335 442.105 640.117 440.541C641.486 437.412 646.178 436.044 649.111 437.803C650.284 438.39 650.089 439.368 649.698 440.541C648.525 443.669 647.547 446.993 646.374 450.121C643.441 458.724 640.509 467.326 637.576 475.929C635.621 481.403 633.274 486.682 630.146 491.766C626.822 497.045 621.935 500.564 616.656 503.497C616.265 503.692 615.874 503.888 615.483 503.888C610.204 504.083 604.729 504.474 599.841 501.932C597.886 500.955 595.931 499.782 594.171 498.413C589.87 494.894 586.742 490.788 585.96 484.923C585.178 479.644 584.591 474.56 584.787 469.281C584.787 468.304 584.787 467.326 584.396 466.153C584.005 466.74 583.418 467.326 583.223 467.913C581.463 471.823 579.703 475.733 577.944 479.644C575.402 485.118 572.469 490.397 567.777 494.503C565.235 496.654 562.693 498.609 559.761 500.173C552.527 503.888 545.879 501.932 541.382 495.089C537.081 488.637 533.953 481.599 532.193 474.169C531.02 469.281 530.433 464.198 529.651 459.115C529.456 457.55 529.26 456.182 528.478 454.422C528.087 455.4 527.696 456.377 527.305 457.355C523.004 470.65 516.552 482.967 507.949 494.112C506.385 496.067 504.625 498.022 502.67 499.586C499.738 502.128 496.023 502.91 492.308 502.128C486.247 500.955 481.555 497.827 478.426 492.548C477.253 490.397 476.08 488.246 475.103 486.096C474.712 485.509 474.516 484.727 474.516 484.141C474.712 482.576 474.321 481.403 473.343 480.23C472.756 479.644 472.756 478.471 472.952 477.689C473.343 475.929 473.93 474.169 474.712 472.41C476.08 469.868 475.494 467.522 474.907 464.98C474.712 464.589 474.516 464.002 474.321 464.002C471.974 463.416 472.561 461.852 473.147 460.483C474.321 457.159 474.125 453.64 473.93 450.121C473.734 448.752 472.756 447.384 471.974 446.015C472.365 444.451 473.343 442.691 473.343 440.932C473.343 439.172 472.561 437.412 472.17 435.653C471.974 433.893 471.779 432.133 472.17 430.569C472.756 427.832 472.756 425.095 471.974 422.358C471.583 421.38 471.583 420.207 471.388 419.034C470.997 409.649 469.628 400.46 467.282 391.466C466.304 387.36 464.349 383.45 462.785 379.54C462.199 378.367 461.221 377.194 460.048 376.412C456.724 374.261 453.4 372.11 449.881 369.96C449.295 369.569 448.708 369.178 447.73 368.591C450.468 367.613 452.618 367.418 454.965 367.613C461.808 368.004 468.26 369.96 474.321 372.892C475.298 373.283 476.276 374.065 477.058 374.847C480.186 377.389 483.119 380.126 486.247 382.473C487.811 383.646 488.984 384.819 489.18 386.969C489.375 389.12 490.353 390.489 492.895 390.098C493.286 391.662 493.872 393.03 494.263 394.399C494.459 394.79 494.654 395.181 495.045 395.572C496.609 396.745 497 398.114 496.218 399.873C495.632 401.047 496.218 401.633 496.805 402.611C498.955 404.957 498.76 404.957 497.196 407.89C496.805 408.476 496.805 409.649 497.196 410.04C497.587 410.627 498.564 410.627 499.542 411.018C499.151 411.995 499.346 413.169 500.129 414.537C501.693 417.47 502.084 420.989 501.693 424.313C501.497 425.682 501.693 426.855 502.866 427.832C504.625 429.592 504.625 429.983 502.475 431.547C502.084 431.938 501.693 432.133 500.715 432.72C502.084 432.916 503.061 432.916 504.039 433.111C505.603 435.653 502.279 435.457 501.888 437.217C502.866 437.608 503.648 437.999 504.821 438.585C504.43 439.172 504.039 439.759 503.648 440.541C505.212 441.518 505.016 443.082 505.212 444.646C505.798 452.858 504.625 461.265 506.19 469.477C506.581 471.237 506.385 473.387 508.536 474.951C509.122 474.169 509.709 473.583 510.295 472.996C518.116 460.483 524.177 447.384 526.719 432.72C527.892 425.877 527.892 418.838 527.305 411.995C526.328 401.438 525.546 390.88 524.568 380.322C524.177 376.803 523.395 373.283 521.049 370.351C519.094 368.004 520.071 366.049 523.199 365.854C526.523 365.658 530.042 365.463 533.171 366.245C541.382 368.2 549.007 371.915 555.85 376.607C559.761 379.149 561.716 383.255 561.911 387.752C562.107 392.835 561.716 397.918 561.911 403.002C562.107 412.386 562.302 421.576 562.693 430.96C562.889 437.021 562.889 443.082 563.28 448.948C563.671 458.137 565.04 467.131 567.19 475.929C567.581 476.32 567.972 476.711 568.168 477.102ZM477.84 401.829C475.298 401.633 474.125 402.22 473.93 403.393C473.734 404.37 474.712 405.543 475.689 405.543C476.862 405.543 477.644 404.37 477.84 401.829ZM470.801 391.857C471.779 392.248 472.365 392.444 472.952 392.639C473.538 392.835 474.125 393.03 474.907 393.226C475.298 391.857 475.494 390.88 474.321 390.098C473.343 389.707 471.779 390.489 470.801 391.857Z" fill="white" fill-opacity="0.15"/>
<path d="M214.48 407.89C214.089 408.867 213.503 409.845 213.112 410.823C210.57 417.275 207.637 423.531 204.313 429.592C198.252 440.345 193.56 451.685 189.259 463.025C185.544 473.192 181.829 483.359 178.114 493.526C177.137 496.263 175.768 498.804 173.422 500.564C168.534 504.279 162.864 503.106 160.127 497.436C159.149 495.285 158.563 492.939 158.172 490.788C156.021 479.253 155.044 467.522 154.457 455.791C153.675 441.714 153.088 427.637 150.742 413.755C149.569 406.521 148.005 399.287 145.268 392.444C143.508 388.338 141.357 384.428 138.229 381.104C133.732 376.412 128.258 373.284 121.61 372.697C120.046 372.502 118.287 372.306 117.309 370.351C121.415 368.2 125.716 367.027 130.213 366.636C140.184 365.659 149.374 367.614 157.781 373.088C160.518 374.848 163.06 376.803 165.015 379.736C165.406 380.322 165.992 380.909 166.383 381.3C172.249 387.361 175.768 394.595 177.723 402.611C180.069 412.191 181.829 421.967 182.611 431.938C183.002 436.24 183.393 440.736 183.198 445.038C183.002 446.993 183.393 448.753 183.393 450.708C183.589 450.708 183.784 450.903 183.98 450.903C184.371 450.317 184.957 449.926 185.153 449.339C193.756 430.765 202.749 412.387 209.788 393.226C212.525 385.601 216.044 378.367 218.977 370.937C219.564 369.569 219.955 368.2 220.541 366.832C221.714 364.094 222.496 361.357 221.128 358.424C224.647 356.86 227.971 357.056 231.295 358.033C234.032 359.011 236.573 360.184 239.115 361.553C244.199 364.29 248.5 368.005 252.606 372.111C254.756 374.261 256.32 376.607 256.516 379.931C256.516 380.909 256.907 381.886 257.103 382.864C258.08 385.406 258.276 387.947 257.494 390.684C255.538 398.505 253.388 406.326 251.628 414.146C248.5 428.81 245.567 443.278 242.83 457.942C242.048 461.657 242.048 465.567 241.461 469.477C241.461 470.259 241.461 471.041 241.07 471.628C239.311 474.365 239.897 477.689 239.115 480.817C238.92 481.599 238.724 482.577 238.92 483.163C239.311 484.923 239.311 486.487 238.724 488.247C238.529 488.638 238.529 489.224 238.529 489.811C238.724 492.352 240.288 493.135 242.439 491.961L242.634 491.766C247.522 487.074 252.606 482.186 254.17 475.147C254.561 473.583 254.365 472.019 254.561 470.064C255.147 470.064 255.734 469.868 256.32 469.868C258.471 470.65 261.013 471.041 262.968 472.214C266.878 474.561 270.789 477.102 274.308 480.035C278.414 483.359 279.391 488.247 279.782 493.33C280.173 498.413 279.391 503.497 277.827 508.385C272.744 524.417 267.269 540.449 258.862 555.308C251.237 568.799 240.875 579.748 227.58 587.959C221.91 591.479 215.653 593.434 209.006 593.629C201.381 593.825 194.342 591.674 188.281 586.786C187.499 586.2 186.913 585.418 186.326 584.44C182.611 577.793 181.243 570.559 183.98 563.325C190.236 546.901 201.967 536.343 218.586 531.26C220.15 530.673 221.91 530.673 223.669 530.478C224.256 530.478 225.234 531.064 225.429 531.651C225.625 532.238 225.038 533.215 224.451 533.606C222.496 534.779 220.346 535.757 218.195 536.93C216.24 537.908 214.285 539.081 212.33 540.254C202.945 545.142 196.884 552.962 192.778 562.347C191.605 565.084 190.627 568.212 190.236 571.145C189.063 578.184 193.56 582.876 200.599 582.681C206.855 582.485 212.525 580.53 217.804 577.597C219.368 576.62 220.932 575.251 222.105 573.882C226.211 568.603 230.317 563.324 234.032 557.85C238.333 551.398 240.484 544.164 242.048 536.734C244.199 525.59 246.545 514.25 248.695 503.106C249.282 500.564 249.477 497.827 249.868 495.09C247.913 494.894 247.327 496.458 246.545 497.24C243.612 500.955 239.702 503.106 235.205 504.083C231.295 505.061 227.775 504.279 224.451 501.933C220.932 499.586 218.586 496.263 216.631 492.743C213.112 486.096 211.743 478.862 211.547 471.432C211.156 451.49 212.33 431.743 214.089 411.996C214.285 410.627 214.48 409.454 214.676 408.085C214.871 408.085 214.676 408.085 214.48 407.89Z" fill="white" fill-opacity="0.15"/>
<path d="M262.187 193.605C263.36 193.214 263.946 192.823 264.728 192.823C266.879 193.019 269.03 193.019 270.985 193.801C275.091 195.169 279.196 196.929 283.302 198.689C290.145 201.817 294.838 207.096 297.77 213.743C300.703 220.195 302.463 227.038 303.44 234.077C303.831 236.814 304.222 239.551 305.2 242.484C305.395 241.702 305.786 241.115 305.982 240.333C307.546 235.445 309.11 230.362 310.674 225.474C313.607 216.285 318.495 208.269 323.969 200.448C326.511 196.733 329.639 193.801 333.159 191.064C341.175 184.807 352.71 183.634 360.726 188.717C362.486 189.695 364.05 190.868 364.832 193.019C365.223 193.996 366.592 194.974 367.765 195.56C374.217 198.493 377.15 203.772 378.323 210.224C378.518 210.811 378.518 211.397 378.714 211.984C381.451 218.436 381.255 225.083 380.669 231.926C380.669 233.099 380.473 234.272 380.278 236.032C382.819 235.25 384.97 234.468 387.121 233.881C389.271 233.295 391.227 233.49 392.791 235.641C390.836 237.596 388.685 238.574 386.143 239.551C383.993 240.333 381.842 241.311 379.691 242.289C378.518 242.875 377.932 243.853 377.736 245.221C376.954 252.26 374.412 258.712 372.457 265.359C370.893 271.029 368.742 276.504 366.787 281.783C364.637 287.648 361.899 293.514 357.598 298.401C355.643 300.552 354.274 303.094 352.319 305.244C347.431 310.328 341.957 314.043 334.918 315.411C334.332 315.607 333.745 315.607 333.354 315.802C330.421 318.344 326.707 318.148 323.187 318.539C322.014 318.735 320.646 318.344 319.472 317.757C317.322 316.78 315.171 315.802 313.216 314.434C312.434 314.043 311.847 313.065 311.456 312.088C310.479 309.155 310.479 306.027 311.065 302.898C312.825 293.514 316.931 285.106 322.21 277.09C327.684 268.879 334.332 261.84 342.348 256.366C344.889 254.606 346.454 252.455 347.236 249.523C349.191 241.311 351.341 233.295 353.297 225.083C355.447 216.481 354.47 208.073 351.928 199.666C350.755 195.951 348.8 194.778 344.889 195.56C339.611 196.733 335.309 199.08 332.181 203.772C327.88 209.833 324.751 216.089 321.819 222.933C315.953 236.032 312.434 249.718 309.501 263.6C308.915 266.728 308.328 270.052 307.351 273.18C305.004 280.609 305.004 288.039 305.395 295.664C305.591 300.748 306.177 305.635 306.373 310.719C306.568 316.389 306.373 322.254 306.568 327.924C306.96 342.001 307.155 355.883 307.742 369.96C308.328 386.774 310.674 403.198 316.931 418.839C317.713 420.794 318.495 422.554 319.081 424.704C319.668 426.464 320.255 428.419 320.255 430.374C320.255 434.48 321.623 437.999 324.556 440.541C328.466 443.865 332.768 446.798 337.069 449.926C337.851 450.512 338.829 451.099 339.806 451.685C338.242 454.814 336.873 455.596 333.941 454.814C332.768 454.423 331.594 454.227 330.421 453.641C323.383 450.708 316.149 447.971 309.11 445.038C307.351 444.256 305.786 442.887 304.613 441.519C301.681 438.781 299.334 435.458 296.206 432.916C294.642 431.547 294.056 429.983 293.273 428.419C291.905 425.291 290.145 422.163 288.777 419.034C288.19 417.666 287.995 415.906 287.604 414.342C287.408 413.755 287.408 413.169 287.017 412.582C286.43 411.214 285.453 409.845 284.866 408.281C281.934 398.896 280.369 389.121 279.001 379.54C277.437 367.614 277.046 355.492 276.85 343.37C276.655 331.248 276.459 319.322 276.264 307.2C276.068 297.033 275.677 286.67 275.482 276.504C275.482 275.331 275.286 274.353 275.091 273.18C274.895 271.225 274.504 269.074 274.504 267.119C274.504 257.539 274.699 248.154 274.308 238.574C273.917 230.753 273.135 223.128 272.158 215.307C271.376 208.855 268.639 202.99 265.706 197.124C265.51 196.342 263.946 195.365 262.187 193.605ZM343.325 263.795C342.348 264.577 341.957 264.773 341.566 264.968C338.242 268.488 334.723 271.811 331.594 275.331C327.489 279.827 324.947 285.302 322.796 290.972C321.819 293.514 322.21 296.251 323.383 298.792C324.165 300.552 325.533 300.748 326.707 299.379C327.293 298.792 327.88 298.01 328.271 297.228C329.248 295.469 330.03 293.709 331.008 292.145C335.309 284.129 339.415 275.917 342.348 267.314C342.739 266.337 342.934 265.359 343.325 263.795Z" fill="white" fill-opacity="0.15"/>
<path d="M578.725 327.533C577.748 326.751 577.161 325.969 576.379 325.578C575.01 324.796 573.642 324.209 574.033 322.254C574.033 322.058 574.033 321.863 573.837 321.667C571.491 320.103 572.469 317.953 572.664 315.802C575.01 299.183 575.792 282.369 575.988 265.75C576.379 247.763 576.379 229.971 576.379 211.983C576.379 210.81 576.379 209.833 576.379 208.66C576.183 208.464 575.988 208.464 575.792 208.269C575.206 208.855 574.424 209.246 573.837 209.833C569.34 214.916 565.626 220.586 562.497 226.647C555.459 239.942 551.94 254.41 547.834 268.878C547.247 270.834 547.443 272.984 547.443 274.939C547.834 282.369 548.616 289.798 549.007 297.228C549.398 305.44 549.593 313.651 549.984 321.667C549.984 323.232 549.984 324.6 548.029 324.796C547.834 324.796 547.443 324.991 547.247 325.187C544.51 329.097 540.6 327.533 537.08 327.337C536.298 327.337 535.712 326.751 534.93 326.946C531.802 327.533 529.26 325.969 526.523 324.796C525.545 324.405 525.154 323.623 524.763 322.645C522.026 317.366 523.785 311.892 523.59 306.417C523.199 297.815 523.785 289.016 523.394 280.414C522.612 265.946 521.048 251.673 518.311 237.596C516.942 231.144 515.574 224.692 514.01 218.24C511.859 209.246 506.776 202.012 499.346 196.538C497.977 195.56 496.804 194.583 495.436 193.409C495.24 193.214 495.045 192.823 494.849 192.432C496.804 190.868 498.955 191.063 501.106 191.259C506.189 192.041 511.077 193.605 515.574 195.951C520.071 198.297 523.981 201.426 527.5 204.945C528.087 205.531 528.673 206.313 529.064 207.096C531.215 210.615 533.17 214.134 535.321 217.653C537.471 220.977 539.036 224.496 539.818 228.407C541.382 235.25 542.75 241.897 544.51 249.522C545.097 248.349 545.292 247.763 545.488 247.176C548.029 238.182 551.549 229.384 555.654 220.977C558.978 213.939 563.279 207.682 568.754 202.208C569.731 201.23 570.514 200.057 571.1 198.688C573.055 194.778 577.357 192.823 581.658 194.191C582.635 194.583 583.809 194.974 584.591 195.756C588.696 198.884 592.802 202.208 596.713 205.727C597.886 206.704 598.668 208.464 599.059 210.028C599.841 214.134 600.623 218.435 600.818 222.737C601.209 229.189 601.209 235.641 601.6 242.093C601.6 242.679 601.796 243.461 601.991 244.634C602.774 243.657 603.165 243.266 603.36 242.679C605.511 238.769 607.466 234.663 610.008 230.948C615.287 223.519 620.565 216.285 626.235 209.442C629.559 205.336 634.447 202.794 638.944 199.861C641.095 198.493 643.05 197.32 645.2 196.147C645.982 195.756 647.156 195.56 648.133 195.169C648.915 194.974 649.502 194.974 650.284 194.778C651.652 194.387 652.825 193.409 654.39 194.191C656.54 195.169 658.3 196.342 659.668 198.297C661.819 201.426 663.97 204.554 666.121 207.682C667.88 210.028 669.053 212.765 668.662 215.698C668.076 220 667.489 224.496 666.316 228.602C661.037 246.59 655.367 264.381 650.088 282.369C647.351 291.167 645.591 300.161 645.396 309.546C645.396 310.719 645.005 311.696 645.005 312.869C645.005 314.433 644.809 315.998 646.373 317.366C647.156 316.389 647.938 315.411 648.72 314.433C654.976 305.831 659.864 296.25 664.752 286.866C665.925 284.52 667.098 282.173 669.444 280.414C670.226 281 671.204 281.391 671.986 281.978C674.332 283.737 674.723 285.106 673.746 287.843C673.55 288.234 673.355 288.821 673.159 289.212C668.662 299.379 663.579 309.154 656.345 317.562C653.608 320.885 651.066 324.405 648.133 327.337C645.787 329.684 642.854 331.248 639.921 332.812C636.989 334.376 634.838 333.203 632.687 331.834C631.319 331.052 630.146 330.075 628.777 329.293C625.258 327.337 623.303 324.209 622.521 320.299C622.521 320.103 622.521 320.103 622.521 319.908C619.979 316.975 620.37 313.26 620.37 309.741C620.37 306.222 620.565 302.507 620.761 298.988C620.956 294.1 622.325 289.407 623.107 284.52C624.085 279.241 625.062 273.766 626.626 268.683C631.514 253.237 636.598 237.791 641.486 222.346C642.854 217.849 644.027 213.352 645.2 208.66C645.396 207.487 645.2 206.313 645.2 204.945C644.223 205.14 643.832 205.14 643.245 205.336C638.748 207.487 634.643 210.028 631.514 213.939C622.912 224.301 614.7 235.054 608.639 247.176C607.466 249.522 606.293 251.869 605.12 254.41C603.36 258.125 602.383 261.84 602.187 266.141C601.991 279.045 601.014 292.145 600.232 305.049C599.841 310.328 599.45 315.411 599.059 320.69C598.863 322.254 598.277 323.623 597.69 324.991C596.126 327.924 594.953 328.315 591.629 327.728C590.065 327.533 588.501 327.533 586.937 327.533C586.741 327.533 586.546 327.728 586.35 327.728C583.809 329.488 583.613 329.684 581.462 327.728C580.68 326.751 579.898 326.946 578.725 327.533Z" fill="white" fill-opacity="0.15"/>
<path d="M196.492 154.502C200.207 151.96 202.749 149.027 204.704 145.704C210.178 137.101 215.653 128.694 219.367 119.113C221.323 114.226 224.451 112.27 229.534 112.466C229.339 113.444 229.339 114.617 228.948 115.594C226.797 120.091 224.842 124.392 222.496 128.889C220.541 132.604 218.194 135.928 216.63 139.838C215.653 142.38 214.089 144.726 212.329 146.877C208.614 152.156 204.899 157.434 200.598 162.322C192.973 171.316 181.438 170.338 174.008 163.886C171.857 161.931 170.684 159.194 170.684 156.261C170.684 155.479 170.489 154.697 170.098 153.915C166.969 148.05 165.992 141.598 165.796 134.95C165.405 125.565 166.383 116.376 167.947 107.187C168.338 104.45 168.925 101.713 168.925 98.9754C168.534 99.5619 168.142 100.148 167.947 100.931C163.646 111.097 159.344 121.46 154.847 131.626C153.479 134.95 151.719 138.078 150.351 141.402C149.764 142.771 148.982 144.139 148.591 145.704C147.027 151.374 143.899 156.457 140.575 161.149C139.206 163.104 137.447 164.669 135.1 165.451C134.514 165.646 133.927 165.842 133.536 166.233C131.19 168.579 128.257 168.579 125.129 168.188C121.805 167.797 118.482 167.015 115.94 164.473C114.962 163.691 114.767 161.931 114.376 160.758C113.789 158.608 113.594 156.261 112.812 154.306C109.683 147.854 108.706 140.816 108.315 133.777C107.142 115.594 105.382 97.4113 103.231 79.4239C102.84 75.5136 102.058 71.7988 101.472 67.8885C101.472 67.4974 101.472 67.3019 101.276 66.9109C98.9301 60.8499 96.5839 54.9845 94.0422 49.119C92.6736 45.7952 89.9364 43.4491 87.0036 41.4939C85.635 40.5163 84.0709 39.5387 82.8978 38.3657C82.3113 37.9746 81.9202 37.1926 81.1382 36.4105C81.9202 36.0195 82.5068 35.6285 83.0933 35.6285C85.8306 35.2374 88.5678 34.6509 91.305 34.6509C98.539 34.6509 105.578 35.4329 112.03 38.7567C116.331 40.9074 119.655 44.2311 122.392 48.1414C130.604 59.4813 134.905 72.1898 137.447 85.6804C139.011 93.6965 140.379 101.517 141.552 109.533C142.53 116.181 142.921 122.633 143.508 129.28C143.508 130.062 143.899 131.04 144.681 132.017C145.072 131.235 145.658 130.649 146.049 129.867C154.261 114.226 161.69 98.3889 166.774 81.379C169.511 72.1898 173.421 63.3916 176.745 54.3979C177.332 53.0293 177.527 51.8562 177.332 50.2921C177.136 47.1639 178.114 44.2311 180.069 41.6894C183.588 36.997 188.476 35.0419 194.342 36.0195C199.62 36.8015 204.704 38.1702 209.592 40.5163C213.893 42.4715 216.63 45.9908 217.217 50.6831C217.412 52.8338 217.217 54.9845 216.63 57.1351C214.48 65.9333 214.089 75.1225 211.351 83.9207C209.592 89.3952 208.614 95.2606 207.246 100.931C205.486 109.142 203.726 117.354 202.162 125.37C201.771 127.325 201.967 129.476 201.38 131.431C200.207 136.123 198.643 140.816 197.274 145.508C196.492 148.05 196.101 150.396 195.515 152.938C195.515 153.133 196.101 153.72 196.492 154.502Z" fill="white" fill-opacity="0.15"/>
<path d="M332.376 151.374C333.549 149.419 334.918 147.464 336.091 145.508C341.174 136.319 345.476 126.934 349.191 117.159C350.559 113.444 352.905 111.098 356.816 110.511C359.162 110.12 359.944 110.902 359.357 113.248C359.162 114.226 358.771 115.008 358.38 115.79C353.101 126.934 348.017 138.079 342.348 149.028C339.61 154.307 337.069 159.586 333.354 164.278C332.963 164.864 332.572 165.646 331.985 165.842C327.488 167.993 322.992 170.73 317.517 170.339C314.584 170.143 311.652 169.361 309.11 167.602C307.35 166.233 305.982 165.06 305.591 162.518C305.395 160.563 304.027 158.803 303.44 156.848C302.658 153.329 302.071 149.614 301.289 146.095C300.898 144.14 300.312 142.185 301.68 140.23C301.876 140.034 301.876 139.643 301.876 139.252C301.094 132.604 303.244 126.152 303.636 119.505C303.831 117.159 303.831 114.813 304.027 112.466C304.027 111.88 303.636 111.293 303.44 110.12C302.658 110.902 302.267 111.098 302.071 111.684C298.552 118.918 295.033 125.957 291.905 133.386C289.167 139.447 286.626 145.704 284.279 152.156C282.715 156.262 280.565 159.977 278.219 163.496C277.632 164.278 276.85 165.255 276.068 165.647C272.549 167.211 269.029 169.166 265.315 170.143C260.622 171.512 256.516 169.752 253.584 165.647C249.673 160.368 247.523 154.307 246.545 147.855C246.35 146.877 246.545 145.508 247.132 144.726C248.109 143.358 248.305 141.989 248.109 140.425C247.132 130.258 246.35 120.287 245.372 110.12C244.785 103.864 243.808 97.6072 243.026 91.3507C242.83 89.7866 242.048 88.2224 241.657 86.6583C241.462 86.2673 241.071 85.8763 241.071 85.4852C241.657 80.0108 239.311 74.9274 238.333 69.6485C237.356 64.3696 235.987 59.2862 234.619 54.2028C234.228 53.0297 233.837 51.8566 233.054 50.879C229.926 46.9687 227.58 42.6674 223.474 39.9302C223.279 39.7347 223.083 39.5392 222.888 39.1481C224.647 37.975 226.602 38.1705 228.558 38.3661C235.792 38.9526 242.83 40.1257 249.478 42.8629C253.193 44.427 256.516 46.7732 258.08 50.6835C258.471 51.4656 259.058 52.2477 259.645 52.8342C263.555 56.94 266.488 61.4368 267.856 67.1068C268.834 70.8216 270.007 74.3409 271.18 77.8601C271.375 78.4467 271.571 79.2287 271.962 79.8153C274.308 83.5301 275.481 87.8314 276.263 92.1328C277.632 99.9534 279.196 107.578 280.369 115.399C280.956 118.723 280.956 122.047 281.347 125.37C281.542 127.325 281.933 129.085 282.715 131.236C283.302 130.258 284.084 129.476 284.475 128.303C289.363 117.55 294.446 106.796 299.139 95.8476C306.177 80.0108 312.825 63.9786 319.668 47.9463C320.254 46.5777 320.645 45.2091 320.841 43.8405C321.036 42.0808 321.623 41.1033 323.383 41.1033C327.488 40.9078 331.594 40.9078 335.505 42.8629C339.806 45.0136 344.107 47.1643 347.822 50.2925C348.8 51.0746 349.777 52.0521 350.559 53.2252C352.71 55.9624 353.101 58.6997 351.341 62.0234C349.973 64.5651 349.582 67.4978 348.8 70.235C346.649 78.6422 344.498 87.0493 342.543 95.4565C340.783 102.886 339.024 110.316 337.264 117.745C336.482 120.678 336.091 123.415 336.091 126.543C336.091 128.694 335.504 130.649 335.113 132.8C335.113 133.191 334.918 133.386 334.918 133.582C333.94 139.056 332.767 144.335 331.79 149.81C331.79 150.201 331.79 150.787 331.79 151.374C331.79 151.178 332.181 151.178 332.376 151.374Z" fill="white" fill-opacity="0.15"/>
<path d="M234.422 314.629C235.4 313.26 235.987 312.478 236.378 311.696C239.115 306.417 241.852 301.138 244.589 295.859C248.5 288.625 251.041 280.805 252.996 272.788C253.387 271.615 253.387 270.247 253.583 268.878C256.125 267.51 257.298 267.51 259.253 269.269C261.795 271.615 262.772 274.548 261.795 278.067C260.035 283.737 256.907 288.625 254.365 293.904C252.019 298.792 249.673 303.484 247.131 308.177C244.589 312.674 241.852 317.17 239.31 321.667C239.115 322.058 238.724 322.254 238.724 322.645C237.16 327.533 233.64 330.856 230.512 334.767C226.015 340.046 217.804 337.895 215.066 334.18C214.48 333.203 213.698 332.421 213.307 331.248C209.788 323.818 207.246 316.193 206.659 307.786C206.073 297.032 207.246 286.279 208.81 275.721C211.156 260.08 215.066 244.83 219.759 229.775C222.105 222.346 224.842 214.916 227.384 207.486C228.166 205.336 228.753 202.989 229.339 200.643C227.775 200.448 227.188 201.425 226.602 202.012C222.692 206.313 219.368 210.81 216.435 215.894C214.48 219.217 212.525 222.541 210.374 225.865C207.637 230.166 205.486 234.859 204.118 239.746C203.336 242.679 201.967 245.416 200.794 248.349C198.057 255.974 195.319 263.599 192.973 271.224C191.214 276.699 191.214 282.564 191.605 288.234C192.191 296.25 192.778 304.266 192.973 312.478C193.169 316.584 192.778 320.69 192.778 324.796C192.778 326.751 192.973 328.901 193.169 330.856C193.364 332.616 192.778 333.789 191.018 334.571C190.627 334.767 190.236 334.962 190.04 335.158C183.784 339.85 177.136 339.459 170.293 337.309C166.774 336.135 165.21 334.376 165.015 330.661C164.819 328.119 164.819 325.578 164.819 323.036C164.819 314.824 164.819 306.417 164.819 298.205C164.819 297.814 164.819 297.619 164.819 297.228C163.255 289.603 163.841 281.978 163.255 274.353C162.473 266.727 162.082 259.102 161.3 251.477C160.127 239.942 158.563 228.602 154.652 217.653C154.261 216.48 153.284 215.502 152.697 214.329C152.111 213.547 151.524 212.765 151.133 211.788C149.764 208.855 148.591 205.922 147.223 202.794C150.155 202.403 152.697 202.989 155.239 204.163C160.322 206.509 165.406 208.855 169.902 212.374C173.617 215.307 176.745 218.435 178.701 222.737C178.896 223.128 179.092 223.519 179.483 223.714C182.415 226.256 183.784 229.58 184.762 233.099C186.912 240.528 188.867 247.958 189.258 255.583C189.258 256.365 189.649 257.147 189.845 258.516C190.432 257.147 190.823 256.561 191.018 255.779C195.124 242.484 200.794 229.775 207.246 217.458C211.156 210.028 215.653 203.185 221.127 196.929C224.06 193.605 227.384 190.868 230.708 187.935C232.467 186.371 234.618 185.589 236.964 186.957C237.355 187.153 237.746 187.348 238.137 187.153C241.266 186.371 243.416 188.326 245.567 190.085C249.868 193.605 253.387 197.515 254.952 202.989C255.929 205.922 256.125 208.659 255.147 211.592C252.019 221.172 248.695 230.557 245.958 240.137C243.221 249.522 241.07 258.907 238.919 268.292C236.378 278.654 235.009 289.212 234.227 299.77C233.836 303.875 234.227 307.981 234.227 312.087C233.64 312.869 234.031 313.456 234.422 314.629Z" fill="white" fill-opacity="0.15"/>
<path d="M81.9209 369.96C86.6133 366.049 91.3056 363.899 97.3666 365.072C107.338 367.222 114.767 373.088 120.633 381.104C123.566 385.21 123.761 389.707 122.588 394.203C121.806 397.723 120.828 401.046 117.896 403.588C115.941 405.348 114.963 408.085 113.203 410.236C111.835 411.8 110.075 413.168 108.511 414.537C107.729 415.319 106.751 415.906 105.969 416.688C104.014 418.447 101.863 420.011 99.9083 421.771C99.1263 422.358 98.7352 423.14 97.9532 423.726C95.8025 425.877 93.6518 428.028 91.5012 430.178C90.9146 430.765 90.3281 431.351 89.7415 431.938C88.7639 433.111 88.1774 434.284 87.0043 435.262C85.8312 436.239 85.4402 437.412 86.0267 438.781C86.4178 439.759 86.8088 440.932 87.3953 441.909C92.4787 453.054 98.5397 463.611 105.578 473.583C106.751 475.147 108.12 476.515 109.684 477.688C111.248 478.862 112.617 478.471 113.594 476.906C114.572 475.147 115.354 473.387 115.745 471.432C117.896 462.243 119.851 452.858 121.806 443.473C122.002 442.496 122.197 441.518 122.393 440.541C122.979 437.999 122.784 435.457 120.828 433.307C120.242 432.72 120.242 431.938 119.851 431.156C120.437 430.765 120.828 430.569 121.219 430.569C124.739 430.96 128.063 431.938 130.604 434.48C131.973 435.848 132.559 437.608 132.364 439.563C131.973 443.082 131.777 446.602 130.995 450.121C128.649 461.461 124.739 472.214 119.069 482.185C116.527 486.487 113.79 490.788 110.075 494.112C108.12 495.871 105.774 497.631 103.428 498.804C98.5397 501.346 93.4563 501.346 88.3729 498.804C81.1389 495.089 75.0779 490.006 70.581 483.163C67.8438 479.057 65.3021 474.951 62.5649 470.845C61.7828 469.672 61.0008 468.499 60.2187 467.131C57.8725 463.611 57.286 463.416 54.7443 466.544C50.0519 472.019 45.7506 477.884 42.0358 484.141C38.321 490.397 35.5838 497.24 34.4107 504.474C34.0197 506.82 33.8241 509.166 34.2152 511.513C34.9972 517.965 40.0806 520.897 46.3371 519.333C53.3757 517.574 58.8501 513.663 64.129 508.971C64.3245 508.775 64.52 508.775 64.52 508.58C65.3021 507.798 66.2797 507.016 67.4528 507.798C68.6259 508.58 68.0393 509.753 67.6483 510.535C66.8662 512.881 65.8887 515.032 64.9111 517.378C63.5425 520.311 62.1739 523.244 61.0008 526.372C59.4367 530.282 56.3084 532.433 52.5936 533.215C40.6672 535.561 31.0869 531.064 23.0708 522.657C18.7695 518.356 18.3784 512.686 19.356 506.82C20.3336 499.586 23.2663 493.134 26.199 486.487C31.6735 474.365 39.6896 464.002 48.6833 454.422C51.8116 451.098 52.3981 448.361 50.2474 444.451C48.0968 440.541 46.5326 436.239 44.9685 432.133C44.5775 430.96 44.5775 429.787 44.382 428.223C43.7954 427.441 43.0134 426.463 42.4268 425.095C39.2986 416.492 36.3658 407.89 33.2376 399.482C31.478 394.79 29.5228 390.489 26.5901 386.383C24.8304 384.037 23.0708 381.886 20.9201 379.931C16.8143 376.216 12.1219 375.434 6.84304 376.803C3.12824 377.78 2.34618 377.585 0 373.674C0.782061 371.915 2.73721 371.719 4.30134 371.133C15.4457 367.418 26.1991 368.982 36.5614 373.674C51.616 380.517 62.9559 391.271 70.581 406.13C71.9496 408.867 73.5138 411.8 75.0779 414.537C75.4689 415.319 76.251 416.297 76.8375 417.274C77.6196 416.492 78.2061 415.906 78.5972 415.319C84.8536 406.13 90.5236 396.55 94.4339 385.992C95.0204 384.232 95.607 382.473 95.8025 380.713C96.389 377.976 95.216 376.216 92.6743 375.043C90.3281 373.87 87.9819 372.892 85.6357 371.719C84.2671 371.524 83.2895 370.742 81.9209 369.96Z" fill="white" fill-opacity="0.15"/>
<path d="M432.871 58.5039C427.006 62.2187 415.079 81.3792 414.102 88.8088C415.666 88.8088 417.23 89.0043 418.794 89.0043C422.118 89.0043 425.637 89.0043 428.765 90.3729C436.39 93.6967 443.038 98.1935 447.144 105.819C450.272 111.684 451.836 118.136 450.077 124.784C449.294 127.521 450.077 130.258 449.881 132.995C449.686 139.447 449.881 146.095 448.708 152.547C448.317 154.502 448.317 156.457 448.317 158.412C448.317 159.585 448.708 160.954 450.077 160.954C450.859 161.149 452.227 160.563 452.618 159.976C453.987 158.217 455.355 156.457 456.138 154.306C458.875 147.268 460.243 139.838 459.657 132.018C459.657 131.431 459.657 130.845 459.657 130.063C462.785 129.28 465.327 130.649 467.477 132.409C468.064 132.995 468.259 134.364 468.259 135.341C467.868 140.425 467.477 145.508 466.695 150.592C464.74 161.932 457.311 169.166 447.144 173.662C445.384 174.444 442.842 174.64 440.887 174.249C427.788 172.294 419.967 164.864 417.621 152.351C416.057 144.14 415.861 135.928 416.057 127.716C416.252 121.655 416.057 115.594 415.666 109.729C415.47 106.992 414.493 104.45 412.733 102.495C410.778 100.344 409.409 100.54 408.236 103.277C406.477 107.187 405.108 111.098 406.086 115.399C406.281 116.181 406.086 117.159 406.086 118.136C405.89 121.069 405.695 124.002 405.499 126.934C404.913 134.559 404.326 141.989 403.935 149.614C403.935 150.396 403.935 151.178 404.13 151.96C405.108 157.435 402.175 161.54 398.852 165.451C398.656 165.646 398.265 165.842 398.07 165.842C394.941 166.233 392.009 167.21 388.88 167.015C386.143 167.015 383.406 166.037 380.864 165.06C380.082 164.669 379.496 163.496 379.104 162.518C378.322 160.367 377.54 158.021 376.954 155.871C376.563 154.502 376.367 153.133 376.367 151.569C376.367 137.883 376.367 124.393 376.367 110.707C376.367 105.623 376.172 100.735 376.172 95.6518C376.367 82.7478 374.608 70.0393 372.848 57.1353C372.457 53.8116 371.675 50.6833 371.088 47.5551C370.306 44.0358 368.351 41.6896 364.832 40.712C362.681 40.1255 362.29 39.7345 360.726 37.7793C366.005 35.2376 371.479 33.478 377.54 35.0421C383.797 36.6062 389.662 38.3659 394.941 42.4717C398.461 45.0134 400.025 48.7282 401.002 52.4429C401.393 54.3981 402.566 56.1578 402.957 58.1129C403.544 61.2412 404.326 64.5649 404.913 67.6931C405.499 71.0169 405.89 74.5362 406.477 78.4465C407.063 77.6644 407.65 77.2734 407.845 76.6869C408.432 75.9048 408.823 74.9272 409.214 73.9496C414.493 62.6097 422.509 53.6161 432.48 46.382C434.435 45.0134 436.39 43.4492 438.541 42.2762C441.083 40.5165 443.429 38.7569 444.798 35.8241C445.58 33.869 447.535 33.2825 449.49 33.478C451.445 33.6735 453.4 34.0645 455.16 34.6511C458.875 36.0197 462.785 37.3883 466.304 39.1479C468.846 40.5165 471.388 42.2762 473.538 44.0358C475.689 45.7955 476.08 48.3371 474.711 50.8788C474.125 51.8564 473.343 53.0295 472.561 53.8116C469.042 57.7219 465.718 61.8277 462.003 65.347C459.266 68.0842 455.942 70.0393 451.836 70.8214C450.859 71.0169 449.881 71.6034 449.099 71.9945C445.189 74.3407 441.278 73.9496 437.564 71.6035C436.39 70.8214 435.217 69.2573 434.826 67.6931C434.24 65.347 434.044 62.6098 433.653 60.0681C433.067 60.0681 432.871 59.4815 432.871 58.5039Z" fill="white" fill-opacity="0.15"/>
<path d="M443.82 457.16C448.512 458.724 450.663 461.266 450.859 465.958C451.054 469.477 450.663 472.997 448.903 476.125C447.339 479.253 445.775 482.381 444.016 485.314C437.759 496.263 428.179 502.519 415.861 504.474C411.951 505.061 408.236 504.474 404.717 502.91C401.98 501.737 399.242 500.564 396.701 499C395.332 498.218 393.964 496.654 393.182 495.285C389.271 488.833 387.707 481.795 387.512 474.17C387.512 472.019 386.925 469.868 386.925 467.718C386.925 464.98 387.316 462.243 387.707 459.506C388.294 454.814 389.076 450.121 389.662 445.624C389.662 445.233 389.662 444.842 389.662 444.451C388.098 443.669 386.73 444.647 385.752 445.233C382.819 446.993 379.691 448.362 376.172 448.948C370.697 449.926 365.418 448.948 360.335 446.602C359.162 446.015 357.989 444.842 357.011 443.865C356.034 442.887 355.447 441.91 354.47 440.541C355.056 440.345 355.643 440.345 356.62 439.954C355.056 437.608 353.492 435.458 352.123 433.111C350.755 430.765 349.582 428.224 348.213 425.486C349.973 425.095 350.364 424.313 350.168 422.945C349.191 418.643 348.604 414.342 347.822 410.041C347.822 409.65 347.431 408.868 347.822 408.672C348.995 407.303 348.8 405.935 347.822 404.371C347.626 404.175 347.626 403.98 347.626 403.784C349.191 400.265 345.671 398.31 345.671 395.181C344.694 395.377 343.912 395.572 343.13 395.768C342.934 394.986 342.543 394.204 342.543 393.422C341.37 385.015 336.482 379.54 328.662 376.607C327.293 376.021 325.729 376.021 324.165 375.63C322.601 375.239 321.036 375.043 318.886 374.457C321.232 371.329 323.774 369.96 326.902 369.569C333.94 368.982 340.783 370.155 347.235 373.284C348.604 374.066 349.777 374.848 351.341 375.434C353.296 376.412 354.47 377.781 355.252 379.931C355.447 380.713 356.034 381.691 356.62 382.277C357.402 383.059 357.598 383.646 357.598 385.015C357.207 386.97 358.38 387.752 360.335 387.556C360.726 387.556 361.117 387.556 361.313 387.752C362.095 388.143 362.877 388.534 363.463 388.925C363.854 389.12 364.441 389.316 364.636 389.707C365.027 390.685 365.809 391.271 366.787 391.662C367.178 391.858 367.374 393.031 367.569 393.617C366.2 393.813 365.223 394.008 363.854 394.204C364.832 395.768 366.005 396.159 367.374 395.963C369.329 395.768 370.111 396.746 370.697 398.31C371.479 400.46 372.652 402.415 373.434 404.371C374.021 406.13 374.021 407.89 374.412 409.454C375.194 409.845 375.976 410.236 376.954 410.627C375.976 411.409 375.194 411.996 374.412 412.778C374.999 413.169 375.194 413.364 375.39 413.364C377.931 413.951 377.931 413.951 378.127 416.297C378.518 421.185 379.495 426.073 382.624 430.179C384.383 432.525 385.947 432.916 388.294 431.352C389.467 430.57 390.64 429.397 391.617 428.224C392.791 426.464 394.159 424.704 394.941 422.749C398.851 413.56 403.544 404.762 407.063 395.181C409.605 387.947 413.124 381.104 416.252 374.066C416.643 373.088 417.425 372.111 418.012 371.329C418.403 370.742 418.794 370.155 418.794 369.373C418.794 368.005 418.794 366.636 420.163 365.854C421.727 364.877 423.095 363.703 425.246 363.899C427.006 364.095 428.765 364.094 430.72 364.29C430.525 366.245 431.503 367.223 432.871 368.2C437.759 371.72 441.474 376.412 444.602 381.495C446.362 384.233 446.948 387.165 447.144 390.294C447.339 391.858 446.753 393.226 445.384 394.008C441.865 396.159 440.301 399.678 438.541 403.198C434.435 412.191 431.698 421.771 428.179 430.961C427.201 433.502 426.81 436.24 426.224 438.977C424.855 445.624 423.095 452.272 422.118 459.115C421.336 464.394 420.554 469.673 420.749 474.952C420.945 479.253 422.118 483.359 423.291 487.465C423.877 489.811 425.637 490.202 427.592 488.638C429.547 487.074 431.503 485.314 432.871 483.163C435.022 479.84 436.977 476.125 438.737 472.41C440.301 468.891 441.474 465.371 442.842 461.852C442.842 461.07 443.233 459.115 443.82 457.16Z" fill="white" fill-opacity="0.15"/>
<path d="M467.672 196.342C469.628 193.801 471.583 191.259 473.538 188.717C475.884 185.98 477.057 185.784 479.599 188.131C480.772 189.304 482.141 190.086 483.705 190.477C484.096 190.477 484.487 190.672 484.878 190.868C489.375 194.387 494.263 197.515 496.804 202.99C497.391 204.358 497 205.531 496.218 206.705C494.654 209.051 493.089 211.397 491.525 213.548C484.291 223.91 479.403 235.054 477.644 247.567C477.448 249.131 477.057 250.5 477.057 252.064C476.666 254.606 474.907 256.17 472.365 255.974C471.387 255.974 470.41 255.779 469.628 256.17C464.74 258.321 461.416 255.583 458.092 252.846C457.31 252.26 456.919 251.478 455.942 250.5C455.746 251.282 455.746 251.869 455.551 252.651C453.986 251.869 452.618 250.891 450.858 249.913C451.249 234.468 455.551 219.804 462.198 205.727C462.394 205.14 462.785 204.554 462.98 203.967C462.98 203.967 462.98 203.772 463.176 203.185C462.198 203.185 461.22 202.794 460.438 202.99C454.964 204.358 449.881 206.509 445.579 210.028C443.233 211.788 441.473 214.134 439.714 216.48C432.871 225.67 429.351 236.227 427.592 247.372C426.419 255.388 425.246 263.6 425.637 271.811C426.028 278.459 426.614 285.106 427.787 291.558C428.765 297.815 432.089 303.289 436.586 307.786C439.714 310.914 443.038 314.042 446.557 316.975C451.054 320.886 455.942 320.69 460.243 316.78C465.522 311.892 469.237 305.831 471.192 298.988C472.365 294.491 473.342 289.994 474.32 285.497C474.516 284.324 474.711 283.347 475.102 282.173C475.884 279.827 477.448 278.068 479.99 277.481C482.141 276.895 483.118 277.677 482.727 280.023C481.75 284.715 480.772 289.408 479.403 294.1C478.426 297.619 477.253 301.138 476.08 304.658C474.907 308.373 472.951 311.892 470.605 314.825C468.064 317.953 465.717 321.081 462.98 324.014C455.355 331.443 445.97 333.79 435.608 332.225C428.178 331.052 421.726 328.12 415.861 323.232C412.928 320.885 410.778 317.562 407.845 315.216C404.912 312.869 403.152 309.35 401.784 305.831C400.22 302.312 399.047 298.597 397.678 294.882C397.287 293.904 396.896 292.731 396.7 291.754C396.505 291.167 396.114 290.385 396.505 289.994C397.874 288.234 396.896 286.866 396.114 285.106C395.527 284.129 395.723 282.76 395.527 281.587C395.136 276.308 395.136 270.834 394.159 265.75C393.181 260.276 393.572 254.997 394.941 249.718C395.527 247.567 396.505 245.808 397.091 243.657C397.874 241.311 399.633 239.16 398.069 236.618C397.874 236.227 398.069 235.641 398.265 235.25C399.047 233.099 399.829 230.948 400.611 228.993C400.806 228.602 400.806 228.016 401.197 228.016C404.326 226.452 405.108 223.128 406.672 220.586C414.883 206.314 426.028 196.147 443.233 193.605C451.054 192.432 458.483 192.432 465.717 195.56C466.108 195.951 466.89 196.147 467.672 196.342ZM428.178 201.621C424.855 201.817 416.839 208.464 415.861 211.983C420.162 208.464 424.268 204.945 428.178 201.621Z" fill="white" fill-opacity="0.15"/>
<path d="M546.074 559.805C543.923 559.805 542.164 559.805 540.6 559.805C529.846 560.196 521.048 556.481 514.401 547.879C512.055 544.75 509.708 541.622 507.362 538.494C507.167 538.103 506.971 537.516 506.58 536.93C508.144 535.952 509.904 536.148 511.272 536.539C519.875 538.885 528.282 538.103 536.885 536.734C541.773 535.952 546.856 535.366 551.744 536.148C557.414 537.125 561.715 540.253 564.648 545.141C567.19 549.443 568.363 554.135 569.536 559.023C570.318 562.151 571.1 565.084 571.882 568.212C572.273 570.558 572.664 573.1 572.86 575.446C573.446 580.725 573.837 585.809 574.228 591.087C574.228 591.869 574.424 592.652 575.206 593.434C575.793 592.456 576.379 591.674 576.966 590.696C580.68 584.635 585.373 579.356 591.238 575.251C598.668 569.972 604.338 569.972 611.767 575.055C617.242 578.77 621.152 583.658 624.671 589.132C625.649 590.696 626.235 592.456 626.626 594.216C628.191 603.405 629.168 612.594 627.409 621.979C626.04 629.017 623.694 635.469 619.001 641.139C618.219 642.117 617.633 643.095 617.046 644.268C613.918 649.938 610.008 654.825 605.315 659.127C602.383 661.864 599.45 664.601 596.517 667.143C593.193 670.076 589.674 672.617 585.373 673.986C582.636 674.963 580.094 675.354 577.161 674.963C575.597 674.768 573.837 674.572 572.273 674.377C571.687 674.377 571.1 674.181 570.709 674.377C568.558 676.723 566.994 674.963 565.626 673.595C564.453 672.226 563.084 671.444 561.52 670.662C560.347 670.076 559.174 668.902 558.196 668.12C557.219 667.338 556.241 666.361 555.263 665.383C555.068 665.188 554.481 664.797 554.481 664.601C552.135 658.149 549.398 651.893 547.638 645.245C544.51 633.71 544.119 621.783 544.51 609.857C544.901 599.69 545.683 589.719 546.074 579.552C546.27 575.837 546.661 571.927 545.488 568.212C545.097 567.235 545.292 566.061 545.488 564.888C545.683 563.715 545.879 561.956 546.074 559.805ZM575.988 625.889C575.988 629.213 576.184 632.537 576.575 636.056C577.161 643.681 579.507 650.915 583.027 657.563C584.591 660.495 588.501 660.886 590.652 658.54C591.434 657.563 592.216 656.585 592.802 655.607C595.931 650.524 597.69 644.854 598.668 638.989C600.427 627.062 601.992 615.136 603.556 603.209C604.142 598.713 604.533 594.216 605.12 589.914C605.511 586.786 605.12 583.658 603.751 580.725C602.187 577.792 600.036 576.619 596.908 577.792C595.148 578.379 593.389 579.357 591.825 580.725C584.395 586.786 579.507 594.802 576.184 603.796C575.597 605.556 575.206 607.511 575.206 609.466C575.206 613.767 575.597 618.264 575.792 622.565C576.184 623.543 575.988 624.716 575.988 625.889Z" fill="white" fill-opacity="0.15"/>
<path d="M58.0678 280.414C55.9172 282.173 57.4813 283.933 57.4813 285.497C57.4813 287.257 57.8723 289.212 58.0678 290.971C58.2633 292.731 59.4364 294.295 58.4589 296.25C58.0678 295.664 57.6768 295.273 57.4813 294.686C56.6992 290.385 55.7216 286.083 55.1351 281.782C54.9396 281 55.7216 280.022 56.3082 279.24C56.8947 278.458 58.4588 278.067 57.8723 276.699C57.0902 275.135 55.9171 276.503 54.9396 276.112C54.9396 276.112 54.7441 276.112 54.353 275.721C54.5485 273.766 54.7441 271.615 54.9396 269.465C55.7216 269.465 56.3082 269.66 57.0902 269.66C57.4813 265.945 57.8723 266.141 54.9396 265.163C54.5485 262.035 54.353 258.711 56.8947 255.974C56.6992 258.711 56.5037 261.449 56.1127 263.99C56.3082 263.99 56.5037 264.186 56.8947 264.186C57.2858 263.599 57.8723 263.208 57.8723 262.622C58.0678 255.583 59.8275 248.74 61.1961 241.702C61.1961 241.31 61.1961 240.919 61.0005 240.137C58.6544 242.679 59.4364 246.589 56.6992 248.349C56.5037 248.349 56.3082 248.153 55.9171 248.153C56.5037 246.003 57.0902 243.657 57.8723 241.506C59.6319 237.009 61.9781 232.512 63.5422 228.015C64.9109 224.105 67.0615 220.977 69.7987 217.849C75.4687 211.201 81.5297 204.945 88.3727 199.47C90.9144 197.32 93.6516 195.755 96.9754 194.778C99.7126 193.996 102.059 192.432 104.796 191.259C106.36 190.672 107.729 190.085 109.293 189.694C110.857 189.303 112.617 189.108 113.985 188.521C116.918 187.544 119.655 187.935 122.588 188.912C127.671 190.476 129.431 194.387 131.191 198.688C131.973 200.448 132.95 202.207 134.123 203.772C135.883 205.922 136.078 207.486 134.514 209.637C133.928 210.615 133.341 211.592 132.95 212.374C133.928 214.72 134.905 216.871 136.078 219.022C137.056 220.781 138.816 222.15 139.793 223.91C141.748 227.429 143.704 230.948 144.29 235.054C144.486 236.814 145.268 238.378 145.659 240.137C146.636 242.875 146.832 245.416 146.832 248.349C146.636 251.673 146.832 255.192 146.832 258.516C146.832 260.08 146.441 261.449 146.245 263.013C145.854 266.141 145.463 269.269 145.268 272.397C145.072 275.135 144.877 277.676 144.095 280.218C143.117 282.76 143.312 285.692 142.53 288.234C140.38 296.641 138.229 305.244 133.537 312.478C130.213 317.757 125.912 322.254 121.806 326.946C120.046 328.901 117.504 330.074 114.963 330.856C111.639 331.834 108.315 332.812 104.991 333.789C99.7126 335.353 94.4337 334.571 89.3503 332.616C80.7476 329.292 74.1001 323.231 68.2346 316.193C68.4301 315.802 68.6256 315.606 68.8212 315.411C69.0167 315.215 69.0167 315.02 69.2122 315.02C69.2122 314.824 69.2122 314.824 69.2122 314.629C62.1736 305.635 61.0005 294.491 58.2633 283.933C57.6768 283.151 58.0678 281.978 58.0678 280.414ZM115.549 217.458C114.181 218.24 113.008 218.826 111.835 219.413C110.075 220.586 108.12 221.563 106.556 223.128C104.209 225.474 102.059 228.211 99.9081 230.753C95.8023 235.836 92.4785 241.506 89.9368 247.567C87.1996 254.214 86.4175 261.449 84.0714 268.096C83.8758 268.487 84.0714 268.878 84.0714 269.269C84.2669 272.202 84.2669 275.135 84.4624 278.067C84.8534 282.955 83.6803 288.039 86.613 292.34C86.8086 292.535 86.8086 292.731 86.8086 292.926C87.5906 298.01 89.5458 302.702 91.892 307.395C94.8247 313.26 99.3215 317.561 104.796 321.081C108.12 323.036 110.27 322.84 113.203 320.299C113.79 319.712 114.376 319.126 114.963 318.539C118.873 314.238 121.415 309.154 123.37 303.68C128.062 290.776 129.822 277.285 132.168 263.99C133.341 256.952 132.364 249.718 131.777 242.679C131.386 238.573 130.408 234.467 129.04 230.362C127.085 224.301 122.197 220.977 116.918 217.849C116.527 217.653 115.94 217.653 115.549 217.458ZM60.6095 275.721C60.6095 273.57 60.6095 272.006 60.6095 270.442C59.6319 272.202 59.8275 273.766 60.6095 275.721ZM61.5871 286.279C61.3916 286.279 61.3916 286.279 61.1961 286.279C61.1961 286.67 61.1961 287.257 61.1961 287.648C61.3916 288.234 61.5871 288.821 61.7826 289.212C61.9781 289.212 62.1736 289.212 62.3692 289.016C61.9781 288.234 61.7826 287.257 61.5871 286.279Z" fill="white" fill-opacity="0.15"/>
<path d="M581.462 769.398C582.439 768.616 583.613 767.638 584.786 766.66C585.568 767.638 585.959 768.616 586.741 768.811C587.523 769.202 588.5 768.811 589.478 768.616C591.629 768.225 593.779 767.442 596.126 768.225C595.93 768.616 595.735 769.202 595.539 769.593C597.299 769.984 599.058 770.375 600.818 770.962C602.382 771.548 603.946 772.721 605.901 771.939C604.924 771.157 603.946 770.571 602.773 769.789C602.773 769.593 602.773 769.398 602.969 769.202C604.142 769.202 605.315 769.007 606.488 769.202C612.353 770.18 612.353 770.18 618.023 768.029C616.068 766.856 614.113 766.66 611.962 766.66C610.007 766.66 608.052 767.638 605.901 766.074C606.879 765.683 607.661 765.096 608.639 764.901C610.985 764.51 613.526 764.314 615.873 764.119C619.001 763.728 619.783 763.141 620.174 760.013C620.565 756.885 620.761 753.952 621.152 750.824C621.152 750.433 621.152 749.846 620.956 749.455C619.978 748.087 620.174 746.718 620.956 745.545C619.392 743.981 618.805 742.025 618.61 739.875C618.61 738.702 618.414 737.529 618.023 736.551C615.286 730.099 612.744 723.452 608.834 717.391C605.706 712.698 601.991 709.374 595.93 709.374C593.584 709.374 591.042 708.788 588.696 708.397C583.613 707.615 579.507 709.179 576.378 713.48C575.401 715.044 574.228 716.413 573.25 717.977C571.1 720.91 569.731 724.038 569.34 727.557C569.144 728.926 568.949 730.295 568.558 731.663C567.385 735.378 564.843 737.138 560.933 736.747C559.173 736.551 557.414 736.356 555.849 735.965C553.112 735.378 552.526 734.791 553.112 731.859C553.894 728.535 554.481 725.016 555.849 721.887C562.497 708.201 573.446 700.576 588.696 699.99C595.344 699.794 601.991 699.599 608.443 701.163C612.158 702.14 615.677 703.313 619.196 704.682C620.369 705.073 621.151 706.442 622.325 707.419C623.693 706.637 624.866 707.419 625.648 708.983C626.43 710.352 626.626 711.721 627.212 713.48C627.995 713.285 628.972 713.089 629.95 712.698C631.709 715.24 635.229 716.022 636.206 719.737C635.815 720.128 635.229 720.519 634.838 720.91C635.62 722.474 635.62 722.474 638.552 722.083C638.552 724.429 640.117 725.993 641.681 727.557C643.049 728.926 643.44 730.686 642.658 732.641C643.44 732.836 644.222 733.032 645.004 733.227C645.004 734.009 645.004 734.791 645.004 735.573C645.004 736.747 645.2 737.724 646.569 738.115C646.96 738.115 647.546 738.506 647.742 738.897C648.915 741.439 649.892 744.176 651.065 746.718C651.456 747.5 651.456 748.282 651.847 749.064C653.216 751.606 653.998 754.147 653.998 756.885C654.194 760.013 653.998 762.946 654.194 766.074C654.389 769.007 654.78 771.744 654.78 774.677C654.389 781.324 653.998 788.167 652.434 794.815C649.11 808.501 642.072 819.841 631.905 829.421C622.325 838.219 610.985 842.911 598.276 844.084C595.148 844.475 592.02 844.475 588.696 844.671C584.59 844.866 580.68 844.084 577.161 842.52C568.362 838.61 561.324 832.745 556.045 824.729C554.872 822.969 553.894 821.014 553.308 818.863C552.33 815.93 553.112 813.193 555.654 811.238C557.023 810.26 558.391 809.087 559.955 808.501C563.083 806.937 565.234 807.719 566.994 810.651C567.971 812.216 568.753 814.171 569.535 815.93C570.709 818.277 571.686 820.623 573.055 822.773C575.596 827.075 579.507 829.225 584.395 829.616C599.254 830.985 607.856 823.555 613.135 812.607C615.873 806.741 617.241 800.68 618.023 794.228C618.414 791.882 618.61 789.34 619.001 786.994C619.392 783.866 619.001 782.888 616.264 781.715C610.594 779.369 604.728 777.805 598.472 777.218C588.696 776.241 579.116 776.241 569.535 778.196C567.58 778.587 565.43 778.587 563.67 777.414C562.301 776.632 562.106 775.654 563.083 774.481C563.67 773.699 564.648 772.917 565.43 772.526C568.753 771.157 572.077 769.789 575.401 768.811C576.965 769.007 579.116 769.398 581.462 769.398Z" fill="white" fill-opacity="0.15"/>
<path d="M330.616 0.631428C332.963 1.21797 333.94 2.7821 333.94 4.54173C333.94 6.6924 333.745 9.03859 332.767 10.9937C325.924 26.0484 314.584 35.8242 298.161 39.3435C287.016 41.6896 276.654 38.9524 267.269 32.696C266.878 32.5004 266.487 32.3049 266.292 31.9139C266.096 29.3722 263.946 29.1767 262.186 28.3946C260.231 27.6126 258.471 26.2439 256.907 24.8753C254.756 22.9202 252.41 21.5516 249.478 20.965C249.086 20.965 248.695 20.574 248.109 20.3785C252.41 14.9041 255.147 8.64756 260.622 4.15071C265.314 0.0448885 270.202 -0.93267 275.872 2.00006C276.263 2.19557 276.654 2.39107 277.045 2.58658C281.542 3.36864 284.279 6.88794 287.407 9.82067C287.994 10.4072 288.581 11.1893 289.363 11.7758C295.815 16.0772 302.853 19.4009 310.869 19.2054C314.193 19.2054 317.126 18.2278 319.667 15.8816C324.164 11.5803 328.27 6.88792 330.616 0.631428Z" fill="white" fill-opacity="0.15"/>
<path d="M835.241 756.493C834.068 755.907 833.091 755.516 831.917 754.929C832.7 753.561 833.873 752.192 834.264 750.823C834.655 749.455 834.068 747.891 834.264 746.327C834.655 746.913 835.241 747.304 835.437 747.891C835.632 750.237 835.828 752.583 835.828 754.734C835.828 755.125 835.632 755.711 835.241 756.493Z" fill="white" fill-opacity="0.15"/>
<path d="M834.459 744.567C834.068 742.416 834.459 737.333 835.046 736.16C835.241 735.769 835.632 735.182 836.023 734.987C836.61 734.987 837.196 735.182 837.978 735.378C837.783 735.964 837.783 736.746 837.392 736.942C835.046 737.724 835.046 739.484 835.437 741.439C835.828 742.807 835.632 742.807 834.459 744.567Z" fill="white" fill-opacity="0.15"/>
<path d="M844.04 739.288C845.995 738.897 847.95 738.506 850.296 738.115C848.536 740.461 846.386 741.048 844.04 740.07C844.04 739.875 844.04 739.484 844.04 739.288Z" fill="white" fill-opacity="0.15"/>
<path d="M61.1961 304.462C60.414 302.507 59.8275 300.552 59.0454 298.792C59.2409 298.792 59.4364 298.597 59.632 298.597C61.1961 300.161 61.5871 302.312 61.9781 304.267C61.7826 304.267 61.5871 304.462 61.1961 304.462Z" fill="white" fill-opacity="0.15"/>
<path d="M837.392 743.785C836.023 742.025 836.61 740.461 837.392 738.702C838.76 740.461 838.174 741.83 837.392 743.785Z" fill="white" fill-opacity="0.15"/>
</svg>
