<svg width="14" height="24" viewBox="0 0 14 24" fill="none" xmlns="http://www.w3.org/2000/svg">
<path d="M0.716846 22.88C0.398541 22.5557 0.219728 22.116 0.219728 21.6575C0.219728 21.199 0.398542 20.7592 0.716847 20.435L9.12139 11.8758L0.716847 3.3166C0.407563 2.99049 0.236426 2.5537 0.240294 2.10033C0.244163 1.64696 0.422728 1.21327 0.73753 0.892679C1.05233 0.572084 1.47818 0.390235 1.92336 0.386297C2.36855 0.382356 2.79743 0.556642 3.11766 0.871618L12.7226 10.6533C13.0409 10.9776 13.2197 11.4173 13.2197 11.8758C13.2197 12.3343 13.0409 12.774 12.7226 13.0983L3.11766 22.88C2.79926 23.2041 2.36747 23.3862 1.91725 23.3862C1.46703 23.3862 1.03525 23.2041 0.716846 22.88Z" fill="#FFC000"/>
</svg>
