<svg width="96" height="103" viewBox="0 0 96 103" fill="none" xmlns="http://www.w3.org/2000/svg">
<g clip-path="url(#clip0_1_1562)">
<g clip-path="url(#clip1_1_1562)">
<mask id="mask0_1_1562" style="mask-type:luminance" maskUnits="userSpaceOnUse" x="0" y="0" width="104" height="103">
<path d="M0 0H103.956V103H0V0Z" fill="white"/>
</mask>
<g mask="url(#mask0_1_1562)">
<path d="M48.8634 16.9304L49.1159 16.8887C49.2001 17.0555 49.1159 17.1389 49.0739 17.264C49.5368 16.9304 49.7052 16.7636 50.2102 16.5134C50.7994 16.1798 52.4409 16.2632 51.5149 17.264C51.0099 17.8061 50.7994 18.2648 50.4207 18.932C50.0419 19.5575 49.3264 21.1004 48.5688 20.4332C48.4846 19.766 49.0318 18.7652 49.3264 18.3482C49.621 17.9312 49.9577 17.4725 50.3365 17.1806C51.052 16.6802 49.9577 16.1798 48.4425 18.4316C47.9375 19.2239 47.3062 20.8502 46.6749 20.3498C46.2961 20.0162 47.0116 18.932 47.1799 18.5984C47.8112 17.5976 48.1479 17.4725 48.2742 17.2223C47.8954 17.0555 47.8533 16.847 47.222 17.3057C46.4224 17.8895 45.4964 18.4733 44.9914 19.4324C44.7389 19.9328 43.8129 22.2263 44.1496 22.8101C44.1917 22.9352 44.4442 23.102 44.2338 23.6024L44.0655 23.8526L44.823 23.6441C44.823 23.1854 44.7389 22.8101 45.0756 22.5599C45.7069 22.1012 47.9375 22.4348 48.4425 22.685C48.5267 23.102 48.2742 23.8526 48.0638 24.1445C47.3904 24.2279 44.4022 23.7692 43.855 24.3113C43.6446 24.5198 43.4342 25.1453 43.6867 25.4372C44.1496 25.8125 44.1496 24.8951 45.5385 25.1036C46.2119 25.187 46.8853 25.3121 47.5587 25.3955C47.5587 25.604 47.3062 26.6466 47.0116 26.8134C46.5907 27.0219 44.5284 26.73 43.3921 26.8551C43.0554 26.8968 42.9291 26.9385 42.887 27.3138C42.8449 27.6057 42.8449 27.8976 42.9291 28.1478C43.2237 28.1895 43.3921 27.981 43.7709 27.9393C44.0655 27.8976 44.4863 27.9393 44.781 27.981C46.5486 28.1061 46.7591 27.9393 46.6749 28.398C46.5065 29.7741 46.2119 29.6907 45.286 29.649C43.2237 29.5656 41.8348 28.9818 41.9611 30.4413C42.0032 31.0668 42.5503 30.6081 42.9291 30.5247C43.5183 30.3996 45.0756 30.5247 45.4543 30.8583C45.4543 31.317 45.1597 31.4838 44.8651 31.6923C44.6968 31.8174 44.2759 32.2761 44.0655 32.2761C43.5183 32.3178 42.5503 32.0676 41.3719 32.2344C41.2456 32.6097 41.0773 33.1518 41.3719 33.4437C41.8348 33.3186 41.7507 33.1518 42.382 33.1935C43.0133 33.2352 43.8129 33.402 44.1496 33.9024C44.2759 34.1109 44.4022 34.653 44.2338 34.9032C43.9392 35.3619 41.456 34.8615 40.8247 34.9866C40.488 35.07 40.4459 35.487 40.488 35.8623C40.8247 36.1542 41.8348 35.9874 42.4241 36.0708C43.0133 36.1542 43.6025 36.2793 44.1917 36.4044C44.2338 36.6547 43.9813 37.7389 43.855 37.9057C43.4342 38.4061 40.1934 37.2385 39.8146 37.7389C39.6884 37.9474 39.6463 38.3644 39.7726 38.5312C39.9409 38.698 41.2877 38.8231 41.6665 38.9065C42.0874 38.9899 43.0554 39.1984 43.4342 39.4069C43.4342 39.6154 43.2237 40.4077 43.1395 40.5745C42.6766 41.3251 41.0773 40.2826 39.52 40.3243C38.7204 40.366 39.015 41.2 39.0571 41.2417C39.1833 41.4085 39.9409 41.4919 40.1934 41.5753C40.9931 41.7421 41.7927 41.9089 42.5503 42.1174C42.5503 42.7012 42.4241 43.2433 42.2557 43.702C41.3719 43.7437 40.1513 43.2016 39.1833 42.9514C38.7625 42.8263 38.2574 42.7846 38.2574 42.6178C37.6682 42.9097 37.584 43.7854 37.3736 44.536C37.2473 45.0364 37.2052 46.6627 37.2894 47.2048C37.3315 47.6219 38.0049 48.7061 38.2153 49.0814C38.552 49.6652 38.6362 49.5818 38.8466 49.832C38.9729 49.9571 39.015 50.1239 39.1412 50.2073C39.3938 50.4575 39.3938 50.2907 39.6463 50.4158C39.8567 50.7494 39.6463 50.8328 40.0672 51.2498C40.6143 51.7919 40.9931 52.2506 41.6665 52.7093C41.8769 52.8344 41.7927 52.7927 41.919 53.0429H42.5082C42.6345 52.9178 42.5503 52.8761 42.7187 52.751C42.887 52.8344 43.0133 53.0429 43.2237 53.2514C43.6025 53.6684 44.1496 54.3356 44.7389 54.6275C44.7389 55.253 44.2759 56.7959 44.0655 57.4214C43.6446 58.7976 42.1294 60.4656 43.4762 62.6757C43.7288 63.051 43.9392 63.3429 44.2338 63.6348C44.8651 64.2603 44.8651 64.1352 45.2018 64.4271L45.1176 65.3028C44.4442 65.4279 44.318 65.3028 43.9392 65.7198C43.0554 66.6789 43.2237 68.3053 43.1395 69.7231C43.0554 71.7247 42.8449 73.6846 42.7187 75.6862C42.5924 77.6878 42.4661 79.6895 42.2978 81.6911C42.2136 82.8587 41.8769 86.8619 41.919 87.6959C42.382 87.9461 45.286 89.6142 45.6648 89.6142L47.3062 67.9717H47.8533C47.685 67.7631 47.5587 67.93 47.3062 67.8049C47.0537 67.7215 46.1277 66.1785 45.8752 65.8032C45.4123 65.0943 46.254 64.3437 45.4123 63.7599C44.7389 63.3012 43.7709 62.217 43.6446 61.4247C43.9813 61.5081 44.8651 61.6332 45.286 61.7166C47.9375 62.3421 48.2742 62.8425 49.5368 61.2996C50.1681 60.5073 51.2203 58.5474 51.6412 57.4632C51.7675 57.0878 52.1042 56.3372 52.1462 55.9619C50.9257 55.1696 47.3483 54.5858 45.5806 54.3356C45.286 54.2939 45.5385 54.3356 45.3702 54.2939C45.0335 54.2105 44.823 54.2522 44.6126 54.0854L42.7608 52.5425C42.382 52.4174 42.1294 53.2097 40.6985 51.7502C39.983 50.9996 40.1513 51.083 39.7726 50.3741C39.52 49.8737 38.6783 50.7077 38.7204 47.4968C38.7204 46.7044 38.8045 45.4534 39.3096 44.9947C39.983 45.1198 39.6884 45.9955 39.6884 47.2048C39.6884 47.6636 39.7305 48.0806 39.7305 48.5393C39.7305 48.998 39.8567 49.4567 39.8146 49.7903C39.983 49.8737 40.2776 49.8737 40.5301 49.832C40.3618 49.0397 40.4039 46.5376 40.6985 45.8704C41.0352 45.2032 41.7086 45.4117 41.7507 46.204C41.7927 46.913 41.6665 47.6636 41.6665 48.2891C41.6665 48.8312 41.5823 49.3733 41.7086 49.9154C42.0874 50.0405 42.2557 49.9988 42.6345 49.9988C42.6766 49.4984 42.5503 48.3725 42.6345 47.8304C42.6345 47.7887 42.6345 47.747 42.6766 47.6636C42.7187 47.5385 42.7187 47.5802 42.7187 47.5385C42.6766 47.2466 42.7608 46.3291 42.9291 46.204C43.3079 45.9121 43.855 46.204 43.8129 46.6627C44.0234 46.9129 43.855 49.1648 43.8971 49.8737L44.9914 49.9988V49.5401C44.9914 49.415 44.9914 49.2899 45.0756 49.1648C45.0335 48.8312 45.1176 47.9972 45.1176 47.6219C45.1597 47.1631 45.3281 46.7044 45.9173 46.8295C46.8853 47.0381 46.5065 48.4559 46.5486 49.3733L46.5065 49.9571H47.5587L47.6429 49.5818C47.6008 49.2899 47.7271 48.4142 47.8533 48.164C48.4425 46.9129 50.2523 47.3717 49.9156 49.7903C51.2624 49.9154 53.7456 49.2065 54.924 48.6227C55.3449 48.4142 56.0604 48.1223 56.1025 47.7053L49.9577 45.8704C47.9375 45.2866 45.749 44.5777 43.6446 44.1607C43.6446 43.7437 43.8971 42.451 44.3601 42.451C44.823 42.451 49.8735 43.6186 50.4627 43.7854C51.9358 44.1607 56.7759 45.5785 57.7859 46.2874C58.0385 46.3291 58.1226 46.1623 58.3752 45.8287L58.6277 45.5368C58.6277 45.5368 58.6698 45.5368 58.6698 45.4951L58.8802 45.2866C58.796 45.1615 58.9223 45.2449 58.754 45.2449C58.2489 45.4117 57.4072 44.9947 56.9442 44.8279C54.0823 43.8271 51.0941 42.8263 48.1479 42.0757L44.4442 41.2417C44.4863 40.9498 44.6126 40.4494 44.6547 40.1575C44.7389 39.7405 44.9493 39.6571 45.4964 39.6988C46.1698 39.7405 47.0537 39.9907 47.7271 40.1575C50.7153 40.8664 53.2405 41.4919 56.1025 42.4927C56.7759 42.7429 57.4072 42.9514 58.0385 43.2016C58.796 43.4935 59.3011 43.6186 59.1327 44.6611C59.3011 44.6194 59.3011 44.4526 59.5115 44.119C61.9947 39.7822 64.2253 33.0267 64.9829 28.2312C65.2354 26.6883 65.4879 24.6449 65.3617 23.0186L65.1512 21.6425C65.1512 21.4757 65.025 21.6842 65.1091 21.6425L63.3836 20.2247C63.2994 20.1413 63.2152 20.0996 63.131 20.0162C62.9627 19.8911 62.9627 19.9328 62.8364 19.766C63.2573 19.8911 64.7304 20.8502 65.1512 21.1421C65.0671 20.9753 65.1091 20.3498 65.1512 20.1413C64.8566 20.0162 64.6041 19.8077 64.3095 19.5992C62.626 18.4733 59.8061 17.3474 57.9122 16.847C57.2809 16.6802 55.1765 16.2632 54.5031 16.2632H50.589C49.8735 16.2632 49.4947 16.6802 49.2001 16.847C48.9897 16.9721 49.1159 16.8887 48.9476 16.8887L48.8634 16.9304Z" fill="#F0D3A3"/>
</g>
<mask id="mask1_1_1562" style="mask-type:luminance" maskUnits="userSpaceOnUse" x="0" y="0" width="104" height="103">
<path d="M0 0H103.956V103H0V0Z" fill="white"/>
</mask>
<g mask="url(#mask1_1_1562)">
<path d="M54.5873 16.847C54.6294 17.2223 54.3769 17.264 54.1244 17.3891C52.8617 17.9729 52.3988 20.0162 52.0621 20.4332C51.8516 20.7251 50.9678 21.1421 50.7574 20.6C50.5469 20.1413 51.0941 19.3907 51.2624 19.0988C51.5149 18.6401 51.7675 18.2231 52.02 17.8061C52.3567 17.3057 53.5772 16.1381 54.5873 16.847ZM57.2809 17.4308C57.323 17.8061 57.0705 17.8478 56.818 17.9729C56.1866 18.2648 55.7237 18.9737 55.387 19.5992C55.1765 20.0162 55.0503 20.6834 54.7557 21.017C54.5452 21.3089 53.6614 21.7259 53.451 21.1838C53.2405 20.7251 53.7877 19.9745 53.956 19.6826C54.2085 19.2239 54.4611 18.8069 54.7136 18.3899C55.0503 17.8895 56.2708 16.7636 57.2809 17.4308ZM57.9964 22.3931C57.5334 22.5182 57.1546 22.3097 56.7759 22.1429C56.0183 21.8093 55.9341 21.5174 56.5233 20.3915C56.9021 19.6409 57.9964 18.7652 58.7119 18.3899C59.1328 18.1397 60.7321 17.7227 60.7742 18.515C60.5637 18.7235 60.4375 18.6818 60.1849 18.7652C58.7961 19.2656 58.4173 21.4757 57.9964 22.3931ZM49.7052 24.2696C49.621 23.8943 49.9577 22.8518 50.1261 22.5182C50.4628 22.5182 51.6833 22.8935 52.1042 22.9769C57.6597 24.353 57.9122 24.2696 63.1731 26.6466C63.7203 26.8968 64.4358 27.147 64.2674 27.8976C64.057 28.7316 63.6782 28.7733 62.7102 28.3563C58.8381 26.73 57.9964 26.2713 53.6193 25.187L49.7052 24.2696ZM49.4527 25.5207C49.9998 25.3539 52.9038 26.1879 53.6193 26.313C56.5654 26.9802 58.5435 27.6891 61.2371 28.8984C61.7843 29.1486 62.4577 29.3988 63.0048 29.6907C63.8886 30.1077 63.1311 31.1919 62.9206 31.2753C62.4997 31.4421 59.6799 30.1911 59.1328 29.9826C57.5334 29.3154 57.0705 29.1486 55.387 28.6482C54.0823 28.2312 52.7355 27.8976 51.3466 27.6057C49.7473 27.2721 48.653 27.3555 48.9476 26.2296C49.0739 25.8543 49.0318 25.6875 49.4527 25.5207ZM48.0638 29.8575C48.0638 29.6907 48.19 28.9401 48.2321 28.7733C48.4847 27.9393 50.2523 28.5648 51.2203 28.7733C52.6092 29.0652 54.0402 29.3154 55.3449 29.7324C56.4813 30.066 61.9947 32.1093 62.4997 32.7348C62.7102 33.0267 62.6681 33.4437 62.4997 33.7773C62.121 34.5696 60.6058 33.7356 59.7641 33.3603C57.1547 32.3178 54.7978 31.5672 52.0621 30.8583C51.2624 30.6915 48.6109 30.1494 48.0638 29.8575ZM61.7843 35.6956C61.8684 35.9458 61.7422 36.4879 61.6159 36.6964C61.195 37.2802 58.4173 35.9875 57.8701 35.779C55.1765 34.7364 52.1463 33.9858 49.2843 33.1935C48.5688 32.985 47.2641 31.5672 47.8113 31.1919C48.148 30.9834 51.3466 31.8174 51.9358 31.9842C54.9661 32.6931 56.5654 33.2352 59.4274 34.4028C59.9745 34.653 60.6058 34.8615 61.153 35.1534C61.4055 35.2785 61.7001 35.4453 61.7843 35.6956ZM45.9173 32.0259C46.5907 31.8174 47.0537 32.4429 47.0537 33.1101C47.0537 33.7356 46.5486 34.3194 46.0857 34.4445C44.6968 34.8615 44.4864 32.4846 45.9173 32.0259ZM47.7692 34.1943C48.653 34.0275 50.9678 34.7364 51.8937 34.9449C54.7978 35.6539 56.5233 36.3211 59.3011 37.3636C59.8903 37.5721 60.6058 37.8223 60.9004 38.2393C61.3634 38.8648 60.7321 39.6154 60.0587 39.532C59.5957 39.4903 58.6698 39.0733 58.2068 38.9065C54.8398 37.5721 52.2304 37.03 48.6951 36.1126C48.2321 35.9875 47.0958 35.779 46.8432 35.487C46.5486 35.1117 46.9274 34.3611 47.7692 34.1943ZM45.9594 36.8632C46.5486 36.4462 53.3247 38.3644 54.1664 38.6563C55.4712 39.0733 56.6917 39.4903 57.9122 39.949C59.0907 40.4077 60.1429 40.5745 60.1429 41.5336C60.1429 41.9089 59.9745 42.2425 59.6799 42.3259C59.1328 42.4927 58.0806 41.9506 57.6597 41.7838C54.1664 40.4494 51.557 39.7405 47.9375 38.9065C47.2641 38.7397 46.5486 38.5729 45.8752 38.4478C45.4123 38.3644 45.4544 38.4478 45.6227 37.6972C45.7069 37.3219 45.7069 37.0717 45.9594 36.8632Z" fill="#F0D3A3"/>
</g>
<mask id="mask2_1_1562" style="mask-type:luminance" maskUnits="userSpaceOnUse" x="0" y="0" width="104" height="103">
<path d="M0 0H103.956V103H0V0Z" fill="white"/>
</mask>
<g mask="url(#mask2_1_1562)">
<path d="M65.4038 21.017C65.4879 21.1421 67.0873 22.3097 67.6765 22.9769C68.0553 23.4356 69.1075 24.8951 69.2337 25.6457H68.9812C68.9391 25.5623 68.897 25.5206 68.897 25.4789C68.1394 24.1445 67.466 23.4356 66.3718 22.4348L65.4459 21.3923C65.3196 21.4757 65.3617 21.3923 65.3617 21.5591L65.5721 22.9352C65.6984 24.5615 65.4459 26.6049 65.1933 28.1478C64.3937 32.9016 62.2051 39.6988 59.722 44.0356C59.5115 44.3692 59.5115 44.536 59.3432 44.5777L59.3011 44.6194L59.2169 44.7445C58.9644 45.2032 59.0486 44.9947 58.9223 45.2032C59.0907 45.2032 58.9644 45.1198 59.0486 45.2449L58.8381 45.4534C58.8381 45.4534 58.796 45.4534 58.796 45.4951L58.5435 45.787C58.291 46.1206 58.2068 46.2874 57.9543 46.2457L57.9964 46.2874L58.3752 46.5376C58.8381 46.9964 58.6277 48.3725 57.2388 47.9972L56.2708 47.7053C56.2708 48.1223 55.5132 48.4142 55.0924 48.6227C53.9139 49.2065 51.4308 49.9154 50.084 49.7903C50.084 50.6243 50.1261 50.9579 50.4628 51.5834C50.7574 52.0838 52.0621 53.4182 52.5671 53.7935C52.9038 54.0437 53.6193 54.419 53.7456 54.7526C53.6614 55.0445 53.2405 55.2947 52.7776 55.3364C52.4829 55.3364 52.0621 54.9611 51.8095 54.7526C50.2523 53.7101 48.7372 53.2931 47.9375 50.9579C47.6429 50.0822 47.8533 50.0822 47.8112 49.6235L47.7271 49.9988C47.4745 49.9571 47.0537 49.9571 46.6749 49.9988L46.717 49.415C46.6328 49.5401 46.5907 49.6652 46.5907 49.8737L46.7591 51.0413C47.1378 52.7093 48.6951 53.3348 48.7793 54.1271C47.8112 54.1688 46.5486 52.9178 46.1277 52.5008C45.749 52.1255 45.4544 51.917 45.286 51.2081C45.0335 50.1656 45.3281 49.7069 45.2018 49.1648C45.1177 49.2482 45.1177 49.415 45.1177 49.5401V49.9988L44.0234 49.8737C43.9813 49.2065 44.1496 46.9547 43.9392 46.6627C43.8971 46.9547 43.9813 47.4551 43.9813 47.8304C43.9392 48.9563 43.855 49.8737 44.1496 51.0413C44.4022 52.1255 44.6968 52.5842 45.4964 53.1263C46.254 53.6267 45.9594 53.7935 45.7069 53.7518L45.1177 53.4599C44.8651 53.2931 44.6547 53.1263 44.4443 52.9595C44.0234 52.6259 43.6867 52.2089 43.35 51.7502C42.887 51.083 42.8449 50.8745 42.8449 49.9154C42.8449 49.5401 42.8028 49.1231 42.8028 48.7478C42.8028 48.3725 42.8449 47.9555 42.8449 47.5802C42.8028 47.6219 42.8449 47.5802 42.8028 47.7053C42.8028 47.747 42.8028 47.7887 42.7608 47.8721C42.6766 48.4142 42.8028 49.5401 42.7608 50.0405C42.382 49.9988 42.2136 50.0822 41.8348 49.9571C41.7507 49.415 41.7928 48.8729 41.7928 48.3308C41.5402 48.7478 41.7507 50.1239 41.8769 50.4992C42.1715 51.6251 43.0554 52.4174 43.855 53.1263L44.4863 53.6267C44.781 53.8352 44.9914 53.9603 45.1177 54.1688L44.7389 54.1271C44.9072 54.2522 45.1597 54.2522 45.4964 54.3356C45.6648 54.3773 45.4123 54.3356 45.7069 54.3773C47.4745 54.6275 51.052 55.1696 52.2725 56.0036C52.2304 56.4206 51.9358 57.1712 51.7675 57.5048C51.3466 58.5891 50.2944 60.549 49.6631 61.3413C48.4005 62.9259 48.0638 62.4255 45.4123 61.7583C44.9493 61.6332 44.0655 61.5498 43.7709 61.4664C43.8971 62.3004 44.8651 63.3846 45.5385 63.8016C46.3803 64.3854 45.5385 65.136 46.0015 65.8449C46.254 66.2202 47.1799 67.7631 47.4325 67.8465C47.685 67.93 47.8112 67.8049 47.9796 68.0134V68.3887C48.0217 68.347 47.9796 68.3887 48.0217 68.2636C48.0638 68.0551 48.0217 68.0551 48.0638 67.8883C48.3163 67.8049 50.9678 67.5546 51.3466 67.5546L51.4308 81.4409C51.4308 81.8579 51.557 82.6502 51.3045 82.9004L47.3062 86.6951C47.1799 86.8202 47.0537 86.9036 46.9274 87.0704C46.8011 87.2372 46.717 87.3206 46.5486 87.4457V87.1121C46.3803 87.3623 46.2961 89.5308 46.2961 89.6976C46.717 89.5308 47.2641 89.4474 47.7271 89.2806C49.0739 88.8636 50.6311 88.4049 51.8516 87.7794C52.7776 87.3206 53.493 86.987 54.2927 86.4866C55.0924 85.9445 55.0082 86.1113 55.0503 85.4024C55.0924 84.8186 55.1765 84.2765 55.2186 83.6927C55.4711 78.23 55.2607 74.9773 54.6715 69.598C54.5452 68.5138 54.3348 67.4296 54.2085 66.3453C54.0823 65.3862 54.1664 65.6364 54.5031 64.8858C54.7136 64.3854 55.0924 64.2186 55.2607 63.8016C55.4711 63.3846 55.5132 62.8008 55.6816 62.3421C56.355 60.6741 57.5755 58.9227 58.2489 57.4215C58.5435 56.7959 58.4173 56.6708 59.1748 56.4623C60.4375 56.1287 60.8583 55.9619 61.7843 55.3364C62.8364 54.5858 63.594 53.2514 63.9728 51.917C64.1832 51.2498 64.3937 50.8745 64.0149 50.6243C64.1411 50.9579 64.0991 50.7077 64.0149 50.8328C63.2573 50.7911 62.2472 50.3741 61.6159 50.1656C60.9425 49.9154 60.1008 49.4567 60.6058 48.4142C61.1109 48.3725 62.5839 48.7061 63.0048 48.8312C63.2152 48.9146 63.8465 49.2482 63.9728 49.2899C64.3516 49.3316 64.5199 48.7895 64.5199 48.4559C63.4678 47.7887 63.8465 48.0389 62.7102 47.5385C62.121 47.2883 61.3213 47.0381 61.3634 46.2457C61.3634 45.37 62.6681 45.8704 63.1731 46.0372C63.5098 46.1623 63.8044 46.2874 64.1411 46.4125C64.4358 46.5376 64.7725 46.7879 65.1092 46.8296C65.3196 46.4959 65.53 45.9121 65.1092 45.6619C64.5199 45.3283 62.3735 44.536 62.163 43.7854C61.9526 43.1182 62.4156 42.9931 63.0048 43.0765C63.5098 43.1599 63.8044 43.3267 64.1832 43.4935C64.6041 43.702 64.8566 43.7854 65.2354 44.0356C65.4879 44.2024 65.9509 44.536 66.1193 43.8271C66.2455 43.2016 65.9509 43.1182 65.53 42.9097C65.1933 42.7429 64.8566 42.5344 64.4778 42.3259C64.1411 42.1591 63.7624 41.8672 63.4678 41.7004C63.089 41.4502 62.7102 41.4085 62.8364 40.783C62.9206 40.4077 63.2152 39.949 63.594 39.9907C63.7624 39.9907 64.4778 40.366 64.6883 40.4911C65.8667 41.1583 66.8768 42.4093 66.9189 41.0332C66.961 40.0741 63.8465 39.3652 63.7203 38.3644C63.6361 37.7389 63.8465 37.3636 64.3095 37.2385C64.7304 37.1134 66.1613 38.0308 66.5401 38.3227C67.1294 38.7397 67.1714 39.0316 67.5502 38.9899C68.392 37.6555 64.7304 36.6964 64.5199 35.8623C64.3516 35.3202 64.5199 34.8615 65.0671 34.8615C65.6984 34.8615 66.7506 35.6121 67.2135 35.9457C67.6765 36.2793 67.8448 36.5712 68.2236 36.5295C68.4761 36.1959 68.5603 35.5704 68.1815 35.2368L66.0772 33.7773C65.6984 33.5271 65.3196 33.402 65.2354 32.9016C65.1092 32.3595 65.3196 31.8174 65.8667 31.8591C66.4139 31.9008 67.2135 32.5263 67.6344 32.7348C68.5603 33.2352 68.3499 32.9433 68.5182 33.5688C68.6024 33.819 68.7287 33.9441 68.9812 33.9858C69.0233 33.0684 69.1495 33.1101 68.6024 32.568C67.5081 31.4421 65.8667 30.8166 65.8667 30.066C65.8667 29.4822 66.6664 29.6073 67.0452 29.7741C68.1394 30.3162 69.2758 31.6089 70.0334 31.9842V32.151L70.0755 32.0259L70.1176 31.9008C70.2859 31.1502 70.5384 28.815 70.5384 28.1895C70.5384 27.0636 70.2017 25.4372 69.6967 24.6449C68.8128 23.3939 67.6344 22.1429 66.498 21.2255C66.0772 20.8919 65.6984 20.6 65.2354 20.3081C65.3617 20.2247 65.3196 20.8502 65.4038 21.017Z" fill="#B6813D"/>
</g>
<mask id="mask3_1_1562" style="mask-type:luminance" maskUnits="userSpaceOnUse" x="0" y="0" width="104" height="103">
<path d="M0 0H103.956V103H0V0Z" fill="white"/>
</mask>
<g mask="url(#mask3_1_1562)">
<path d="M48.0217 68.1802L47.685 72.8089C47.5587 74.3518 47.4745 75.8947 47.3062 77.4793L46.7591 84.4433C46.717 84.902 46.5486 86.4449 46.5907 86.8202V87.1538C46.7591 87.0287 46.8432 86.9453 46.9695 86.7785L47.3483 86.4032L51.3466 82.6085C51.5991 82.3166 51.4729 81.566 51.4729 81.149L51.3887 67.2628C51.0099 67.2211 48.3163 67.4713 48.1059 67.5964C48.0638 67.7632 48.1479 67.7632 48.0638 67.9717C48.0638 68.1802 48.0638 68.0968 48.0217 68.1802Z" fill="#6D0B0A"/>
</g>
<mask id="mask4_1_1562" style="mask-type:luminance" maskUnits="userSpaceOnUse" x="0" y="0" width="104" height="103">
<path d="M0 0H103.956V103H0V0Z" fill="white"/>
</mask>
<g mask="url(#mask4_1_1562)">
<path d="M64.1832 50.249C64.0991 49.9571 63.3836 49.7903 63.0048 49.6652C63.089 49.3733 63.089 49.4567 63.7624 49.7069C64.0149 49.7903 64.3937 49.9988 64.6041 50.0405C64.7725 49.6652 65.2775 48.5393 65.1933 48.0806C65.0671 47.4134 63.9728 47.2466 63.8465 46.9129C64.1832 46.9129 64.9408 47.4134 65.3196 47.5385C66.8768 44.3692 65.1512 45.0364 64.6883 44.4109C64.7725 44.3692 64.562 44.3275 64.8566 44.3692C65.2775 44.4109 65.3196 44.7445 65.6984 44.8279L66.0772 44.8696C66.1613 44.7862 66.456 44.119 66.5401 43.9939C67.0031 43.0348 66.7927 42.5344 65.7405 42.034C65.5721 41.9506 65.4038 41.9089 65.53 41.7004C65.8246 41.617 66.5401 42.451 66.961 42.5344C67.6344 40.4077 68.3078 40.6162 66.3718 39.2818L66.456 38.8648C67.1294 39.0733 67.5081 39.9073 67.7607 39.9907C67.929 39.7405 68.392 38.3644 68.3499 38.0308C68.2657 37.1968 67.3398 37.1968 67.1714 36.6546C67.6344 36.6963 68.0974 37.3219 68.6024 37.4053C68.7287 37.03 69.3179 35.5287 69.1495 35.1534C68.7708 34.2777 67.4661 34.0692 67.7607 33.7773C68.0132 33.4854 68.7708 34.6113 69.4021 34.6947L69.9492 32.7765C69.5283 32.3595 68.6866 31.8591 68.5182 31.4004C68.897 31.4838 70.0334 32.7765 70.1176 31.9425V31.7757C69.36 31.4004 68.2236 30.1077 67.1294 29.5656C66.7506 29.3571 65.9509 29.2737 65.9509 29.8575C65.9509 30.6081 67.5923 31.2336 68.6866 32.3595C69.1916 32.9016 69.1075 32.8182 69.0654 33.7773C68.8128 33.7356 68.6866 33.6105 68.6024 33.3603C68.392 32.7765 68.6445 33.0684 67.7186 32.5263C67.2977 32.3178 66.498 31.6923 65.9509 31.6506C65.4038 31.6089 65.1933 32.151 65.3196 32.6931C65.4038 33.1935 65.7826 33.3186 66.1613 33.5688L68.2657 35.0283C68.6445 35.3619 68.5603 35.9874 68.3078 36.321C67.929 36.3627 67.7186 36.0708 67.2977 35.7372C66.8347 35.4036 65.7405 34.6113 65.1512 34.653C64.6041 34.653 64.4358 35.1117 64.6041 35.6538C64.8566 36.4878 68.4761 37.447 67.6344 38.7814C67.2556 38.7814 67.2135 38.5312 66.6664 38.1142C66.2876 37.864 64.8566 36.9049 64.4358 37.03C63.9728 37.1551 63.7624 37.5304 63.8465 38.1559C64.0149 39.1567 67.0873 39.8656 67.0452 40.8247C67.0031 42.2008 65.993 40.9498 64.8145 40.2826C64.6041 40.1575 63.8886 39.7822 63.7203 39.7822C63.3415 39.7405 63.0048 40.1992 62.9627 40.5745C62.8364 41.2 63.2152 41.2834 63.594 41.4919C63.8886 41.6587 64.2674 41.9089 64.6041 42.1174C64.9408 42.3259 65.3196 42.4927 65.6563 42.7012C66.0772 42.9514 66.4139 42.9931 66.2455 43.6186C66.0772 44.3275 65.6142 43.9939 65.3617 43.8271C64.9829 43.5352 64.7304 43.4935 64.3095 43.285C63.9307 43.1182 63.6361 42.9097 63.1311 42.868C62.5418 42.7846 62.0789 42.9097 62.2893 43.5769C62.5418 44.3275 64.6462 45.1198 65.2354 45.4534C65.6563 45.7036 65.4879 46.2874 65.2354 46.621C64.8987 46.5793 64.562 46.3291 64.2674 46.204C63.9728 46.0789 63.6361 45.9538 63.2994 45.8287C62.7944 45.6619 61.4896 45.1198 61.4896 46.0372C61.4896 46.8295 62.2472 47.0798 62.8364 47.33C63.9728 47.8304 63.594 47.5802 64.6462 48.2474C64.6883 48.581 64.4778 49.1231 64.0991 49.0814C63.9728 49.0814 63.3836 48.7061 63.1311 48.6227C62.7102 48.4559 61.2371 48.164 60.7321 48.2057C60.227 49.2065 61.0688 49.7069 61.7422 49.9571C62.4156 50.2073 63.4257 50.5826 64.1411 50.6243C64.2674 50.3324 64.3095 50.6243 64.1832 50.249ZM44.1497 23.8109C43.9813 24.0194 43.6446 23.9777 43.4763 24.4781C43.35 24.8117 43.2658 25.4372 43.6025 25.5206C43.9392 25.8125 43.9813 25.8125 44.4443 25.8542C45.1177 25.8959 45.8752 25.8959 46.5486 26.021C46.9274 26.0627 47.1799 26.021 47.1799 26.438C46.2119 26.7717 44.5284 26.1461 43.6025 26.4797C42.7608 26.438 42.4241 27.8559 42.8029 28.2312L42.8449 28.2729L42.887 28.3146L43.1396 28.5648C43.4342 28.7733 44.1497 28.7733 44.6126 28.7733C46.0436 28.8984 46.3803 28.6899 46.254 29.3154L43.4342 29.1903C42.5924 29.1486 42.887 29.2737 42.5503 29.2737C41.8769 29.3571 41.5402 30.6081 42.1295 31.0251L42.2136 31.0668C42.382 31.2336 42.382 31.2336 42.6766 31.2753C43.3079 31.4004 44.318 31.4004 44.6547 31.5255L44.5705 31.8591C43.7709 32.0676 42.8029 31.734 42.0874 31.8591C41.6244 31.8174 41.3719 31.9842 41.2456 32.4429C41.1194 32.8182 41.2035 33.3603 41.3719 33.6105L41.414 33.6522L41.4981 33.7356C41.9611 34.1526 43.1396 34.0692 43.855 34.236C44.0234 34.2777 44.2759 34.3194 44.2759 34.5279C44.2759 34.7781 44.2759 34.5696 44.2338 34.653C44.0234 34.8615 42.3399 34.653 41.8348 34.6113C40.951 34.5279 41.5402 34.653 41.0773 34.653C40.4039 34.6113 40.3618 35.6538 40.6564 36.1125L40.8247 36.321C41.4561 36.9883 43.6025 36.9465 44.0234 37.1968C44.0655 37.3636 44.0234 37.4887 43.9813 37.6138C43.6025 37.7389 42.5082 37.5304 42.1295 37.447C41.4981 37.3219 40.9931 37.0717 40.3197 37.2802C39.5621 37.2385 39.5621 38.6146 39.983 38.8648C40.3197 39.1984 40.2776 39.2401 40.7406 39.3652C41.0773 39.4486 41.3719 39.532 41.6665 39.6154C42.1715 39.7405 43.5183 39.6571 43.1816 40.3243C42.8029 40.6162 41.919 40.2826 41.4981 40.1992C40.951 40.0741 40.4039 39.949 39.7726 39.9073C39.3517 39.9073 39.1413 40.1575 39.015 40.5328C38.8466 40.9498 39.015 41.2 39.0992 41.5753L39.3517 41.8672C39.983 42.3676 41.8769 42.451 42.382 42.7429C42.4241 42.9514 42.4241 43.1182 42.382 43.285C41.5402 43.4518 39.8147 42.4093 38.9308 42.5344H38.5941C38.5941 42.7012 39.0992 42.7429 39.52 42.868C40.446 43.1182 41.7086 43.6603 42.5924 43.6186C42.7608 43.1599 42.9291 42.6178 42.887 42.034C42.1295 41.8255 41.3298 41.6587 40.5301 41.4919C40.2776 41.4502 39.52 41.3251 39.3938 41.1583C39.3517 41.1166 39.0571 40.2826 39.8567 40.2409C41.3719 40.1575 43.0133 41.2 43.4763 40.4911C43.5604 40.3243 43.7709 39.532 43.7709 39.3235C43.4342 39.1567 42.4662 38.9065 42.0032 38.8231C41.6244 38.7397 40.2776 38.6146 40.1093 38.4478C39.983 38.281 40.0251 37.864 40.1514 37.6555C40.5301 37.1551 43.7709 38.3227 44.1917 37.8223C44.318 37.6555 44.6126 36.5712 44.5284 36.321C43.9392 36.1959 43.35 36.0708 42.7608 35.9874C42.1715 35.904 41.1614 36.0708 40.8247 35.7789C40.7827 35.4036 40.7827 34.9866 41.1614 34.9032C41.7928 34.7781 44.2759 35.2785 44.5705 34.8198C44.7389 34.5696 44.6126 34.0275 44.4863 33.819C44.1496 33.3186 43.35 33.1518 42.7187 33.1101C42.0874 33.0684 42.1715 33.2352 41.7086 33.3603C41.414 33.0684 41.5823 32.5263 41.7086 32.151C42.887 31.9842 43.855 32.2344 44.4022 32.1927C44.6126 32.151 45.0335 31.734 45.2018 31.6089C45.4544 31.3587 45.7911 31.2336 45.7911 30.7749C45.4123 30.483 43.855 30.3162 43.2658 30.4413C42.887 30.5247 42.3399 30.9417 42.2978 30.3579C42.2136 28.8567 43.6025 29.4822 45.6227 29.5656C46.5486 29.6073 46.8432 29.6907 47.0116 28.3146C47.0537 27.8559 46.8853 27.981 45.1177 27.8976C44.823 27.8976 44.4022 27.8559 44.1076 27.8559C43.7288 27.8976 43.5604 28.1061 43.2658 28.0644C43.1816 27.8142 43.1816 27.5223 43.2237 27.2304C43.2658 26.8968 43.3921 26.8134 43.7288 26.7717C44.8651 26.6883 46.9274 26.9385 47.3483 26.73C47.6429 26.5631 47.8954 25.5206 47.8954 25.3121C47.222 25.2287 46.5065 25.1036 45.8752 25.0202C44.4863 24.8534 44.4443 25.7291 44.0234 25.3538C43.7709 25.0619 43.9813 24.3947 44.1917 24.2279C44.7389 23.7275 47.7271 24.1445 48.4005 24.0611C48.5688 23.7692 48.8634 22.9769 48.7793 22.6016C48.2742 22.3514 46.0436 22.0595 45.4123 22.4765C45.0756 22.7267 45.1597 23.0603 45.1597 23.5607L44.1497 23.8109ZM56.3129 47.6636L57.2809 47.9555C58.6698 48.3308 58.9223 46.9129 58.4173 46.4959L58.0385 46.2457C58.0385 46.2457 57.9964 46.2457 57.9964 46.204C57.0284 45.4951 52.1463 44.0356 50.6732 43.702C50.084 43.5769 45.0335 42.3676 44.5705 42.3676C44.1076 42.3676 43.855 43.6603 43.855 44.0773C45.9173 44.4943 48.1479 45.2032 50.1681 45.787L56.3129 47.6636ZM46.3803 43.5352C47.4325 43.7854 50.3365 44.536 51.1362 44.6611C51.4729 44.7028 51.8937 44.7028 51.9358 45.0364C51.9779 45.4117 51.7254 45.7036 51.3887 45.7453C50.9257 45.787 49.2001 45.1615 48.6109 44.9947C48.0217 44.8279 47.3904 44.6611 46.7591 44.4943C46.2119 44.3692 45.1597 44.1607 44.9072 43.9939C44.781 42.9097 45.749 43.3684 46.3803 43.5352ZM58.9644 45.1615C59.0907 44.9113 59.0065 45.1615 59.259 44.7028L59.3432 44.5777L59.3853 44.536C59.5957 43.5352 59.0907 43.4101 58.291 43.0765C57.6597 42.8263 57.0284 42.5761 56.355 42.3676C53.493 41.3668 50.9678 40.6996 47.9796 40.0324C47.3062 39.8656 46.4224 39.6154 45.749 39.5737C45.2439 39.532 45.0335 39.6154 44.9072 40.0324C44.823 40.3243 44.6968 40.8247 44.6968 41.1166L48.4005 41.9506C51.3466 42.7012 54.2927 43.702 57.1967 44.7028C57.6176 44.9113 58.4594 45.3283 58.9644 45.1615ZM52.6934 42.034C52.8196 42.2842 52.6092 42.5344 52.4829 42.6595C52.3146 42.7429 45.7069 41.1166 45.6648 41.1166C45.6227 40.9498 45.6227 40.783 45.6648 40.6162C45.749 40.2409 46.4645 40.4911 47.0958 40.6162L52.2725 41.8255C52.525 41.9506 52.5671 41.8672 52.6934 42.034ZM45.9594 36.8632C45.7069 37.0717 45.7069 37.3219 45.5806 37.7389C45.4123 38.4895 45.3702 38.4061 45.8331 38.4895C46.5486 38.6146 47.222 38.7814 47.8954 38.9482C51.5149 39.7822 54.1664 40.4911 57.6176 41.8255C58.0385 41.9923 59.1328 42.4927 59.6378 42.3676C59.9324 42.2842 60.1008 41.9506 60.1008 41.5753C60.1008 40.6162 59.0486 40.4494 57.8701 39.9907C56.6496 39.532 55.4291 39.0733 54.1244 38.6563C53.3247 38.3644 46.5486 36.4044 45.9594 36.8632ZM46.5486 38.4061C46.5065 37.9474 46.4645 37.6555 46.9695 37.6555L49.8735 38.281C50.5048 38.4478 53.2405 38.9899 53.5351 39.2818C53.7456 39.4903 53.5351 39.9073 53.1984 39.949C52.9038 39.9907 50.8415 39.3235 50.4207 39.1984L46.5486 38.4061ZM48.0638 29.8575C48.6109 30.1494 51.2624 30.6915 52.0621 30.9C54.7978 31.5672 57.1546 32.3595 59.7641 33.402C60.6479 33.7356 62.121 34.6113 62.4997 33.819C62.6681 33.5271 62.7102 33.0684 62.4997 32.7765C61.9947 32.151 56.4812 30.1077 55.3449 29.7741C53.9981 29.3571 52.6092 29.1069 51.2203 28.815C50.2523 28.6065 48.5267 27.981 48.2321 28.815C48.19 28.9401 48.0638 29.6907 48.0638 29.8575ZM48.9897 29.8158C48.7793 28.9401 50.2102 29.3988 50.6311 29.4822C52.3988 29.8158 53.7035 30.066 55.4712 30.5664C55.8499 30.6915 56.1866 30.6081 56.1445 31.0668C56.1025 31.9425 55.0924 31.5255 54.5873 31.3587C53.3247 30.9417 52.1883 30.6498 50.8836 30.3579C50.5469 30.2745 50.2523 30.2328 49.8735 30.1494C49.621 30.066 49.0739 30.066 48.9897 29.8158ZM49.7052 24.2696L53.6614 25.2287C57.9964 26.3129 58.8802 26.7717 62.7523 28.398C63.7203 28.815 64.1412 28.7733 64.3095 27.9393C64.4778 27.147 63.7624 26.9385 63.2152 26.6883C57.9122 24.3113 57.7018 24.353 52.1463 23.0186C51.7254 22.9352 50.5048 22.5599 50.1681 22.5599C49.9577 22.8518 49.621 23.8526 49.7052 24.2696ZM50.7153 24.2696C50.589 23.102 51.6412 23.6024 52.3146 23.7692L56.4392 24.8534C57.5334 25.1453 58.0806 25.0619 57.7018 25.8959C57.1546 25.8959 56.4392 25.6457 55.892 25.5206L52.3988 24.6866C52.0621 24.6032 50.8836 24.353 50.7153 24.2696ZM47.7692 34.1943C46.9695 34.3611 46.5486 35.1117 46.8853 35.487C47.1379 35.7789 48.2321 35.9874 48.7372 36.1125C52.2725 37.03 54.8398 37.5721 58.2489 38.9065C58.7119 39.0733 59.6378 39.4903 60.1008 39.532C60.7742 39.6154 61.4055 38.8231 60.9425 38.2393C60.6479 37.8223 59.9324 37.6138 59.3432 37.3636C56.6075 36.321 54.8398 35.6538 51.9358 34.9449C50.9678 34.7364 48.653 34.0275 47.7692 34.1943ZM54.2085 37.1551C53.7456 37.1134 50.2102 36.1542 49.2001 35.9457C48.4846 35.8206 47.5587 35.8623 47.8533 35.3619C48.2742 34.653 50.4628 35.3202 51.1782 35.5287C51.8937 35.7372 53.9981 36.1125 54.419 36.4044C54.4611 36.7381 54.3348 36.9466 54.2085 37.1551ZM49.4527 25.5206C49.0318 25.6457 49.0739 25.8542 48.9476 26.2712C48.653 27.3555 49.7473 27.2721 51.3466 27.6474C52.7355 27.9393 54.0823 28.3146 55.387 28.6899C57.0705 29.1903 57.5334 29.3988 59.1328 30.0243C59.6378 30.2328 62.4997 31.4421 62.9206 31.317C63.1731 31.2336 63.8886 30.1494 63.0048 29.7324C62.4156 29.4405 61.7843 29.1903 61.2371 28.9401C58.5435 27.7308 56.5654 27.0219 53.6193 26.3546C52.9038 26.1878 49.9998 25.3955 49.4527 25.5206ZM56.7338 27.8559C57.0284 28.0644 57.0705 28.398 56.8179 28.6065C56.4392 28.8567 55.3028 28.4397 54.924 28.3146C54.3348 28.1478 53.7456 27.9393 53.1143 27.7725C52.3146 27.564 50.1681 27.2304 50.1261 27.1887C49.7894 27.0636 49.7473 26.6049 50.0419 26.438C50.4207 26.2295 54.924 27.3555 55.8499 27.564C56.1445 27.6891 56.4813 27.6891 56.7338 27.8559ZM47.7692 31.1919C47.222 31.5672 48.5267 32.985 49.2422 33.1935C52.1042 33.9858 55.0924 34.7364 57.828 35.7789C58.3752 35.9874 61.1529 37.2802 61.5738 36.6963C61.7001 36.4878 61.8263 35.9874 61.7422 35.6955C61.658 35.4453 61.3634 35.2785 61.0688 35.1117C60.5216 34.8198 59.8903 34.6113 59.3432 34.3611C56.4812 33.1518 54.8819 32.6514 51.8516 31.9425C51.3045 31.8174 48.1059 30.9834 47.7692 31.1919ZM48.5688 32.0676C49.5368 31.9842 52.525 32.8182 53.7035 33.1518C54.0823 33.2769 54.9661 33.4854 55.2607 33.6522C55.387 34.7364 54.5031 34.2777 53.7877 34.1109L49.9156 33.1518C49.3264 33.0267 48.4426 32.7348 48.5688 32.0676Z" fill="#85571B"/>
</g>
<mask id="mask5_1_1562" style="mask-type:luminance" maskUnits="userSpaceOnUse" x="0" y="0" width="104" height="103">
<path d="M0 0H103.956V103H0V0Z" fill="white"/>
</mask>
<g mask="url(#mask5_1_1562)">
<path d="M44.8651 53.9603L45.2439 54.002C45.1597 53.7935 44.9072 53.6684 44.6126 53.4599C44.4022 53.2931 44.1917 53.168 43.9813 52.9595C43.1816 52.2923 42.2978 51.5 42.0032 50.3324C41.919 49.9571 41.6665 48.581 41.919 48.164C41.8769 47.5385 42.0453 46.7879 42.0032 46.079C41.9611 45.3284 41.2877 45.0781 40.951 45.7454C40.6564 46.3709 40.6564 48.9146 40.7827 49.7069C40.8247 49.9988 40.9089 50.249 41.0352 50.4575C41.1614 50.7077 41.3298 50.8745 41.2877 51.1664C40.7406 51.2915 40.1934 50.249 40.0672 49.7069C40.0672 49.3316 39.983 48.8729 39.983 48.4559C39.983 47.9972 39.9409 47.5802 39.9409 47.1215C39.8988 45.9122 40.2355 44.9947 39.5621 44.9113C39.015 45.3701 38.9729 46.6211 38.9729 47.4134C38.9308 50.6243 39.7726 49.7903 40.0251 50.2907C40.4039 50.9996 40.2355 50.9162 40.951 51.6668C42.382 53.1263 42.6766 52.3757 43.0133 52.4591L44.8651 53.9603Z" fill="#9A6724"/>
</g>
<mask id="mask6_1_1562" style="mask-type:luminance" maskUnits="userSpaceOnUse" x="0" y="0" width="104" height="103">
<path d="M0 0H103.956V103H0V0Z" fill="white"/>
</mask>
<g mask="url(#mask6_1_1562)">
<path d="M45.8331 89.4057C45.9173 89.4891 45.8331 89.4474 45.9594 89.4474H46.0857C46.2119 89.4474 46.2961 89.4057 46.3803 89.364C46.3803 89.1972 46.4645 87.0704 46.6328 86.7785C46.5486 86.4032 46.7591 84.8603 46.8012 84.4016L47.3483 77.4376C47.4746 75.8947 47.5587 74.3518 47.7271 72.7672L48.0638 68.1385V67.7632H47.5166L45.8331 89.4057Z" fill="white"/>
</g>
<mask id="mask7_1_1562" style="mask-type:luminance" maskUnits="userSpaceOnUse" x="0" y="0" width="104" height="103">
<path d="M0 0H103.956V103H0V0Z" fill="white"/>
</mask>
<g mask="url(#mask7_1_1562)">
<path d="M47.8533 49.5401C47.8954 50.0405 47.685 49.9988 47.9796 50.8745C48.7793 53.2097 50.2944 53.6267 51.8516 54.6692C52.1463 54.836 52.525 55.253 52.8197 55.253C53.2405 55.253 53.7035 54.9611 53.7877 54.6692C53.6193 54.3356 52.9038 53.9603 52.6092 53.7101C52.1042 53.3348 50.8415 52.0004 50.5048 51.5C50.1261 50.9162 50.1261 50.5409 50.1261 49.7069C50.4628 47.2883 48.6109 46.8296 48.0638 48.0806C47.9375 48.3308 47.8113 49.2482 47.8533 49.5401ZM49.7473 49.832C49.7473 51.0413 49.9156 51.1664 50.3786 52.0004C50.5048 52.2506 50.7153 53.0846 50.1681 52.8761C49.9156 52.7927 49.4948 52.4591 49.3685 52.2923C48.6951 51.5 48.5267 50.0405 48.9055 48.9563C49.0318 48.5393 49.116 48.2891 49.6631 48.3725C49.9156 48.7478 49.7473 49.2065 49.7473 49.832Z" fill="#9A6724"/>
</g>
<mask id="mask8_1_1562" style="mask-type:luminance" maskUnits="userSpaceOnUse" x="0" y="0" width="104" height="103">
<path d="M0 0H103.956V103H0V0Z" fill="white"/>
</mask>
<g mask="url(#mask8_1_1562)">
<path d="M48.8634 16.9304L48.4005 17.2223C48.2742 17.4725 47.8954 17.5976 47.3062 18.5984C47.0958 18.932 46.4224 19.9745 46.8012 20.3498C47.4325 20.8502 48.0638 19.2239 48.5688 18.4316C50.0419 16.1797 51.1362 16.6802 50.4628 17.1806C50.084 17.4725 49.7052 17.9312 49.4527 18.3482C49.1581 18.7652 48.5688 19.7243 48.6951 20.4332C49.4527 21.1004 50.1682 19.5992 50.5469 18.932C50.9257 18.2648 51.1782 17.7644 51.6412 17.264C52.5671 16.2631 50.9257 16.1797 50.3365 16.5133C49.8315 16.8053 49.621 16.9721 49.2001 17.264C49.2001 17.1389 49.3264 17.0555 49.2422 16.8887L48.8634 16.9304Z" fill="#85571B"/>
</g>
<mask id="mask9_1_1562" style="mask-type:luminance" maskUnits="userSpaceOnUse" x="0" y="0" width="104" height="103">
<path d="M0 0H103.956V103H0V0Z" fill="white"/>
</mask>
<g mask="url(#mask9_1_1562)">
<path d="M42.9291 47.4133C42.9291 47.7886 42.887 48.164 42.887 48.581C42.887 48.9563 42.9291 49.3733 42.9291 49.7486C42.9291 50.7077 42.9712 50.9579 43.4342 51.5834C43.7709 52.0421 44.1076 52.4591 44.5284 52.7927C44.7389 52.9595 44.9493 53.168 45.2018 53.2931L45.7911 53.585C46.0436 53.6267 46.3803 53.4599 45.5806 52.9595C44.781 52.4591 44.4863 51.9587 44.2338 50.8745C43.9392 49.7069 44.0234 48.7895 44.0655 47.6636C44.0655 47.2882 44.0234 46.7878 44.0234 46.4959C44.0655 45.9955 43.5183 45.7036 43.1395 46.0372C43.0133 46.204 42.887 47.1214 42.9291 47.4133Z" fill="#9A6724"/>
</g>
<mask id="mask10_1_1562" style="mask-type:luminance" maskUnits="userSpaceOnUse" x="0" y="0" width="104" height="103">
<path d="M0 0H103.956V103H0V0Z" fill="white"/>
</mask>
<g mask="url(#mask10_1_1562)">
<path d="M57.9964 22.3931C58.4173 21.5174 58.7961 19.2656 60.1849 18.7652C60.4796 18.6818 60.6058 18.7235 60.7742 18.515C60.7321 17.7227 59.1328 18.1814 58.7119 18.3899C58.0385 18.7652 56.9442 19.6409 56.5233 20.3915C55.892 21.5591 55.9762 21.8093 56.7759 22.1429C57.1546 22.3097 57.5334 22.4765 57.9964 22.3931ZM57.7018 22.0595C57.0284 22.1012 57.1546 21.9761 56.9863 21.851C56.9863 21.4757 57.0705 21.5591 57.2388 21.3089C57.6176 20.7251 57.7439 20.0162 58.2068 20.0996C58.6698 20.1413 58.291 20.8085 58.1647 21.017C57.9122 21.434 57.8281 21.5174 57.7018 22.0595Z" fill="#85571B"/>
</g>
<mask id="mask11_1_1562" style="mask-type:luminance" maskUnits="userSpaceOnUse" x="0" y="0" width="104" height="103">
<path d="M0 0H103.956V103H0V0Z" fill="white"/>
</mask>
<g mask="url(#mask11_1_1562)">
<path d="M45.286 49.0397C45.4123 49.5818 45.1177 50.0405 45.3702 51.083C45.5385 51.7919 45.8331 52.0004 46.2119 52.3757C46.6328 52.7927 47.8533 54.0437 48.8634 54.002C48.7793 53.2097 47.222 52.6259 46.8432 50.9162L46.6749 49.7486C46.6749 49.5401 46.6749 49.415 46.8011 49.2899C46.8011 48.3725 47.1378 46.9546 46.1698 46.7461C45.5806 46.621 45.4123 47.0797 45.3702 47.5384C45.286 47.9138 45.2018 48.7061 45.286 49.0397ZM47.1799 52.6259C45.8752 52.4591 45.749 50.7077 45.749 49.4567C45.749 48.9563 45.7069 47.8721 46.0436 47.6636C46.9274 47.2048 46.1698 49.2899 46.5907 51.083C46.6328 51.3332 46.717 51.6668 46.8432 51.8753C47.0116 52.2089 47.1799 52.2506 47.1799 52.6259ZM44.8651 43.9939C45.1177 44.1607 46.2119 44.3692 46.717 44.4943C47.3483 44.6611 47.9796 44.8279 48.5688 44.9947C49.2001 45.1615 50.9257 45.787 51.3466 45.7453C51.6412 45.7036 51.9358 45.4117 51.8937 45.0364C51.8516 44.7028 51.4308 44.7028 51.0941 44.6611C50.2944 44.536 47.3904 43.7437 46.3382 43.5352C45.749 43.3684 44.781 42.9097 44.8651 43.9939ZM54.5873 31.317C55.0924 31.4838 56.1445 31.9425 56.1445 31.0251C56.1445 30.5664 55.8499 30.6498 55.4711 30.5247C53.7035 30.0243 52.3988 29.7741 50.6311 29.4405C50.1681 29.3571 48.7372 28.8984 48.9897 29.7741C49.0739 30.0243 49.621 30.0243 49.8735 30.066C50.2102 30.1077 50.5469 30.1911 50.8836 30.2745C52.1883 30.5664 53.3247 30.9 54.5873 31.317ZM49.9998 26.438C49.7473 26.6048 49.7473 27.0635 50.084 27.1887C50.1261 27.1887 52.2304 27.5223 53.0722 27.7725C53.7035 27.9393 54.2927 28.1478 54.8819 28.3146C55.2607 28.4397 56.3971 28.8567 56.7759 28.6065C57.0284 28.4397 57.0284 28.0644 56.6917 27.8559C56.4392 27.6891 56.1445 27.6474 55.7658 27.564C54.8398 27.3555 50.3365 26.2295 49.9998 26.438Z" fill="#9A6724"/>
</g>
<mask id="mask12_1_1562" style="mask-type:luminance" maskUnits="userSpaceOnUse" x="0" y="0" width="104" height="103">
<path d="M0 0H103.956V103H0V0Z" fill="white"/>
</mask>
<g mask="url(#mask12_1_1562)">
<path d="M57.2809 17.4308C56.2708 16.7219 55.0503 17.8895 54.6715 18.4316C54.419 18.8486 54.1664 19.2656 53.9139 19.7243C53.7456 20.0162 53.2405 20.7668 53.4089 21.2255C53.6614 21.7259 54.5031 21.3089 54.7136 21.0587C54.9661 20.7251 55.1345 20.0579 55.3449 19.6409C55.6816 19.0154 56.1025 18.3065 56.7759 18.0146C57.1126 17.8478 57.3651 17.8061 57.2809 17.4308ZM54.5873 16.847C53.5772 16.1381 52.3567 17.3057 51.9779 17.8478C51.7254 18.2648 51.4729 18.6818 51.2203 19.1405C51.052 19.4324 50.5469 20.183 50.7153 20.6417C50.9678 21.1421 51.8096 20.7251 52.02 20.4749C52.3567 20.0996 52.7776 18.0146 54.0823 17.4308C54.419 17.264 54.6715 17.2223 54.5873 16.847Z" fill="#85571B"/>
</g>
<mask id="mask13_1_1562" style="mask-type:luminance" maskUnits="userSpaceOnUse" x="0" y="0" width="104" height="103">
<path d="M0 0H103.956V103H0V0Z" fill="white"/>
</mask>
<g mask="url(#mask13_1_1562)">
<path d="M55.3028 33.6522C54.9661 33.4854 54.1244 33.2769 53.7456 33.1518C52.5671 32.8182 49.5789 31.9842 48.6109 32.0676C48.4426 32.7348 49.3685 33.0267 49.9998 33.1518L53.8718 34.1109C54.5032 34.2777 55.4291 34.7364 55.3028 33.6522ZM50.7153 24.2696C50.8836 24.3947 52.1042 24.6032 52.3988 24.7283L55.892 25.5623C56.4392 25.6874 57.1547 25.9376 57.7018 25.9376C58.0806 25.1036 57.5334 25.187 56.4392 24.8951L52.3146 23.8109C51.6412 23.6024 50.5469 23.102 50.7153 24.2696ZM46.5486 38.4061L50.4207 39.1984C50.8416 39.3235 52.9459 39.949 53.1984 39.949C53.5351 39.9073 53.7456 39.532 53.5351 39.2818C53.2405 38.9899 50.5049 38.4478 49.8735 38.281L46.9695 37.6555C46.4645 37.6138 46.5066 37.9057 46.5486 38.4061ZM52.2725 41.8672L47.0958 40.6579C46.4645 40.5328 45.7911 40.2826 45.6648 40.6579C45.6227 40.8247 45.6227 41.0332 45.6648 41.1583C45.6648 41.1583 52.3146 42.7846 52.483 42.7012C52.6092 42.5344 52.7776 42.3259 52.6934 42.0757C52.5671 41.8672 52.525 41.9506 52.2725 41.8672ZM54.2085 37.155C54.2927 36.9465 54.4611 36.738 54.419 36.4044C53.9981 36.1125 51.8937 35.6955 51.1782 35.5287C50.4628 35.3619 48.3163 34.653 47.8533 35.3619C47.5587 35.8623 48.4847 35.8206 49.2001 35.9457C50.2102 36.1542 53.7456 37.1133 54.2085 37.155Z" fill="#9A6724"/>
</g>
<mask id="mask14_1_1562" style="mask-type:luminance" maskUnits="userSpaceOnUse" x="0" y="0" width="104" height="103">
<path d="M0 0H103.956V103H0V0Z" fill="white"/>
</mask>
<g mask="url(#mask14_1_1562)">
<path d="M49.7473 49.832C49.7473 49.2065 49.9156 48.7478 49.6631 48.3725C49.116 48.2891 49.0318 48.581 48.9055 48.9563C48.5267 49.9988 48.6951 51.4583 49.3685 52.2923C49.4947 52.4591 49.9156 52.7927 50.1681 52.8761C50.7153 53.0846 50.5048 52.2506 50.3786 52.0004C49.9156 51.2081 49.7473 51.0413 49.7473 49.832ZM47.1799 52.6259C47.1379 52.2506 47.0116 52.2089 46.8432 51.8753C46.717 51.6668 46.6749 51.3332 46.5907 51.083C46.1278 49.2899 46.8853 47.2465 46.0436 47.6636C45.7069 47.8304 45.749 48.9563 45.749 49.4567C45.749 50.7077 45.8752 52.4591 47.1799 52.6259Z" fill="#85571B"/>
</g>
<mask id="mask15_1_1562" style="mask-type:luminance" maskUnits="userSpaceOnUse" x="0" y="0" width="104" height="103">
<path d="M0 0H103.956V103H0V0Z" fill="white"/>
</mask>
<g mask="url(#mask15_1_1562)">
<path d="M39.6884 39.8239C40.3197 39.8656 40.8248 39.949 41.414 40.1158C41.8769 40.2409 42.7187 40.5328 43.0975 40.2409C43.4342 39.532 42.0874 39.6154 41.5823 39.532L40.6564 39.2818C40.1934 39.1567 40.2355 39.0733 39.8988 38.7814C39.9409 39.0316 39.7726 39.4903 39.6884 39.8239ZM40.2355 37.1551C40.9089 36.9466 41.3719 37.1968 42.0453 37.3219C42.4662 37.4053 43.5604 37.6138 43.8971 37.4887C43.9392 37.3636 43.9813 37.2385 43.9392 37.0717C43.5604 36.8215 41.3719 36.8632 40.7406 36.196L40.5722 35.9875C40.6143 36.2377 40.3197 36.9466 40.2355 37.1551ZM38.8466 42.451C39.7726 42.3259 41.4982 43.3684 42.2978 43.2016C42.3399 43.0348 42.382 42.868 42.2978 42.6595C41.7928 42.3676 39.8567 42.2842 39.2675 41.7838L39.015 41.4919C39.0571 41.7004 38.8887 42.2842 38.8466 42.451Z" fill="#9A6724"/>
</g>
<mask id="mask16_1_1562" style="mask-type:luminance" maskUnits="userSpaceOnUse" x="0" y="0" width="104" height="103">
<path d="M0 0H103.956V103H0V0Z" fill="white"/>
</mask>
<g mask="url(#mask16_1_1562)">
<path d="M45.9173 32.0259C44.4864 32.4429 44.6968 34.8198 46.0857 34.4445C46.5486 34.3194 47.0537 33.6939 47.0537 33.1101C47.0537 32.4429 46.5907 31.8591 45.9173 32.0259ZM46.0015 32.3595C46.5065 32.2344 46.717 32.7348 46.6749 33.1935C46.6328 33.6105 46.3382 34.0275 45.9594 34.1526C44.9914 34.4028 45.0335 32.6097 46.0015 32.3595Z" fill="#85571B"/>
</g>
<mask id="mask17_1_1562" style="mask-type:luminance" maskUnits="userSpaceOnUse" x="0" y="0" width="104" height="103">
<path d="M0 0H103.956V103H0V0Z" fill="white"/>
</mask>
<g mask="url(#mask17_1_1562)">
<path d="M46.0015 32.3595C45.0335 32.6097 44.9914 34.4028 45.9594 34.1526C46.3382 34.0692 46.6328 33.6105 46.6749 33.1935C46.717 32.7348 46.5065 32.2344 46.0015 32.3595ZM43.6446 26.4381C44.6126 26.1045 46.2961 26.73 47.222 26.3964C47.2641 26.0211 46.9695 26.0628 46.5907 25.9794C45.9173 25.896 45.1598 25.8543 44.4864 25.8126C43.9813 25.7709 43.9813 25.7709 43.6446 25.479C43.7288 25.7292 43.6446 26.1045 43.6446 26.4381ZM40.9931 34.5696C41.4561 34.6113 40.8248 34.4862 41.7507 34.5279C42.2557 34.5696 43.9392 34.7781 44.1497 34.5696C44.2338 34.4862 44.2338 34.6947 44.1917 34.4445C44.1917 34.236 43.9392 34.1943 43.7709 34.1526C43.0554 34.0275 41.8769 34.1109 41.414 33.6522L41.3298 33.5688L41.2877 33.5271C41.3298 33.819 41.1194 34.3611 41.0773 34.4445C41.0773 34.5279 41.0352 34.5696 40.9931 34.5696ZM42.5082 29.1903C42.8449 29.1903 42.5503 29.0652 43.3921 29.1069L46.2119 29.232C46.3382 28.6482 46.0015 28.815 44.5705 28.6899C44.1497 28.6482 43.4342 28.6482 43.0975 28.4814L42.8449 28.2312L42.8029 28.1895C42.8029 28.1895 42.8029 28.1478 42.7608 28.1478L42.6345 29.0235C42.5924 29.1486 42.6345 29.1069 42.5082 29.1903ZM57.7018 22.0595C57.8281 21.5174 57.8701 21.434 58.1227 21.0587C58.291 20.8085 58.6277 20.183 58.1647 20.1413C57.7018 20.0579 57.6176 20.7668 57.1967 21.3506C57.0284 21.6008 56.9442 21.5174 56.9442 21.8927C57.1547 22.0178 57.0284 22.1012 57.7018 22.0595ZM42.0453 31.8174C42.7608 31.6923 43.7288 32.0259 44.5284 31.8174L44.6126 31.4838C44.2759 31.3587 43.2658 31.3587 42.6345 31.2336C42.3399 31.1919 42.3399 31.1919 42.1715 31.0251L42.0874 30.9834C42.1715 31.2336 42.0874 31.5672 42.0453 31.8174Z" fill="#9A6724"/>
</g>
<mask id="mask18_1_1562" style="mask-type:luminance" maskUnits="userSpaceOnUse" x="0" y="0" width="104" height="103">
<path d="M0 0H103.956V103H0V0Z" fill="white"/>
</mask>
<g mask="url(#mask18_1_1562)">
<path d="M40.7827 49.7069C40.5301 49.7486 40.2355 49.7486 40.0672 49.6652C40.1934 50.2073 40.7406 51.2915 41.2877 51.1247C41.3298 50.8745 41.1614 50.666 41.0352 50.4158C40.9089 50.249 40.8247 49.9988 40.7827 49.7069Z" fill="#85571B"/>
</g>
<mask id="mask19_1_1562" style="mask-type:luminance" maskUnits="userSpaceOnUse" x="0" y="0" width="104" height="103">
<path d="M0 0H103.956V103H0V0Z" fill="white"/>
</mask>
<g mask="url(#mask19_1_1562)">
<path d="M55.2186 42.0757C55.8499 48.7061 55.0082 49.1648 59.8903 50.3741C55.3028 51.7502 56.6496 52.1255 55.2186 58.6725C54.2506 51.8336 55.5132 51.5417 50.5469 50.3741C55.7237 49.7069 54.0823 48.8312 55.2186 42.0757Z" fill="white"/>
</g>
<mask id="mask20_1_1562" style="mask-type:luminance" maskUnits="userSpaceOnUse" x="0" y="0" width="104" height="103">
<path d="M0 0H103.956V103H0V0Z" fill="white"/>
</mask>
<g mask="url(#mask20_1_1562)">
<path d="M48.8634 16.9304L49.1159 16.8887C49.2001 17.0555 49.1159 17.1389 49.0739 17.264C49.5368 16.9304 49.7052 16.7636 50.2102 16.5134C50.7994 16.1798 52.4409 16.2632 51.5149 17.264C51.0099 17.8061 50.7994 18.2648 50.4207 18.932C50.0419 19.5575 49.3264 21.1004 48.5688 20.4332C48.4846 19.766 49.0318 18.7652 49.3264 18.3482C49.621 17.9312 49.9577 17.4725 50.3365 17.1806C51.052 16.6802 49.9577 16.1798 48.4425 18.4316C47.9375 19.2239 47.3062 20.8502 46.6749 20.3498C46.2961 20.0162 47.0116 18.932 47.1799 18.5984C47.8112 17.5976 48.1479 17.4725 48.2742 17.2223C47.8954 17.0555 47.8533 16.847 47.222 17.3057C46.4224 17.8895 45.4964 18.4733 44.9914 19.4324C44.7389 19.9328 43.8129 22.2263 44.1496 22.8101C44.1917 22.9352 44.4442 23.102 44.2338 23.6024L44.0655 23.8526L44.823 23.6441C44.823 23.1854 44.7389 22.8101 45.0756 22.5599C45.7069 22.1012 47.9375 22.4348 48.4425 22.685C48.5267 23.102 48.2742 23.8526 48.0638 24.1445C47.3904 24.2279 44.4022 23.7692 43.855 24.3113C43.6446 24.5198 43.4342 25.1453 43.6867 25.4372C44.1496 25.8125 44.1496 24.8951 45.5385 25.1036C46.2119 25.187 46.8853 25.3121 47.5587 25.3955C47.5587 25.604 47.3062 26.6466 47.0116 26.8134C46.5907 27.0219 44.5284 26.73 43.3921 26.8551C43.0554 26.8968 42.9291 26.9385 42.887 27.3138C42.8449 27.6057 42.8449 27.8976 42.9291 28.1478C43.2237 28.1895 43.3921 27.981 43.7709 27.9393C44.0655 27.8976 44.4863 27.9393 44.781 27.981C46.5486 28.1061 46.7591 27.9393 46.6749 28.398C46.5065 29.7741 46.2119 29.6907 45.286 29.649C43.2237 29.5656 41.8348 28.9818 41.9611 30.4413C42.0032 31.0668 42.5503 30.6081 42.9291 30.5247C43.5183 30.3996 45.0756 30.5247 45.4543 30.8583C45.4543 31.317 45.1597 31.4838 44.8651 31.6923C44.6968 31.8174 44.2759 32.2761 44.0655 32.2761C43.5183 32.3178 42.5503 32.0676 41.3719 32.2344C41.2456 32.6097 41.0773 33.1518 41.3719 33.4437C41.8348 33.3186 41.7507 33.1518 42.382 33.1935C43.0133 33.2352 43.8129 33.402 44.1496 33.9024C44.2759 34.1109 44.4022 34.653 44.2338 34.9032C43.9392 35.3619 41.456 34.8615 40.8247 34.9866C40.488 35.07 40.4459 35.487 40.488 35.8623C40.8247 36.1542 41.8348 35.9874 42.4241 36.0708C43.0133 36.1542 43.6025 36.2793 44.1917 36.4044C44.2338 36.6547 43.9813 37.7389 43.855 37.9057C43.4342 38.4061 40.1934 37.2385 39.8146 37.7389C39.6884 37.9474 39.6463 38.3644 39.7726 38.5312C39.9409 38.698 41.2877 38.8231 41.6665 38.9065C42.0874 38.9899 43.0554 39.1984 43.4342 39.4069C43.4342 39.6154 43.2237 40.4077 43.1395 40.5745C42.6766 41.3251 41.0773 40.2826 39.52 40.3243C38.7204 40.366 39.015 41.2 39.0571 41.2417C39.1833 41.4085 39.9409 41.4919 40.1934 41.5753C40.9931 41.7421 41.7927 41.9089 42.5503 42.1174C42.5503 42.7012 42.4241 43.2433 42.2557 43.702C41.3719 43.7437 40.1513 43.2016 39.1833 42.9514C38.7625 42.8263 38.2574 42.7846 38.2574 42.6178C37.6682 42.9097 37.584 43.7854 37.3736 44.536C37.2473 45.0364 37.2052 46.6627 37.2894 47.2048C37.3315 47.6219 38.0049 48.7061 38.2153 49.0814C38.552 49.6652 38.6362 49.5818 38.8466 49.832C38.9729 49.9571 39.015 50.1239 39.1412 50.2073C39.3938 50.4575 39.3938 50.2907 39.6463 50.4158C39.8567 50.7494 39.6463 50.8328 40.0672 51.2498C40.6143 51.7919 40.9931 52.2506 41.6665 52.7093C41.8769 52.8344 41.7927 52.7927 41.919 53.0429H42.5082C42.6345 52.9178 42.5503 52.8761 42.7187 52.751C42.887 52.8344 43.0133 53.0429 43.2237 53.2514C43.6025 53.6684 44.1496 54.3356 44.7389 54.6275C44.7389 55.253 44.2759 56.7959 44.0655 57.4214C43.6446 58.7976 42.1294 60.4656 43.4762 62.6757C43.7288 63.051 43.9392 63.3429 44.2338 63.6348C44.8651 64.2603 44.8651 64.1352 45.2018 64.4271L45.1176 65.3028C44.4442 65.4279 44.318 65.3028 43.9392 65.7198C43.0554 66.6789 43.2237 68.3053 43.1395 69.7231C43.0554 71.7247 42.8449 73.6846 42.7187 75.6862C42.5924 77.6878 42.4661 79.6895 42.2978 81.6911C42.2136 82.8587 41.8769 86.8619 41.919 87.6959C42.382 87.9461 45.286 89.6142 45.6648 89.6142L47.3062 67.9717H47.8533C47.685 67.7631 47.5587 67.93 47.3062 67.8049C47.0537 67.7215 46.1277 66.1785 45.8752 65.8032C45.4123 65.0943 46.254 64.3437 45.4123 63.7599C44.7389 63.3012 43.7709 62.217 43.6446 61.4247C43.9813 61.5081 44.8651 61.6332 45.286 61.7166C47.9375 62.3421 48.2742 62.8425 49.5368 61.2996C50.1681 60.5073 51.2203 58.5474 51.6412 57.4632C51.7675 57.0878 52.1042 56.3372 52.1462 55.9619C50.9257 55.1696 47.3483 54.5858 45.5806 54.3356C45.286 54.2939 45.5385 54.3356 45.3702 54.2939C45.0335 54.2105 44.823 54.2522 44.6126 54.0854L42.7608 52.5425C42.382 52.4174 42.1294 53.2097 40.6985 51.7502C39.983 50.9996 40.1513 51.083 39.7726 50.3741C39.52 49.8737 38.6783 50.7077 38.7204 47.4968C38.7204 46.7044 38.8045 45.4534 39.3096 44.9947C39.983 45.1198 39.6884 45.9955 39.6884 47.2048C39.6884 47.6636 39.7305 48.0806 39.7305 48.5393C39.7305 48.998 39.8567 49.4567 39.8146 49.7903C39.983 49.8737 40.2776 49.8737 40.5301 49.832C40.3618 49.0397 40.4039 46.5376 40.6985 45.8704C41.0352 45.2032 41.7086 45.4117 41.7507 46.204C41.7927 46.913 41.6665 47.6636 41.6665 48.2891C41.6665 48.8312 41.5823 49.3733 41.7086 49.9154C42.0874 50.0405 42.2557 49.9988 42.6345 49.9988C42.6766 49.4984 42.5503 48.3725 42.6345 47.8304C42.6345 47.7887 42.6345 47.747 42.6766 47.6636C42.7187 47.5385 42.7187 47.5802 42.7187 47.5385C42.6766 47.2466 42.7608 46.3291 42.9291 46.204C43.3079 45.9121 43.855 46.204 43.8129 46.6627C44.0234 46.9129 43.855 49.1648 43.8971 49.8737L44.9914 49.9988V49.5401C44.9914 49.415 44.9914 49.2899 45.0756 49.1648C45.0335 48.8312 45.1176 47.9972 45.1176 47.6219C45.1597 47.1631 45.3281 46.7044 45.9173 46.8295C46.8853 47.0381 46.5065 48.4559 46.5486 49.3733L46.5065 49.9571H47.5587L47.6429 49.5818C47.6008 49.2899 47.7271 48.4142 47.8533 48.164C48.4425 46.9129 50.2523 47.3717 49.9156 49.7903C51.2624 49.9154 53.7456 49.2065 54.924 48.6227C55.3449 48.4142 56.0604 48.1223 56.1025 47.7053L49.9577 45.8704C47.9375 45.2866 45.749 44.5777 43.6446 44.1607C43.6446 43.7437 43.8971 42.451 44.3601 42.451C44.823 42.451 49.8735 43.6186 50.4627 43.7854C51.9358 44.1607 56.7759 45.5785 57.7859 46.2874C58.0385 46.3291 58.1226 46.1623 58.3752 45.8287L58.6277 45.5368C58.6277 45.5368 58.6698 45.5368 58.6698 45.4951L58.8802 45.2866C58.796 45.1615 58.9223 45.2449 58.754 45.2449C58.2489 45.4117 57.4072 44.9947 56.9442 44.8279C54.0823 43.8271 51.0941 42.8263 48.1479 42.0757L44.4442 41.2417C44.4863 40.9498 44.6126 40.4494 44.6547 40.1575C44.7389 39.7405 44.9493 39.6571 45.4964 39.6988C46.1698 39.7405 47.0537 39.9907 47.7271 40.1575C50.7153 40.8664 53.2405 41.4919 56.1025 42.4927C56.7759 42.7429 57.4072 42.9514 58.0385 43.2016C58.796 43.4935 59.3011 43.6186 59.1327 44.6611C59.3011 44.6194 59.3011 44.4526 59.5115 44.119C61.9947 39.7822 64.2253 33.0267 64.9829 28.2312C65.2354 26.6883 65.4879 24.6449 65.3617 23.0186L65.1512 21.6425C65.1512 21.4757 65.025 21.6842 65.1091 21.6425L63.3836 20.2247C63.2994 20.1413 63.2152 20.0996 63.131 20.0162C62.9627 19.8911 62.9627 19.9328 62.8364 19.766C63.2573 19.8911 64.7304 20.8502 65.1512 21.1421C65.0671 20.9753 65.1091 20.3498 65.1512 20.1413C64.8566 20.0162 64.6041 19.8077 64.3095 19.5992C62.626 18.4733 59.8061 17.3474 57.9122 16.847C57.2809 16.6802 55.1765 16.2632 54.5031 16.2632H50.589C49.8735 16.2632 49.4947 16.6802 49.2001 16.847C48.9897 16.9721 49.1159 16.8887 48.9476 16.8887L48.8634 16.9304Z" fill="#F0D3A3"/>
</g>
<mask id="mask21_1_1562" style="mask-type:luminance" maskUnits="userSpaceOnUse" x="0" y="0" width="104" height="103">
<path d="M0 0H103.956V103H0V0Z" fill="white"/>
</mask>
<g mask="url(#mask21_1_1562)">
<path d="M54.5873 16.847C54.6294 17.2223 54.3769 17.264 54.1244 17.3891C52.8617 17.9729 52.3988 20.0162 52.0621 20.4332C51.8516 20.7251 50.9678 21.1421 50.7574 20.6C50.5469 20.1413 51.0941 19.3907 51.2624 19.0988C51.5149 18.6401 51.7675 18.2231 52.02 17.8061C52.3567 17.3057 53.5772 16.1381 54.5873 16.847ZM57.2809 17.4308C57.323 17.8061 57.0705 17.8478 56.818 17.9729C56.1866 18.2648 55.7237 18.9737 55.387 19.5992C55.1765 20.0162 55.0503 20.6834 54.7557 21.017C54.5452 21.3089 53.6614 21.7259 53.451 21.1838C53.2405 20.7251 53.7877 19.9745 53.956 19.6826C54.2085 19.2239 54.4611 18.8069 54.7136 18.3899C55.0503 17.8895 56.2708 16.7636 57.2809 17.4308ZM57.9964 22.3931C57.5334 22.5182 57.1546 22.3097 56.7759 22.1429C56.0183 21.8093 55.9341 21.5174 56.5233 20.3915C56.9021 19.6409 57.9964 18.7652 58.7119 18.3899C59.1328 18.1397 60.7321 17.7227 60.7742 18.515C60.5637 18.7235 60.4375 18.6818 60.1849 18.7652C58.7961 19.2656 58.4173 21.4757 57.9964 22.3931ZM49.7052 24.2696C49.621 23.8943 49.9577 22.8518 50.1261 22.5182C50.4628 22.5182 51.6833 22.8935 52.1042 22.9769C57.6597 24.353 57.9122 24.2696 63.1731 26.6466C63.7203 26.8968 64.4358 27.147 64.2674 27.8976C64.057 28.7316 63.6782 28.7733 62.7102 28.3563C58.8381 26.73 57.9964 26.2713 53.6193 25.187L49.7052 24.2696ZM49.4527 25.5207C49.9998 25.3539 52.9038 26.1879 53.6193 26.313C56.5654 26.9802 58.5435 27.6891 61.2371 28.8984C61.7843 29.1486 62.4577 29.3988 63.0048 29.6907C63.8886 30.1077 63.1311 31.1919 62.9206 31.2753C62.4997 31.4421 59.6799 30.1911 59.1328 29.9826C57.5334 29.3154 57.0705 29.1486 55.387 28.6482C54.0823 28.2312 52.7355 27.8976 51.3466 27.6057C49.7473 27.2721 48.653 27.3555 48.9476 26.2296C49.0739 25.8543 49.0318 25.6875 49.4527 25.5207ZM48.0638 29.8575C48.0638 29.6907 48.19 28.9401 48.2321 28.7733C48.4847 27.9393 50.2523 28.5648 51.2203 28.7733C52.6092 29.0652 54.0402 29.3154 55.3449 29.7324C56.4813 30.066 61.9947 32.1093 62.4997 32.7348C62.7102 33.0267 62.6681 33.4437 62.4997 33.7773C62.121 34.5696 60.6058 33.7356 59.7641 33.3603C57.1547 32.3178 54.7978 31.5672 52.0621 30.8583C51.2624 30.6915 48.6109 30.1494 48.0638 29.8575ZM61.7843 35.6956C61.8684 35.9458 61.7422 36.4879 61.6159 36.6964C61.195 37.2802 58.4173 35.9875 57.8701 35.779C55.1765 34.7364 52.1463 33.9858 49.2843 33.1935C48.5688 32.985 47.2641 31.5672 47.8113 31.1919C48.148 30.9834 51.3466 31.8174 51.9358 31.9842C54.9661 32.6931 56.5654 33.2352 59.4274 34.4028C59.9745 34.653 60.6058 34.8615 61.153 35.1534C61.4055 35.2785 61.7001 35.4453 61.7843 35.6956ZM45.9173 32.0259C46.5907 31.8174 47.0537 32.4429 47.0537 33.1101C47.0537 33.7356 46.5486 34.3194 46.0857 34.4445C44.6968 34.8615 44.4864 32.4846 45.9173 32.0259ZM47.7692 34.1943C48.653 34.0275 50.9678 34.7364 51.8937 34.9449C54.7978 35.6539 56.5233 36.3211 59.3011 37.3636C59.8903 37.5721 60.6058 37.8223 60.9004 38.2393C61.3634 38.8648 60.7321 39.6154 60.0587 39.532C59.5957 39.4903 58.6698 39.0733 58.2068 38.9065C54.8398 37.5721 52.2304 37.03 48.6951 36.1126C48.2321 35.9875 47.0958 35.779 46.8432 35.487C46.5486 35.1117 46.9274 34.3611 47.7692 34.1943ZM45.9594 36.8632C46.5486 36.4462 53.3247 38.3644 54.1664 38.6563C55.4712 39.0733 56.6917 39.4903 57.9122 39.949C59.0907 40.4077 60.1429 40.5745 60.1429 41.5336C60.1429 41.9089 59.9745 42.2425 59.6799 42.3259C59.1328 42.4927 58.0806 41.9506 57.6597 41.7838C54.1664 40.4494 51.557 39.7405 47.9375 38.9065C47.2641 38.7397 46.5486 38.5729 45.8752 38.4478C45.4123 38.3644 45.4544 38.4478 45.6227 37.6972C45.7069 37.3219 45.7069 37.0717 45.9594 36.8632Z" fill="#F0D3A3"/>
</g>
<mask id="mask22_1_1562" style="mask-type:luminance" maskUnits="userSpaceOnUse" x="0" y="0" width="104" height="103">
<path d="M0 0H103.956V103H0V0Z" fill="white"/>
</mask>
<g mask="url(#mask22_1_1562)">
<path d="M65.4038 21.017C65.4879 21.1421 67.0873 22.3097 67.6765 22.9769C68.0553 23.4356 69.1075 24.8951 69.2337 25.6457H68.9812C68.9391 25.5623 68.897 25.5206 68.897 25.4789C68.1394 24.1445 67.466 23.4356 66.3718 22.4348L65.4459 21.3923C65.3196 21.4757 65.3617 21.3923 65.3617 21.5591L65.5721 22.9352C65.6984 24.5615 65.4459 26.6049 65.1933 28.1478C64.3937 32.9016 62.2051 39.6988 59.722 44.0356C59.5115 44.3692 59.5115 44.536 59.3432 44.5777L59.3011 44.6194L59.2169 44.7445C58.9644 45.2032 59.0486 44.9947 58.9223 45.2032C59.0907 45.2032 58.9644 45.1198 59.0486 45.2449L58.8381 45.4534C58.8381 45.4534 58.796 45.4534 58.796 45.4951L58.5435 45.787C58.291 46.1206 58.2068 46.2874 57.9543 46.2457L57.9964 46.2874L58.3752 46.5376C58.8381 46.9964 58.6277 48.3725 57.2388 47.9972L56.2708 47.7053C56.2708 48.1223 55.5132 48.4142 55.0924 48.6227C53.9139 49.2065 51.4308 49.9154 50.084 49.7903C50.084 50.6243 50.1261 50.9579 50.4628 51.5834C50.7574 52.0838 52.0621 53.4182 52.5671 53.7935C52.9038 54.0437 53.6193 54.419 53.7456 54.7526C53.6614 55.0445 53.2405 55.2947 52.7776 55.3364C52.4829 55.3364 52.0621 54.9611 51.8095 54.7526C50.2523 53.7101 48.7372 53.2931 47.9375 50.9579C47.6429 50.0822 47.8533 50.0822 47.8112 49.6235L47.7271 49.9988C47.4745 49.9571 47.0537 49.9571 46.6749 49.9988L46.717 49.415C46.6328 49.5401 46.5907 49.6652 46.5907 49.8737L46.7591 51.0413C47.1378 52.7093 48.6951 53.3348 48.7793 54.1271C47.8112 54.1688 46.5486 52.9178 46.1277 52.5008C45.749 52.1255 45.4544 51.917 45.286 51.2081C45.0335 50.1656 45.3281 49.7069 45.2018 49.1648C45.1177 49.2482 45.1177 49.415 45.1177 49.5401V49.9988L44.0234 49.8737C43.9813 49.2065 44.1496 46.9547 43.9392 46.6627C43.8971 46.9547 43.9813 47.4551 43.9813 47.8304C43.9392 48.9563 43.855 49.8737 44.1496 51.0413C44.4022 52.1255 44.6968 52.5842 45.4964 53.1263C46.254 53.6267 45.9594 53.7935 45.7069 53.7518L45.1177 53.4599C44.8651 53.2931 44.6547 53.1263 44.4443 52.9595C44.0234 52.6259 43.6867 52.2089 43.35 51.7502C42.887 51.083 42.8449 50.8745 42.8449 49.9154C42.8449 49.5401 42.8028 49.1231 42.8028 48.7478C42.8028 48.3725 42.8449 47.9555 42.8449 47.5802C42.8028 47.6219 42.8449 47.5802 42.8028 47.7053C42.8028 47.747 42.8028 47.7887 42.7608 47.8721C42.6766 48.4142 42.8028 49.5401 42.7608 50.0405C42.382 49.9988 42.2136 50.0822 41.8348 49.9571C41.7507 49.415 41.7928 48.8729 41.7928 48.3308C41.5402 48.7478 41.7507 50.1239 41.8769 50.4992C42.1715 51.6251 43.0554 52.4174 43.855 53.1263L44.4863 53.6267C44.781 53.8352 44.9914 53.9603 45.1177 54.1688L44.7389 54.1271C44.9072 54.2522 45.1597 54.2522 45.4964 54.3356C45.6648 54.3773 45.4123 54.3356 45.7069 54.3773C47.4745 54.6275 51.052 55.1696 52.2725 56.0036C52.2304 56.4206 51.9358 57.1712 51.7675 57.5048C51.3466 58.5891 50.2944 60.549 49.6631 61.3413C48.4005 62.9259 48.0638 62.4255 45.4123 61.7583C44.9493 61.6332 44.0655 61.5498 43.7709 61.4664C43.8971 62.3004 44.8651 63.3846 45.5385 63.8016C46.3803 64.3854 45.5385 65.136 46.0015 65.8449C46.254 66.2202 47.1799 67.7631 47.4325 67.8465C47.685 67.93 47.8112 67.8049 47.9796 68.0134V68.3887C48.0217 68.347 47.9796 68.3887 48.0217 68.2636C48.0638 68.0551 48.0217 68.0551 48.0638 67.8883C48.3163 67.8049 50.9678 67.5546 51.3466 67.5546L51.4308 81.4409C51.4308 81.8579 51.557 82.6502 51.3045 82.9004L47.3062 86.6951C47.1799 86.8202 47.0537 86.9036 46.9274 87.0704C46.8011 87.2372 46.717 87.3206 46.5486 87.4457V87.1121C46.3803 87.3623 46.2961 89.5308 46.2961 89.6976C46.717 89.5308 47.2641 89.4474 47.7271 89.2806C49.0739 88.8636 50.6311 88.4049 51.8516 87.7794C52.7776 87.3206 53.493 86.987 54.2927 86.4866C55.0924 85.9445 55.0082 86.1113 55.0503 85.4024C55.0924 84.8186 55.1765 84.2765 55.2186 83.6927C55.4711 78.23 55.2607 74.9773 54.6715 69.598C54.5452 68.5138 54.3348 67.4296 54.2085 66.3453C54.0823 65.3862 54.1664 65.6364 54.5031 64.8858C54.7136 64.3854 55.0924 64.2186 55.2607 63.8016C55.4711 63.3846 55.5132 62.8008 55.6816 62.3421C56.355 60.6741 57.5755 58.9227 58.2489 57.4215C58.5435 56.7959 58.4173 56.6708 59.1748 56.4623C60.4375 56.1287 60.8583 55.9619 61.7843 55.3364C62.8364 54.5858 63.594 53.2514 63.9728 51.917C64.1832 51.2498 64.3937 50.8745 64.0149 50.6243C64.1411 50.9579 64.0991 50.7077 64.0149 50.8328C63.2573 50.7911 62.2472 50.3741 61.6159 50.1656C60.9425 49.9154 60.1008 49.4567 60.6058 48.4142C61.1109 48.3725 62.5839 48.7061 63.0048 48.8312C63.2152 48.9146 63.8465 49.2482 63.9728 49.2899C64.3516 49.3316 64.5199 48.7895 64.5199 48.4559C63.4678 47.7887 63.8465 48.0389 62.7102 47.5385C62.121 47.2883 61.3213 47.0381 61.3634 46.2457C61.3634 45.37 62.6681 45.8704 63.1731 46.0372C63.5098 46.1623 63.8044 46.2874 64.1411 46.4125C64.4358 46.5376 64.7725 46.7879 65.1092 46.8296C65.3196 46.4959 65.53 45.9121 65.1092 45.6619C64.5199 45.3283 62.3735 44.536 62.163 43.7854C61.9526 43.1182 62.4156 42.9931 63.0048 43.0765C63.5098 43.1599 63.8044 43.3267 64.1832 43.4935C64.6041 43.702 64.8566 43.7854 65.2354 44.0356C65.4879 44.2024 65.9509 44.536 66.1193 43.8271C66.2455 43.2016 65.9509 43.1182 65.53 42.9097C65.1933 42.7429 64.8566 42.5344 64.4778 42.3259C64.1411 42.1591 63.7624 41.8672 63.4678 41.7004C63.089 41.4502 62.7102 41.4085 62.8364 40.783C62.9206 40.4077 63.2152 39.949 63.594 39.9907C63.7624 39.9907 64.4778 40.366 64.6883 40.4911C65.8667 41.1583 66.8768 42.4093 66.9189 41.0332C66.961 40.0741 63.8465 39.3652 63.7203 38.3644C63.6361 37.7389 63.8465 37.3636 64.3095 37.2385C64.7304 37.1134 66.1613 38.0308 66.5401 38.3227C67.1294 38.7397 67.1714 39.0316 67.5502 38.9899C68.392 37.6555 64.7304 36.6964 64.5199 35.8623C64.3516 35.3202 64.5199 34.8615 65.0671 34.8615C65.6984 34.8615 66.7506 35.6121 67.2135 35.9457C67.6765 36.2793 67.8448 36.5712 68.2236 36.5295C68.4761 36.1959 68.5603 35.5704 68.1815 35.2368L66.0772 33.7773C65.6984 33.5271 65.3196 33.402 65.2354 32.9016C65.1092 32.3595 65.3196 31.8174 65.8667 31.8591C66.4139 31.9008 67.2135 32.5263 67.6344 32.7348C68.5603 33.2352 68.3499 32.9433 68.5182 33.5688C68.6024 33.819 68.7287 33.9441 68.9812 33.9858C69.0233 33.0684 69.1495 33.1101 68.6024 32.568C67.5081 31.4421 65.8667 30.8166 65.8667 30.066C65.8667 29.4822 66.6664 29.6073 67.0452 29.7741C68.1394 30.3162 69.2758 31.6089 70.0334 31.9842V32.151L70.0755 32.0259L70.1176 31.9008C70.2859 31.1502 70.5384 28.815 70.5384 28.1895C70.5384 27.0636 70.2017 25.4372 69.6967 24.6449C68.8128 23.3939 67.6344 22.1429 66.498 21.2255C66.0772 20.8919 65.6984 20.6 65.2354 20.3081C65.3617 20.2247 65.3196 20.8502 65.4038 21.017Z" fill="#B6813D"/>
</g>
<mask id="mask23_1_1562" style="mask-type:luminance" maskUnits="userSpaceOnUse" x="0" y="0" width="104" height="103">
<path d="M0 0H103.956V103H0V0Z" fill="white"/>
</mask>
<g mask="url(#mask23_1_1562)">
<path d="M48.0217 68.1802L47.685 72.8089C47.5587 74.3518 47.4745 75.8947 47.3062 77.4793L46.7591 84.4433C46.717 84.902 46.5486 86.4449 46.5907 86.8202V87.1538C46.7591 87.0287 46.8432 86.9453 46.9695 86.7785L47.3483 86.4032L51.3466 82.6085C51.5991 82.3166 51.4729 81.566 51.4729 81.149L51.3887 67.2628C51.0099 67.2211 48.3163 67.4713 48.1059 67.5964C48.0638 67.7632 48.1479 67.7632 48.0638 67.9717C48.0638 68.1802 48.0638 68.0968 48.0217 68.1802Z" fill="#6D0B0A"/>
</g>
<mask id="mask24_1_1562" style="mask-type:luminance" maskUnits="userSpaceOnUse" x="0" y="0" width="104" height="103">
<path d="M0 0H103.956V103H0V0Z" fill="white"/>
</mask>
<g mask="url(#mask24_1_1562)">
<path d="M64.1832 50.249C64.0991 49.9571 63.3836 49.7903 63.0048 49.6652C63.089 49.3733 63.089 49.4567 63.7624 49.7069C64.0149 49.7903 64.3937 49.9988 64.6041 50.0405C64.7725 49.6652 65.2775 48.5393 65.1933 48.0806C65.0671 47.4134 63.9728 47.2466 63.8465 46.9129C64.1832 46.9129 64.9408 47.4134 65.3196 47.5385C66.8768 44.3692 65.1512 45.0364 64.6883 44.4109C64.7725 44.3692 64.562 44.3275 64.8566 44.3692C65.2775 44.4109 65.3196 44.7445 65.6984 44.8279L66.0772 44.8696C66.1613 44.7862 66.456 44.119 66.5401 43.9939C67.0031 43.0348 66.7927 42.5344 65.7405 42.034C65.5721 41.9506 65.4038 41.9089 65.53 41.7004C65.8246 41.617 66.5401 42.451 66.961 42.5344C67.6344 40.4077 68.3078 40.6162 66.3718 39.2818L66.456 38.8648C67.1294 39.0733 67.5081 39.9073 67.7607 39.9907C67.929 39.7405 68.392 38.3644 68.3499 38.0308C68.2657 37.1968 67.3398 37.1968 67.1714 36.6546C67.6344 36.6963 68.0974 37.3219 68.6024 37.4053C68.7287 37.03 69.3179 35.5287 69.1495 35.1534C68.7708 34.2777 67.4661 34.0692 67.7607 33.7773C68.0132 33.4854 68.7708 34.6113 69.4021 34.6947L69.9492 32.7765C69.5283 32.3595 68.6866 31.8591 68.5182 31.4004C68.897 31.4838 70.0334 32.7765 70.1176 31.9425V31.7757C69.36 31.4004 68.2236 30.1077 67.1294 29.5656C66.7506 29.3571 65.9509 29.2737 65.9509 29.8575C65.9509 30.6081 67.5923 31.2336 68.6866 32.3595C69.1916 32.9016 69.1075 32.8182 69.0654 33.7773C68.8128 33.7356 68.6866 33.6105 68.6024 33.3603C68.392 32.7765 68.6445 33.0684 67.7186 32.5263C67.2977 32.3178 66.498 31.6923 65.9509 31.6506C65.4038 31.6089 65.1933 32.151 65.3196 32.6931C65.4038 33.1935 65.7826 33.3186 66.1613 33.5688L68.2657 35.0283C68.6445 35.3619 68.5603 35.9874 68.3078 36.321C67.929 36.3627 67.7186 36.0708 67.2977 35.7372C66.8347 35.4036 65.7405 34.6113 65.1512 34.653C64.6041 34.653 64.4358 35.1117 64.6041 35.6538C64.8566 36.4878 68.4761 37.447 67.6344 38.7814C67.2556 38.7814 67.2135 38.5312 66.6664 38.1142C66.2876 37.864 64.8566 36.9049 64.4358 37.03C63.9728 37.1551 63.7624 37.5304 63.8465 38.1559C64.0149 39.1567 67.0873 39.8656 67.0452 40.8247C67.0031 42.2008 65.993 40.9498 64.8145 40.2826C64.6041 40.1575 63.8886 39.7822 63.7203 39.7822C63.3415 39.7405 63.0048 40.1992 62.9627 40.5745C62.8364 41.2 63.2152 41.2834 63.594 41.4919C63.8886 41.6587 64.2674 41.9089 64.6041 42.1174C64.9408 42.3259 65.3196 42.4927 65.6563 42.7012C66.0772 42.9514 66.4139 42.9931 66.2455 43.6186C66.0772 44.3275 65.6142 43.9939 65.3617 43.8271C64.9829 43.5352 64.7304 43.4935 64.3095 43.285C63.9307 43.1182 63.6361 42.9097 63.1311 42.868C62.5418 42.7846 62.0789 42.9097 62.2893 43.5769C62.5418 44.3275 64.6462 45.1198 65.2354 45.4534C65.6563 45.7036 65.4879 46.2874 65.2354 46.621C64.8987 46.5793 64.562 46.3291 64.2674 46.204C63.9728 46.0789 63.6361 45.9538 63.2994 45.8287C62.7944 45.6619 61.4896 45.1198 61.4896 46.0372C61.4896 46.8295 62.2472 47.0798 62.8364 47.33C63.9728 47.8304 63.594 47.5802 64.6462 48.2474C64.6883 48.581 64.4778 49.1231 64.0991 49.0814C63.9728 49.0814 63.3836 48.7061 63.1311 48.6227C62.7102 48.4559 61.2371 48.164 60.7321 48.2057C60.227 49.2065 61.0688 49.7069 61.7422 49.9571C62.4156 50.2073 63.4257 50.5826 64.1411 50.6243C64.2674 50.3324 64.3095 50.6243 64.1832 50.249ZM44.1497 23.8109C43.9813 24.0194 43.6446 23.9777 43.4763 24.4781C43.35 24.8117 43.2658 25.4372 43.6025 25.5206C43.9392 25.8125 43.9813 25.8125 44.4443 25.8542C45.1177 25.8959 45.8752 25.8959 46.5486 26.021C46.9274 26.0627 47.1799 26.021 47.1799 26.438C46.2119 26.7717 44.5284 26.1461 43.6025 26.4797C42.7608 26.438 42.4241 27.8559 42.8029 28.2312L42.8449 28.2729L42.887 28.3146L43.1396 28.5648C43.4342 28.7733 44.1497 28.7733 44.6126 28.7733C46.0436 28.8984 46.3803 28.6899 46.254 29.3154L43.4342 29.1903C42.5924 29.1486 42.887 29.2737 42.5503 29.2737C41.8769 29.3571 41.5402 30.6081 42.1295 31.0251L42.2136 31.0668C42.382 31.2336 42.382 31.2336 42.6766 31.2753C43.3079 31.4004 44.318 31.4004 44.6547 31.5255L44.5705 31.8591C43.7709 32.0676 42.8029 31.734 42.0874 31.8591C41.6244 31.8174 41.3719 31.9842 41.2456 32.4429C41.1194 32.8182 41.2035 33.3603 41.3719 33.6105L41.414 33.6522L41.4981 33.7356C41.9611 34.1526 43.1396 34.0692 43.855 34.236C44.0234 34.2777 44.2759 34.3194 44.2759 34.5279C44.2759 34.7781 44.2759 34.5696 44.2338 34.653C44.0234 34.8615 42.3399 34.653 41.8348 34.6113C40.951 34.5279 41.5402 34.653 41.0773 34.653C40.4039 34.6113 40.3618 35.6538 40.6564 36.1125L40.8247 36.321C41.4561 36.9883 43.6025 36.9465 44.0234 37.1968C44.0655 37.3636 44.0234 37.4887 43.9813 37.6138C43.6025 37.7389 42.5082 37.5304 42.1295 37.447C41.4981 37.3219 40.9931 37.0717 40.3197 37.2802C39.5621 37.2385 39.5621 38.6146 39.983 38.8648C40.3197 39.1984 40.2776 39.2401 40.7406 39.3652C41.0773 39.4486 41.3719 39.532 41.6665 39.6154C42.1715 39.7405 43.5183 39.6571 43.1816 40.3243C42.8029 40.6162 41.919 40.2826 41.4981 40.1992C40.951 40.0741 40.4039 39.949 39.7726 39.9073C39.3517 39.9073 39.1413 40.1575 39.015 40.5328C38.8466 40.9498 39.015 41.2 39.0992 41.5753L39.3517 41.8672C39.983 42.3676 41.8769 42.451 42.382 42.7429C42.4241 42.9514 42.4241 43.1182 42.382 43.285C41.5402 43.4518 39.8147 42.4093 38.9308 42.5344H38.5941C38.5941 42.7012 39.0992 42.7429 39.52 42.868C40.446 43.1182 41.7086 43.6603 42.5924 43.6186C42.7608 43.1599 42.9291 42.6178 42.887 42.034C42.1295 41.8255 41.3298 41.6587 40.5301 41.4919C40.2776 41.4502 39.52 41.3251 39.3938 41.1583C39.3517 41.1166 39.0571 40.2826 39.8567 40.2409C41.3719 40.1575 43.0133 41.2 43.4763 40.4911C43.5604 40.3243 43.7709 39.532 43.7709 39.3235C43.4342 39.1567 42.4662 38.9065 42.0032 38.8231C41.6244 38.7397 40.2776 38.6146 40.1093 38.4478C39.983 38.281 40.0251 37.864 40.1514 37.6555C40.5301 37.1551 43.7709 38.3227 44.1917 37.8223C44.318 37.6555 44.6126 36.5712 44.5284 36.321C43.9392 36.1959 43.35 36.0708 42.7608 35.9874C42.1715 35.904 41.1614 36.0708 40.8247 35.7789C40.7827 35.4036 40.7827 34.9866 41.1614 34.9032C41.7928 34.7781 44.2759 35.2785 44.5705 34.8198C44.7389 34.5696 44.6126 34.0275 44.4863 33.819C44.1496 33.3186 43.35 33.1518 42.7187 33.1101C42.0874 33.0684 42.1715 33.2352 41.7086 33.3603C41.414 33.0684 41.5823 32.5263 41.7086 32.151C42.887 31.9842 43.855 32.2344 44.4022 32.1927C44.6126 32.151 45.0335 31.734 45.2018 31.6089C45.4544 31.3587 45.7911 31.2336 45.7911 30.7749C45.4123 30.483 43.855 30.3162 43.2658 30.4413C42.887 30.5247 42.3399 30.9417 42.2978 30.3579C42.2136 28.8567 43.6025 29.4822 45.6227 29.5656C46.5486 29.6073 46.8432 29.6907 47.0116 28.3146C47.0537 27.8559 46.8853 27.981 45.1177 27.8976C44.823 27.8976 44.4022 27.8559 44.1076 27.8559C43.7288 27.8976 43.5604 28.1061 43.2658 28.0644C43.1816 27.8142 43.1816 27.5223 43.2237 27.2304C43.2658 26.8968 43.3921 26.8134 43.7288 26.7717C44.8651 26.6883 46.9274 26.9385 47.3483 26.73C47.6429 26.5631 47.8954 25.5206 47.8954 25.3121C47.222 25.2287 46.5065 25.1036 45.8752 25.0202C44.4863 24.8534 44.4443 25.7291 44.0234 25.3538C43.7709 25.0619 43.9813 24.3947 44.1917 24.2279C44.7389 23.7275 47.7271 24.1445 48.4005 24.0611C48.5688 23.7692 48.8634 22.9769 48.7793 22.6016C48.2742 22.3514 46.0436 22.0595 45.4123 22.4765C45.0756 22.7267 45.1597 23.0603 45.1597 23.5607L44.1497 23.8109ZM56.3129 47.6636L57.2809 47.9555C58.6698 48.3308 58.9223 46.9129 58.4173 46.4959L58.0385 46.2457C58.0385 46.2457 57.9964 46.2457 57.9964 46.204C57.0284 45.4951 52.1463 44.0356 50.6732 43.702C50.084 43.5769 45.0335 42.3676 44.5705 42.3676C44.1076 42.3676 43.855 43.6603 43.855 44.0773C45.9173 44.4943 48.1479 45.2032 50.1681 45.787L56.3129 47.6636ZM46.3803 43.5352C47.4325 43.7854 50.3365 44.536 51.1362 44.6611C51.4729 44.7028 51.8937 44.7028 51.9358 45.0364C51.9779 45.4117 51.7254 45.7036 51.3887 45.7453C50.9257 45.787 49.2001 45.1615 48.6109 44.9947C48.0217 44.8279 47.3904 44.6611 46.7591 44.4943C46.2119 44.3692 45.1597 44.1607 44.9072 43.9939C44.781 42.9097 45.749 43.3684 46.3803 43.5352ZM58.9644 45.1615C59.0907 44.9113 59.0065 45.1615 59.259 44.7028L59.3432 44.5777L59.3853 44.536C59.5957 43.5352 59.0907 43.4101 58.291 43.0765C57.6597 42.8263 57.0284 42.5761 56.355 42.3676C53.493 41.3668 50.9678 40.6996 47.9796 40.0324C47.3062 39.8656 46.4224 39.6154 45.749 39.5737C45.2439 39.532 45.0335 39.6154 44.9072 40.0324C44.823 40.3243 44.6968 40.8247 44.6968 41.1166L48.4005 41.9506C51.3466 42.7012 54.2927 43.702 57.1967 44.7028C57.6176 44.9113 58.4594 45.3283 58.9644 45.1615ZM52.6934 42.034C52.8196 42.2842 52.6092 42.5344 52.4829 42.6595C52.3146 42.7429 45.7069 41.1166 45.6648 41.1166C45.6227 40.9498 45.6227 40.783 45.6648 40.6162C45.749 40.2409 46.4645 40.4911 47.0958 40.6162L52.2725 41.8255C52.525 41.9506 52.5671 41.8672 52.6934 42.034ZM45.9594 36.8632C45.7069 37.0717 45.7069 37.3219 45.5806 37.7389C45.4123 38.4895 45.3702 38.4061 45.8331 38.4895C46.5486 38.6146 47.222 38.7814 47.8954 38.9482C51.5149 39.7822 54.1664 40.4911 57.6176 41.8255C58.0385 41.9923 59.1328 42.4927 59.6378 42.3676C59.9324 42.2842 60.1008 41.9506 60.1008 41.5753C60.1008 40.6162 59.0486 40.4494 57.8701 39.9907C56.6496 39.532 55.4291 39.0733 54.1244 38.6563C53.3247 38.3644 46.5486 36.4044 45.9594 36.8632ZM46.5486 38.4061C46.5065 37.9474 46.4645 37.6555 46.9695 37.6555L49.8735 38.281C50.5048 38.4478 53.2405 38.9899 53.5351 39.2818C53.7456 39.4903 53.5351 39.9073 53.1984 39.949C52.9038 39.9907 50.8415 39.3235 50.4207 39.1984L46.5486 38.4061ZM48.0638 29.8575C48.6109 30.1494 51.2624 30.6915 52.0621 30.9C54.7978 31.5672 57.1546 32.3595 59.7641 33.402C60.6479 33.7356 62.121 34.6113 62.4997 33.819C62.6681 33.5271 62.7102 33.0684 62.4997 32.7765C61.9947 32.151 56.4812 30.1077 55.3449 29.7741C53.9981 29.3571 52.6092 29.1069 51.2203 28.815C50.2523 28.6065 48.5267 27.981 48.2321 28.815C48.19 28.9401 48.0638 29.6907 48.0638 29.8575ZM48.9897 29.8158C48.7793 28.9401 50.2102 29.3988 50.6311 29.4822C52.3988 29.8158 53.7035 30.066 55.4712 30.5664C55.8499 30.6915 56.1866 30.6081 56.1445 31.0668C56.1025 31.9425 55.0924 31.5255 54.5873 31.3587C53.3247 30.9417 52.1883 30.6498 50.8836 30.3579C50.5469 30.2745 50.2523 30.2328 49.8735 30.1494C49.621 30.066 49.0739 30.066 48.9897 29.8158ZM49.7052 24.2696L53.6614 25.2287C57.9964 26.3129 58.8802 26.7717 62.7523 28.398C63.7203 28.815 64.1412 28.7733 64.3095 27.9393C64.4778 27.147 63.7624 26.9385 63.2152 26.6883C57.9122 24.3113 57.7018 24.353 52.1463 23.0186C51.7254 22.9352 50.5048 22.5599 50.1681 22.5599C49.9577 22.8518 49.621 23.8526 49.7052 24.2696ZM50.7153 24.2696C50.589 23.102 51.6412 23.6024 52.3146 23.7692L56.4392 24.8534C57.5334 25.1453 58.0806 25.0619 57.7018 25.8959C57.1546 25.8959 56.4392 25.6457 55.892 25.5206L52.3988 24.6866C52.0621 24.6032 50.8836 24.353 50.7153 24.2696ZM47.7692 34.1943C46.9695 34.3611 46.5486 35.1117 46.8853 35.487C47.1379 35.7789 48.2321 35.9874 48.7372 36.1125C52.2725 37.03 54.8398 37.5721 58.2489 38.9065C58.7119 39.0733 59.6378 39.4903 60.1008 39.532C60.7742 39.6154 61.4055 38.8231 60.9425 38.2393C60.6479 37.8223 59.9324 37.6138 59.3432 37.3636C56.6075 36.321 54.8398 35.6538 51.9358 34.9449C50.9678 34.7364 48.653 34.0275 47.7692 34.1943ZM54.2085 37.1551C53.7456 37.1134 50.2102 36.1542 49.2001 35.9457C48.4846 35.8206 47.5587 35.8623 47.8533 35.3619C48.2742 34.653 50.4628 35.3202 51.1782 35.5287C51.8937 35.7372 53.9981 36.1125 54.419 36.4044C54.4611 36.7381 54.3348 36.9466 54.2085 37.1551ZM49.4527 25.5206C49.0318 25.6457 49.0739 25.8542 48.9476 26.2712C48.653 27.3555 49.7473 27.2721 51.3466 27.6474C52.7355 27.9393 54.0823 28.3146 55.387 28.6899C57.0705 29.1903 57.5334 29.3988 59.1328 30.0243C59.6378 30.2328 62.4997 31.4421 62.9206 31.317C63.1731 31.2336 63.8886 30.1494 63.0048 29.7324C62.4156 29.4405 61.7843 29.1903 61.2371 28.9401C58.5435 27.7308 56.5654 27.0219 53.6193 26.3546C52.9038 26.1878 49.9998 25.3955 49.4527 25.5206ZM56.7338 27.8559C57.0284 28.0644 57.0705 28.398 56.8179 28.6065C56.4392 28.8567 55.3028 28.4397 54.924 28.3146C54.3348 28.1478 53.7456 27.9393 53.1143 27.7725C52.3146 27.564 50.1681 27.2304 50.1261 27.1887C49.7894 27.0636 49.7473 26.6049 50.0419 26.438C50.4207 26.2295 54.924 27.3555 55.8499 27.564C56.1445 27.6891 56.4813 27.6891 56.7338 27.8559ZM47.7692 31.1919C47.222 31.5672 48.5267 32.985 49.2422 33.1935C52.1042 33.9858 55.0924 34.7364 57.828 35.7789C58.3752 35.9874 61.1529 37.2802 61.5738 36.6963C61.7001 36.4878 61.8263 35.9874 61.7422 35.6955C61.658 35.4453 61.3634 35.2785 61.0688 35.1117C60.5216 34.8198 59.8903 34.6113 59.3432 34.3611C56.4812 33.1518 54.8819 32.6514 51.8516 31.9425C51.3045 31.8174 48.1059 30.9834 47.7692 31.1919ZM48.5688 32.0676C49.5368 31.9842 52.525 32.8182 53.7035 33.1518C54.0823 33.2769 54.9661 33.4854 55.2607 33.6522C55.387 34.7364 54.5031 34.2777 53.7877 34.1109L49.9156 33.1518C49.3264 33.0267 48.4426 32.7348 48.5688 32.0676Z" fill="#85571B"/>
</g>
<mask id="mask25_1_1562" style="mask-type:luminance" maskUnits="userSpaceOnUse" x="0" y="0" width="104" height="103">
<path d="M0 0H103.956V103H0V0Z" fill="white"/>
</mask>
<g mask="url(#mask25_1_1562)">
<path d="M44.8651 53.9603L45.2439 54.002C45.1597 53.7935 44.9072 53.6684 44.6126 53.4599C44.4022 53.2931 44.1917 53.168 43.9813 52.9595C43.1816 52.2923 42.2978 51.5 42.0032 50.3324C41.919 49.9571 41.6665 48.581 41.919 48.164C41.8769 47.5385 42.0453 46.7879 42.0032 46.079C41.9611 45.3284 41.2877 45.0781 40.951 45.7454C40.6564 46.3709 40.6564 48.9146 40.7827 49.7069C40.8247 49.9988 40.9089 50.249 41.0352 50.4575C41.1614 50.7077 41.3298 50.8745 41.2877 51.1664C40.7406 51.2915 40.1934 50.249 40.0672 49.7069C40.0672 49.3316 39.983 48.8729 39.983 48.4559C39.983 47.9972 39.9409 47.5802 39.9409 47.1215C39.8988 45.9122 40.2355 44.9947 39.5621 44.9113C39.015 45.3701 38.9729 46.6211 38.9729 47.4134C38.9308 50.6243 39.7726 49.7903 40.0251 50.2907C40.4039 50.9996 40.2355 50.9162 40.951 51.6668C42.382 53.1263 42.6766 52.3757 43.0133 52.4591L44.8651 53.9603Z" fill="#9A6724"/>
</g>
<mask id="mask26_1_1562" style="mask-type:luminance" maskUnits="userSpaceOnUse" x="0" y="0" width="104" height="103">
<path d="M0 0H103.956V103H0V0Z" fill="white"/>
</mask>
<g mask="url(#mask26_1_1562)">
<path d="M45.8331 89.4057C45.9173 89.4891 45.8331 89.4474 45.9594 89.4474H46.0857C46.2119 89.4474 46.2961 89.4057 46.3803 89.364C46.3803 89.1972 46.4645 87.0704 46.6328 86.7785C46.5486 86.4032 46.7591 84.8603 46.8012 84.4016L47.3483 77.4376C47.4746 75.8947 47.5587 74.3518 47.7271 72.7672L48.0638 68.1385V67.7632H47.5166L45.8331 89.4057Z" fill="white"/>
</g>
<mask id="mask27_1_1562" style="mask-type:luminance" maskUnits="userSpaceOnUse" x="0" y="0" width="104" height="103">
<path d="M0 0H103.956V103H0V0Z" fill="white"/>
</mask>
<g mask="url(#mask27_1_1562)">
<path d="M47.8533 49.5401C47.8954 50.0405 47.685 49.9988 47.9796 50.8745C48.7793 53.2097 50.2944 53.6267 51.8516 54.6692C52.1463 54.836 52.525 55.253 52.8197 55.253C53.2405 55.253 53.7035 54.9611 53.7877 54.6692C53.6193 54.3356 52.9038 53.9603 52.6092 53.7101C52.1042 53.3348 50.8415 52.0004 50.5048 51.5C50.1261 50.9162 50.1261 50.5409 50.1261 49.7069C50.4628 47.2883 48.6109 46.8296 48.0638 48.0806C47.9375 48.3308 47.8113 49.2482 47.8533 49.5401ZM49.7473 49.832C49.7473 51.0413 49.9156 51.1664 50.3786 52.0004C50.5048 52.2506 50.7153 53.0846 50.1681 52.8761C49.9156 52.7927 49.4948 52.4591 49.3685 52.2923C48.6951 51.5 48.5267 50.0405 48.9055 48.9563C49.0318 48.5393 49.116 48.2891 49.6631 48.3725C49.9156 48.7478 49.7473 49.2065 49.7473 49.832Z" fill="#9A6724"/>
</g>
<mask id="mask28_1_1562" style="mask-type:luminance" maskUnits="userSpaceOnUse" x="0" y="0" width="104" height="103">
<path d="M0 0H103.956V103H0V0Z" fill="white"/>
</mask>
<g mask="url(#mask28_1_1562)">
<path d="M48.8634 16.9304L48.4005 17.2223C48.2742 17.4725 47.8954 17.5976 47.3062 18.5984C47.0958 18.932 46.4224 19.9745 46.8012 20.3498C47.4325 20.8502 48.0638 19.2239 48.5688 18.4316C50.0419 16.1797 51.1362 16.6802 50.4628 17.1806C50.084 17.4725 49.7052 17.9312 49.4527 18.3482C49.1581 18.7652 48.5688 19.7243 48.6951 20.4332C49.4527 21.1004 50.1682 19.5992 50.5469 18.932C50.9257 18.2648 51.1782 17.7644 51.6412 17.264C52.5671 16.2631 50.9257 16.1797 50.3365 16.5133C49.8315 16.8053 49.621 16.9721 49.2001 17.264C49.2001 17.1389 49.3264 17.0555 49.2422 16.8887L48.8634 16.9304Z" fill="#85571B"/>
</g>
<mask id="mask29_1_1562" style="mask-type:luminance" maskUnits="userSpaceOnUse" x="0" y="0" width="104" height="103">
<path d="M0 0H103.956V103H0V0Z" fill="white"/>
</mask>
<g mask="url(#mask29_1_1562)">
<path d="M42.9291 47.4133C42.9291 47.7886 42.887 48.164 42.887 48.581C42.887 48.9563 42.9291 49.3733 42.9291 49.7486C42.9291 50.7077 42.9712 50.9579 43.4342 51.5834C43.7709 52.0421 44.1076 52.4591 44.5284 52.7927C44.7389 52.9595 44.9493 53.168 45.2018 53.2931L45.7911 53.585C46.0436 53.6267 46.3803 53.4599 45.5806 52.9595C44.781 52.4591 44.4863 51.9587 44.2338 50.8745C43.9392 49.7069 44.0234 48.7895 44.0655 47.6636C44.0655 47.2882 44.0234 46.7878 44.0234 46.4959C44.0655 45.9955 43.5183 45.7036 43.1395 46.0372C43.0133 46.204 42.887 47.1214 42.9291 47.4133Z" fill="#9A6724"/>
</g>
<mask id="mask30_1_1562" style="mask-type:luminance" maskUnits="userSpaceOnUse" x="0" y="0" width="104" height="103">
<path d="M0 0H103.956V103H0V0Z" fill="white"/>
</mask>
<g mask="url(#mask30_1_1562)">
<path d="M57.9964 22.3931C58.4173 21.5174 58.7961 19.2656 60.1849 18.7652C60.4796 18.6818 60.6058 18.7235 60.7742 18.515C60.7321 17.7227 59.1328 18.1814 58.7119 18.3899C58.0385 18.7652 56.9442 19.6409 56.5233 20.3915C55.892 21.5591 55.9762 21.8093 56.7759 22.1429C57.1546 22.3097 57.5334 22.4765 57.9964 22.3931ZM57.7018 22.0595C57.0284 22.1012 57.1546 21.9761 56.9863 21.851C56.9863 21.4757 57.0705 21.5591 57.2388 21.3089C57.6176 20.7251 57.7439 20.0162 58.2068 20.0996C58.6698 20.1413 58.291 20.8085 58.1647 21.017C57.9122 21.434 57.8281 21.5174 57.7018 22.0595Z" fill="#85571B"/>
</g>
<mask id="mask31_1_1562" style="mask-type:luminance" maskUnits="userSpaceOnUse" x="0" y="0" width="104" height="103">
<path d="M0 0H103.956V103H0V0Z" fill="white"/>
</mask>
<g mask="url(#mask31_1_1562)">
<path d="M45.286 49.0397C45.4123 49.5818 45.1177 50.0405 45.3702 51.083C45.5385 51.7919 45.8331 52.0004 46.2119 52.3757C46.6328 52.7927 47.8533 54.0437 48.8634 54.002C48.7793 53.2097 47.222 52.6259 46.8432 50.9162L46.6749 49.7486C46.6749 49.5401 46.6749 49.415 46.8011 49.2899C46.8011 48.3725 47.1378 46.9546 46.1698 46.7461C45.5806 46.621 45.4123 47.0797 45.3702 47.5384C45.286 47.9138 45.2018 48.7061 45.286 49.0397ZM47.1799 52.6259C45.8752 52.4591 45.749 50.7077 45.749 49.4567C45.749 48.9563 45.7069 47.8721 46.0436 47.6636C46.9274 47.2048 46.1698 49.2899 46.5907 51.083C46.6328 51.3332 46.717 51.6668 46.8432 51.8753C47.0116 52.2089 47.1799 52.2506 47.1799 52.6259ZM44.8651 43.9939C45.1177 44.1607 46.2119 44.3692 46.717 44.4943C47.3483 44.6611 47.9796 44.8279 48.5688 44.9947C49.2001 45.1615 50.9257 45.787 51.3466 45.7453C51.6412 45.7036 51.9358 45.4117 51.8937 45.0364C51.8516 44.7028 51.4308 44.7028 51.0941 44.6611C50.2944 44.536 47.3904 43.7437 46.3382 43.5352C45.749 43.3684 44.781 42.9097 44.8651 43.9939ZM54.5873 31.317C55.0924 31.4838 56.1445 31.9425 56.1445 31.0251C56.1445 30.5664 55.8499 30.6498 55.4711 30.5247C53.7035 30.0243 52.3988 29.7741 50.6311 29.4405C50.1681 29.3571 48.7372 28.8984 48.9897 29.7741C49.0739 30.0243 49.621 30.0243 49.8735 30.066C50.2102 30.1077 50.5469 30.1911 50.8836 30.2745C52.1883 30.5664 53.3247 30.9 54.5873 31.317ZM49.9998 26.438C49.7473 26.6048 49.7473 27.0635 50.084 27.1887C50.1261 27.1887 52.2304 27.5223 53.0722 27.7725C53.7035 27.9393 54.2927 28.1478 54.8819 28.3146C55.2607 28.4397 56.3971 28.8567 56.7759 28.6065C57.0284 28.4397 57.0284 28.0644 56.6917 27.8559C56.4392 27.6891 56.1445 27.6474 55.7658 27.564C54.8398 27.3555 50.3365 26.2295 49.9998 26.438Z" fill="#9A6724"/>
</g>
<mask id="mask32_1_1562" style="mask-type:luminance" maskUnits="userSpaceOnUse" x="0" y="0" width="104" height="103">
<path d="M0 0H103.956V103H0V0Z" fill="white"/>
</mask>
<g mask="url(#mask32_1_1562)">
<path d="M57.2809 17.4308C56.2708 16.7219 55.0503 17.8895 54.6715 18.4316C54.419 18.8486 54.1664 19.2656 53.9139 19.7243C53.7456 20.0162 53.2405 20.7668 53.4089 21.2255C53.6614 21.7259 54.5031 21.3089 54.7136 21.0587C54.9661 20.7251 55.1345 20.0579 55.3449 19.6409C55.6816 19.0154 56.1025 18.3065 56.7759 18.0146C57.1126 17.8478 57.3651 17.8061 57.2809 17.4308ZM54.5873 16.847C53.5772 16.1381 52.3567 17.3057 51.9779 17.8478C51.7254 18.2648 51.4729 18.6818 51.2203 19.1405C51.052 19.4324 50.5469 20.183 50.7153 20.6417C50.9678 21.1421 51.8096 20.7251 52.02 20.4749C52.3567 20.0996 52.7776 18.0146 54.0823 17.4308C54.419 17.264 54.6715 17.2223 54.5873 16.847Z" fill="#85571B"/>
</g>
<mask id="mask33_1_1562" style="mask-type:luminance" maskUnits="userSpaceOnUse" x="0" y="0" width="104" height="103">
<path d="M0 0H103.956V103H0V0Z" fill="white"/>
</mask>
<g mask="url(#mask33_1_1562)">
<path d="M55.3028 33.6522C54.9661 33.4854 54.1244 33.2769 53.7456 33.1518C52.5671 32.8182 49.5789 31.9842 48.6109 32.0676C48.4426 32.7348 49.3685 33.0267 49.9998 33.1518L53.8718 34.1109C54.5032 34.2777 55.4291 34.7364 55.3028 33.6522ZM50.7153 24.2696C50.8836 24.3947 52.1042 24.6032 52.3988 24.7283L55.892 25.5623C56.4392 25.6874 57.1547 25.9376 57.7018 25.9376C58.0806 25.1036 57.5334 25.187 56.4392 24.8951L52.3146 23.8109C51.6412 23.6024 50.5469 23.102 50.7153 24.2696ZM46.5486 38.4061L50.4207 39.1984C50.8416 39.3235 52.9459 39.949 53.1984 39.949C53.5351 39.9073 53.7456 39.532 53.5351 39.2818C53.2405 38.9899 50.5049 38.4478 49.8735 38.281L46.9695 37.6555C46.4645 37.6138 46.5066 37.9057 46.5486 38.4061ZM52.2725 41.8672L47.0958 40.6579C46.4645 40.5328 45.7911 40.2826 45.6648 40.6579C45.6227 40.8247 45.6227 41.0332 45.6648 41.1583C45.6648 41.1583 52.3146 42.7846 52.483 42.7012C52.6092 42.5344 52.7776 42.3259 52.6934 42.0757C52.5671 41.8672 52.525 41.9506 52.2725 41.8672ZM54.2085 37.155C54.2927 36.9465 54.4611 36.738 54.419 36.4044C53.9981 36.1125 51.8937 35.6955 51.1782 35.5287C50.4628 35.3619 48.3163 34.653 47.8533 35.3619C47.5587 35.8623 48.4847 35.8206 49.2001 35.9457C50.2102 36.1542 53.7456 37.1133 54.2085 37.155Z" fill="#9A6724"/>
</g>
<mask id="mask34_1_1562" style="mask-type:luminance" maskUnits="userSpaceOnUse" x="0" y="0" width="104" height="103">
<path d="M0 0H103.956V103H0V0Z" fill="white"/>
</mask>
<g mask="url(#mask34_1_1562)">
<path d="M49.7473 49.832C49.7473 49.2065 49.9156 48.7478 49.6631 48.3725C49.116 48.2891 49.0318 48.581 48.9055 48.9563C48.5267 49.9988 48.6951 51.4583 49.3685 52.2923C49.4947 52.4591 49.9156 52.7927 50.1681 52.8761C50.7153 53.0846 50.5048 52.2506 50.3786 52.0004C49.9156 51.2081 49.7473 51.0413 49.7473 49.832ZM47.1799 52.6259C47.1379 52.2506 47.0116 52.2089 46.8432 51.8753C46.717 51.6668 46.6749 51.3332 46.5907 51.083C46.1278 49.2899 46.8853 47.2465 46.0436 47.6636C45.7069 47.8304 45.749 48.9563 45.749 49.4567C45.749 50.7077 45.8752 52.4591 47.1799 52.6259Z" fill="#85571B"/>
</g>
<mask id="mask35_1_1562" style="mask-type:luminance" maskUnits="userSpaceOnUse" x="0" y="0" width="104" height="103">
<path d="M0 0H103.956V103H0V0Z" fill="white"/>
</mask>
<g mask="url(#mask35_1_1562)">
<path d="M39.6884 39.8239C40.3197 39.8656 40.8248 39.949 41.414 40.1158C41.8769 40.2409 42.7187 40.5328 43.0975 40.2409C43.4342 39.532 42.0874 39.6154 41.5823 39.532L40.6564 39.2818C40.1934 39.1567 40.2355 39.0733 39.8988 38.7814C39.9409 39.0316 39.7726 39.4903 39.6884 39.8239ZM40.2355 37.1551C40.9089 36.9466 41.3719 37.1968 42.0453 37.3219C42.4662 37.4053 43.5604 37.6138 43.8971 37.4887C43.9392 37.3636 43.9813 37.2385 43.9392 37.0717C43.5604 36.8215 41.3719 36.8632 40.7406 36.196L40.5722 35.9875C40.6143 36.2377 40.3197 36.9466 40.2355 37.1551ZM38.8466 42.451C39.7726 42.3259 41.4982 43.3684 42.2978 43.2016C42.3399 43.0348 42.382 42.868 42.2978 42.6595C41.7928 42.3676 39.8567 42.2842 39.2675 41.7838L39.015 41.4919C39.0571 41.7004 38.8887 42.2842 38.8466 42.451Z" fill="#9A6724"/>
</g>
<mask id="mask36_1_1562" style="mask-type:luminance" maskUnits="userSpaceOnUse" x="0" y="0" width="104" height="103">
<path d="M0 0H103.956V103H0V0Z" fill="white"/>
</mask>
<g mask="url(#mask36_1_1562)">
<path d="M45.9173 32.0259C44.4864 32.4429 44.6968 34.8198 46.0857 34.4445C46.5486 34.3194 47.0537 33.6939 47.0537 33.1101C47.0537 32.4429 46.5907 31.8591 45.9173 32.0259ZM46.0015 32.3595C46.5065 32.2344 46.717 32.7348 46.6749 33.1935C46.6328 33.6105 46.3382 34.0275 45.9594 34.1526C44.9914 34.4028 45.0335 32.6097 46.0015 32.3595Z" fill="#85571B"/>
</g>
<mask id="mask37_1_1562" style="mask-type:luminance" maskUnits="userSpaceOnUse" x="0" y="0" width="104" height="103">
<path d="M0 0H103.956V103H0V0Z" fill="white"/>
</mask>
<g mask="url(#mask37_1_1562)">
<path d="M46.0015 32.3595C45.0335 32.6097 44.9914 34.4028 45.9594 34.1526C46.3382 34.0692 46.6328 33.6105 46.6749 33.1935C46.717 32.7348 46.5065 32.2344 46.0015 32.3595ZM43.6446 26.4381C44.6126 26.1045 46.2961 26.73 47.222 26.3964C47.2641 26.0211 46.9695 26.0628 46.5907 25.9794C45.9173 25.896 45.1598 25.8543 44.4864 25.8126C43.9813 25.7709 43.9813 25.7709 43.6446 25.479C43.7288 25.7292 43.6446 26.1045 43.6446 26.4381ZM40.9931 34.5696C41.4561 34.6113 40.8248 34.4862 41.7507 34.5279C42.2557 34.5696 43.9392 34.7781 44.1497 34.5696C44.2338 34.4862 44.2338 34.6947 44.1917 34.4445C44.1917 34.236 43.9392 34.1943 43.7709 34.1526C43.0554 34.0275 41.8769 34.1109 41.414 33.6522L41.3298 33.5688L41.2877 33.5271C41.3298 33.819 41.1194 34.3611 41.0773 34.4445C41.0773 34.5279 41.0352 34.5696 40.9931 34.5696ZM42.5082 29.1903C42.8449 29.1903 42.5503 29.0652 43.3921 29.1069L46.2119 29.232C46.3382 28.6482 46.0015 28.815 44.5705 28.6899C44.1497 28.6482 43.4342 28.6482 43.0975 28.4814L42.8449 28.2312L42.8029 28.1895C42.8029 28.1895 42.8029 28.1478 42.7608 28.1478L42.6345 29.0235C42.5924 29.1486 42.6345 29.1069 42.5082 29.1903ZM57.7018 22.0595C57.8281 21.5174 57.8701 21.434 58.1227 21.0587C58.291 20.8085 58.6277 20.183 58.1647 20.1413C57.7018 20.0579 57.6176 20.7668 57.1967 21.3506C57.0284 21.6008 56.9442 21.5174 56.9442 21.8927C57.1547 22.0178 57.0284 22.1012 57.7018 22.0595ZM42.0453 31.8174C42.7608 31.6923 43.7288 32.0259 44.5284 31.8174L44.6126 31.4838C44.2759 31.3587 43.2658 31.3587 42.6345 31.2336C42.3399 31.1919 42.3399 31.1919 42.1715 31.0251L42.0874 30.9834C42.1715 31.2336 42.0874 31.5672 42.0453 31.8174Z" fill="#9A6724"/>
</g>
<mask id="mask38_1_1562" style="mask-type:luminance" maskUnits="userSpaceOnUse" x="0" y="0" width="104" height="103">
<path d="M0 0H103.956V103H0V0Z" fill="white"/>
</mask>
<g mask="url(#mask38_1_1562)">
<path d="M40.7827 49.7069C40.5301 49.7486 40.2355 49.7486 40.0672 49.6652C40.1934 50.2073 40.7406 51.2915 41.2877 51.1247C41.3298 50.8745 41.1614 50.666 41.0352 50.4158C40.9089 50.249 40.8247 49.9988 40.7827 49.7069Z" fill="#85571B"/>
</g>
<mask id="mask39_1_1562" style="mask-type:luminance" maskUnits="userSpaceOnUse" x="0" y="0" width="104" height="103">
<path d="M0 0H103.956V103H0V0Z" fill="white"/>
</mask>
<g mask="url(#mask39_1_1562)">
<path d="M55.2186 42.0757C55.8499 48.7061 55.0082 49.1648 59.8903 50.3741C55.3028 51.7502 56.6496 52.1255 55.2186 58.6725C54.2506 51.8336 55.5132 51.5417 50.5469 50.3741C55.7237 49.7069 54.0823 48.8312 55.2186 42.0757Z" fill="white"/>
</g>
</g>
</g>
<defs>
<clipPath id="clip0_1_1562">
<rect width="96" height="103" fill="white"/>
</clipPath>
<clipPath id="clip1_1_1562">
<rect width="103.956" height="103" fill="white"/>
</clipPath>
</defs>
</svg>
