<svg width="47" height="70" viewBox="0 0 47 70" fill="none" xmlns="http://www.w3.org/2000/svg">
<path fill-rule="evenodd" clip-rule="evenodd" d="M16.7804 9.6189L23.0291 13.1996L16.3591 20.1505L16.7804 9.6189Z" fill="#D3F2F7"/>
<path fill-rule="evenodd" clip-rule="evenodd" d="M16.7804 59.9598L23.0291 56.3791L16.3591 49.4282L16.7804 59.9598Z" fill="#A4CAD8"/>
<path fill-rule="evenodd" clip-rule="evenodd" d="M29.3481 9.6189L23.0994 13.1996L29.7694 20.1505L29.3481 9.6189Z" fill="#FEFEFE"/>
<path fill-rule="evenodd" clip-rule="evenodd" d="M29.3481 59.9598L23.0994 56.3791L29.7694 49.4282L29.3481 59.9598Z" fill="#D3F2F7"/>
<path fill-rule="evenodd" clip-rule="evenodd" d="M16.7801 9.61841L8.42505 12.146L8.56548 24.5031L16.3589 20.15L16.7801 9.61841Z" fill="#C6E4E9"/>
<path fill-rule="evenodd" clip-rule="evenodd" d="M16.7801 59.9599L8.42505 57.4323L8.56548 45.0752L16.3589 49.4283L16.7801 59.9599Z" fill="#C6E4E9"/>
<path fill-rule="evenodd" clip-rule="evenodd" d="M29.3483 9.6189L37.6331 12.1465L37.5629 24.5036L29.7695 20.1505L29.3483 9.6189Z" fill="#D3F2F7"/>
<path fill-rule="evenodd" clip-rule="evenodd" d="M29.3483 59.9599L37.6331 57.4323L37.5629 45.0752L29.7695 49.4283L29.3483 59.9599Z" fill="#FEFEFE"/>
<path fill-rule="evenodd" clip-rule="evenodd" d="M8.42522 12.1465L8.49544 24.5036L3.15942 21.6249C3.93174 18.1144 5.68701 14.9549 8.42522 12.1465Z" fill="#A4CAD8"/>
<path fill-rule="evenodd" clip-rule="evenodd" d="M8.42522 57.4323L8.49544 45.0752L3.15942 47.9538C3.93174 51.4644 5.68701 54.6238 8.42522 57.4323Z" fill="#61A6B5"/>
<path fill-rule="evenodd" clip-rule="evenodd" d="M37.6328 12.1465L37.5626 24.5036L42.8986 21.6249C42.1965 18.1144 40.4413 14.9549 37.6328 12.1465Z" fill="#A4CAD8"/>
<path fill-rule="evenodd" clip-rule="evenodd" d="M37.6328 57.4323L37.5626 45.0752L42.8986 47.9538C42.1965 51.4644 40.4413 54.6238 37.6328 57.4323Z" fill="#61A6B5"/>
<path fill-rule="evenodd" clip-rule="evenodd" d="M1.89612 34.6842L8.56613 24.5036L3.23012 21.625L1.89612 34.6842Z" fill="#61A6B5"/>
<path fill-rule="evenodd" clip-rule="evenodd" d="M1.89612 34.8948L8.56613 45.0753L3.23012 47.954L1.89612 34.8948Z" fill="#A4CAD8"/>
<path fill-rule="evenodd" clip-rule="evenodd" d="M44.2326 34.6839L37.5626 24.5034L42.8986 21.6248L44.2326 34.6839Z" fill="#61A6B5"/>
<path fill-rule="evenodd" clip-rule="evenodd" d="M44.2326 34.8948L37.5626 45.0753L42.8986 47.954L44.2326 34.8948Z" fill="#D3F2F7"/>
<path fill-rule="evenodd" clip-rule="evenodd" d="M1.75525 34.8946L8.56569 45.0751L12.7783 34.8946H12.7081L12.7783 34.7542L8.56569 24.5034L1.75525 34.7542L1.96589 34.8946H1.75525Z" fill="#72C0CF"/>
<path fill-rule="evenodd" clip-rule="evenodd" d="M44.3029 34.8946L37.5626 45.0751L33.2798 34.8946H33.4904L33.2798 34.7542L37.5626 24.5034L44.3029 34.7542L44.0922 34.8946H44.3029Z" fill="#A4CAD8"/>
<path fill-rule="evenodd" clip-rule="evenodd" d="M12.8488 34.684L8.56592 24.5035L16.3593 20.1504L12.8488 34.684Z" fill="#FEFEFE"/>
<path fill-rule="evenodd" clip-rule="evenodd" d="M12.8488 34.8948L8.56592 45.0753L16.3593 49.4284L12.8488 34.8948Z" fill="#FEFEFE"/>
<path fill-rule="evenodd" clip-rule="evenodd" d="M33.2798 34.684L37.5627 24.5035L29.7693 20.1504L33.2798 34.684Z" fill="#FEFEFE"/>
<path fill-rule="evenodd" clip-rule="evenodd" d="M33.2798 34.8948L37.5627 45.0753L29.7693 49.4284L33.2798 34.8948Z" fill="#72C0CF"/>
<path fill-rule="evenodd" clip-rule="evenodd" d="M16.7805 9.61891L23.0293 13.1997V13.1294L23.0995 13.1997L29.3482 9.61891L23.1697 2.73828H22.9591H22.8889L16.7805 9.61891Z" fill="#A4CAD8"/>
<path fill-rule="evenodd" clip-rule="evenodd" d="M22.9587 2.73843L16.7801 9.68928L8.42505 12.2169C8.42505 12.1467 10.391 1.75548 22.9587 2.73843Z" fill="#61A6B5"/>
<path fill-rule="evenodd" clip-rule="evenodd" d="M22.9587 66.841L16.7801 59.8901L8.42505 57.3625C8.42505 57.4328 10.391 67.8239 22.9587 66.841Z" fill="#FEFEFE"/>
<path fill-rule="evenodd" clip-rule="evenodd" d="M22.9589 66.8406L16.8505 59.96L14.8846 65.5066C16.8505 66.5598 19.5185 67.1214 22.9589 66.8406Z" fill="#72C0CF"/>
<path fill-rule="evenodd" clip-rule="evenodd" d="M23.1694 2.73843L29.348 9.68928L37.703 12.2169C37.6328 12.1467 35.7371 1.75548 23.1694 2.73843Z" fill="#61A6B5"/>
<path fill-rule="evenodd" clip-rule="evenodd" d="M23.1694 66.8407L29.348 59.8899L37.703 57.3623C37.6328 57.4325 35.7371 67.8237 23.1694 66.8407Z" fill="#A4CAD8"/>
<path fill-rule="evenodd" clip-rule="evenodd" d="M23.0294 34.8243V13.3399L16.3594 20.2205L12.7787 34.8243H23.0294ZM23.0294 13.1995V20.1503V34.7541" fill="#A4CAD8"/>
<path fill-rule="evenodd" clip-rule="evenodd" d="M23.0294 34.824V56.3084L16.3594 49.4278L12.7787 34.824H23.0294ZM23.0294 56.3786V34.824V56.3786Z" fill="#C6E4E9"/>
<path fill-rule="evenodd" clip-rule="evenodd" d="M23.0994 34.8243V13.3399L29.7694 20.2205L33.3501 34.8243H23.0994ZM23.0994 13.1995V20.1503V34.7541" fill="#C6E4E9"/>
<path fill-rule="evenodd" clip-rule="evenodd" d="M22.959 66.8406L29.0673 59.96L31.0332 65.5066C28.9971 66.5598 26.3291 67.1214 22.959 66.8406Z" fill="#72C0CF"/>
<path fill-rule="evenodd" clip-rule="evenodd" d="M16.7805 59.9599L23.0293 56.3792V56.4494L23.0995 56.3792L29.3482 59.9599L23.1697 66.8405H22.9591H22.8889L16.7805 59.9599Z" fill="#A4CAD8"/>
<path d="M37.9839 12.5677C34.1925 6.81046 28.9969 3.29992 23.3099 3.29992C17.6228 3.29992 12.4272 6.88067 8.63584 12.5677C4.77426 18.4654 2.38708 26.6098 2.38708 35.5968C2.38708 44.5838 4.77426 52.7282 8.63584 58.6259C12.4272 64.3832 17.6228 67.8937 23.3099 67.8937C28.9969 67.8937 34.1925 64.3129 37.9839 58.6259C41.8455 52.7282 44.2326 44.5838 44.2326 35.5968C44.3028 26.6098 41.8455 18.4654 37.9839 12.5677ZM23.3099 1.1936C29.7692 1.1936 35.5967 5.1254 39.7391 11.4444C43.8114 17.6229 46.3389 26.1886 46.3389 35.5968C46.3389 45.005 43.8114 53.5707 39.7391 59.7493C35.5967 66.0682 29.7692 70 23.3099 70C16.8505 70 11.023 66.0682 6.88058 59.7493C2.80836 53.5707 0.280762 45.005 0.280762 35.5968C0.280762 26.1886 2.80836 17.6229 6.88058 11.4444C11.023 5.1254 16.8505 1.1936 23.3099 1.1936Z" fill="#8C6521"/>
<path d="M37.7031 11.3741C33.9117 5.61686 28.7162 2.10632 23.0291 2.10632C17.342 2.10632 12.1464 5.68707 8.35506 11.3741C4.49348 17.2718 2.10632 25.4162 2.10632 34.4032C2.10632 43.3902 4.49348 51.5346 8.35506 57.4323C12.1464 63.1896 17.342 66.7001 23.0291 66.7001C28.7162 66.7001 33.9117 63.1194 37.7031 57.4323C41.5647 51.5346 43.9519 43.3902 43.9519 34.4032C44.0221 25.346 41.6349 17.2016 37.7031 11.3741ZM23.0291 0C29.4885 0 35.316 3.9318 39.4584 10.2508C43.5306 16.4293 46.0582 24.995 46.0582 34.4032C46.0582 43.8114 43.5306 52.3771 39.4584 58.5557C35.316 64.8746 29.4885 68.8064 23.0291 68.8064C16.5697 68.8064 10.7422 64.8746 6.59979 58.5557C2.52758 52.3771 0 43.8114 0 34.4032C0 24.995 2.52758 16.4293 6.59979 10.2508C10.8124 3.86159 16.5697 0 23.0291 0Z" fill="#BE983D"/>
<path d="M20.8526 1.96582C21.4143 1.96582 21.976 2.03602 22.5377 2.10623C17.0612 2.31686 12.0061 5.8274 8.35511 11.374C7.23174 13.1293 6.17859 15.025 5.33606 17.1313C8.14448 8.14436 14.0422 1.96582 20.8526 1.96582Z" fill="#FEFEFE"/>
<path d="M25.4164 68.1745C24.8547 68.1745 24.293 68.1043 23.7313 68.0341C29.2078 67.8235 34.2629 64.313 37.9139 58.7663C39.0372 57.011 40.0904 55.1154 40.9329 53.009C38.1245 61.996 32.2268 68.1745 25.4164 68.1745Z" fill="#FEFEFE"/>
<path fill-rule="evenodd" clip-rule="evenodd" d="M10.3913 22.8887L11.1636 30.9629L16.7103 32.1565L11.1636 33.3501L10.3913 41.4243L9.54881 33.3501L4.07239 32.1565L9.54881 30.9629L10.3913 22.8887Z" fill="#FEFEFE"/>
</svg>
