<?xml version="1.0" encoding="utf-8"?>
<!-- Generator: Adobe Illustrator 25.4.1, SVG Export Plug-In . SVG Version: 6.00 Build 0)  -->
<svg version="1.1" xmlns="http://www.w3.org/2000/svg" xmlns:xlink="http://www.w3.org/1999/xlink" x="0px" y="0px"
	 viewBox="0 0 231 209.4" style="enable-background:new 0 0 231 209.4;" xml:space="preserve">
<style type="text/css">
	.st0{display:none;}
	.st1{display:inline;fill-rule:evenodd;clip-rule:evenodd;fill:#61A6B5;}
	.st2{display:inline;fill-rule:evenodd;clip-rule:evenodd;fill:#FFFFFF;}
	.st3{display:inline;fill:#9C0F14;}
	.st4{display:inline;fill-rule:evenodd;clip-rule:evenodd;fill:#FEFEFE;}
	.st5{fill-rule:evenodd;clip-rule:evenodd;fill:#D3F2F7;}
	.st6{fill-rule:evenodd;clip-rule:evenodd;fill:#A4CAD8;}
	.st7{fill-rule:evenodd;clip-rule:evenodd;fill:#FEFEFE;}
	.st8{fill-rule:evenodd;clip-rule:evenodd;fill:#C6E4E9;}
	.st9{fill-rule:evenodd;clip-rule:evenodd;fill:#61A6B5;}
	.st10{fill-rule:evenodd;clip-rule:evenodd;fill:#72C0CF;}
	.st11{fill:#8C6521;}
	.st12{fill:#BE983D;}
	.st13{fill:#FEFEFE;}
	.st14{fill:#57636A;}
	.st15{fill:#B6C0CE;}
	.st16{fill:none;stroke:#586E76;stroke-width:1.4173;stroke-linecap:round;stroke-linejoin:round;stroke-miterlimit:22.9256;}
	.st17{fill-rule:evenodd;clip-rule:evenodd;fill:#6D0000;}
	.st18{fill-rule:evenodd;clip-rule:evenodd;fill:#B32025;}
	.st19{fill-rule:evenodd;clip-rule:evenodd;fill:#9C0F14;}
	.st20{fill-rule:evenodd;clip-rule:evenodd;fill:#F2CF9F;}
	.st21{fill-rule:evenodd;clip-rule:evenodd;fill:#E5A772;}
	.st22{fill-rule:evenodd;clip-rule:evenodd;fill:#C88D5B;}
	.st23{fill-rule:evenodd;clip-rule:evenodd;fill:#7B0000;}
	.st24{fill-rule:evenodd;clip-rule:evenodd;fill:#7E7C70;}
	.st25{fill-rule:evenodd;clip-rule:evenodd;fill:#686660;}
	.st26{fill:none;stroke:#2E2E2D;stroke-width:0.5;stroke-miterlimit:22.9256;}
	.st27{fill-rule:evenodd;clip-rule:evenodd;fill:#414141;}
	.st28{fill-rule:evenodd;clip-rule:evenodd;fill:#DC824A;}
	
		.st29{fill-rule:evenodd;clip-rule:evenodd;fill:none;stroke:#586E76;stroke-width:1.206;stroke-linecap:round;stroke-linejoin:round;stroke-miterlimit:22.9256;}
	.st30{display:inline;}
	.st31{fill:#444444;}
	.st32{fill:#9CBECC;}
	.st33{fill:#6D0000;}
	.st34{fill-rule:evenodd;clip-rule:evenodd;fill:#FFFFFF;}
	.st35{fill-rule:evenodd;clip-rule:evenodd;fill:#7C7B70;}
	.st36{fill-rule:evenodd;clip-rule:evenodd;fill:#676660;}
	.st37{fill:none;stroke:#323231;stroke-width:0.5;stroke-miterlimit:22.926;}
	.st38{fill-rule:evenodd;clip-rule:evenodd;fill:#434343;}
</style>
<g id="Layer_2" class="st0">
	<path class="st1" d="M112.6,28.5c42.7,0,77.4,34.6,77.4,77.4s-34.6,77.4-77.4,77.4s-77.4-34.6-77.4-77.4S69.8,28.5,112.6,28.5"/>
	<path class="st2" d="M112.6,21c42.7,0,77.4,34.6,77.4,77.4s-34.6,77.4-77.4,77.4S35.2,141,35.2,98.3S69.8,21,112.6,21"/>
</g>
<g id="Layer_1">
	<polygon class="st5" points="103.4,62.2 112.3,67.3 102.8,77.2 	"/>
	<polygon class="st6" points="103.4,133.9 112.3,128.8 102.8,118.9 	"/>
	<polygon class="st7" points="121.3,62.2 112.4,67.3 121.9,77.2 	"/>
	<polygon class="st5" points="121.3,133.9 112.4,128.8 121.9,118.9 	"/>
	<polygon class="st8" points="103.4,62.2 91.6,65.8 91.7,83.4 102.8,77.2 	"/>
	<polygon class="st8" points="103.4,133.9 91.6,130.3 91.7,112.7 102.8,118.9 	"/>
	<polygon class="st5" points="121.3,62.2 133.2,65.8 133.1,83.4 121.9,77.2 	"/>
	<polygon class="st7" points="121.3,133.9 133.2,130.3 133.1,112.7 121.9,118.9 	"/>
	<path class="st6" d="M91.6,65.8l0.1,17.6l-7.6-4.1C85.1,74.3,87.6,69.8,91.6,65.8"/>
	<path class="st9" d="M91.6,130.3l0.1-17.6l-7.6,4.1C85.1,121.8,87.6,126.3,91.6,130.3"/>
	<path class="st6" d="M133.2,65.8l-0.1,17.6l7.6-4.1C139.6,74.3,137.1,69.8,133.2,65.8"/>
	<path class="st9" d="M133.2,130.3l-0.1-17.6l7.6,4.1C139.6,121.8,137.1,126.3,133.2,130.3"/>
	<polygon class="st9" points="82.2,97.9 91.7,83.4 84.1,79.3 	"/>
	<polygon class="st6" points="82.2,98.2 91.7,112.7 84.1,116.8 	"/>
	<polygon class="st9" points="142.5,97.9 133.1,83.4 140.6,79.3 	"/>
	<polygon class="st5" points="142.5,98.2 133.1,112.7 140.6,116.8 	"/>
	<polygon class="st10" points="82.1,98.1 91.7,112.7 97.8,98.1 97.6,98.1 97.8,97.9 91.7,83.4 82.1,97.9 82.3,98.1 	"/>
	<polygon class="st6" points="142.7,98.1 133.1,112.7 127,98.1 127.2,98.1 127,97.9 133.1,83.4 142.7,97.9 142.4,98.1 	"/>
	<polygon class="st7" points="97.8,97.9 91.7,83.4 102.8,77.2 	"/>
	<polygon class="st7" points="97.8,98.2 91.7,112.7 102.8,118.9 	"/>
	<polygon class="st7" points="126.9,97.9 133.1,83.4 121.9,77.2 	"/>
	<polygon class="st10" points="126.9,98.2 133.1,112.7 121.9,118.9 	"/>
	<polygon class="st6" points="103.4,62.2 112.3,67.3 112.3,67.2 112.4,67.3 121.3,62.2 112.6,52.4 112.2,52.4 112.2,52.4 	"/>
	<path class="st9" d="M112.2,52.4l-8.8,9.9l-11.9,3.6C91.6,65.8,94.3,51,112.2,52.4"/>
	<path class="st7" d="M112.2,143.7l-8.8-9.9l-11.9-3.6C91.6,130.3,94.3,145.1,112.2,143.7"/>
	<path class="st10" d="M112.2,143.7l-8.7-9.8l-2.8,7.9C103.6,143.3,107.3,144.1,112.2,143.7"/>
	<path class="st9" d="M112.6,52.4l8.8,9.9l11.9,3.6C133.2,65.8,130.4,51,112.6,52.4"/>
	<path class="st6" d="M112.6,143.7l8.8-9.9l11.9-3.6C133.2,130.3,130.4,145.1,112.6,143.7"/>
	<path class="st6" d="M112.4,98l0-30.6l-9.5,9.8L97.8,98H112.4z M112.3,67.3v9.9V98"/>
	<path class="st8" d="M112.3,98v30.6l-9.5-9.8L97.8,98H112.3z M112.3,128.8V98"/>
	<path class="st8" d="M112.4,98l0-30.6l9.5,9.8L127,98H112.4z M112.4,67.3v9.9V98"/>
	<path class="st10" d="M112.2,143.7l8.7-9.8l2.8,7.9C120.8,143.3,117.1,144.1,112.2,143.7"/>
	<polygon class="st6" points="103.4,133.9 112.3,128.8 112.3,128.9 112.4,128.8 121.3,133.9 112.6,143.7 112.2,143.7 112.2,143.7 	
		"/>
	<path class="st11" d="M133.7,66.4c-5.4-8.2-12.8-13.2-20.9-13.2c-8.1,0-15.5,5.1-20.9,13.2c-5.5,8.4-8.9,20-8.9,32.8
		c0,12.8,3.4,24.4,8.9,32.8c5.4,8.2,12.8,13.2,20.9,13.2c8.1,0,15.5-5.1,20.9-13.2c5.5-8.4,8.9-20,8.9-32.8
		C142.6,86.4,139.2,74.8,133.7,66.4 M112.7,50.2c9.2,0,17.5,5.6,23.4,14.6c5.8,8.8,9.4,21,9.4,34.4s-3.6,25.6-9.4,34.4
		c-5.9,9-14.2,14.6-23.4,14.6c-9.2,0-17.5-5.6-23.4-14.6c-5.8-8.8-9.4-21-9.4-34.4s3.6-25.6,9.4-34.4
		C95.3,55.8,103.6,50.2,112.7,50.2z"/>
	<path class="st12" d="M133.3,64.7c-5.4-8.2-12.8-13.2-20.9-13.2c-8.1,0-15.5,5.1-20.9,13.2c-5.5,8.4-8.9,20-8.9,32.8
		c0,12.8,3.4,24.4,8.9,32.8c5.4,8.2,12.8,13.2,20.9,13.2c8.1,0,15.5-5.1,20.9-13.2c5.5-8.4,8.9-20,8.9-32.8
		C142.2,84.6,138.8,73,133.3,64.7 M112.4,48.4c9.2,0,17.5,5.6,23.4,14.6c5.8,8.8,9.4,21,9.4,34.4s-3.6,25.6-9.4,34.4
		c-5.9,9-14.2,14.6-23.4,14.6c-9.2,0-17.5-5.6-23.4-14.6c-5.8-8.8-9.4-21-9.4-34.4S83.1,71.9,89,63C94.9,54,103.2,48.4,112.4,48.4z"
		/>
	<path class="st13" d="M109.3,51.2c0.8,0,1.6,0.1,2.4,0.2c-7.8,0.3-15,5.3-20.2,13.2c-1.6,2.5-3.1,5.2-4.3,8.2
		C91.1,60.1,99.5,51.2,109.3,51.2"/>
	<path class="st13" d="M115.7,145.6c-0.8,0-1.6-0.1-2.4-0.2c7.8-0.3,15-5.3,20.2-13.2c1.6-2.5,3.1-5.2,4.3-8.2
		C133.9,136.8,125.5,145.6,115.7,145.6"/>
	<polygon class="st7" points="90.2,70.3 91.4,81.8 99.2,83.5 91.4,85.2 90.2,96.7 89,85.2 81.2,83.5 89,81.8 	"/>
	<polygon class="st7" points="133.2,99.8 134.3,111.3 142.2,113 134.3,114.7 133.2,126.2 132,114.7 124.2,113 132,111.3 	"/>
	<polygon class="st7" points="121.4,57.1 121.9,61.9 125.2,62.6 121.9,63.3 121.4,68.1 120.9,63.3 117.7,62.6 120.9,61.9 	"/>
	<polygon class="st7" points="139.7,74.2 140.2,79 143.5,79.7 140.2,80.4 139.7,85.3 139.2,80.4 135.9,79.7 139.2,79 	"/>
	<polygon class="st7" points="111.1,92 111.6,96.8 114.9,97.5 111.6,98.2 111.1,103 110.6,98.2 107.3,97.5 110.6,96.8 	"/>
	<polygon class="st7" points="103.1,57.3 103.6,62.1 106.9,62.8 103.6,63.5 103.1,68.3 102.7,63.5 99.4,62.8 102.7,62.1 	"/>
	<polygon class="st7" points="90.9,123.6 91.4,128.4 94.6,129.2 91.4,129.9 90.9,134.7 90.4,129.9 87.1,129.2 90.4,128.4 	"/>
</g>
<g id="Layer_3" class="st0">
	<g class="st30">
		<polygon class="st5" points="103.2,62.1 112.1,67.2 102.6,77.1 		"/>
		<polygon class="st6" points="103.2,133.8 112.1,128.7 102.6,118.7 		"/>
		<polygon class="st7" points="121.1,62.1 112.2,67.2 121.7,77.1 		"/>
		<polygon class="st5" points="121.1,133.8 112.2,128.7 121.7,118.7 		"/>
		<polygon class="st8" points="103.2,62.1 91.3,65.7 91.5,83.3 102.6,77.1 		"/>
		<polygon class="st8" points="103.2,133.8 91.3,130.2 91.5,112.6 102.6,118.7 		"/>
		<polygon class="st5" points="121.1,62.1 133,65.7 132.8,83.3 121.7,77.1 		"/>
		<polygon class="st7" points="121.1,133.8 133,130.2 132.8,112.6 121.7,118.7 		"/>
		<path class="st6" d="M91.3,65.7l0.1,17.6l-7.6-4.1C84.9,74.2,87.4,69.7,91.3,65.7"/>
		<path class="st9" d="M91.3,130.2l0.1-17.6l-7.6,4.1C84.9,121.7,87.4,126.2,91.3,130.2"/>
		<path class="st6" d="M133,65.7l-0.1,17.6l7.6-4.1C139.4,74.2,136.9,69.7,133,65.7"/>
		<path class="st9" d="M133,130.2l-0.1-17.6l7.6,4.1C139.4,121.7,136.9,126.2,133,130.2"/>
		<polygon class="st9" points="82,97.8 91.5,83.3 83.9,79.2 		"/>
		<polygon class="st6" points="82,98.1 91.5,112.6 83.9,116.6 		"/>
		<polygon class="st9" points="142.3,97.8 132.8,83.3 140.4,79.2 		"/>
		<polygon class="st5" points="142.3,98.1 132.8,112.6 140.4,116.6 		"/>
		<polygon class="st10" points="81.8,98 91.5,112.6 97.6,98 97.4,98 97.6,97.8 91.5,83.3 81.8,97.8 82.1,98 		"/>
		<polygon class="st6" points="142.5,98 132.8,112.6 126.7,98 127,98 126.7,97.8 132.8,83.3 142.5,97.8 142.1,98 		"/>
		<polygon class="st7" points="97.6,97.8 91.5,83.3 102.6,77.1 		"/>
		<polygon class="st7" points="97.6,98.1 91.5,112.6 102.6,118.7 		"/>
		<polygon class="st7" points="126.7,97.8 132.8,83.3 121.7,77.1 		"/>
		<polygon class="st10" points="126.7,98.1 132.8,112.6 121.7,118.7 		"/>
		<polygon class="st6" points="103.2,62.1 112.1,67.2 112.1,67 112.2,67.2 121.1,62.1 112.3,52.2 112,52.3 111.9,52.3 		"/>
		<path class="st9" d="M112,52.2l-8.8,9.9l-11.9,3.6C91.3,65.7,94.1,50.9,112,52.2"/>
		<path class="st7" d="M112,143.6l-8.8-9.9l-11.9-3.6C91.3,130.2,94.1,145,112,143.6"/>
		<path class="st10" d="M112,143.6l-8.7-9.8l-2.8,7.9C103.4,143.2,107.1,144,112,143.6"/>
		<path class="st9" d="M112.3,52.2l8.8,9.9l11.9,3.6C133,65.7,130.2,50.9,112.3,52.2"/>
		<path class="st6" d="M112.3,143.6l8.8-9.9l11.9-3.6C133,130.2,130.2,145,112.3,143.6"/>
		<path class="st6" d="M112.1,97.9l0-30.6l-9.5,9.8l-5.1,20.8H112.1z M112.1,67.2v9.9v20.8"/>
		<path class="st8" d="M112.1,97.9v30.6l-9.5-9.8l-5.1-20.8H112.1z M112.1,128.7V97.9"/>
		<path class="st8" d="M112.2,97.9l0-30.6l9.5,9.8l5.1,20.8H112.2z M112.2,67.2v9.9v20.8"/>
		<path class="st10" d="M112,143.6l8.7-9.8l2.8,7.9C120.6,143.2,116.8,144,112,143.6"/>
		<polygon class="st6" points="103.2,133.8 112.1,128.7 112.1,128.8 112.2,128.7 121.1,133.8 112.3,143.6 112,143.6 111.9,143.6 		
			"/>
		<path class="st11" d="M133.4,66.3C128,58.1,120.6,53,112.5,53c-8.1,0-15.5,5.1-20.9,13.2c-5.5,8.4-8.9,20-8.9,32.8
			c0,12.8,3.4,24.4,8.9,32.8c5.4,8.2,12.8,13.2,20.9,13.2c8.1,0,15.5-5.1,20.9-13.2c5.5-8.4,8.9-20,8.9-32.8
			C142.4,86.2,139,74.6,133.4,66.3 M112.5,50.1c9.2,0,17.5,5.6,23.4,14.6c5.8,8.8,9.4,21,9.4,34.4s-3.6,25.6-9.4,34.4
			c-5.9,9-14.2,14.6-23.4,14.6c-9.2,0-17.5-5.6-23.4-14.6c-5.8-8.8-9.4-21-9.4-34.4s3.6-25.6,9.4-34.4
			C95.1,55.6,103.3,50.1,112.5,50.1z"/>
		<path class="st12" d="M133.1,64.5c-5.4-8.2-12.8-13.2-20.9-13.2c-8.1,0-15.5,5.1-20.9,13.2c-5.5,8.4-8.9,20-8.9,32.8
			c0,12.8,3.4,24.4,8.9,32.8c5.4,8.2,12.8,13.2,20.9,13.2c8.1,0,15.5-5.1,20.9-13.2c5.5-8.4,8.9-20,8.9-32.8
			C142,84.5,138.6,72.9,133.1,64.5 M112.1,48.3c9.2,0,17.5,5.6,23.4,14.6c5.8,8.8,9.4,21,9.4,34.4s-3.6,25.6-9.4,34.4
			c-5.9,9-14.2,14.6-23.4,14.6c-9.2,0-17.5-5.6-23.4-14.6c-5.8-8.8-9.4-21-9.4-34.4s3.6-25.6,9.4-34.4
			C94.7,53.9,103,48.3,112.1,48.3z"/>
		<path class="st13" d="M109,51.1c0.8,0,1.6,0.1,2.4,0.2c-7.8,0.3-15,5.3-20.2,13.2c-1.6,2.5-3.1,5.2-4.3,8.2
			C90.9,60,99.3,51.1,109,51.1"/>
		<path class="st13" d="M115.5,145.5c-0.8,0-1.6-0.1-2.4-0.2c7.8-0.3,15-5.3,20.2-13.2c1.6-2.5,3.1-5.2,4.3-8.2
			C133.7,136.7,125.2,145.5,115.5,145.5"/>
	</g>
</g>
</svg>
