<svg width="335" height="120" viewBox="0 0 335 120" fill="none" xmlns="http://www.w3.org/2000/svg">
<path d="M68.3404 91.9466C42.8844 91.9466 22.2482 71.3637 22.2482 45.9733C22.2482 20.583 42.8844 0 68.3404 0C93.7963 0 114.432 20.583 114.432 45.9733C114.432 71.3637 93.7963 91.9466 68.3404 91.9466Z" fill="#0E9EFF"/>
<path d="M178.173 68.8198C159.82 68.8198 144.941 53.9799 144.941 35.6741C144.941 17.3682 159.82 2.52832 178.173 2.52832C196.526 2.52832 211.404 17.3682 211.404 35.6741C211.404 53.9799 196.526 68.8198 178.173 68.8198Z" fill="#0E9EFF"/>
<path d="M35.7788 119.594C16.0187 119.594 4.57764e-05 103.616 4.57764e-05 83.9073C4.57764e-05 64.1981 16.0187 48.2207 35.7788 48.2207C55.5389 48.2207 71.5576 64.1981 71.5576 83.9073C71.5576 103.616 55.5389 119.594 35.7788 119.594Z" fill="#0E9EFF"/>
<path d="M124.008 58.3331C111.15 58.3331 100.727 47.9368 100.727 35.1123C100.727 22.2879 111.15 11.8916 124.008 11.8916C136.865 11.8916 147.288 22.2879 147.288 35.1123C147.288 47.9368 136.865 58.3331 124.008 58.3331Z" fill="#0E9EFF"/>
<path d="M217.133 68.9291C204.62 65.982 196.872 53.4753 199.826 40.9945C202.781 28.5138 215.32 20.7852 227.833 23.7322C240.346 26.6793 248.095 39.186 245.14 51.6668C242.185 64.1475 229.646 71.8761 217.133 68.9291Z" fill="#0E9EFF"/>
<path d="M312.288 99.8689C324.575 99.8689 334.536 89.9341 334.536 77.6789C334.536 65.4236 324.575 55.4888 312.288 55.4888V99.8689Z" fill="#0E9EFF"/>
<path d="M254.955 66.8622C240.657 66.8622 229.066 55.3012 229.066 41.04C229.066 26.7788 240.657 15.2178 254.955 15.2178C269.253 15.2178 280.844 26.7788 280.844 41.04C280.844 55.3012 269.253 66.8622 254.955 66.8622Z" fill="#0E9EFF"/>
<rect x="14.6431" y="31.6553" width="299.293" height="87.9385" rx="30" fill="#0E9EFF"/>
</svg>
