<svg width="351" height="161" viewBox="0 0 351 161" fill="none" xmlns="http://www.w3.org/2000/svg">
<path fill-rule="evenodd" clip-rule="evenodd" d="M27.1905 56.3965C27.1905 58.0509 27.2625 59.6885 27.4035 61.3063C11.5686 66.7435 0.189453 81.7514 0.189453 99.4142C0.189453 121.664 18.246 139.701 40.5198 139.701C42.0467 139.701 43.5536 139.616 45.0364 139.451C50.2323 143.765 56.908 146.36 64.1896 146.36H276.282C278.771 155.51 299.59 160.661 299.59 160.661C296.206 157.187 291.939 149.214 296.419 146.36H320.19C336.758 146.36 350.19 132.928 350.19 116.36V69.4765C350.19 60.9501 346.633 53.2545 340.922 47.7926C339.595 31.6792 326.082 19.0154 309.609 19.0154C299.049 19.0154 289.705 24.2197 284.009 32.2009C281.767 30.9487 279.317 29.9831 276.693 29.3644C269.054 27.5625 261.407 29.044 255.237 32.8923C250.449 15.9823 234.885 3.59185 216.424 3.59185C197.618 3.59185 181.819 16.4493 177.355 33.8441C173.492 22.8528 163.012 14.9722 150.688 14.9722C142.123 14.9722 134.448 18.7794 129.267 24.7921C119.184 10.1326 102.28 0.519043 83.129 0.519043C52.2351 0.519043 27.1905 25.5362 27.1905 56.3965Z" fill="#0E9EFF"/>
</svg>
