<svg width="68" height="81" viewBox="0 0 68 81" fill="none" xmlns="http://www.w3.org/2000/svg">
<path d="M18.2139 13.8889L0.0322266 23.01L15.6165 70.4274L33.6775 80.8169L52.886 71.1523L67.2623 23.01L46.4832 13.8889H18.2139Z" fill="black"/>
<path d="M47.208 13.1036H20.2677V41.6145H47.208V13.1036Z" fill="#D9D9D9"/>
<mask id="mask0_1_2781" style="mask-type:luminance" maskUnits="userSpaceOnUse" x="21" y="7" width="25" height="68">
<path d="M27.0947 52.4875L33.7391 74.1726L40.6856 50.1317L45.7596 14.916L35.068 7.36542L24.1953 10.8689L21.7791 15.9428L27.0947 52.4875Z" fill="white"/>
</mask>
<g mask="url(#mask0_1_2781)">
<path d="M38.5707 32.9165C38.0271 26.8156 36.9398 25.4867 36.0942 23.8558C35.1277 23.0706 33.5572 22.7081 33.5572 22.7081C33.5572 22.7081 31.9867 23.0101 31.0202 23.8558C30.1745 25.5471 29.0872 26.8156 28.5436 32.9165C28 39.0173 26.0066 83.2333 25.8858 84.8642C25.6442 86.4951 33.6176 92.5356 33.6176 92.5356C33.6176 92.5356 41.3493 86.918 41.3493 84.8642C41.2285 82.8105 39.1144 39.0777 38.5707 32.9165Z" fill="#E83D3D"/>
<g opacity="0.5">
<path d="M29.6315 32.9165C30.0544 26.8157 30.9 25.4868 31.5645 23.8559C32.2893 23.0706 33.5578 22.7082 33.5578 22.7082C33.5578 22.7082 31.9873 23.0102 31.0208 23.8559C30.1752 25.5472 29.0879 26.8157 28.5443 32.9165C28.0006 39.0174 25.9469 82.9917 25.8865 84.8643C25.8261 86.7368 33.6182 92.5356 33.6182 92.5356C33.6182 92.5356 27.8194 86.5556 27.6382 84.8643C27.3362 83.1729 29.2087 39.0778 29.6315 32.9165Z" fill="#D02627"/>
<path d="M38.5712 32.9165C38.0275 26.8157 36.9402 25.4868 36.0946 23.8559C35.1281 23.0706 33.5576 22.7082 33.5576 22.7082C33.5576 22.7082 34.7657 23.0102 35.5509 23.8559C36.2154 25.5472 37.061 26.8157 37.4839 32.9165C37.9067 39.0174 40.1417 82.9313 39.598 84.8643C39.0544 86.7972 33.618 92.5356 33.618 92.5356C33.618 92.5356 41.4102 86.918 41.3498 84.8643C41.1081 82.8105 39.1148 39.0778 38.5712 32.9165Z" fill="#D02627"/>
</g>
<path opacity="0.5" d="M34.0403 22.8289C34.4631 25.8491 35.6108 34.2453 35.6108 39.5609C35.6108 46.0845 37.5438 41.977 37.3626 38.7152C37.1813 35.7554 37.1209 29.5941 35.49 23.4329C34.9464 23.1309 34.4027 22.9497 34.0403 22.8289Z" fill="#D02627"/>
<path opacity="0.5" d="M33.5573 22.7081C33.5573 22.7081 33.0136 22.8289 32.4096 23.0706C30.9599 28.9902 30.8391 34.789 30.7183 37.628C30.5371 40.8898 32.47 44.9973 32.47 38.4737C32.47 33.7017 33.3761 26.4532 33.9197 22.8289C33.6781 22.7685 33.5573 22.7081 33.5573 22.7081Z" fill="#D02627"/>
<path d="M30.7785 24.2786C30.7785 24.2786 27.6979 19.0838 27.2147 17.2717C26.671 15.2783 30.8993 14.0703 33.4967 14.0703C36.0941 14.0703 40.5036 15.5804 39.7788 17.2717C39.0539 19.0234 36.2753 24.2786 36.2753 24.2786C36.2753 24.2786 34.7048 23.3725 33.3155 23.3725C31.9866 23.3725 30.7785 24.2786 30.7785 24.2786Z" fill="#E73736"/>
<path d="M26.7314 66.622L40.7452 73.8102C40.6848 72.9041 40.6848 71.998 40.6244 71.0316L26.9126 64.0247C26.8522 64.8703 26.7918 65.716 26.7314 66.622Z" fill="#D02627"/>
<path d="M26.4895 71.3941L40.9865 78.8238C40.9261 77.9781 40.9261 77.0117 40.8657 76.0452L26.6707 68.7967C26.6103 69.6424 26.5499 70.488 26.4895 71.3941Z" fill="#D02627"/>
<path d="M26.9726 61.8501L40.5032 68.7966C40.4428 67.8906 40.3824 66.9241 40.3824 66.018L27.0934 59.2527C27.033 60.0984 27.033 61.0045 26.9726 61.8501Z" fill="#D02627"/>
<path d="M37.9663 28.7485C37.6643 27.2384 37.3019 26.2719 36.9394 25.4867L32.2883 23.1309C31.8655 23.3121 31.3822 23.5537 30.9594 23.8558C30.7782 24.2182 30.597 24.5202 30.4158 24.8826L37.9663 28.7485Z" fill="#D02627"/>
<path d="M26.3084 76.1055L41.2283 83.7165C41.2283 83.052 41.1679 82.0856 41.1074 80.9379L26.4292 73.4478C26.3688 74.4142 26.3084 75.2599 26.3084 76.1055Z" fill="#D02627"/>
<path d="M27.2144 57.1385L40.2618 63.8434C40.2014 62.9373 40.141 61.9709 40.141 61.0044L27.3353 54.4807C27.2749 55.3264 27.2749 56.2324 27.2144 57.1385Z" fill="#D02627"/>
<path d="M28.5431 32.9164C28.5431 33.0372 28.5431 33.2184 28.4827 33.3996L38.9327 38.7756C38.8723 37.7488 38.8119 36.7823 38.7515 35.9366L28.7243 30.8022C28.6639 31.4667 28.6035 32.1311 28.5431 32.9164Z" fill="#D02627"/>
<path d="M38.6306 33.9432C38.6306 33.5204 38.5702 33.2184 38.5702 32.9164C38.5098 32.2519 38.4494 31.6479 38.389 31.0438L29.6908 26.5739C29.4492 27.2384 29.268 27.9632 29.0868 28.9901L38.6306 33.9432Z" fill="#D02627"/>
<path d="M27.4563 52.3666L40.0204 58.7694C39.96 57.803 39.8996 56.8969 39.8996 55.9304L27.5771 49.6484C27.5167 50.5544 27.4563 51.4605 27.4563 52.3666Z" fill="#D02627"/>
<path d="M28.1807 38.1112L39.2347 43.7288C39.1743 42.7623 39.1139 41.7959 39.0535 40.8898L28.3015 35.393C28.3015 36.2387 28.2411 37.1447 28.1807 38.1112Z" fill="#D02627"/>
<path d="M27.9394 42.8832L39.4767 48.8028C39.4163 47.8364 39.3558 46.9303 39.3558 45.9638L28.0602 40.2254C27.9998 41.0711 27.9394 41.9167 27.9394 42.8832Z" fill="#D02627"/>
<path d="M27.6976 47.5947L39.7784 53.7559C39.718 52.7894 39.6576 51.8834 39.6576 50.9169L27.8788 44.8765C27.758 45.8429 27.6976 46.6886 27.6976 47.5947Z" fill="#D02627"/>
<path d="M36.8795 14.6743C36.9399 16.7885 37.3627 23.1913 34.8861 22.1645C33.1948 21.5 31.0806 21.9228 29.933 22.8289C30.4162 23.6746 30.7786 24.2182 30.7786 24.2182C30.7786 24.2182 31.9867 23.3121 33.376 23.3121C34.7049 23.3121 36.3358 24.2182 36.3358 24.2182C36.3358 24.2182 39.1144 18.9026 39.8393 17.2113C40.2017 16.2448 38.6916 15.2784 36.8795 14.6743Z" fill="#961827"/>
<path d="M29.6915 22.3455L39.4166 18.0568C39.5978 17.6944 39.7186 17.4528 39.779 17.2112C40.0207 16.6071 39.5978 16.0635 38.873 15.5198L28.4834 20.1106C28.9063 20.8958 29.3291 21.6811 29.6915 22.3455Z" fill="#D02627"/>
<path d="M27.2149 17.2112C27.2753 17.5132 27.4565 17.9361 27.6377 18.3589L36.4568 14.5534C35.4299 14.2514 34.3426 14.0702 33.497 14.0702C32.4701 14.0702 31.2016 14.2514 30.0539 14.6138L28.2418 15.3991C27.4565 15.8823 27.0337 16.4864 27.2149 17.2112Z" fill="#961827"/>
</g>
<path d="M47.0266 2.35175C47.0266 2.35175 44.6104 5.8552 40.9862 8.81501C37.9056 11.352 34.4625 13.1037 33.7981 13.4057C33.1336 13.0433 29.6302 11.2916 26.6099 8.81501C22.9857 5.8552 20.5695 2.35175 20.5695 2.35175C20.5695 2.35175 19.6634 8.6338 20.5695 15.2179C21.2944 20.4127 23.5897 28.084 23.5897 28.084L33.7981 13.587L44.0064 28.084C44.0064 28.084 46.3018 20.4127 47.0266 15.2179C47.8723 8.69421 47.0266 2.35175 47.0266 2.35175Z" fill="#A7A9AB"/>
<path d="M47.3889 50.3732L49.7446 13.9493L33.6771 51.3396L17.7907 13.9493L21.3546 51.6417L33.7979 80.1525L47.3889 50.3732Z" fill="#231F20"/>
<path d="M34.2816 80.5149L47.3894 9.23779L58.7454 20.3522L54.4567 22.4663L60.2555 28.688L34.2816 80.5149Z" fill="#414142"/>
<path d="M34.2816 80.2734L47.3894 8.99622L57.6581 20.1106L53.3694 22.2248L59.1682 28.4464L34.2816 80.2734Z" fill="#6E6F72"/>
<path d="M33.315 80.5149L20.1469 9.23779L8.79087 20.3522L13.0796 22.4663L7.28076 28.688L33.315 80.5149Z" fill="#414142"/>
<path d="M33.0732 79.9713L20.0862 9.53979L10.1799 19.8689L15.6163 22.2851L8.54901 28.4464L33.0732 79.9713Z" fill="#6E6F72"/>
<path d="M35.3688 54.4204C35.3688 55.3265 34.6439 56.0513 33.7379 56.0513C32.8318 56.0513 32.1069 55.3265 32.1069 54.4204C32.1069 53.5143 32.8318 52.7895 33.7379 52.7895C34.6439 52.7895 35.3688 53.5143 35.3688 54.4204Z" fill="#034E77"/>
<path d="M35.3688 54.4204C35.3688 55.3265 34.6439 56.0513 33.7379 56.0513C32.8318 56.0513 32.1069 55.3265 32.1069 54.4204C32.1069 53.5143 32.8318 52.7895 33.7379 52.7895C34.6439 52.7895 35.3688 53.5143 35.3688 54.4204Z" fill="#231F20"/>
<path d="M35.3688 65.9577C35.3688 66.8638 34.6439 67.5886 33.7379 67.5886C32.8318 67.5886 32.1069 66.8638 32.1069 65.9577C32.1069 65.0516 32.8318 64.3268 33.7379 64.3268C34.6439 64.3268 35.3688 65.0516 35.3688 65.9577Z" fill="#231F20"/>
<path d="M35.3685 54.1786C35.3685 55.0847 34.6437 55.8096 33.7376 55.8096C32.8316 55.8096 32.1067 55.0847 32.1067 54.1786C32.1067 53.2726 32.8316 52.5477 33.7376 52.5477C34.6437 52.5477 35.3685 53.2726 35.3685 54.1786Z" fill="#6E6F72"/>
<path d="M33.4964 54.7828C33.4964 54.964 33.3756 55.0848 33.1943 55.0848C33.0131 55.0848 32.8923 54.964 32.8923 54.7828C32.8923 54.6016 33.0131 54.4808 33.1943 54.4808C33.3756 54.4808 33.4964 54.6016 33.4964 54.7828Z" fill="#231F20"/>
<path d="M34.6443 54.7828C34.6443 54.964 34.5235 55.0848 34.3423 55.0848C34.161 55.0848 34.0402 54.964 34.0402 54.7828C34.0402 54.6016 34.161 54.4808 34.3423 54.4808C34.5235 54.4808 34.6443 54.6016 34.6443 54.7828Z" fill="#231F20"/>
<path d="M34.3423 53.8767C34.161 53.8767 34.0402 53.7559 34.0402 53.5747C34.0402 53.3935 34.161 53.2727 34.3423 53.2727C34.5235 53.2727 34.6443 53.3935 34.6443 53.5747C34.6443 53.7559 34.5235 53.8767 34.3423 53.8767Z" fill="#231F20"/>
<path d="M33.1941 53.8768C33.0129 53.8768 32.8921 53.756 32.8921 53.5748C32.8921 53.3936 33.0129 53.2728 33.1941 53.2728C33.3753 53.2728 33.4961 53.3936 33.4961 53.5748C33.4961 53.756 33.3753 53.8768 33.1941 53.8768Z" fill="#231F20"/>
<path d="M35.3688 65.7161C35.3688 66.6222 34.6439 67.347 33.7379 67.347C32.8318 67.347 32.1069 66.6222 32.1069 65.7161C32.1069 64.8101 32.8318 64.0852 33.7379 64.0852C34.6439 64.1456 35.3688 64.8705 35.3688 65.7161Z" fill="#6E6F72"/>
<path d="M33.4966 66.3201C33.4966 66.5014 33.3758 66.6222 33.1946 66.6222C33.0134 66.6222 32.8926 66.5014 32.8926 66.3201C32.8926 66.1389 33.0134 66.0181 33.1946 66.0181C33.3758 66.0181 33.4966 66.1389 33.4966 66.3201Z" fill="#231F20"/>
<path d="M34.6445 66.3201C34.6445 66.5014 34.5237 66.6222 34.3425 66.6222C34.1613 66.6222 34.0405 66.5014 34.0405 66.3201C34.0405 66.1389 34.1613 66.0181 34.3425 66.0181C34.5237 66.0181 34.6445 66.1389 34.6445 66.3201Z" fill="#231F20"/>
<path d="M34.3425 65.4141C34.1613 65.4141 34.0405 65.2933 34.0405 65.1121C34.0405 64.9309 34.1613 64.8101 34.3425 64.8101C34.5237 64.8101 34.6445 64.9309 34.6445 65.1121C34.6445 65.2933 34.5237 65.4141 34.3425 65.4141Z" fill="#231F20"/>
<path d="M33.1944 65.414C33.0131 65.414 32.8923 65.2932 32.8923 65.112C32.8923 64.9307 33.0131 64.8099 33.1944 64.8099C33.3756 64.8099 33.4964 64.9307 33.4964 65.112C33.4964 65.2932 33.3756 65.414 33.1944 65.414Z" fill="#231F20"/>
<path d="M48.1749 53.5746H56.0879L57.1147 52.5478C57.3564 52.3062 57.4168 51.8833 57.1147 51.5813L53.1885 47.655C52.9468 47.4134 52.524 47.4134 52.222 47.655L47.6917 52.1854C47.45 52.427 47.3896 52.8498 47.6917 53.1518L48.1749 53.5746Z" fill="white"/>
<path d="M54.5779 52.9706L50.8328 49.1652L47.8126 52.1854C47.571 52.427 47.5106 52.8498 47.8126 53.1518L48.2354 53.5747H54.8195C54.7591 53.3331 54.6987 53.1518 54.5779 52.9706Z" fill="#D1D2D4"/>
<path d="M53.8531 52.9707L49.6248 48.7424C49.3228 48.4404 48.9 48.4404 48.5979 48.7424L45.2757 52.0646V53.5747H54.0947C54.0947 53.3331 54.0343 53.1519 53.8531 52.9707Z" fill="white"/>
<path d="M58.4437 51.7626H44.1279V55.6285H58.4437V51.7626Z" fill="#414142"/>
<path fill-rule="evenodd" clip-rule="evenodd" d="M20.5697 2.47246C25.4625 -0.124929 41.1072 -1.0914 47.0268 2.47246C40.8052 11.1707 38.6306 16.1238 38.6306 16.1238L33.7983 13.2848L26.7914 14.7345L20.5697 2.47246Z" fill="#6E6F72"/>
<path d="M47.0266 2.35175C47.0266 2.35175 44.6104 5.73439 40.9862 8.5734C37.9056 10.9896 34.4625 12.6809 33.7981 12.9829C33.1336 12.6809 29.6302 10.9896 26.6099 8.5734C22.9857 5.73439 20.5695 2.35175 20.5695 2.35175C20.5695 2.35175 19.6634 8.39218 20.5695 14.795C21.2944 19.8086 23.5897 27.2383 23.5897 27.2383L33.7981 13.2849L44.0064 27.2383C44.0064 27.2383 46.3018 19.869 47.0266 14.795C47.8723 8.45259 47.0266 2.35175 47.0266 2.35175Z" fill="#F5F5F5"/>
<path d="M47.0265 2.47253C47.0265 2.47253 44.6104 5.85518 40.9861 8.69418C37.9055 11.1104 34.4624 12.8017 33.798 13.1037C33.1335 12.8017 29.6301 11.1104 26.6099 8.69418C22.9856 5.85518 20.5694 2.47253 20.5694 2.47253C20.5694 2.47253 20.207 2.71415 20.2674 6.76125C20.2674 7.5465 26.3683 12.4393 31.9255 15.9427L33.798 13.3453L35.4289 15.5803C40.6237 12.8621 45.8789 9.11701 47.389 7.4861C47.389 3.49941 47.0265 2.47253 47.0265 2.47253Z" fill="#D9D9D9"/>
<path d="M25.0997 7.3048C34.3415 4.5262 42.6773 7.06318 42.6169 7.06318C43.825 6.39874 46.9661 2.47245 46.9661 2.47245C46.9661 2.47245 42.7377 -0.124937 33.1939 0.177085C23.7104 0.479107 20.5089 2.47245 20.5089 2.47245C20.5089 2.47245 23.2271 5.8551 25.0997 7.3048Z" fill="#A7A9AB"/>
<path d="M28.1804 38.4734C30.4758 41.8561 33.5564 48.1381 33.5564 48.1381L38.9324 39.0775L33.6772 51.3396L28.1804 38.4734Z" fill="#961827"/>
</svg>
