<svg width="39" height="43" viewBox="0 0 39 43" fill="none" xmlns="http://www.w3.org/2000/svg">
<g opacity="0.6">
<path d="M17.0176 3.57237C16.8095 3.83063 16.5673 4.13853 16.3206 4.46792C15.9821 4.91983 15.6393 5.4065 15.3645 5.8577C15.0822 6.3211 14.8989 6.70423 14.8416 6.95907L14.8416 6.95908C14.5959 8.05185 14.6499 8.93437 14.9435 9.73009C15.1979 10.4198 15.6447 11.0781 16.2969 11.7722C16.4623 11.6251 16.6699 11.4332 16.8848 11.217C17.1298 10.9706 17.3785 10.6981 17.5835 10.4284C17.7932 10.1526 17.9355 9.90771 17.9961 9.71527C18.1489 9.23009 18.1271 8.69349 18.0243 8.08998C17.973 7.78888 17.9041 7.48367 17.832 7.16454L17.8312 7.16109C17.7604 6.84779 17.6863 6.52027 17.6317 6.19548L17.6316 6.19533C17.5325 5.60541 17.3152 4.71378 17.1183 3.95568C17.0836 3.82231 17.0498 3.6937 17.0176 3.57237Z" fill="#B1B1B1" stroke="#B1B1B1"/>
<path d="M17.8662 31.3867C17.7363 31.1364 17.5822 30.8433 17.4139 30.5304C16.9172 29.6072 16.3115 28.5393 15.8405 27.883L15.8404 27.8829C15.8023 27.8297 15.7647 27.777 15.7276 27.725C15.3278 27.1643 14.981 26.6781 14.4997 26.3592L14.4997 26.3592C14.1185 26.1064 13.6668 25.9549 13.1452 25.8155C13.0266 25.7839 12.9024 25.7524 12.7747 25.7201C12.3663 25.6168 11.9216 25.5042 11.5094 25.3455L17.8662 31.3867ZM17.8662 31.3867C17.6486 31.3628 17.4035 31.3333 17.1449 31.2974C16.2355 31.1712 15.2331 30.9757 14.6482 30.7037L17.8662 31.3867ZM10.9413 25.1103C10.9145 25.3841 10.9064 25.6406 10.9329 25.7889L10.4407 25.877L10.9329 25.7889C11.1178 26.8221 11.558 27.8573 12.2119 28.7121L12.2121 28.7123C12.8456 29.5412 13.6997 30.2621 14.648 30.7036L10.9413 25.1103ZM10.9413 25.1103C11.1393 25.1955 11.3512 25.2845 11.5094 25.3455L10.9413 25.1103Z" fill="#B1B1B1" stroke="#B1B1B1"/>
<path d="M22.9717 23.2192L22.9717 23.2192C22.6838 24.1611 22.1498 25.0555 21.426 25.7105L21.7594 26.079L21.426 25.7105C20.9816 26.1126 20.1113 26.5559 19.2928 26.9131C19.0329 27.0265 18.786 27.128 18.5713 27.2132C18.6022 26.927 18.6413 26.5826 18.6877 26.2116C18.8134 25.2049 18.9881 24.0365 19.1882 23.295C19.1882 23.295 19.1882 23.2949 19.1882 23.2949L22.9717 23.2192ZM22.9717 23.2192C23.2686 22.2481 23.3004 21.1569 23.0885 20.1268M22.9717 23.2192L22.7908 19.4141M22.7908 19.4141C22.631 19.5498 22.4568 19.6949 22.3249 19.7974L22.3249 19.7974C21.9891 20.0584 21.6034 20.2841 21.2535 20.4888C21.1451 20.5523 21.0401 20.6137 20.941 20.6736C20.4979 20.9415 20.1353 21.1974 19.877 21.5251L22.7908 19.4141ZM22.7908 19.4141C22.9344 19.6912 23.0551 19.9645 23.0885 20.1268M23.0885 20.1268L23.5782 20.0261M23.0885 20.1268L23.5782 20.0261M23.5782 20.0261C23.5234 19.7597 23.3384 19.3762 23.1797 19.0795L18.5136 27.7727C19.3602 27.4466 21.0156 26.7561 21.7615 26.0812C22.5598 25.3588 23.1387 24.3833 23.4499 23.3653C23.7734 22.3069 23.8053 21.1303 23.5782 20.0261Z" fill="#B1B1B1" stroke="#B1B1B1"/>
<path d="M20.7363 15.8677L20.7363 15.8677C20.2426 16.4518 19.2636 17.1794 18.3602 17.7833C18.0674 17.979 17.789 18.1575 17.5475 18.3088C17.5642 18.0643 17.5851 17.7852 17.6111 17.4886C17.6969 16.5103 17.8337 15.3865 18.0349 14.6817C18.3171 13.6938 18.7283 12.7385 19.3182 11.922C19.5408 11.6138 19.8424 11.3506 20.2011 11.0547C20.2357 11.0262 20.2709 10.9973 20.3065 10.9681C20.6253 10.7064 20.9848 10.4114 21.2836 10.0643M20.7363 15.8677L20.8904 9.75981M20.7363 15.8677C21.5362 14.9213 22.2073 13.8722 22.2834 12.7977L22.2834 12.7977C22.3021 12.5337 22.2486 12.176 22.1366 11.7615C22.0266 11.3544 21.8695 10.925 21.706 10.5291C21.6103 10.2975 21.5135 10.0798 21.4244 9.88767M20.7363 15.8677L21.7613 9.40385C21.7457 9.42749 21.7294 9.45202 21.7126 9.47718C21.6296 9.60167 21.5259 9.75288 21.4244 9.88767M21.2836 10.0643L20.8904 9.75981M21.2836 10.0643C21.2836 10.0643 21.2835 10.0643 21.2835 10.0643L20.8904 9.75981M21.2836 10.0643C21.3284 10.0122 21.3762 9.9518 21.4244 9.88767M20.8904 9.75981C20.9754 9.6611 21.0794 9.51813 21.1773 9.37635C21.1997 9.42071 21.2243 9.47006 21.2507 9.52385C21.3027 9.62966 21.3617 9.75231 21.4244 9.88767M17.0143 18.6362C16.9926 18.9967 16.9835 19.2231 16.9835 19.2231L17.0143 18.6362Z" fill="#B1B1B1" stroke="#B1B1B1"/>
<path d="M11.9084 20.0393L11.9085 20.0395C12.6161 20.6008 13.8686 21.2327 14.9863 21.7366C15.3442 21.8979 15.6824 22.0436 15.9759 22.1667C15.9003 21.9562 15.8152 21.7238 15.7233 21.4797C15.3637 20.5249 14.9137 19.4285 14.5233 18.7576C14.0835 18.0018 13.5506 17.2907 12.9183 16.7025C12.547 16.3608 12.1044 16.0903 11.6103 15.805C11.5539 15.7725 11.4967 15.7396 11.4388 15.7064C11.004 15.4569 10.5331 15.1866 10.1075 14.8564L10.1068 14.8559C10.0554 14.816 9.99901 14.7692 9.94055 14.7191C9.91356 14.9101 9.88692 15.1218 9.86428 15.3443C9.82112 15.7685 9.7933 16.225 9.8037 16.6506C9.81426 17.0829 9.86379 17.4515 9.95726 17.7158C10.2678 18.5939 11.0477 19.357 11.9084 20.0393Z" fill="#B1B1B1" stroke="#B1B1B1"/>
<path d="M22.8594 35.5262L22.8594 35.5262C23.1224 35.6864 23.5071 35.6838 24.0047 35.4867C24.4896 35.2946 24.977 34.9555 25.3362 34.6347C26.0078 34.0347 26.3408 33.0197 26.3836 32.0274L26.8814 32.0489L26.3836 32.0274C26.4381 30.7633 26.1448 29.834 25.4688 28.83C25.331 28.9967 25.1607 29.1805 24.9897 29.3008L24.9896 29.3008C23.4824 30.3607 22.4697 31.2738 22.1074 32.648L22.1074 32.648C21.9802 33.1303 21.9723 33.7514 22.1098 34.3154C22.2492 34.8866 22.5156 35.3168 22.8594 35.5262Z" fill="#B1B1B1" stroke="#B1B1B1"/>
<path d="M26.5605 40.7629C25.0201 38.7476 19.0932 33.5481 18.077 29.1339C17.3731 26.0767 15.938 17.9815 16.5093 11.5473" stroke="#B1B1B1" stroke-linecap="round"/>
</g>
</svg>
