<?xml version="1.0" encoding="utf-8"?>
<!-- Generator: Adobe Illustrator 25.4.1, SVG Export Plug-In . SVG Version: 6.00 Build 0)  -->
<svg version="1.1" xmlns="http://www.w3.org/2000/svg" xmlns:xlink="http://www.w3.org/1999/xlink" x="0px" y="0px"
	 viewBox="0 0 231 209.4" style="enable-background:new 0 0 231 209.4;" xml:space="preserve">
<style type="text/css">
	.st0{display:none;}
	.st1{display:inline;fill-rule:evenodd;clip-rule:evenodd;fill:#61A6B5;}
	.st2{display:inline;fill-rule:evenodd;clip-rule:evenodd;fill:#FFFFFF;}
	.st3{display:inline;fill:#9C0F14;}
	.st4{display:inline;fill-rule:evenodd;clip-rule:evenodd;fill:#FEFEFE;}
	.st5{fill-rule:evenodd;clip-rule:evenodd;fill:#D3F2F7;}
	.st6{fill-rule:evenodd;clip-rule:evenodd;fill:#A4CAD8;}
	.st7{fill-rule:evenodd;clip-rule:evenodd;fill:#FEFEFE;}
	.st8{fill-rule:evenodd;clip-rule:evenodd;fill:#C6E4E9;}
	.st9{fill-rule:evenodd;clip-rule:evenodd;fill:#61A6B5;}
	.st10{fill-rule:evenodd;clip-rule:evenodd;fill:#72C0CF;}
	.st11{fill:#8C6521;}
	.st12{fill:#BE983D;}
	.st13{fill:#FEFEFE;}
	.st14{fill:#57636A;}
	.st15{fill:#B6C0CE;}
	.st16{fill:none;stroke:#586E76;stroke-width:1.4173;stroke-linecap:round;stroke-linejoin:round;stroke-miterlimit:22.9256;}
	.st17{fill-rule:evenodd;clip-rule:evenodd;fill:#6D0000;}
	.st18{fill-rule:evenodd;clip-rule:evenodd;fill:#B32025;}
	.st19{fill-rule:evenodd;clip-rule:evenodd;fill:#9C0F14;}
	.st20{fill-rule:evenodd;clip-rule:evenodd;fill:#F2CF9F;}
	.st21{fill-rule:evenodd;clip-rule:evenodd;fill:#E5A772;}
	.st22{fill-rule:evenodd;clip-rule:evenodd;fill:#C88D5B;}
	.st23{fill-rule:evenodd;clip-rule:evenodd;fill:#7B0000;}
	.st24{fill-rule:evenodd;clip-rule:evenodd;fill:#7E7C70;}
	.st25{fill-rule:evenodd;clip-rule:evenodd;fill:#686660;}
	.st26{fill:none;stroke:#2E2E2D;stroke-width:0.5;stroke-miterlimit:22.9256;}
	.st27{fill-rule:evenodd;clip-rule:evenodd;fill:#414141;}
	.st28{fill-rule:evenodd;clip-rule:evenodd;fill:#DC824A;}
	
		.st29{fill-rule:evenodd;clip-rule:evenodd;fill:none;stroke:#586E76;stroke-width:1.206;stroke-linecap:round;stroke-linejoin:round;stroke-miterlimit:22.9256;}
	.st30{display:inline;}
	.st31{fill:#444444;}
	.st32{fill:#9CBECC;}
	.st33{fill:#6D0000;}
	.st34{fill-rule:evenodd;clip-rule:evenodd;fill:#FFFFFF;}
	.st35{fill-rule:evenodd;clip-rule:evenodd;fill:#7C7B70;}
	.st36{fill-rule:evenodd;clip-rule:evenodd;fill:#676660;}
	.st37{fill:none;stroke:#323231;stroke-width:0.5;stroke-miterlimit:22.926;}
	.st38{fill-rule:evenodd;clip-rule:evenodd;fill:#434343;}
</style>
<g id="Layer_2" class="st0">
	<path class="st1" d="M111.6,27.4c42.7,0,77.4,34.6,77.4,77.4c0,42.7-34.6,77.4-77.4,77.4s-77.4-34.6-77.4-77.4
		C34.2,62,68.8,27.4,111.6,27.4"/>
	<path class="st2" d="M111.6,19.7c42.7,0,77.4,34.6,77.4,77.4s-34.6,77.4-77.4,77.4s-77.4-34.6-77.4-77.4S68.8,19.7,111.6,19.7"/>
	<path class="st3" d="M73.8,57.9l0.4,0.6c-1.7,1.3-3.5,3.2-5.6,5.8c-2,2.6-3.6,5.1-4.7,7.3l-0.9,0.6c-0.7,0.5-1.2,0.9-1.5,1.1
		c-0.1-0.4-0.3-1-0.7-1.8l-0.3-0.8c-0.5-1.1-0.9-1.9-1.3-2.4c-0.4-0.5-0.9-0.9-1.4-1c0.8-0.9,1.6-1.3,2.3-1.3c0.6,0,1.3,0.8,2,2.4
		l0.4,0.8c1.3-2.2,3-4.4,5.1-6.5C69.8,60.6,71.8,59,73.8,57.9"/>
	<path class="st3" d="M73.8,106.7l0.4,0.6c-1.7,1.3-3.5,3.2-5.6,5.8c-2,2.6-3.6,5.1-4.7,7.3l-0.9,0.6c-0.7,0.5-1.2,0.9-1.5,1.1
		c-0.1-0.4-0.3-1-0.7-1.8l-0.3-0.8c-0.5-1.1-0.9-1.9-1.3-2.4c-0.4-0.5-0.9-0.9-1.4-1c0.8-0.9,1.6-1.3,2.3-1.3c0.6,0,1.3,0.8,2,2.4
		l0.4,0.8c1.3-2.2,3-4.4,5.1-6.5C69.8,109.4,71.8,107.8,73.8,106.7"/>
</g>
<g id="Layer_1">
	<line class="st16" x1="85" y1="120.2" x2="157.4" y2="120.2"/>
	<line class="st16" x1="85" y1="128.7" x2="157.4" y2="128.7"/>
	<line class="st16" x1="85" y1="137.2" x2="157.4" y2="137.2"/>
	<line class="st16" x1="85" y1="69.2" x2="157.4" y2="69.2"/>
	<line class="st16" x1="85" y1="77.7" x2="157.4" y2="77.7"/>
	<line class="st16" x1="85" y1="86.2" x2="157.4" y2="86.2"/>
	<line class="st16" x1="85" y1="94.7" x2="157.4" y2="94.7"/>
	<line class="st16" x1="85" y1="103.2" x2="157.4" y2="103.2"/>
	<line class="st16" x1="85" y1="111.7" x2="157.4" y2="111.7"/>
	<polygon class="st17" points="140,51 142.8,54.3 94.1,97 89.6,95.2 	"/>
	<polygon class="st18" points="85.3,86.9 134,44.2 136.8,47.5 86.5,91.6 	"/>
	<rect x="79.7" y="69" transform="matrix(0.7515 -0.6597 0.6597 0.7515 -18.924 92.4175)" class="st19" width="67" height="4.7"/>
	<path class="st20" d="M134,44.3c1.1-1,4,0.5,6.4,3.2c2.4,2.8,3.5,5.8,2.4,6.7c-1.1,1-4-0.5-6.4-3.2C134,48.3,132.9,45.3,134,44.3"
		/>
	<path class="st21" d="M76.6,102.9L85,87.4c0.1-0.2,0.3-0.5,0.5-0.7c1.1,4.4,3.8,7.9,8.8,10.1c-0.3,0.2-0.5,0.3-0.8,0.4l-16.4,6.4
		C76.5,103.9,76.2,103.5,76.6,102.9"/>
	<path class="st22" d="M76.6,102.9L76.6,102.9c0.1,0-0.9-0.7,0.2,0c1.1,0.8,13.6-8.5,13.6-8.5l0.7,0.6c0.9,0.7,2,1.3,3.2,1.8
		c-0.3,0.2-0.5,0.3-0.8,0.4l-16.4,6.4C76.5,103.9,76.2,103.5,76.6,102.9"/>
	<path class="st19" d="M76.6,102.9l2.9-5.3l3.3,3.8l-5.6,2.2C76.5,103.9,76.2,103.5,76.6,102.9"/>
	<path class="st23" d="M81.9,100.4l0.9,1l-5.6,2.2c-0.7,0.3-1,0-0.6-0.7l0,0c0.1,0,0.2,0,0.2,0.1C77.3,103.1,79.4,101.9,81.9,100.4"
		/>
	<path class="st19" d="M136.6,47.1c0.5-0.4,1.7,0.2,2.7,1.4c1,1.2,1.5,2.5,1,2.9c-0.5,0.4-1.7-0.2-2.7-1.4
		C136.6,48.8,136.1,47.5,136.6,47.1"/>
	<path class="st29" d="M73,76.9H56.8c-1.6,0-2.9-1.3-2.9-2.9V57.7c0-1.6,1.3-2.9,2.9-2.9H73c1.6,0,2.9,1.3,2.9,2.9V74
		C75.9,75.6,74.6,76.9,73,76.9z"/>
	<path class="st29" d="M73,126.3H56.8c-1.6,0-2.9-1.3-2.9-2.9v-16.3c0-1.6,1.3-2.9,2.9-2.9H73c1.6,0,2.9,1.3,2.9,2.9v16.3
		C75.9,125,74.6,126.3,73,126.3z"/>
</g>
<g id="Layer_3" class="st0">
</g>
</svg>
