<?xml version="1.0" encoding="utf-8"?>
<!-- Generator: Adobe Illustrator 25.4.1, SVG Export Plug-In . SVG Version: 6.00 Build 0)  -->
<svg version="1.1" xmlns="http://www.w3.org/2000/svg" xmlns:xlink="http://www.w3.org/1999/xlink" x="0px" y="0px"
	 viewBox="0 0 231 209.4" style="enable-background:new 0 0 231 209.4;" xml:space="preserve">
<style type="text/css">
	.st0{display:none;}
	.st1{display:inline;fill-rule:evenodd;clip-rule:evenodd;fill:#61A6B5;}
	.st2{display:inline;fill-rule:evenodd;clip-rule:evenodd;fill:#FFFFFF;}
	.st3{display:inline;fill:#9C0F14;}
	.st4{display:inline;fill-rule:evenodd;clip-rule:evenodd;fill:#FEFEFE;}
	.st5{fill-rule:evenodd;clip-rule:evenodd;fill:#D3F2F7;}
	.st6{fill-rule:evenodd;clip-rule:evenodd;fill:#A4CAD8;}
	.st7{fill-rule:evenodd;clip-rule:evenodd;fill:#FEFEFE;}
	.st8{fill-rule:evenodd;clip-rule:evenodd;fill:#C6E4E9;}
	.st9{fill-rule:evenodd;clip-rule:evenodd;fill:#61A6B5;}
	.st10{fill-rule:evenodd;clip-rule:evenodd;fill:#72C0CF;}
	.st11{fill:#8C6521;}
	.st12{fill:#BE983D;}
	.st13{fill:#FEFEFE;}
	.st14{fill:#57636A;}
	.st15{fill:#B6C0CE;}
	.st16{fill:none;stroke:#586E76;stroke-width:1.4173;stroke-linecap:round;stroke-linejoin:round;stroke-miterlimit:22.9256;}
	.st17{fill-rule:evenodd;clip-rule:evenodd;fill:#6D0000;}
	.st18{fill-rule:evenodd;clip-rule:evenodd;fill:#B32025;}
	.st19{fill-rule:evenodd;clip-rule:evenodd;fill:#9C0F14;}
	.st20{fill-rule:evenodd;clip-rule:evenodd;fill:#F2CF9F;}
	.st21{fill-rule:evenodd;clip-rule:evenodd;fill:#E5A772;}
	.st22{fill-rule:evenodd;clip-rule:evenodd;fill:#C88D5B;}
	.st23{fill-rule:evenodd;clip-rule:evenodd;fill:#7B0000;}
	.st24{fill-rule:evenodd;clip-rule:evenodd;fill:#7E7C70;}
	.st25{fill-rule:evenodd;clip-rule:evenodd;fill:#686660;}
	.st26{fill:none;stroke:#2E2E2D;stroke-width:0.5;stroke-miterlimit:22.9256;}
	.st27{fill-rule:evenodd;clip-rule:evenodd;fill:#414141;}
	.st28{fill-rule:evenodd;clip-rule:evenodd;fill:#DC824A;}
	
		.st29{fill-rule:evenodd;clip-rule:evenodd;fill:none;stroke:#586E76;stroke-width:1.206;stroke-linecap:round;stroke-linejoin:round;stroke-miterlimit:22.9256;}
	.st30{display:inline;}
	.st31{fill:#444444;}
	.st32{fill:#9CBECC;}
	.st33{fill:#6D0000;}
	.st34{fill-rule:evenodd;clip-rule:evenodd;fill:#FFFFFF;}
	.st35{fill-rule:evenodd;clip-rule:evenodd;fill:#7C7B70;}
	.st36{fill-rule:evenodd;clip-rule:evenodd;fill:#676660;}
	.st37{fill:none;stroke:#323231;stroke-width:0.5;stroke-miterlimit:22.926;}
	.st38{fill-rule:evenodd;clip-rule:evenodd;fill:#434343;}
</style>
<g id="Layer_2" class="st0">
	<path class="st1" d="M115.4,27.4c42.7,0,77.4,34.6,77.4,77.4c0,42.7-34.6,77.4-77.4,77.4S38,147.5,38,104.8
		C38,62,72.7,27.4,115.4,27.4"/>
	<path class="st4" d="M115.4,19.7c42.7,0,77.4,34.6,77.4,77.4s-34.6,77.4-77.4,77.4S38,139.8,38,97.1S72.7,19.7,115.4,19.7"/>
</g>
<g id="Layer_1">
	<path class="st24" d="M60.8,104.9c0,0-2.9,3.8,0.9,7.6c3.8,3.8,7.9,5.2,7.9,5.2s6,1.4,6.8-2.2c0.8-3.5,1.9-6.5,4.1-6
		c2.2,0.5,6.3,4.9,6.3,4.9s4.9,4.6,7.1-1.1c2.2-5.7-12.8-15.2-12.8-15.2l-10.3,10.3L60.8,104.9z"/>
	<path class="st25" d="M78.1,110.7c0.6-1,1.4-1.5,2.4-1.2c0.4,0.1,0.8,0.3,1.2,0.6l-0.1-5.8c0,0-4.6,0.2-5.3,2.6L78.1,110.7z"/>
	<path class="st26" d="M118.9,77.1c1.3,1.2,1.6,2.6-0.3,4.4 M118.9,81.8c0,0-4.3,6.8-7.3,9c-3,2.2-3.8,0.5-5.7-1.9
		c-1.9-2.4-0.5-2.4-2.4-4.9c-0.4-0.5-0.9-0.8-1.4-1.1"/>
	<path class="st24" d="M74,66.3c0,0-0.8,1.9,1.1,3c1.9,1.1,4.3-0.5,6.8,1.1s1.6,6.8,0.3,8.7C80.8,81,92.5,68.7,92.5,68.7L86,60.8
		L74,66.3z"/>
	<path class="st27" d="M107.7,68.5c0,0-1.2,6.8,2.7,5.7c-1-1.9-1.5-2.9-0.3-5.2c1.5-2.9,10-1.8,8.2-8.9
		C117.8,57.9,102.3,62.2,107.7,68.5"/>
	<path class="st26" d="M118.2,76.6c1.8,1.2,2.6,2.8,0.4,4.9 M118.9,81.8c0,0-4.3,6.8-7.3,9c-3,2.2-3.8,0.5-5.7-1.9
		c-1.9-2.4-0.5-2.4-2.4-4.9c-0.8-1-1.8-1.3-2.8-1.3"/>
	<path class="st24" d="M57.5,89.1c0,0-0.7,3.6,0.9,5.9c1.6,2.4,11.5,3.6,10.3,7.5c-1.2,3.9,9.1-11.5,9.1-11.5S66.6,87.1,57.5,89.1"
		/>
	<path class="st20" d="M118.7,81.6c0.1,0.1-4.2,6.9-7.2,9.1c-5,3.6-6.8-4-8.2-6.8c-1.8-3.6-5.7-0.8-5.7-0.8s-6.3,6.8-7.6,9.5
		c-1.4,2.7,1,5.1,2.9,6.3c1.8,1.1,3.6-0.5,6.9-0.5s2.1,3.9,2.1,3.9s-4.8,7.8-6.7,9.9c-5.3,6-9.3-4.1-14.6-4.8
		c-3.8-0.5-4.6,3-5.4,4.3c-0.8,1.4-0.8,5.2-4.6,4.3c-3.8-0.8-7.9-4.1-10.1-6.8c-2.2-2.7,0.8-5.4,3.3-5.4c3.7,0,8.9-3.5,2.7-7.6
		c-1.6-1.1-5.2-1.9-7.6-4.1c-2.4-2.2-0.5-4.3-0.5-4.3s5.7-8.7,7.9-10.6c2.2-1.9,4.1-0.3,4.1-0.3s-0.8,3,4.1,3.8
		c7.4,1.2,12.8-7.6,8.4-12c-1.9-1.9-8.4-1.4-8.4-1.4s-1.6-0.5,1.4-4.1c3-3.5,5.7-6.3,5.7-6.3s3.3-4.9,6.3-2.4c3,2.4,2.8,3.2,6,5.4
		c3.1,2.1,8.7,2.9,10.2-2.5c0.9-3.1-0.2-6.1,4.7-5.7c9,0.8,14,11.9,4.9,12.8c-6,0.5-7.8,6.8-2.2,9C114.8,75,123.2,77.2,118.7,81.6"
		/>
	<path class="st28" d="M58.7,87c1.4-2.2,5.6-8.3,7.4-9.8c2.2-1.9,4.1-0.3,4.1-0.3s-0.8,3,4.1,3.8c7.4,1.2,12.8-7.6,8.4-12
		c-1.9-1.9-8.4-1.4-8.4-1.4s-1.6-0.5,1.4-4.1c3-3.5,5.7-6.3,5.7-6.3s3.3-4.9,6.3-2.4c3,2.4,2.8,3.2,6,5.4c1,0.7,2.2,1.2,3.5,1.5
		C100.2,83.4,77.5,93,58.7,87"/>
	<path class="st27" d="M119.8,83.3c0.4-0.4-4.6,6.3-7.6,8.4c-5,3.6-7.6-5.3-9.5-7.7c-1.9-2.4-4.2,0.2-4.2,0.2s-7.6,8.6-8.2,11
		c-0.8,2.9-2.9-2.9,6.1-11.6c1.8-1.7,4.1-3,6-1.5c0.9,0.7,1.7,2.5,2,3.5c1.3,4.2,4.3,6.4,7.7,3c1.2-1.2,6.2-7.8,6.6-8.8
		c0.3-0.8,1-2.1,0.2-2.5C120.6,78,121.6,81.5,119.8,83.3"/>
	<path class="st27" d="M102.1,100.1c0.3,0.8,0.1,2,0.1,2c-2.4,5.3-5.2,8.2-8.8,12.4c-0.5,0.6-1,1.2-1.4,1.3
		c-0.1-0.2,0.3-1.4,0.2-1.8c0.9-0.5,1.7-1.4,3-2.9C97,108.9,101.6,103,102.1,100.1"/>
	<path class="st27" d="M93.4,99.3c-2.9-0.4-5.3-3.5-3.5-7.5c0.4-0.8,5-7.4,2.4-2.7c-2.3,4.2-3.9,9.8,3.1,9.6l0,0
		c3.6-0.7,7.6-2.1,6.9,3l-0.4-0.3c0,0,0.3-1,0.1-1.6c-0.3-1.1-1.1-1.4-2.1-1.4C97.1,98.9,95.2,99.6,93.4,99.3"/>
	<path class="st27" d="M111.7,111.2c1.7,1,2.9,1.4,3.5,1.6c0.2,0,0.3,0.1,0.3,0.1s1.5,0.5,3.5-1.1c1.9-1.6,5-3.7,5.8-2.4
		c0.8,1.4,1-1.6,1-1.6l-2-3.9l-5.9,0.8l-2.6,2.9L111.7,111.2z"/>
	<g>
		<path class="st25" d="M122.7,124.3c0,0-1.6,3.5,2.1,4.7c2.8,0.9,14.9,5.1,16.7-0.2c0.2-0.7,0,0-1.6-3.2c-1.6-3.2-1.4-5.7,2.3-8.2
			c3.6-2.4,6.8-0.4,7.8,0.9c1,1.3,3.4,1.3,3.4,1.3l-14.4-15.3l-10.6,15.7L122.7,124.3z"/>
		<path class="st24" d="M141.2,129.3c0.1-0.2,0.2-0.3,0.2-0.5c0.2-0.7,0,0-1.6-3.2c-3.8-7.6,6.3-12.3,10.1-7.2
			c1,1.3,3.4,1.3,3.4,1.3l-14.4-15.3l-7.8,11.6c0.3,4.1,1.6,8,4.9,10.3L141.2,129.3z"/>
		<path class="st24" d="M123.5,128.3c0.3,0.3,0.7,0.5,1.3,0.6c2.3,0.8,10.9,3.7,14.8,1.8l-4.5-3.1l-10.5-2L123.5,128.3z"/>
		<path class="st24" d="M146.3,128.2c0,0-2.7,3.8,0.9,5.3c3.5,1.6,12.6,2.1,12.6,2.1s5.4-1.5,6.2-5.9l6.4-34c0.4-2-0.1-3.3-0.5-4
			c-1.2-2.3-3.1-5.9-6.5-6.6C160.2,84.2,165.1,127.5,146.3,128.2"/>
		<path class="st24" d="M146.3,128.2c0,0-2.7,3.8,0.9,5.3c3.5,1.6,13.1,1.9,13.1,1.9s1.7-0.4,3.5-1.9l-5.3-5.8l-6.6-1.3
			C150.3,127.5,148.4,128.1,146.3,128.2"/>
		<path class="st25" d="M160.8,135.3c1.3-0.5,3.6-1.7,4.7-3.9l-7.4-6.4c0,0-1.8,3.7-0.7,5.8L160.8,135.3z"/>
		<path class="st27" d="M141,127.7l-4-1.2c0,0-5-6.6-2.6-10.2c1.4-2.1,7.5-3.2,12.2-3.7l6.7,7.1l0,0.1c-0.4,0-2.4-0.1-3.3-1.3
			c-3.6-4.7-13.7-0.1-10.1,7.2C140.4,126.7,140.7,127.3,141,127.7"/>
		<path class="st20" d="M122.8,123.6c0.3-1.2,5.3-19.4-1.8-15.9c-1,0.5-3,3-5.3,3.8c-2.8,1-5.8,0-6-4.5c-0.1-3.7,0.7-11.2,4-13.3
			c4.4-2.8,5.3,1.3,8.4,2.8c2.8,1.3,4.3,2.4,6-0.9c2.9-5.7,0.1-14.9,8.1-15.3c4.7-0.3,27.9,3.9,27.9,3.9s7,1.7,6.7,8.9
			c-0.3,7.2-7.3,34.8-7.3,34.8s-0.5,3.9-5.2,4.8c-4.7,0.9-11.5-1-11.5-1s-2.9-1,0.1-4c3-3,4.6-5.4,4.1-7.6c-0.5-2.2-3.1-6.5-8.3-5.6
			c-4.3,0.8-7.4,5.9-6.2,10c0.6,2,1.7,2.8-0.2,4c-2.6,1.6-9.3-0.2-12.3-1C124,127.5,122.1,126.1,122.8,123.6"/>
		<path class="st10" d="M143.3,80.9c6.5,0.8,15.1,2.3,18.9,3c5.2,2.5,3.5,6.3-2.8,4.5c2.9,6.3-1.3,8.4-4.6,2.3
			c-2.4,6.5-6.9,5.1-4.9-1.6c-6.3,2.9-8.4-1.3-2.3-4.6C144.8,83.4,143.4,82,143.3,80.9"/>
		<path class="st19" d="M153.6,104.9c-1.6-3.5,0.7-4.7,2.6-1.3c1.4-3.6,3.8-2.8,2.8,0.9c3.5-1.6,4.7,0.7,1.3,2.6
			c3.6,1.4,2.8,3.8-0.9,2.8c1.6,3.5-0.7,4.7-2.6,1.3c-1.4,3.6-3.8,2.8-2.8-0.9c-3.5,1.6-4.7-0.7-1.3-2.6
			C149,106.3,149.8,103.8,153.6,104.9"/>
	</g>
</g>
<g id="Layer_3" class="st0">
	<g class="st30">
		<path class="st9" d="M115.6,28c42.7,0,77.4,34.6,77.4,77.4s-34.6,77.4-77.4,77.4s-77.4-34.6-77.4-77.4S72.8,28,115.6,28"/>
		<path class="st34" d="M115.6,20.4c42.7,0,77.4,34.6,77.4,77.4s-34.6,77.4-77.4,77.4s-77.4-34.6-77.4-77.4S72.8,20.4,115.6,20.4"/>
		<path class="st35" d="M69.7,108.1c0,0-2.9,3.8,0.9,7.6s7.9,5.2,7.9,5.2s6,1.4,6.8-2.2c0.8-3.5,1.9-6.5,4.1-6
			c2.2,0.5,6.3,4.9,6.3,4.9s4.9,4.6,7.1-1.1c2.2-5.7-12.8-15.2-12.8-15.2l-10.3,10.3L69.7,108.1z"/>
		<path class="st36" d="M87,114c0.6-1,1.4-1.5,2.4-1.2c0.4,0.1,0.8,0.3,1.2,0.6l-0.1-5.8c0,0-4.6,0.2-5.3,2.6L87,114z"/>
		<path class="st37" d="M127.8,80.4c1.3,1.1,1.6,2.6-0.3,4.4 M127.7,85c0,0-4.3,6.8-7.3,9c-3,2.2-3.8,0.5-5.7-1.9
			c-1.9-2.4-0.5-2.4-2.4-4.9c-0.4-0.5-0.9-0.8-1.4-1.1"/>
		<path class="st36" d="M102.7,117.1c0,0-3,2.4-0.3,5.2c2.1,2.1,11,11.3,14.9,7.3c0.5-0.5,0,0,0-3.5c0-3.5,1.4-5.7,5.7-6.3
			c4.3-0.5,6.3,2.7,6.5,4.3c0.3,1.6,2.4,2.7,2.4,2.7l-6-20.1l-16.6,9.2L102.7,117.1z"/>
		<path class="st35" d="M117,129.9c0.1-0.1,0.3-0.2,0.4-0.4c0.5-0.5,0,0,0-3.5c0-8.5,11.2-8.1,12.2-1.9c0.3,1.6,2.4,2.7,2.4,2.7
			l-6-20.1l-12.2,6.8c-1.6,3.8-2.2,7.8-0.3,11.4L117,129.9z"/>
		<path class="st35" d="M101.6,121.1c0.2,0.4,0.5,0.8,0.8,1.2c1.7,1.7,8.1,8.2,12.4,8.3l-2.7-4.8l-8.4-6.5L101.6,121.1z"/>
		<path class="st35" d="M122,131.2c0,0-4.1,2.2-1.6,5.2c2.4,3,10.3,7.6,10.3,7.6s5.4,1.1,8.2-2.4l21-27.5c1.2-1.6,1.4-3,1.4-3.8
			c0-2.6-0.1-6.7-2.8-8.8C154.3,98.2,139.2,139.1,122,131.2"/>
		<path class="st35" d="M122,131.2c0,0-4.1,2.2-1.6,5.2c2.4,3,10.8,7.6,10.8,7.6s1.7,0.4,4-0.1l-2.1-7.6l-5.3-4.1
			C125.9,132.4,124,132.1,122,131.2"/>
		<path class="st36" d="M131.8,144.1c1.4,0.1,4,0,5.9-1.4l-3.7-9c0,0-3.3,2.4-3.3,4.9L131.8,144.1z"/>
		<path class="st35" d="M82.9,69.5c0,0-0.8,1.9,1.1,3c1.9,1.1,4.3-0.5,6.8,1.1s1.6,6.8,0.3,8.7C89.7,84.2,101.4,72,101.4,72
			l-6.5-7.9L82.9,69.5z"/>
		<path class="st38" d="M116.6,71.7c0,0-1.2,6.8,2.7,5.7c-1-1.9-1.5-2.9-0.3-5.2c1.5-2.9,10-1.8,8.2-8.9
			C126.7,61.1,111.2,65.4,116.6,71.7"/>
		<path class="st37" d="M127.1,79.8c1.8,1.2,2.6,2.8,0.4,4.9 M127.7,85c0,0-4.3,6.8-7.3,9c-3,2.2-3.8,0.5-5.7-1.9
			c-1.9-2.4-0.5-2.4-2.4-4.9c-0.8-1-1.8-1.3-2.8-1.3"/>
		<path class="st35" d="M66.4,92.3c0,0-0.7,3.6,0.9,5.9c1.6,2.4,11.5,3.6,10.3,7.5c-1.2,3.9,9.1-11.5,9.1-11.5S75.5,90.4,66.4,92.3"
			/>
		<path class="st20" d="M127.6,84.9c0.1,0.1-4.2,6.9-7.2,9.1c-5,3.6-6.3-4.4-8.2-6.8c-1.9-2.4-5.7-0.8-5.7-0.8s-6.3,6.8-7.6,9.5
			c-1.4,2.7,1.3,4.9,2.9,6.3c1.6,1.4,3.6-0.5,6.9-0.5c3.3,0,2.4,4.3,2.4,4.3s-5.2,7.3-7.1,9.5c-5.3,6-9.3-4.1-14.6-4.8
			c-3.8-0.5-4.6,3-5.4,4.3c-0.8,1.4-0.8,5.2-4.6,4.3c-3.8-0.8-7.9-4.1-10.1-6.8c-2.2-2.7,0.8-5.4,3.3-5.4c3.7,0,8.9-3.5,2.7-7.6
			c-1.6-1.1-5.2-1.9-7.6-4.1c-2.4-2.2-0.5-4.3-0.5-4.3s5.7-8.7,7.9-10.6c2.2-1.9,4.1-0.3,4.1-0.3s-0.8,3,4.1,3.8
			c7.4,1.2,12.8-7.6,8.4-12c-1.9-1.9-8.4-1.4-8.4-1.4s-1.6-0.5,1.4-4.1c3-3.5,5.7-6.3,5.7-6.3s3.3-4.9,6.3-2.4s2.8,3.2,6,5.4
			c3.1,2.1,8.7,2.9,10.2-2.5c0.9-3.1-0.2-6.1,4.7-5.7c9,0.8,14,11.9,4.9,12.8c-6,0.5-7.8,6.8-2.2,9
			C123.7,78.2,132.1,80.4,127.6,84.9"/>
		<path class="st28" d="M67.6,90.2c1.4-2.1,5.6-8.3,7.4-9.8c2.2-1.9,4.1-0.3,4.1-0.3s-0.8,3,4.1,3.8c7.4,1.2,12.8-7.6,8.4-12
			c-1.9-1.9-8.4-1.4-8.4-1.4s-1.6-0.5,1.4-4.1c3-3.5,5.7-6.3,5.7-6.3s3.3-4.9,6.3-2.4c3,2.4,2.8,3.2,6,5.4c1,0.7,2.2,1.2,3.5,1.5
			C109.1,86.6,86.4,96.3,67.6,90.2"/>
		<path class="st38" d="M128.4,85.9c0.1,0.1-5,5.9-7.9,8.1c-5,3.6-6.3-4.4-8.2-6.8c-1.9-2.4-5.2-0.1-5.2-0.1s-7.4,7.4-8.1,8.8
			c-1.3,2.7,0.7-4.7,6.3-9.2c2.1-1.3,3.9-2,6-1.2c2.1,0.8,1.9,2.4,2.2,3.4c1.3,4.2,4.3,6.4,7.7,3c1.2-1.2,6.2-7.8,6.6-8.8
			c0.3-0.8,0.4-1.7,0.2-2.5C129.1,81.6,130.2,84.1,128.4,85.9"/>
		<path class="st38" d="M111,103.3c0.3,0.8,0.1,2,0.1,2c-2.4,5.3-5.2,8.2-8.8,12.4c-0.5,0.6-1,1.2-1.4,1.3c-0.1-0.2,0.3-1.4,0.2-1.8
			c0.9-0.5,1.7-1.4,3-2.9C105.9,112.2,110.5,106.3,111,103.3"/>
		<path class="st38" d="M117.5,128.4l-3-2.9c0,0-1.5-8.2,2.2-10.3c2.2-1.3,8.2,0.5,12.5,2.2l2.8,9.3l0,0.1c-0.4-0.2-2.1-1.2-2.4-2.7
			c-1-5.8-12.2-6.2-12.2,1.9C117.4,127.2,117.5,128,117.5,128.4"/>
		<path class="st20" d="M103.1,116.5c0.8-0.9,13.5-14.9,5.6-14.9c-1.1,0-4,1.3-6.4,1c-2.9-0.4-5.2-2.7-3.3-6.7
			c1.5-3.3,5.6-9.7,9.5-10c5.2-0.5,4.1,3.5,6.2,6.2c1.9,2.4,2.7,4.1,5.7,1.9c5.2-3.8,6.8-13.3,14.1-10.1
			c4.3,1.9,23.2,16.1,23.2,16.1s5.5,4.7,2,10.9c-3.5,6.3-22.1,27.8-22.1,27.8s-2.2,3.3-6.8,1.9c-4.6-1.4-9.8-6.1-9.8-6.1
			s-2.2-2.2,1.9-3.5c4.1-1.4,6.5-2.7,7.1-4.9c0.5-2.2,0.1-7.2-4.9-8.7c-4.2-1.2-9.3,1.9-10.1,6.1c-0.4,2,0.3,3.3-2,3.5
			c-3.1,0.3-8.2-4.4-10.5-6.4C102.5,120.6,101.4,118.4,103.1,116.5"/>
		<path class="st10" d="M140.7,87.7c5.4,3.7,12.5,8.9,15.5,11.1c3.5,4.6,0.3,7.2-4.5,2.7c-0.3,7-4.9,7-5.2,0
			c-5.1,4.7-8.4,1.4-3.7-3.7c-7-0.3-7-4.9,0-5.2C140.9,90.6,140.3,88.7,140.7,87.7"/>
		<path class="st38" d="M102.3,102.6c-2.9-0.4-5.3-3.2-3.4-7.3c0.4-0.8,5.2-8.3,2.6-3.5c-2.3,4.2-4.1,10.4,2.9,10.1l0,0
			c3.6-0.7,7.6-2.1,6.9,3l-0.4-0.3c0,0,0.3-1,0.1-1.6c-0.3-1.1-1.1-1.4-2.1-1.4C106,102.2,104.1,102.8,102.3,102.6"/>
		<path class="st19" d="M139,113.7c0.1-3.9,2.7-3.9,2.9,0c2.8-2.6,4.7-0.8,2,2c3.9,0.1,3.9,2.7,0,2.9c2.6,2.8,0.8,4.7-2,2
			c-0.1,3.9-2.7,3.9-2.9,0c-2.8,2.6-4.7,0.8-2-2c-3.9-0.1-3.9-2.7,0-2.9C134.3,112.9,136.2,111.1,139,113.7"/>
	</g>
</g>
</svg>
