<svg width="81" height="88" viewBox="0 0 81 88" fill="none" xmlns="http://www.w3.org/2000/svg">
<g clip-path="url(#clip0_1_1753)">
<path fill-rule="evenodd" clip-rule="evenodd" d="M65.3818 62.608C65.4265 63.012 65.4265 63.461 65.4265 63.91L80.1945 61.4406L80.3735 64.1794L65.2028 66.7386L64.9343 68.0855L78.9862 65.7059L79.1652 68.4447L63.905 71.0039C63.6812 71.4978 63.4127 71.9916 63.1442 72.4406L72.542 70.8692L72.9895 73.5631L60.3696 75.6733C56.2972 79.1304 51.1956 79.2202 51.1956 79.2202L64.9343 59.9141L80.7315 57.2651L80.9105 60.0039L65.3818 62.608Z" fill="#F2D4A7"/>
<path fill-rule="evenodd" clip-rule="evenodd" d="M67.7088 45.2324C66.0978 36.6569 62.5177 28.9345 57.416 22.5141L66.1873 70.1059C67.1271 67.0528 67.8431 63.91 68.2011 60.6773L66.5005 61.8447L68.2458 59.2855L65.6503 61.0365L68.4696 57.3549V57.2651L65.2028 58.9263L68.5591 55.4692C68.6486 52.1467 68.3354 48.6896 67.7088 45.2324Z" fill="#D8D6D1"/>
<path fill-rule="evenodd" clip-rule="evenodd" d="M53.2541 47.9263C51.5983 38.857 53.2989 29.9672 57.4608 22.559L66.232 70.1508C63.5917 67.9508 61.2646 65.3916 59.2956 62.5631L60.9066 62.9672L58.4005 61.1712L61.4436 61.8896L57.3713 59.4202L61.1304 59.8243L56.4315 57.6243C54.9403 54.5506 53.8714 51.2882 53.2541 47.9263Z" fill="#E8E2D8"/>
<path fill-rule="evenodd" clip-rule="evenodd" d="M57.416 22.5141L66.232 75.4039L68.1116 80.2079" fill="#86837E"/>
<path fill-rule="evenodd" clip-rule="evenodd" d="M48.1078 6.21613C51.4641 6.21613 54.1939 8.9549 54.1939 12.3222C54.1939 13.9386 53.5674 15.4202 52.5381 16.4978C54.2387 17.0814 55.447 18.6978 55.447 20.5835C55.447 22.8733 53.6569 24.759 51.3746 24.8937C51.755 25.5641 51.9555 26.3222 51.9564 27.0937C51.9564 28.0814 51.6431 28.9794 51.0613 29.7427C52.5381 30.4161 53.5674 31.9427 53.5674 33.6937C53.5674 34.3222 53.4332 34.9059 53.2094 35.4447L41.3055 30.1018C43.6774 27.4529 45.1542 23.9508 45.1542 20.0896C45.1542 16.7222 44.0354 13.6243 42.1558 11.11C42.6928 8.32633 45.1542 6.21613 48.1078 6.21613Z" fill="#51392E"/>
<path fill-rule="evenodd" clip-rule="evenodd" d="M43.6774 55.0651L52.1801 52.7753L58.1321 62.2937H39.784" fill="#D68048"/>
<path fill-rule="evenodd" clip-rule="evenodd" d="M41.3055 30.1018L53.2542 35.4447V47.9263L50.4348 50.0365L49.0475 47.7916" fill="#E4AB74"/>
<path fill-rule="evenodd" clip-rule="evenodd" d="M41.574 30.1916L53.2094 35.4447C52.5829 36.9712 51.1061 38.0488 49.3608 38.0488C47.0785 38.0488 45.1989 35.2202 45.1989 33.6937L41.574 30.1916Z" fill="#D68048"/>
<path fill-rule="evenodd" clip-rule="evenodd" d="M58.1321 47.8814V51.159L52.1801 52.7753L50.4348 50.0365L53.2542 47.9263" fill="#8C6E4E"/>
<path fill-rule="evenodd" clip-rule="evenodd" d="M58.132 51.159V62.2937L52.1801 52.7753" fill="#744D3E"/>
<path fill-rule="evenodd" clip-rule="evenodd" d="M48.958 56.1876C53.0752 56.1876 56.6553 58.7018 58.1321 62.3386H39.784C41.2608 58.7018 44.8409 56.1876 48.958 56.1876Z" fill="#F2D4A7"/>
<path fill-rule="evenodd" clip-rule="evenodd" d="M25.553 62.2937H39.784L31.9972 76.7957L25.553 71.3631" fill="#E8E2D8"/>
<path fill-rule="evenodd" clip-rule="evenodd" d="M37.2331 20.9427C41.037 18.7427 42.9613 14.5222 42.4243 10.3916L25.553 20.1794C28.8199 22.6937 33.4293 23.1427 37.2331 20.9427Z" fill="#96604D"/>
<path fill-rule="evenodd" clip-rule="evenodd" d="M52.1801 52.7753L43.7221 55.0651C46.5862 57.2651 50.7033 56.1875 52.1801 52.7753Z" fill="#E4AE96"/>
<path fill-rule="evenodd" clip-rule="evenodd" d="M49.0475 47.7916L48.063 50.7998L45.7359 51.2488L43.6773 55.0651L50.4348 50.0365" fill="#D78267"/>
<path fill-rule="evenodd" clip-rule="evenodd" d="M43.2746 44.2447L49.0475 47.7916L44.8856 41.2365" fill="#E4AB74"/>
<path fill-rule="evenodd" clip-rule="evenodd" d="M43.9906 44.6937L44.5724 43.6161L46.9442 46.5345" fill="#AF875E"/>
<path fill-rule="evenodd" clip-rule="evenodd" d="M26.6271 38.6324L27.6564 50.6651L38.4862 52.9549L40.6343 49.0488L36.0696 39.9794" fill="#F2D4A7"/>
<path fill-rule="evenodd" clip-rule="evenodd" d="M27.6564 50.6651L38.4862 52.9549L36.3381 56.861L28.1934 56.412" fill="#AF875E"/>
<path fill-rule="evenodd" clip-rule="evenodd" d="M58.132 62.2937L31.9972 76.7957L39.784 62.2937M33.0713 22.3345L36.8751 28.3957L44.9304 41.2365L26.6271 38.6773C27.6564 38.6773 28.6856 37.5549 28.6856 36.8814C28.6856 36.2079 28.5961 36.2528 28.4619 35.9835H28.6856C29.4017 35.9835 29.9387 35.3998 29.9387 34.7263C29.9387 34.0079 29.3569 33.4692 28.6856 33.4692C28.5961 33.4692 28.5066 33.4692 28.4171 33.5141C28.6856 33.2896 28.8646 32.9304 28.8646 32.5712C28.8646 32.2569 28.7751 31.9875 28.5514 31.763H28.7751C29.8044 31.763 30.6995 30.91 30.6995 29.8324C30.6995 29.563 30.6547 29.2937 30.5652 29.0692C31.2812 29.0692 31.8182 28.4855 31.8182 27.812C31.8182 27.0937 31.2365 26.5549 30.5652 26.5549C30.4757 26.5549 30.3862 26.5549 30.2967 26.5998C30.5652 26.3753 30.7442 26.0161 30.7442 25.6569C30.7442 24.9386 30.1624 24.3998 29.4912 24.3998H29.4464C29.8939 23.8161 30.2519 23.1426 30.4757 22.3794C31.2365 22.3794 32.1315 22.4243 33.0713 22.3345Z" fill="#E4AB74"/>
<path fill-rule="evenodd" clip-rule="evenodd" d="M58.1321 62.2937L41.6188 84.9671L31.9973 76.7957" fill="#D8D6D1"/>
<path fill-rule="evenodd" clip-rule="evenodd" d="M29.3121 24.2651C30.0729 24.2651 30.6099 24.8488 30.6099 25.5222C30.6099 25.9263 30.4309 26.2406 30.1624 26.4651C30.2519 26.4651 30.3414 26.4202 30.4309 26.4202C31.1469 26.4202 31.684 27.0039 31.684 27.6773C31.684 28.3957 31.1022 28.9345 30.4309 28.9345C30.5204 29.159 30.5652 29.4284 30.5652 29.6977C30.5652 30.7753 29.7149 31.6284 28.6409 31.6284H28.4171C28.5961 31.8529 28.7304 32.1222 28.7304 32.4365C28.7304 32.8406 28.5514 33.1549 28.2829 33.3794C28.3724 33.3794 28.4619 33.3345 28.5514 33.3345C29.2674 33.3345 29.8044 33.9182 29.8044 34.5916C29.8044 35.31 29.2226 35.8488 28.5514 35.8488H28.3276C28.4619 36.1182 28.5514 36.0733 28.5514 36.7467C28.5514 37.4202 27.5668 38.5426 26.4928 38.5426L26.627 40.4284C27.3431 40.9671 27.8353 41.8651 27.8353 42.8529C27.8353 44.2896 26.8061 45.5018 25.4188 45.7712V20.1794C26.8061 21.2569 28.4619 21.9753 30.2072 22.2447C30.1177 22.9631 29.7596 23.6365 29.3121 24.2651Z" fill="#744D3E"/>
<path fill-rule="evenodd" clip-rule="evenodd" d="M25.5531 45.861C25.3741 45.9059 25.1503 45.9059 24.9713 45.9059C23.9868 45.9059 23.0917 45.412 22.5547 44.6488C22.2415 45.1876 21.6149 45.5467 20.9437 45.5467C19.9144 45.5467 19.0194 44.6937 19.0194 43.6161C19.0194 43.1223 19.1984 42.6733 19.5116 42.3141C18.6613 41.91 18.0348 41.0569 17.8558 40.0692C16.379 39.9794 15.1707 38.8569 15.0365 37.3753C12.7094 37.1957 10.8746 35.2651 10.8746 32.8855C10.8746 32.3018 10.9641 31.7631 11.1879 31.2692C10.5613 30.7304 10.0243 30.012 9.66632 29.2488L25.5083 20.0896V45.861H25.5531Z" fill="#2E2E2D"/>
<path fill-rule="evenodd" clip-rule="evenodd" d="M25.553 45.861C22.5547 45.861 20.1381 43.4365 20.1381 40.4284C20.1381 37.4202 22.5547 34.9957 25.553 34.9957V45.861ZM43.2746 44.2447L40.6343 49.0488L45.7359 51.2488L48.063 50.7998L49.0475 47.7916L43.2746 44.2447Z" fill="#F2D4A7"/>
<path fill-rule="evenodd" clip-rule="evenodd" d="M43.6773 55.0651L50.4348 50.0365L52.1801 52.7753" fill="#FEFEFE"/>
<path fill-rule="evenodd" clip-rule="evenodd" d="M23.1365 62.2937C22.2862 61.8447 21.6597 60.9018 21.6597 59.8692C21.6597 58.3875 22.8232 57.1753 24.3 57.1304C23.942 56.8161 23.7182 56.3222 23.7182 55.7835C23.7182 55.1998 23.9867 54.7059 24.3448 54.3916C23.405 53.9426 22.7785 52.9998 22.7785 51.9222C22.7786 51.3204 22.9758 50.7352 23.3396 50.2566C23.7034 49.7781 24.2138 49.4326 24.7923 49.2733C24.1657 49.0039 23.6735 48.3304 23.6735 47.5671C23.6735 46.5345 24.479 45.7263 25.5083 45.7263V62.3386H23.1365V62.2937Z" fill="#2E2E2D"/>
<path fill-rule="evenodd" clip-rule="evenodd" d="M47.884 42.1345C49.3608 42.359 50.4796 43.661 50.4796 45.1875C50.4796 46.31 49.8978 47.2528 49.0475 47.7916L47.3917 45.1875L39.2917 32.3018L33.0713 22.3345C34.5033 22.1998 35.9354 21.7508 37.2779 20.9875C41.0818 18.7875 43.0061 14.5671 42.4691 10.4365C44.4381 13.0406 45.6017 16.2733 45.6017 19.8202C45.6017 23.8161 44.0801 27.4977 41.6188 30.2365C45.4227 32.5712 47.9287 36.7467 47.9287 41.5508C47.884 41.6855 47.884 41.91 47.884 42.1345Z" fill="#F2D4A7"/>
<path fill-rule="evenodd" clip-rule="evenodd" d="M30.6994 13.5794L30.6099 13.6692L30.5204 13.8039L30.4757 13.759C30.0282 13.4447 29.7149 12.9957 29.6254 12.4569C29.5359 11.9182 29.6254 11.4243 29.9387 10.9753V10.9304C30.2519 10.4814 30.6994 10.212 31.2364 10.1223C31.7735 10.0325 32.3105 10.1672 32.758 10.4814H32.8027C33.653 11.0651 34.2795 12.008 34.4585 13.0406C34.6823 14.0733 34.4585 15.1059 33.8768 15.959C33.295 16.812 32.3552 17.3508 31.3707 17.5304C30.3414 17.71 29.2674 17.4406 28.4171 16.8569C27.1193 15.959 26.2243 14.612 25.911 13.0855C25.5978 11.559 25.911 10.0325 26.8061 8.77531C27.7011 7.51817 29.0436 6.66511 30.5652 6.44062C32.1315 6.17123 33.6978 6.57531 34.9508 7.47327C36.6514 8.64062 37.8149 10.4365 38.2177 12.4569C38.6204 14.4325 38.2177 16.4978 37.0541 18.2039C35.8906 19.8651 34.1005 20.9876 32.0867 21.3018C30.0282 21.6161 27.9696 21.1223 26.269 19.9549L26.2243 19.91L26.3138 19.8202L26.4033 19.6855L26.448 19.7304C28.1038 20.8529 30.0729 21.3467 32.042 21.0325C33.9663 20.7182 35.6668 19.6855 36.7856 18.0692C37.9044 16.4529 38.2624 14.4774 37.9044 12.5916C37.5016 10.6161 36.3828 8.91001 34.727 7.78756C33.5188 6.9345 32.042 6.57531 30.5652 6.7998C29.1331 7.02429 27.8801 7.78756 27.0298 8.9998C26.1795 10.212 25.911 11.6488 26.1795 13.0855C26.448 14.5672 27.3431 15.8243 28.5514 16.6774C29.3569 17.2161 30.3414 17.4855 31.2812 17.3059C32.221 17.1712 33.0712 16.6325 33.6083 15.8692C34.1453 15.1059 34.3243 14.1182 34.1453 13.1753C33.9663 12.2325 33.3845 11.3794 32.579 10.8406C32.1762 10.5712 31.7287 10.4365 31.2812 10.5263C30.8337 10.6161 30.4309 10.8406 30.1624 11.1998C29.8939 11.559 29.8044 12.0529 29.8939 12.5018C29.9834 12.9508 30.2519 13.3549 30.6547 13.6243L30.6994 13.5794Z" fill="#744D3E"/>
<path fill-rule="evenodd" clip-rule="evenodd" d="M27.5221 18.9222C30.5205 19.9549 33.5635 19.8651 36.3829 18.3835C38.3072 17.3508 39.9182 15.7794 41.1265 13.9835C42.2453 12.2774 43.0508 10.2569 43.2746 8.23654C43.4984 6.35082 43.1851 4.24062 41.8426 2.75899C40.3658 1.14266 38.3072 0.199802 36.1144 0.334495C35.1746 0.379393 34.2348 0.693679 33.3845 1.18756C32.6238 1.68143 31.9525 2.31001 31.5497 3.11817C30.789 4.5998 30.9232 6.26103 31.5945 7.78756C32.3105 9.40388 33.5635 10.6161 35.4431 10.5263C36.2486 10.4814 37.0094 10.212 37.7254 9.80796C38.3967 9.40388 39.0232 8.86511 39.4707 8.23654C40.0972 7.33858 40.4553 6.12633 39.6945 5.18348L39.6497 5.09368L39.963 4.82429L40.0077 4.91409C40.858 5.99164 40.5448 7.38347 39.784 8.46103C39.2917 9.13449 38.6205 9.71817 37.9044 10.1671C37.1437 10.6161 36.2934 10.8855 35.4431 10.9753C33.3845 11.0651 31.9972 9.80796 31.1917 8.01205C30.4757 6.39572 30.2967 4.5998 31.147 3.02837C31.5945 2.13041 32.3105 1.41205 33.116 0.918169C34.0111 0.379393 34.9956 0.0651077 36.0249 0.0202097C38.3519 -0.159382 40.5 0.873271 42.0663 2.57939C43.4984 4.10592 43.8116 6.35082 43.5879 8.37123C43.3641 10.4365 42.5138 12.5467 41.395 14.2529C40.142 16.1386 38.4862 17.7549 36.5171 18.7876C33.6083 20.3141 30.4309 20.4039 27.3431 19.3712L27.2536 19.3263L27.3879 18.9671L27.5221 18.9222Z" fill="#AF875E"/>
<path fill-rule="evenodd" clip-rule="evenodd" d="M44.9304 41.2365L29.9834 39.1263C30.6099 34.6814 33.116 30.7753 36.9199 28.3957L44.9304 41.2365Z" fill="#F8E9D3"/>
<path fill-rule="evenodd" clip-rule="evenodd" d="M29.9387 39.1263C30.5652 34.6814 33.0713 30.7753 36.8751 28.3957L37.4121 29.2488C31.326 31.8978 29.9387 39.1263 29.9387 39.1263Z" fill="#8C6E4E"/>
<path fill-rule="evenodd" clip-rule="evenodd" d="M44.9304 41.2365L35.4431 39.8896C35.8459 37.1059 37.4569 34.5916 39.8288 33.11L44.9304 41.2365Z" fill="#E4AB74"/>
<path fill-rule="evenodd" clip-rule="evenodd" d="M44.9304 41.2365L36.0696 39.9794C36.4276 37.3753 37.9491 35.0406 40.142 33.6488L44.9304 41.2365Z" fill="#FEFEFE"/>
<path fill-rule="evenodd" clip-rule="evenodd" d="M37.7701 35.8488C38.3967 34.9957 39.2469 34.2324 40.142 33.6488L42.648 37.5998C42.1558 37.9141 41.5293 38.0937 40.9027 38.0937C39.4259 38.0937 38.2177 37.1508 37.7701 35.8488Z" fill="#BBCAD6"/>
<path fill-rule="evenodd" clip-rule="evenodd" d="M39.8735 33.8284C39.963 33.7835 40.0525 33.6937 40.142 33.6488L41.6188 36.0284C41.395 36.1631 41.1265 36.2529 40.858 36.2529C40.0972 36.2529 39.4707 35.6243 39.4707 34.861C39.4707 34.412 39.6497 34.0529 39.8735 33.8284Z" fill="#778086"/>
<path fill-rule="evenodd" clip-rule="evenodd" d="M39.4707 34.3671C39.6944 34.3671 39.8735 34.5467 39.8735 34.7712C39.8735 34.9957 39.6944 35.1753 39.4707 35.1753C39.2469 35.1753 39.0679 34.9957 39.0679 34.7712C39.0679 34.5467 39.2469 34.3671 39.4707 34.3671Z" fill="#FEFEFE"/>
<path fill-rule="evenodd" clip-rule="evenodd" d="M44.9304 41.2365L40.6342 49.0488C37.7701 47.4773 36.0248 44.4692 36.0248 41.2365C36.0248 40.8324 36.0696 40.4283 36.1143 39.9794L44.9304 41.2365Z" fill="#F8E9D3"/>
<path fill-rule="evenodd" clip-rule="evenodd" d="M39.784 62.2937H25.553V45.861L27.1641 44.9631L28.1934 56.4121L36.3381 56.861L40.6343 49.0488L45.7359 51.2488" fill="#8C6E4E"/>
<mask id="mask0_1_1753" style="mask-type:luminance" maskUnits="userSpaceOnUse" x="0" y="60" width="9" height="9">
<path d="M0 60.4066H8.81602V68.8043H0V60.4066Z" fill="#E4AB74"/>
</mask>
<g mask="url(#mask0_1_1753)">
<path fill-rule="evenodd" clip-rule="evenodd" d="M0 60.453C0 60.453 3.75912 59.9142 6.66796 62.5183C7.87624 63.5958 8.45801 64.8979 8.81602 66.0652V68.804L0 60.453Z" fill="#E4AB74"/>
</g>
<path fill-rule="evenodd" clip-rule="evenodd" d="M11.8591 68.8039C12.3066 68.8488 12.7989 68.8937 13.3359 68.9835V51.8773L16.4238 52.1916V69.7467L17.9006 70.2855V54.0324L20.9884 54.3467V71.9916C21.4807 72.3508 21.9729 72.71 22.4652 73.159V62.2937H25.5531V76.8855C28.6409 82.1386 27.7906 87.8406 27.7906 87.8406L8.81604 68.759V50.5304L11.9039 50.8447L11.8591 68.8039Z" fill="#F2D4A7"/>
<path fill-rule="evenodd" clip-rule="evenodd" d="M64.979 67.3671C66.6796 65.0324 66.6796 61.9794 65.2475 59.6447L57.774 70.061C60.4144 70.6896 63.3232 69.7018 64.979 67.3671Z" fill="#F8E9D3"/>
<path fill-rule="evenodd" clip-rule="evenodd" d="M60.2354 75.808C62.3387 72.8896 62.3834 69.0733 60.5934 66.1549L51.2403 79.1753C54.5072 79.9835 58.0873 78.7712 60.2354 75.808Z" fill="#F8E9D3"/>
</g>
<defs>
<clipPath id="clip0_1_1753">
<rect width="81" height="88" fill="white"/>
</clipPath>
</defs>
</svg>
