<svg width="61" height="64" viewBox="0 0 61 64" fill="none" xmlns="http://www.w3.org/2000/svg">
<path d="M38.5436 55.3852L38.9957 54.7636V54.0854L38.261 53.0116V52.4464L38.3175 51.3161L38.148 50.0728L37.6959 49.225H37.4133L37.0177 50.0728L36.7351 50.5249L36.396 51.5987V52.616L36.1134 53.6898L35.7743 55.3852L36.1134 55.6113L37.0742 55.4418L38.0915 55.6113L38.5436 55.3852ZM45.495 61.2629L45.8906 62.3367L45.7211 62.6192L44.8168 63.0714L44.1951 63.58L43.4039 63.467L41.765 63.0714L40.5216 63.2409H39.3913L37.8654 62.0541L37.4698 61.941V61.6585L37.9784 61.2629L39.5043 61.0368L39.8434 60.6412V58.211L39.5043 57.8154L37.1307 57.985L36.396 57.4763L35.7178 57.5328L34.4745 59.5674L34.644 60.1325L36.6221 61.6019L36.6786 61.8845L36.1134 62.1671L35.5483 62.7888H34.3614L33.9658 63.0714H32.779L32.2704 63.2409L31.2531 63.0714H30.7444L29.7272 62.6192L29.4446 61.828V61.3194L30.6314 60.7542L31.4791 60.5847L32.4964 58.9457L32.779 56.7981L33.2311 55.8939V55.1027L33.6832 53.9723L33.8528 52.8986L34.8701 50.0163L35.3787 47.5861L35.7743 46.7949L35.8874 45.382L37.6393 43.5735L38.148 43.743L38.5436 44.2517L39.3913 44.8168L40.013 46.7949L40.7477 47.9817L40.4086 49.225L40.4651 50.4684L41.1433 51.3726L41.3694 53.4637L41.4824 54.368L41.765 55.4418L42.3301 56.459L42.6692 57.985L43.0083 58.8327L43.5735 59.3413L44.7603 60.3021L45.0429 60.3586L45.495 61.2629Z" fill="#57636A"/>
<path d="M18.9892 34.9831H39.1653L29.1055 10.9075L18.9892 34.9831ZM40.6912 38.261H17.4633L14.694 44.7603C12.8855 49.0555 11.9813 51.6552 11.9813 52.616C11.9813 53.2377 12.1508 53.6898 12.4899 53.9724C12.829 54.2549 13.6768 54.4245 15.0331 54.594L18.8762 55.0462V57.5894C16.333 57.4198 13.3942 57.3633 10.1728 57.3633C6.32974 57.3633 2.93881 57.4198 0 57.5894V55.0462L1.18683 54.9896C3.05184 54.9331 4.29518 54.7636 4.86034 54.4245C5.42549 54.0854 5.99065 53.2377 6.61232 51.9378C8.53385 48.0947 10.4554 43.9126 12.4334 39.4479L23.6235 14.468C26.5623 7.85566 28.5969 3.05184 29.6707 0H32.3834L52.729 47.247C54.0854 50.4684 54.9896 52.3899 55.4418 53.0681C55.8939 53.7463 56.4025 54.1984 57.0242 54.481C57.5894 54.7636 58.9457 54.9331 60.9803 55.0462V57.5894C57.4763 57.4198 54.1984 57.3633 51.0336 57.3633C48.0947 57.3633 44.1952 57.4198 39.2783 57.5894V55.0462L43.2344 54.8201C44.6473 54.7071 45.495 54.594 45.7776 54.368C46.1732 54.0854 46.3993 53.6898 46.3993 53.2377C46.3993 52.7855 46.0037 51.4857 45.2125 49.4511L40.6912 38.261Z" fill="#B6C0CE"/>
</svg>
