<?xml version="1.0" encoding="utf-8"?>
<!-- Generator: Adobe Illustrator 25.4.1, SVG Export Plug-In . SVG Version: 6.00 Build 0)  -->
<svg version="1.1" xmlns="http://www.w3.org/2000/svg" xmlns:xlink="http://www.w3.org/1999/xlink" x="0px" y="0px"
	 viewBox="0 0 231 209.4" style="enable-background:new 0 0 231 209.4;" xml:space="preserve">
<style type="text/css">
	.st0{display:none;}
	.st1{display:inline;fill-rule:evenodd;clip-rule:evenodd;fill:#61A6B5;}
	.st2{display:inline;fill-rule:evenodd;clip-rule:evenodd;fill:#FFFFFF;}
	.st3{display:inline;fill:#9C0F14;}
	.st4{display:inline;fill-rule:evenodd;clip-rule:evenodd;fill:#FEFEFE;}
	.st5{fill-rule:evenodd;clip-rule:evenodd;fill:#D3F2F7;}
	.st6{fill-rule:evenodd;clip-rule:evenodd;fill:#A4CAD8;}
	.st7{fill-rule:evenodd;clip-rule:evenodd;fill:#FEFEFE;}
	.st8{fill-rule:evenodd;clip-rule:evenodd;fill:#C6E4E9;}
	.st9{fill-rule:evenodd;clip-rule:evenodd;fill:#61A6B5;}
	.st10{fill-rule:evenodd;clip-rule:evenodd;fill:#72C0CF;}
	.st11{fill:#8C6521;}
	.st12{fill:#BE983D;}
	.st13{fill:#FEFEFE;}
	.st14{fill:#57636A;}
	.st15{fill:#B6C0CE;}
	.st16{fill:none;stroke:#586E76;stroke-width:1.4173;stroke-linecap:round;stroke-linejoin:round;stroke-miterlimit:22.9256;}
	.st17{fill-rule:evenodd;clip-rule:evenodd;fill:#6D0000;}
	.st18{fill-rule:evenodd;clip-rule:evenodd;fill:#B32025;}
	.st19{fill-rule:evenodd;clip-rule:evenodd;fill:#9C0F14;}
	.st20{fill-rule:evenodd;clip-rule:evenodd;fill:#F2CF9F;}
	.st21{fill-rule:evenodd;clip-rule:evenodd;fill:#E5A772;}
	.st22{fill-rule:evenodd;clip-rule:evenodd;fill:#C88D5B;}
	.st23{fill-rule:evenodd;clip-rule:evenodd;fill:#7B0000;}
	.st24{fill-rule:evenodd;clip-rule:evenodd;fill:#7E7C70;}
	.st25{fill-rule:evenodd;clip-rule:evenodd;fill:#686660;}
	.st26{fill:none;stroke:#2E2E2D;stroke-width:0.5;stroke-miterlimit:22.9256;}
	.st27{fill-rule:evenodd;clip-rule:evenodd;fill:#414141;}
	.st28{fill-rule:evenodd;clip-rule:evenodd;fill:#DC824A;}
	
		.st29{fill-rule:evenodd;clip-rule:evenodd;fill:none;stroke:#586E76;stroke-width:1.206;stroke-linecap:round;stroke-linejoin:round;stroke-miterlimit:22.9256;}
	.st30{display:inline;}
	.st31{fill:#444444;}
	.st32{fill:#9CBECC;}
	.st33{fill:#6D0000;}
	.st34{fill-rule:evenodd;clip-rule:evenodd;fill:#FFFFFF;}
	.st35{fill-rule:evenodd;clip-rule:evenodd;fill:#7C7B70;}
	.st36{fill-rule:evenodd;clip-rule:evenodd;fill:#676660;}
	.st37{fill:none;stroke:#323231;stroke-width:0.5;stroke-miterlimit:22.926;}
	.st38{fill-rule:evenodd;clip-rule:evenodd;fill:#434343;}
</style>
<g id="Layer_2" class="st0">
	<path class="st1" d="M120,33.1c42.7,0,77.4,34.6,77.4,77.4s-34.6,77.4-77.4,77.4s-77.4-34.6-77.4-77.4S77.3,33.1,120,33.1"/>
	<path class="st2" d="M120,25.2c42.7,0,77.4,34.6,77.4,77.4s-34.6,77.4-77.4,77.4s-77.4-34.6-77.4-77.4S77.3,25.2,120,25.2"/>
</g>
<g id="Layer_1">
	<path class="st14" d="M134.2,142.4l0.8-1.1v-1.2l-1.3-1.9v-1l0.1-2l-0.3-2.2l-0.8-1.5h-0.5l-0.7,1.5l-0.5,0.8l-0.6,1.9v1.8
		l-0.5,1.9l-0.6,3l0.6,0.4l1.7-0.3l1.8,0.3L134.2,142.4z M146.5,152.8l0.7,1.9l-0.3,0.5l-1.6,0.8l-1.1,0.9l-1.4-0.2l-2.9-0.7
		l-2.2,0.3h-2l-2.7-2.1l-0.7-0.2v-0.5l0.9-0.7l2.7-0.4l0.6-0.7v-4.3l-0.6-0.7l-4.2,0.3l-1.3-0.9l-1.2,0.1l-2.2,3.6l0.3,1l3.5,2.6
		l0.1,0.5l-1,0.5l-1,1.1h-2.1l-0.7,0.5H124l-0.9,0.3l-1.8-0.3h-0.9l-1.8-0.8l-0.5-1.4v-0.9l2.1-1l1.5-0.3l1.8-2.9l0.5-3.8l0.8-1.6
		v-1.4l0.8-2l0.3-1.9l1.8-5.1l0.9-4.3l0.7-1.4l0.2-2.5l3.1-3.2l0.9,0.3l0.7,0.9l1.5,1l1.1,3.5l1.3,2.1l-0.6,2.2l0.1,2.2l1.2,1.6
		l0.4,3.7l0.2,1.6l0.5,1.9l1,1.8l0.6,2.7l0.6,1.5l1,0.9l2.1,1.7l0.5,0.1L146.5,152.8z"/>
	<path class="st15" d="M99.6,106.3h35.7l-17.8-42.6L99.6,106.3z M138,112.1H96.9l-4.9,11.5c-3.2,7.6-4.8,12.2-4.8,13.9
		c0,1.1,0.3,1.9,0.9,2.4c0.6,0.5,2.1,0.8,4.5,1.1l6.8,0.8v4.5c-4.5-0.3-9.7-0.4-15.4-0.4c-6.8,0-12.8,0.1-18,0.4v-4.5l2.1-0.1
		c3.3-0.1,5.5-0.4,6.5-1c1-0.6,2-2.1,3.1-4.4c3.4-6.8,6.8-14.2,10.3-22.1L107.8,70c5.2-11.7,8.8-20.2,10.7-25.6h4.8l36,83.6
		c2.4,5.7,4,9.1,4.8,10.3c0.8,1.2,1.7,2,2.8,2.5c1,0.5,3.4,0.8,7,1v4.5c-6.2-0.3-12-0.4-17.6-0.4c-5.2,0-12.1,0.1-20.8,0.4v-4.5
		l7-0.4c2.5-0.2,4-0.4,4.5-0.8c0.7-0.5,1.1-1.2,1.1-2c0-0.8-0.7-3.1-2.1-6.7L138,112.1z"/>
</g>
<g id="Layer_3" class="st0">
	<g class="st30">
		<path class="st31" d="M101.4,92c1.7,0,3-0.3,3.8-1c0.8-0.7,1.2-1.5,1.2-2.6c0-0.9-0.3-1.8-0.9-2.8c-0.6-1-1.6-1.9-2.8-2.8
			c-1.3-0.9-2.8-1.6-4.7-2.1c-1.9-0.5-4-0.8-6.4-0.8c-2.2,0-4.3,0.2-6.2,0.6c1.5,1.5,2.9,2.9,4.3,4.3c1.4,1.4,2.8,2.6,4.1,3.7
			c1.4,1.1,2.7,1.9,3.9,2.5C99,91.7,100.2,92,101.4,92 M111.9,103.4c0.8,0,1.6,0,2.6,0c0.9,0,1.9,0,2.8-0.1c0.9,0,1.8-0.1,2.6-0.1
			c0.8,0,1.4-0.1,1.9-0.2c1.2-2.9,2.4-5.8,3.6-8.6c1.2-2.9,2.3-5.5,3.4-8c1-2.4,1.9-4.6,2.7-6.4c0.8-1.8,1.3-3.1,1.7-3.9
			c0,0,0-0.1,0.1-0.1c0,0,0-0.1,0-0.1c0,0,0-0.1,0-0.2c0-0.1-0.1-0.2-0.2-0.2c-0.5,0-1.2,0.4-2.2,1.3s-2.1,2-3.4,3.5
			c-1.3,1.4-2.6,3.1-4.1,5c-1.5,1.9-3,3.8-4.5,5.8c-1.5,2-3,4-4.4,6c-1.4,2-2.8,3.9-3.9,5.5c-0.3,0.4-0.5,0.7-0.5,0.8H111.9z
			 M77.8,115c1.8,0,3.4-0.3,4.9-0.8c1.4-0.5,2.7-1.2,3.7-2.1c1-0.9,1.8-1.8,2.3-2.8c0.5-1,0.8-2.1,0.8-3.1c0-1.7-0.7-3.2-2.2-4.4
			c-1.5-1.3-3.8-1.9-7.1-1.9c-1.5,0-3,0.3-4.4,0.8c-1.4,0.5-2.7,1.2-4,2.1c-1.2,0.9-2.3,2-3.4,3.2c-1,1.2-1.9,2.5-2.6,3.8
			c1,1.6,2.5,2.9,4.5,3.8C72.3,114.6,74.8,115,77.8,115z M116.7,126c-0.2,0.4-0.3,0.8-0.3,1.1c0,0.6,0.3,1.1,0.8,1.4
			c0.5,0.3,1.2,0.5,1.9,0.6c0.3,0,0.5,0.1,0.8,0.1s0.6,0,1.1,0c0.2,0,0.3,0.2,0.3,0.5c0,0.2-0.1,0.4-0.2,0.5
			c-0.1,0.2-0.3,0.2-0.5,0.2c-0.2,0-0.5,0-1,0c-0.5,0-1.1-0.1-1.8-0.1c-0.7,0-1.4-0.1-2.2-0.1c-0.8,0-1.5,0-2.3,0c-0.5,0-1.2,0-2,0
			c-0.8,0-1.5,0-2.2,0c-0.7,0-1.4,0-1.9,0c-0.6,0-0.9,0-1.1,0c-0.3,0-0.4-0.1-0.4-0.2c0-0.1,0-0.3-0.1-0.4c0-0.1,0-0.3,0.1-0.4
			c0.1-0.2,0.2-0.3,0.4-0.3c0.9,0,1.7-0.1,2.3-0.3c0.6-0.2,1.1-0.5,1.6-0.8c0.5-0.4,0.8-0.8,1.2-1.4c0.3-0.5,0.7-1.2,1.1-2
			c0.9-1.9,2.1-4.5,3.6-7.9c1.5-3.4,3.1-7,4.8-11l-11.8-0.5c-2.4,3.3-4.8,6.6-7.3,9.7c-2.5,3.1-5.1,5.9-8,8.3
			c-2.8,2.4-5.9,4.4-9.2,5.8c-3.3,1.5-7,2.2-11,2.2c-2.5,0-4.7-0.3-6.5-1c-1.8-0.7-3.3-1.6-4.5-2.7c-1.2-1.1-2-2.4-2.6-3.9
			c-0.5-1.5-0.8-3.1-0.8-4.7c0-1.8,0.3-3.6,0.8-5.5c0.6-1.8,1.4-3.6,2.6-5.3c-0.9-1.7-1.3-3.7-1.3-6c0-2.2,0.5-4.5,1.4-6.7
			c0.9-2.3,2.3-4.4,4.1-6.4c1.8-2,4.1-3.8,6.8-5.4c2.7-1.6,5.9-2.8,9.5-3.6c-1.2-1.2-2.5-2.3-3.8-3.4c-1.3-1.1-2.6-2-3.9-2.8
			c-1.3-0.8-2.7-1.5-4.1-1.9c-1.4-0.5-2.9-0.7-4.4-0.7c-1.6,0-2.7,0.5-3.5,1.4c-0.7,0.9-1.1,2-1.1,3.2c0,1.2,0.3,2.2,0.9,3.2
			c0.6,0.9,1.5,1.4,2.6,1.4c0.6,0,1.1-0.1,1.5-0.3c0.4-0.2,0.8-0.5,1.1-0.8c0.3-0.3,0.5-0.6,0.6-0.8c0.2-0.3,0.3-0.5,0.4-0.5
			l0.2-0.2c0.2-0.2,0.4-0.3,0.7-0.3c0.8,0,1.2,0.3,1.2,0.8c0,0.5-0.5,1.2-1.5,1.9c-1,0.7-2.3,1.1-4,1.1c-2.2,0-3.8-0.5-4.8-1.6
			c-1-1-1.5-2.2-1.5-3.5c0-1.5,0.6-2.9,1.9-4.1c1.2-1.2,3.1-1.9,5.5-1.9c1.5,0,3,0.3,4.5,0.8c1.5,0.5,2.9,1.3,4.4,2.2
			c1.4,0.9,2.8,1.9,4.2,3.1c1.4,1.2,2.7,2.4,4.1,3.6c1.3-0.2,2.7-0.4,4.2-0.6c1.5-0.2,3-0.2,4.6-0.2c2.8,0,5.3,0.3,7.4,0.9
			c2.1,0.6,3.9,1.4,5.3,2.3c1.4,0.9,2.4,2,3.1,3.2c0.7,1.2,1,2.3,1,3.4c0,1.4-0.5,2.5-1.6,3.5c-1.1,1-2.7,1.5-4.8,1.5
			c-1.8,0-3.5-0.4-5.1-1.1c-1.6-0.7-3.2-1.7-4.8-2.8c-1.6-1.2-3.1-2.5-4.7-4c-1.5-1.5-3.1-3.1-4.6-4.6c-3.1,0.8-5.9,2-8.4,3.6
			c-2.5,1.6-4.6,3.5-6.3,5.6c-1.7,2.1-3.1,4.3-4,6.6c-0.9,2.3-1.4,4.5-1.4,6.7c0,0.9,0.1,1.8,0.2,2.6l0.2-0.2
			c1.1-1.2,2.3-2.3,3.6-3.1c1.3-0.9,2.6-1.6,4-2.1c1.4-0.5,2.7-0.9,4-1.2s2.6-0.4,3.8-0.4c2,0,3.8,0.3,5.3,0.8
			c1.5,0.5,2.8,1.2,3.9,2c1,0.8,1.8,1.8,2.4,2.8c0.5,1.1,0.8,2.1,0.8,3.2c0,1.1-0.3,2.1-0.8,3.2c-0.5,1-1.4,2-2.5,2.8
			c-1.2,0.8-2.6,1.5-4.4,2c-1.8,0.5-3.8,0.7-6.2,0.7c-3.1,0-5.8-0.4-8-1.3c-2.2-0.9-4-2-5.4-3.5c-1.1,2.4-1.6,4.9-1.6,7.4
			c0,1.4,0.2,2.8,0.6,4.1c0.4,1.3,1.1,2.4,2,3.3c0.9,0.9,2.1,1.7,3.5,2.2c1.4,0.5,3.1,0.8,5.1,0.8c3.6,0,6.9-0.8,10-2.3
			c3.1-1.5,6.1-3.6,8.9-6.1c2.8-2.6,5.6-5.6,8.3-9.1c2.7-3.5,5.5-7.2,8.3-11.1c3.8-5.3,7.3-10.2,10.6-14.6
			c3.3-4.4,6.8-8.1,10.3-11.3c3.5-3.1,7.2-5.5,11.2-7.3c3.9-1.7,8.4-2.6,13.4-2.6c3,0,5.6,0.3,7.6,0.8c2.1,0.6,3.7,1.3,5,2.2
			c1.2,0.9,2.1,2,2.7,3.1c0.5,1.1,0.8,2.2,0.8,3.3c0,0.9-0.1,1.7-0.4,2.5c-0.3,0.8-0.7,1.5-1.2,2.1c-0.5,0.6-1,1.1-1.6,1.5
			c-0.6,0.4-1.3,0.5-1.9,0.5c-0.6,0-1.1-0.2-1.4-0.5c-0.3-0.3-0.5-0.7-0.5-1.1c0-0.4,0.1-0.8,0.4-1.1c0.3-0.3,0.8-0.6,1.4-0.6
			c1.2-0.1,2.1-0.5,2.7-1.2c0.7-0.7,1-1.5,1-2.4c0-0.9-0.3-1.8-0.8-2.7c-0.6-0.9-1.5-1.8-2.7-2.6c-1.2-0.8-2.8-1.4-4.6-2
			c-1.9-0.5-4.1-0.8-6.7-0.8c-1.5,0-3.1,0.2-4.7,0.5c-1.7,0.3-3.3,0.9-4.9,1.7c-1.6,0.8-3.1,2-4.5,3.4c-1.4,1.4-2.5,3.2-3.4,5.4
			c-1.4,3.3-3.9,9.1-7.6,17.3C126.5,102.7,122,113.2,116.7,126z"/>
		<path class="st32" d="M93.6,54.5l-3.2,5.2c0.9-0.2,2.3-0.5,4.2-0.9L93.6,54.5z M97.6,67.5c-0.7,0-1.3-0.9-1.8-2.7
			c-0.2-0.7-0.5-1.9-0.8-3.6c-0.8,0.1-1.8,0.3-3,0.6l-3,0.6c-0.4,1-1,2.4-1.9,4.4c-0.2,0.4-0.6,0.6-1,0.6c-0.3,0-0.6-0.1-0.8-0.3
			c-0.2-0.2-0.4-0.5-0.4-0.8c0-0.4,0.6-1.8,1.7-4.2c-0.1-0.2-0.2-0.4-0.2-0.7c0-0.6,0.4-1,1.1-1.2c0.9-1.6,2-3.5,3.3-5.6
			c1.8-2.9,2.9-4.3,3.4-4.3c0.6,0,1,0.4,1.2,1.3l0.7,3.8l1.7,7.9l0.6,1.8c0.2,0.6,0.3,1,0.3,1.2c0,0.3-0.1,0.6-0.4,0.8
			C98.2,67.4,97.9,67.5,97.6,67.5z"/>
		<path class="st33" d="M153.8,86.9v6.5c-0.1,0.9-0.4,1.8-1,2.7c-0.3,0.4-0.6,0.7-0.9,0.9c-0.4,0.3-0.8,0.5-1.2,0.5
			c-0.4,0-0.8-0.2-1.2-0.6c-0.5-0.4-0.7-1.1-0.7-2.3v-0.9c0-1.9,0.5-3.2,1.6-4.1C151.4,88.8,152.5,87.9,153.8,86.9 M159.4,78.4
			l1.7-0.5V77h-7.3v2c-1.2-1.6-2.9-2.4-5.2-2.3c-1.2,0-2.3,0.4-3.5,1.3c-1.2,0.9-1.8,2.4-1.9,4.3c0,0.9,0.3,1.8,0.8,2.5
			c0.5,0.8,1.2,1.2,1.9,1.2c1.8-0.1,2.8-1,2.9-2.8c0-1.8-0.9-2.8-2.5-2.8c-1,0-1.5,0.5-1.7,1.3l-0.2-0.1c0.1-1,0.7-1.9,1.6-2.5
			c0.8-0.6,1.8-0.9,2.9-0.9c1.5,0,2.7,0.4,3.7,1.3c0.9,0.9,1.4,2,1.4,3.3c0,1.2-0.3,2-0.8,2.6c-0.5,0.6-1,1.1-1.4,1.3
			c-0.9,0.6-1.9,1-2.8,1.4c-1,0.4-2,0.8-2.8,1.3c-0.9,0.5-1.6,1.2-2,2c-0.5,0.9-0.8,2-0.8,3.4c-0.1,1.3,0.2,2.6,0.9,3.8
			c0.7,1.2,1.9,1.8,3.7,1.9c1.6,0,2.9-0.4,3.8-1.1c0.9-0.7,1.6-1.6,2.2-2.7c-1.4,6.8-4.7,10.2-10,10.3c-0.5,0-0.9-0.1-1.2-0.4
			l-0.4,1l1,0.8V128l-1.7,0.5v0.9h8.4v-0.9l-1.1-0.5v-21c1-0.4,2-1.2,3-2.3c0.9-1,1.6-2.2,2.1-3.5V128l-1.1,0.5v0.9h8.4v-0.9
			l-1.7-0.5V78.4z"/>
	</g>
</g>
</svg>
