<svg width="23" height="23" viewBox="0 0 23 23" fill="none" xmlns="http://www.w3.org/2000/svg">
<path d="M22.7914 11.3957C22.7914 5.10203 17.6894 0 11.3957 0C5.10203 0 0 5.10203 0 11.3957C0 17.6894 5.10203 22.7914 11.3957 22.7914C17.6894 22.7914 22.7914 17.6894 22.7914 11.3957Z" fill="#0077FF"/>
<path d="M12.1261 16.4198C6.93155 16.4198 3.96867 12.8586 3.84521 6.92334H6.44723C6.5327 11.2727 8.45098 13.096 9.9704 13.4949V6.93284H12.4205V10.6839C13.9209 10.5225 15.4973 8.81313 16.0291 6.93284H18.4792C18.2823 7.91062 17.8854 8.83714 17.3135 9.65425C16.7415 10.4713 16.0068 11.1614 15.1554 11.681C16.1046 12.1518 16.9431 12.8184 17.6159 13.6368C18.2887 14.4552 18.7803 15.407 19.0585 16.4293H16.352C16.1037 15.5396 15.598 14.7432 14.8986 14.14C14.1991 13.5369 13.337 13.1538 12.4205 13.039V16.4293L12.1261 16.4198Z" fill="white"/>
</svg>
